<svg id="Layer_3" enable-background="new 0 0 64 64" height="512" viewBox="0 0 64 64" width="512" xmlns="http://www.w3.org/2000/svg"><path d="m36 7h-28c-1.654 0-3 1.346-3 3v8c0 1.654 1.346 3 3 3h28c1.654 0 3-1.346 3-3v-8c0-1.654-1.346-3-3-3zm1 11c0 .551-.449 1-1 1h-28c-.551 0-1-.449-1-1v-8c0-.551.449-1 1-1h28c.551 0 1 .449 1 1z"/><path d="m36 23h-28c-1.654 0-3 1.346-3 3v28c0 1.654 1.346 3 3 3h28c1.654 0 3-1.346 3-3v-28c0-1.654-1.346-3-3-3zm1 3v13h-14v-14h13c.551 0 1 .449 1 1zm-29-1h13v14h-14v-13c0-.551.449-1 1-1zm-1 29v-13h14v14h-13c-.551 0-1-.448-1-1zm29 1h-13v-14h14v13c0 .552-.449 1-1 1z"/><path d="m13 37h2v-4h4v-2h-4v-4h-2v4h-4v2h4z"/><path d="m25 31h10v2h-10z"/><path d="m18.707 44.707-1.414-1.414-3.293 3.293-3.293-3.293-1.414 1.414 3.293 3.293-3.293 3.293 1.414 1.414 3.293-3.293 3.293 3.293 1.414-1.414-3.293-3.293z"/><path d="m25 47h10v2h-10z"/><path d="m29 43h2v2h-2z"/><path d="m29 51h2v2h-2z"/><path d="m56.253 41.026c.363-.62.789-1.195 1.293-1.706 3.517-3.576 5.454-8.306 5.454-13.32 0-5.396-2.307-10.556-6.329-14.158-3.806-3.409-8.65-5.069-13.743-4.787-.463-3.413-3.389-6.055-6.928-6.055h-28c-3.86 0-7 3.14-7 7v48c0 3.859 3.14 7 7 7h28c2.785 0 5.189-1.639 6.315-4h3.685c4.624 0 8.442-3.507 8.941-8h1.059c1.654 0 3-1.346 3-3 0-.771-.301-1.468-.78-2 .48-.532.78-1.229.78-2 0-1.568-1.213-2.843-2.747-2.974zm.747 2.974c0 .552-.449 1-1 1h-13v-2h13c.551 0 1 .448 1 1zm-14-22.884c.332-.07.666-.116 1-.116 2.757 0 5 2.243 5 5s-2.243 5-5 5c-.334 0-.668-.046-1-.116zm1 11.884c3.86 0 7-3.14 7-7s-3.14-7-7-7c-.335 0-.668.038-1 .087v-4.087h3.219l.611 2.446 1.222.502 2.158-1.296 3.138 3.138-1.296 2.158.502 1.222 2.446.611v4.438l-2.446.611-.503 1.22 1.296 2.16-3.138 3.138-2.158-1.295-1.22.496-.612 2.451h-3.219v-4.087c.332.049.665.087 1 .087zm11.337-19.668c3.599 3.223 5.663 7.84 5.663 12.668 0 4.485-1.733 8.718-4.88 11.917-.878.893-1.576 1.932-2.102 3.083h-11.018v-2h4.781l.603-2.416 2.134 1.282 5.347-5.348-1.281-2.134 2.416-.603v-7.562l-2.416-.603 1.281-2.134-5.347-5.347-2.134 1.281-.603-2.416h-4.781v-3.948c4.572-.263 8.924 1.222 12.337 4.28zm-14.337 42.668c0 2.757-2.243 5-5 5h-28c-2.757 0-5-2.243-5-5v-48c0-2.757 2.243-5 5-5h28c2.757 0 5 2.243 5 5zm5 1h-3.08c.047-.328.08-.66.08-1v-5h9.92c-.488 3.386-3.401 6-6.92 6zm10-8h-13v-2h13c.551 0 1 .448 1 1s-.449 1-1 1z"/><path d="m33 15h2v2h-2z"/><path d="m29 15h2v2h-2z"/><path d="m25 15h2v2h-2z"/></svg>