<svg height="512" viewBox="0 0 128 128" width="512" xmlns="http://www.w3.org/2000/svg"><g><path d="m112.348 58.833h-20.241v-57.083a1.75 1.75 0 0 0 -1.75-1.75h-57.957a1.794 1.794 0 0 0 -1.238.513l-20.747 20.745a1.776 1.776 0 0 0 -.515 1.242v103.75a1.751 1.751 0 0 0 1.75 1.75h100.7a5.757 5.757 0 0 0 5.75-5.75v-57.667a5.757 5.757 0 0 0 -5.752-5.75zm-81.701-52.858v14.691l-14.747.061zm31.971 58.608v59.917h-49.218v-100.262l19-.079a1.75 1.75 0 0 0 1.742-1.75v-18.909h54.46v55.333h-20.234a5.757 5.757 0 0 0 -5.75 5.75zm51.982 57.667a2.253 2.253 0 0 1 -2.25 2.25h-46.232v-59.917a2.253 2.253 0 0 1 2.25-2.25h43.98a2.253 2.253 0 0 1 2.25 2.25z"/><path d="m108.348 66.834h-35.98a1.75 1.75 0 0 0 -1.75 1.75v14.3a1.75 1.75 0 0 0 1.75 1.75h35.98a1.751 1.751 0 0 0 1.75-1.75v-14.3a1.751 1.751 0 0 0 -1.75-1.75zm-1.75 14.3h-32.48v-10.8h32.482z"/><path d="m108.348 93.53h-7.99a1.75 1.75 0 0 0 0 3.5h7.99a1.75 1.75 0 0 0 0-3.5z"/><path d="m80.358 93.53h-7.99a1.75 1.75 0 0 0 0 3.5h7.99a1.75 1.75 0 0 0 0-3.5z"/><path d="m94.353 93.53h-7.99a1.75 1.75 0 0 0 0 3.5h7.99a1.75 1.75 0 0 0 0-3.5z"/><path d="m108.348 103.53h-7.99a1.75 1.75 0 0 0 0 3.5h7.99a1.75 1.75 0 0 0 0-3.5z"/><path d="m80.358 103.53h-7.99a1.75 1.75 0 0 0 0 3.5h7.99a1.75 1.75 0 0 0 0-3.5z"/><path d="m94.353 103.53h-7.99a1.75 1.75 0 0 0 0 3.5h7.99a1.75 1.75 0 0 0 0-3.5z"/><path d="m108.348 113.53h-7.99a1.75 1.75 0 0 0 0 3.5h7.99a1.75 1.75 0 0 0 0-3.5z"/><path d="m80.358 113.53h-7.99a1.75 1.75 0 0 0 0 3.5h7.99a1.75 1.75 0 0 0 0-3.5z"/><path d="m94.353 113.53h-7.99a1.75 1.75 0 0 0 0 3.5h7.99a1.75 1.75 0 0 0 0-3.5z"/><path d="m26.5 40.7h49a1.75 1.75 0 0 0 0-3.5h-49a1.75 1.75 0 1 0 0 3.5z"/><path d="m77.256 52.97a1.75 1.75 0 0 0 -1.75-1.75h-49a1.75 1.75 0 0 0 0 3.5h49a1.75 1.75 0 0 0 1.75-1.75z"/><path d="m55.506 65.24h-29a1.75 1.75 0 0 0 0 3.5h29a1.75 1.75 0 0 0 0-3.5z"/><path d="m55.506 79.26h-29a1.75 1.75 0 0 0 0 3.5h29a1.75 1.75 0 1 0 0-3.5z"/><path d="m55.506 93.28h-29a1.75 1.75 0 0 0 0 3.5h29a1.75 1.75 0 0 0 0-3.5z"/><path d="m55.506 107.3h-29a1.75 1.75 0 1 0 0 3.5h29a1.75 1.75 0 0 0 0-3.5z"/></g></svg>