<?xml version="1.0" encoding="utf-8"?>
<!-- Generator: Adobe Illustrator 16.0.0, SVG Export Plug-In . SVG Version: 6.00 Build 0)  -->
<!DOCTYPE svg PUBLIC "-//W3C//DTD SVG 1.1//EN" "http://www.w3.org/Graphics/SVG/1.1/DTD/svg11.dtd">
<svg version="1.1" id="Layer_3" xmlns="http://www.w3.org/2000/svg" xmlns:xlink="http://www.w3.org/1999/xlink" x="0px" y="0px"
	 width="512px" height="512px" viewBox="0 0 512 512" enable-background="new 0 0 512 512" xml:space="preserve">
<g>
	<path d="M496,440h-56V48c0-22.056-17.944-40-40-40H160c-22.057,0-40,17.944-40,40v16c0,4.416,3.584,8,8,8h56v96H32
		c-13.232,0-24,10.769-24,24v240c0,13.232,10.768,24,24,24h152v8c0,22.057,17.943,40,40,40h240c22.056,0,40-17.943,40-40v-16
		C504,443.585,500.416,440,496,440z M136,48c0-13.231,10.768-24,24-24h208.016C362.992,30.688,360,39,360,48v8H136V48z M24,432V192
		c0-4.408,3.592-8,8-8h176c4.408,0,8,3.592,8,8v240c0,4.408-3.592,8-8,8H32C27.592,440,24,436.408,24,432z M248,448v16
		c0,13.232-10.769,24-24,24c-13.232,0-24-10.768-24-24v-8h8c13.231,0,24-10.768,24-24V192c0-13.231-10.769-24-24-24h-8V72h168
		c4.416,0,8-3.584,8-8V48c0-13.231,10.768-24,24-24c13.231,0,24,10.769,24,24v392H256C251.584,440,248,443.585,248,448z M488,464
		c0,13.232-10.769,24-24,24H255.984c5.024-6.688,8.017-15,8.017-24v-8h224V464z"/>
	<path d="M40,256h160c4.416,0,8-3.584,8-8v-48c0-4.416-3.584-8-8-8H40c-4.416,0-8,3.584-8,8v48C32,252.416,35.584,256,40,256z
		 M48,208h144v32H48V208z"/>
	<path d="M72,272H40c-4.416,0-8,3.584-8,8v32c0,4.416,3.584,8,8,8h32c4.416,0,8-3.584,8-8v-32C80,275.584,76.416,272,72,272z
		 M64,304H48v-16h16V304z"/>
	<path d="M136,272h-32c-4.416,0-8,3.584-8,8v32c0,4.416,3.584,8,8,8h32c4.416,0,8-3.584,8-8v-32C144,275.584,140.416,272,136,272z
		 M128,304h-16v-16h16V304z"/>
	<path d="M200,272h-32c-4.416,0-8,3.584-8,8v32c0,4.416,3.584,8,8,8h32c4.416,0,8-3.584,8-8v-32C208,275.584,204.416,272,200,272z
		 M192,304h-16v-16h16V304z"/>
	<path d="M72,328H40c-4.416,0-8,3.585-8,8v32c0,4.416,3.584,8,8,8h32c4.416,0,8-3.584,8-8v-32C80,331.585,76.416,328,72,328z
		 M64,360H48v-16h16V360z"/>
	<path d="M136,328h-32c-4.416,0-8,3.585-8,8v32c0,4.416,3.584,8,8,8h32c4.416,0,8-3.584,8-8v-32C144,331.585,140.416,328,136,328z
		 M128,360h-16v-16h16V360z"/>
	<path d="M200,328h-32c-4.416,0-8,3.585-8,8v32c0,4.416,3.584,8,8,8h32c4.416,0,8-3.584,8-8v-32C208,331.585,204.416,328,200,328z
		 M192,360h-16v-16h16V360z"/>
	<path d="M72,384H40c-4.416,0-8,3.585-8,8v32c0,4.416,3.584,8,8,8h32c4.416,0,8-3.584,8-8v-32C80,387.585,76.416,384,72,384z
		 M64,416H48v-16h16V416z"/>
	<path d="M136,384h-32c-4.416,0-8,3.585-8,8v32c0,4.416,3.584,8,8,8h32c4.416,0,8-3.584,8-8v-32C144,387.585,140.416,384,136,384z
		 M128,416h-16v-16h16V416z"/>
	<path d="M208,392c0-4.415-3.584-8-8-8h-32c-4.416,0-8,3.585-8,8v32c0,4.416,3.584,8,8,8h32c4.416,0,8-3.584,8-8V392z M192,416h-16
		v-16h16V416z"/>
	<path d="M320,248c39.695,0,72-32.304,72-72c0-39.695-32.305-72-72-72c-39.696,0-72,32.305-72,72C248,215.696,280.304,248,320,248z
		 M376,176c0,28.152-20.904,51.456-48,55.36v-8.832c9.288-3.313,16-12.112,16-22.528v-8c0-13.231-10.769-24-24-24
		c-4.408,0-8-3.592-8-8v-8c0-4.408,3.592-8,8-8s8,3.592,8,8v8h16v-8c0-10.416-6.712-19.216-16-22.527v-8.832
		C355.096,124.544,376,147.848,376,176z M312,120.64v8.832c-9.288,3.312-16,12.111-16,22.527v8c0,13.232,10.768,24,24,24
		c4.408,0,8,3.592,8,8v8c0,4.408-3.592,8-8,8s-8-3.592-8-8v-8h-16v8c0,10.416,6.712,19.216,16,22.528v8.832
		c-27.097-3.904-48-27.208-48-55.36C264,147.848,284.904,124.544,312,120.64z"/>
	<path d="M320,408c39.695,0,72-32.304,72-72c0-39.695-32.305-72-72-72c-39.696,0-72,32.305-72,72C248,375.696,280.304,408,320,408z
		 M376,336c0,28.152-20.904,51.456-48,55.36v-8.832c9.288-3.312,16-12.112,16-22.528v-8c0-13.231-10.769-24-24-24
		c-4.408,0-8-3.592-8-8v-8c0-4.407,3.592-8,8-8s8,3.593,8,8v8h16v-8c0-10.416-6.712-19.216-16-22.527v-8.832
		C355.096,284.544,376,307.848,376,336z M312,280.64v8.832c-9.288,3.312-16,12.111-16,22.527v8c0,13.232,10.768,24,24,24
		c4.408,0,8,3.593,8,8v8c0,4.408-3.592,8-8,8s-8-3.592-8-8v-8h-16v8c0,10.416,6.712,19.217,16,22.528v8.832
		c-27.097-3.904-48-27.208-48-55.36C264,307.848,284.904,284.544,312,280.64z"/>
</g>
</svg>
