<?xml version="1.0" encoding="utf-8"?>
<!-- Generator: Adobe Illustrator 16.0.0, SVG Export Plug-In . SVG Version: 6.00 Build 0)  -->
<!DOCTYPE svg PUBLIC "-//W3C//DTD SVG 1.1//EN" "http://www.w3.org/Graphics/SVG/1.1/DTD/svg11.dtd">
<svg version="1.1" id="Layer_1" xmlns="http://www.w3.org/2000/svg" xmlns:xlink="http://www.w3.org/1999/xlink" x="0px" y="0px"
	 width="491.52px" height="491.52px" viewBox="0 0 491.52 491.52" enable-background="new 0 0 491.52 491.52" xml:space="preserve">
<g id="Layer_x0020_1">
	<path fill="#212121" d="M88.68,95.198h151.566c5.361,0,10.188,2.381,13.647,6.215c3.262,3.617,5.287,8.556,5.287,13.942v276.17
		c0,5.386-2.025,10.325-5.287,13.941c-3.46,3.835-8.289,6.216-13.647,6.216H88.68c-5.36,0-10.189-2.381-13.648-6.216
		c-3.262-3.615-5.287-8.554-5.287-13.941v-276.17c0-5.388,2.025-10.326,5.286-13.942C78.49,97.578,83.318,95.198,88.68,95.198
		L88.68,95.198z M240.246,110.558H88.68c-0.829,0-1.629,0.427-2.249,1.115c-0.818,0.906-1.326,2.207-1.326,3.682v276.17
		c0,1.474,0.508,2.774,1.326,3.682c0.621,0.688,1.421,1.115,2.249,1.115h151.566c0.826,0,1.626-0.428,2.247-1.116
		c0.818-0.907,1.327-2.208,1.327-3.681v-276.17c0-1.474-0.509-2.774-1.326-3.682C241.873,110.985,241.073,110.558,240.246,110.558
		L240.246,110.558z"/>
	<path fill="#212121" d="M144.498,116.088c-4.241,0-7.681,3.438-7.681,7.681c0,4.241,3.439,7.68,7.681,7.68h39.929
		c4.241,0,7.68-3.438,7.68-7.68c0-4.242-3.438-7.681-7.68-7.681H144.498z"/>
	<path fill="#212121" d="M164.462,352.235c5.795,0,11.043,2.35,14.841,6.148c3.799,3.799,6.148,9.046,6.148,14.841
		s-2.35,11.043-6.148,14.841c-3.798,3.799-9.046,6.148-14.841,6.148s-11.042-2.35-14.841-6.148
		c-3.799-3.798-6.148-9.046-6.148-14.841s2.35-11.042,6.148-14.841S158.667,352.235,164.462,352.235z M168.444,369.244
		c-1.019-1.019-2.426-1.648-3.981-1.648c-1.555,0-2.963,0.63-3.981,1.648c-1.018,1.018-1.647,2.426-1.647,3.98
		s0.63,2.963,1.647,3.981c1.019,1.018,2.427,1.647,3.981,1.647c1.556,0,2.963-0.63,3.981-1.647c1.018-1.019,1.647-2.427,1.647-3.981
		S169.461,370.261,168.444,369.244z"/>
	<polygon fill="#212121" points="132.213,213.511 132.213,313.332 116.853,313.332 116.853,213.511 	"/>
	<polygon fill="#212121" points="158.832,240.131 158.832,313.332 143.472,313.332 143.472,240.131 	"/>
	<polygon fill="#212121" points="185.452,213.511 185.452,313.332 170.092,313.332 170.092,213.511 	"/>
	<polygon fill="#212121" points="212.072,233.476 212.072,313.332 196.712,313.332 196.712,233.476 	"/>
	<polygon fill="#212121" points="72.96,135.398 255.965,135.398 255.965,150.759 72.96,150.759 	"/>
	<polygon fill="#212121" points="72.96,332.271 255.965,332.271 255.965,347.633 72.96,347.633 	"/>
	<path fill="#212121" d="M288,79.838h130.56h7.68v7.68v76.8v7.681h-7.68h-59.475l-44.96,32.052l-9.273,6.61l-2.637-11.08
		l-6.564-27.582h-7.651h-7.68v-7.681v-76.8v-7.68H288L288,79.838z M410.88,95.198h-115.2v61.439h6.034h6.063l1.407,5.91
		l5.334,22.411l37.708-26.881l4.439-1.44h54.215V95.198L410.88,95.198z"/>
</g>
<rect x="0" y="0" fill="none" width="491.52" height="491.52"/>
</svg>
