<?xml version="1.0" encoding="utf-8"?>
<!-- Generator: Adobe Illustrator 16.0.0, SVG Export Plug-In . SVG Version: 6.00 Build 0)  -->
<!DOCTYPE svg PUBLIC "-//W3C//DTD SVG 1.1//EN" "http://www.w3.org/Graphics/SVG/1.1/DTD/svg11.dtd">
<svg version="1.1" id="Outlined" xmlns="http://www.w3.org/2000/svg" xmlns:xlink="http://www.w3.org/1999/xlink" x="0px" y="0px"
	 width="841.889px" height="595.281px" viewBox="0 0 841.889 595.281" enable-background="new 0 0 841.889 595.281"
	 xml:space="preserve">
<title></title>
<g id="Fill">
	<path d="M272.124,225.835V37.205H234.92v188.63c-39.657,10.777-63.069,51.662-52.292,91.319
		c6.922,25.472,26.82,45.37,52.292,52.292v188.63h37.204v-188.63c39.657-10.777,63.069-51.662,52.292-91.32
		C317.494,252.655,297.596,232.757,272.124,225.835z M253.523,334.845c-20.548,0-37.205-16.657-37.205-37.205
		s16.657-37.205,37.205-37.205c20.547,0,37.204,16.657,37.204,37.205S274.07,334.845,253.523,334.845z"/>
	<path d="M439.547,374.655V37.205h-37.205v337.45c-39.657,10.777-63.068,51.662-52.291,91.319
		c6.922,25.472,26.82,45.369,52.291,52.292v39.81h37.205v-39.81c39.657-10.777,63.069-51.663,52.292-91.32
		C484.916,401.475,465.019,381.577,439.547,374.655L439.547,374.655z M420.945,483.666c-20.548,0-37.205-16.657-37.205-37.205
		s16.657-37.205,37.205-37.205s37.205,16.657,37.205,37.205S441.492,483.666,420.945,483.666z"/>
	<path d="M662.778,148.82c-0.11-33.841-23.041-63.346-55.808-71.806v-39.81h-37.205v39.81
		c-39.657,10.777-63.069,51.662-52.292,91.319c6.922,25.472,26.82,45.37,52.292,52.292v337.45h37.205v-337.45
		C639.737,212.166,662.667,182.661,662.778,148.82z M588.367,186.025c-20.548,0-37.205-16.657-37.205-37.205
		s16.657-37.205,37.205-37.205s37.205,16.657,37.205,37.205S608.915,186.025,588.367,186.025z"/>
</g>
</svg>
