<?xml version="1.0" encoding="utf-8"?>
<!-- Generator: Adobe Illustrator 16.0.0, SVG Export Plug-In . SVG Version: 6.00 Build 0)  -->
<!DOCTYPE svg PUBLIC "-//W3C//DTD SVG 1.1//EN" "http://www.w3.org/Graphics/SVG/1.1/DTD/svg11.dtd">
<svg version="1.1" id="Layer_5" xmlns="http://www.w3.org/2000/svg" xmlns:xlink="http://www.w3.org/1999/xlink" x="0px" y="0px"
	 width="512px" height="512px" viewBox="0 0 512 512" enable-background="new 0 0 512 512" xml:space="preserve">
<path d="M504,158.272V97.728l-22.353-5.496c-0.984-2.656-2.096-5.313-3.328-7.96l11.937-19.72L447.44,21.736L427.728,33.68
	c-2.648-1.232-5.304-2.345-7.96-3.328L414.272,8h-60.544l-5.496,22.353c-2.655,0.983-5.312,2.096-7.96,3.328l-19.72-11.937
	L277.736,64.56l11.937,19.72c-1.232,2.648-2.344,5.304-3.328,7.96L264,97.728V152H48c-22.057,0-40,17.944-40,40v192
	c0,22.057,17.943,40,40,40h64v32H80c-8.824,0-16,7.177-16,16v16c0,8.824,7.176,16,16,16h168h16.319H504v-32
	c0-58.207-39.097-107.384-92.393-122.855C428.72,337.64,440,318.12,440,296c0-20.872-10.089-39.384-25.593-51.071l0.816-0.792
	l4.544-18.488c2.656-0.984,5.312-2.097,7.96-3.328l19.72,11.936l42.816-42.815l-11.937-19.72c1.232-2.648,2.345-5.305,3.328-7.961
	L504,158.272z M48,168h272c13.231,0,24,10.769,24,24v48.656c-6.024,3.496-11.424,7.952-16,13.152V200c0-8.823-7.176-16-16-16H56
	c-8.824,0-16,7.177-16,16v160H24V192C24,178.768,34.768,168,48,168z M328,128c0-30.872,25.128-56,56-56c30.871,0,56,25.128,56,56
	s-25.129,56-56,56c-9.504,0-18.752-2.504-26.992-7.063c-4.064-9.944-12-17.88-21.952-21.944C330.504,146.736,328,137.496,328,128z
	 M414.928,439.753L387.36,488h-0.832l33.096-119.151c3.416,1.448,6.744,3.08,9.984,4.848l-5.072,30.456l-18.264,18.264
	L414.928,439.753z M364.64,488l-27.568-48.247l8.664-17.328l-18.264-18.265l-5.072-30.456c3.232-1.768,6.561-3.399,9.984-4.848
	L365.472,488H364.64z M280,360h-16V232h16V360z M328,353.425v-15.232c3.647,4.152,7.784,7.864,12.392,10.952
	C336.168,350.368,332.032,351.784,328,353.425z M312,360h-16V216h-48v144h-16V248h-48v112h-16v-80h-48v80H56V200h256V360z M216,360
	h-16v-96h16V360z M152,360h-16v-64h16V360z M24,384v-8h267.624c-10.408,9.16-19.305,19.944-26.305,32H48
	C34.768,408,24,397.232,24,384z M128,424h129.424c-4.104,10.097-6.912,20.824-8.313,32H128V424z M80,488v-16h168v16H80z M264,488
	v-16c0-36.079,17.216-68.136,43.792-88.632l4.744,28.473l13.735,13.735l-7.336,14.672L346.216,488H304v-64h-16v64H264.32H264z
	 M488,472v16h-24v-64h-16v64h-42.217l27.288-47.752l-7.336-14.672l13.736-13.735l4.744-28.473C470.783,403.864,488,435.921,488,472z
	 M404.416,363.793L376,466.096l-28.416-102.304C356.68,361.4,366.168,360,376,360S395.32,361.4,404.416,363.793z M424,296
	c0,26.473-21.528,48-48,48c-26.473,0-48-21.527-48-48c0-26.472,21.527-48,48-48C402.472,248,424,269.528,424,296z M470.072,189.008
	l-25.063,25.064l-16.593-10.04l-3.983,2.072c-4.584,2.384-9.232,4.328-13.8,5.775l-4.288,1.353l-5.561,22.64l-0.848,0.824
	C392.536,233.688,384.464,232,376,232c-5.536,0-10.872,0.776-16,2.104v-38.393c7.68,2.721,15.752,4.288,24,4.288
	c39.703,0,72-32.296,72-72s-32.297-72-72-72c-39.704,0-72,32.296-72,72c0,8.248,1.567,16.32,4.288,24H280v-41.728l18.775-4.616
	l1.353-4.288c1.448-4.56,3.392-9.208,5.775-13.8l2.072-3.984l-10.04-16.592L323,41.928l16.592,10.04l3.984-2.072
	c4.584-2.384,9.231-4.328,13.8-5.776l4.288-1.352L366.272,24h35.456l4.616,18.776l4.288,1.352c4.56,1.448,9.208,3.393,13.8,5.776
	l3.983,2.072l16.593-10.04L470.072,67l-10.04,16.593l2.072,3.983c2.384,4.584,4.328,9.232,5.776,13.8l1.352,4.288l18.768,4.608
	v35.456l-18.775,4.616l-1.353,4.279c-1.447,4.568-3.392,9.216-5.775,13.809l-2.072,3.983L470.072,189.008z"/>
<path d="M384,168c22.056,0,40-17.943,40-40c0-22.056-17.944-40-40-40c-22.057,0-40,17.944-40,40C344,150.056,361.944,168,384,168z
	 M384,104c13.231,0,24,10.769,24,24c0,13.232-10.769,24-24,24c-13.232,0-24-10.768-24-24C360,114.768,370.768,104,384,104z"/>
<path d="M72,216h16v16H72V216z"/>
<path d="M104,216h16v16h-16V216z"/>
<path d="M136,216h16v16h-16V216z"/>
<path d="M72,248h80v16H72V248z"/>
</svg>
