<?xml version="1.0" encoding="utf-8"?>
<!-- Generator: Adobe Illustrator 16.0.0, SVG Export Plug-In . SVG Version: 6.00 Build 0)  -->
<!DOCTYPE svg PUBLIC "-//W3C//DTD SVG 1.1//EN" "http://www.w3.org/Graphics/SVG/1.1/DTD/svg11.dtd">
<svg version="1.1" id="Layer_1" xmlns="http://www.w3.org/2000/svg" xmlns:xlink="http://www.w3.org/1999/xlink" x="0px" y="0px"
	 width="512px" height="512px" viewBox="0 0 512 512" enable-background="new 0 0 512 512" xml:space="preserve">
<g id="Log">
	<path d="M440,120h-8V72c0-13.255-10.746-24-24-24h-8v-8c0-13.255-10.745-24-24-24H72c-13.255,0-24,10.745-24,24v400
		c0,13.255,10.745,24,24,24l0,0h8v8c0,13.255,10.745,24,24,24h304c13.254,0,24-10.745,24-24V328h8c13.254,0,24-10.745,24-24V144
		C464,130.745,453.254,120,440,120z M408,64c4.418,0,8,3.582,8,8v48h-16V64H408z M112,32h16V53.6l-1.345-2.017
		c-2.749-3.676-7.958-4.427-11.634-1.677c-0.637,0.476-1.202,1.041-1.678,1.677L112,53.6V32z M64,440V40c0-4.418,3.581-8,8-8h24v48
		c-0.001,4.419,3.58,8.001,7.998,8.002c2.675,0.001,5.174-1.336,6.657-3.562L120,70.4l9.344,14.016
		c2.451,3.677,7.418,4.669,11.094,2.218c2.219-1.479,3.555-3.967,3.563-6.634V32h232c4.418,0,8,3.582,8,8v80H136
		c-13.255,0-24,10.745-24,24v160c0,13.255,10.745,24,24,24h248v112c0,4.419-3.582,8-8,8H72C67.581,448,64,444.419,64,440z M416,472
		c0,4.419-3.582,8-8,8H104c-4.419,0-8-3.581-8-8v-8h280c13.255,0,24-10.745,24-24l0,0V328h16V472z M448,304c0,4.419-3.582,8-8,8H136
		c-4.419,0-8-3.581-8-8V144c0-4.418,3.581-8,8-8h304c4.418,0,8,3.582,8,8V304z"/>
	<path d="M200,176h-16v88c0,4.419,3.581,8,8,8h40v-16h-32V176z"/>
	<path d="M288,176h-16c-13.255,0-24,10.745-24,24v48c0,13.255,10.745,24,24,24h16c13.255,0,24-10.745,24-24v-48
		C312,186.745,301.255,176,288,176z M296,248c0,4.419-3.582,8-8,8h-16c-4.419,0-8-3.581-8-8v-48c0-4.418,3.581-8,8-8h16
		c4.418,0,8,3.582,8,8V248z"/>
	<path d="M352,192h16c4.418,0,8,3.582,8,8h16c0-13.255-10.745-24-24-24h-16c-13.255,0-24,10.745-24,24v48c0,13.255,10.745,24,24,24
		h16c13.255,0,24-10.745,24-24v-24c0-4.418-3.582-8-8-8h-24v16h16v16c0,4.419-3.582,8-8,8h-16c-4.419,0-8-3.581-8-8v-48
		C344,195.582,347.581,192,352,192z"/>
</g>
</svg>
