<?xml version="1.0" encoding="utf-8"?>
<!-- Generator: Adobe Illustrator 16.0.0, SVG Export Plug-In . SVG Version: 6.00 Build 0)  -->
<!DOCTYPE svg PUBLIC "-//W3C//DTD SVG 1.1//EN" "http://www.w3.org/Graphics/SVG/1.1/DTD/svg11.dtd">
<svg version="1.1" id="Capa_1" xmlns="http://www.w3.org/2000/svg" xmlns:xlink="http://www.w3.org/1999/xlink" x="0px" y="0px"
	 width="841.889px" height="595.281px" viewBox="0 0 841.889 595.281" enable-background="new 0 0 841.889 595.281"
	 xml:space="preserve">
<g>
	<g>
		<path d="M673.864,311.062c-6.57,0-12.638,1.603-18.019,4.018c-8.181-10.462-20.878-17.233-35.191-17.247
			c-7.396,0-14.2,1.962-20.046,4.902l-0.612,0.34l-18.276,10.841c-8.193-9.798-20.465-16.076-34.233-16.083
			c-7.397,0-14.201,1.962-20.047,4.902l-0.731,0.413l-69.977,42.859c-15.803-4.669-33.349-9.791-50.303-14.6
			c-17.885-5.075-35.085-9.791-48.872-13.27c-6.903-1.742-12.942-3.173-17.878-4.19c-2.475-0.513-4.669-0.917-6.618-1.216
			c-1.976-0.293-3.625-0.499-5.486-0.506c-1.438,0.007-2.682,0.133-4.098,0.306c-5.153,0.68-12.484,2.249-21.131,4.276
			c-17.666,4.151-40.212,10.189-52.67,13.581v-21.085c0-14.632-11.972-26.605-26.604-26.605h-73.161
			c-14.633,0.003-26.604,11.975-26.604,26.608v206.185c0,14.632,11.972,26.605,26.604,26.605h73.162
			c14.632,0,26.604-11.973,26.604-26.605v-16.009c15.79,3.438,50.835,11.007,87.782,18.596
			c24.989,5.128,50.814,10.263,72.144,14.133c10.669,1.937,20.213,3.553,28.028,4.696c7.882,1.139,13.755,1.843,18.23,1.869
			c3.485-0.013,6.784-0.672,10.35-1.656c6.632-1.869,14.18-5.041,22.819-9.238c30.068-14.659,73.254-42.122,113.992-69.298
			c40.666-27.144,78.703-53.946,97.34-66.783c11.666-8.041,18.225-21.629,18.225-36.009
			C718.566,331.095,698.565,311.076,673.864,311.062z M229.722,515.49c0,3.604-3.047,6.65-6.65,6.65h-73.162
			c-3.604,0-6.65-3.047-6.65-6.65V309.307c0-3.604,3.047-6.651,6.65-6.651h73.162c3.604,0,6.65,3.047,6.65,6.651V515.49z
			 M689.047,375.365c-22.919,15.79-74.206,52.004-123.85,84.249c-24.802,16.109-49.191,31.214-69.191,42.162
			c-9.989,5.474-18.902,9.896-26.025,12.856c-3.559,1.476-6.672,2.587-9.14,3.271c-2.455,0.698-4.305,0.932-4.976,0.918
			c-2.175,0.02-7.934-0.553-15.337-1.657c-26.205-3.838-75.256-13.636-117.492-22.447c-21.137-4.41-40.605-8.573-54.791-11.634
			c-8.241-1.775-14.6-3.166-18.564-4.023V351.082c1.95-0.54,4.503-1.237,7.569-2.068c10.516-2.854,26.564-7.131,40.958-10.675
			c7.189-1.776,13.98-3.357,19.374-4.483c2.688-0.558,5.036-1.003,6.838-1.29c1.769-0.293,3.146-0.399,3.159-0.379
			c0.033-0.008,1.078,0.059,2.501,0.28c5.507,0.824,16.793,3.464,30.54,7.063c41.431,10.822,106.757,30.383,133.149,38.397
			c9.131,2.753,17.398,6.903,22.826,11.938c2.728,2.516,4.776,5.202,6.152,8.107c1.377,2.92,2.155,6.08,2.169,9.943
			c-0.007,7.828-3.146,14.825-8.273,19.968c-5.095,5.075-12.013,8.181-19.734,8.253l-25.747-2.521l-87.867-11.281
			c-5.468-0.697-10.47,3.159-11.175,8.626c-0.705,5.468,3.166,10.462,8.626,11.168l88.152,11.313l27.283,2.673h0.492
			c26.61-0.007,48.181-21.577,48.194-48.194c0.013-6.697-1.47-12.997-4.098-18.51c-3.956-8.308-10.321-14.739-17.519-19.635
			c-7.224-4.909-15.377-8.406-23.678-10.934c-4.628-1.403-10.461-3.174-17.126-5.176l54.146-33.169
			c3.511-1.729,7.104-2.707,10.908-2.714c6.451-0.007,12.277,2.494,16.682,6.539l-26.751,15.863
			c-4.735,2.808-6.298,8.933-3.484,13.668c2.814,4.735,8.934,6.305,13.675,3.492l62.095-36.827
			c3.531-1.749,7.144-2.733,10.962-2.733c6.884-0.007,13.076,2.86,17.565,7.41l-72.304,42.88c-4.742,2.808-6.298,8.933-3.484,13.674
			c2.813,4.735,8.933,6.298,13.674,3.484l78.185-46.371c0.758-0.127,1.522-0.313,2.268-0.633c1.603-0.679,2.907-1.755,3.91-3.033
			l2.44-1.45c3.531-1.749,7.144-2.733,10.961-2.733c6.857,0.008,12.989,2.762,17.506,7.258c4.496,4.517,7.249,10.654,7.258,17.519
			C698.625,364.151,694.794,371.454,689.047,375.365z"/>
	</g>
</g>
<g>
	<g>
		<path d="M483.822,166.772c-8.759-6.425-18.909-9.957-28.985-12.811c-1.369-0.386-2.713-0.697-4.083-1.058V92.002
			c9.73,1.456,16.926,4.489,21.715,8.233c3.392,2.635,5.728,5.588,7.33,8.906c1.576,3.319,2.422,7.063,2.428,11.359
			c0,5.507,4.469,9.977,9.977,9.977c5.507,0,9.977-4.47,9.977-9.977c0.007-6.965-1.423-13.781-4.376-19.96
			c-4.416-9.305-12.278-16.926-22.501-21.888c-7.07-3.446-15.318-5.635-24.543-6.718v-8.773c0-5.515-4.469-9.978-9.977-9.978
			c-5.515,0-9.977,4.463-9.977,9.978v8.221c-7.229,0.559-13.722,1.976-19.468,4.163c-11.294,4.271-19.561,11.56-24.676,19.747
			c-5.135,8.193-7.276,17.1-7.283,25.208c-0.026,8.532,2.027,16.215,5.894,22.474c3.357,5.48,7.921,9.737,12.896,13.003
			c8.746,5.714,18.736,8.787,28.692,11.447c1.311,0.339,2.627,0.672,3.938,0.997v65.514c-9.706-1.071-17.148-4.185-22.143-8.429
			c-6.126-5.268-9.264-11.979-9.331-20.545c0-5.515-4.469-9.977-9.977-9.977s-9.977,4.462-9.977,9.977
			c-0.073,13.947,5.872,26.957,16.395,35.776c9.025,7.635,21.063,12.211,35.03,13.343v8.665c0,5.508,4.463,9.977,9.978,9.977
			c5.507,0,9.977-4.469,9.977-9.977v-9.025c11.294-1.139,21.842-3.924,30.861-9.511c6.159-3.845,11.5-9.165,15.105-15.889
			c3.632-6.705,5.468-14.633,5.453-23.359c0.013-9.105-1.942-17.18-5.653-23.911C493.287,175.159,488.804,170.442,483.822,166.772z
			 M430.791,147.796c-9.71-2.601-18.082-5.646-23.198-9.57c-2.753-2.083-4.656-4.271-6.021-6.938
			c-1.351-2.688-2.234-6.021-2.248-10.789c-0.007-6.132,2.248-13.475,7.755-19.067c2.774-2.826,6.391-5.347,11.347-7.236
			c3.412-1.296,7.535-2.256,12.364-2.753L430.791,147.796L430.791,147.796z M479.158,218.838c-1.41,2.595-3.226,4.73-5.594,6.645
			c-3.539,2.848-8.446,5.142-14.565,6.665c-2.555,0.638-5.342,1.11-8.248,1.477v-60.053c6.1,1.762,11.687,3.705,16.21,6.138
			c5.048,2.673,8.686,5.706,11.16,9.445c2.447,3.758,4.063,8.474,4.097,15.803C482.204,210.99,481.007,215.385,479.158,218.838z"/>
	</g>
</g>
</svg>
