<?xml version="1.0" encoding="utf-8"?>
<!-- Generator: Adobe Illustrator 16.0.0, SVG Export Plug-In . SVG Version: 6.00 Build 0)  -->
<!DOCTYPE svg PUBLIC "-//W3C//DTD SVG 1.1//EN" "http://www.w3.org/Graphics/SVG/1.1/DTD/svg11.dtd">
<svg version="1.1" id="Capa_1" xmlns="http://www.w3.org/2000/svg" xmlns:xlink="http://www.w3.org/1999/xlink" x="0px" y="0px"
	 width="512px" height="512px" viewBox="0 0 512 512" enable-background="new 0 0 512 512" xml:space="preserve">
<g>
	<path d="M481.756,51.318H354.788c-4.144,0-7.5,3.358-7.5,7.5s3.356,7.5,7.5,7.5h126.968c8.404,0,15.244,6.839,15.244,15.245
		v227.115H15V81.563c0-8.406,6.839-15.245,15.244-15.245h294.544c4.143,0,7.5-3.358,7.5-7.5s-3.357-7.5-7.5-7.5H30.244
		C13.567,51.318,0,64.886,0,81.563v275.15c0,16.677,13.566,30.245,30.244,30.245h45.149c4.144,0,7.5-3.358,7.5-7.5
		c0-4.143-3.356-7.5-7.5-7.5H30.244c-8.405,0-15.244-6.84-15.244-15.245v-33.036h482v33.036c0,8.405-6.84,15.245-15.244,15.245
		H312.179H199.821h-94.427c-4.143,0-7.5,3.357-7.5,7.5c0,4.142,3.357,7.5,7.5,7.5h85.841l-7.965,58.724H159.7
		c-4.144,0-7.5,3.357-7.5,7.5c0,4.142,3.356,7.5,7.5,7.5h30.12h132.357h24.55c4.144,0,7.5-3.358,7.5-7.5c0-4.143-3.356-7.5-7.5-7.5
		H328.73l-7.965-58.724h160.991c16.677,0,30.244-13.568,30.244-30.245V81.563C512,64.886,498.433,51.318,481.756,51.318
		L481.756,51.318z M313.593,445.682H198.407l7.966-58.724h99.254L313.593,445.682z"/>
	<path d="M101.86,171.17c-2.977,3.354-4.383,7.829-3.855,12.281c1.316,11.133,4.769,21.723,10.256,31.477
		c2.198,3.906,5.973,6.693,10.354,7.647c2.643,0.574,5.359,0.452,7.896-0.314c7.285,8.691,16.55,15.676,26.886,20.264
		c0.174,2.387,0.892,4.729,2.131,6.837c2.275,3.868,6.104,6.582,10.502,7.447c5.396,1.06,10.938,1.598,16.479,1.598
		c5.563,0,11.132-0.543,16.551-1.613c4.399-0.869,8.227-3.587,10.498-7.458c1.131-1.927,1.825-4.051,2.067-6.225
		c11.583-4.858,21.813-12.652,29.61-22.559c2.396,0.562,4.92,0.56,7.358-0.043c4.36-1.076,8.057-3.973,10.141-7.944
		c5.114-9.743,8.381-20.67,9.444-31.603c0.435-4.468-1.071-8.918-4.132-12.208c-2.114-2.273-4.834-3.849-7.795-4.57
		c-1.486-10.129-5.062-19.786-10.534-28.466c1.813-2.337,2.952-5.162,3.236-8.163c0.423-4.472-1.092-8.916-4.152-12.195
		c-7.509-8.046-16.745-14.736-26.71-19.35c-4.072-1.885-8.771-1.934-12.887-0.131c-3.149,1.378-5.734,3.74-7.396,6.687
		c-10.09-2.041-20.631-1.939-30.686,0.31c-1.664-3.063-4.316-5.515-7.563-6.924c-4.121-1.788-8.817-1.725-12.888,0.172
		c-9.95,4.645-19.165,11.363-26.648,19.434c-3.052,3.288-4.552,7.739-4.113,12.209c0.333,3.402,1.765,6.577,4.029,9.064
		c-5.459,9.014-8.887,19.027-10.102,29.518C106.781,167.105,103.988,168.773,101.86,171.17L101.86,171.17z M113.077,181.128
		c0.217-0.242,0.46-0.244,0.539-0.244l3.251-0.003c4.069-0.004,7.396-3.254,7.49-7.322c0.289-12.288,4.324-23.971,11.669-33.782
		c1.203-1.608,1.711-3.631,1.411-5.617c-0.301-1.985-1.386-3.768-3.011-4.947l-3.293-2.39c-0.175-0.127-0.274-0.302-0.296-0.518
		c-0.031-0.317,0.129-0.49,0.183-0.549c6.18-6.663,13.784-12.209,21.994-16.04c0.07-0.032,0.284-0.13,0.574-0.005
		c0.2,0.087,0.336,0.236,0.403,0.442l1.34,4.104c0.618,1.896,1.965,3.466,3.743,4.365c1.778,0.9,3.842,1.057,5.733,0.432
		c11.476-3.783,23.979-3.913,35.484-0.407c3.921,1.197,8.064-0.976,9.322-4.87l1.199-3.714c0.066-0.207,0.202-0.356,0.402-0.444
		c0.29-0.127,0.503-0.029,0.572,0.003c8.223,3.807,15.845,9.328,22.045,15.971c0.053,0.058,0.214,0.229,0.184,0.547
		c-0.02,0.217-0.12,0.392-0.294,0.519l-2.432,1.776c-1.634,1.192-2.717,2.997-3.002,5.001c-0.284,2.003,0.253,4.038,1.488,5.639
		c7.311,9.467,11.518,20.754,12.165,32.642c0.219,3.986,3.517,7.092,7.486,7.092c0.063,0,0.123-0.001,0.187-0.003l2.893-0.07
		c0.225,0.004,0.402,0.074,0.551,0.232c0.217,0.233,0.194,0.467,0.187,0.542c-0.878,9.021-3.573,18.039-7.797,26.083
		c-0.035,0.068-0.146,0.277-0.454,0.354c-0.215,0.053-0.41,0.016-0.591-0.108l-1.351-0.93c-1.666-1.146-3.72-1.575-5.708-1.18
		c-1.983,0.392-3.725,1.568-4.828,3.263c-7.379,11.322-18.477,19.836-31.251,23.974c-1.893,0.613-3.465,1.954-4.369,3.728
		c-0.903,1.771-1.066,3.831-0.453,5.724l0.237,0.731c0.067,0.206,0.045,0.406-0.064,0.594c-0.161,0.274-0.393,0.32-0.469,0.335
		c-8.904,1.759-18.318,1.765-27.229,0.013c-0.075-0.015-0.306-0.06-0.466-0.333c-0.11-0.188-0.134-0.388-0.067-0.591l0.37-1.141
		c1.262-3.891-0.824-8.073-4.69-9.405c-11.797-4.063-22.218-11.983-29.344-22.301c-1.149-1.664-2.922-2.794-4.916-3.132
		c-0.417-0.071-0.837-0.106-1.255-0.106c-1.577,0-3.127,0.498-4.419,1.44l-1.749,1.275c-0.176,0.127-0.374,0.168-0.582,0.122
		c-0.315-0.068-0.433-0.277-0.472-0.347c-4.513-8.019-7.35-16.727-8.433-25.882C112.891,181.611,112.862,181.37,113.077,181.128
		L113.077,181.128z"/>
	<path d="M183.181,206.837c17.576,0,31.875-14.299,31.875-31.874c0-17.574-14.299-31.874-31.875-31.874
		c-17.575,0-31.874,14.3-31.874,31.874C151.307,192.538,165.605,206.837,183.181,206.837z M183.181,158.088
		c9.305,0,16.875,7.57,16.875,16.874c0,9.305-7.57,16.874-16.875,16.874s-16.874-7.569-16.874-16.874
		C166.307,165.658,173.876,158.088,183.181,158.088z"/>
	<path d="M342.438,201.571c-13.867,0-25.148,11.282-25.148,25.149s11.281,25.148,25.148,25.148s25.149-11.282,25.149-25.148
		C367.587,212.852,356.305,201.571,342.438,201.571z M342.438,236.869c-5.597,0-10.148-4.553-10.148-10.148
		c0-5.597,4.553-10.149,10.148-10.149c5.597,0,10.149,4.553,10.149,10.149C352.587,232.316,348.034,236.869,342.438,236.869z"/>
	<path d="M388.569,182.15c-5.617-6.021-12.528-11.025-19.983-14.477c-3.486-1.614-7.508-1.655-11.029-0.113
		c-2.224,0.973-4.118,2.519-5.512,4.444c-6.677-1.174-13.591-1.109-20.244,0.194c-1.41-1.998-3.354-3.597-5.641-4.59
		c-3.525-1.531-7.549-1.479-11.031,0.147c-7.444,3.476-14.339,8.502-19.938,14.54c-2.61,2.816-3.895,6.624-3.521,10.449
		c0.232,2.385,1.098,4.64,2.469,6.546c-3.455,6.06-5.716,12.685-6.688,19.604c-2.071,0.758-3.949,2.021-5.443,3.705
		c-2.547,2.87-3.749,6.701-3.298,10.508c0.984,8.331,3.566,16.259,7.677,23.563c1.882,3.345,5.112,5.729,8.863,6.546
		c1.802,0.392,3.644,0.403,5.414,0.062c5.081,5.781,11.348,10.497,18.296,13.761c0.27,1.606,0.83,3.167,1.673,4.602
		c1.947,3.31,5.224,5.632,8.989,6.372c4.039,0.793,8.187,1.195,12.33,1.195c4.16,0,8.326-0.405,12.385-1.207
		c3.766-0.743,7.041-3.069,8.984-6.382c0.756-1.286,1.282-2.674,1.576-4.105c7.894-3.507,14.905-8.841,20.418-15.528
		c1.646,0.216,3.336,0.13,4.983-0.276c3.729-0.921,6.893-3.399,8.679-6.8c3.826-7.289,6.27-15.465,7.065-23.643
		c0.371-3.824-0.916-7.633-3.535-10.449c-1.482-1.595-3.313-2.788-5.32-3.506c-1.146-6.695-3.512-13.097-6.999-18.941
		c1.067-1.734,1.739-3.71,1.936-5.78C392.484,188.761,391.19,184.957,388.569,182.15L388.569,182.15z M390.409,231.574
		c0.061,0,0.122,0,0.185-0.002l0.315-0.007c-0.688,5.104-2.203,10.168-4.437,14.822c-1.569-0.909-3.42-1.224-5.213-0.868
		c-1.984,0.392-3.726,1.567-4.83,3.263c-5.086,7.803-12.733,13.671-21.533,16.521c-1.895,0.613-3.468,1.955-4.371,3.73
		c-0.719,1.41-0.968,3.001-0.729,4.545c-5.132,0.831-10.462,0.838-15.605,0.016c0.713-3.624-1.341-7.299-4.918-8.531
		c-8.127-2.8-15.307-8.258-20.219-15.368c-1.149-1.664-2.922-2.793-4.916-3.131c-1.93-0.331-3.903,0.109-5.509,1.217
		c-2.387-4.624-3.993-9.556-4.789-14.706l0.584-0.001c4.07-0.004,7.394-3.254,7.49-7.323c0.199-8.465,2.979-16.512,8.037-23.271
		c1.202-1.608,1.711-3.631,1.409-5.616c-0.3-1.985-1.384-3.767-3.009-4.947l-0.946-0.687c3.643-3.649,7.904-6.76,12.481-9.105
		l0.418,1.28c0.618,1.896,1.965,3.465,3.743,4.365c1.778,0.899,3.842,1.057,5.733,0.432c7.907-2.604,16.519-2.695,24.443-0.28
		c3.921,1.192,8.065-0.975,9.322-4.869l0.322-0.996c4.584,2.331,8.855,5.427,12.51,9.064l-0.325,0.237
		c-1.634,1.193-2.717,2.997-3.002,5.001c-0.284,2.004,0.253,4.038,1.489,5.639c5.036,6.521,7.934,14.296,8.38,22.483
		C383.141,228.469,386.439,231.574,390.409,231.574L390.409,231.574z"/>
</g>
</svg>
