<?xml version="1.0" encoding="utf-8"?>
<!-- Generator: Adobe Illustrator 16.0.0, SVG Export Plug-In . SVG Version: 6.00 Build 0)  -->
<!DOCTYPE svg PUBLIC "-//W3C//DTD SVG 1.1//EN" "http://www.w3.org/Graphics/SVG/1.1/DTD/svg11.dtd">
<svg version="1.1" id="Layer_1" xmlns="http://www.w3.org/2000/svg" xmlns:xlink="http://www.w3.org/1999/xlink" x="0px" y="0px"
	 width="512px" height="512px" viewBox="0 0 512 512" enable-background="new 0 0 512 512" xml:space="preserve">
<g id="outline">
	<path d="M477.589,167.171l-22.333-15.744l-0.311-27.322c-0.036-3.263-2.05-6.176-5.089-7.362l-25.449-9.937l-6.814-26.457
		c-0.814-3.16-3.466-5.509-6.7-5.936l-27.079-3.593l-12.927-24.07c-1.548-2.872-4.682-4.52-7.925-4.167l-27.162,3L317.46,25.32
		c-2.191-2.423-5.636-3.269-8.7-2.136l-25.636,9.448l-22.653-15.268c-2.702-1.821-6.239-1.821-8.942,0l-22.655,15.268l-25.639-9.449
		c-3.063-1.131-6.508-0.285-8.699,2.137L176.2,45.579l-27.161-2.995c-3.245-0.359-6.383,1.29-7.926,4.167l-12.927,24.07
		L101.1,74.414c-3.234,0.428-5.886,2.776-6.7,5.937l-6.813,26.457l-25.449,9.937c-3.038,1.187-5.052,4.1-5.089,7.361l-0.311,27.322
		L34.41,167.172c-2.669,1.882-3.927,5.196-3.178,8.374l6.271,26.601L19.62,222.8c-2.135,2.467-2.558,5.981-1.07,8.885L31.011,256
		L18.55,280.312c-1.487,2.902-1.064,6.417,1.07,8.884l17.88,20.662l-6.271,26.601c-0.748,3.178,0.51,6.491,3.179,8.372
		l22.333,15.745l0.31,27.322c0.036,3.262,2.05,6.175,5.089,7.362l25.452,9.939l6.815,26.457c0.813,3.16,3.465,5.509,6.699,5.936
		l27.083,3.593l12.928,24.07c1.547,2.872,4.681,4.52,7.925,4.167l27.162-2.995l18.34,20.258c2.192,2.421,5.636,3.267,8.7,2.136
		l25.636-9.449l22.656,15.269c2.702,1.821,6.239,1.821,8.941,0l22.656-15.269l25.638,9.45c3.064,1.128,6.507,0.283,8.7-2.137
		l18.34-20.259l27.161,3c3.244,0.357,6.381-1.292,7.925-4.167l12.928-24.07l27.083-3.593c3.235-0.428,5.887-2.776,6.7-5.937
		l6.814-26.457l25.448-9.937c3.039-1.187,5.053-4.1,5.09-7.361l0.31-27.321l22.333-15.745c2.669-1.882,3.926-5.196,3.177-8.374
		l-6.27-26.601L492.38,289.2c2.134-2.466,2.558-5.981,1.069-8.884L480.989,256l12.461-24.312c1.488-2.902,1.064-6.418-1.069-8.884
		l-17.88-20.662l6.27-26.601C481.517,172.364,480.258,169.051,477.589,167.171z M476.75,229.193l-11.869,23.159
		c-1.177,2.291-1.177,5.009,0,7.3l11.869,23.159l-17.026,19.671c-1.681,1.941-2.327,4.571-1.738,7.071l5.968,25.315l-21.26,14.989
		c-2.099,1.48-3.359,3.879-3.389,6.447l-0.3,26.014l-24.237,9.464c-2.396,0.937-4.195,2.967-4.836,5.457l-6.491,25.2l-25.793,3.421
		c-2.55,0.337-4.782,1.88-6,4.146l-12.3,22.913l-25.855-2.853c-2.553-0.279-5.084,0.681-6.808,2.583l-17.457,19.285l-24.41-9
		c-2.412-0.887-5.104-0.563-7.236,0.873L256,478.354l-21.581-14.543c-2.132-1.437-4.825-1.761-7.237-0.872l-24.408,9l-17.457-19.284
		c-1.724-1.901-4.255-2.862-6.807-2.583l-25.857,2.853L140.344,430c-1.217-2.266-3.45-3.809-6-4.146l-25.792-3.421l-6.492-25.2
		c-0.642-2.49-2.44-4.521-4.836-5.456l-24.237-9.464L72.7,356.301c-0.029-2.569-1.29-4.968-3.39-6.448l-21.26-14.988l5.967-25.316
		c0.59-2.499-0.057-5.13-1.738-7.07l-17.029-19.67l11.869-23.159c1.176-2.291,1.176-5.009,0-7.3L35.25,229.193l17.025-19.671
		c1.681-1.941,2.327-4.572,1.738-7.071l-5.968-25.315l21.26-14.989c2.1-1.48,3.36-3.879,3.389-6.447l0.301-26.014l24.236-9.464
		c2.396-0.937,4.195-2.967,4.836-5.457l6.491-25.2l25.793-3.421c2.551-0.337,4.783-1.88,6-4.146l12.3-22.917l25.856,2.853
		c2.552,0.277,5.082-0.683,6.807-2.583l17.457-19.285l24.41,9c2.413,0.887,5.104,0.563,7.237-0.873L256,33.646l21.581,14.543
		c2.132,1.437,4.824,1.761,7.236,0.872l24.408-9l17.457,19.284c1.725,1.9,4.256,2.861,6.807,2.583l25.857-2.853L371.656,82
		c1.218,2.267,3.45,3.81,6,4.146l25.792,3.421l6.492,25.2c0.642,2.49,2.44,4.52,4.836,5.456l24.237,9.464L439.3,155.7
		c0.028,2.569,1.289,4.968,3.389,6.448l21.26,14.988l-5.967,25.316c-0.59,2.499,0.057,5.129,1.738,7.07L476.75,229.193z"/>
	<path d="M400,256v0.336h16V256c-0.001-5.581-0.288-11.158-0.862-16.71l-15.914,1.652C399.74,245.945,399.999,250.97,400,256z"/>
	<path d="M124.34,314.416l-14.621,6.5c2.271,5.105,4.809,10.088,7.6,14.928l13.86-7.994
		C128.667,323.494,126.384,319.01,124.34,314.416z"/>
	<path d="M148.779,374.761c4.145,3.742,8.48,7.267,12.99,10.559l9.432-12.92c-4.061-2.965-7.964-6.139-11.694-9.508L148.779,374.761
		z"/>
	<path d="M363.034,159.666c3.364,3.738,6.533,7.648,9.492,11.714l12.938-9.414c-3.287-4.512-6.805-8.851-10.54-13L363.034,159.666z"
		/>
	<path d="M206.315,408.135c5.313,1.731,10.712,3.183,16.177,4.35l3.336-15.647c-4.915-1.049-9.771-2.355-14.548-3.913
		L206.315,408.135z"/>
	<path d="M396.885,226.06l15.653-3.312c-1.157-5.467-2.601-10.869-4.323-16.185L393,211.5
		C394.549,216.282,395.846,221.142,396.885,226.06z"/>
	<path d="M387.6,197.438l14.613-6.515c-2.275-5.104-4.816-10.085-7.613-14.924l-13.85,8.013
		C383.266,188.365,385.553,192.846,387.6,197.438z"/>
	<path d="M239.026,415.109c5.551,0.584,11.128,0.881,16.709,0.891l0.026-16c-5.028-0.008-10.054-0.275-15.055-0.801L239.026,415.109
		z"/>
	<path d="M139.38,340.492l-12.949,9.4c3.28,4.52,6.794,8.864,10.527,13.018l11.899-10.694
		C145.498,348.474,142.334,344.561,139.38,340.492z"/>
	<path d="M363.09,137.121c-4.147-3.738-8.487-7.259-13-10.547l-9.416,12.937c4.062,2.959,7.967,6.128,11.7,9.493L363.09,137.121z"/>
	<path d="M336.059,117.441c-4.833-2.797-9.81-5.339-14.908-7.616l-6.522,14.61c4.588,2.05,9.065,4.337,13.415,6.854L336.059,117.441
		z"/>
	<path d="M211.578,118.979l-4.931-15.221c-5.316,1.725-10.538,3.728-15.644,6l6.506,14.617
		C202.102,122.333,206.797,120.531,211.578,118.979z"/>
	<path d="M241.021,112.769l-1.642-15.916c-5.556,0.574-11.077,1.438-16.542,2.588l3.3,15.657
		C231.054,114.062,236.023,113.285,241.021,112.769z"/>
	<path d="M272.8,96.871c-5.552-0.577-11.13-0.868-16.711-0.871l-0.008,16c5.028,0.003,10.053,0.266,15.055,0.785L272.8,96.871z"/>
	<path d="M305.517,103.812c-5.313-1.726-10.714-3.172-16.178-4.333l-3.322,15.65c4.916,1.046,9.772,2.348,14.552,3.9
		L305.517,103.812z"/>
	<path d="M372.35,340.863l12.92,9.44c3.293-4.51,6.35-9.188,9.156-14.015l-13.832-8.041
		C378.067,332.594,375.315,336.804,372.35,340.863z"/>
	<path d="M327.778,380.864l7.989,13.864c4.839-2.79,9.528-5.83,14.051-9.108l-9.39-12.952
		C336.357,375.617,332.134,378.353,327.778,380.864z"/>
	<path d="M175.787,394.47c4.83,2.803,9.804,5.351,14.899,7.634l6.539-14.6c-4.586-2.055-9.061-4.348-13.407-6.869L175.787,394.47z"
		/>
	<path d="M352.154,363.2l10.688,11.9c4.154-3.73,8.112-7.673,11.858-11.813l-11.867-10.731
		C359.46,356.286,355.896,359.84,352.154,363.2z"/>
	<path d="M387.468,314.848l14.6,6.545c2.285-5.099,4.301-10.313,6.038-15.623L392.9,300.8
		C391.336,305.574,389.523,310.263,387.468,314.848z"/>
	<path d="M300.271,393.069l4.912,15.228c5.318-1.717,10.543-3.713,15.652-5.979l-6.49-14.625
		C309.751,389.73,305.053,391.525,300.271,393.069z"/>
	<path d="M115.148,225.9L99.5,222.577c-1.159,5.464-2.033,10.983-2.616,16.538l15.912,1.67
		C113.32,235.786,114.105,230.817,115.148,225.9z"/>
	<path d="M112,256v-0.168H96V256c0,5.522,0.281,11.042,0.845,16.535l15.916-1.637C112.254,265.948,112,260.975,112,256z"/>
	<path d="M270.82,399.247l1.625,15.918c5.556-0.568,11.077-1.426,16.543-2.569l-3.278-15.66
		C280.789,397.964,275.82,398.736,270.82,399.247z"/>
	<path d="M124.467,197.3l-14.608-6.528c-2.277,5.101-4.287,10.318-6.019,15.63l15.213,4.955
		C120.611,206.579,122.418,201.887,124.467,197.3z"/>
	<path d="M115.083,285.784l-15.658,3.293c1.151,5.469,2.589,10.873,4.306,16.191l15.226-4.922
		C117.41,295.563,116.117,290.703,115.083,285.784z"/>
	<path d="M396.818,286.252l15.647,3.347c1.165-5.463,2.045-10.982,2.635-16.536l-15.911-1.688
		C398.658,276.372,397.866,281.338,396.818,286.252z"/>
	<path d="M159.727,148.912l-10.7-11.894c-4.149,3.735-8.103,7.684-11.845,11.828l11.879,10.718
		C152.43,155.832,155.99,152.276,159.727,148.912z"/>
	<path d="M139.557,171.266l-12.93-9.427c-3.288,4.514-6.34,9.194-9.143,14.023l13.843,8.026
		C133.849,179.541,136.596,175.328,139.557,171.266z"/>
	<path d="M184.084,131.215l-8-13.855c-4.837,2.796-9.524,5.841-14.044,9.124l9.405,12.944
		C175.513,136.471,179.732,133.73,184.084,131.215z"/>
	<path d="M384,256c0-70.692-57.308-128-128-128s-128,57.308-128,128c0,70.693,57.308,128,128,128
		C326.659,383.92,383.919,326.659,384,256z M256,368c-61.856,0-112-50.144-112-112c0-61.855,50.144-112,112-112
		c61.855,0,112,50.145,112,112C367.93,317.827,317.826,367.93,256,368z"/>
	<path d="M328.971,207.029c-9.38-9.356-24.563-9.356-33.942,0L224,278.059l-15.029-15.03c-9.373-9.373-24.569-9.373-33.942,0
		c-9.372,9.373-9.372,24.569,0,33.942l0,0l32,32c9.373,9.373,24.568,9.373,33.941,0.001c0-0.001,0.001-0.001,0.001-0.001l88-88
		C338.344,231.598,338.344,216.403,328.971,207.029L328.971,207.029z M317.656,229.656l-88,88c-3.123,3.123-8.188,3.123-11.312,0
		l-32-32c-3.089-3.159-3.032-8.225,0.127-11.313c3.109-3.041,8.078-3.04,11.188,0.001l20.687,20.685
		c3.124,3.124,8.188,3.124,11.313,0l76.687-76.685c3.069-3.179,8.134-3.267,11.313-0.197c3.178,3.07,3.266,8.135,0.196,11.313
		c-0.064,0.066-0.13,0.132-0.196,0.196H317.656z"/>
	<path d="M256,64C150.131,64,64,150.131,64,256s86.131,192,192,192s192-86.131,192-192S361.869,64,256,64z M256,432
		c-97.047,0-176-78.952-176-176c0-97.047,78.953-176,176-176s176,78.953,176,176C432,353.048,353.047,432,256,432z"/>
</g>
</svg>
