<?xml version="1.0" encoding="utf-8"?>
<!-- Generator: Adobe Illustrator 16.0.0, SVG Export Plug-In . SVG Version: 6.00 Build 0)  -->
<!DOCTYPE svg PUBLIC "-//W3C//DTD SVG 1.1//EN" "http://www.w3.org/Graphics/SVG/1.1/DTD/svg11.dtd">
<svg version="1.1" id="Capa_1" xmlns="http://www.w3.org/2000/svg" xmlns:xlink="http://www.w3.org/1999/xlink" x="0px" y="0px"
	 width="512px" height="512px" viewBox="0 0 512 512" enable-background="new 0 0 512 512" xml:space="preserve">
<g>
	<path d="M507.898,338.167l-90.989-279.37c-6.827-20.981-21.417-38.046-41.082-48.05C356.162,0.744,333.778-1,312.803,5.832
		l-98.873,32.2H74.48C33.412,38.032,0,71.444,0,112.512v38.398c0,4.154,3.367,7.523,7.523,7.523c4.155,0,7.522-3.369,7.522-7.523
		v-38.398c0-32.771,26.661-59.434,59.434-59.434h206.868c32.772,0,59.434,26.662,59.434,59.434V393.66
		c0,4.155,3.367,7.523,7.523,7.523c4.155,0,7.523-3.368,7.523-7.523v-34.379l77.488-27.377c3.918-1.384,5.972-5.682,4.588-9.6
		c-1.385-3.918-5.684-5.97-9.599-4.587l-72.478,25.605v-63.671l60.618-21.415c3.919-1.385,5.972-5.683,4.588-9.6
		c-1.385-3.918-5.684-5.971-9.599-4.588l-55.607,19.645v-61.681l49.373-17.445c3.917-1.384,5.97-5.682,4.586-9.6
		c-1.385-3.919-5.684-5.969-9.6-4.587l-44.359,15.674v-73.543c0-41.068-33.412-74.48-74.48-74.48h-18.83l54.943-17.894
		c17.157-5.588,35.462-4.161,51.544,4.02c16.081,8.18,28.013,22.135,33.596,39.295l90.991,279.372
		c5.586,17.155,4.158,35.46-4.023,51.542c-8.183,16.082-22.136,28.014-39.293,33.598l-98.531,32.1
		c2.633-7.615,4.084-15.776,4.084-24.274v-8.024c0-4.155-3.368-7.523-7.523-7.523c-4.156,0-7.523,3.368-7.523,7.523v8.024
		c0,32.771-26.661,59.434-59.434,59.434H74.48c-32.772,0-59.434-26.662-59.434-59.434V185.016c0-4.155-3.367-7.523-7.522-7.523
		c-4.156,0-7.523,3.368-7.523,7.523V435.79c0,41.068,33.412,74.48,74.479,74.48h206.868c24.921,0,47.008-12.316,60.534-31.169
		l113.053-36.829c20.978-6.827,38.04-21.417,48.044-41.082C512.984,381.525,514.731,359.143,507.898,338.167L507.898,338.167z"/>
	<path d="M178.319,85.038c-22.599,0-40.983,18.385-40.983,40.983c0,22.598,18.385,40.982,40.983,40.982
		c22.598,0,40.982-18.385,40.982-40.982C219.301,103.423,200.916,85.038,178.319,85.038z M178.319,151.957
		c-14.303,0-25.938-11.635-25.938-25.936c0-14.302,11.636-25.938,25.938-25.938c14.301,0,25.936,11.636,25.936,25.938
		C204.254,140.322,192.618,151.957,178.319,151.957z"/>
	<path d="M216.732,219.439c-3.474-2.276-8.138-1.303-10.415,2.173l-72.373,110.524c-2.277,3.476-1.305,8.139,2.173,10.415
		c1.271,0.832,2.7,1.23,4.114,1.23c2.451,0,4.857-1.197,6.301-3.403l72.372-110.524
		C221.181,226.379,220.207,221.716,216.732,219.439L216.732,219.439z"/>
	<path d="M112.89,232.092c0,14.666,11.934,26.598,26.6,26.598s26.599-11.932,26.599-26.598c0-14.667-11.933-26.6-26.599-26.6
		S112.89,217.425,112.89,232.092L112.89,232.092z M139.49,220.539c6.371,0,11.553,5.183,11.553,11.553
		c0,6.369-5.182,11.552-11.553,11.552s-11.553-5.183-11.553-11.552C127.937,225.721,133.118,220.539,139.49,220.539z"/>
	<path d="M190.547,329.619c0,14.666,11.933,26.599,26.599,26.599c14.667,0,26.6-11.933,26.6-26.599
		c0-14.667-11.933-26.599-26.6-26.599C202.48,303.02,190.547,314.951,190.547,329.619z M228.698,329.619
		c0,6.369-5.182,11.552-11.553,11.552c-6.37,0-11.553-5.183-11.553-11.552c0-6.37,5.183-11.552,11.553-11.552
		C223.516,318.067,228.698,323.248,228.698,329.619z"/>
	<path d="M63.948,406.914c0,4.155,3.367,7.523,7.523,7.523h213.693c4.155,0,7.522-3.368,7.522-7.523
		c0-4.154-3.367-7.523-7.522-7.523H71.471C67.315,399.39,63.948,402.76,63.948,406.914z"/>
	<path d="M71.471,454.849h213.693c4.155,0,7.522-3.369,7.522-7.523c0-4.155-3.367-7.523-7.522-7.523H71.471
		c-4.156,0-7.523,3.368-7.523,7.523C63.948,451.48,67.315,454.849,71.471,454.849z"/>
</g>
</svg>
