<svg id="Capa_1" enable-background="new 0 0 512 512" height="512" viewBox="0 0 512 512" width="512" xmlns="http://www.w3.org/2000/svg"><g><path d="m335 30h-37.58c-6.192-17.459-22.865-30-42.42-30h-120c-19.555 0-36.228 12.541-42.42 30h-37.58c-30.327 0-55 24.673-55 55v372c0 30.327 24.673 55 55 55h280c30.327 0 55-24.673 55-55v-372c0-30.327-24.673-55-55-55zm-200 0h120c8.271 0 15 6.729 15 15s-6.729 15-15 15h-120c-8.271 0-15-6.729-15-15s6.729-15 15-15zm105 60v15c0 8.271-6.729 15-15 15h-60c-8.271 0-15-6.729-15-15v-15zm120 367c0 13.785-11.215 25-25 25h-280c-13.785 0-25-11.215-25-25v-372c0-13.785 11.215-25 25-25h37.58c4.527 12.764 14.656 22.893 27.42 27.42v17.58c0 24.813 20.187 45 45 45h60c24.813 0 45-20.187 45-45v-17.58c12.764-4.527 22.893-14.656 27.42-27.42h37.58c13.785 0 25 11.215 25 25z"/><path d="m105 180h-30c-8.284 0-15 6.716-15 15s6.716 15 15 15h30c8.284 0 15-6.716 15-15s-6.716-15-15-15z"/><path d="m105 240h-30c-8.284 0-15 6.716-15 15s6.716 15 15 15h30c8.284 0 15-6.716 15-15s-6.716-15-15-15z"/><path d="m105 300h-30c-8.284 0-15 6.716-15 15s6.716 15 15 15h30c8.284 0 15-6.716 15-15s-6.716-15-15-15z"/><path d="m105 360h-30c-8.284 0-15 6.716-15 15s6.716 15 15 15h30c8.284 0 15-6.716 15-15s-6.716-15-15-15z"/><path d="m315 180h-150c-8.284 0-15 6.716-15 15s6.716 15 15 15h150c8.284 0 15-6.716 15-15s-6.716-15-15-15z"/><path d="m165 270h120c8.284 0 15-6.716 15-15s-6.716-15-15-15h-120c-8.284 0-15 6.716-15 15s6.716 15 15 15z"/><path d="m315 300h-150c-8.284 0-15 6.716-15 15s6.716 15 15 15h150c8.284 0 15-6.716 15-15s-6.716-15-15-15z"/><path d="m280 375c0-8.284-6.716-15-15-15h-100c-8.284 0-15 6.716-15 15s6.716 15 15 15h100c8.284 0 15-6.716 15-15z"/><path d="m315 420h-60c-8.284 0-15 6.716-15 15s6.716 15 15 15h60c8.284 0 15-6.716 15-15s-6.716-15-15-15z"/><path d="m467 42c-24.813 0-45 20.187-45 45v330c0 1.799.323 3.583.955 5.267l30 80c2.195 5.855 7.792 9.733 14.045 9.733s11.85-3.878 14.045-9.733l30-80c.632-1.684.955-3.468.955-5.267v-330c0-24.813-20.187-45-45-45zm0 412.28-8.355-22.28h16.71zm15-52.28h-30v-230h30zm0-260h-30v-55c0-8.271 6.729-15 15-15s15 6.729 15 15z"/></g></svg>