<?xml version="1.0" encoding="utf-8"?>
<!-- Generator: Adobe Illustrator 16.0.0, SVG Export Plug-In . SVG Version: 6.00 Build 0)  -->
<!DOCTYPE svg PUBLIC "-//W3C//DTD SVG 1.1//EN" "http://www.w3.org/Graphics/SVG/1.1/DTD/svg11.dtd">
<svg version="1.1" id="outline" xmlns="http://www.w3.org/2000/svg" xmlns:xlink="http://www.w3.org/1999/xlink" x="0px" y="0px"
	 width="512px" height="512px" viewBox="0 0 512 512" enable-background="new 0 0 512 512" xml:space="preserve">
<path d="M120,240H56c-4.419,0-8,3.582-8,8v48c0,4.419,3.581,8,8,8h64c4.418,0,8-3.581,8-8v-48C128,243.582,124.418,240,120,240z
	 M112,288H64v-32h48V288z"/>
<path d="M144,280h16v16h-16V280z"/>
<path d="M240,240h16v16h-16V240z"/>
<path d="M272,240h48v16h-48V240z"/>
<path d="M240,280h16v16h-16V280z"/>
<path d="M296,152h16v16h-16V152z"/>
<path d="M328,152h48v16h-48V152z"/>
<path d="M344,184h32v16h-32V184z"/>
<path d="M296,184h32v16h-32V184z"/>
<path d="M296,336h24v16h-24V336z"/>
<path d="M488,416h-48v-64c0.018-8.651,2.823-17.067,8-24c10.354-13.864,15.964-30.696,16-48c-0.021-21.621-12.473-41.305-32-50.585
	V144c-0.016-13.248-10.752-23.984-24-24H288V24c0-4.418-3.582-8-8-8H24c-4.419,0-8,3.582-8,8v304c0,4.419,3.581,8,8,8h176v32
	c0.015,13.249,10.751,23.985,24,24h152v24h-48c-4.419,0.001-8,3.582-8,8v64c0,4.419,3.581,8,8,8h160c4.418,0,8-3.581,8-8v-64
	C496,419.582,492.418,416.001,488,416z M152,88c-4.419,0-8-3.581-8-8c0-4.418,3.581-8,8-8c4.418,0,8,3.582,8,8
	C159.995,84.416,156.416,87.995,152,88z M160,104v33.377c-5.176-1.835-10.825-1.835-16,0V104H160z M152,152c4.418,0,8,3.582,8,8
	c0,4.419-3.582,8-8,8c-4.419,0-8-3.581-8-8C144.005,155.584,147.584,152.005,152,152z M176,80c0-13.255-10.745-24-24-24
	s-24,10.745-24,24v8H76.281L38.948,32h226.104l-37.333,56H176V80z M32,320V50.422l33.344,50.016C66.827,102.663,69.325,104,72,104
	h56v52.87c-10.238,11.873-13.445,28.271-8.435,43.126l0.845,2.534l15.179-5.061l-0.845-2.534c-1.986-5.92-1.973-12.328,0.038-18.239
	c9.212,9.518,24.395,9.767,33.913,0.555c4.673-4.522,7.309-10.748,7.305-17.251v-56h56c2.675,0,5.173-1.337,6.656-3.563L272,50.422
	v70.507c-3.912,1.118-7.473,3.219-10.344,6.101l-54.627,54.627c-4.516,4.491-7.047,10.603-7.029,16.971V248h-56v16h56v16h-24v16h24
	v24H32z M224,376c-4.416-0.005-7.995-3.583-8-8V198.627c-0.006-2.122,0.838-4.159,2.343-5.656L264,147.314V176
	c-0.005,4.416-3.584,7.995-8,8h-16v16h16c13.248-0.015,23.984-10.751,24-24v-40h128c4.416,0.005,7.994,3.584,8,8v80.581
	c-17.26-2.51-34.699,3.195-47.139,15.419H336v16h21.414c-3.572,7.496-5.423,15.696-5.414,24h-80v16h81.637
	c2.376,11.594,7.28,22.52,14.363,32c1.853,2.478,3.41,5.163,4.642,8H336v16h40v24H224z M380.8,318.4
	c-8.283-11.092-12.771-24.557-12.8-38.4c0-22.091,17.908-40,40-40c22.091,0,40,17.909,40,40c-0.029,13.844-4.518,27.309-12.801,38.4
	c-7.247,9.705-11.175,21.487-11.199,33.6v64h-32v-64C391.975,339.887,388.047,328.105,380.8,318.4z M480,480H336v-48h144V480z"/>
</svg>
