<?xml version="1.0" encoding="iso-8859-1"?>
<!-- Generator: Adobe Illustrator 19.0.0, SVG Export Plug-In . SVG Version: 6.00 Build 0)  -->
<svg version="1.1" id="Capa_1" xmlns="http://www.w3.org/2000/svg" xmlns:xlink="http://www.w3.org/1999/xlink" x="0px" y="0px"
	 viewBox="0 0 512 512" style="enable-background:new 0 0 512 512;" xml:space="preserve">
<g>
	<g>
		<path d="M432.234,388.82h-0.236c-5.522,0-10,4.478-10,10c0,5.522,4.478,10,10,10h0.236c5.522,0,10-4.478,10-10
			C442.234,393.298,437.757,388.82,432.234,388.82z"/>
	</g>
</g>
<g>
	<g>
		<path d="M511.999,398.798V387.89c0-24.602-15.375-45.666-37.015-54.129c6.793-7.986,10.91-18.341,10.91-29.651
			c0-25.184-20.364-45.672-45.395-45.672c-0.145,0-0.287,0.01-0.431,0.011c-6.659-9.589-15.928-16.842-26.524-20.975
			c6.758-7.977,10.851-18.305,10.851-29.582c0-25.184-20.364-45.672-45.396-45.672c-0.144,0-0.285,0.01-0.429,0.011
			c-6.659-9.591-15.929-16.845-26.526-20.978c6.758-7.977,10.851-18.305,10.851-29.583C362.896,86.488,342.531,66,317.5,66
			s-45.396,20.488-45.396,45.671c0,11.278,4.093,21.607,10.851,29.583c-10.599,4.133-19.867,11.387-26.527,20.978
			c-0.143-0.001-0.285-0.011-0.428-0.011c-0.144,0-0.286,0.01-0.429,0.011c-6.66-9.591-15.929-16.845-26.527-20.978
			c6.758-7.977,10.851-18.305,10.851-29.583C239.894,86.488,219.531,66,194.5,66c-25.032,0-45.397,20.488-45.397,45.671
			c0,11.278,4.093,21.607,10.851,29.583c-10.598,4.133-19.867,11.387-26.526,20.978c-0.143-0.001-0.285-0.011-0.428-0.011
			c-25.031,0-45.396,20.488-45.396,45.672c0,11.277,4.093,21.605,10.851,29.582c-10.597,4.133-19.866,11.385-26.525,20.975
			c-0.144-0.001-0.286-0.011-0.43-0.011c-25.031,0-45.396,20.488-45.396,45.672c0,11.31,4.117,21.665,10.911,29.651
			C15.375,342.225,0,363.289,0,387.891V436c0,5.522,4.477,10,10,10h491.999c5.523,0,10-4.478,10-10v-37.162
			c0-0.007,0.001-0.013,0.001-0.02C512,398.811,511.999,398.805,511.999,398.798z M440.5,278.438
			c14.003,0.001,25.395,11.517,25.395,25.672c0,14.155-11.392,25.671-25.395,25.671c-14.004,0-25.397-11.516-25.397-25.671
			C415.103,289.955,426.496,278.438,440.5,278.438z M379,182.221c14.003,0,25.396,11.516,25.396,25.672
			c0,14.155-11.393,25.671-25.396,25.671s-25.396-11.516-25.396-25.671C353.604,193.738,364.997,182.221,379,182.221z M317.5,86
			c14.003,0,25.396,11.516,25.396,25.671c0,14.155-11.393,25.672-25.396,25.672s-25.396-11.517-25.396-25.672
			C292.104,97.516,303.497,86,317.5,86z M303.736,157.343h27.526c9.786,0,19.007,3.867,25.927,10.508
			c-14.044,7.774-23.585,22.807-23.585,40.042c0,11.277,4.093,21.605,10.851,29.582c-10.598,4.133-19.865,11.385-26.524,20.975
			c-0.144-0.001-0.286-0.011-0.431-0.011c-0.145,0-0.287,0.01-0.432,0.011c-6.659-9.589-15.927-16.842-26.524-20.975
			c6.758-7.977,10.851-18.305,10.851-29.582c0-17.235-9.541-32.268-23.586-40.042C284.729,161.21,293.95,157.343,303.736,157.343z
			 M342.896,304.11c0,14.155-11.393,25.671-25.396,25.671c-14.004,0-25.397-11.515-25.397-25.671
			c0-14.155,11.393-25.672,25.397-25.672C331.503,278.438,342.896,289.955,342.896,304.11z M256,182.221
			c14.003,0,25.395,11.517,25.395,25.672c0,14.155-11.393,25.671-25.395,25.671c-14.003,0-25.396-11.516-25.396-25.671
			C230.604,193.737,241.997,182.221,256,182.221z M194.5,86c14.002,0,25.394,11.516,25.394,25.671
			c0,14.155-11.392,25.672-25.394,25.672c-14.003,0-25.397-11.517-25.397-25.672C169.103,97.516,180.497,86,194.5,86z
			 M180.736,157.343h27.526c9.786,0,19.007,3.867,25.927,10.509c-14.045,7.773-23.585,22.806-23.585,40.041
			c0,11.277,4.093,21.605,10.851,29.582c-10.597,4.133-19.866,11.385-26.525,20.975c-0.144-0.001-0.286-0.011-0.43-0.011
			c-0.145,0-0.286,0.01-0.43,0.011c-6.659-9.59-15.928-16.842-26.525-20.975c6.758-7.977,10.851-18.305,10.851-29.582
			c0-17.235-9.541-32.268-23.585-40.042C161.729,161.21,170.951,157.343,180.736,157.343z M219.894,304.11
			c0,14.155-11.392,25.671-25.394,25.671c-14.003,0-25.397-11.515-25.397-25.671c0-14.155,11.393-25.672,25.397-25.672
			C208.502,278.438,219.894,289.955,219.894,304.11z M133,182.221c14.003,0,25.395,11.517,25.395,25.672
			c0,14.155-11.393,25.671-25.395,25.671c-14.003,0-25.396-11.516-25.396-25.671C107.604,193.737,118.997,182.221,133,182.221z
			 M71.5,278.439c14.003,0,25.395,11.517,25.395,25.672c0,14.155-11.393,25.671-25.395,25.671
			c-14.003,0-25.396-11.516-25.396-25.671C46.104,289.955,57.497,278.439,71.5,278.439z M122.999,426H20v-17.182h31.035
			c5.523,0,10-4.477,10-10c0-5.522-4.477-10-10-10H20v-0.928c0-21.014,17.096-38.109,38.109-38.109H84.89
			c21.014,0,38.109,17.096,38.109,38.109V426z M132.998,355.336c-6.567-9.674-15.978-17.258-27.015-21.574
			c6.794-7.986,10.911-18.341,10.911-29.651c0-17.234-9.54-32.266-23.584-40.041c6.921-6.64,16.141-10.506,25.926-10.506h27.526
			c9.786,0,19.006,3.866,25.925,10.506c-14.044,7.774-23.585,22.807-23.585,40.041c0,11.31,4.117,21.666,10.911,29.651
			C148.976,338.078,139.565,345.662,132.998,355.336z M245.999,426H143v-38.109c0-21.014,17.096-38.109,38.109-38.109h26.781
			c21.014,0,38.109,17.096,38.109,38.109V426z M256,355.336c-6.567-9.674-15.979-17.259-27.016-21.574
			c6.793-7.986,10.91-18.341,10.91-29.651c0-17.234-9.539-32.266-23.583-40.04c6.92-6.641,16.14-10.507,25.925-10.507h27.526
			c9.785,0,19.005,3.866,25.925,10.507c-14.044,7.774-23.584,22.806-23.584,40.04c0,11.31,4.117,21.665,10.911,29.651
			C271.977,338.078,262.566,345.662,256,355.336z M368.999,426H266v-38.109c0-21.014,17.096-38.109,38.108-38.109h26.782
			c21.014,0,38.109,17.096,38.109,38.109V426z M378.999,355.335c-6.566-9.674-15.978-17.258-27.015-21.574
			c6.793-7.986,10.91-18.341,10.91-29.651c0-17.234-9.54-32.266-23.584-40.041c6.92-6.64,16.14-10.506,25.925-10.506h27.526
			c9.785,0,19.006,3.866,25.925,10.506c-14.041,7.776-23.583,22.807-23.583,40.041c0,11.31,4.117,21.665,10.911,29.651
			C394.977,338.077,385.566,345.661,378.999,355.335z M491.998,388.819h-31.034c-5.522,0-10,4.478-10,10c0,5.523,4.478,10,10,10
			h31.034V426H389v-38.109c0-21.014,17.096-38.109,38.109-38.109h26.781c21.013,0,38.108,17.096,38.108,38.109V388.819z"/>
	</g>
</g>
<g>
	<g>
		<path d="M80.001,388.82h-0.235c-5.523,0-10,4.478-10,10c0,5.522,4.477,10,10,10h0.235c5.523,0,10-4.478,10-10
			C90.001,393.298,85.524,388.82,80.001,388.82z"/>
	</g>
</g>
<g>
</g>
<g>
</g>
<g>
</g>
<g>
</g>
<g>
</g>
<g>
</g>
<g>
</g>
<g>
</g>
<g>
</g>
<g>
</g>
<g>
</g>
<g>
</g>
<g>
</g>
<g>
</g>
<g>
</g>
</svg>
