<?xml version="1.0" encoding="utf-8"?>
<!-- Generator: Adobe Illustrator 16.0.0, SVG Export Plug-In . SVG Version: 6.00 Build 0)  -->
<!DOCTYPE svg PUBLIC "-//W3C//DTD SVG 1.1//EN" "http://www.w3.org/Graphics/SVG/1.1/DTD/svg11.dtd">
<svg version="1.1" id="Layer_1" xmlns="http://www.w3.org/2000/svg" xmlns:xlink="http://www.w3.org/1999/xlink" x="0px" y="0px"
	 width="512px" height="512px" viewBox="0 0 512 512" enable-background="new 0 0 512 512" xml:space="preserve">
<path d="M476,43.052h-33.415V30.634c0-3.313-2.687-6-6-6H255.453c-3.314,0-6,2.687-6,6v12.418h-43.415
	c-14.354,0.015-25.985,11.646-26,26v43.231C141.163,82.378,85.406,89.649,55.5,128.524c-11.951,15.537-18.427,34.591-18.417,54.192
	v26.894c-6.893,2.413-12.083,8.166-13.778,15.269c-3.211,13.129,3.832,26.598,16.445,31.452v5.738
	c0.021,31.798,17.336,61.068,45.193,76.4v26.358l-47.333,20.2c-0.11,0.048-0.22,0.101-0.326,0.152
	c-15.453,7.79-25.77,23.027-27.264,40.268c-0.014,0.165-0.021,0.332-0.021,0.5v55.421c0,3.314,2.687,6,6,6h226.769
	c3.313,0,6-2.686,6-6v-54.49H476c14.353-0.016,25.984-11.647,26-26V69.049C501.984,54.697,490.352,43.066,476,43.052z
	 M261.453,36.634h169.132v22.386H261.453V36.634z M49.083,182.717c0-42.446,34.409-76.855,76.855-76.855
	s76.856,34.409,76.856,76.855v27.316c-14.868,1.607-60.255,4.032-96.7-20.134c25.042-3.338,55.568-11.026,78.208-28.39
	c2.671-1.961,3.245-5.717,1.283-8.388c-1.962-2.67-5.718-3.244-8.388-1.282c-0.066,0.048-0.132,0.099-0.195,0.149
	c-41.188,31.589-114.767,28.257-115.5,28.218c-3.287-0.166-6.096,2.343-6.3,5.627l-1.801,29.633l-3.915-2.01
	c-0.204-0.104-0.352-0.294-0.399-0.519L49.083,182.717z M51.75,262.069v-10.281c0-2.915-2.094-5.408-4.965-5.911
	c-8.074-1.435-13.456-9.144-12.021-17.218c0.056-0.31,0.12-0.618,0.195-0.924c0.653-2.888,2.636-5.295,5.344-6.49
	c1.043,1.185,2.298,2.164,3.7,2.888l9.8,5.031c3.771,1.938,8.398,0.452,10.336-3.318c0.463-0.902,0.743-1.888,0.824-2.898
	c0-0.038,0.006-0.075,0.008-0.113l1.857-30.484c4.899,0.046,12.478-0.034,21.689-0.677c49.005,41.688,118.357,30.049,121.323,29.527
	c0.621-0.114,1.221-0.327,1.776-0.629c3.637,0.749,6.504,3.547,7.343,7.164c1.947,7.963-2.929,15.998-10.893,17.945
	c-0.309,0.075-0.619,0.142-0.932,0.196c-2.871,0.503-4.966,2.996-4.965,5.911v10.281c-0.151,41.536-33.945,75.087-75.481,74.936
	c-41.323-0.149-74.786-33.612-74.936-74.936H51.75z M180.041,331.209v36.27l-6.216-2.652v-29.241
	C175.963,334.217,178.035,332.758,180.041,331.209L180.041,331.209z M161.825,342v21.543c-20.785,8.535-44.097,8.535-64.882,0
	v-19.589C118.017,351.677,141.255,350.977,161.825,342z M236.769,475.371H22V426.2c1.206-12.917,8.941-24.317,20.5-30.21
	l49.964-21.324c23.661,9.7,50.189,9.7,73.851,0l49.965,21.325c11.555,5.895,19.286,17.295,20.489,30.209V475.371z M490,400.881
	c-0.008,7.729-6.271,13.992-14,14H246.652c-4.026-12.896-13.105-23.611-25.167-29.7c-0.106-0.056-0.216-0.101-0.326-0.152
	L192.041,372.6v-52.548c14.265-15.943,22.143-36.591,22.126-57.983v-5.738c12.612-4.854,19.655-18.322,16.444-31.45
	c-1.871-7.848-7.979-13.987-15.816-15.899v-26.265c0.018-21.906-8.09-43.042-22.754-59.316V69.049c0.007-7.729,6.271-13.992,14-14
	h43.415v9.969c0,3.313,2.686,6,6,6h181.129c3.313,0,6-2.687,6-6v-9.966H476c7.729,0.007,13.992,6.271,14,14V400.881z"/>
<path d="M446.584,221.686h-43.866c-3.314,0-6,2.687-6,6s2.686,6,6,6h43.866c3.313,0,6-2.687,6-6S449.898,221.686,446.584,221.686
	L446.584,221.686z"/>
<path d="M362.157,233.686h14.715c3.313,0,6-2.687,6-6s-2.687-6-6-6h-14.715c-3.314,0-6,2.687-6,6S358.843,233.686,362.157,233.686z"
	/>
<path d="M446.584,286.582h-14.896c-3.313,0-6,2.687-6,6s2.687,6,6,6h14.896c3.313,0,6-2.687,6-6S449.898,286.582,446.584,286.582
	L446.584,286.582z"/>
<path d="M410.937,298.582c3.313,0,6-2.687,6-6s-2.687-6-6-6h-79.459c-3.313,0-6,2.687-6,6s2.687,6,6,6H410.937z"/>
<path d="M310.437,286.582h-5.36c-3.314,0-6,2.687-6,6s2.686,6,6,6h5.36c3.313,0,6-2.687,6-6S313.75,286.582,310.437,286.582z"/>
<path d="M245.212,286.582c-3.313,0-6,2.687-6,6s2.687,6,6,6h34.018c3.314,0,6-2.687,6-6s-2.686-6-6-6H245.212z"/>
<path d="M446.584,346.563h-34.336c-3.313,0-6,2.687-6,6s2.687,6,6,6h34.336c3.313,0,6-2.687,6-6S449.898,346.563,446.584,346.563
	L446.584,346.563z"/>
<path d="M390.714,346.563H386.4c-3.313,0-6,2.687-6,6s2.687,6,6,6h4.312c3.313,0,6-2.687,6-6s-2.687-6-6-6H390.714z"/>
<path d="M369.514,346.563H336.9c-3.313,0-6,2.687-6,6s2.687,6,6,6h32.615c3.313,0,6-2.687,6-6S372.828,346.563,369.514,346.563
	L369.514,346.563z"/>
<path d="M310.437,346.563h-65.225c-3.313,0-6,2.687-6,6s2.687,6,6,6h65.225c3.313,0,6-2.687,6-6S313.75,346.563,310.437,346.563z"/>
<path d="M446.584,170.6h-3.872c-3.314,0-6,2.686-6,6c0,3.313,2.686,6,6,6h3.872c3.313,0,6-2.687,6-6
	C452.584,173.286,449.898,170.6,446.584,170.6z"/>
<path d="M374.339,182.6h42.527c3.314,0,6-2.687,6-6c0-3.314-2.686-6-6-6h-42.527c-3.313,0-6,2.686-6,6
	C368.339,179.914,371.026,182.6,374.339,182.6z"/>
<path d="M446.584,120.6h-42.867c-3.314,0-6,2.686-6,6c0,3.313,2.686,6,6,6h42.867c3.313,0,6-2.687,6-6
	C452.584,123.286,449.898,120.6,446.584,120.6z"/>
<path d="M374.339,132.6h3.533c3.313,0,6-2.687,6-6c0-3.314-2.687-6-6-6h-3.533c-3.313,0-6,2.686-6,6
	C368.339,129.914,371.026,132.6,374.339,132.6z"/>
<path d="M287.875,237.92c36.45,0,66-29.549,66-66c0-36.45-29.55-66-66-66c-36.451,0-66,29.55-66,66
	C221.916,208.353,251.442,237.879,287.875,237.92z M287.875,117.92c29.823,0,54,24.177,54,54s-24.177,54-54,54s-54-24.177-54-54
	C233.909,142.111,258.066,117.954,287.875,117.92z"/>
<path d="M270.268,198.079c2.344,2.343,6.142,2.343,8.485,0l43.832-43.832c2.323-2.362,2.292-6.161-0.07-8.484
	c-2.335-2.297-6.08-2.297-8.415,0l-39.589,39.589l-12.862-12.861c-2.311-2.375-6.109-2.427-8.484-0.116
	c-2.375,2.312-2.427,6.11-0.115,8.485c0.037,0.038,0.076,0.077,0.115,0.115L270.268,198.079z"/>
</svg>
