<?xml version="1.0" encoding="utf-8"?>
<!-- Generator: Adobe Illustrator 16.0.0, SVG Export Plug-In . SVG Version: 6.00 Build 0)  -->
<!DOCTYPE svg PUBLIC "-//W3C//DTD SVG 1.1//EN" "http://www.w3.org/Graphics/SVG/1.1/DTD/svg11.dtd">
<svg version="1.1" id="Layer_1" xmlns="http://www.w3.org/2000/svg" xmlns:xlink="http://www.w3.org/1999/xlink" x="0px" y="0px"
	 width="480px" height="480px" viewBox="0 0 480 480" enable-background="new 0 0 480 480" xml:space="preserve">
<path d="M8.031,448.002h23.998V472c0,4.418,3.582,7.999,8,7.999h335.977c4.418,0,7.999-3.581,7.999-7.999v-31.998h-15.998v23.999
	H48.028v-15.999h183.987v-15.999H16.031V88.026h63.995c4.418,0,7.999-3.582,7.999-7.999V16.031h247.983V168.02h15.999V48.029h15.999
	v135.99h15.998V40.029c0-4.417-3.581-7.999-7.999-7.999h-23.998V8.032c0-4.418-3.582-8-8-8H80.026c-0.16,0-0.305,0.082-0.465,0.098
	c-0.727,0.035-1.445,0.18-2.133,0.422c-0.238,0.07-0.469,0.156-0.699,0.25c-0.875,0.383-1.676,0.926-2.359,1.598L2.375,74.394
	c-0.668,0.68-1.211,1.477-1.598,2.348c-0.113,0.246-0.176,0.496-0.266,0.75c-0.23,0.664-0.367,1.355-0.406,2.055
	C0.106,79.722,0,79.875,0,80.051v359.951c0,2.129,0.848,4.168,2.355,5.668C3.863,447.174,5.906,448.01,8.031,448.002z
	 M72.027,27.343v44.685H27.342L72.027,27.343z"/>
<path d="M248.014,176.02v-8h63.996v-39.997c-0.016-12.417-9.508-22.771-21.878-23.869c-0.703-0.09-1.41-0.133-2.121-0.129H64.027
	c-13.253,0-23.998,10.745-23.998,23.998v255.982c0,13.257,10.745,23.999,23.998,23.999h119.992v-15.999h-79.995v-23.999h63.996
	v-15.999h-63.996V328.01h55.996V312.01h-55.996v-23.998h57.598v-15.999h-57.598v-23.998h71.995v-15.999h-71.995v-23.998h103.993
	v-15.999H104.024V168.02h127.991v8H248.014z M288.667,120.083c4.148,0.316,7.352,3.781,7.344,7.94v23.999h-47.997v-32.053h39.661
	C288.003,120.028,288.335,120.063,288.667,120.083z M64.027,120.024h23.998v31.998H56.028v-23.999
	C56.028,123.606,59.61,120.024,64.027,120.024z M88.025,392.006H64.027c-4.417,0-7.999-3.582-7.999-8v-15.999h31.997V392.006z
	 M88.025,352.008H56.028V328.01h31.997V352.008z M88.025,312.01H56.028v-23.998h31.997V312.01z M88.025,272.013H56.028v-23.998
	h31.997V272.013z M88.025,232.016H56.028v-23.998h31.997V232.016z M88.025,192.019H56.028V168.02h31.997V192.019z M104.024,152.022
	v-31.998l127.991-0.039v32.037H104.024z"/>
<path d="M120.023,72.027h63.996v15.999h-63.996V72.027z"/>
<path d="M200.018,72.027h31.997v15.999h-31.997V72.027z"/>
<path d="M120.023,40.029h111.992v15.999H120.023V40.029z"/>
<path d="M413.658,378.35l-1.023,1.023c35.002-56.258,21.495-129.905-31.192-170.083c-52.688-40.181-127.284-33.716-172.277,14.925
	c-44.993,48.642-45.634,123.516-1.477,172.914c44.157,49.403,118.633,57.141,171.996,17.866l57.69,57.691
	c9.754,9.753,25.562,9.753,35.311,0c9.753-9.749,9.753-25.557,0-35.307L413.658,378.35z M192.018,312.01
	c0-61.851,50.141-111.992,111.992-111.992S416.002,250.16,416.002,312.01c0,61.852-50.141,111.992-111.992,111.992
	C242.186,423.936,192.084,373.835,192.018,312.01z M455.031,464.001c-2.379,0.008-4.66-0.938-6.343-2.621l-56.684-56.68
	c4.354-4.117,8.413-8.535,12.151-13.222l57.211,57.211c2.565,2.565,3.335,6.421,1.949,9.772
	C461.929,461.813,458.659,464.001,455.031,464.001z"/>
<path d="M304.01,216.017c-53.016,0-95.993,42.978-95.993,95.993c0,53.017,42.978,95.994,95.993,95.994s95.993-42.978,95.993-95.994
	C399.948,259.018,357.002,216.076,304.01,216.017z M272.012,312.01c0-17.671,14.327-31.998,31.998-31.998
	c17.675,0,31.998,14.327,31.998,31.998c0,17.675-14.323,31.998-31.998,31.998C286.339,344.009,272.012,329.685,272.012,312.01z
	 M262.708,336.338c-13.737-5.266-26.104-13.581-36.157-24.327c10.054-10.741,22.42-19.062,36.157-24.326
	C253.783,302.676,253.783,321.35,262.708,336.338z M345.312,287.684c13.741,5.265,26.104,13.585,36.158,24.326
	c-10.055,10.746-22.417,19.062-36.158,24.327C354.238,321.35,354.238,302.676,345.312,287.684z M304.01,232.016
	c35.576,0.043,66.854,23.553,76.796,57.711c-20.608-15.933-45.778-24.854-71.819-25.455c-3.293-0.344-6.609-0.344-9.902,0
	c-26.061,0.593-51.246,9.511-71.869,25.455C237.156,255.569,268.439,232.059,304.01,232.016z M304.01,392.006
	c-35.571-0.043-66.854-23.55-76.795-57.707c20.611,15.933,45.777,24.85,71.818,25.455c3.293,0.34,6.613,0.34,9.906,0
	c26.057-0.594,51.242-9.515,71.866-25.455C370.865,368.456,339.586,391.963,304.01,392.006z"/>
<path d="M320.009,312.01c0,8.836-7.164,15.999-15.999,15.999s-15.999-7.163-15.999-15.999c0-8.835,7.164-15.999,15.999-15.999
	S320.009,303.176,320.009,312.01z"/>
</svg>
