<?xml version="1.0" encoding="utf-8"?>
<!-- Generator: Adobe Illustrator 16.0.0, SVG Export Plug-In . SVG Version: 6.00 Build 0)  -->
<!DOCTYPE svg PUBLIC "-//W3C//DTD SVG 1.1//EN" "http://www.w3.org/Graphics/SVG/1.1/DTD/svg11.dtd">
<svg version="1.1" id="Capa_1" xmlns="http://www.w3.org/2000/svg" xmlns:xlink="http://www.w3.org/1999/xlink" x="0px" y="0px"
	 width="512px" height="512px" viewBox="0 0 512 512" enable-background="new 0 0 512 512" xml:space="preserve">
<g>
	<path d="M27.383,314.082c1.673,4.535,4.309,8.617,7.682,11.963c5.981,5.98,14.203,9.693,23.273,9.693
		c9.043,0,17.292-3.713,23.271-9.693c5.981-5.98,9.694-14.229,9.694-23.272v-18.34c-6.944,0.595-13.039-0.907-17.801-2.893
		c-0.426,2.069-0.907,4.082-1.531,6.066c-2.353,7.653-6.293,14.627-12.529,19.645c-6.32,5.103-14.711,8.051-25.823,7.482
		C31.635,314.648,29.565,314.423,27.383,314.082L27.383,314.082z M221.673,264.958h65.934v-20.722h-50.769
		c-4.167,0-7.966,1.729-10.715,4.479c-2.75,2.75-4.45,6.521-4.45,10.688V264.958z M287.606,279.953h-65.934v22.818
		c0,9.043,3.713,17.292,9.694,23.272c5.979,5.98,14.229,9.693,23.271,9.693c9.07,0,17.319-3.713,23.273-9.693
		c5.979-5.98,9.693-14.229,9.693-23.272L287.606,279.953L287.606,279.953z M493.12,330.013c4.025,2.126,7.568,5.018,10.488,8.447
		c5.244,6.18,8.392,14.145,8.392,22.789v50.57c0,4.14-3.346,7.483-7.483,7.483s-7.512-3.345-7.512-7.483v-50.57
		c0-4.987-1.815-9.58-4.819-13.123c-2.665-3.147-6.265-5.472-10.375-6.576c-7.908,5.781-17.633,9.184-28.12,9.184
		c-10.855,0-20.892-3.628-28.971-9.779c-1.53,0.171-3.005,0.597-4.422,1.248c-1.929,0.906-3.686,2.296-5.104,4.166l-40.28,53.35
		c-1.417,1.871-3.628,3.005-5.98,3.005h-51.619c-3.827,0-7.285,1.53-9.778,4.023c-2.495,2.523-4.055,5.981-4.055,9.78
		c0,3.826,1.56,7.285,4.055,9.779c2.493,2.494,5.951,4.054,9.778,4.054h61.653c2.468,0,4.366-0.255,6.72-1.446
		c4.365-2.183,8.447-8.814,11.423-12.783l26.675-35.291c2.494-3.316,7.171-3.97,10.487-1.475c3.288,2.494,3.94,7.199,1.446,10.488
		l-25.37,33.618v65.367h86.656v-43.06c0-4.139,3.372-7.482,7.512-7.482c4.139,0,7.483,3.345,7.483,7.482v50.57
		c0,4.139-3.346,7.482-7.483,7.482c-165.688,0-331.346,0-497.005,0c-4.138,0-7.512-3.345-7.512-7.482v-50.57
		c0-4.139,3.374-7.482,7.512-7.482c4.139,0,7.483,3.345,7.483,7.482v43.06h86.685v-65.367l-25.398-33.618
		c-2.493-3.289-1.842-7.994,1.476-10.488c3.288-2.495,7.993-1.843,10.488,1.475l26.077,34.525c2.382,3.146,4.764,6.32,7.144,9.496
		c1.36,1.785,3.033,3.146,4.876,4.053c2.069,1.05,3.997,1.446,6.265,1.446h62.107c3.799,0,7.257-1.56,9.779-4.054
		c2.494-2.494,4.024-5.953,4.024-9.779c0-3.799-1.53-7.257-4.024-9.78c-2.522-2.493-5.98-4.023-9.779-4.023h-51.647
		c-2.268,0-4.507-1.049-5.979-3.005l-40.281-53.35c-2.297-3.032-5.727-4.987-9.524-5.414c-8.051,6.123-18.085,9.779-28.941,9.779
		c-10.488,0-20.24-3.401-28.148-9.155c-4.024,1.05-7.597,3.346-10.262,6.406c-3.062,3.571-4.933,8.192-4.933,13.267v50.569
		c0,4.14-3.346,7.483-7.483,7.483s-7.512-3.346-7.512-7.483v-50.569c0-8.76,3.26-16.838,8.617-23.046
		c2.892-3.315,6.378-6.123,10.29-8.191c-5.585-8.022-8.532-17.49-8.532-27.241v-43.37c0-8.306,3.373-15.846,8.844-21.316
		c5.472-5.441,12.983-8.844,21.288-8.844H76.14c8.306,0,15.846,3.401,21.316,8.844c5.472,5.472,8.845,13.012,8.845,21.316v43.37
		c0,9.609-2.863,18.596-7.769,26.107c4.055,2.041,7.483,4.847,10.233,8.476l38.014,50.343h30.019v-30.415
		c0-8.617,4.563-16.413,11.962-23.018c5.727-5.103,13.267-9.553,21.601-13.067c-2.381-5.697-3.684-11.906-3.684-18.426V272.47
		v-13.068c0-8.306,3.401-15.846,8.845-21.316c5.472-5.441,13.011-8.844,21.316-8.844h58.279c4.141,0,7.514,3.373,7.514,7.512v35.718
		v30.302c0,6.151-1.19,12.048-3.316,17.49c8.957,3.515,17.064,8.05,23.188,13.322c7.851,6.746,12.698,14.797,12.698,23.697v30.415
		h30.019l38.014-50.343c2.807-3.686,6.321-6.52,10.262-8.447c-4.933-7.54-7.796-16.525-7.796-26.136v-43.37
		c0-8.306,3.402-15.846,8.846-21.316c5.471-5.441,13.011-8.844,21.315-8.844h35.633c8.306,0,15.847,3.401,21.316,8.844
		c5.442,5.472,8.844,13.012,8.844,21.316v43.37C501.653,312.522,498.677,321.99,493.12,330.013z M484.616,314.082
		c-2.153,0.341-4.252,0.566-6.235,0.651c-11.084,0.567-19.476-2.381-25.796-7.483c-6.266-5.017-10.205-11.989-12.559-19.644
		c-0.596-1.984-1.104-3.997-1.503-6.066c-4.79,1.984-10.855,3.486-17.829,2.893v18.34c0,9.043,3.713,17.292,9.694,23.272
		c5.979,5.98,14.229,9.693,23.301,9.693c9.042,0,17.292-3.713,23.273-9.693C480.309,322.699,482.944,318.617,484.616,314.082
		L484.616,314.082z M420.695,269.408c10.006,1.417,17.319-4.394,18.623-5.528c1.476-1.247,2.863-2.012,4.876-2.098
		c4.139-0.198,7.625,2.977,7.823,7.115c0.256,4.876,0.935,9.809,2.324,14.314c1.53,5.018,3.939,9.439,7.598,12.388
		c3.6,2.892,8.675,4.536,15.733,4.194c2.721-0.142,5.696-0.565,8.984-1.304V259.4c0-4.167-1.729-7.938-4.479-10.688
		c-2.749-2.749-6.521-4.479-10.687-4.479H435.86c-4.167,0-7.938,1.729-10.687,4.479c-2.75,2.75-4.479,6.521-4.479,10.688V269.408z
		 M91.305,269.408v-10.007c0-4.167-1.7-7.938-4.45-10.688c-2.749-2.749-6.548-4.479-10.715-4.479H40.507
		c-4.138,0-7.938,1.729-10.688,4.479c-2.749,2.75-4.449,6.521-4.449,10.688v39.09c3.26,0.737,6.235,1.162,8.958,1.304
		c7.059,0.342,12.133-1.304,15.731-4.194c3.657-2.947,6.066-7.37,7.626-12.388c1.39-4.507,2.069-9.438,2.296-14.314
		c0.198-4.14,3.713-7.313,7.823-7.115c1.928,0.086,3.401,0.794,4.819,2.041C73.674,264.759,81.101,270.853,91.305,269.408z
		 M218.385,334.095c-7.825,3.033-14.741,6.888-19.674,11.311c-4.28,3.798-6.917,7.88-6.917,11.877v30.415h2.92
		c7.938,0,15.166,3.231,20.382,8.447s8.447,12.416,8.447,20.382c0,5.018-1.305,9.723-3.543,13.833h72
		c-2.239-4.11-3.516-8.815-3.516-13.833c0-7.966,3.231-15.166,8.448-20.382c5.216-5.216,12.415-8.447,20.381-8.447h2.893v-30.415
		c0-4.139-2.835-8.391-7.428-12.331c-5.386-4.62-12.869-8.616-21.203-11.649c-0.965,1.162-1.984,2.296-3.033,3.345
		c-8.702,8.702-20.693,14.088-33.902,14.088c-13.182,0-25.2-5.386-33.874-14.088C219.943,335.823,219.149,334.974,218.385,334.095
		L218.385,334.095z M62.505,63.697c-4.14,0-7.483-3.373-7.483-7.512c0-4.14,3.346-7.483,7.483-7.483h138.842
		c4.139,0,7.484,3.345,7.484,7.483s-3.347,7.512-7.484,7.512H62.505z M62.505,142.614c-4.14,0-7.483-3.373-7.483-7.512
		c0-4.14,3.346-7.513,7.483-7.513h69.422c4.139,0,7.512,3.373,7.512,7.513c0,4.139-3.373,7.512-7.512,7.512H62.505z M62.505,103.156
		c-4.14,0-7.483-3.374-7.483-7.512c0-4.14,3.346-7.483,7.483-7.483h138.842c4.139,0,7.484,3.345,7.484,7.483
		c0,4.138-3.347,7.512-7.484,7.512H62.505z M209.029,183.121c1.05,2.92,2.722,5.527,4.849,7.653
		c3.799,3.827,9.07,6.208,14.938,6.208h44.079c4.14,0,7.483,3.345,7.483,7.512c0,4.139-3.346,7.483-7.483,7.483h-44.079
		c-10.006,0-19.021-4.081-25.541-10.658c-4.875-4.903-8.334-11.196-9.808-18.198H88.896L54.937,217.08
		c-1.359,1.361-3.23,2.211-5.329,2.211c-4.139,0-7.512-3.345-7.512-7.482v-29.311c-9.525-1.588-18.058-6.15-24.604-12.728
		C9.242,161.549,4.14,150.182,4.14,137.653V53.635c0-12.501,5.104-23.867,13.352-32.115c8.22-8.222,19.587-13.353,32.116-13.353
		h164.64c12.527,0,23.896,5.131,32.115,13.353c8.249,8.248,13.352,19.614,13.352,32.115v13.891h127.392
		c9.949,0,18.964,4.054,25.512,10.602s10.603,15.563,10.603,25.513v72.227c0,9.95-4.055,18.964-10.603,25.512
		c-4.848,4.849-11.083,8.334-18.027,9.81v29.479c0,1.899-0.709,3.826-2.184,5.301c-2.92,2.919-7.682,2.919-10.603,0l-33.987-33.987
		h-40.961c-4.139,0-7.512-3.346-7.512-7.483c0-4.167,3.373-7.512,7.512-7.512h44.079c2.098,0,3.968,0.851,5.329,2.239l23.329,23.328
		v-18.057c0-4.167,3.373-7.512,7.513-7.512c5.782,0,11.083-2.381,14.91-6.208c3.827-3.826,6.208-9.1,6.208-14.91v-72.227
		c0-5.812-2.381-11.083-6.208-14.91s-9.128-6.208-14.91-6.208H259.713v55.134c0,12.529-5.103,23.896-13.352,32.117
		c-8.221,8.248-19.588,13.351-32.115,13.351h-5.218V183.121z M85.777,168.126h128.47c8.391,0,15.986-3.43,21.515-8.957
		c5.527-5.527,8.957-13.152,8.957-21.516V53.635c0-8.361-3.43-15.986-8.957-21.515s-13.124-8.958-21.515-8.958H49.607
		c-8.391,0-15.987,3.43-21.516,8.958c-5.527,5.527-8.958,13.152-8.958,21.515v84.02c0,8.362,3.431,15.987,8.958,21.516
		c5.527,5.527,13.125,8.957,21.516,8.957c4.14,0,7.483,3.373,7.483,7.513v18.057l23.386-23.357
		C81.951,168.863,83.85,168.126,85.777,168.126L85.777,168.126z M395.353,445.354H116.676v43.483h278.678L395.353,445.354
		L395.353,445.354z"/>
</g>
</svg>
