<?xml version="1.0" encoding="utf-8"?>
<!-- Generator: Adobe Illustrator 16.0.0, SVG Export Plug-In . SVG Version: 6.00 Build 0)  -->
<!DOCTYPE svg PUBLIC "-//W3C//DTD SVG 1.1//EN" "http://www.w3.org/Graphics/SVG/1.1/DTD/svg11.dtd">
<svg version="1.1" id="Capa_1" xmlns="http://www.w3.org/2000/svg" xmlns:xlink="http://www.w3.org/1999/xlink" x="0px" y="0px"
	 width="841.889px" height="595.281px" viewBox="0 0 841.889 595.281" enable-background="new 0 0 841.889 595.281"
	 xml:space="preserve">
<g>
	<g>
		<path d="M678.889,19.844H163c-21.887,0-39.695,17.808-39.695,39.694V367.09c0,5.476,4.444,9.921,9.921,9.921h575.437
			c5.477,0,9.921-4.445,9.921-9.921V59.538C718.584,37.651,700.777,19.844,678.889,19.844z M698.741,357.169H143.148V59.538
			c0-10.954,8.899-19.853,19.853-19.853h515.889c10.954,0,19.853,8.898,19.853,19.853V357.169z"/>
	</g>
</g>
<g>
	<g>
		<path d="M708.663,357.169H133.226c-5.477,0-9.921,4.444-9.921,9.921v49.597c0,21.887,17.809,39.695,39.695,39.695h515.889
			c21.888,0,39.695-17.809,39.695-39.695V367.09C718.584,361.613,714.14,357.169,708.663,357.169z M698.741,416.686
			c0,10.953-8.898,19.853-19.853,19.853H163c-10.953,0-19.853-8.899-19.853-19.853V377.01h555.595L698.741,416.686L698.741,416.686z
			"/>
	</g>
</g>
<g>
	<g>
		<path d="M450.708,396.853h-59.527c-5.477,0-9.921,4.445-9.921,9.921c0,5.477,4.444,9.921,9.921,9.921h59.527
			c5.477,0,9.921-4.444,9.921-9.921C460.629,401.299,456.185,396.853,450.708,396.853z"/>
	</g>
</g>
<g>
	<g>
		<path d="M549.922,515.91H291.968c-16.41,0-29.765,13.354-29.765,29.764c0,16.409,13.354,29.764,29.765,29.764h257.955
			c16.409,0,29.764-13.354,29.764-29.764C579.686,529.263,566.331,515.91,549.922,515.91z M549.922,555.595H291.968
			c-5.467,0-9.921-4.454-9.921-9.921s4.454-9.921,9.921-9.921h257.955c5.467,0,9.921,4.454,9.921,9.921
			C559.844,551.14,555.389,555.595,549.922,555.595z"/>
	</g>
</g>
<g>
	<g>
		<path d="M530.079,515.91c-32.919,0-49.606-23.365-49.606-69.449c0-5.477-4.445-9.921-9.921-9.921h-99.213
			c-5.477,0-9.921,4.444-9.921,9.921c0,46.084-16.688,69.449-49.607,69.449c-5.476,0-9.921,4.444-9.921,9.921
			c0,5.476,4.445,9.921,9.921,9.921h218.269c5.477,0,9.921-4.445,9.921-9.921C540,520.354,535.556,515.91,530.079,515.91z
			 M360.137,515.91c12.223-13.532,19.405-33.684,20.854-59.528h79.916c1.438,25.845,8.632,45.996,20.854,59.528H360.137z"/>
	</g>
</g>
<g>
	<g>
		<path d="M668.978,128.977H470.552c-5.477,0-9.921,4.444-9.921,9.921v138.898c0,5.477,4.444,9.922,9.921,9.922h198.427
			c5.477,0,9.921-4.445,9.921-9.922V138.899C678.9,133.422,674.455,128.977,668.978,128.977z M659.057,267.876H480.473V148.82
			h178.584V267.876z"/>
	</g>
</g>
<g>
	<g>
		<path d="M569.765,168.663c-21.888,0-39.686,17.8-39.686,39.686s17.8,39.685,39.686,39.685c21.887,0,39.685-17.799,39.685-39.685
			S591.652,168.663,569.765,168.663z M569.765,228.191c-10.943,0-19.843-8.899-19.843-19.843s8.898-19.844,19.843-19.844
			c10.942,0,19.843,8.899,19.843,19.844C589.608,219.291,580.707,228.191,569.765,228.191z"/>
	</g>
</g>
<g>
	<g>
		<path d="M331.653,248.033H172.911c-5.476,0-9.921,4.445-9.921,9.921v29.765c0,5.476,4.445,9.921,9.921,9.921h158.741
			c5.477,0,9.921-4.445,9.921-9.921v-29.765C341.573,252.478,337.129,248.033,331.653,248.033z M321.732,277.797H182.832v-9.921
			h138.899V277.797z"/>
	</g>
</g>
<g>
	<g>
		<path d="M336.921,160.249l-79.371-49.606c-3.225-2.005-7.303-2.005-10.517,0l-79.37,49.606c-3.76,2.352-5.506,6.896-4.285,11.151
			c1.221,4.257,5.109,7.183,9.535,7.183h158.739c4.425,0,8.314-2.926,9.555-7.183C342.427,167.144,340.671,162.601,336.921,160.249z
			 M207.507,158.741l44.774-27.988l44.775,27.988H207.507z"/>
	</g>
</g>
<g>
	<g>
		<path d="M192.753,158.741c-5.476,0-9.921,4.445-9.921,9.921v89.292c0,5.477,4.445,9.921,9.921,9.921
			c5.477,0,9.922-4.444,9.922-9.921v-89.292C202.676,163.186,198.231,158.741,192.753,158.741z"/>
	</g>
</g>
<g>
	<g>
		<path d="M311.81,158.741c-5.477,0-9.921,4.445-9.921,9.921v89.292c0,5.477,4.444,9.921,9.921,9.921
			c5.476,0,9.921-4.444,9.921-9.921v-89.292C321.732,163.186,317.287,158.741,311.81,158.741z"/>
	</g>
</g>
<g>
	<g>
		<path d="M272.124,158.741c-5.476,0-9.921,4.445-9.921,9.921v89.292c0,5.477,4.445,9.921,9.921,9.921
			c5.477,0,9.922-4.444,9.922-9.921v-89.292C282.046,163.186,277.601,158.741,272.124,158.741z"/>
	</g>
</g>
<g>
	<g>
		<path d="M232.44,158.741c-5.476,0-9.921,4.445-9.921,9.921v89.292c0,5.477,4.445,9.921,9.921,9.921
			c5.477,0,9.921-4.444,9.921-9.921v-89.292C242.361,163.186,237.916,158.741,232.44,158.741z"/>
	</g>
</g>
<g>
	<g>
		<path d="M668.978,128.977H619.37c-5.476,0-9.921,4.444-9.921,9.921c0,32.83,26.698,59.527,59.528,59.527
			c5.476,0,9.921-4.444,9.921-9.921v-49.606C678.9,133.422,674.455,128.977,668.978,128.977z M659.057,177.335
			c-13.93-3.603-24.912-14.585-28.515-28.515h28.515V177.335z"/>
	</g>
</g>
<g>
	<g>
		<path d="M668.978,218.269c-32.83,0-59.528,26.698-59.528,59.527c0,5.477,4.445,9.922,9.921,9.922h49.607
			c5.476,0,9.921-4.445,9.921-9.922V228.19C678.9,222.714,674.455,218.269,668.978,218.269z M659.057,267.876h-28.515
			c3.603-13.93,14.585-24.912,28.515-28.514V267.876z"/>
	</g>
</g>
<g>
	<g>
		<path d="M470.552,218.269c-5.477,0-9.921,4.444-9.921,9.921v49.606c0,5.477,4.444,9.922,9.921,9.922h49.606
			c5.477,0,9.921-4.445,9.921-9.922C530.079,244.969,503.38,218.269,470.552,218.269z M480.473,267.876v-28.514
			c13.93,3.602,24.912,14.584,28.514,28.514H480.473z"/>
	</g>
</g>
<g>
	<g>
		<path d="M520.157,128.977H470.55c-5.476,0-9.921,4.444-9.921,9.921v49.606c0,5.477,4.445,9.921,9.921,9.921
			c32.83,0,59.528-26.697,59.528-59.527C530.079,133.422,525.635,128.977,520.157,128.977z M480.473,177.335V148.82h28.514
			C505.385,162.75,494.403,173.732,480.473,177.335z"/>
	</g>
</g>
<g>
	<g>
		<path d="M430.865,198.427h-69.448c-5.477,0-9.922,4.444-9.922,9.921c0,5.476,4.445,9.921,9.922,9.921h69.448
			c5.477,0,9.921-4.445,9.921-9.921C440.787,202.872,436.343,198.427,430.865,198.427z"/>
	</g>
</g>
<g>
	<g>
		<path d="M437.88,201.334l-29.765-29.764c-3.88-3.88-10.149-3.88-14.028,0c-3.88,3.878-3.88,10.149,0,14.028l29.764,29.764
			c1.935,1.935,4.476,2.907,7.015,2.907c2.54,0,5.08-0.973,7.015-2.907C441.76,211.484,441.76,205.213,437.88,201.334z"/>
	</g>
</g>
<g>
	<g>
		<path d="M437.88,201.334c-3.88-3.88-10.15-3.88-14.029,0l-29.764,29.764c-3.88,3.88-3.88,10.15,0,14.029
			c1.935,1.935,4.476,2.906,7.015,2.906c2.54,0,5.079-0.972,7.014-2.906l29.765-29.765
			C441.76,211.484,441.76,205.213,437.88,201.334z"/>
	</g>
</g>
</svg>
