<?xml version="1.0" encoding="utf-8"?>
<!-- Generator: Adobe Illustrator 16.0.0, SVG Export Plug-In . SVG Version: 6.00 Build 0)  -->
<!DOCTYPE svg PUBLIC "-//W3C//DTD SVG 1.1//EN" "http://www.w3.org/Graphics/SVG/1.1/DTD/svg11.dtd">
<svg version="1.1" id="Capa_1" xmlns="http://www.w3.org/2000/svg" xmlns:xlink="http://www.w3.org/1999/xlink" x="0px" y="0px"
	 width="841.889px" height="595.281px" viewBox="0 0 841.889 595.281" enable-background="new 0 0 841.889 595.281"
	 xml:space="preserve">
<g>
	<g>
		<path d="M234.92,355.773c-6.418,0-11.627,5.209-11.627,11.627s5.209,11.626,11.627,11.626c6.417,0,11.626-5.208,11.626-11.626
			S241.337,355.773,234.92,355.773z"/>
	</g>
</g>
<g>
	<g>
		<path d="M490.704,309.267h-11.627V262.76h11.627c6.41,0,11.626,5.216,11.626,11.627c0,6.42,5.205,11.626,11.627,11.626
			c6.421,0,11.626-5.206,11.626-11.626c0-19.233-15.646-34.88-34.879-34.88h-11.627v-11.627c0-6.42-5.205-11.626-11.627-11.626
			c-6.421,0-11.626,5.206-11.626,11.626v11.627h-11.627c-19.232,0-34.88,15.646-34.88,34.88v23.253
			c0,19.232,15.647,34.88,34.88,34.88h11.627v46.506h-11.627c-6.411,0-11.626-5.216-11.626-11.626
			c0-6.421-5.206-11.627-11.627-11.627s-11.627,5.206-11.627,11.627c0,19.232,15.647,34.879,34.88,34.879h11.627v11.627
			c0,6.42,5.205,11.627,11.626,11.627c6.422,0,11.627-5.207,11.627-11.627v-11.627h11.627c19.232,0,34.879-15.646,34.879-34.879
			v-23.254C525.583,324.914,509.937,309.267,490.704,309.267z M455.824,309.267h-11.627c-6.411,0-11.626-5.216-11.626-11.627
			v-23.253c0-6.411,5.215-11.627,11.626-11.627h11.627V309.267z M502.33,367.4c0,6.41-5.216,11.626-11.626,11.626h-11.627V332.52
			h11.627c6.41,0,11.626,5.216,11.626,11.626V367.4z"/>
	</g>
</g>
<g>
	<g>
		<path d="M663.877,495.839c0.03-0.062,0.05-0.127,0.079-0.188c0.157-0.328,0.299-0.664,0.424-1.007
			c0.038-0.1,0.076-0.199,0.109-0.3c0.144-0.425,0.268-0.855,0.362-1.301c0.001-0.004,0.002-0.008,0.003-0.012
			c0.092-0.441,0.154-0.892,0.195-1.351c0.012-0.131,0.013-0.263,0.02-0.394c0.012-0.215,0.033-0.428,0.033-0.646V34.88
			c0-19.232-15.647-34.88-34.88-34.88h-372.05c-44.876,0-81.386,36.51-81.386,81.387v455.75c0,0.001,0,0.002,0,0.003
			c0,0.003,0,0.005,0,0.008c0,32.055,26.078,58.133,58.133,58.133h418.556c4.028,0,7.771-2.085,9.89-5.512s2.312-7.706,0.512-11.312
			l-7.654-15.318c-8.142-16.274-8.142-35.708,0.003-51.989L663.877,495.839z M200.04,81.386c0-32.055,26.078-58.134,58.133-58.134
			h9.685v455.762H234.92c-12.749,0-24.868,4.088-34.88,11.632V81.386z M634.689,572.027H234.92c-19.233,0-34.88-15.646-34.88-34.891
			c0-9.304,3.63-18.057,10.221-24.647s15.35-10.221,24.659-10.221h399.769C624.273,524.235,624.274,550.066,634.689,572.027z
			 M641.85,479.014H291.111V23.253h339.112c6.411,0,11.627,5.216,11.627,11.627V479.014z"/>
	</g>
</g>
<g>
	<g>
		<path d="M234.92,119.754c-6.422,0-11.627,5.206-11.627,11.627v189.513c0,6.421,5.205,11.627,11.627,11.627
			c6.421,0,11.626-5.206,11.626-11.627V131.381C246.546,124.96,241.341,119.754,234.92,119.754z"/>
	</g>
</g>
<g>
	<g>
		<path d="M583.717,69.76H351.186c-6.422,0-11.627,5.206-11.627,11.627v96.5c0,6.42,5.205,11.627,11.627,11.627h232.531
			c6.421,0,11.626-5.207,11.626-11.627v-96.5C595.343,74.966,590.138,69.76,583.717,69.76z M572.09,166.26H362.812V93.012H572.09
			V166.26z"/>
	</g>
</g>
<g>
	<g>
		<path d="M537.21,119.754H397.692c-6.421,0-11.627,5.206-11.627,11.627c0,6.42,5.206,11.626,11.627,11.626H537.21
			c6.421,0,11.627-5.206,11.627-11.626C548.837,124.96,543.631,119.754,537.21,119.754z"/>
	</g>
</g>
</svg>
