<?xml version="1.0" encoding="utf-8"?>
<!-- Generator: Adobe Illustrator 16.0.0, SVG Export Plug-In . SVG Version: 6.00 Build 0)  -->
<!DOCTYPE svg PUBLIC "-//W3C//DTD SVG 1.1//EN" "http://www.w3.org/Graphics/SVG/1.1/DTD/svg11.dtd">
<svg version="1.1" id="Слой_1" xmlns="http://www.w3.org/2000/svg" xmlns:xlink="http://www.w3.org/1999/xlink" x="0px" y="0px"
	 width="841.889px" height="595.281px" viewBox="0 0 841.889 595.281" enable-background="new 0 0 841.889 595.281"
	 xml:space="preserve">
<g>
	<path fill="#1D1D1B" d="M695.545,177.127c0.012-0.252,0.145-0.463,0.145-0.716c0-0.827-0.358-1.537-0.472-2.334
		c-0.167-1.197-0.292-2.36-0.705-3.495c-0.386-1.054-0.972-1.942-1.546-2.888c-0.563-0.938-1.069-1.864-1.813-2.689
		c-0.812-0.899-1.786-1.555-2.77-2.268c-0.649-0.473-1.109-1.119-1.841-1.508L428.971,24.885c-0.497-0.262-1.042-0.247-1.551-0.456
		c-1.073-0.442-2.133-0.739-3.272-0.96c-1.086-0.206-2.123-0.349-3.21-0.345c-1.085-0.004-2.119,0.137-3.201,0.344
		c-1.15,0.221-2.22,0.521-3.3,0.97c-0.499,0.205-1.032,0.191-1.519,0.447L155.345,161.229c-0.731,0.389-1.19,1.035-1.841,1.508
		c-0.983,0.713-1.958,1.368-2.77,2.268c-0.743,0.825-1.249,1.751-1.813,2.689c-0.574,0.945-1.16,1.834-1.546,2.888
		c-0.413,1.135-0.537,2.298-0.705,3.495c-0.113,0.797-0.471,1.507-0.471,2.334c0,0.253,0.133,0.464,0.144,0.716
		c0.046,1.136,0.399,2.22,0.677,3.347c0.28,1.12,0.474,2.24,0.963,3.262c0.107,0.228,0.088,0.478,0.206,0.702
		c0.219,0.413,0.665,0.569,0.911,0.956c1.218,1.923,2.739,3.515,4.597,4.821c0.619,0.434,1.145,0.875,1.811,1.222
		c2.386,1.256,4.98,2.146,7.863,2.146h515.146c2.883,0,5.478-0.891,7.863-2.146c0.667-0.347,1.192-0.788,1.811-1.222
		c1.857-1.307,3.38-2.898,4.597-4.821c0.246-0.387,0.693-0.543,0.911-0.956c0.119-0.225,0.1-0.475,0.207-0.702
		c0.489-1.021,0.682-2.142,0.963-3.262C695.146,179.346,695.499,178.262,695.545,177.127z M420.945,59.498l188.427,99.741H232.518
		L420.945,59.498z"/>
	<path fill="#1D1D1B" d="M359.235,445.544c0,9.48,7.691,17.172,17.172,17.172h89.077c9.479,0,17.171-7.691,17.171-17.172
		c0-7.339-4.654-13.496-11.135-15.951v-184.62c6.48-2.455,11.135-8.612,11.135-15.951c0-9.48-7.691-17.172-17.171-17.172h-89.077
		c-9.48,0-17.172,7.691-17.172,17.172c0,7.339,4.654,13.496,11.135,15.951v184.62C363.889,432.048,359.235,438.205,359.235,445.544z
		 M404.712,428.372v-182.18h32.465v182.18H404.712z"/>
	<path fill="#1D1D1B" d="M210.773,445.544c0,9.48,7.691,17.172,17.171,17.172h89.077c9.48,0,17.172-7.691,17.172-17.172
		c0-7.339-4.654-13.496-11.135-15.951v-184.62c6.48-2.455,11.135-8.612,11.135-15.951c0-9.48-7.691-17.172-17.172-17.172h-89.077
		c-9.479,0-17.171,7.691-17.171,17.172c0,7.339,4.654,13.496,11.134,15.951v184.62C215.427,432.048,210.773,438.205,210.773,445.544
		z M256.25,428.372v-182.18h32.465v182.18H256.25z"/>
	<path fill="#1D1D1B" d="M507.697,445.544c0,9.48,7.691,17.172,17.172,17.172h89.077c9.48,0,17.172-7.691,17.172-17.172
		c0-7.339-4.655-13.496-11.135-15.951v-184.62c6.479-2.455,11.135-8.612,11.135-15.951c0-9.48-7.691-17.172-17.172-17.172h-89.077
		c-9.48,0-17.172,7.691-17.172,17.172c0,7.339,4.655,13.496,11.135,15.951v184.62C512.352,432.048,507.697,438.205,507.697,445.544z
		 M553.174,428.372v-182.18h32.465v182.18H553.174z"/>
	<path fill="#1D1D1B" d="M168.715,500.188c0,9.48,7.691,17.172,17.172,17.172h470.115c9.48,0,17.172-7.691,17.172-17.172
		c0-9.479-7.691-17.171-17.172-17.171H185.887C176.406,483.017,168.715,490.709,168.715,500.188z"/>
	<path fill="#1D1D1B" d="M674.561,538.042H167.329c-9.48,0-17.172,7.691-17.172,17.172s7.691,17.172,17.172,17.172h507.231
		c9.479,0,17.171-7.691,17.171-17.172S684.04,538.042,674.561,538.042z"/>
</g>
</svg>
