<?xml version="1.0" encoding="utf-8"?>
<!-- Generator: Adobe Illustrator 16.0.0, SVG Export Plug-In . SVG Version: 6.00 Build 0)  -->
<!DOCTYPE svg PUBLIC "-//W3C//DTD SVG 1.1//EN" "http://www.w3.org/Graphics/SVG/1.1/DTD/svg11.dtd">
<svg version="1.1" id="Layer_1" xmlns="http://www.w3.org/2000/svg" xmlns:xlink="http://www.w3.org/1999/xlink" x="0px" y="0px"
	 width="512px" height="512px" viewBox="0 0 512 512" enable-background="new 0 0 512 512" xml:space="preserve">
<path d="M280,384c0-13.254-10.745-24-24-24s-24,10.746-24,24c0,13.255,10.745,24,24,24S280,397.255,280,384z M256,392
	c-4.419,0-8-3.581-8-8c0-4.418,3.581-8,8-8c4.418,0,8,3.582,8,8C264,388.419,260.418,392,256,392z"/>
<path d="M472,16H40c-13.255,0-24,10.745-24,24v360c0,13.255,10.745,24,24,24h159.352l-19.2,24H112c-4.419,0-8,3.582-8,8v32
	c0,4.419,3.581,8,8,8h288c4.418,0,8-3.581,8-8v-32c0-4.418-3.582-8-8-8h-68.152l-19.2-24H472c13.254,0,24-10.745,24-24V40
	C496,26.745,485.254,16,472,16z M392,464v16H120v-16H392z M200.648,448l19.2-24h72.32l19.2,24H200.648z M480,400
	c0,4.419-3.582,8-8,8H40c-4.419,0-8-3.581-8-8v-40h448V400z M96,344V96h288v248H96z M480,344h-80V80H80v264H32V64h448V344z M480,48
	H32v-8c0-4.418,3.581-8,8-8h432c4.418,0,8,3.582,8,8V48z"/>
<path d="M48,80h16v64H48V80z"/>
<path d="M48,160h16v16H48V160z"/>
<path d="M464,320v-64h-16v56h-24v16h32C460.418,328,464,324.419,464,320z"/>
<path d="M192,128h80v16h-80V128z"/>
<path d="M192,160h48v16h-48V160z"/>
<path d="M288,128h80v16h-80V128z"/>
<path d="M192,208h104v16H192V208z"/>
<path d="M256,160h112v16H256V160z"/>
<path d="M312,208h56v16h-56V208z"/>
<path d="M192,256h176v16H192V256z"/>
<path d="M192,288h104v16H192V288z"/>
<path d="M312,288h56v16h-56V288z"/>
<path d="M136,156.688l-10.345-10.344l-11.312,11.312l16,16c3.124,3.123,8.188,3.123,11.312,0l40-40l-11.312-11.312L136,156.688z"/>
<path d="M136,220.688l-10.345-10.344l-11.312,11.312l16,16c3.124,3.123,8.188,3.123,11.312,0l40-40l-11.312-11.312L136,220.688z"/>
<path d="M136,292.688l-10.345-10.344l-11.312,11.312l16,16c3.124,3.123,8.188,3.123,11.312,0l40-40l-11.312-11.312L136,292.688z"/>
</svg>
