<?xml version="1.0" encoding="utf-8"?>
<!-- Generator: Adobe Illustrator 16.0.0, SVG Export Plug-In . SVG Version: 6.00 Build 0)  -->
<!DOCTYPE svg PUBLIC "-//W3C//DTD SVG 1.1//EN" "http://www.w3.org/Graphics/SVG/1.1/DTD/svg11.dtd">
<svg version="1.1" id="Capa_1" xmlns="http://www.w3.org/2000/svg" xmlns:xlink="http://www.w3.org/1999/xlink" x="0px" y="0px"
	 width="512px" height="512px" viewBox="0 0 512 512" enable-background="new 0 0 512 512" xml:space="preserve">
<g>
	<path d="M471.811,57.007h-51.854v-18.89c0-8.284-6.716-15-15-15c-8.283,0-14.999,6.716-14.999,15v18.89H122.042v-18.89
		c0-8.284-6.716-15-15-15s-15,6.716-15,15v18.89H40.189C18.029,57.007,0,75.036,0,97.196v351.497
		c0,22.16,18.028,40.189,40.188,40.189H471.81c22.16,0,40.188-18.029,40.188-40.189V97.196
		C512,75.036,493.971,57.007,471.811,57.007L471.811,57.007z M482,448.693c0,5.523-4.666,10.189-10.189,10.189H40.189
		c-5.522,0-10.188-4.666-10.188-10.189V97.196c0-5.523,4.666-10.189,10.188-10.189h51.854v18.351c0,8.284,6.716,15,15,15
		s15-6.716,15-15V87.007h267.915v18.351c0,8.284,6.716,15,14.999,15c8.284,0,15-6.716,15-15V87.007h51.854
		c5.523,0,10.189,4.666,10.189,10.189V448.693z"/>
	<path d="M425.644,170.836c-5.857-5.856-15.355-5.856-21.213,0l-14.612,14.612l-14.611-14.612c-5.857-5.856-15.355-5.856-21.213,0
		c-5.858,5.857-5.858,15.355,0,21.213l14.611,14.612l-14.611,14.612c-5.858,5.856-5.858,15.354,0,21.213
		c2.929,2.929,6.768,4.394,10.605,4.394s7.678-1.465,10.606-4.394l14.611-14.612l14.612,14.612
		c2.929,2.929,6.768,4.394,10.605,4.394s7.679-1.465,10.606-4.394c5.857-5.857,5.857-15.355,0-21.213l-14.612-14.612l14.612-14.612
		C431.501,186.191,431.501,176.693,425.644,170.836L425.644,170.836z"/>
	<path d="M291.825,170.836c-5.856-5.857-15.354-5.857-21.214,0L256,185.448l-14.613-14.613c-5.857-5.856-15.354-5.856-21.213,0
		c-5.858,5.857-5.858,15.355,0,21.213l14.613,14.612l-14.613,14.612c-5.858,5.856-5.858,15.354,0,21.213
		c2.929,2.93,6.768,4.394,10.605,4.394c3.839,0,7.679-1.465,10.606-4.394L256,227.874l14.612,14.613
		c2.93,2.929,6.769,4.394,10.606,4.394s7.678-1.465,10.606-4.394c5.857-5.857,5.857-15.355,0-21.213l-14.613-14.612l14.613-14.612
		C297.684,186.191,297.684,176.693,291.825,170.836L291.825,170.836z"/>
	<path d="M158.006,170.836c-5.857-5.856-15.355-5.856-21.213,0l-14.612,14.612l-14.612-14.612c-5.856-5.856-15.354-5.856-21.213,0
		c-5.857,5.857-5.857,15.355,0,21.213l14.612,14.612l-14.612,14.612c-5.857,5.856-5.857,15.354,0,21.213
		c2.93,2.929,6.769,4.394,10.606,4.394s7.678-1.465,10.605-4.394l14.612-14.612l14.612,14.612c2.929,2.929,6.768,4.394,10.605,4.394
		s7.679-1.465,10.606-4.394c5.857-5.857,5.857-15.355,0-21.213l-14.612-14.612l14.612-14.612
		C163.864,186.191,163.864,176.693,158.006,170.836L158.006,170.836z"/>
	<path d="M425.644,320.943c-5.857-5.856-15.355-5.856-21.213,0l-14.612,14.613l-14.611-14.613c-5.856-5.857-15.354-5.857-21.213,0
		s-5.858,15.355,0,21.213l14.612,14.613l-14.612,14.613c-5.858,5.856-5.858,15.354,0,21.213c2.929,2.929,6.768,4.394,10.605,4.394
		s7.678-1.465,10.606-4.394l14.611-14.613l14.612,14.613c2.929,2.93,6.768,4.394,10.605,4.394s7.679-1.465,10.606-4.394
		c5.857-5.857,5.857-15.355,0-21.213l-14.613-14.613l14.613-14.613C431.501,336.3,431.501,326.802,425.644,320.943L425.644,320.943z
		"/>
	<path d="M291.825,320.943c-5.857-5.856-15.355-5.856-21.214,0L256,335.556l-14.613-14.613c-5.857-5.856-15.354-5.856-21.213,0
		c-5.858,5.857-5.858,15.355,0,21.213l14.613,14.613l-14.613,14.613c-5.858,5.856-5.858,15.354,0,21.213
		c2.929,2.929,6.768,4.394,10.605,4.394c3.839,0,7.679-1.465,10.606-4.394L256,377.982l14.612,14.613
		c2.93,2.929,6.769,4.394,10.606,4.394s7.678-1.465,10.606-4.394c5.857-5.857,5.857-15.355,0-21.213l-14.613-14.613l14.613-14.613
		C297.684,336.3,297.684,326.802,291.825,320.943L291.825,320.943z"/>
	<path d="M158.006,320.943c-5.857-5.856-15.355-5.856-21.213,0l-14.612,14.613l-14.612-14.613c-5.855-5.857-15.354-5.857-21.213,0
		c-5.857,5.857-5.857,15.355,0,21.213l14.613,14.613l-14.613,14.613c-5.857,5.856-5.857,15.354,0,21.213
		c2.93,2.929,6.769,4.394,10.606,4.394s7.678-1.465,10.605-4.394l14.612-14.613l14.612,14.613c2.929,2.93,6.768,4.394,10.605,4.394
		s7.679-1.465,10.606-4.394c5.857-5.857,5.857-15.355,0-21.213l-14.613-14.613l14.613-14.613
		C163.864,336.3,163.864,326.802,158.006,320.943L158.006,320.943z"/>
</g>
</svg>
