<?xml version="1.0" encoding="utf-8"?>
<!-- Generator: Adobe Illustrator 16.0.0, SVG Export Plug-In . SVG Version: 6.00 Build 0)  -->
<!DOCTYPE svg PUBLIC "-//W3C//DTD SVG 1.1//EN" "http://www.w3.org/Graphics/SVG/1.1/DTD/svg11.dtd">
<svg version="1.1" id="Layer_5" xmlns="http://www.w3.org/2000/svg" xmlns:xlink="http://www.w3.org/1999/xlink" x="0px" y="0px"
	 width="512px" height="512px" viewBox="0 0 512 512" enable-background="new 0 0 512 512" xml:space="preserve">
<g>
	<path d="M311.416,192H320c13.231,0,24-10.768,24-24v-40c0-4.416,3.592-8,8-8h8h16h128V8h-48v16h-32v16h-32v16h-32v48h-8
		c-13.232,0-24,10.769-24,24v40c0,4.416-3.592,8-8,8h-8.641c-2.399-16.68-12.151-30.976-25.888-39.527
		C287.112,131.16,288,125.656,288,120c0-19.368-9.896-36.472-24.889-46.527C263.64,70.352,264,67.192,264,64
		c0-30.872-25.12-56-56-56c-20.345,0-38.192,10.904-48,27.177C150.192,18.904,132.344,8,112,8C81.12,8,56,33.128,56,64
		c0,3.168,0.279,6.353,0.832,9.504C41.368,83.832,32,101.144,32,120c0,5.721,0.872,11.248,2.472,16.448
		C18.2,146.576,8,164.496,8,184c0,20.057,10.632,37.632,26.527,47.528C32.888,236.84,32,242.344,32,248
		c0,19.368,9.896,36.473,24.888,46.528C56.36,297.656,56,300.808,56,304c0,30.872,25.12,56,56,56c15.672,0,29.824-6.52,40-16.936
		V368c0,4.416-3.592,8-8,8H32c-13.232,0-24,10.769-24,24c0,13.232,10.768,24,24,24h145.368c2.136,0,4.151,0.832,5.664,2.345
		l6.623,6.624c4.528,4.536,10.561,7.031,16.977,7.031H360v13.608l10.567,3.832l-4.76,10.184l30.56,30.561l10.185-4.769l3.84,10.584
		H453.6l3.84-10.567l10.184,4.768l30.561-30.56l-4.76-10.185l10.575-3.848v-43.216l-10.567-3.832l4.76-10.184l-30.56-30.561
		l-10.185,4.769l-3.84-10.584H410.4l-3.84,10.567l-10.185-4.768l-30.56,30.56l4.761,10.185L360,410.392v13.608H206.632
		c-2.136,0-4.152-0.832-5.664-2.345l-6.624-6.624c-4.528-4.527-10.56-7.031-16.976-7.031H32c-4.408,0-8-3.585-8-8
		c0-4.416,3.592-8,8-8h112c13.231,0,24-10.769,24-24v-24.937c10.176,10.416,24.328,16.937,40,16.937h104c13.231,0,24-10.769,24-24
		V288c0-4.416,3.592-8,8-8h55.768c0.08,0.672,0.232,1.313,0.232,2v14c0,17.648,14.352,32.001,32,32.001
		c17.647,0,32-14.353,32-32.001v-14.328c0-5.439,2.575-10.344,6.896-13.119C491.623,255.224,504,232.584,504,208
		c0-20.487-8.769-40.063-24.049-53.712c-15.271-13.647-35.823-20.12-56.312-17.824c-32.408,3.664-58.92,29.784-63.04,62.104
		c-3.24,25.439,6.832,49.792,26.393,65.432H344c-13.232,0-24,10.769-24,24v48.001c0,4.415-3.593,8-8,8h-64.889
		C257.52,333.824,264,319.664,264,304c0-3.168-0.28-6.352-0.832-9.504C278.632,284.168,288,266.856,288,248
		c0-5.72-0.872-11.248-2.473-16.447C299.544,222.832,309.048,208.328,311.416,192L311.416,192z M472,24h16v80h-16V24z M456,40v64
		h-16V40H456z M424,56v48h-16V56H424z M376,72h16v32h-16V72z M376,421.608l6.584-2.399l3.576-1.696l3.384-8.152l-4.496-9.607
		l14.695-14.704l9.601,4.479l8.64-3.56l3.624-9.969H442.4l2.393,6.585l1.624,3.535l8.247,3.408l9.601-4.479l14.696,14.704
		l-4.496,9.607l3.575,8.616l9.961,3.632v20.784l-6.585,2.4l-3.575,1.695l-3.385,8.152l4.496,9.607l-14.695,14.704l-9.584-4.479
		l-8.648,3.56L442.392,488H421.6l-2.393-6.584l-1.632-3.544l-8.248-3.399l-9.584,4.479l-14.695-14.704l4.496-9.607l-3.576-8.616
		L376,442.392V421.608z M432,312c-8.824,0-16-7.176-16-16h32C448,304.824,440.823,312,432,312z M424,208c0-4.416,3.592-8,8-8
		c4.407,0,8,3.584,8,8s-3.593,8-8,8C427.592,216,424,212.416,424,208z M376.48,200.592c3.2-25.096,23.792-45.376,48.96-48.216
		c2.224-0.256,4.44-0.384,6.632-0.384c13.8,0,26.824,4.937,37.216,14.224C481.176,176.84,488,192.072,488,208
		c0,19.12-9.633,36.729-25.761,47.104c-8.456,5.432-13.624,14.664-14.144,24.896h-8.097v-49.472c9.288-3.313,16-12.112,16-22.528
		c0-13.231-10.768-24-24-24c-13.231,0-24,10.769-24,24c0,10.416,6.713,19.216,16,22.528V280h-8.119
		c-0.593-10.328-5.688-19.512-13.992-24.824C383.424,243.384,373.688,222.472,376.48,200.592L376.48,200.592z M112,344
		c-22.057,0-40-17.943-40-40c0-0.775,0.12-1.544,0.16-2.319C77.192,303.168,82.496,304,88,304v-16c-22.057,0-40-17.943-40-40
		c0-3.424,0.472-6.768,1.312-10.016C54,239.256,58.912,240,64,240c30.88,0,56-25.128,56-56h-16c0,22.057-17.944,40-40,40
		c-22.057,0-40-17.943-40-40c0-13.319,6.688-25.567,17.439-32.943C51.488,166.08,68.608,176,88,176v-16c-22.057,0-40-17.943-40-40
		c0-14.976,8.288-28.576,21.616-35.504l5.831-3.032l-1.831-6.296C72.544,71.48,72,67.72,72,64c0-22.056,17.943-40,40-40
		c22.056,0,40,17.944,40,40v240C152,326.056,134.056,344,112,344z M278.568,216.944C268.512,201.92,251.392,192,232,192v16
		c22.056,0,40,17.944,40,40c0,14.977-8.288,28.576-21.616,35.504l-5.832,3.032l1.832,6.304C247.456,296.52,248,300.28,248,304
		c0,22.057-17.944,40-40,40c-22.057,0-40-17.943-40-40V64c0-22.056,17.943-40,40-40c22.056,0,40,17.944,40,40
		c0,0.776-0.12,1.544-0.16,2.32C242.808,64.832,237.504,64,232,64v16c22.056,0,40,17.944,40,40c0,3.424-0.473,6.769-1.313,10.017
		C266,128.744,261.088,128,256,128c-30.88,0-56,25.128-56,56h16c0-22.056,17.943-40,40-40c22.056,0,40,17.944,40,40
		C296,197.32,289.312,209.568,278.568,216.944z"/>
	<path d="M64,120h16c0-4.416,3.592-8,8-8V96C74.768,96,64,106.768,64,120z"/>
	<path d="M232,240c4.408,0,8,3.584,8,8h16c0-13.231-10.769-24-24-24V240z"/>
	<path d="M192,232v16c4.408,0,8,3.584,8,8h16C216,242.768,205.232,232,192,232z"/>
	<path d="M112,312v16c13.231,0,24-10.768,24-24h-16C120,308.416,116.408,312,112,312z"/>
	<path d="M120,264c-4.408,0-8-3.584-8-8H96c0,13.232,10.768,24,24,24V264z"/>
	<path d="M208,96h16c0-13.231-10.769-24-24-24v16C204.408,88,208,91.584,208,96z"/>
	<path d="M192,128h16c0-13.231-10.769-24-24-24v16C188.408,120,192,123.584,192,128z"/>
	<path d="M120,152c-4.408,0-8-3.584-8-8H96c0,13.232,10.768,24,24,24V152z"/>
	<path d="M192,296h-16c0,13.232,10.768,24,24,24v-16C195.592,304,192,300.416,192,296z"/>
	<path d="M120,72V56c-4.408,0-8-3.584-8-8H96C96,61.232,106.768,72,120,72z"/>
	<path d="M432,472c22.056,0,40-17.943,40-40c0-22.056-17.944-40-40-40c-22.057,0-40,17.944-40,40C392,454.056,409.944,472,432,472z
		 M432,408c13.231,0,24,10.769,24,24c0,13.232-10.769,24-24,24c-13.232,0-24-10.768-24-24C408,418.768,418.768,408,432,408z"/>
</g>
</svg>
