<?xml version="1.0" encoding="utf-8"?>
<!-- Generator: Adobe Illustrator 16.0.0, SVG Export Plug-In . SVG Version: 6.00 Build 0)  -->
<!DOCTYPE svg PUBLIC "-//W3C//DTD SVG 1.1//EN" "http://www.w3.org/Graphics/SVG/1.1/DTD/svg11.dtd">
<svg version="1.1" id="Layer_1" xmlns="http://www.w3.org/2000/svg" xmlns:xlink="http://www.w3.org/1999/xlink" x="0px" y="0px"
	 width="512px" height="512px" viewBox="0 0 512 512" enable-background="new 0 0 512 512" xml:space="preserve">
<g id="book-money-finance">
	<path d="M208,288h24v16h-24V288z"/>
	<path d="M376,288h24v16h-24V288z"/>
	<path d="M300,280h8c2.209,0,4,1.791,4,4h16c-0.002-9.502-6.689-17.691-16-19.592V256h-16v8.408
		c-10.82,2.22-17.793,12.791-15.573,23.611c1.907,9.296,10.084,15.972,19.573,15.98h8c2.209,0,4,1.791,4,4c0,2.21-1.791,4-4,4h-8
		c-2.209,0-4-1.79-4-4h-16c0.002,9.503,6.689,17.692,16,19.593V336h16v-8.407c10.82-2.22,17.792-12.791,15.572-23.611
		C325.666,294.685,317.49,288.01,308,288h-8c-2.209,0-4-1.791-4-4S297.791,280,300,280z"/>
	<path d="M304,232c-35.347,0-64,28.654-64,64c0,35.347,28.653,64,64,64c35.346,0,64-28.653,64-64
		C367.96,260.671,339.329,232.04,304,232z M304,344c-26.51,0-48-21.49-48-48s21.49-48,48-48s48,21.49,48,48
		C351.974,322.499,330.498,343.973,304,344z"/>
	<path d="M232,168V64c0-4.418-3.582-8-8-8H80c-4.419,0-8,3.582-8,8v104c0,4.419,3.581,8,8,8h144C228.418,176,232,172.419,232,168z
		 M216,160H88V72h128V160z"/>
	<path d="M256,64h120v16H256V64z"/>
	<path d="M256,104h120v16H256V104z"/>
	<path d="M256,144h120v16H256V144z"/>
	<path d="M472,216h-16c0-4.418-3.582-8-8-8h-32V24c0-4.418-3.582-8-8-8H40c-4.419,0-8,3.582-8,8v440c0,17.674,14.326,32,32,32h344
		c4.418,0,8-3.581,8-8v-80h56c4.418,0,8-3.581,8-8V224C480,219.582,476.418,216,472,216z M440,224v22.88
		c-11.19-2.95-19.93-11.689-22.881-22.88H440z M440,263.28v65.44c-20.119,3.399-35.881,19.161-39.28,39.279H207.28
		c-3.398-20.118-19.161-35.88-39.279-39.279v-65.44c20.118-3.399,35.881-19.161,39.279-39.28h193.44
		C404.119,244.119,419.881,259.881,440,263.28z M440,345.12V368h-22.881C420.071,356.81,428.81,348.071,440,345.12z M190.88,368H168
		v-22.88C179.19,348.071,187.929,356.81,190.88,368z M168,246.88V224h22.88C187.929,235.19,179.19,243.929,168,246.88z M400,480H64
		c-8.837,0-16-7.163-16-16c0-8.836,7.163-16,16-16h336V480z M400,432H64c-5.641,0.022-11.169,1.57-16,4.48V32h352v176H160
		c-4.419,0-8,3.582-8,8v160c0,4.419,3.581,8,8,8h8v16c0,4.419,3.581,8,8,8h224V432z M464,392H184v-8h264c4.418,0,8-3.581,8-8V232h8
		V392z"/>
</g>
</svg>
