<?xml version="1.0" encoding="utf-8"?>
<!-- Generator: Adobe Illustrator 16.0.0, SVG Export Plug-In . SVG Version: 6.00 Build 0)  -->
<!DOCTYPE svg PUBLIC "-//W3C//DTD SVG 1.1//EN" "http://www.w3.org/Graphics/SVG/1.1/DTD/svg11.dtd">
<svg version="1.1" id="Capa_1" xmlns="http://www.w3.org/2000/svg" xmlns:xlink="http://www.w3.org/1999/xlink" x="0px" y="0px"
	 width="841.889px" height="595.281px" viewBox="0 0 841.889 595.281" enable-background="new 0 0 841.889 595.281"
	 xml:space="preserve">
<g>
	<g>
		<path d="M420.945,24.481c-56.455,0-102.385,45.93-102.385,102.385s45.93,102.383,102.385,102.383s102.385-45.929,102.385-102.385
			C523.329,70.409,477.4,24.481,420.945,24.481z M420.945,211.809c-46.839,0-84.944-38.106-84.944-84.945
			c0-46.838,38.105-84.943,84.944-84.943s84.945,38.106,84.945,84.945S467.783,211.809,420.945,211.809z"/>
	</g>
</g>
<g>
	<g>
		<path d="M444.666,118.865c1.993-3.35,3.16-7.245,3.16-11.419c0-9.853-6.396-18.224-15.247-21.226v-1.617
			c0-4.815-3.903-8.72-8.72-8.72c-3.594,0-6.679,2.175-8.014,5.279v-1.129c0-4.815-3.902-8.72-8.72-8.72
			c-4.816,0-8.72,3.904-8.72,8.72v4.986h-2.712c-4.817,0-8.721,3.904-8.721,8.72c0,3.23,1.76,6.043,4.368,7.55l0.004,51.148
			c-2.611,1.507-4.373,4.32-4.373,7.552c0,4.815,3.903,8.72,8.72,8.72h2.713v4.986c0,4.816,3.903,8.72,8.72,8.72
			s8.72-3.903,8.72-8.72v-1.129c1.335,3.104,4.418,5.28,8.014,5.28c4.816,0,8.72-3.904,8.72-8.721v-1.021
			c12.741-2.682,22.338-14.007,22.338-27.534C454.916,131.843,450.922,124.031,444.666,118.865z M408.781,102.461H425.4
			c2.749,0,4.985,2.236,4.985,4.985c0,2.748-2.236,4.985-4.985,4.985h-16.617L408.781,102.461z M426.778,151.27h-17.992
			l-0.001-21.398h17.993c5.899,0,10.699,4.8,10.699,10.699S432.677,151.27,426.778,151.27z"/>
	</g>
</g>
<g>
	<g>
		<path d="M678.604,553.333h-7.143v-15.79c0-4.815-3.903-8.72-8.72-8.72h-24.167v-32.059c0-4.816-3.903-8.721-8.721-8.721h-12.636
			V348.292h12.636c4.817,0,8.721-3.904,8.721-8.72v-28.096h33.805c3.629,0,6.878-2.246,8.159-5.642
			c1.282-3.394,0.326-7.228-2.397-9.625l-60.969-53.656c-3.615-3.181-9.126-2.83-12.307,0.785
			c-3.182,3.615-2.831,9.125,0.784,12.307l43.624,38.391H192.615l118.281-104.099c3.177,5.521,6.761,10.777,10.704,15.736
			l-64.41,56.68c-2.725,2.397-3.679,6.229-2.397,9.625c1.281,3.394,4.529,5.641,8.158,5.641h315.986
			c3.629,0,6.877-2.247,8.158-5.641c1.283-3.396,0.327-7.229-2.396-9.625l-64.41-56.68c3.939-4.957,7.523-10.21,10.698-15.728
			l50.306,44.272c1.657,1.458,3.712,2.174,5.758,2.174c2.418,0,4.825-1.001,6.549-2.959c3.182-3.614,2.831-9.125-0.784-12.307
			l-53.946-47.477c5.766-14.483,8.94-30.269,8.94-46.783C547.809,56.912,490.898,0,420.945,0S294.08,56.912,294.08,126.866
			c0,16.511,3.174,32.294,8.938,46.774L163.747,296.21c-2.724,2.397-3.679,6.229-2.397,9.625s4.53,5.642,8.159,5.642h33.805v28.097
			c0,4.815,3.903,8.72,8.721,8.72h15.169v139.752h-15.169c-4.817,0-8.721,3.904-8.721,8.721v32.059h-24.167
			c-4.816,0-8.72,3.904-8.72,8.72v15.792h-7.142c-4.817,0-8.721,3.904-8.721,8.72v24.505c0,4.816,3.903,8.721,8.721,8.721h284.308
			c4.816,0,8.72-3.904,8.72-8.721c0-4.815-3.903-8.72-8.72-8.72H172.006v-7.067h497.879v7.067H482.093
			c-4.816,0-8.72,3.904-8.72,8.72c0,4.816,3.903,8.721,8.72,8.721h196.512c4.816,0,8.72-3.904,8.72-8.721v-24.508
			C687.323,557.237,683.42,553.333,678.604,553.333z M555.828,260.179H286.061l47.297-41.62
			c22.788,21.778,53.652,35.172,87.587,35.172s64.798-13.394,87.587-35.172L555.828,260.179z M420.945,17.44
			c60.337,0,109.425,49.088,109.425,109.426c0,60.337-49.088,109.424-109.425,109.424S311.52,187.202,311.52,126.864
			C311.52,66.527,360.608,17.44,420.945,17.44z M621.135,505.484v23.339h-78.568v-23.339H621.135z M566.454,488.044V348.292h33.324
			v139.752H566.454z M542.567,311.476h78.568v19.375h-78.568V311.476z M477.669,339.572v-28.096h47.456v28.097
			c0,4.815,3.903,8.72,8.721,8.72h15.169v139.752h-15.169c-4.817,0-8.721,3.904-8.721,8.721v32.059h-47.456v-32.059
			c0-4.817-3.902-8.722-8.72-8.722h-12.637V348.292h12.637C473.767,348.292,477.669,344.387,477.669,339.572z M460.23,505.484
			v23.339h-78.57v-23.339H460.23z M405.55,488.044V348.292h33.322v139.752H405.55z M381.659,311.476h78.57v19.377h-78.57V311.476z
			 M316.763,339.572v-28.096h47.456v28.097c0,4.815,3.902,8.72,8.72,8.72h15.17v139.752h-15.17c-4.817,0-8.72,3.904-8.72,8.721
			v32.059h-47.456v-32.059c0-4.816-3.903-8.721-8.721-8.721h-12.637v-58.688c0-4.815-3.902-8.72-8.72-8.72
			c-4.816,0-8.72,3.904-8.72,8.72v58.688h-33.323V348.292h33.323v48.95c0,4.815,3.903,8.72,8.72,8.72c4.817,0,8.72-3.904,8.72-8.72
			v-48.95h12.637C312.86,348.292,316.763,344.387,316.763,339.572z M220.754,330.853v-19.377h78.568v19.377H220.754L220.754,330.853
			z M220.754,505.484h78.568v23.339h-78.568V505.484z M654.023,553.334H187.867v-7.071h466.155V553.334z"/>
	</g>
</g>
</svg>
