<?xml version="1.0" encoding="utf-8"?>
<!-- Generator: Adobe Illustrator 16.0.0, SVG Export Plug-In . SVG Version: 6.00 Build 0)  -->
<!DOCTYPE svg PUBLIC "-//W3C//DTD SVG 1.1//EN" "http://www.w3.org/Graphics/SVG/1.1/DTD/svg11.dtd">
<svg version="1.1" id="Capa_1" xmlns="http://www.w3.org/2000/svg" xmlns:xlink="http://www.w3.org/1999/xlink" x="0px" y="0px"
	 width="841.889px" height="595.281px" viewBox="0 0 841.889 595.281" enable-background="new 0 0 841.889 595.281"
	 xml:space="preserve">
<g>
	<g>
		<path d="M621.327,0.01c-0.276-0.012-0.557-0.012-0.833,0c-1.857,0.066-3.688,0.226-5.499,0.442H304.193
			c-32.489,0-58.922,26.433-58.922,58.923v25.212h-75.21c-6.42,0-11.627,5.206-11.627,11.627v434.602
			c0,35.547,28.92,64.467,64.468,64.467h292.795c0.579,0,1.152-0.021,1.727-0.04h2.348c34.102-0.006,61.847-27.755,61.847-61.857
			v-19.889h90.212c6.421,0,11.627-5.206,11.627-11.627V64.42C683.456,29.552,656.166,1.257,621.327,0.01z M222.902,572.027
			L222.902,572.027c-22.726-0.001-41.214-18.489-41.214-41.215V107.838h273.386v422.975c0,1.031,0.027,2.057,0.074,3.076
			c0.016,0.335,0.046,0.667,0.066,1c0.042,0.682,0.085,1.361,0.148,2.037c0.037,0.396,0.087,0.788,0.131,1.183
			c0.067,0.608,0.136,1.215,0.22,1.817c0.059,0.415,0.127,0.825,0.192,1.238c0.092,0.575,0.186,1.149,0.293,1.721
			c0.079,0.42,0.163,0.836,0.251,1.252c0.115,0.557,0.235,1.111,0.366,1.662c0.098,0.417,0.2,0.831,0.306,1.243
			c0.141,0.547,0.288,1.09,0.441,1.63c0.115,0.406,0.232,0.812,0.356,1.214c0.166,0.543,0.343,1.082,0.522,1.62
			c0.131,0.39,0.26,0.779,0.398,1.165c0.196,0.549,0.404,1.092,0.616,1.635c0.141,0.363,0.277,0.729,0.424,1.089
			c0.236,0.578,0.488,1.146,0.74,1.715c0.14,0.315,0.272,0.634,0.417,0.945c0.33,0.713,0.679,1.416,1.033,2.115
			c0.081,0.158,0.154,0.322,0.237,0.48c0.441,0.851,0.903,1.69,1.383,2.52c0.145,0.251,0.301,0.495,0.449,0.745
			c0.342,0.573,0.686,1.146,1.044,1.708c0.2,0.313,0.411,0.618,0.616,0.928c0.323,0.486,0.648,0.974,0.984,1.452
			c0.229,0.326,0.468,0.645,0.703,0.967c0.329,0.45,0.66,0.899,1.001,1.34c0.25,0.323,0.506,0.642,0.763,0.96
			c0.202,0.251,0.396,0.51,0.602,0.758H222.902z M558.934,55.907c-0.006,0.044-0.011,0.087-0.016,0.13
			c-0.107,0.839-0.205,1.68-0.281,2.528c-0.033,0.37-0.055,0.742-0.081,1.112c-0.042,0.578-0.09,1.153-0.116,1.735
			c-0.047,0.997-0.073,1.998-0.073,3.005v468.964h-0.001c0,21.284-17.315,38.602-38.596,38.605h-1.689
			c-0.016,0-0.028-0.001-0.043-0.001c-22.268-0.799-39.709-18.885-39.709-41.174V96.211c0-6.42-5.207-11.626-11.627-11.626H268.525
			v-25.21c0-19.668,16.002-35.669,35.669-35.669H572.75C565.424,32.724,560.515,43.779,558.934,55.907z M581.617,490.241V64.42
			c0-0.656,0.018-1.309,0.047-1.957c0.027-0.555,0.068-1.104,0.115-1.653c0.006-0.071,0.01-0.142,0.016-0.212
			c1.702-18.194,15.419-33.35,33.497-36.688c0.062-0.012,0.123-0.02,0.185-0.031c0.548-0.099,1.1-0.188,1.654-0.264
			c1.243-0.17,2.502-0.291,3.779-0.35c22.065,1.007,39.292,19.006,39.292,41.156v425.82H581.617z"/>
	</g>
</g>
<g>
	<g>
		<path d="M422.109,389.091h-44.732c-6.42,0-11.627,5.206-11.627,11.627v127.525c0,6.42,5.207,11.627,11.627,11.627h44.732
			c6.421,0,11.627-5.207,11.627-11.627V400.718C433.736,394.296,428.531,389.091,422.109,389.091z M410.483,516.615h-21.48V412.343
			h21.48V516.615z"/>
	</g>
</g>
<g>
	<g>
		<path d="M340.959,342.551h-44.731c-6.421,0-11.627,5.207-11.627,11.627v174.071c0,6.42,5.206,11.627,11.627,11.627h44.732
			c6.421,0,11.627-5.207,11.627-11.627V354.177C352.586,347.756,347.381,342.551,340.959,342.551z M329.334,516.621L329.334,516.621
			h-21.48V365.803h21.48V516.621z"/>
	</g>
</g>
<g>
	<g>
		<path d="M259.81,296.01h-44.732c-6.42,0-11.626,5.207-11.626,11.627v220.605c0,6.42,5.206,11.627,11.626,11.627h44.733
			c6.42,0,11.627-5.207,11.627-11.627V307.636C271.436,301.216,266.231,296.01,259.81,296.01z M248.184,516.615L248.184,516.615
			h-21.479V319.262h21.479V516.615z"/>
	</g>
</g>
<g>
	<g>
		<path d="M231.735,177.167c-0.15-0.743-0.372-1.478-0.662-2.175c-0.291-0.709-0.651-1.383-1.07-2.01
			c-0.417-0.641-0.905-1.233-1.44-1.769s-1.129-1.023-1.768-1.441c-0.628-0.418-1.303-0.779-2.011-1.07
			c-0.698-0.29-1.43-0.522-2.174-0.661c-1.5-0.304-3.047-0.304-4.534,0c-0.744,0.139-1.477,0.371-2.187,0.661
			c-0.697,0.291-1.372,0.652-1.999,1.07c-0.641,0.418-1.234,0.906-1.769,1.441c-0.535,0.535-1.023,1.128-1.454,1.769
			c-0.417,0.627-0.778,1.301-1.069,2.01c-0.29,0.698-0.51,1.431-0.662,2.175c-0.151,0.744-0.22,1.511-0.22,2.267
			c0,0.755,0.069,1.523,0.22,2.268c0.152,0.743,0.372,1.476,0.662,2.186c0.291,0.697,0.652,1.372,1.069,2
			c0.431,0.64,0.919,1.232,1.454,1.768c0.534,0.534,1.128,1.023,1.769,1.453c0.627,0.418,1.302,0.768,1.999,1.058
			c0.71,0.291,1.442,0.523,2.187,0.663c0.743,0.151,1.511,0.232,2.267,0.232c0.755,0,1.523-0.081,2.268-0.232
			c0.744-0.14,1.477-0.372,2.174-0.663c0.708-0.29,1.383-0.64,2.011-1.058c0.639-0.43,1.231-0.919,1.768-1.453
			c0.535-0.535,1.023-1.128,1.44-1.768c0.419-0.628,0.779-1.303,1.07-2c0.29-0.709,0.512-1.441,0.662-2.186
			c0.151-0.745,0.232-1.513,0.232-2.268C231.967,178.677,231.886,177.909,231.735,177.167z"/>
	</g>
</g>
<g>
	<g>
		<path d="M415.385,167.808H260.639c-6.421,0-11.627,5.206-11.627,11.627c0,6.42,5.206,11.626,11.627,11.626h154.746
			c6.421,0,11.627-5.206,11.627-11.626S421.806,167.808,415.385,167.808z"/>
	</g>
</g>
<g>
	<g>
		<path d="M228.561,255.388c-0.536-0.534-1.129-1.011-1.769-1.441c-0.626-0.419-1.301-0.779-2.009-1.069
			c-0.698-0.291-1.43-0.512-2.174-0.663c-1.5-0.302-3.047-0.302-4.546,0c-0.732,0.151-1.466,0.372-2.175,0.663
			c-0.697,0.29-1.372,0.65-2,1.069c-0.641,0.431-1.233,0.907-1.768,1.441c-0.535,0.547-1.023,1.139-1.454,1.778
			c-0.417,0.628-0.778,1.302-1.069,2.001c-0.279,0.697-0.511,1.429-0.662,2.174c-0.151,0.755-0.22,1.512-0.22,2.266
			c0,0.768,0.069,1.524,0.22,2.279c0.151,0.745,0.383,1.478,0.674,2.174c0.291,0.699,0.641,1.373,1.069,2.012
			c0.419,0.628,0.907,1.232,1.442,1.768c0.534,0.534,1.127,1.022,1.768,1.441c0.628,0.418,1.303,0.778,2,1.069
			c0.709,0.291,1.442,0.512,2.175,0.663c0.754,0.151,1.522,0.232,2.278,0.232c0.755,0,1.523-0.082,2.268-0.232
			c0.744-0.151,1.477-0.372,2.174-0.663c0.708-0.291,1.383-0.651,2.011-1.069c0.639-0.419,1.231-0.907,1.768-1.441
			c0.535-0.535,1.023-1.139,1.44-1.768c0.419-0.64,0.779-1.313,1.07-2.012c0.29-0.697,0.512-1.429,0.662-2.174
			c0.151-0.755,0.232-1.512,0.232-2.279C231.967,260.551,230.724,257.563,228.561,255.388z"/>
	</g>
</g>
<g>
	<g>
		<path d="M415.385,251.991H260.639c-6.421,0-11.627,5.207-11.627,11.627s5.206,11.627,11.627,11.627h154.746
			c6.421,0,11.627-5.207,11.627-11.627C427.012,257.197,421.806,251.991,415.385,251.991z"/>
	</g>
</g>
<g>
	<g>
		<path d="M415.385,209.9H220.34c-6.421,0-11.627,5.206-11.627,11.626c0,6.421,5.206,11.627,11.627,11.627h195.045
			c6.421,0,11.627-5.206,11.627-11.627S421.806,209.9,415.385,209.9z"/>
	</g>
</g>
</svg>
