<?xml version="1.0" encoding="utf-8"?>
<!-- Generator: Adobe Illustrator 16.0.0, SVG Export Plug-In . SVG Version: 6.00 Build 0)  -->
<!DOCTYPE svg PUBLIC "-//W3C//DTD SVG 1.1//EN" "http://www.w3.org/Graphics/SVG/1.1/DTD/svg11.dtd">
<svg version="1.1" id="Layer_1" xmlns:serif="http://www.serif.com/"
	 xmlns="http://www.w3.org/2000/svg" xmlns:xlink="http://www.w3.org/1999/xlink" x="0px" y="0px" width="841.889px"
	 height="595.281px" viewBox="0 0 841.889 595.281" enable-background="new 0 0 841.889 595.281" xml:space="preserve">
<g id="options_graph_alt">
	<path d="M278.487,398.652l-18.701-14.646l84.74-108.255l78.49,74.473l65.307-24.754l84.232-88.002l17.177,16.432l-87.978,91.872
		l-84.232,31.984l-70.392-66.771L278.487,398.652z"/>
	<path d="M165.905,436.514V152.156c0-20.711,16.804-37.515,37.515-37.515h429.718c20.687,0,37.553,16.779,37.553,37.515v284.358
		c0,20.723-16.816,37.527-37.553,37.527H203.419C182.708,474.042,165.905,457.237,165.905,436.514z M646.952,436.514V152.156
		c0-7.564-6.188-13.766-13.815-13.766H203.419c-7.577,0-13.766,6.176-13.766,13.766v284.358c0,7.614,6.188,13.791,13.766,13.791
		h429.718C640.752,450.305,646.952,444.129,646.952,436.514z"/>
	<path d="M207.586,162.251c0-6.274,5.122-11.396,11.41-11.396c6.287,0,11.385,5.122,11.385,11.396
		c0,6.264-5.098,11.373-11.385,11.373C212.708,173.624,207.586,168.514,207.586,162.251z M239.856,162.251
		c0-6.274,5.097-11.396,11.372-11.396c6.288,0,11.397,5.122,11.397,11.396c0,6.264-5.109,11.373-11.397,11.373
		C244.952,173.624,239.856,168.514,239.856,162.251z M272.075,162.251c0-6.274,5.109-11.396,11.372-11.396
		c6.275,0,11.397,5.122,11.397,11.396c0,6.264-5.122,11.373-11.397,11.373C277.185,173.624,272.075,168.514,272.075,162.251z"/>
	<path d="M271.009,371.529c10.9,0,19.793,8.893,19.793,19.794c0,10.9-8.893,19.793-19.793,19.793
		c-10.901,0-19.794-8.893-19.794-19.793C251.215,380.422,260.108,371.529,271.009,371.529z"/>
	<path d="M345.828,273.568c10.9,0,19.793,8.893,19.793,19.794c0,10.9-8.893,19.793-19.793,19.793
		c-10.901,0-19.794-8.893-19.794-19.793C326.034,282.461,334.927,273.568,345.828,273.568z"/>
	<path d="M419.878,340.836c10.901,0,19.793,8.892,19.793,19.793c0,10.9-8.892,19.793-19.793,19.793s-19.793-8.893-19.793-19.793
		C400.085,349.727,408.977,340.836,419.878,340.836z"/>
	<path d="M581.15,225.885c10.9,0,19.793,8.892,19.793,19.793c0,10.9-8.893,19.793-19.793,19.793
		c-10.901,0-19.793-8.893-19.793-19.793C561.357,234.776,570.248,225.885,581.15,225.885z"/>
	<path d="M494.859,314.842c10.889,0,19.793,8.892,19.793,19.793s-8.904,19.793-19.793,19.793c-10.901,0-19.793-8.892-19.793-19.793
		S483.957,314.842,494.859,314.842z"/>
	<path d="M335.671,419.71l1.736-63.385c0.099-3.646,3.125-6.511,6.771-6.411c3.634,0.074,6.499,3.112,6.412,6.746l-1.736,63.397
		c-0.087,3.634-3.125,6.511-6.771,6.411C338.448,426.394,335.559,423.356,335.671,419.71z M571.129,418.308l1.736-108.439
		c0.049-3.609,3.063-6.536,6.709-6.462c3.608,0.05,6.548,3.063,6.474,6.71l-1.749,108.439c-0.074,3.609-3.063,6.536-6.696,6.462
		C573.969,424.969,571.042,421.955,571.129,418.308z M260.702,336.606l1.749-128.171c0.013-3.646,3.026-6.549,6.66-6.499
		c3.646,0.037,6.548,3.039,6.498,6.672l-1.736,128.185c-0.024,3.634-3.038,6.548-6.685,6.485
		C263.555,343.254,260.654,340.253,260.702,336.606z M410.652,299.773l1.735-92.529c0.063-3.646,3.063-6.548,6.71-6.474
		c3.634,0.063,6.523,3.063,6.461,6.722l-1.748,92.505c-0.038,3.646-3.051,6.561-6.697,6.474
		C413.479,306.408,410.576,303.407,410.652,299.773z M485.632,284.333l1.735-77.584c0.075-3.659,3.089-6.549,6.734-6.449
		c3.634,0.087,6.536,3.088,6.437,6.734l-1.761,77.597c-0.063,3.634-3.076,6.536-6.709,6.437
		C488.409,290.98,485.52,287.967,485.632,284.333z"/>
	<path id="Group_26" d="M335.671,200.274h14.361v14.387h-14.361V200.274z M335.671,224.867h14.361v14.398h-14.361V224.867z
		 M335.671,249.497h14.361v14.349h-14.361V249.497z"/>
	<path id="Group_28" d="M486.215,362.923h14.349v14.386h-14.349V362.923z M486.215,387.515h14.349v14.349h-14.349V387.515z
		 M486.215,412.12h14.349v14.349h-14.349V412.12z"/>
</g>
</svg>
