<svg height="455pt" viewBox="0 -13 455.31954 455" width="455pt" xmlns="http://www.w3.org/2000/svg"><path d="m113.113281 112.464844h50.136719c3.3125 0 6-2.683594 6-6 0-3.3125-2.6875-6-6-6h-50.136719c-3.3125 0-6 2.6875-6 6 0 3.316406 2.6875 6 6 6zm0 0"/><path d="m312.574219 183.109375c3.3125 0 6-2.683594 6-6 0-3.3125-2.6875-6-6-6h-74.644531c-3.3125 0-6 2.6875-6 6 0 3.316406 2.6875 6 6 6zm0 0"/><path d="m189.179688 171.109375c-3.3125 0-6 2.6875-6 6 0 3.316406 2.6875 6 6 6h23.375c3.316406 0 6-2.683594 6-6 0-3.3125-2.683594-6-6-6zm0 0"/><path d="m113.113281 183.109375h50.277344c3.3125 0 6-2.683594 6-6 0-3.3125-2.6875-6-6-6h-50.277344c-3.3125 0-6 2.6875-6 6 0 3.316406 2.6875 6 6 6zm0 0"/><path d="m218.375 241.761719h-105.261719c-3.3125 0-6 2.683593-6 6 0 3.3125 2.6875 6 6 6h105.261719c3.3125 0 6-2.6875 6-6 0-3.316407-2.6875-6-6-6zm0 0"/><path d="m62.128906 428.613281c.421875.09375.855469.140625 1.289063.140625h237.980469c.300781 0 .597656-.023437.894531-.070312.945312.039062 1.890625.070312 2.847656.070312 32.6875 0 60.464844-24.691406 65.425781-57.125 47.609375-3.4375 84.539063-42.957031 84.753906-90.691406.210938-47.734375-36.367187-87.578125-83.945312-91.441406v-60.199219h69.078125c3.316406 0 6-2.6875 6-6v-79.59375c-.023437-24.035156-19.503906-43.515625-43.539063-43.542969-.5 0-.992187.019532-1.488281.039063-.21875-.027344-.4375-.039063-.65625-.039063h-289.214843c-26.78125.085938-48.546876 21.636719-48.898438 48.417969l-2.179688 266.734375h-54.476562c-3.3125 0-6 2.6875-6 6v39.871094c0 35.851562 27.511719 65.257812 62.128906 67.429687zm357.90625-91.96875c-14.613281 14.605469-34.34375 22.941407-55 23.230469h-.011718c-.398438.007812-.792969.03125-1.1875.03125-37.875-.023438-70.460938-26.792969-77.835938-63.945312-7.371094-37.148438 12.519531-74.335938 47.515625-88.820313 34.992187-14.484375 75.347656-2.238281 96.386719 29.253906 21.042968 31.492188 16.910156 73.460938-9.867188 100.246094zm14.417969-292.941406v73.589844h-63.078125v-73.589844c.097656-17.351563 14.191406-31.363281 31.539062-31.363281 17.351563 0 31.441407 14.011718 31.539063 31.363281zm-359.800781 4.988281c.269531-20.207031 16.691406-36.464844 36.902344-36.527344h261.390624c-8.664062 8.203126-13.574218 19.609376-13.570312 31.539063v145.582031c-35.589844 1.726563-66.921875 24.011719-80.222656 57.070313-.648438-2.695313-3.058594-4.597657-5.828125-4.601563h-29.554688c-3.3125 0-6 2.6875-6 6s2.6875 6 6 6h29.554688c1.308593 0 2.585937-.429687 3.625-1.226562-8.671875 26.871094-4.425781 56.242187 11.503906 79.558594 15.925781 23.316406 41.742187 37.953124 69.929687 39.648437-4.855468 25.699219-27.140624 45.019531-53.277343 45.019531-29.902344 0-54.238281-24.929687-54.238281-55.570312v-39.871094c0-3.3125-2.683594-6-6-6h-172.390626zm-62.652344 278.625h226.867188v33.871094c-.054688 22.074219 10.621093 42.796875 28.625 55.566406h-201.257813c-29.90625.007813-54.234375-24.925781-54.234375-55.566406zm0 0"/><path d="m298.167969 112.464844h14.398437c3.316406 0 6-2.683594 6-6 0-3.3125-2.683594-6-6-6h-14.398437c-3.3125 0-6 2.6875-6 6 0 3.316406 2.6875 6 6 6zm0 0"/><path d="m188.191406 112.464844h84.691406c3.316407 0 6-2.683594 6-6 0-3.3125-2.683593-6-6-6h-84.691406c-3.3125 0-6 2.6875-6 6 0 3.316406 2.6875 6 6 6zm0 0"/><path d="m357.898438 229.066406v5.695313c-12.824219 3.050781-21.335938 15.21875-19.804688 28.3125s12.621094 22.96875 25.804688 22.980469c7.613281.128906 13.726562 6.316406 13.761718 13.929687.039063 7.613281-6.015625 13.859375-13.625 14.0625-.046875 0-.089844-.007813-.136718-.007813-.042969 0-.089844.007813-.132813.007813-7.671875-.082031-13.851563-6.316406-13.867187-13.988281 0-3.3125-2.683594-6-6-6-3.3125 0-6 2.6875-6 6 .019531 12.042968 8.289062 22.5 20 25.292968v6.609376c0 3.3125 2.6875 6 6 6 3.316406 0 6-2.6875 6-6v-6.605469c12.824218-3.054688 21.335937-15.222657 19.804687-28.316407s-12.621094-22.96875-25.804687-22.976562c-7.730469 0-14-6.269531-14-14 0-7.734375 6.269531-14 14-14 7.734374 0 14 6.265625 14 14 0 3.3125 2.6875 6 6 6 3.316406 0 6-2.6875 6-6-.015626-12.042969-8.285157-22.503906-20-25.296875v-5.695313c0-3.3125-2.683594-6-6-6-3.3125 0-6 2.6875-6 6zm0 0"/></svg>