<svg id="Capa_1" enable-background="new 0 0 511.998 511.998" height="512" viewBox="0 0 511.998 511.998" width="512" xmlns="http://www.w3.org/2000/svg"><g><path d="m506.533 398.27c0-10.75-4.186-20.849-11.777-28.426-.829-.831-1.693-1.613-2.58-2.361 11.851-7.003 19.822-19.905 19.822-34.639 0-10.75-4.186-20.849-11.777-28.426-5.507-5.518-12.341-9.225-19.784-10.848 6.039-7.037 9.701-16.171 9.701-26.15 0-10.271-3.826-19.94-10.786-27.395 15.793-5.427 27.178-20.417 27.178-38.024 0-10.754-4.185-20.854-11.774-28.431-3.384-3.39-7.271-6.095-11.49-8.057 7.594-7.321 12.333-17.586 12.333-28.944 0-10.748-4.184-20.843-11.787-28.434-3.089-3.077-6.614-5.613-10.477-7.539-3.708-1.848-8.21-.34-10.058 3.367s-.34 8.21 3.367 10.058c2.42 1.207 4.635 2.802 6.577 4.736 4.758 4.75 7.379 11.076 7.379 17.812 0 13.874-11.257 25.166-25.114 25.218h-90.454c.785-5.892 1.197-11.9 1.197-18.003 0-11.169-1.366-22.023-3.923-32.415h78.084c4.142 0 7.5-3.358 7.5-7.5s-3.358-7.5-7.5-7.5h-82.716c-19.273-51.504-68.987-88.272-127.133-88.272-74.817 0-135.686 60.869-135.686 135.686 0 26.889 7.862 51.976 21.408 73.083l-15.516 15.516c-3.044-1.137-6.297-1.737-9.643-1.737-7.348 0-14.255 2.861-19.451 8.057l-63.596 63.596c-5.196 5.195-8.057 12.103-8.057 19.45s2.861 14.255 8.057 19.45l25.069 25.069c5.362 5.363 12.406 8.044 19.451 8.044 7.044 0 14.088-2.681 19.45-8.044l63.596-63.596c5.195-5.195 8.057-12.103 8.057-19.45 0-3.348-.6-6.601-1.738-9.646l15.515-15.515c21.108 13.547 46.195 21.409 73.085 21.409 18.274 0 35.712-3.64 51.638-10.219.383 8.608 3.466 16.725 8.84 23.378h-99.781c-4.142 0-7.5 3.358-7.5 7.5s3.358 7.5 7.5 7.5h112.57c6.733 0 13.069 2.624 17.837 7.383 4.761 4.761 7.383 11.092 7.383 17.827 0 13.855-11.23 25.133-25.066 25.216l-127.724.004c-6.735 0-13.066-2.622-17.827-7.383s-7.383-11.096-7.383-17.837c0-9.618 5.349-18.262 13.959-22.56 3.706-1.85 5.211-6.354 3.361-10.06-1.85-3.707-6.354-5.213-10.06-3.361-13.731 6.853-22.261 20.64-22.261 35.98 0 10.748 4.183 20.849 11.777 28.443 5.511 5.511 12.345 9.215 19.782 10.838-6.038 7.036-9.699 16.169-9.699 26.146 0 11.367 4.748 21.639 12.356 28.959-13.738 6.402-23.287 20.335-23.287 36.463 0 22.173 18.039 40.211 40.211 40.211h127.574c3.203 0 6.316-.387 9.304-1.098 3.019.716 6.113 1.095 9.236 1.095h127.572c22.173 0 40.213-18.04 40.213-40.213 0-10.743-4.186-20.838-11.777-28.415-.829-.831-1.693-1.613-2.58-2.361 11.852-7 19.823-19.901 19.823-34.635zm-9.535-65.426c0 13.902-11.311 25.213-25.213 25.213h-127.572c-2.797 0-5.51-.452-8.078-1.32 4.956-6.687 7.893-14.955 7.893-23.898 0-8.721-2.757-17.017-7.861-23.897 2.532-.852 5.207-1.299 7.962-1.307l127.656-.003c6.738 0 13.066 2.623 17.829 7.394 4.761 4.752 7.384 11.08 7.384 17.818zm-171.324 90.634h-127.574c-13.902 0-25.211-11.31-25.211-25.211 0-13.85 11.227-25.124 25.058-25.208l127.728-.004c13.902 0 25.211 11.31 25.211 25.211s-11.31 25.212-25.212 25.212zm140.641-246.692c6.743 0 13.073 2.622 17.833 7.391 4.76 4.751 7.381 11.082 7.381 17.824 0 13.898-11.312 25.205-25.215 25.205h-127.572c-.414 0-.826-.015-1.236-.035 11.471-14.682 19.987-31.776 24.654-50.382zm-341.298 115.279-63.597 63.596c-4.877 4.875-12.812 4.876-17.688 0l-25.069-25.069c-2.362-2.362-3.663-5.503-3.663-8.844s1.301-6.481 3.663-8.844l63.596-63.596c2.438-2.438 5.641-3.657 8.844-3.657s6.405 1.219 8.844 3.657l25.069 25.069c2.362 2.362 3.663 5.503 3.663 8.844s-1.3 6.482-3.662 8.844zm8.061-30.839-19.981-19.981 12.077-12.077c5.952 7.331 12.65 14.029 19.981 19.981zm-23.223-117.443c0-66.546 54.14-120.686 120.686-120.686 66.547 0 120.687 54.14 120.687 120.686s-54.14 120.686-120.687 120.686c-66.546 0-120.686-54.139-120.686-120.686zm213.99 98.423h14.897 111.181c6.734 0 13.066 2.623 17.833 7.39 4.76 4.752 7.381 11.083 7.381 17.825 0 13.858-11.238 25.138-25.08 25.211h-105.844c-.056 0-.111.003-.167.003h-21.696c-6.735 0-13.066-2.623-17.829-7.385-4.762-4.763-7.385-11.094-7.385-17.829 0-1.982.244-3.936.696-5.844 9.439-5.415 18.168-11.931 26.013-19.371zm-136.676 246.695c-13.902 0-25.211-11.31-25.211-25.211s11.31-25.211 25.211-25.211h127.574c13.902 0 25.211 11.31 25.211 25.211s-11.31 25.211-25.211 25.211zm273.686-.004h-114.815c5.57-6.901 8.914-15.669 8.914-25.208 0-9.538-3.344-18.306-8.913-25.207h114.814c6.738 0 13.066 2.623 17.829 7.394 4.762 4.753 7.384 11.078 7.384 17.809 0 13.902-11.31 25.212-25.213 25.212zm5.465-65.415h-109.355c5.573-6.903 8.92-15.674 8.92-25.216 0-9.539-3.345-18.308-8.915-25.209h109.35c6.738 0 13.067 2.622 17.829 7.394 4.762 4.752 7.384 11.081 7.384 17.819 0 13.902-11.31 25.212-25.213 25.212z"/><path d="m230.541 45.663c-54.104 0-98.12 44.017-98.12 98.12s44.016 98.12 98.12 98.12 98.12-44.016 98.12-98.12-44.016-98.12-98.12-98.12zm0 181.24c-45.833 0-83.12-37.287-83.12-83.12s37.287-83.12 83.12-83.12 83.12 37.288 83.12 83.12-37.287 83.12-83.12 83.12z"/><path d="m272.815 86.347c-11.834-6.682-26.899-2.492-33.582 9.341l-19.571 34.654-5.96-7.689c-8.327-10.74-23.841-12.705-34.582-4.377-10.741 8.327-12.705 23.84-4.378 34.581l28.672 36.984c4.634 5.978 11.916 9.547 19.478 9.547.594 0 1.192-.021 1.792-.065 8.25-.601 15.604-5.259 19.671-12.462l37.8-66.932c3.237-5.732 4.048-12.383 2.284-18.726s-5.892-11.619-11.624-14.856zm-3.72 26.206-37.8 66.932c-1.592 2.819-4.47 4.643-7.698 4.877-3.218.233-6.371-1.186-8.328-3.711l-28.672-36.985c-3.26-4.205-2.491-10.277 1.713-13.536 1.755-1.361 3.835-2.02 5.901-2.02 2.883 0 5.737 1.283 7.635 3.732l12.871 16.604c1.539 1.984 3.972 3.075 6.472 2.885 2.504-.182 4.751-1.605 5.986-3.792l25.118-44.476c2.617-4.632 8.513-6.272 13.146-3.656 2.244 1.267 3.859 3.332 4.55 5.814.691 2.485.373 5.088-.894 7.332z"/></g></svg>