<?xml version="1.0" encoding="utf-8"?>
<!-- Generator: Adobe Illustrator 16.0.0, SVG Export Plug-In . SVG Version: 6.00 Build 0)  -->
<!DOCTYPE svg PUBLIC "-//W3C//DTD SVG 1.1//EN" "http://www.w3.org/Graphics/SVG/1.1/DTD/svg11.dtd">
<svg version="1.1" id="Layer_1" xmlns="http://www.w3.org/2000/svg" xmlns:xlink="http://www.w3.org/1999/xlink" x="0px" y="0px"
	 width="491.52px" height="491.52px" viewBox="0 0 491.52 491.52" enable-background="new 0 0 491.52 491.52" xml:space="preserve">
<g id="Layer_x0020_1">
	<polygon fill="#212121" points="345.6,168.96 426.24,168.96 433.92,168.96 433.92,176.639 433.92,338.243 433.92,345.923 
		426.24,345.923 66.247,345.923 119.241,330.562 418.56,330.562 418.56,184.32 345.6,184.32 	"/>
	<path fill="#212121" d="M63.15,169.289l264.96-76.8l9.811-2.844v10.193v153.601v5.74l-5.55,1.609L67.409,337.59l-9.81,2.843
		v-10.193v-153.6v-5.741L63.15,169.289L63.15,169.289z M322.56,110.033l-249.6,72.348v137.666l249.6-72.349V110.033z"/>
	<polygon fill="#212121" points="245.76,308.929 407.039,308.929 407.039,316.61 245.76,316.61 	"/>
	<polygon fill="#212121" points="345.6,211.2 407.039,211.2 407.039,218.88 345.6,218.88 	"/>
	<path fill="#212121" d="M106.597,244.415l5.078,0.015c-0.069,3.008-0.785,5.459-2.148,7.361c-1.36,1.894-3.337,3.272-5.921,4.127
		c-3.194,1.056-6.095,0.774-8.693-0.843c-2.601-1.622-4.374-4.429-5.313-8.414c-0.996-4.221-0.731-7.841,0.785-10.862
		c1.519-3.016,3.961-5.084,7.335-6.199c2.942-0.973,5.552-0.849,7.823,0.38c1.354,0.717,2.54,2.005,3.568,3.854l-4.529,2.802
		c-0.591-1.224-1.431-2.066-2.518-2.527c-1.082-0.464-2.271-0.479-3.56-0.053c-1.782,0.59-3.075,1.742-3.866,3.462
		c-0.792,1.713-0.832,4.081-0.119,7.104c0.756,3.206,1.839,5.312,3.258,6.306c1.414,1.003,2.998,1.211,4.747,0.633
		c1.295-0.428,2.303-1.226,3.028-2.401C106.28,247.989,106.624,246.404,106.597,244.415L106.597,244.415z M116.261,223.934
		l2.199,9.322c1.059-2.323,2.619-3.831,4.687-4.516c1.065-0.352,2.068-0.454,3.023-0.324c0.949,0.132,1.719,0.45,2.303,0.951
		c0.584,0.507,1.05,1.122,1.393,1.856c0.346,0.725,0.713,1.921,1.101,3.568l2.541,10.775l-4.612,1.524l-2.289-9.706
		c-0.454-1.925-0.832-3.117-1.128-3.579c-0.303-0.46-0.706-0.766-1.222-0.927c-0.516-0.16-1.106-0.13-1.773,0.09
		c-0.768,0.254-1.405,0.675-1.912,1.269c-0.514,0.59-0.816,1.327-0.904,2.209c-0.095,0.884,0.041,2.099,0.404,3.64l2.171,9.205
		l-4.613,1.524l-5.979-25.357L116.261,223.934L116.261,223.934z M146.904,234.839l4.793-0.713c-0.175,1.974-0.787,3.634-1.847,4.983
		c-1.052,1.354-2.54,2.342-4.458,2.976c-3.032,1.002-5.519,0.704-7.469-0.904c-1.543-1.291-2.619-3.214-3.219-5.758
		c-0.719-3.047-0.524-5.683,0.582-7.906c1.102-2.223,2.81-3.717,5.118-4.479c2.596-0.858,4.854-0.632,6.782,0.679
		c1.923,1.312,3.292,3.838,4.108,7.584l-11.563,3.822c0.373,1.43,1.008,2.429,1.907,2.991c0.901,0.567,1.888,0.674,2.947,0.324
		c0.723-0.239,1.279-0.646,1.675-1.223C146.656,236.633,146.874,235.842,146.904,234.839L146.904,234.839z M146.009,229.839
		c-0.366-1.399-0.96-2.354-1.789-2.87c-0.828-0.516-1.716-0.616-2.657-0.305c-1.009,0.333-1.747,0.997-2.22,1.987
		c-0.476,0.984-0.553,2.143-0.229,3.467L146.009,229.839L146.009,229.839z M169.935,241.061l-2.179-9.24
		c-0.412,1.021-1.004,1.917-1.788,2.691c-0.79,0.776-1.703,1.333-2.74,1.676c-1.984,0.656-3.801,0.41-5.447-0.732
		c-1.947-1.335-3.284-3.572-4.023-6.708c-0.696-2.952-0.533-5.488,0.495-7.61c1.027-2.128,2.592-3.535,4.694-4.23
		c1.16-0.384,2.225-0.456,3.193-0.216c0.975,0.237,1.911,0.775,2.814,1.609l-0.641-2.717l4.254-1.406l5.98,25.358L169.935,241.061
		L169.935,241.061z M166.213,224.611c-0.443-1.877-1.137-3.156-2.082-3.83c-0.938-0.677-1.961-0.835-3.054-0.474
		c-1.121,0.371-1.941,1.145-2.473,2.326c-0.531,1.181-0.557,2.786-0.078,4.817c0.477,2.02,1.184,3.352,2.118,4.01
		c0.933,0.652,1.93,0.807,2.989,0.457c1.065-0.353,1.877-1.162,2.437-2.429C166.635,228.22,166.681,226.595,166.213,224.611z
		 M188.913,227.252l-0.649-2.751c-0.407,1.191-1.061,2.24-1.958,3.148c-0.904,0.903-1.931,1.548-3.08,1.928
		c-1.171,0.388-2.283,0.463-3.34,0.233c-1.059-0.236-1.911-0.775-2.563-1.616c-0.646-0.844-1.174-2.133-1.582-3.862l-2.739-11.62
		l4.612-1.524l1.989,8.437c0.61,2.586,1.067,4.141,1.379,4.668c0.305,0.522,0.722,0.882,1.251,1.076s1.14,0.17,1.829-0.058
		c0.79-0.262,1.443-0.72,1.958-1.379c0.514-0.667,0.808-1.368,0.879-2.117c0.069-0.755-0.202-2.447-0.822-5.074l-1.826-7.747
		l4.612-1.524l4.332,18.367L188.913,227.252L188.913,227.252z M206.693,215.073l4.792-0.712c-0.175,1.973-0.786,3.633-1.846,4.982
		c-1.052,1.354-2.541,2.342-4.458,2.976c-3.032,1.003-5.52,0.705-7.47-0.903c-1.543-1.291-2.618-3.214-3.219-5.759
		c-0.718-3.047-0.524-5.682,0.583-7.906c1.101-2.223,2.809-3.716,5.118-4.479c2.595-0.858,4.854-0.631,6.782,0.679
		c1.923,1.313,3.291,3.838,4.108,7.584l-11.563,3.822c0.374,1.43,1.008,2.43,1.908,2.991c0.901,0.567,1.887,0.675,2.946,0.324
		c0.724-0.239,1.279-0.646,1.676-1.223C206.445,216.867,206.663,216.076,206.693,215.073L206.693,215.073z M205.797,210.074
		c-0.366-1.399-0.96-2.355-1.788-2.871s-1.717-0.616-2.658-0.305c-1.009,0.333-1.746,0.997-2.22,1.987
		c-0.475,0.984-0.552,2.143-0.228,3.468L205.797,210.074L205.797,210.074z M220.088,189.61l9.624-3.182
		c1.906-0.63,3.349-1.018,4.325-1.156c0.976-0.144,1.893-0.071,2.758,0.216c0.865,0.286,1.642,0.787,2.344,1.51
		c0.7,0.717,1.181,1.627,1.438,2.719c0.28,1.188,0.235,2.379-0.137,3.571c-0.377,1.194-1.025,2.21-1.945,3.049
		c1.569-0.035,2.882,0.358,3.922,1.18c1.046,0.825,1.739,1.971,2.085,3.435c0.271,1.151,0.283,2.356,0.031,3.617
		c-0.254,1.255-0.743,2.358-1.47,3.299s-1.72,1.701-2.979,2.283c-0.786,0.355-2.729,1.062-5.822,2.109l-8.194,2.709L220.088,189.61
		L220.088,189.61z M225.949,192.223l1.382,5.863l3.185-1.053c1.894-0.627,3.064-1.045,3.51-1.256
		c0.806-0.375,1.391-0.893,1.749-1.552c0.357-0.659,0.438-1.398,0.244-2.22c-0.186-0.785-0.537-1.355-1.063-1.711
		c-0.53-0.353-1.211-0.446-2.042-0.279c-0.495,0.101-1.887,0.528-4.174,1.284L225.949,192.223z M228.327,202.307l1.599,6.778
		l4.495-1.486c1.754-0.58,2.853-0.994,3.299-1.256c0.69-0.375,1.198-0.912,1.527-1.593c0.327-0.688,0.388-1.484,0.176-2.382
		c-0.18-0.762-0.511-1.346-0.983-1.762c-0.479-0.415-1.075-0.638-1.794-0.661s-2.187,0.335-4.395,1.064L228.327,202.307
		L228.327,202.307z M247.012,197.862c-0.38-1.612-0.368-3.303,0.026-5.063c0.402-1.756,1.199-3.267,2.397-4.516
		c1.196-1.254,2.648-2.167,4.358-2.732c2.634-0.871,5.011-0.683,7.124,0.565c2.113,1.249,3.491,3.251,4.142,6.008
		c0.654,2.775,0.346,5.359-0.922,7.751c-1.271,2.394-3.198,4.011-5.782,4.865c-1.603,0.529-3.211,0.653-4.843,0.372
		c-1.631-0.282-2.998-1.033-4.102-2.253C248.314,201.638,247.51,199.975,247.012,197.862L247.012,197.862z M251.804,196.558
		c0.43,1.823,1.168,3.082,2.22,3.778c1.047,0.697,2.176,0.846,3.381,0.447s2.1-1.216,2.685-2.452c0.59-1.239,0.668-2.78,0.231-4.628
		c-0.423-1.795-1.159-3.047-2.206-3.744c-1.041-0.7-2.164-0.851-3.369-0.452s-2.105,1.218-2.695,2.457
		C251.454,193.205,251.375,194.74,251.804,196.558L251.804,196.558z M267.555,191.071c-0.381-1.612-0.368-3.303,0.026-5.063
		c0.401-1.756,1.199-3.267,2.396-4.516c1.196-1.255,2.649-2.167,4.358-2.732c2.635-0.871,5.012-0.683,7.124,0.566
		c2.113,1.248,3.491,3.25,4.142,6.007c0.654,2.775,0.346,5.359-0.921,7.751c-1.272,2.394-3.199,4.011-5.783,4.865
		c-1.603,0.529-3.211,0.654-4.842,0.372c-1.632-0.282-2.999-1.032-4.103-2.253C268.856,194.847,268.053,193.184,267.555,191.071
		L267.555,191.071z M272.346,189.767c0.431,1.824,1.168,3.082,2.221,3.778c1.047,0.697,2.175,0.846,3.38,0.447
		s2.101-1.216,2.685-2.452c0.59-1.239,0.668-2.779,0.232-4.628c-0.424-1.795-1.16-3.047-2.207-3.744
		c-1.041-0.7-2.164-0.851-3.369-0.452s-2.105,1.218-2.695,2.457C271.996,186.414,271.917,187.948,272.346,189.767L272.346,189.767z
		 M291.227,193.428l-5.98-25.358l4.619-1.527l3.173,13.456l3.873-8.25l5.684-1.879l-4.377,8.677l9.134,9.551l-4.971,1.644
		l-6.334-6.797l-1.589,3.077l1.387,5.88L291.227,193.428L291.227,193.428z"/>
</g>
<rect x="0" y="0" fill="none" width="491.52" height="491.52"/>
</svg>
