<svg id="Capa_1" enable-background="new 0 0 512 512" height="512" viewBox="0 0 512 512" width="512" xmlns="http://www.w3.org/2000/svg"><g><g><path d="m57.73 379.863h-42.73v-247.726h422.251c4.142 0 7.5-3.358 7.5-7.5s-3.358-7.5-7.5-7.5h-429.751c-4.142 0-7.5 3.358-7.5 7.5v262.726c0 4.142 3.358 7.5 7.5 7.5h50.23c4.142 0 7.5-3.358 7.5-7.5s-3.358-7.5-7.5-7.5z"/><path d="m504.5 117.137h-32.336c-4.142 0-7.5 3.358-7.5 7.5s3.358 7.5 7.5 7.5h24.836v247.726h-404.196c-4.142 0-7.5 3.358-7.5 7.5s3.358 7.5 7.5 7.5h411.696c4.142 0 7.5-3.358 7.5-7.5v-262.726c0-4.142-3.358-7.5-7.5-7.5z"/><path d="m188.804 191.329v-34.356c0-4.142-3.358-7.5-7.5-7.5h-141.468c-4.142 0-7.5 3.358-7.5 7.5v34.356c0 4.142 3.358 7.5 7.5 7.5h141.468c4.142 0 7.5-3.358 7.5-7.5zm-15-7.5h-126.468v-19.356h126.468z"/><path d="m120.675 362.527h141.468c4.142 0 7.5-3.358 7.5-7.5v-34.356c0-4.142-3.358-7.5-7.5-7.5h-141.468c-4.142 0-7.5 3.358-7.5 7.5v34.356c0 4.143 3.358 7.5 7.5 7.5zm7.5-34.356h126.468v19.356h-126.468z"/><path d="m161.094 248.5h-40.419c-4.142 0-7.5 3.358-7.5 7.5s3.358 7.5 7.5 7.5h40.419c4.142 0 7.5-3.358 7.5-7.5s-3.358-7.5-7.5-7.5z"/><path d="m161.094 216.164h-40.419c-4.142 0-7.5 3.358-7.5 7.5s3.358 7.5 7.5 7.5h40.419c4.142 0 7.5-3.358 7.5-7.5s-3.358-7.5-7.5-7.5z"/><path d="m477.628 284.043c-2.929-2.929-7.678-2.929-10.606 0l-14.48 14.48v-9.689c0-4.998-2.961-9.516-7.545-11.51-4.583-1.993-9.907-1.08-13.564 2.327l-23.352 21.76v-13.795c0-4.845-2.707-9.171-7.065-11.289-4.358-2.119-9.432-1.574-13.243 1.419l-90.854 71.385c-3.257 2.559-3.823 7.274-1.264 10.531 1.479 1.883 3.68 2.867 5.902 2.867 1.622 0 3.255-.523 4.629-1.603l86.894-68.274v14.385c0 4.999 2.961 9.517 7.545 11.51 4.583 1.996 9.909 1.081 13.565-2.327l23.352-21.759v9.971c0 5.095 3.042 9.646 7.749 11.597 4.708 1.949 10.077.881 13.68-2.721l18.658-18.658c2.928-2.93 2.928-7.679-.001-10.607z"/><path d="m87.374 292.645c2.129-12.665-4.744-24.11-17.103-28.479-1.089-.385-2.156-.765-3.199-1.143v-20.45c1.685.817 2.738 1.673 2.88 1.794 3.085 2.711 7.786 2.437 10.534-.629 2.765-3.084 2.506-7.826-.578-10.591-2.559-2.294-7.116-5.079-12.836-6.387v-3.095c0-4.142-3.358-7.5-7.5-7.5s-7.5 3.358-7.5 7.5v3.636c-.428.132-.858.274-1.29.429-8.555 3.07-14.85 10.193-16.43 18.59-1.456 7.736 1.215 15.227 7.329 20.552 2.831 2.466 6.325 4.475 10.392 6.321v27.667c-2.658-.49-4.837-1.534-8.13-3.689-3.467-2.268-8.115-1.296-10.382 2.17-2.268 3.466-1.296 8.115 2.17 10.382 6.194 4.052 10.75 5.673 16.342 6.252v3.694c0 4.142 3.358 7.5 7.5 7.5s7.5-3.358 7.5-7.5v-4.422c11.381-3.106 18.673-12.919 20.301-22.602zm-35.841-37.084c-2.597-2.262-2.76-4.765-2.439-6.467.357-1.897 1.429-3.638 2.979-5.015v11.921c-.186-.146-.371-.292-.54-.439zm21.048 34.597c-.542 3.224-2.409 6.598-5.509 8.77v-19.839c6.075 3.073 5.915 8.659 5.509 11.069z"/><path d="m193.43 263.5h137.426c4.142 0 7.5-3.358 7.5-7.5s-3.358-7.5-7.5-7.5h-137.426c-4.142 0-7.5 3.358-7.5 7.5s3.358 7.5 7.5 7.5z"/><path d="m161.094 280.835h-40.419c-4.142 0-7.5 3.358-7.5 7.5s3.358 7.5 7.5 7.5h40.419c4.142 0 7.5-3.358 7.5-7.5s-3.358-7.5-7.5-7.5z"/><path d="m338.357 288.335c0-4.142-3.358-7.5-7.5-7.5h-137.427c-4.142 0-7.5 3.358-7.5 7.5s3.358 7.5 7.5 7.5h137.426c4.143 0 7.501-3.358 7.501-7.5z"/><path d="m411.695 347.528c-4.142 0-7.5 3.358-7.5 7.5s3.358 7.5 7.5 7.5h60.63c4.142 0 7.5-3.358 7.5-7.5s-3.358-7.5-7.5-7.5z"/><path d="m472.325 216.164h-278.895c-4.142 0-7.5 3.358-7.5 7.5s3.358 7.5 7.5 7.5h278.895c4.142 0 7.5-3.358 7.5-7.5s-3.358-7.5-7.5-7.5z"/></g></g></svg>