<?xml version="1.0" encoding="utf-8"?>
<!-- Generator: Adobe Illustrator 16.0.0, SVG Export Plug-In . SVG Version: 6.00 Build 0)  -->
<!DOCTYPE svg PUBLIC "-//W3C//DTD SVG 1.1//EN" "http://www.w3.org/Graphics/SVG/1.1/DTD/svg11.dtd">
<svg version="1.1" id="Capa_1" xmlns="http://www.w3.org/2000/svg" xmlns:xlink="http://www.w3.org/1999/xlink" x="0px" y="0px"
	 width="841.889px" height="595.281px" viewBox="0 0 841.889 595.281" enable-background="new 0 0 841.889 595.281"
	 xml:space="preserve">
<g>
	<g>
		<path d="M715.18,87.848c-4.541-4.539-11.9-4.539-16.443,0c-23.765,23.766-41.463,54.008-51.18,87.456
			c-0.63,2.165-1.324,4.389-2.061,6.606c-11.996,36.008-33.164,62.328-34.063,63.433c-0.349,0.43-0.718,0.841-1.1,1.224
			c-5.646,5.645-14.59,6.1-20.805,1.055c-2.852-2.315-4.662-5.44-5.385-8.778c-0.022-0.081-0.037-0.164-0.06-0.245
			c-0.88-4.397,0.13-9.14,3.173-12.887c0.176-0.218,17.646-21.963,27.772-50.864c13.826-39.457,7.815-73.63-17.382-98.828
			c-11.341-11.34-26.255-17.808-42-18.212c-15.976-0.425-30.841,5.443-41.878,16.479c-11.33,11.328-17.173,26.59-16.454,42.976
			c0.377,8.578-6.295,15.864-14.873,16.242c-8.576,0.382-15.866-6.297-16.242-14.874c-1.092-24.85,8.217-49.04,25.545-66.367
			c23.76-23.758,58.821-31.745,91.498-20.843c17.631,5.88,36.674,1.451,49.688-11.563c4.54-4.54,4.54-11.902,0-16.443
			c-4.541-4.539-11.901-4.539-16.443,0c-6.745,6.746-16.663,9.024-25.888,5.947c-41.09-13.707-85.271-3.571-115.299,26.456
			c-21.925,21.928-33.711,52.483-32.333,83.832c0.415,9.44,4.192,17.945,10.117,24.428l-16.015,16.016
			c-1.531-2.617-3.398-5.043-5.56-7.204l-0.703-0.703c-13.88-13.878-36.461-13.879-50.341,0.001
			c-13.879,13.88-13.879,36.461,0,50.34l0.706,0.704c2.161,2.161,4.584,4.027,7.201,5.559l-19.602,19.601
			c-3.119,3.119-5.158,6.902-6.172,10.896c-3.993,1.014-7.776,3.053-10.896,6.171l-19.601,19.6
			c-1.529-2.616-3.398-5.041-5.559-7.202l-0.703-0.703c-13.88-13.88-36.461-13.879-50.341,0c-13.879,13.88-13.879,36.461,0,50.341
			l0.703,0.703c2.162,2.16,4.586,4.028,7.203,5.559l-16.018,16.019c-6.488-5.928-15.002-9.705-24.446-10.121
			c-31.34-1.385-61.903,10.406-83.83,32.334c-30.025,30.024-40.164,74.205-26.458,115.298c3.076,9.223,0.799,19.143-5.947,25.888
			c-4.54,4.54-4.54,11.901,0,16.443c4.541,4.539,11.9,4.539,16.443,0c13.014-13.015,17.445-32.055,11.563-49.688
			c-10.901-32.681-2.913-67.742,20.844-91.498c17.325-17.325,41.49-26.64,66.366-25.547c8.578,0.378,15.25,7.666,14.875,16.242
			c-0.378,8.58-7.656,15.236-16.242,14.875c-16.374-0.716-31.646,5.121-42.977,16.452c-22.647,22.647-21.868,60.275,1.733,83.879
			c18.242,18.242,38.974,24.634,59.073,24.633c46.715-0.003,90.009-34.526,90.625-35.027c6.666-5.41,16.493-4.388,21.904,2.279
			c5.043,6.214,4.589,15.157-1.048,20.796c-0.391,0.391-0.804,0.763-1.23,1.108c-1.103,0.896-27.433,22.067-63.435,34.063
			c-2.183,0.728-4.406,1.42-6.604,2.059c-33.45,9.718-63.69,27.415-87.455,51.182c-4.54,4.54-4.54,11.9,0,16.442
			c2.271,2.271,5.246,3.405,8.22,3.405c2.977,0,5.952-1.136,8.223-3.405c21.002-21.003,47.802-36.665,77.499-45.294
			c2.488-0.722,5.002-1.507,7.469-2.329c39.971-13.316,69.498-37.063,70.736-38.066c1.042-0.845,2.053-1.757,3.014-2.715
			c14.092-14.096,15.237-36.407,2.666-51.898c-0.083-0.103-0.171-0.196-0.255-0.298l16.1-16.1c1.531,2.617,3.398,5.043,5.56,7.203
			l0.703,0.703c13.88,13.878,36.461,13.879,50.341-0.001c13.879-13.88,13.879-36.461,0-50.34l-0.703-0.703
			c-2.162-2.161-4.587-4.028-7.204-5.56l19.602-19.601c3.119-3.119,5.158-6.902,6.172-10.896c3.993-1.014,7.776-3.053,10.896-6.171
			l25.629-25.629c4.403-4.403,6.141-10.882,4.531-16.906c-1.599-5.991-6.304-10.715-12.281-12.329
			c-2.09-0.563-3.936-1.633-5.482-3.182l-0.703-0.703c-4.814-4.813-4.814-12.644,0-17.455c4.811-4.813,12.641-4.814,17.454,0
			l0.704,0.703c1.549,1.548,2.619,3.393,3.183,5.485c1.613,5.975,6.336,10.681,12.328,12.279c6.024,1.611,12.502-0.13,16.906-4.532
			l22.116-22.116c0.104,0.086,0.202,0.178,0.308,0.263c7.193,5.838,15.855,8.718,24.483,8.718c9.956,0,19.865-3.835,27.417-11.385
			c0.947-0.949,1.861-1.963,2.712-3.012c1.005-1.235,24.75-30.757,38.07-70.741c0.834-2.502,1.616-5.015,2.328-7.465
			c8.628-29.697,24.29-56.497,45.293-77.5C719.721,99.75,719.721,92.388,715.18,87.848z M334.39,445.854
			c-0.726,0.582-73.063,57.599-118.631,12.031c-14.536-14.536-15.314-37.411-1.734-50.991c6.664-6.662,15.759-10.092,25.512-9.665
			c14.929,0.672,28.268-7.238,35.296-19.341l8.583,8.582c-2.652,1.542-5.111,3.429-7.304,5.621l-0.695,0.697
			c-6.724,6.723-10.428,15.662-10.428,25.169c0,9.51,3.704,18.448,10.427,25.171c13.88,13.877,36.458,13.877,50.348-0.008
			l0.694-0.696c2.188-2.188,4.074-4.644,5.616-7.297l7.294,7.295C337.647,443.422,335.982,444.563,334.39,445.854z M456.673,350.422
			l-25.629,25.628c-4.405,4.405-6.142,10.885-4.531,16.91c1.6,5.991,6.306,10.714,12.279,12.325
			c2.091,0.563,3.936,1.635,5.484,3.184l0.704,0.703c4.812,4.813,4.812,12.643,0.001,17.455c-4.814,4.81-12.645,4.813-17.456,0
			l-0.706-0.704c-1.548-1.548-2.618-3.392-3.181-5.482c-1.612-5.975-6.333-10.682-12.326-12.281
			c-6.028-1.612-12.504,0.127-16.909,4.532l-25.628,25.629c-0.078,0.077-0.182,0.11-0.284,0.117
			c-0.055-0.014-0.108-0.03-0.163-0.044c-0.062-0.021-0.129-0.024-0.178-0.073l-25.684-25.684c-3.319-3.32-7.814-5.126-12.406-5.126
			c-1.514,0-3.038,0.196-4.534,0.6c-6.003,1.616-10.722,6.344-12.313,12.341c-0.554,2.08-1.657,3.992-3.203,5.537l-0.695,0.698
			c-4.813,4.81-12.644,4.813-17.457,0c-2.331-2.331-3.615-5.431-3.615-8.729c0-3.296,1.284-6.396,3.623-8.733l0.694-0.696
			c1.563-1.562,3.424-2.639,5.533-3.196c5.994-1.591,10.723-6.308,12.339-12.31c1.626-6.034-0.106-12.526-4.522-16.944
			l-25.657-25.656c-0.173-0.172-0.173-0.452,0-0.624l25.62-25.62c0.002-0.004,0.005-0.006,0.008-0.009
			c4.404-4.404,6.142-10.882,4.532-16.906c-1.599-5.991-6.304-10.715-12.281-12.329c-2.091-0.563-3.936-1.633-5.483-3.182
			l-0.703-0.703c-2.331-2.332-3.614-5.432-3.614-8.728c0-3.297,1.283-6.396,3.614-8.728s5.431-3.615,8.727-3.615
			c3.298,0,6.397,1.284,8.729,3.615l0.703,0.703c1.549,1.548,2.62,3.393,3.183,5.483c1.611,5.975,6.333,10.68,12.325,12.28
			c6.023,1.604,12.503-0.126,16.909-4.531l25.629-25.629c0.172-0.172,0.452-0.172,0.624,0l19.329,19.328
			c-2.107,1.364-4.077,2.949-5.854,4.728l-0.704,0.703c-13.878,13.879-13.878,36.46,0,50.341
			c6.723,6.723,15.662,10.426,25.169,10.426c9.51,0,18.448-3.703,25.171-10.426l0.703-0.703c1.801-1.802,3.383-3.754,4.736-5.846
			l19.349,19.348C456.845,349.97,456.845,350.25,456.673,350.422z M561.637,245.46l-19.6,19.598
			c-1.529-2.616-3.398-5.041-5.559-7.202l-0.703-0.703c-13.88-13.88-36.461-13.879-50.341,0c-13.879,13.88-13.879,36.461,0,50.341
			l0.703,0.703c2.162,2.16,4.587,4.028,7.203,5.559l-19.601,19.601c-0.172,0.172-0.452,0.172-0.624,0l-25.063-25.063
			c-4.321-4.32-10.453-6.064-16.409-4.658c-5.92,1.396-10.6,5.666-12.523,11.424c-0.604,1.813-1.605,3.425-2.976,4.795l-0.703,0.703
			c-4.813,4.813-12.643,4.811-17.455,0.001c-4.812-4.813-4.812-12.644,0-17.456l0.703-0.703c1.371-1.371,2.983-2.372,4.797-2.978
			c5.756-1.922,10.026-6.605,11.422-12.524c1.403-5.954-0.34-12.088-4.66-16.407l-25.032-25.032c-0.172-0.172-0.172-0.452,0-0.624
			l25.629-25.629c4.405-4.405,6.142-10.885,4.531-16.91c-1.6-5.99-6.306-10.714-12.279-12.325c-2.09-0.563-3.936-1.635-5.484-3.183
			l-0.703-0.704c-4.813-4.812-4.813-12.643-0.002-17.455c4.813-4.811,12.644-4.813,17.456,0l0.704,0.704
			c1.549,1.549,2.62,3.394,3.183,5.482c1.612,5.974,6.333,10.681,12.324,12.28c6.025,1.61,12.504-0.126,16.911-4.531l25.629-25.628
			c0.172-0.172,0.452-0.172,0.624,0l25.032,25.032c4.323,4.321,10.457,6.063,16.412,4.658c5.92-1.396,10.6-5.667,12.521-11.422
			c0.605-1.813,1.606-3.425,2.971-4.789l0.71-0.71c2.331-2.331,5.431-3.615,8.728-3.615s6.396,1.284,8.728,3.616
			c2.331,2.331,3.614,5.431,3.614,8.729c0,3.296-1.283,6.396-3.614,8.727l-0.702,0.702c-1.372,1.371-2.985,2.372-4.799,2.978
			c-5.755,1.922-10.025,6.604-11.422,12.523c-1.404,5.952,0.338,12.087,4.659,16.41l25.062,25.062
			c0.046,0.047,0.049,0.11,0.069,0.169c0.015,0.059,0.031,0.117,0.046,0.176C561.744,245.281,561.714,245.383,561.637,245.46z
			 M569.197,211.06c-1.298,1.599-2.444,3.272-3.446,5l-7.028-7.028c2.107-1.363,4.077-2.948,5.856-4.727l0.703-0.703
			c13.879-13.88,13.879-36.461,0-50.34c-6.723-6.724-15.662-10.428-25.17-10.428c-9.509,0-18.447,3.704-25.164,10.42l-0.71,0.709
			c-1.778,1.777-3.365,3.747-4.728,5.856l-8.296-8.296c12.091-7.032,19.987-20.372,19.332-35.286
			c-0.43-9.79,3.003-18.851,9.665-25.511c6.485-6.485,15.356-9.896,24.838-9.678c9.761,0.252,19.048,4.304,26.154,11.409
			C626.762,138.019,569.75,210.368,569.197,211.06z"/>
	</g>
</g>
<g>
	<g>
		<path d="M271.732,131.997l-43.339-43.34c-4.542-4.539-11.901-4.539-16.443,0c-4.54,4.54-4.54,11.902,0,16.443l43.34,43.34
			c2.271,2.27,5.246,3.405,8.222,3.405c2.975,0,5.95-1.136,8.221-3.405C276.272,143.9,276.272,136.538,271.732,131.997z"/>
	</g>
</g>
<g>
	<g>
		<path d="M300.969,161.234c-2.161-2.163-5.161-3.407-8.219-3.407c-3.059,0-6.058,1.243-8.22,3.407
			c-2.163,2.163-3.407,5.162-3.407,8.22c0,3.069,1.243,6.058,3.407,8.219c2.163,2.174,5.162,3.408,8.22,3.408
			s6.058-1.234,8.219-3.408c2.163-2.161,3.408-5.161,3.408-8.219S303.133,163.408,300.969,161.234z"/>
	</g>
</g>
<g>
	<g>
		<path d="M233.811,191.748c-0.001,0-0.004,0-0.005,0l-34.845,0.015c-6.422,0.003-11.624,5.21-11.622,11.632
			c0.002,6.419,5.208,11.622,11.627,11.622c0.001,0,0.003,0,0.004,0l34.846-0.016c6.421-0.002,11.624-5.21,11.621-11.631
			C245.435,196.951,240.23,191.748,233.811,191.748z"/>
	</g>
</g>
<g>
	<g>
		<path d="M338.344,75.67c-0.003-6.42-5.208-11.622-11.627-11.622c-0.001,0-0.003,0-0.005,0c-6.42,0.002-11.624,5.21-11.621,11.631
			l0.015,37.076c0.003,6.419,5.208,11.622,11.627,11.622c0.001,0,0.003,0,0.004,0c6.421-0.003,11.625-5.21,11.622-11.632
			L338.344,75.67z"/>
	</g>
</g>
<g>
	<g>
		<path d="M629.939,490.154l-43.338-43.339c-4.541-4.539-11.9-4.539-16.443,0c-4.54,4.54-4.54,11.902,0,16.443l43.339,43.339
			c2.271,2.27,5.246,3.405,8.222,3.405s5.95-1.136,8.221-3.405C634.48,502.057,634.48,494.696,629.939,490.154z"/>
	</g>
</g>
<g>
	<g>
		<path d="M555.906,416.123c-2.162-2.162-5.162-3.407-8.22-3.407s-6.058,1.244-8.22,3.407c-2.162,2.162-3.407,5.161-3.407,8.22
			c0,3.058,1.244,6.057,3.407,8.22c2.162,2.162,5.162,3.406,8.22,3.406s6.058-1.243,8.22-3.406c2.161-2.163,3.407-5.162,3.407-8.22
			C559.313,421.284,558.069,418.285,555.906,416.123z"/>
	</g>
</g>
<g>
	<g>
		<path d="M642.924,380.239c-0.002,0-0.004,0-0.005,0l-34.845,0.015c-6.422,0.003-11.625,5.21-11.622,11.632
			c0.002,6.419,5.207,11.622,11.626,11.622c0.002,0,0.004,0,0.005,0l34.845-0.016c6.422-0.002,11.625-5.21,11.622-11.631
			C654.548,385.442,649.344,380.239,642.924,380.239z"/>
	</g>
</g>
<g>
	<g>
		<path d="M526.783,482.501c-0.001-6.421-5.206-11.622-11.627-11.622c-0.001,0-0.003,0-0.004,0
			c-6.42,0.002-11.624,5.21-11.622,11.631l0.015,37.076c0.003,6.419,5.208,11.622,11.627,11.622c0.001,0,0.004,0,0.005,0
			c6.42-0.003,11.624-5.21,11.622-11.632L526.783,482.501z"/>
	</g>
</g>
</svg>
