<?xml version="1.0" encoding="iso-8859-1"?>
<!-- Generator: Adobe Illustrator 19.0.0, SVG Export Plug-In . SVG Version: 6.00 Build 0)  -->
<svg version="1.1" id="Capa_1" xmlns="http://www.w3.org/2000/svg" xmlns:xlink="http://www.w3.org/1999/xlink" x="0px" y="0px"
	 viewBox="0 0 512 512" style="enable-background:new 0 0 512 512;" xml:space="preserve">
<g>
	<g>
		<path d="M320.084,493.78c-1.215-5.386-6.558-8.77-11.954-7.555c-17,3.832-34.539,5.775-52.13,5.775C125.869,492,20,386.131,20,256
			c0-51.611,17.061-102.008,48.194-142.909c4.398,1.957,9.126,2.944,13.858,2.944c8.707,0,17.413-3.314,24.042-9.942
			c13.256-13.256,13.256-34.827,0-48.083c-13.258-13.256-34.826-13.256-48.084,0c-11.347,11.347-12.972,28.781-4.894,41.883
			C18.814,144.456,0,199.56,0,256c0,68.38,26.629,132.668,74.98,181.02C123.333,485.371,187.62,512,256,512
			c19.068,0,38.088-2.108,56.528-6.266C317.916,504.52,321.299,499.168,320.084,493.78z M72.152,72.152
			c5.459-5.458,14.342-5.458,19.799,0c5.459,5.459,5.459,14.341,0,19.799c-5.304,5.306-13.838,5.439-19.323,0.43
			c-0.11-0.099-0.212-0.204-0.328-0.299c-0.005-0.004-0.01-0.007-0.015-0.011c-0.043-0.042-0.09-0.077-0.133-0.12
			C66.693,86.493,66.693,77.611,72.152,72.152z"/>
	</g>
</g>
<g>
	<g>
		<path d="M356.926,480.579c-2.083-5.113-7.893-7.582-13.011-5.496c-5.159,1.97-7.745,7.749-5.774,12.909
			c1.521,3.985,5.316,6.436,9.344,6.436c1.186,0,2.392-0.213,3.565-0.661l0.365-0.145
			C356.529,491.538,359.01,485.694,356.926,480.579z"/>
	</g>
</g>
<g>
	<g>
		<path d="M173.276,23.957c-2.106-5.104-7.959-7.535-13.067-5.427c-5.128,2.051-7.622,7.871-5.571,12.999
			c1.563,3.909,5.318,6.288,9.287,6.288c1.236,0,2.493-0.23,3.711-0.718l0.218-0.088C172.959,34.905,175.381,29.063,173.276,23.957z
			"/>
	</g>
</g>
<g>
	<g>
		<path d="M512,256c0-68.38-26.629-132.667-74.98-181.019C388.667,26.628,324.38,0,256,0c-20.836,0-41.563,2.512-61.607,7.465
			c-5.361,1.325-8.634,6.746-7.309,12.107c1.325,5.361,6.743,8.634,12.107,7.309C217.666,22.315,236.779,20,256,20
			c130.131,0,236,105.869,236,236c0,51.612-17.061,102.009-48.194,142.909c-12.49-5.559-27.668-3.232-37.9,6.999
			c-13.255,13.256-13.255,34.826,0,48.082c0,0.001,0,0.001,0.001,0.001c6.628,6.628,15.334,9.941,24.041,9.941
			c8.706,0,17.413-3.314,24.042-9.942c11.346-11.346,12.971-28.78,4.893-41.882C493.186,367.545,512,312.441,512,256z
			 M439.849,439.848c-5.459,5.459-14.341,5.459-19.8,0c-5.458-5.459-5.458-14.342,0-19.799c5.313-5.311,13.854-5.438,19.339-0.417
			c0.105,0.094,0.203,0.195,0.313,0.285c0.005,0.004,0.011,0.008,0.016,0.012c0.043,0.042,0.089,0.077,0.132,0.119
			C445.306,425.507,445.306,434.39,439.849,439.848z"/>
	</g>
</g>
<g>
	<g>
		<path d="M440.417,218.528l-27.815-6.93l-14.476-34.93l14.761-24.557c2.366-3.935,1.748-8.976-1.499-12.223l-39.277-39.277
			c-3.248-3.247-8.289-3.864-12.224-1.5l-24.556,14.761l-34.93-14.476L293.47,71.58c-1.109-4.456-5.111-7.583-9.703-7.583h-55.535
			c-4.592,0-8.594,3.127-9.703,7.583l-6.931,27.816l-34.93,14.476l-24.556-14.761c-3.935-2.366-8.977-1.748-12.224,1.5
			l-39.277,39.277c-3.247,3.247-3.865,8.288-1.499,12.223l14.761,24.557l-14.476,34.93l-27.815,6.93
			c-4.456,1.11-7.583,5.112-7.583,9.704v55.535c0,4.592,3.127,8.594,7.583,9.703l27.815,6.931l14.476,34.93l-14.761,24.556
			c-2.366,3.936-1.748,8.977,1.499,12.224l39.277,39.277c3.248,3.246,8.289,3.864,12.224,1.499l24.556-14.761l34.93,14.476
			l6.931,27.815c1.109,4.456,5.111,7.583,9.703,7.583h55.535c4.592,0,8.594-3.127,9.703-7.583l6.931-27.815l34.93-14.476
			l24.556,14.761c3.935,2.365,8.976,1.747,12.224-1.499l39.277-39.277c3.247-3.248,3.865-8.289,1.499-12.224l-14.761-24.556
			l14.476-34.93l27.815-6.931c4.456-1.109,7.583-5.111,7.583-9.703v-55.535C448,223.64,444.873,219.639,440.417,218.528z
			 M428,275.953l-25.124,6.26c-3.077,0.766-5.607,2.946-6.821,5.875l-18.336,44.245c-1.214,2.93-0.967,6.262,0.668,8.98
			l13.333,22.18l-28.227,28.227l-22.18-13.333c-2.717-1.634-6.049-1.883-8.98-0.668l-44.245,18.336
			c-2.929,1.214-5.109,3.744-5.875,6.821L275.953,428h-39.906l-6.26-25.124c-0.766-3.077-2.946-5.607-5.875-6.821l-44.245-18.336
			c-2.931-1.216-6.263-0.966-8.98,0.668l-22.18,13.333l-28.227-28.227l13.333-22.18c1.635-2.719,1.882-6.051,0.668-8.98
			l-18.336-44.245c-1.214-2.929-3.744-5.109-6.821-5.875L84,275.953v-39.906l25.124-6.259c3.077-0.767,5.607-2.946,6.821-5.875
			l18.336-44.245c1.214-2.93,0.967-6.262-0.668-8.98l-13.333-22.181l28.227-28.226l22.18,13.333c2.718,1.633,6.051,1.883,8.98,0.667
			l44.245-18.336c2.929-1.214,5.109-3.745,5.875-6.821L236.047,84h39.906l6.26,25.125c0.766,3.076,2.946,5.607,5.875,6.821
			l44.245,18.336c2.93,1.214,6.262,0.965,8.98-0.667l22.18-13.333l28.227,28.226l-13.333,22.181c-1.635,2.718-1.882,6.05-0.668,8.98
			l18.336,44.245c1.214,2.929,3.744,5.108,6.821,5.875L428,236.047V275.953z"/>
	</g>
</g>
<g>
	<g>
		<path d="M255.986,134.754c-67.271,0-122,54.729-122,122c0,25.158,7.656,48.561,20.758,68.004c0.321,0.582,0.699,1.126,1.125,1.63
			c22.066,31.629,58.712,52.366,100.116,52.366c67.271,0,122-54.729,122-122C377.986,189.483,323.258,134.754,255.986,134.754z
			 M168.982,309.938c-9.507-15.495-14.996-33.71-14.996-53.184c0-7.62,0.846-15.044,2.438-22.191h38.022
			c3.613,0,6.553,2.939,6.553,6.553c0,3.614-2.939,6.553-6.553,6.553H184c-11.83,0-21.455,9.625-21.455,21.455
			c0,11.83,9.625,21.454,21.455,21.454h38.063c5.338,0,9.68,4.343,9.68,9.68c0,5.337-4.342,9.68-9.68,9.68H168.982z
			 M255.986,358.754c-27.561,0-52.598-10.992-70.972-28.816h37.049c16.365,0,29.68-13.314,29.68-29.68
			c0-16.366-13.314-29.68-29.68-29.68H184c-0.803,0-1.455-0.652-1.455-1.455s0.652-1.455,1.455-1.455h10.447
			c14.642,0,26.553-11.912,26.553-26.553c0-14.641-11.911-26.552-26.553-26.552h-31.318c16.079-35.249,51.653-59.809,92.857-59.809
			c13.555,0,26.497,2.664,38.34,7.486c-14.498,0.787-26.052,12.828-26.052,27.519c0,15.198,12.364,27.563,27.562,27.563h3.121
			c3.934,0,7.134,3.2,7.134,7.134c0,3.934-3.2,7.134-7.134,7.134h-26.252c-14.726,0-26.705,11.98-26.705,26.705
			S257.979,285,272.705,285h81.3C341.725,327.547,302.433,358.754,255.986,358.754z M272.705,265c-3.697,0-6.705-3.009-6.705-6.706
			c0-3.697,3.008-6.705,6.705-6.705h26.252c14.962,0,27.134-12.172,27.134-27.134c0-14.962-12.172-27.134-27.134-27.134h-3.121
			c-4.17,0-7.562-3.393-7.562-7.563s3.392-7.562,7.562-7.562h29.678c19.966,18.631,32.472,45.159,32.472,74.557
			c0,2.777-0.115,5.526-0.334,8.247H272.705z"/>
	</g>
</g>
<g>
</g>
<g>
</g>
<g>
</g>
<g>
</g>
<g>
</g>
<g>
</g>
<g>
</g>
<g>
</g>
<g>
</g>
<g>
</g>
<g>
</g>
<g>
</g>
<g>
</g>
<g>
</g>
<g>
</g>
</svg>
