<?xml version="1.0" encoding="utf-8"?>
<!-- Generator: Adobe Illustrator 16.0.0, SVG Export Plug-In . SVG Version: 6.00 Build 0)  -->
<!DOCTYPE svg PUBLIC "-//W3C//DTD SVG 1.1//EN" "http://www.w3.org/Graphics/SVG/1.1/DTD/svg11.dtd">
<svg version="1.1" id="Capa_1" xmlns="http://www.w3.org/2000/svg" xmlns:xlink="http://www.w3.org/1999/xlink" x="0px" y="0px"
	 width="841.889px" height="595.281px" viewBox="0 0 841.889 595.281" enable-background="new 0 0 841.889 595.281"
	 xml:space="preserve">
<g>
	<g>
		<path d="M714.86,577.606l-49.606-39.685c-1.76-1.408-3.947-2.174-6.2-2.173h-94.559l-33.067-39.685h137.547
			c27.383-0.032,49.573-22.224,49.605-49.606V49.611c-0.032-27.383-22.223-49.574-49.605-49.606H172.915
			c-27.382,0.032-49.573,22.224-49.605,49.606v396.847c0.032,27.383,22.224,49.574,49.605,49.606h137.547l-33.066,39.685h-94.559
			c-2.254-0.001-4.441,0.765-6.201,2.173l-49.605,39.685c-4.28,3.421-4.975,9.665-1.553,13.944c1.884,2.354,4.737,3.727,7.753,3.725
			h575.428c5.479,0.003,9.924-4.437,9.926-9.916C718.586,582.343,717.216,579.49,714.86,577.606z M172.915,476.221
			c-16.438,0-29.764-13.325-29.764-29.764V49.611c0-16.438,13.326-29.764,29.764-29.764h496.059
			c16.438,0,29.764,13.325,29.764,29.764v396.847c0,16.438-13.325,29.764-29.764,29.764H172.915z M336.307,496.064h169.275
			l33.077,39.685H303.23L336.307,496.064z M161.516,575.433l24.803-19.843H655.59l24.783,19.843H161.516z"/>
	</g>
</g>
<g>
	<g>
		<path d="M668.974,39.689H172.915c-5.479,0-9.921,4.442-9.921,9.922v357.162c0,5.479,4.442,9.921,9.921,9.921h496.059
			c5.479,0,9.921-4.441,9.921-9.921V49.611C678.895,44.132,674.453,39.689,668.974,39.689z M659.053,396.852H182.837V59.532h476.216
			V396.852z"/>
	</g>
</g>
<g>
	<g>
		<rect x="371.339" y="436.537" width="99.211" height="19.842"/>
	</g>
</g>
<g>
	<g>
		<path d="M420.945,277.798V148.823c0-5.479-4.442-9.922-9.921-9.922h-89.291v-29.764c0-5.479-4.441-9.921-9.921-9.921h-89.29
			c-5.479,0-9.922,4.442-9.922,9.921v168.66h-9.921v19.843h109.133h119.054v-19.843H420.945z M301.891,277.798h-69.448V119.059
			h69.448V277.798z M371.339,277.798h-19.843v-29.764h19.843V277.798z M401.102,168.665H381.26v19.843h19.842v9.921H381.26v19.843
			h19.842v59.526h-9.921v-39.685c0-5.479-4.441-9.921-9.921-9.921h-39.685c-5.479,0-9.921,4.442-9.921,9.921v39.685h-9.922v-59.526
			h19.843v-19.843h-19.843v-9.921h19.843v-19.843h-19.843v-9.921h79.369V168.665z"/>
	</g>
</g>
<g>
	<g>
		<rect x="242.364" y="128.98" width="19.843" height="19.843"/>
	</g>
</g>
<g>
	<g>
		<rect x="272.127" y="128.98" width="19.843" height="19.843"/>
	</g>
</g>
<g>
	<g>
		<rect x="351.496" y="168.665" width="19.843" height="19.843"/>
	</g>
</g>
<g>
	<g>
		<rect x="351.496" y="198.428" width="19.843" height="19.843"/>
	</g>
</g>
<g>
	<g>
		<rect x="242.364" y="158.744" width="19.843" height="19.842"/>
	</g>
</g>
<g>
	<g>
		<rect x="272.127" y="158.744" width="19.843" height="19.842"/>
	</g>
</g>
<g>
	<g>
		<rect x="242.364" y="188.508" width="19.843" height="19.842"/>
	</g>
</g>
<g>
	<g>
		<rect x="272.127" y="188.508" width="19.843" height="19.842"/>
	</g>
</g>
<g>
	<g>
		<rect x="242.364" y="218.271" width="19.843" height="19.842"/>
	</g>
</g>
<g>
	<g>
		<rect x="272.127" y="218.271" width="19.843" height="19.842"/>
	</g>
</g>
<g>
	<g>
		<rect x="242.364" y="248.034" width="19.843" height="19.843"/>
	</g>
</g>
<g>
	<g>
		<rect x="272.127" y="248.034" width="19.843" height="19.843"/>
	</g>
</g>
<g>
	<g>
		<rect x="480.472" y="109.137" width="138.896" height="19.843"/>
	</g>
</g>
<g>
	<g>
		<rect x="520.156" y="138.901" width="59.527" height="19.843"/>
	</g>
</g>
<g>
	<g>
		<path d="M381.26,317.483H242.364c-5.479,0-9.921,4.441-9.921,9.921v39.685c0,5.479,4.442,9.921,9.921,9.921H381.26
			c5.479,0,9.921-4.442,9.921-9.921v-39.685C391.181,321.925,386.74,317.483,381.26,317.483z M371.339,357.168H252.284v-19.843
			h119.055V357.168z"/>
	</g>
</g>
<g>
	<g>
		<rect x="530.077" y="188.508" width="109.133" height="19.842"/>
	</g>
</g>
<g>
	<g>
		<rect x="460.629" y="188.508" width="49.605" height="19.842"/>
	</g>
</g>
<g>
	<g>
		<rect x="589.605" y="228.192" width="49.605" height="19.842"/>
	</g>
</g>
<g>
	<g>
		<rect x="460.629" y="228.192" width="109.133" height="19.842"/>
	</g>
</g>
<g>
	<g>
		<rect x="520.156" y="267.877" width="119.054" height="19.842"/>
	</g>
</g>
<g>
	<g>
		<rect x="460.629" y="267.877" width="39.685" height="19.842"/>
	</g>
</g>
<g>
	<g>
		<rect x="589.605" y="307.561" width="49.605" height="19.843"/>
	</g>
</g>
<g>
	<g>
		<rect x="460.629" y="307.561" width="109.133" height="19.843"/>
	</g>
</g>
</svg>
