<?xml version="1.0" encoding="utf-8"?>
<!-- Generator: Adobe Illustrator 16.0.0, SVG Export Plug-In . SVG Version: 6.00 Build 0)  -->
<!DOCTYPE svg PUBLIC "-//W3C//DTD SVG 1.1//EN" "http://www.w3.org/Graphics/SVG/1.1/DTD/svg11.dtd">
<svg version="1.1" id="Layer_1" xmlns="http://www.w3.org/2000/svg" xmlns:xlink="http://www.w3.org/1999/xlink" x="0px" y="0px"
	 width="496px" height="496px" viewBox="0 0 496 496" enable-background="new 0 0 496 496" xml:space="preserve">
<path d="M488,0H152c-4.426,0-8,3.574-8,8v216.406c-2.664-0.16-5.297-0.406-8-0.406C61.008,224,0,285.008,0,360s61.008,136,136,136
	s136-61.008,136-136c0-33.559-12.281-64.258-32.496-88H488c4.426,0,8-3.574,8-8V8C496,3.574,492.426,0,488,0z M136,480
	c-66.168,0-120-53.832-120-120s53.832-120,120-120s120,53.832,120,120S202.168,480,136,480z M480,256H223.457
	c-17.832-15.023-39.578-25.473-63.457-29.754V16h320V256z"/>
<path d="M448,120h16v120h-16V120z"/>
<path d="M448,88h16v16h-16V88z"/>
<path d="M416,152h16v88h-16V152z"/>
<path d="M416,120h16v16h-16V120z"/>
<path d="M384,184h16v56h-16V184z"/>
<path d="M384,152h16v16h-16V152z"/>
<path d="M320,200h16v40h-16V200z"/>
<path d="M320,168h16v16h-16V168z"/>
<path d="M352,168h16v72h-16V168z"/>
<path d="M352,136h16v16h-16V136z"/>
<path d="M347.313,88H384c2.129,0,4.16-0.84,5.656-2.344L416,59.312V88h16V40h-0.07c0-1.031-0.129-2.07-0.539-3.063
	C430.16,33.945,427.231,32,424,32h-48v16h28.688l-24,24H344c-2.129,0-4.16,0.84-5.656,2.344l-48,48l11.313,11.313L347.313,88z"/>
<path d="M191.223,340.566c-1.32-2.781-4.125-4.566-7.223-4.566h-25.863l16.727-27.879c1.488-2.473,1.52-5.547,0.105-8.066
	c-1.434-2.512-4.09-4.055-6.969-4.055h-48c-3.031,0-5.801,1.711-7.16,4.426l-32,64c-1.238,2.477-1.113,5.422,0.352,7.781
	S85.223,376,88,376h29.754l-13.508,54.063c-0.91,3.633,0.824,7.41,4.168,9.09c1.137,0.574,2.371,0.848,3.586,0.848
	c2.336,0,4.633-1.023,6.191-2.938l72-88C192.153,346.672,192.551,343.367,191.223,340.566z M128.426,399.297l7.336-29.359
	c0.598-2.395,0.063-4.922-1.457-6.859c-1.512-1.941-3.84-3.078-6.305-3.078h-27.055l24-48h28.918l-16.727,27.879
	c-1.488,2.473-1.52,5.547-0.105,8.066c1.434,2.512,4.09,4.055,6.969,4.055h23.121L128.426,399.297z"/>
<path d="M176,200h104v16H176V200z"/>
<path d="M176,168h104v16H176V168z"/>
<path d="M176,136h104v16H176V136z"/>
<path d="M208,80h23.352l-21.598,27l12.492,10l32-40c1.922-2.406,2.289-5.695,0.961-8.473C253.871,65.769,251.078,64,248,64h-25.863
	l16.727-27.879l-13.719-8.234l-24,40c-1.488,2.473-1.52,5.547-0.105,8.066C202.465,78.457,205.121,80,208,80z"/>
<path d="M136,448v16c57.344,0,104-46.656,104-104h-16C224,408.519,184.52,448,136,448z"/>
<path d="M136,256c-57.344,0-104,46.656-104,104h16c0-48.52,39.48-88,88-88V256z"/>
</svg>
