<?xml version="1.0" encoding="utf-8"?>
<!-- Generator: Adobe Illustrator 16.0.0, SVG Export Plug-In . SVG Version: 6.00 Build 0)  -->
<!DOCTYPE svg PUBLIC "-//W3C//DTD SVG 1.1//EN" "http://www.w3.org/Graphics/SVG/1.1/DTD/svg11.dtd">
<svg version="1.1" id="Capa_1" xmlns="http://www.w3.org/2000/svg" xmlns:xlink="http://www.w3.org/1999/xlink" x="0px" y="0px"
	 width="512px" height="512px" viewBox="0 0 512 512" enable-background="new 0 0 512 512" xml:space="preserve">
<g>
	<path d="M268.99,187.499c-5.751-9.959-20.195-10.016-25.979,0C221.201,228.11,211,235.56,211,255c0,24.813,20.187,45,45,45
		c24.813,0,45-20.187,45-45C301,235.542,290.514,227.579,268.99,187.499z M256,270c-8.271,0-15-6.729-15-15
		c0-6.687,3.042-8.215,15-30.005c11.974,21.818,15,23.318,15,30.005C271,263.271,264.271,270,256,270z"/>
	<path d="M406,0H106c-8.77,0-15.676,7.502-14.948,16.246l30,360C121.7,384.02,128.199,390,136,390h75v32h-15
		c-13.318,0-20.048,16.165-10.606,25.606l60,60c5.857,5.858,15.355,5.859,21.213,0l60-60C336.024,438.189,329.352,422,316,422h-15
		v-32h75c7.801,0,14.3-5.979,14.947-13.754l30-360C421.676,7.507,414.774,0,406,0z M389.698,30l-5.346,64.147
		C362.584,102.49,348.481,120,331,120c-22.717,0-40.423-30-75-30c-34.728,0-52.176,30-75,30c-17.485,0-31.557-17.499-53.353-25.853
		L122.302,30H389.698z M362.198,360H286c-8.284,0-15,6.717-15,15v62c0,6.433,4.048,11.92,9.735,14.051L256,475.787l-24.736-24.735
		c5.688-2.131,9.736-7.618,9.736-14.05v-62c0-8.284-6.716-15-15-15h-76.198l-19.208-230.503C144.909,138.652,159.67,150,181,150
		c34.727,0,52.176-30,75-30c22.717,0,40.423,30,75,30c21.019,0,35.449-10.937,50.405-20.502L362.198,360z"/>
</g>
</svg>
