<?xml version="1.0" encoding="utf-8"?>
<!-- Generator: Adobe Illustrator 16.0.0, SVG Export Plug-In . SVG Version: 6.00 Build 0)  -->
<!DOCTYPE svg PUBLIC "-//W3C//DTD SVG 1.1//EN" "http://www.w3.org/Graphics/SVG/1.1/DTD/svg11.dtd">
<svg version="1.1" id="Layer_3" xmlns="http://www.w3.org/2000/svg" xmlns:xlink="http://www.w3.org/1999/xlink" x="0px" y="0px"
	 width="512px" height="512px" viewBox="0 0 512 512" enable-background="new 0 0 512 512" xml:space="preserve">
<g>
	<path d="M216,184h80c4.416,0,8-3.584,8-8V80c0-4.416-3.584-8-8-8h-80c-4.416,0-8,3.584-8,8v96C208,180.416,211.584,184,216,184z
		 M224,168v-16h64v16H224z M224,136v-16h64v16H224z M288,88v16h-64V88H288z"/>
	<path d="M160,192H96c-4.416,0-8,3.584-8,8v64c0,4.416,3.584,8,8,8h64c4.416,0,8-3.584,8-8v-64C168,195.584,164.416,192,160,192z
		 M152,224h-16v-16h16V224z M120,208v16h-16v-16H120z M104,240h16v16h-16V240z M136,256v-16h16v16H136z"/>
	<path d="M306.44,344H448c4.415,0,8-3.584,8-8V158.944l35.56,23.712l8.872-13.312L392,97.056V48c0-22.056-17.944-40-40-40
		c-20.681,0-37.553,15.84-39.592,35.992L260.44,9.344c-2.688-1.792-6.184-1.792-8.872,0l-240,160l8.872,13.312L56,158.944V336
		c0,4.416,3.584,8,8,8h141.56C182.888,359.936,168,386.24,168,416c0,48.521,39.479,88,88,88c48.52,0,88-39.479,88-88
		C344,386.24,329.112,359.936,306.44,344z M328,48c0-13.231,10.768-24,24-24c13.231,0,24,10.769,24,24v38.385l-48-32V48z M72,148.28
		L256,25.616l120,80v41.44l-27.576,13.792C345.712,162.2,344,164.968,344,168v96c0,4.416,3.584,8,8,8h64c4.415,0,8-3.584,8-8v-96
		c0-3.031-1.713-5.8-4.425-7.16L392,147.056V116.28l48,32V328H312v-72c0-30.88-25.12-56-56-56s-56,25.12-56,56v72H72V148.28z
		 M392,164.944l16,8V256h-48v-83.056l16-8V192h16V164.944z M216,328v-72c0-22.056,17.943-40,40-40c22.056,0,40,17.944,40,40v72H216z
		 M256,488c-39.696,0-72-32.304-72-72c0-39.695,32.304-72,72-72c39.695,0,72,32.305,72,72C328,455.696,295.696,488,256,488z"/>
	<path d="M256,376c8.824,0,16,7.177,16,16h16c0-14.863-10.24-27.287-24-30.863V352h-16v9.137c-13.761,3.576-24,16-24,30.863
		c0,17.648,14.352,32,32,32c8.824,0,16,7.177,16,16c0,8.824-7.176,16-16,16s-16-7.176-16-16h-16c0,14.864,10.239,27.288,24,30.864
		V480h16v-9.136c13.76-3.576,24-16,24-30.864c0-17.647-14.353-32-32-32c-8.824,0-16-7.176-16-16C240,383.177,247.176,376,256,376z"
		/>
	<path d="M496,440c4.416,0,8-3.584,8-8v-32c0-4.415-3.584-8-8-8H384c-4.416,0-8,3.585-8,8v24h-8c-4.416,0-8,3.585-8,8v32
		c0,4.416,3.584,8,8,8h8v24c0,4.416,3.584,8,8,8h112c4.416,0,8-3.584,8-8v-32c0-4.415-3.584-8-8-8h-8v-16H496z M392,408h96v16h-8
		h-88V408z M488,488h-96v-16h88h8V488z M472,456h-88h-8v-16h8h88V456z"/>
	<path d="M144,392H32c-4.416,0-8,3.585-8,8v24h-8c-4.416,0-8,3.585-8,8v32c0,4.416,3.584,8,8,8h8v24c0,4.416,3.584,8,8,8h112
		c4.416,0,8-3.584,8-8v-32c0-4.415-3.584-8-8-8h-8v-16h8c4.416,0,8-3.584,8-8v-32C152,395.585,148.416,392,144,392z M136,488H40v-16
		h88h8V488z M120,456H32h-8v-16h8h88V456z M136,424h-8H40v-16h96V424z"/>
</g>
</svg>
