<?xml version="1.0" encoding="utf-8"?>
<!-- Generator: Adobe Illustrator 16.0.0, SVG Export Plug-In . SVG Version: 6.00 Build 0)  -->
<!DOCTYPE svg PUBLIC "-//W3C//DTD SVG 1.1//EN" "http://www.w3.org/Graphics/SVG/1.1/DTD/svg11.dtd">
<svg version="1.1" id="Layer_1" xmlns="http://www.w3.org/2000/svg" xmlns:xlink="http://www.w3.org/1999/xlink" x="0px" y="0px"
	 width="512px" height="512px" viewBox="0 0 512 512" enable-background="new 0 0 512 512" xml:space="preserve">
<path d="M406.78,305.169l35.52-60.554c14.213-24.23-20.177-49.428-38.957-27.954l-40.107,45.852
	c-0.282,0.321-0.568,0.609-0.857,0.878c2.615-7.754,15.416-45.304,18.023-53.221c5.475-16.624-0.745-37.319-20.225-40.087
	l42.056-92.943c11.389-25.167-25.836-44.799-40.283-21.241l-46.831,76.785c-4.252-2.964-8.938-4.608-14.058-4.931l1.383-105.21
	c0.534-27.566-41.425-31.07-45.408-3.717l-15.063,103.365c-3.118-0.619-6.234-0.75-9.349-0.394L200.817,26.52
	c-8.636-26.095-49.407-15.57-44.071,11.534l6.357,32.283c1.878,9.525,16.611,6.624,14.735-2.901l-6.357-32.283
	c-1.837-9.329,12.127-12.834,15.084-3.895l32.047,96.001c-8.408,6.482-10.229,16.324-9.753,26.284
	c0.518,10.791-0.371,12.142-2.379,12.5c-3.218,0.567-6.053-9.121-7.421-13.78c-1.435-4.883-3.317-9.527-7.101-13.13l-7.425-37.704
	c-1.875-9.525-16.61-6.624-14.735,2.901l5.526,28.063c-2.759-0.104-5.631,0.176-8.544,0.891
	c-12.495,3.065-24.495,14.826-21.313,33.404c0.67,3.908,1.565,8.68,2.603,13.959l-30.938-46.704
	c-15.21-22.965-51.801-2.171-39.504,22.649l28.576,57.68c-19.935-17.112-49.943,7.446-36.51,30.348l29.664,50.572
	c12.907,22.004,31.056,40.784,52.461,54.621l-78.996,75.278c-7.053,6.72,3.368,17.537,10.36,10.872l82.161-78.294
	c28.086,14.552,56.913,22.629,80.176,45.734c-23.764,32.061-47.171,64.391-70.75,96.587c-5.6,7.646,6.174,16.99,12.116,8.873
	l68.913-94.094c1.942,2.39,70.357,94.147,70.357,94.147c6.002,8.047,17.715-1.372,12.037-8.979l-64.596-86.583
	c-17.115-24.036-40.548-42.824-67.77-54.335c-37.936-16.04-71.838-34.471-93.515-71.428l-29.664-50.57
	c-5.454-9.298,7.724-18.444,14.699-10.473l40.099,45.844c6.48,7.408,16.666,10.063,25.942,6.759
	c11.011-3.918,17.501-15.095,15.435-26.574c-0.02-0.106-0.041-0.213-0.063-0.318c-0.143-0.631-14.237-63.278-18.488-88.104
	c-2.69-15.707,19.571-24.042,24.379-7.661c2.602,8.854,8.019,27.275,24.476,24.332c15.94-2.852,15.157-19.212,14.735-28.002
	c-1.025-21.306,24.764-20.783,25.621,0.239c0.38,9.3,1.087,26.61,16.749,27.51c17.234,1.018,18.266-18.628,22.975-30.169
	c4.835-11.843,24.088-8.659,21.496,4.924l-2.607,13.856c-7.347,24.539,15.603,37.999,32.033,25.021l8.513-6.726
	c13.61-9.975,21.111,7.015,17.497,17.989c-2.583,7.844-23.217,68.368-27.655,82.51c-2.907,9.264,11.423,13.761,14.329,4.497
	c1.133-3.606,2.438-7.649,3.855-11.964c6.669,0.224,13.038-2.587,17.872-8.115l40.108-45.852c6.968-7.964,20.15,1.177,14.699,10.469
	l-35.52,60.554c-10.12,17.254-24.581,31.47-41.973,41.313c-1.972-4.222-3.239-8.99-3.775-14.286
	c-0.98-9.665-15.92-8.144-14.942,1.514c1.394,13.752,6.583,25.095,15.422,33.713c0.028,0.027,0.056,0.056,0.085,0.081l80.554,76.116
	c7.013,6.63,17.399-4.221,10.314-10.915l-78.508-74.183C379.91,339.824,395.662,324.122,406.78,305.169L406.78,305.169z
	 M158.355,265.005c-3.437,1.224-7.206,0.242-9.604-2.498c-3.271-2.701-4.822-5.918-6.558-9.418l-51.107-103.16
	c-4.225-8.527,8.335-15.524,13.527-7.689c16.472,24.866,51.661,77.767,51.661,77.767c3.874,17.93,7.301,33.186,7.792,35.371
	C164.751,259.544,162.366,263.577,158.355,265.005L158.355,265.005z M275.302,144.729c-0.994,2.436-1.734,5.246-2.517,8.224
	c-1.082,4.11-3.322,12.63-5.64,12.63c-0.019,0-0.036,0-0.055-0.001c-0.327-0.019-0.444-0.074-0.443-0.066
	c-1.68-1.291-2.029-9.844-2.16-13.063c-0.354-8.651-1.836-16.821-8.387-23.073l15.794-108.388
	c1.371-9.405,15.716-8.144,15.533,1.308l-1.437,109.229C281.637,134.256,277.828,138.544,275.302,144.729L275.302,144.729z
	 M339.604,175.486c-2.344,1.729-4.602,3.592-6.876,5.418c-6.999,5.621-11.881-2.263-9.893-8.84l2.606-13.855
	c0.993-4.616,0.686-8.893-0.557-12.694l49.878-81.782c4.938-8.057,17.69-1.408,13.788,7.216l-46.597,102.979
	C341.155,174.41,340.366,174.919,339.604,175.486L339.604,175.486z"/>
</svg>
