<?xml version="1.0" encoding="utf-8"?>
<!-- Generator: Adobe Illustrator 16.0.0, SVG Export Plug-In . SVG Version: 6.00 Build 0)  -->
<!DOCTYPE svg PUBLIC "-//W3C//DTD SVG 1.1//EN" "http://www.w3.org/Graphics/SVG/1.1/DTD/svg11.dtd">
<svg version="1.1" id="Out_line" xmlns="http://www.w3.org/2000/svg" xmlns:xlink="http://www.w3.org/1999/xlink" x="0px" y="0px"
	 width="512px" height="512px" viewBox="0 0 512 512" enable-background="new 0 0 512 512" xml:space="preserve">
<path d="M160,128h56c4.418,0,8-3.582,8-8V56c0-4.418-3.582-7.999-8-8h-56c-4.418,0.001-8,3.582-8,8v64
	C152,124.418,155.582,128,160,128z M168,64h40v48h-40V64z"/>
<path d="M120,48h16v16h-16V48z"/>
<path d="M120,80h16v16h-16V80z"/>
<path d="M120,112h16v16h-16V112z"/>
<path d="M120,144h16v16h-16V144z"/>
<path d="M88,48h16v48H88V48z"/>
<path d="M88,112h16v32H88V112z"/>
<path d="M464,272v-92.686l13.656-13.657c3.125-3.124,3.125-8.189,0-11.314l-135.999-136c-3.125-3.123-8.189-3.123-11.314,0
	L256,92.685V24c0-4.418-3.582-7.999-8-8H56c-4.418,0.001-8,3.582-8,8v136.806C29.39,164.631,16.025,181.001,16,200v256
	c0.025,22.081,17.919,39.976,40,40h368c4.418,0,7.999-3.581,8-8v-56h24c4.418,0,7.999-3.581,8-8v-24
	c17.664-0.02,31.979-14.335,32-32v-64C495.98,286.336,481.664,272.02,464,272z M448,320h-16v-88c-0.001-4.418-3.582-8-8-8h-4.686
	L448,195.314V320z M421.449,199.237c-17.934-23.085-17.934-55.39,0-78.474L460.686,160L421.449,199.237z M336,35.313l39.236,39.237
	c-23.084,17.933-55.389,17.933-78.474,0L336,35.313z M285.366,85.947c29.465,24.07,71.803,24.07,101.267,0l23.42,23.42
	c-24.07,29.464-24.07,71.802-0.001,101.267L396.686,224h-61.141c-4.391-39.493-39.965-67.949-79.458-63.56
	c-0.029,0.004-0.059,0.007-0.087,0.01v-45.136L285.366,85.947z M256,176.589c30.54-4.469,58.92,16.666,63.39,47.206
	c0.01,0.068,0.02,0.137,0.029,0.205H256V176.589z M240,32v192H139.702c8.847-15.3,3.614-34.874-11.686-43.72
	s-34.874-3.614-43.72,11.686c-5.729,9.909-5.729,22.125,0,32.034H64V32H240z M105.65,224c-0.612-1.067-1.463-1.979-2.486-2.663
	c-7.367-4.88-9.382-14.809-4.502-22.175c4.881-7.366,14.809-9.382,22.176-4.501c7.366,4.88,9.382,14.809,4.501,22.175
	c-1.184,1.787-2.715,3.317-4.501,4.501c-1.023,0.685-1.875,1.596-2.487,2.663H105.65z M48,177.377v45.247
	c-12.495-4.415-19.045-18.124-14.629-30.618C35.786,185.169,41.164,179.792,48,177.377z M56,480c-13.249-0.015-23.985-10.751-24-24
	V231.981c6.914,5.213,15.341,8.028,24,8.019h360v80h-40c-22.092,0-40,17.909-40,40c0,22.092,17.908,40,40,40h40v80H56z M448,416h-16
	v-16h16V416z M480,368c-0.011,8.833-7.168,15.99-16,16h-88c-13.255,0-24-10.745-24-24c0-13.254,10.745-24,24-24h88
	c5.618,0.008,11.14-1.475,16-4.295V368z M464,320v-32c8.836,0,16,7.164,16,16C480,312.837,472.836,320,464,320z"/>
<circle cx="384" cy="360" r="8"/>
</svg>
