<?xml version="1.0" encoding="utf-8"?>
<!-- Generator: Adobe Illustrator 16.0.0, SVG Export Plug-In . SVG Version: 6.00 Build 0)  -->
<!DOCTYPE svg PUBLIC "-//W3C//DTD SVG 1.1//EN" "http://www.w3.org/Graphics/SVG/1.1/DTD/svg11.dtd">
<svg version="1.1" id="Capa_1" xmlns="http://www.w3.org/2000/svg" xmlns:xlink="http://www.w3.org/1999/xlink" x="0px" y="0px"
	 width="841.889px" height="595.281px" viewBox="0 0 841.889 595.281" enable-background="new 0 0 841.889 595.281"
	 xml:space="preserve">
<g>
	<g>
		<g>
			<path d="M282.046,565.516h59.528c5.479,0,9.921-4.442,9.921-9.921c0-5.479-4.442-9.922-9.921-9.922h-59.528
				c-5.479,0-9.922,4.442-9.922,9.922C272.124,561.074,276.567,565.516,282.046,565.516z"/>
			<polygon points="440.787,119.056 371.338,119.056 371.338,188.506 391.181,188.506 391.181,138.899 440.787,138.899 			"/>
			<polygon points="371.338,406.775 371.338,476.224 440.787,476.224 440.787,456.382 391.181,456.382 391.181,406.775 			"/>
			<polygon points="698.742,456.382 649.135,456.382 649.135,476.224 718.584,476.224 718.584,406.775 698.742,406.775 			"/>
			<path d="M490.394,486.146c-5.479,0-9.921,4.441-9.921,9.921v19.843H143.148V79.371h337.325v29.764
				c0,5.479,4.442,9.922,9.921,9.922c5.479,0,9.922-4.442,9.922-9.922V49.607C500.283,22.223,478.091,0.032,450.708,0H172.911
				c-27.383,0.032-49.574,22.224-49.606,49.607v496.066c0.032,27.383,22.224,49.574,49.606,49.607h277.797
				c27.383-0.033,49.575-22.225,49.607-49.607v-49.606C500.316,490.588,495.873,486.146,490.394,486.146z M143.148,49.607
				c0-16.438,13.325-29.765,29.764-29.765h277.797c16.438,0,29.765,13.326,29.765,29.765v9.921H143.148V49.607z M480.473,545.674
				c0,16.438-13.326,29.765-29.765,29.765H172.911c-16.438,0-29.764-13.326-29.764-29.765v-9.921h337.325V545.674z"/>
			<path d="M371.338,29.764H311.81c-5.479,0-9.921,4.442-9.921,9.921c0,5.479,4.442,9.922,9.921,9.922h59.528
				c5.479,0,9.921-4.442,9.921-9.922C381.259,34.207,376.818,29.764,371.338,29.764z"/>
			<path d="M272.124,29.764h-19.842c-5.479,0-9.922,4.442-9.922,9.921c0,5.479,4.442,9.922,9.922,9.922h19.842
				c5.479,0,9.922-4.442,9.922-9.922C282.046,34.207,277.604,29.764,272.124,29.764z"/>
			<path d="M262.203,406.775c5.479,0,9.921-4.442,9.921-9.922v-9.921c27.343,0.054,49.552-22.068,49.604-49.411
				c0.037-19.306-11.15-36.871-28.66-45.001c13.699-16.826,11.164-41.573-5.664-55.272c-4.471-3.64-9.687-6.251-15.28-7.648v-11.33
				c0-5.479-4.441-9.921-9.921-9.921s-9.921,4.442-9.921,9.921v9.922h-9.922v-9.922c0-5.479-4.442-9.921-9.921-9.921
				c-5.479,0-9.922,4.442-9.922,9.921v9.922h-29.764c-5.479,0-9.922,4.442-9.922,9.921c0,5.479,4.442,9.922,9.922,9.922h9.921
				V367.09h-9.921c-5.479,0-9.922,4.442-9.922,9.922c0,5.479,4.442,9.921,9.922,9.921h29.764v9.921c0,5.479,4.442,9.922,9.922,9.922
				c5.479,0,9.921-4.442,9.921-9.922v-9.921h9.922v9.921C252.282,402.333,256.724,406.775,262.203,406.775z M222.518,248.034h39.686
				c10.959,0,19.843,8.883,19.843,19.842c0,10.96-8.884,19.843-19.843,19.843h-39.686V248.034z M222.518,367.09v-59.528h49.606
				c16.438,0,29.765,13.326,29.765,29.765s-13.326,29.764-29.765,29.764H222.518z"/>
			<path d="M678.9,158.741h-99.214v99.214H678.9V158.741z M659.057,238.112h-59.528v-59.528h59.528V238.112z"/>
			<rect x="609.45" y="188.506" width="39.685" height="39.686"/>
			<path d="M411.024,257.955h99.213v-99.214h-99.213V257.955z M430.865,178.584h59.528v59.528h-59.528V178.584z"/>
			<rect x="440.787" y="188.506" width="39.686" height="39.686"/>
			<path d="M411.024,436.539h99.213v-99.213h-99.213V436.539z M430.865,357.169h59.528v59.527h-59.528V357.169z"/>
			<rect x="440.787" y="367.09" width="39.686" height="39.686"/>
			<polygon points="649.135,119.056 649.135,138.899 698.742,138.899 698.742,188.506 718.584,188.506 718.584,119.056 			"/>
			<polygon points="678.9,436.539 678.9,347.247 599.529,347.247 599.529,367.09 659.057,367.09 659.057,416.696 639.214,416.696 
				639.214,377.011 579.686,377.011 579.686,396.853 619.371,396.853 619.371,436.539 			"/>
			<polygon points="540,357.169 559.843,357.169 559.843,337.326 520.158,337.326 520.158,396.853 549.922,396.853 549.922,416.696 
				520.158,416.696 520.158,436.539 569.765,436.539 569.765,377.011 540,377.011 			"/>
			<rect x="579.686" y="416.696" width="19.843" height="19.843"/>
			<rect x="520.158" y="158.741" width="49.606" height="19.843"/>
			<rect x="659.057" y="317.483" width="19.843" height="19.843"/>
			<polygon points="589.608,307.561 678.9,307.561 678.9,267.876 659.057,267.876 659.057,287.719 639.214,287.719 639.214,267.876 
				619.371,267.876 619.371,287.719 599.529,287.719 599.529,267.876 569.765,267.876 569.765,357.169 589.608,357.169 			"/>
			<rect x="599.529" y="317.483" width="19.843" height="19.843"/>
			<rect x="629.293" y="317.483" width="19.842" height="19.843"/>
			<polygon points="430.865,287.719 450.708,287.719 450.708,267.876 411.024,267.876 411.024,327.404 450.708,327.404 
				450.708,307.561 430.865,307.561 			"/>
			<polygon points="559.843,327.404 559.843,307.561 549.922,307.561 549.922,267.876 530.079,267.876 530.079,307.561 
				510.237,307.561 510.237,267.876 470.551,267.876 470.551,287.719 490.394,287.719 490.394,307.561 470.551,307.561 
				470.551,327.404 			"/>
			<rect x="450.708" y="287.719" width="19.843" height="19.843"/>
			<polygon points="569.765,238.112 559.843,238.112 559.843,208.348 569.765,208.348 569.765,188.506 520.158,188.506 
				520.158,208.348 540,208.348 540,238.112 520.158,238.112 520.158,257.955 569.765,257.955 			"/>
		</g>
	</g>
</g>
</svg>
