<?xml version="1.0" encoding="utf-8"?>
<!-- Generator: Adobe Illustrator 16.0.0, SVG Export Plug-In . SVG Version: 6.00 Build 0)  -->
<!DOCTYPE svg PUBLIC "-//W3C//DTD SVG 1.1//EN" "http://www.w3.org/Graphics/SVG/1.1/DTD/svg11.dtd">
<svg version="1.1" id="Layer_1_1_" xmlns="http://www.w3.org/2000/svg" xmlns:xlink="http://www.w3.org/1999/xlink" x="0px" y="0px"
	 width="512px" height="512px" viewBox="0 0 512 512" enable-background="new 0 0 512 512" xml:space="preserve">
<path d="M496,160c0-41.344-22.584-77.447-56-96.848V24c0-4.424-3.585-8-8-8H24c-4.416,0-8,3.576-8,8v432c0,22.057,17.943,40,40,40
	h400c22.056,0,40-17.943,40-40v-32c0-4.424-3.584-8-8-8h-48V256.848C473.416,237.448,496,201.344,496,160L496,160z M320.936,232.2
	c3.384-17.16,17.384-29.944,34.776-31.8l21.432,35.72c1.44,2.4,4.048,3.88,6.856,3.88c2.808,0,5.416-1.479,6.855-3.88l21.432-35.72
	c17.393,1.855,31.393,14.64,34.776,31.8C430.176,246.976,408.144,256,384,256C359.856,256,337.824,246.976,320.936,232.2z M416,152
	c0,17.648-14.353,32-32,32c-17.648,0-32-14.352-32-32H416z M416,136h-64v-17.056l11.56,7.712c1.904,1.264,4.28,1.664,6.496,1.08
	c2.216-0.592,4.072-2.104,5.104-4.16l8.84-17.688l8.84,17.688c1.023,2.056,2.888,3.561,5.104,4.16c2.225,0.6,4.584,0.192,6.496-1.08
	L416,118.944V136z M393.872,200L384,216.456L374.128,200H393.872z M480,160c0,22.104-7.585,42.433-20.185,58.672
	c-7.072-17.319-22.439-30.063-41.072-33.647C426.936,176.416,432,164.8,432,152v-8v-40c0-2.952-1.624-5.664-4.225-7.056
	c-2.6-1.4-5.752-1.24-8.208,0.4l-16.464,10.976L391.16,84.424c-2.712-5.424-11.601-5.424-14.313,0l-11.944,23.896L348.44,97.344
	c-2.464-1.641-5.615-1.801-8.208-0.4C337.624,98.336,336,101.048,336,104v40v8c0,12.8,5.063,24.416,13.256,33.024
	c-18.632,3.584-34,16.328-41.072,33.647C295.584,202.432,288,182.104,288,160c0-52.936,43.063-96,96-96
	C436.936,64,480,107.064,480,160L480,160z M480,456c0,13.232-10.769,24-24,24H88c5.191-6.936,8-15.279,8-24v-24h384V456z M424,416
	H88c-4.416,0-8,3.576-8,8v32c0,6.36-2.504,12.408-6.977,16.944C68.408,477.496,62.36,480,56,480c-13.232,0-24-10.768-24-24V32h392
	v23.513C411.56,50.728,398.104,48,384,48c-61.761,0-112,50.24-112,112c0,33.864,15.168,64.2,39,84.752L261.016,288H192v16h72
	c1.92,0,3.784-0.695,5.231-1.952l54.929-47.535C341.496,265.528,361.984,272,384,272c14.104,0,27.56-2.728,40-7.512V416z"/>
<path d="M72,64h72v16H72V64z"/>
<path d="M192,64h72v16h-72V64z"/>
<path d="M72,96h72v16H72V96z"/>
<path d="M192,96h72v16h-72V96z"/>
<path d="M72,128h72v16H72V128z"/>
<path d="M192,128h72v16h-72V128z"/>
<path d="M72,160h72v16H72V160z"/>
<path d="M192,160h72v16h-72V160z"/>
<path d="M72,192h72v16H72V192z"/>
<path d="M192,192h72v16h-72V192z"/>
<path d="M72,224h72v16H72V224z"/>
<path d="M192,224h72v16h-72V224z"/>
<path d="M72,256h72v16H72V256z"/>
<path d="M192,256h72v16h-72V256z"/>
<path d="M72,288h72v16H72V288z"/>
<path d="M312,288h72v16h-72V288z"/>
<path d="M72,320h72v16H72V320z"/>
<path d="M192,320h72v16h-72V320z"/>
<path d="M312,320h72v16h-72V320z"/>
<path d="M72,352h72v16H72V352z"/>
<path d="M192,352h72v16h-72V352z"/>
<path d="M312,352h72v16h-72V352z"/>
<path d="M72,384h72v16H72V384z"/>
<path d="M192,384h72v16h-72V384z"/>
<path d="M312,384h72v16h-72V384z"/>
</svg>
