<?xml version="1.0" encoding="utf-8"?>
<!-- Generator: Adobe Illustrator 16.0.0, SVG Export Plug-In . SVG Version: 6.00 Build 0)  -->
<!DOCTYPE svg PUBLIC "-//W3C//DTD SVG 1.1//EN" "http://www.w3.org/Graphics/SVG/1.1/DTD/svg11.dtd">
<svg version="1.1" id="Layer_1" xmlns="http://www.w3.org/2000/svg" xmlns:xlink="http://www.w3.org/1999/xlink" x="0px" y="0px"
	 width="841.889px" height="595.281px" viewBox="0 0 841.889 595.281" enable-background="new 0 0 841.889 595.281"
	 xml:space="preserve">
<title></title>
<g id="_24">
	<path d="M290.727,223.23c-5.137,0-9.301,4.164-9.301,9.301c0,5.138,4.164,9.302,9.301,9.302h83.712
		c5.137,0,9.301-4.164,9.301-9.302c0-5.137-4.164-9.301-9.301-9.301H290.727z"/>
	<path d="M458.15,198.396c-14.19,15.884-34.508,24.925-55.808,24.834c-5.137,0-9.301,4.164-9.301,9.301
		c0,5.138,4.164,9.302,9.301,9.302c26.451-0.002,51.651-11.266,69.294-30.974c4.044-3.168,4.755-9.014,1.587-13.058
		s-9.015-4.754-13.059-1.586C459.38,196.83,458.7,197.566,458.15,198.396z"/>
	<path d="M662.778,306.941c-0.015-30.525-13.658-59.449-37.205-78.874v-87.433c-0.052-51.964-42.164-94.077-94.129-94.128H309.329
		c-5.137,0-9.301,4.164-9.301,9.301s4.164,9.302,9.301,9.302h222.114c41.69,0.051,75.475,33.835,75.526,75.525v75.248
		c-2.791-1.396-5.581-2.698-8.465-3.813c1.464-1.113,2.563-2.635,3.163-4.372c17.105-48.438-8.294-101.571-56.731-118.677
		c-9.95-3.515-20.427-5.31-30.979-5.309c-6.949-0.023-13.879,0.757-20.648,2.325c-5.036,1.016-8.295,5.921-7.278,10.957
		c0.007,0.037,0.015,0.074,0.022,0.111c1.104,5.017,6.064,8.189,11.082,7.087c0.026-0.006,0.053-0.012,0.08-0.019
		c5.494-1.239,11.109-1.863,16.742-1.859c41.096,0,74.41,33.314,74.41,74.409c0.023,8.464-1.424,16.867-4.279,24.835
		c-0.606,1.938-0.606,4.015,0,5.953c-7.739-1.855-15.666-2.823-23.625-2.884c-15.934,0.015-31.642,3.774-45.854,10.976
		c5.679-12.176,8.631-25.444,8.649-38.88c0-5.137-4.164-9.301-9.301-9.301s-9.302,4.164-9.302,9.301
		c0,41.096-33.314,74.41-74.409,74.41h-148.82c-41.096,0-74.41-33.314-74.41-74.41c0-41.095,33.314-74.409,74.41-74.409h148.82
		c18.256-0.141,35.917,6.486,49.575,18.603c3.827,3.441,9.72,3.129,13.161-0.698s3.13-9.72-0.697-13.161
		c-17.111-15.137-39.194-23.447-62.039-23.346h-148.82c-51.369,0.061-92.964,41.752-92.903,93.121
		c0.044,36.901,21.897,70.287,55.698,85.091v139.519c-0.028,26.399,6.695,52.366,19.532,75.434
		c23.539,43.638,68.83,71.14,118.405,71.898h85.292c5.138,0,9.302-4.164,9.302-9.301c0-5.138-4.164-9.302-9.302-9.302h-85.292
		c-42.827-0.697-81.945-24.452-102.313-62.132c-11.207-20.339-17.063-43.19-17.021-66.411V267.876
		c6.124,1.231,12.355,1.854,18.603,1.86h148.82c13.435-0.019,26.703-2.971,38.879-8.649
		c-25.325,50.513-4.906,111.992,45.607,137.317c14.195,7.117,29.852,10.832,45.73,10.852c2.884,0,5.767,0,8.65,0
		c-16.952,37.25-52.931,62.236-93.757,65.108c-5.137-19.896-25.43-31.859-45.324-26.722c-19.896,5.137-31.859,25.429-26.723,45.324
		s25.43,31.859,45.325,26.723c13.104-3.384,23.338-13.617,26.722-26.723c52.666-3.289,98.141-38.038,115.149-87.989
		C633.541,391.758,662.879,351.962,662.778,306.941z M439.547,502.268c-10.273,0-18.603-8.329-18.603-18.603
		c0-10.274,8.329-18.603,18.603-18.603s18.603,8.328,18.603,18.603C458.15,493.939,449.821,502.268,439.547,502.268z
		 M560.463,390.653c-46.232,0.025-83.731-37.433-83.757-83.665c-0.025-46.233,37.433-83.732,83.665-83.758
		c16.591-0.009,32.81,4.912,46.599,14.138v24.091c-4.124-4.258-8.819-7.92-13.952-10.883c-4.432-2.598-10.131-1.109-12.728,3.322
		c-0.005,0.009-0.01,0.018-0.016,0.026c-2.574,4.444-1.059,10.136,3.386,12.71c0.019,0.011,0.037,0.021,0.057,0.032
		c22.22,12.884,29.788,41.341,16.905,63.561c-12.884,22.22-41.341,29.789-63.561,16.905c-0.77-0.446-1.526-0.915-2.27-1.404
		c-4.271-2.855-10.047-1.707-12.902,2.563c-0.009,0.014-0.018,0.027-0.026,0.04c-2.803,4.269-1.64,9.998,2.604,12.836
		c10.65,7.125,23.183,10.914,35.996,10.883c35.959,0,65.109-29.15,65.109-65.109c0.139-2.323,0.139-4.652,0-6.976
		c0.097-0.772,0.097-1.554,0-2.325v-43.158c12.063,14.819,18.635,33.352,18.603,52.459
		C644.175,353.175,606.696,390.653,560.463,390.653z"/>
	<path d="M520.189,330.195c-12.842-22.244-5.221-50.687,17.022-63.529c7.069-4.082,15.089-6.23,23.252-6.23
		c5.137,0,9.302-4.164,9.302-9.302c0-5.137-4.165-9.301-9.302-9.301c-35.958,0-65.108,29.15-65.108,65.108
		c-0.024,11.436,2.993,22.671,8.743,32.555c2.554,4.429,8.204,5.966,12.649,3.441c4.463-2.544,6.018-8.225,3.474-12.687
		C520.21,330.232,520.199,330.214,520.189,330.195z"/>
</g>
</svg>
