<?xml version="1.0" encoding="utf-8"?>
<!-- Generator: Adobe Illustrator 16.0.0, SVG Export Plug-In . SVG Version: 6.00 Build 0)  -->
<!DOCTYPE svg PUBLIC "-//W3C//DTD SVG 1.1//EN" "http://www.w3.org/Graphics/SVG/1.1/DTD/svg11.dtd">
<svg version="1.1" id="Capa_1" xmlns="http://www.w3.org/2000/svg" xmlns:xlink="http://www.w3.org/1999/xlink" x="0px" y="0px"
	 width="841.889px" height="595.281px" viewBox="0 0 841.889 595.281" enable-background="new 0 0 841.889 595.281"
	 xml:space="preserve">
<g>
	<g>
		<g>
			<path d="M386.065,409.256H146.558c-12.843,0-23.253,10.41-23.253,23.253v139.519c0,12.843,10.41,23.254,23.253,23.254h239.507
				c12.843,0,23.253-10.411,23.253-23.254V432.509C409.318,419.666,398.907,409.256,386.065,409.256z M362.812,548.774H169.811
				v-93.013h193.001V548.774z"/>
			<path d="M386.065,0H146.558c-12.843,0-23.253,10.411-23.253,23.253v339.496c0,12.843,10.41,23.254,23.253,23.254h239.507
				c12.843,0,23.253-10.411,23.253-23.254V23.253C409.318,10.411,398.907,0,386.065,0z M362.812,339.496H169.811V46.507h193.001
				V339.496z"/>
			<path d="M695.331,0H455.824c-12.843,0-23.253,10.411-23.253,23.253v139.52c0,12.843,10.41,23.253,23.253,23.253h239.507
				c12.843,0,23.253-10.41,23.253-23.253V23.253C718.584,10.411,708.174,0,695.331,0z M672.078,139.519H479.077V46.507h193.001
				V139.519z"/>
			<path d="M695.331,209.278H455.824c-12.843,0-23.253,10.41-23.253,23.253v339.496c0,12.843,10.41,23.254,23.253,23.254h239.507
				c12.843,0,23.253-10.411,23.253-23.254V232.531C718.584,219.688,708.174,209.278,695.331,209.278z M672.078,548.774H479.077
				V255.785h193.001V548.774z"/>
		</g>
	</g>
</g>
</svg>
