<?xml version="1.0" encoding="utf-8"?>
<!-- Generator: Adobe Illustrator 16.0.0, SVG Export Plug-In . SVG Version: 6.00 Build 0)  -->
<!DOCTYPE svg PUBLIC "-//W3C//DTD SVG 1.1//EN" "http://www.w3.org/Graphics/SVG/1.1/DTD/svg11.dtd">
<svg version="1.1" id="Layer_1" xmlns="http://www.w3.org/2000/svg" xmlns:xlink="http://www.w3.org/1999/xlink" x="0px" y="0px"
	 width="512px" height="512px" viewBox="0 0 512 512" enable-background="new 0 0 512 512" xml:space="preserve">
<g id="Payment-2">
	<path d="M488,368h-8V178.48c0.053-19.085-7.532-37.398-21.064-50.856L432,100.688V40c0-13.255-10.746-24-24-24H40
		c-13.255,0-24,10.745-24,24v224c0,13.255,10.745,24,24,24h8v152c0,4.419,3.581,8,8,8h280v40c0,4.419,3.581,8,8,8h128
		c4.418,0,8-3.581,8-8v-40h8c4.418,0,8-3.581,8-8v-64C496,371.582,492.418,368,488,368z M447.623,138.936
		c10.52,10.466,16.416,24.705,16.377,39.544V368h-88c-22.081-0.026-39.974-17.919-40-40v-40h56c4.418-0.001,7.999-3.583,7.998-8.001
		c-0.001-2.121-0.843-4.155-2.343-5.654l-73.52-73.521c-6.216-6.258-6.24-16.352-0.056-22.64c6.365-6.197,16.524-6.144,22.823,0.12
		l71.601,67.52c3.21,3.035,8.273,2.894,11.309-0.317c1.407-1.488,2.189-3.459,2.188-5.507V123.312L447.623,138.936z M416,128H32V96
		h384V128z M40,32h368c4.418,0,8,3.582,8,8v40H32V40C32,35.582,35.581,32,40,32z M32,264V144h384v77.464l-57.992-54.688
		c-12.654-12.093-32.592-12.061-45.208,0.072c-12.436,12.535-12.436,32.753,0,45.288L372.688,272H40C35.581,272,32,268.419,32,264z
		 M64,288h46.527c-3.378,9.555-12.394,15.958-22.527,16c-4.419,0-8,3.582-8,8v64c0,4.419,3.581,8,8,8c13.255,0,24,10.746,24,24
		c0,4.419,3.581,8,8,8h200v16H64V288z M320,376v24H127.2c-3.23-15.7-15.5-27.97-31.2-31.199V319.2
		c15.677-3.245,27.915-15.515,31.12-31.2H320v40c-0.004,15.067,6.088,29.495,16.888,40H328C323.581,368,320,371.582,320,376L320,376
		z M464,480H352v-32h112V480z M480,432H336v-48h144V432z"/>
	<path d="M240,304c-22.092,0-40,17.909-40,40c0,22.092,17.908,40,40,40c22.091,0,40-17.908,40-40
		C279.974,321.92,262.08,304.026,240,304z M240,368c-13.255,0-24-10.745-24-24c0-13.254,10.745-24,24-24s24,10.746,24,24
		C264,357.255,253.255,368,240,368z"/>
	<path d="M64,176h32v16H64V176z"/>
	<path d="M112,176h96v16h-96V176z"/>
	<path d="M64,224h96v16H64V224z"/>
	<path d="M176,224h32v16h-32V224z"/>
</g>
</svg>
