<?xml version="1.0" encoding="utf-8"?>
<!-- Generator: Adobe Illustrator 16.0.0, SVG Export Plug-In . SVG Version: 6.00 Build 0)  -->
<!DOCTYPE svg PUBLIC "-//W3C//DTD SVG 1.1//EN" "http://www.w3.org/Graphics/SVG/1.1/DTD/svg11.dtd">
<svg version="1.1" id="Layer_1" xmlns="http://www.w3.org/2000/svg" xmlns:xlink="http://www.w3.org/1999/xlink" x="0px" y="0px"
	 width="512px" height="512px" viewBox="0 0 512 512" enable-background="new 0 0 512 512" xml:space="preserve">
<g id="_x30_08---Cutting-Paper">
	<path id="Shape" d="M34.133,486.4h256c18.852,0,34.134-15.282,34.134-34.133v-76.801c0-4.713-3.82-8.533-8.533-8.533
		s-8.533,3.82-8.533,8.533v76.801c0,9.425-7.642,17.066-17.067,17.066h-256c-9.426,0-17.066-7.642-17.066-17.066V307.2h17.066
		c4.713,0,8.533-3.82,8.533-8.533s-3.82-8.533-8.533-8.533H17.067v-230.4c0-9.426,7.641-17.066,17.066-17.066H204.8v68.267
		c0,18.852,15.282,34.134,34.133,34.134H307.2v76.8c0,4.713,3.82,8.533,8.533,8.533s8.533-3.82,8.533-8.533v-85.334
		c-0.134-2.237-1.004-4.367-2.475-6.059l-102.4-102.399c-1.657-1.525-3.808-2.403-6.059-2.475h-179.2C15.282,25.6,0,40.882,0,59.733
		v392.534C0,471.118,15.282,486.4,34.133,486.4z M238.933,128c-9.425,0-17.066-7.641-17.066-17.066V54.699L295.168,128H238.933z"/>
	<path id="Shape_1_" d="M477.866,213.334c0-23.553-22.955-42.667-51.2-42.667s-51.199,19.114-51.199,42.667
		c0,23.552,22.954,42.666,51.199,42.666S477.866,236.885,477.866,213.334z M392.533,213.334c0-14.08,15.274-25.601,34.133-25.601
		s34.134,11.521,34.134,25.601s-15.275,25.6-34.134,25.6S392.533,227.414,392.533,213.334z"/>
	<path id="Shape_2_" d="M426.666,426.667c28.245,0,51.2-19.114,51.2-42.667c0-23.552-22.955-42.666-51.2-42.666
		S375.467,360.448,375.467,384C375.467,407.552,398.421,426.667,426.666,426.667z M426.666,358.4
		c18.858,0,34.134,11.521,34.134,25.6c0,14.08-15.275,25.601-34.134,25.601S392.533,398.08,392.533,384
		C392.533,369.921,407.808,358.4,426.666,358.4z"/>
	<path id="Shape_3_" d="M512,213.334c0-42.667-38.315-76.801-85.334-76.801c-55.808,0-96.512,47.616-82.603,95.915l-26.453,21.846
		l-97.023-80.299c-10.455-8.671-23.927-12.831-37.45-11.567c-13.523,1.265-25.99,7.851-34.657,18.309
		c-4.778,5.803-7.851,8.533-7.424,12.8c0.209,2.267,1.315,4.355,3.072,5.803l119.894,99.328l-119.467,99.328
		c-1.757,1.447-2.863,3.536-3.072,5.803c0,4.182,1.621,5.718,7.424,12.8c8.667,10.458,21.134,17.044,34.657,18.309
		s26.995-2.896,37.449-11.567l96.598-80.299l26.453,21.846c-13.994,48.47,26.966,95.915,82.603,95.915
		C473.685,460.801,512,426.667,512,384c0-55.723-64.513-93.866-121.771-69.461l-19.115-15.872l19.115-15.872
		C447.488,307.2,512,268.97,512,213.334z M209.664,410.198c-14.518,12.011-36.021,9.986-48.043-4.523l115.797-95.914l26.795,22.187
		L209.664,410.198z M392.533,332.203c45.823-22.784,102.399,6.229,102.399,51.797c0,32.939-30.635,59.733-68.267,59.733
		c-46.506,0-79.53-40.021-64.768-78.592c1.33-3.412,0.334-7.292-2.475-9.643l-197.803-163.84
		c12.021-14.51,33.525-16.534,48.043-4.522l173.823,143.957C386.036,333.177,389.557,333.609,392.533,332.203L392.533,332.203z
		 M383.488,266.24l-25.6,21.333l-26.795-22.187l28.502-23.552c2.809-2.351,3.804-6.23,2.475-9.643
		c-14.934-38.741,18.261-78.592,64.597-78.592c37.632,0,68.267,26.794,68.267,59.733c0,45.482-56.234,74.666-102.399,51.797
		C389.557,263.724,386.036,264.156,383.488,266.24z"/>
	<circle id="Oval" cx="315.734" cy="298.667" r="8.533"/>
	<path id="Shape_4_" d="M68.267,290.134c-4.713,0-8.533,3.82-8.533,8.533s3.82,8.533,8.533,8.533h25.6
		c4.713,0,8.533-3.82,8.533-8.533s-3.82-8.533-8.533-8.533H68.267z"/>
	<path id="Shape_5_" d="M128,307.2h25.6c4.713,0,8.533-3.82,8.533-8.533s-3.82-8.533-8.533-8.533H128
		c-4.713,0-8.533,3.82-8.533,8.533S123.287,307.2,128,307.2z"/>
	<path id="Shape_6_" d="M213.333,307.2c4.713,0,8.533-3.82,8.533-8.533s-3.82-8.533-8.533-8.533h-25.6
		c-4.713,0-8.533,3.82-8.533,8.533s3.82,8.533,8.533,8.533H213.333z"/>
</g>
</svg>
