<svg id="Capa_1" enable-background="new 0 0 512 512" height="512" viewBox="0 0 512 512" width="512" xmlns="http://www.w3.org/2000/svg"><g><path d="m293.246 448.973c0-11.643-9.472-21.115-21.115-21.115s-21.115 9.472-21.115 21.115 9.472 21.115 21.115 21.115 21.115-9.472 21.115-21.115zm-21.114 6.115c-3.371 0-6.115-2.743-6.115-6.114s2.743-6.115 6.115-6.115 6.115 2.743 6.115 6.115-2.744 6.114-6.115 6.114z"/><path d="m272.132 118.107c-31.185 0-56.556 25.371-56.556 56.556 0 19.649 10.077 36.982 25.329 47.123.11.081.215.165.33.24 8.964 5.859 19.704 9.193 30.897 9.193 11.71 0 24.421-4.431 31.227-9.433 15.252-10.141 25.329-27.474 25.329-47.123-.001-31.185-25.371-56.556-56.556-56.556zm14.578 95.465c-4.61 1.731-9.649 2.646-14.578 2.646-4.963 0-9.961-.913-14.578-2.646-.139-.052-.274-.109-.412-.163 4.164-3.393 9.402-5.296 14.991-5.296s10.827 1.903 14.991 5.296c-.14.054-.275.111-.414.163zm13.56-8.365c-7.235-7.675-17.276-12.094-28.139-12.094s-20.904 4.418-28.139 12.094c-8.242-7.599-13.417-18.477-13.417-30.544 0-22.914 18.642-41.555 41.555-41.555s41.555 18.642 41.555 41.555c.002 12.067-5.173 22.946-13.415 30.544z"/><path d="m272.132 142.976c-13.016 0-23.605 10.589-23.605 23.605s10.589 23.606 23.605 23.606 23.606-10.59 23.606-23.606-10.591-23.605-23.606-23.605zm0 32.21c-4.744 0-8.605-3.86-8.605-8.605 0-4.744 3.861-8.605 8.605-8.605 4.745 0 8.606 3.86 8.606 8.605-.001 4.745-3.861 8.605-8.606 8.605z"/><path d="m259.929 68.758h24.405c4.143 0 7.5-3.358 7.5-7.5s-3.357-7.5-7.5-7.5h-24.405c-4.143 0-7.5 3.357-7.5 7.5s3.358 7.5 7.5 7.5z"/><path d="m311.407 252.892h-78.55c-6.597 0-11.963 5.366-11.963 11.963v23.957c0 6.597 5.366 11.963 11.963 11.963h78.55c6.597 0 11.963-5.366 11.963-11.963v-23.957c0-6.597-5.367-11.963-11.963-11.963zm-3.037 32.882h-72.476v-17.882h72.476z"/><path d="m311.407 322.448h-78.55c-6.597 0-11.963 5.366-11.963 11.963 0 4.143 3.358 7.5 7.5 7.5 3.062 0 5.694-1.834 6.859-4.463h73.117v17.882h-129.898c-4.143 0-7.5 3.357-7.5 7.5s3.357 7.5 7.5 7.5h132.935c6.597 0 11.963-5.366 11.963-11.963v-23.956c0-6.597-5.367-11.963-11.963-11.963z"/><path d="m504.5 175.186h-86.942v-121.699c0-18.064-14.697-32.76-32.76-32.76h-225.334c-18.064 0-32.76 14.697-32.76 32.76v108.098l-21.712-37.605c2.715-2.907 4.693-6.453 5.752-10.404 1.7-6.346.827-12.975-2.458-18.666-5.539-9.594-16.609-14.043-26.882-11.657-5.826-8.967-14.634-15.382-25.038-18.171-11.155-2.991-22.804-1.455-32.802 4.319-10.001 5.77-17.157 15.092-20.147 26.249-2.79 10.408-1.638 21.247 3.217 30.772-7.201 7.703-8.884 19.514-3.344 29.108 3.285 5.69 8.59 9.761 14.937 11.462 2.119.567 4.27.849 6.406.849 1.845 0 3.678-.222 5.473-.638l78.796 136.477c.001.002.002.005.004.007l.055.095c.028.049.063.093.092.141 1.142 1.874.639 1.216 17.651 12.985v97.242 44.364c0 18.064 14.697 32.76 32.76 32.76h97.672c4.143 0 7.5-3.357 7.5-7.5s-3.357-7.5-7.5-7.5h-97.672c-9.793 0-17.76-7.967-17.76-17.76v-36.844h260.854v36.844c0 9.793-7.967 17.76-17.76 17.76h-97.662c-4.143 0-7.5 3.357-7.5 7.5s3.357 7.5 7.5 7.5h97.662c18.064 0 32.76-14.696 32.76-32.76v-105.537h86.942c4.143 0 7.5-3.358 7.5-7.5s-3.357-7.5-7.5-7.5h-86.942v-147.791h86.942c4.143 0 7.5-3.357 7.5-7.5 0-4.142-3.357-7.5-7.5-7.5zm-486.593-75.653c1.952-7.284 6.623-13.371 13.156-17.14 6.53-3.773 14.138-4.772 21.42-2.821 6.183 1.657 11.499 5.281 15.274 10.333l-48.54 28.024c-2.489-5.794-2.969-12.211-1.31-18.396zm11.735 51.866c-.001 0-.002.001-.003.002l-.247.143c-2.222 1.281-4.805 1.624-7.283.959-2.477-.664-4.546-2.252-5.828-4.473s-1.622-4.807-.959-7.284 2.252-4.546 4.472-5.828l62.122-35.865.018-.009s.011-.008.017-.011l.233-.135c2.222-1.281 4.809-1.623 7.284-.959 2.477.664 4.546 2.252 5.828 4.473s1.622 4.807.959 7.283c-.664 2.477-2.252 4.546-4.473 5.828zm83.545 129.703-69.55-120.463 17.954-10.366 13.192 22.849c1.389 2.406 3.91 3.751 6.502 3.751 1.272 0 2.563-.324 3.743-1.006 3.587-2.071 4.816-6.658 2.745-10.245l-13.191-22.849 17.954-10.366 35.068 60.74c.006.011.013.021.019.032l34.462 59.69c-3.841.085-7.308.998-10.371 2.768-3.064 1.769-5.579 4.332-7.573 7.616l-41.062-71.122c-2.07-3.588-6.659-4.816-10.245-2.745-3.587 2.071-4.816 6.658-2.745 10.245l41.046 71.095c-3.84.085-7.303 1.009-10.366 2.777-3.063 1.769-5.588 4.316-7.582 7.599zm25.226 25.661c-.009-.006-.018-.012-.027-.019l-14.919-10.296c.904-5.182 2.563-8.662 4.802-9.955 2.801-1.617 8.11-.743 14.947 2.463.06.028.124.047.185.073 4.653 2.029 9.924-1.034 10.453-6.09.005-.046.016-.09.02-.137.642-7.524 2.538-12.558 5.341-14.176 2.238-1.292 6.081-.989 11.022.819l2.62 32.479-22.572 13.032zm35.779 11.712.844 10.467c.053.653-.208 1.15-.775 1.479-.568.328-1.129.305-1.668-.067l-8.643-5.965zm228.366-143.289h-54.076c-4.143 0-7.5 3.357-7.5 7.5s3.357 7.5 7.5 7.5h54.076v147.791h-54.076c-4.143 0-7.5 3.357-7.5 7.5s3.357 7.5 7.5 7.5h54.076v53.691h-260.854v-79.408l22.369 15.439c2.848 1.965 6.115 2.956 9.395 2.956 2.843 0 5.695-.745 8.293-2.244 5.594-3.229 8.746-9.235 8.227-15.675-5.392-66.735-5.053-64.853-5.819-66.539-.066-.146-.313-.622-.327-.647l-42.137-72.984v-134.079c0-9.793 7.967-17.76 17.76-17.76h225.334c9.793 0 17.76 7.967 17.76 17.76v121.699z"/><path d="m504.5 148.917h-48.687c-4.143 0-7.5 3.357-7.5 7.5s3.357 7.5 7.5 7.5h48.687c4.143 0 7.5-3.358 7.5-7.5s-3.357-7.5-7.5-7.5z"/><path d="m455.814 137.65h48.686c4.143 0 7.5-3.358 7.5-7.5s-3.357-7.5-7.5-7.5h-48.687c-4.143 0-7.5 3.358-7.5 7.5s3.358 7.5 7.501 7.5z"/><path d="m504.5 311.708h-48.687c-4.143 0-7.5 3.357-7.5 7.5s3.357 7.5 7.5 7.5h48.687c4.143 0 7.5-3.357 7.5-7.5 0-4.142-3.357-7.5-7.5-7.5z"/><path d="m504.5 285.44h-48.687c-4.143 0-7.5 3.357-7.5 7.5s3.357 7.5 7.5 7.5h48.687c4.143 0 7.5-3.357 7.5-7.5 0-4.142-3.357-7.5-7.5-7.5z"/></g></svg>