<?xml version="1.0" encoding="utf-8"?>
<!-- Generator: Adobe Illustrator 16.0.0, SVG Export Plug-In . SVG Version: 6.00 Build 0)  -->
<!DOCTYPE svg PUBLIC "-//W3C//DTD SVG 1.1//EN" "http://www.w3.org/Graphics/SVG/1.1/DTD/svg11.dtd">
<svg version="1.1" id="Layer_1" xmlns="http://www.w3.org/2000/svg" xmlns:xlink="http://www.w3.org/1999/xlink" x="0px" y="0px"
	 width="512px" height="512px" viewBox="0 0 512 512" enable-background="new 0 0 512 512" xml:space="preserve">
<path d="M207.649,0H86.352C60.516,0,39.5,20.863,39.5,46.508v93.941c0,25.646,21.016,46.508,46.852,46.508h46.875
	c0.09,0,0.181-0.004,0.271-0.008c2.078-0.07,5.059,0.271,6.832,0.82c-0.488,0.879-1.414,2.25-3.168,4.168
	c-3.457,3.781-2.771,7.492-2.316,8.91c0.898,2.815,3.23,4.883,6.242,5.522c2.25,0.48,4.59,0.711,6.953,0.711
	c10.766,0,22.004-4.75,27.203-12.078c1.784-2.52,2.844-5.25,3.168-8.051h29.241c25.832,0,46.853-20.858,46.853-46.504v-93.94
	C254.5,20.863,233.485,0,207.649,0z M239.5,140.449c0,17.371-14.289,31.508-31.853,31.508h-38.371c-2.711,0-5.211,1.465-6.539,3.824
	c-1.327,2.367-1.272,5.262,0.138,7.578c0.965,1.582,0.69,2.176,0.133,2.965c-1.316,1.853-4.301,3.586-7.832,4.656
	c1.051-3.431,0.891-6.646-0.488-9.625c-3.906-8.441-15.344-9.418-20.41-9.418c-0.444,0-0.844,0.008-1.18,0.02H86.352
	c-17.563,0-31.852-14.137-31.852-31.508V46.508C54.5,29.136,68.789,15,86.352,15h121.297c17.566,0,31.853,14.138,31.853,31.508
	L239.5,140.449L239.5,140.449z"/>
<path d="M333.594,186.957c0.32,2.801,1.379,5.527,3.168,8.047c5.199,7.332,16.438,12.082,27.199,12.078
	c2.363,0,4.707-0.227,6.957-0.711c3.008-0.641,5.34-2.707,6.237-5.52c0.457-1.418,1.142-5.129-2.313-8.91
	c-1.754-1.918-2.68-3.289-3.168-4.168c1.688-0.521,4.527-0.896,6.832-0.82c0.09,0,0.18,0.004,0.27,0.004h46.871
	c25.836,0,46.853-20.862,46.853-46.508V46.508C472.5,20.863,451.481,0,425.649,0H416c-4.146,0-7.5,3.355-7.5,7.5
	c0,4.146,3.354,7.5,7.5,7.5h9.647c17.563,0,31.853,14.138,31.853,31.508v93.941c0,17.371-14.289,31.508-31.853,31.508h-46.746
	c-4.18-0.133-17.344,0.219-21.59,9.398c-1.379,2.979-1.539,6.194-0.487,9.625c-3.535-1.07-6.521-2.806-7.832-4.656
	c-0.56-0.789-0.832-1.383,0.133-2.965c1.41-2.316,1.465-5.211,0.137-7.578c-1.328-2.363-3.828-3.824-6.539-3.824h-38.371
	c-17.563,0-31.852-14.137-31.852-31.508V46.508C272.5,29.136,286.789,15,304.352,15h80.023c4.145,0,7.5-3.354,7.5-7.5
	c0-4.145-3.355-7.5-7.5-7.5h-80.023C278.52,0,257.5,20.863,257.5,46.508v93.941c0,25.646,21.02,46.508,46.852,46.508H333.594z"/>
<path d="M191.5,353h-27.785c3.027-5.086,5.352-10.547,6.918-16.28c0.113,0,0.227,0.012,0.34,0.012
	c17.109,0,31.027-15.027,31.027-33.5c0-15.387-9.828-28.527-23.056-32.359c-0.151-4.32-0.616-7.664-0.854-9.147
	c0.012-3-0.316-12.966-4.668-23.156c-4.695-11.008-14.855-24.246-36.685-26.5c-5.469-5.422-19.604-13.254-53.94-7.625
	c-4.086,0.672-6.859,4.527-6.188,8.617c0.668,4.086,4.535,6.854,8.613,6.188c31.211-5.117,39.883,2.383,41.152,3.724
	c1.026,2.727,3.237,3.68,6.229,3.823c13.224,0.638,22.004,6.281,26.849,17.267c3.897,8.84,3.637,17.867,3.633,17.93
	c-0.023,0.566,0.02,1.148,0.125,1.699c0.022,0.141,2.477,13.684-1.375,24.479c-5.547-4.983-8.797-18.789-9.556-26.578
	c-0.229-2.422-1.625-4.581-3.733-5.793c-13.91-7.977-17.066-16.09-17.406-17.069c-0.672-2.965-3.031-5.074-6.039-5.578
	c-3.035-0.5-6.031,1.063-7.617,3.69c-5.793,9.595-32.741,16.302-50.026,17.996c-3.566,0.349-6.392,3.181-6.738,6.75
	c-0.758,7.789-3.996,21.578-9.547,26.582c-1.281-3.578-1.863-7.457-2.074-11.051c0-0.008,0-0.016,0-0.022
	c0-0.07-0.008-0.138-0.012-0.207c-0.392-7.148,0.684-13.103,0.699-13.185c0.069-0.358,0.112-0.723,0.125-1.09
	c0.008-0.18,0.87-17.957,12.12-30.883c2.72-3.125,2.392-7.863-0.733-10.582c-3.125-2.715-7.859-2.391-10.582,0.734
	c-13.566,15.59-15.512,35.854-15.758,39.547c-0.22,1.305-0.742,4.813-0.902,9.44C20.828,274.711,11,287.847,11,303.23
	c0,18.473,13.922,33.5,31.03,33.5c0.113,0,0.224-0.012,0.337-0.012c1.565,5.733,3.895,11.194,6.922,16.281H21.5
	C9.645,353,0,362.644,0,374.5v116C0,502.355,9.645,512,21.5,512h170c11.854,0,21.5-9.645,21.5-21.5v-116
	C213,362.644,203.356,353,191.5,353z M187,303.23c0,9.426-6.146,17.211-14.047,18.344c0.086-2.371,0.03-1.762,0.047-23.086
	c2.655-3.035,3.905-7.547,4.789-11.965C183.215,289.504,187,295.894,187,303.23z M26,303.23c0-7.336,3.785-13.728,9.215-16.707
	c0.863,4.297,2.168,8.957,4.785,11.953c0.016,21.086-0.035,20.77,0.047,23.098C32.145,320.441,26,312.656,26,303.23z
	 M55.625,327.125c-0.414-2.598-0.625-5.293-0.625-8.016v-16.18c1.699-0.492,3.315-1.293,4.766-2.41
	c9.543-7.353,13.512-22.781,15.039-31.474c11.039-1.559,33.863-5.858,47.504-15.991c3.188,4.147,8.082,9.043,15.527,13.789
	c1.211,8,4.988,25.651,15.395,33.663c1.453,1.125,3.07,1.923,4.771,2.414v16.188c0,2.723-0.211,5.418-0.629,8.039
	c-1.513,9.648-5.695,18.521-12.142,25.852H67.77C61.324,345.669,57.141,336.794,55.625,327.125z M198,490.5
	c0,3.587-2.914,6.5-6.5,6.5h-170c-3.586,0-6.5-2.913-6.5-6.5v-116c0-3.586,2.914-6.5,6.5-6.5h170c3.586,0,6.5,2.914,6.5,6.5V490.5z"
	/>
<path d="M108.239,406.966c-15.163,0-27.5,12.336-27.5,27.5s12.337,27.5,27.5,27.5c15.164,0,27.5-12.336,27.5-27.5
	S123.403,406.966,108.239,406.966z M108.239,446.966c-6.891,0-12.5-5.605-12.5-12.5c0-6.896,5.609-12.5,12.5-12.5
	c6.896,0,12.5,5.604,12.5,12.5C120.739,441.36,115.133,446.966,108.239,446.966z"/>
<path d="M504.5,455.5c4.145,0,7.5-3.354,7.5-7.5v-73.5c0-11.854-9.646-21.5-21.5-21.5h-27.781c3.026-5.081,5.354-10.547,6.922-16.28
	c0.109,0,0.223,0.012,0.332,0.012c17.113,0,31.031-15.027,31.031-33.5c0-15.392-9.828-28.527-23.063-32.363
	c-0.147-4.316-0.613-7.66-0.852-9.145c0.008-3-0.32-12.966-4.668-23.156c-4.699-11.008-14.855-24.246-36.688-26.5
	c-5.479-5.435-19.668-13.289-54.198-7.582c-18.73,3.104-32.938,14.147-41.086,31.94c-5.294,11.563-6.316,22.414-6.492,25
	c-0.22,1.302-0.742,4.81-0.902,9.445c-13.227,3.84-23.051,16.978-23.051,32.359c0,18.473,13.918,33.5,31.02,33.5
	c0.117,0,0.23-0.012,0.349-0.012c1.565,5.737,3.891,11.199,6.918,16.28H320.5c-11.855,0-21.5,9.646-21.5,21.5v116
	c0,11.855,9.645,21.5,21.5,21.5h170c11.854,0,21.5-9.645,21.5-21.5V480c0-4.145-3.355-7.5-7.5-7.5c-4.146,0-7.5,3.355-7.5,7.5v10.5
	c0,3.587-2.914,6.5-6.5,6.5h-170c-3.586,0-6.5-2.913-6.5-6.5v-116c0-3.586,2.914-6.5,6.5-6.5h170c3.586,0,6.5,2.914,6.5,6.5V448
	C497,452.144,500.356,455.5,504.5,455.5z M486.004,303.23c0,9.426-6.142,17.211-14.048,18.344c0.087-2.375,0.031-1.707,0.048-23.094
	c2.621-2.996,3.879-7.422,4.784-11.957C482.219,289.5,486.004,295.894,486.004,303.23z M348.785,263.703
	c0.065-0.348,0.108-0.719,0.125-1.065c0.073-1.548,2.18-37.906,35.073-43.355c31.398-5.191,40.117,2.344,41.392,3.688
	c1.026,2.727,3.233,3.68,6.229,3.819c13.223,0.638,22.004,6.285,26.848,17.267c3.898,8.844,3.638,17.871,3.634,17.934
	c-0.023,0.574,0.02,1.148,0.125,1.715c0.026,0.137,2.444,13.734-1.375,24.465c-5.548-4.983-8.798-18.789-9.56-26.578
	c-0.227-2.422-1.621-4.581-3.729-5.793c-13.91-7.977-17.066-16.09-17.406-17.069c-0.672-2.965-3.031-5.074-6.039-5.574
	c-3.027-0.504-6.027,1.059-7.617,3.688c-5.789,9.594-32.741,16.301-50.022,17.995c-3.57,0.349-6.396,3.181-6.742,6.75
	c-0.758,7.789-3.996,21.578-9.547,26.582C346.313,277.371,348.762,263.824,348.785,263.703z M325.004,303.23
	c0-7.336,3.785-13.728,9.211-16.707c0.906,4.522,2.215,9.016,4.789,11.961c0.02,21.168-0.035,20.754,0.051,23.09
	C331.149,320.445,325.004,312.66,325.004,303.23z M354.633,327.125c-0.418-2.598-0.629-5.293-0.629-8.016v-16.18
	c1.699-0.492,3.315-1.293,4.762-2.41c9.543-7.353,13.512-22.781,15.039-31.474c11.039-1.559,33.863-5.858,47.504-15.991
	c3.188,4.147,8.086,9.047,15.527,13.789c1.211,8,4.987,25.651,15.395,33.663c1.453,1.125,3.074,1.927,4.773,2.418v16.185
	c0,2.723-0.211,5.418-0.629,8.039c-1.513,9.66-5.699,18.531-12.148,25.852h-77.453C360.328,345.677,356.145,336.802,354.633,327.125
	z"/>
<path d="M379.739,434.466c0,15.164,12.337,27.5,27.5,27.5c15.164,0,27.5-12.336,27.5-27.5s-12.336-27.5-27.5-27.5
	C392.075,406.966,379.739,419.302,379.739,434.466z M419.739,434.466c0,6.895-5.604,12.5-12.5,12.5c-6.891,0-12.5-5.605-12.5-12.5
	c0-6.896,5.609-12.5,12.5-12.5C414.133,421.966,419.739,427.57,419.739,434.466z"/>
<path d="M119.446,105.75l-17.362-14.992l17.362-14.995c3.138-2.707,3.484-7.441,0.777-10.578c-2.707-3.133-7.445-3.48-10.578-0.773
	L85.703,85.078c-1.648,1.426-2.599,3.5-2.599,5.68c0,2.181,0.949,4.25,2.599,5.677l23.94,20.672c1.414,1.223,3.16,1.819,4.896,1.819
	c2.104,0,4.198-0.879,5.684-2.598C122.93,113.191,122.582,108.457,119.446,105.75z"/>
<path d="M209.18,85.078L185.239,64.41c-3.133-2.707-7.87-2.358-10.577,0.773c-2.707,3.137-2.359,7.871,0.776,10.578l17.363,14.991
	l-17.363,14.992c-3.137,2.707-3.483,7.445-0.776,10.578c1.483,1.719,3.577,2.602,5.68,2.602c1.738,0,3.479-0.602,4.897-1.823
	l23.941-20.668c1.648-1.427,2.598-3.5,2.598-5.681C211.778,88.573,210.828,86.504,209.18,85.078z"/>
<path d="M166.496,42.203c-3.806-1.645-8.22,0.109-9.859,3.91l-36,83.332c-1.645,3.805,0.105,8.219,3.91,9.859
	c0.969,0.422,1.977,0.616,2.969,0.616c2.902,0,5.668-1.69,6.892-4.526l36-83.332C172.051,48.261,170.297,43.847,166.496,42.203z"/>
<path d="M339.156,40.758v25.191c-19.313,3.539-34,20.484-34,40.809c0,22.884,18.617,41.5,41.5,41.5c20.32,0,37.267-14.688,40.81-34
	h25.19c4.146,0,7.5-3.358,7.5-7.5v-66c0-4.145-3.354-7.5-7.5-7.5h-66C342.516,33.258,339.156,36.613,339.156,40.758z
	 M354.156,81.344c8.591,2.538,15.371,9.319,17.91,17.913h-17.91V81.344z M346.656,133.258c-14.612,0-26.5-11.891-26.5-26.5
	c0-12.012,8.031-22.172,19-25.413v25.413c0,4.142,3.355,7.5,7.5,7.5h25.41C368.824,125.226,358.664,133.258,346.656,133.258z
	 M405.156,48.258v51h-17.69c-3.098-16.879-16.43-30.215-33.31-33.309V48.258H405.156z"/>
<line fill="none" stroke="#000000" stroke-width="10" stroke-miterlimit="10" x1="254.504" y1="202.494" x2="254.504" y2="512"/>
</svg>
