<?xml version="1.0" encoding="utf-8"?>
<!-- Generator: Adobe Illustrator 16.0.0, SVG Export Plug-In . SVG Version: 6.00 Build 0)  -->
<!DOCTYPE svg PUBLIC "-//W3C//DTD SVG 1.1//EN" "http://www.w3.org/Graphics/SVG/1.1/DTD/svg11.dtd">
<svg version="1.1" id="Layer_1" xmlns="http://www.w3.org/2000/svg" xmlns:xlink="http://www.w3.org/1999/xlink" x="0px" y="0px"
	 width="512px" height="512px" viewBox="0 0 512 512" enable-background="new 0 0 512 512" xml:space="preserve">
<g>
	<g>
		<path fill="#EBE7F2" d="M158.492,249.648v-12.725h20.113v12.725l-3.294,2.862l8.408,46.804l-14.794,49.718l-15.134-49.718
			l8.558-46.804L158.492,249.648z"/>
		<path fill="#EBE7F2" d="M83.088,320.98v119.976c7.91-2.672,13.612-10.138,13.612-18.951V311.268h-3.9
			C87.436,311.27,83.088,315.618,83.088,320.98z"/>
		<path fill="#EBE7F2" d="M141.664,368.148H112.33c-1.104,0-2-0.896-2-2v-8c0-1.104,0.896-2,2-2h29.334c1.104,0,2,0.896,2,2v8
			C143.664,367.253,142.768,368.148,141.664,368.148z"/>
		<path fill="#EBE7F2" d="M244.32,311.27h-3.899v110.736c0,8.812,5.702,16.277,13.612,18.951V320.98
			C254.03,315.618,249.682,311.27,244.32,311.27z"/>
		<path fill="#EBE7F2" d="M195.454,368.148h29.334c1.104,0,2-0.896,2-2v-8c0-1.104-0.896-2-2-2h-29.334c-1.104,0-2,0.896-2,2v8
			C193.454,367.253,194.35,368.148,195.454,368.148z"/>
		<path fill="#EBE7F2" d="M447.031,103.28c0-2.288-0.128-4.544-0.365-6.768c-3.379,31.706-30.206,56.403-62.809,56.403
			c-32.602,0-59.43-24.697-62.808-56.403c-0.238,2.224-0.366,4.481-0.366,6.768c0,34.89,28.284,63.174,63.174,63.174
			c13.162,0,25.382-4.03,35.5-10.916l-0.002,0.002l26.322,9.393l-18.572-15.624C439.364,137.784,447.031,121.432,447.031,103.28
			L447.031,103.28z"/>
	</g>
	<path fill="#65C1D6" d="M383.49,110.79c-4.289,0-7.766-3.476-7.766-7.766V72.29c0-4.29,3.479-7.766,7.766-7.766
		c4.29,0,7.767,3.476,7.767,7.766v30.734C391.256,107.314,387.778,110.79,383.49,110.79z"/>
	<path fill="#65C1D6" d="M391.256,125.662c0,4.29-3.477,7.767-7.766,7.767c-4.29,0-7.767-3.479-7.767-7.767
		c0-4.29,3.479-7.766,7.767-7.766C387.778,117.896,391.256,121.372,391.256,125.662L391.256,125.662z"/>
	<path fill="#EBE7F2" d="M447.031,244.522c0-2.288-0.128-4.544-0.365-6.769c-3.379,31.706-30.206,56.404-62.809,56.404
		c-32.602,0-59.43-24.698-62.808-56.404c-0.238,2.225-0.366,4.482-0.366,6.769c0,34.89,28.284,63.174,63.174,63.174
		c13.162,0,25.382-4.03,35.5-10.916l-0.002,0.002l26.322,9.392l-18.572-15.623C439.364,279.026,447.031,262.674,447.031,244.522
		L447.031,244.522z"/>
	<path fill="#65C1D6" d="M383.49,252.032c-4.289,0-7.766-3.478-7.766-7.766v-30.734c0-4.29,3.479-7.766,7.766-7.766
		c4.29,0,7.767,3.478,7.767,7.766v30.734C391.256,248.554,387.778,252.032,383.49,252.032z"/>
	<path fill="#65C1D6" d="M391.256,266.904c0,4.29-3.477,7.766-7.766,7.766c-4.29,0-7.767-3.476-7.767-7.766s3.479-7.766,7.767-7.766
		C387.778,259.138,391.256,262.614,391.256,266.904z"/>
	<path fill="#EBE7F2" d="M447.031,385.764c0-2.288-0.128-4.544-0.365-6.769c-3.379,31.706-30.206,56.404-62.809,56.404
		c-32.602,0-59.43-24.7-62.808-56.404c-0.238,2.225-0.366,4.482-0.366,6.769c0,34.89,28.284,63.174,63.174,63.174
		c13.162,0,25.382-4.03,35.5-10.916l-0.002,0.002l26.322,9.393l-18.572-15.624C439.364,420.268,447.031,403.917,447.031,385.764
		L447.031,385.764z"/>
	<g>
		<path fill="#846F75" d="M192.736,153.226c4.04,0,7.314-3.274,7.314-7.314s-3.274-7.313-7.314-7.313s-7.313,3.273-7.313,7.313
			C185.422,149.95,188.696,153.226,192.736,153.226z"/>
		<path fill="#846F75" d="M144.362,138.596c-4.04,0-7.313,3.273-7.313,7.313s3.273,7.314,7.313,7.314s7.314-3.274,7.314-7.314
			C151.676,141.872,148.402,138.596,144.362,138.596z"/>
		<path fill="#846F75" d="M152.532,174.438c-1.954,1.952-1.954,5.116,0,7.069c0.976,0.977,2.256,1.465,3.535,1.465
			c1.28,0,2.561-0.488,3.536-1.465c4.935-4.934,12.96-4.93,17.895,0c1.954,1.954,5.118,1.954,7.071,0
			c1.952-1.953,1.952-5.119-0.002-7.069C175.734,165.606,161.362,165.606,152.532,174.438z"/>
		<path fill="#846F75" d="M108.726,137.814c13.92-2.53,28.7-7.544,36.196-24.49c15.806,15.852,42.928,25.954,68.773,25.952
			c5.597,0,11.135-0.472,16.482-1.464c2.37-0.44,4.088-2.506,4.088-4.916c0-35.332-29.479-64.076-65.718-64.076
			c-36.236,0-65.716,28.744-65.716,64.076c0,1.481,0.657,2.888,1.796,3.838C105.766,137.686,107.266,138.074,108.726,137.814
			L108.726,137.814z M168.548,78.818c29.246,0,53.304,21.984,55.546,49.82c-28.798,3.611-63.228-8.744-77.022-28.177
			c-0.947-1.336-2.476-2.105-4.075-2.105c-0.314,0-0.63,0.03-0.946,0.09c-1.924,0.372-3.456,1.832-3.916,3.736
			c-3.271,13.544-10.242,20.58-24.93,24.422C116.428,99.74,140.018,78.818,168.548,78.818z"/>
		<path fill="#846F75" d="M113.822,151.018c-0.439-2.727-3.008-4.604-5.733-4.139c-2.727,0.44-4.58,3.007-4.141,5.732
			c5.79,35.872,32.958,61.908,64.601,61.908c31.642,0,58.81-26.038,64.6-61.908c0.44-2.726-1.414-5.292-4.14-5.732
			c-2.742-0.462-5.294,1.414-5.734,4.139c-5.004,31.002-28.02,53.502-54.728,53.502S118.824,182.02,113.822,151.018L113.822,151.018
			z"/>
		<path fill="#846F75" d="M249.686,234.722h-43.25v-11.826c0-0.296-0.038-0.582-0.088-0.864c0.176-0.994,0.066-2.046-0.404-3.026
			c-1.193-2.489-4.18-3.546-6.668-2.35l-30.728,14.722l-30.729-14.722c-2.491-1.198-5.476-0.14-6.668,2.35
			c-0.47,0.98-0.58,2.032-0.403,3.026c-0.051,0.282-0.088,0.568-0.088,0.864v11.826H87.432c-19.722,0-35.768,16.048-35.768,35.77
			v151.515c0,13.796,11.222,25.018,25.018,25.018c10.09,0,18.784-6.016,22.736-14.64c18.027,12.908,42.572,20.246,68.688,20.328
			c0.03,0.002,0.057,0.008,0.086,0.008h0.358h0.02h0.358c0.03,0,0.056-0.008,0.086-0.008c26.116-0.082,50.66-7.42,68.688-20.328
			c3.951,8.624,12.646,14.64,22.735,14.64c13.794,0,25.019-11.222,25.019-25.018V270.492
			C285.454,250.77,269.408,234.722,249.686,234.722L249.686,234.722z M197.894,303.25l8.742,7.225l-32.708,42.13v-2.842
			l31.24-105.04h21.806l-12.092,42.882l-15.876,7.242c-1.568,0.714-2.656,2.186-2.882,3.894
			C195.896,300.45,196.566,302.152,197.894,303.25z M140.996,298.742c-0.227-1.708-1.314-3.18-2.883-3.894l-15.876-7.242
			l-12.092-42.882h21.811l31.97,105.054v3.778l-33.444-43.078l8.742-7.225C140.552,302.152,141.222,300.45,140.996,298.742z
			 M168.548,241.924c0.738,0,1.478-0.163,2.16-0.489l25.728-12.328v9.888l-27.563,92.685l-28.21-92.7v-9.872l25.728,12.328
			C167.072,241.76,167.81,241.924,168.548,241.924z M87.432,244.722h12.322l13.486,47.827c0.399,1.414,1.399,2.582,2.737,3.192
			l10.718,4.888l-6.323,5.227c-2.082,1.72-2.42,4.786-0.765,6.92l43.683,56.265c0.107,0.594,0.317,1.165,0.636,1.691v71.898
			c-24.254-0.854-46.584-8.414-62.228-21.074V311.268c0-2.762-2.238-5-5-5c-2.763,0-5,2.238-5,5v75.228H61.664V270.49
			C61.664,256.284,73.224,244.722,87.432,244.722L87.432,244.722z M76.682,437.024c-8.28,0-15.018-6.736-15.018-15.018v-25.509H91.7
			v25.509C91.7,430.288,84.962,437.024,76.682,437.024z M260.436,437.024c-8.279,0-15.018-6.736-15.018-15.018v-25.509h30.036
			v25.509C275.454,430.288,268.716,437.024,260.436,437.024z M275.454,386.498H245.42V311.27c0-2.762-2.238-5-5-5s-5,2.238-5,5
			v110.288c-15.484,12.532-37.522,20.068-61.492,21.046v-73.692l43.582-56.134c1.658-2.134,1.318-5.2-0.764-6.92l-6.324-5.227
			l10.718-4.888c1.338-0.61,2.338-1.778,2.738-3.192l13.486-47.827h12.321c14.208,0,25.769,11.56,25.769,25.77V386.498z"/>
		<path fill="#846F75" d="M383.858,171.454c12.874,0,25.318-3.578,36.154-10.372l23.985,8.557c1.818,0.646,3.851,0.193,5.215-1.175
			c1.365-1.365,1.823-3.396,1.174-5.214l-8.58-24.044c6.696-10.78,10.224-23.144,10.224-35.926c0-37.59-30.582-68.172-68.172-68.172
			s-68.174,30.582-68.174,68.172C315.684,140.872,346.268,171.454,383.858,171.454L383.858,171.454z M383.858,45.108
			c32.076,0,58.172,26.096,58.172,58.172c0,11.64-3.426,22.874-9.908,32.486c-0.888,1.315-1.098,2.978-0.563,4.474l5.864,16.436
			l-16.389-5.846c-1.502-0.54-3.174-0.324-4.491,0.576c-9.662,6.572-20.964,10.046-32.685,10.046
			c-32.078,0-58.174-26.096-58.174-58.174C325.684,71.204,351.782,45.108,383.858,45.108L383.858,45.108z"/>
		<path fill="#846F75" d="M383.858,176.35c-37.59,0-68.174,30.582-68.174,68.172c0,37.592,30.584,68.174,68.174,68.174
			c12.874,0,25.318-3.578,36.154-10.372l23.985,8.557c1.818,0.646,3.851,0.193,5.215-1.175c1.365-1.365,1.823-3.396,1.174-5.214
			l-8.58-24.046c6.696-10.778,10.224-23.142,10.224-35.924C452.031,206.932,421.449,176.35,383.858,176.35L383.858,176.35z
			 M432.121,277.004c-0.888,1.318-1.098,2.98-0.563,4.477l5.864,16.438l-16.389-5.846c-1.502-0.54-3.174-0.324-4.491,0.576
			c-9.662,6.572-20.964,10.046-32.685,10.046c-32.078,0-58.174-26.096-58.174-58.174c0-32.076,26.096-58.172,58.174-58.172
			c32.076,0,58.172,26.096,58.172,58.172C442.031,256.162,438.606,267.394,432.121,277.004L432.121,277.004z"/>
		<path fill="#846F75" d="M383.858,317.593c-37.59,0-68.174,30.582-68.174,68.172c0,37.592,30.584,68.174,68.174,68.174
			c12.874,0,25.318-3.578,36.154-10.372l23.985,8.556c1.818,0.646,3.851,0.194,5.215-1.174c1.365-1.366,1.823-3.396,1.174-5.214
			l-8.58-24.046c6.696-10.778,10.224-23.142,10.224-35.924C452.031,348.175,421.449,317.593,383.858,317.593z M431.56,422.722
			l5.864,16.438l-16.389-5.846c-1.502-0.54-3.174-0.324-4.491,0.576c-9.662,6.572-20.964,10.046-32.685,10.046
			c-32.077,0-58.174-26.096-58.174-58.174c0-32.076,26.097-58.172,58.174-58.172c32.076,0,58.172,26.096,58.172,58.172
			c0,11.64-3.426,22.874-9.908,32.481C431.234,419.564,431.026,421.226,431.56,422.722L431.56,422.722z"/>
	</g>
	<path fill="#65C1D6" d="M383.49,393.274c-4.289,0-7.766-3.476-7.766-7.766v-30.734c0-4.29,3.479-7.766,7.766-7.766
		c4.29,0,7.767,3.476,7.767,7.766v30.734C391.256,389.797,387.778,393.274,383.49,393.274z"/>
	<path fill="#65C1D6" d="M391.256,408.146c0,4.29-3.477,7.766-7.766,7.766c-4.29,0-7.767-3.478-7.767-7.766
		c0-4.29,3.479-7.766,7.767-7.766C387.778,400.381,391.256,403.856,391.256,408.146z"/>
</g>
</svg>
