<?xml version="1.0" encoding="utf-8"?>
<!-- Generator: Adobe Illustrator 16.0.0, SVG Export Plug-In . SVG Version: 6.00 Build 0)  -->
<!DOCTYPE svg PUBLIC "-//W3C//DTD SVG 1.1//EN" "http://www.w3.org/Graphics/SVG/1.1/DTD/svg11.dtd">
<svg version="1.1" id="Capa_1" xmlns="http://www.w3.org/2000/svg" xmlns:xlink="http://www.w3.org/1999/xlink" x="0px" y="0px"
	 width="841.889px" height="595.281px" viewBox="0 0 841.889 595.281" enable-background="new 0 0 841.889 595.281"
	 xml:space="preserve">
<g>
	<g>
		<rect x="223.977" y="549.687" width="385.181" height="43.771"/>
	</g>
</g>
<g>
	<g>
		<path d="M485.87,197.333H350.912c-12.088,0-21.886,9.798-21.886,21.886c0,12.089,9.798,21.887,21.886,21.887h134.959
			c12.088,0,21.886-9.798,21.886-21.887C507.757,207.131,497.959,197.333,485.87,197.333z"/>
	</g>
</g>
<g>
	<g>
		<path d="M588.002,299.465h-237.09c-12.088,0-21.886,9.798-21.886,21.886s9.798,21.886,21.886,21.886h237.091
			c12.088,0,21.885-9.798,21.885-21.886S600.09,299.465,588.002,299.465z"/>
	</g>
</g>
<g>
	<g>
		<path d="M705.688,4.488c-7.857-3.531-17.041-2.137-23.49,3.56l-61.286,54.218L559.552,7.398c-8.31-7.435-20.871-7.435-29.181,0
			l-61.279,54.801L407.807,7.398c-8.31-7.435-20.864-7.435-29.174,0l-61.358,54.867L255.989,8.048
			c-6.441-5.689-15.634-7.084-23.49-3.56c-7.85,3.538-12.897,11.344-12.897,19.952v389.559h-74.41
			c-12.088-0.001-21.886,9.797-21.886,21.885v53.255c0,57.521,46.798,104.319,104.319,104.319v-43.771
			c-33.39,0-60.549-27.167-60.549-60.549v-31.369h342.869v31.369c0,57.521,46.798,104.32,104.319,104.32
			s104.319-46.798,104.319-104.319v-464.7C718.584,15.831,713.536,8.026,705.688,4.488z M674.814,489.138
			c0,33.382-27.166,60.549-60.549,60.549c-33.382,0-60.549-27.167-60.549-60.549v-53.255c0-12.088-9.797-21.886-21.886-21.886
			H263.371V73.017l39.488,34.937c8.316,7.354,20.819,7.316,29.085-0.08l61.279-54.801l61.278,54.794
			c8.31,7.434,20.871,7.434,29.181,0l61.286-54.801l61.278,54.801c8.272,7.396,20.777,7.426,29.085,0.08l39.481-34.929V489.138z"/>
	</g>
</g>
</svg>
