<?xml version="1.0" encoding="iso-8859-1"?>
<!-- Generator: Adobe Illustrator 18.1.1, SVG Export Plug-In . SVG Version: 6.00 Build 0)  -->
<svg version="1.1" id="Capa_1" xmlns="http://www.w3.org/2000/svg" xmlns:xlink="http://www.w3.org/1999/xlink" x="0px" y="0px"
	 viewBox="0 0 290 290" style="enable-background:new 0 0 290 290;" xml:space="preserve">
<g>
	<path id="rect15233" d="M55,0C41.236,0,30,11.237,30,25v75h-5c-13.764,0-25,11.236-25,25v90c0,13.764,11.236,25,25,25h11.096
		l-5.947,23.787C30.05,264.184,30,264.591,30,265c0,13.764,11.236,25,25,25h180c6.932,0,13.628-2.736,18.559-7.299
		s8.129-11.569,6.293-18.914L253.904,240H265c13.764,0,25-11.236,25-25v-90c0-13.764-11.236-25-25-25h-5V75
		c0-1.262-0.477-2.477-1.336-3.402l-65-70C192.718,0.579,191.39,0,190,0H55z M55,10h125v65c0,2.761,2.239,5,5,5h65v20H40V25
		C40,16.604,46.604,10,55,10z M190,12.348L243.535,70H190V12.348z M50,17.5c-1.381,0-2.5,1.119-2.5,2.5v55
		c-0.02,1.381,1.084,2.516,2.465,2.535c1.381,0.02,2.516-1.084,2.535-2.465c0-0.024,0-0.047,0-0.071V22.5H85
		c1.381,0.02,2.516-1.084,2.535-2.465c0.02-1.381-1.084-2.516-2.465-2.535c-0.024,0-0.047,0-0.071,0H50z M25,110h240
		c8.396,0,15,6.604,15,15v90c0,8.396-6.604,15-15,15h-13.596l-11.553-46.213C239.295,181.561,237.295,180,235,180H55
		c-2.295,0-4.295,1.561-4.852,3.787L38.596,230H25c-8.396,0-15-6.604-15-15v-90C10,116.604,16.604,110,25,110z M45,140
		c-2.761-0.039-5.032,2.168-5.071,4.929c-0.039,2.761,2.168,5.032,4.929,5.071c0.047,0.001,0.094,0.001,0.141,0h150
		c2.761,0.039,5.032-2.168,5.071-4.929c0.039-2.761-2.168-5.032-4.929-5.071c-0.047-0.001-0.094-0.001-0.141,0H45z M215,140
		c-2.761,0-5,2.239-5,5s2.239,5,5,5s5-2.239,5-5S217.761,140,215,140z M230,140c-2.761,0-5,2.239-5,5s2.239,5,5,5s5-2.239,5-5
		S232.761,140,230,140z M245,140c-2.761,0-5,2.239-5,5s2.239,5,5,5s5-2.239,5-5S247.761,140,245,140z M58.904,190h172.191
		l19.053,76.213c0.851,3.404-0.409,6.398-3.381,9.148S239.148,280,235,280H55c-8.244,0-14.723-6.378-14.957-14.557L58.904,190z
		 M105,212.5c-1.381-0.02-2.516,1.084-2.535,2.465c-0.02,1.381,1.084,2.516,2.465,2.535c0.024,0,0.047,0,0.071,0h80
		c1.381,0.02,2.516-1.084,2.535-2.465c0.02-1.381-1.084-2.516-2.465-2.535c-0.024,0-0.047,0-0.071,0H105z M85,237.5
		c-1.381-0.02-2.516,1.084-2.535,2.465c-0.02,1.381,1.084,2.516,2.465,2.535c0.024,0,0.047,0,0.071,0h120
		c1.381,0.02,2.516-1.084,2.535-2.465c0.02-1.381-1.084-2.516-2.465-2.535c-0.024,0-0.047,0-0.071,0H85z M75,262.5
		c-1.381-0.02-2.516,1.084-2.535,2.465c-0.02,1.381,1.084,2.516,2.465,2.535c0.024,0,0.047,0,0.071,0h140
		c1.381,0.02,2.516-1.084,2.535-2.465s-1.084-2.516-2.465-2.535c-0.024,0-0.047,0-0.071,0H75z"/>
</g>
<g>
</g>
<g>
</g>
<g>
</g>
<g>
</g>
<g>
</g>
<g>
</g>
<g>
</g>
<g>
</g>
<g>
</g>
<g>
</g>
<g>
</g>
<g>
</g>
<g>
</g>
<g>
</g>
<g>
</g>
</svg>
