<?xml version="1.0" encoding="utf-8"?>
<!-- Generator: Adobe Illustrator 16.0.0, SVG Export Plug-In . SVG Version: 6.00 Build 0)  -->
<!DOCTYPE svg PUBLIC "-//W3C//DTD SVG 1.1//EN" "http://www.w3.org/Graphics/SVG/1.1/DTD/svg11.dtd">
<svg version="1.1" id="Layer_1_1_" xmlns="http://www.w3.org/2000/svg" xmlns:xlink="http://www.w3.org/1999/xlink" x="0px" y="0px"
	 width="841.889px" height="595.281px" viewBox="0 0 841.889 595.281" enable-background="new 0 0 841.889 595.281"
	 xml:space="preserve">
<g>
	<path d="M672.078,176.723v-55.807h-37.205v-9.302c0-15.384-12.52-27.903-27.903-27.903c-3.274,0-6.381,0.669-9.302,1.711V55.807
		c0-25.644-20.862-46.506-46.506-46.506s-46.507,20.862-46.507,46.506v65.109h-27.903c-25.644,0-46.506,20.862-46.506,46.506v9.301
		h-18.604v-9.301c0-25.644-20.862-46.506-46.506-46.506H169.811v55.807h-37.205v372.051h242.772
		c4.315,21.197,23.113,37.205,45.566,37.205s41.251-16.008,45.566-37.205h242.772V176.723H672.078z M548.102,379.073l-21.644-72.132
		h49.408l-21.645,72.132C553.404,381.799,548.92,381.799,548.102,379.073z M579.066,288.339h-55.808V120.917h55.808V288.339z
		 M551.162,27.904c15.384,0,27.903,12.52,27.903,27.903v46.507h-55.808V55.807C523.258,40.424,535.778,27.904,551.162,27.904z
		 M448.848,167.423c0-15.384,12.52-27.903,27.904-27.903h27.903V297.64l24.723,83.711h-43.325v18.603h148.82v-18.603h-61.909
		l24.704-82.344V111.615c0-5.125,4.177-9.301,9.302-9.301s9.301,4.176,9.301,9.301v130.218h18.603V139.519h18.603v353.447H448.848
		v-37.205c10.26,0,18.603-8.343,18.603-18.603v-18.603c0-10.259-8.343-18.603-18.603-18.603v-18.603
		c10.26,0,18.603-8.343,18.603-18.603v-18.603c0-10.259-8.343-18.603-18.603-18.603v-18.603c10.26,0,18.603-8.343,18.603-18.603
		v-18.603c0-10.259-8.343-18.603-18.603-18.603v-18.603c10.26,0,18.603-8.343,18.603-18.603v-18.603
		c0-10.259-8.343-18.603-18.603-18.603V167.423z M393.041,437.159v-18.603h55.807l0.01,18.603H393.041z M448.858,213.928h-55.816
		v-18.603h55.807L448.858,213.928z M430.246,232.531v18.603h-18.604v-18.603H430.246z M448.848,269.736l0.01,18.603h-55.816v-18.603
		H448.848z M430.246,306.941v18.603h-18.604v-18.603H430.246z M448.848,344.146l0.01,18.603h-55.816v-18.603H448.848z
		 M430.246,381.351v18.603h-18.604v-18.603H430.246z M188.413,139.519h176.724c15.385,0,27.904,12.52,27.904,27.903v9.301
		c-10.26,0-18.603,8.344-18.603,18.603v18.603c0,10.26,8.343,18.603,18.603,18.603v18.603c-10.26,0-18.603,8.344-18.603,18.603
		v18.603c0,10.26,8.343,18.603,18.603,18.603v18.603c-10.26,0-18.603,8.344-18.603,18.603v18.603
		c0,10.26,8.343,18.603,18.603,18.603v18.603c-10.26,0-18.603,8.344-18.603,18.603v18.603c0,10.26,8.343,18.603,18.603,18.603
		v37.205H188.413V139.519z M690.681,530.172H448.848v9.302c0,15.384-12.52,27.903-27.903,27.903s-27.903-12.52-27.903-27.903v-9.302
		H151.208V195.326h18.603v316.243h241.832v-55.808h18.604v55.808h241.832V195.326h18.603V530.172z"/>
	<rect x="486.053" y="418.556" width="148.82" height="18.603"/>
	<path d="M207.016,251.134h148.82v-93.012h-148.82V251.134z M225.618,176.723h111.615v55.808H225.618V176.723z"/>
	<rect x="207.016" y="306.941" width="130.218" height="18.603"/>
	<rect x="262.823" y="344.146" width="93.013" height="18.603"/>
	<rect x="207.016" y="344.146" width="37.205" height="18.603"/>
	<rect x="337.234" y="381.351" width="18.603" height="18.603"/>
	<rect x="207.016" y="381.351" width="111.615" height="18.603"/>
	<rect x="207.016" y="418.556" width="93.013" height="18.603"/>
	<rect x="207.016" y="269.736" width="148.82" height="18.603"/>
</g>
</svg>
