<?xml version="1.0" encoding="utf-8"?>
<!-- Generator: Adobe Illustrator 16.0.0, SVG Export Plug-In . SVG Version: 6.00 Build 0)  -->
<!DOCTYPE svg PUBLIC "-//W3C//DTD SVG 1.1//EN" "http://www.w3.org/Graphics/SVG/1.1/DTD/svg11.dtd">
<svg version="1.1" id="Layer_1" xmlns="http://www.w3.org/2000/svg" xmlns:xlink="http://www.w3.org/1999/xlink" x="0px" y="0px"
	 width="512px" height="512px" viewBox="0 0 512 512" enable-background="new 0 0 512 512" xml:space="preserve">
<g>
	<path d="M101.352,80h61.008l14.776,66.107v88.06c0,20.114,16.364,36.479,36.479,36.479h0.853l-15.65,24.568l-76.129,44.379
		c-2.767,1.611-4.468,4.572-4.468,7.774v32.387c0,4.971,4.029,9,9,9s9-4.029,9-9v-27.216l70.029-40.821l39.788,13.275V432H136.221
		v-10.841c0-4.971-4.029-9-9-9s-9,4.029-9,9V441c0,4.972,4.029,9,9,9h258.268c4.972,0,9-4.028,9-9v-93.632
		c0-3.202-1.7-6.163-4.468-7.774l-78.015-45.479c-0.063-0.037-0.129-0.064-0.192-0.1l-14.886-23.37h0.65
		c20.113,0,36.479-16.364,36.479-36.479v-88.063L348.832,80h21.791v81.053h-4.875c-4.972,0-9,4.028-9,9c0,4.971,4.028,9,9,9h27.75
		c4.971,0,8.999-4.029,8.999-9c0-4.972-4.028-9-8.999-9h-4.875V80h22.024c4.971,0,9-4.028,9-9c0-4.971-4.029-9-9-9h-69.026H169.57
		h-68.219c-4.971,0-9,4.029-9,9C92.351,75.971,96.381,80,101.352,80z M376.488,432H264.038V325.432l41.941-13.994l70.508,41.102V432
		L376.488,432z M292.374,297.002l-36.679,12.237l-36.676-12.237l16.789-26.355h39.776L292.374,297.002z M316.057,234.167
		c0,10.189-8.289,18.479-18.479,18.479h-17.056h-49.65h-17.257c-10.189,0-18.479-8.29-18.479-18.479v-80.053h120.921V234.167z
		 M330.388,80l-12.543,56.114H193.347L180.804,80H330.388z"/>
</g>
</svg>
