<?xml version="1.0" encoding="utf-8"?>
<!-- Generator: Adobe Illustrator 16.0.0, SVG Export Plug-In . SVG Version: 6.00 Build 0)  -->
<!DOCTYPE svg PUBLIC "-//W3C//DTD SVG 1.1//EN" "http://www.w3.org/Graphics/SVG/1.1/DTD/svg11.dtd">
<svg version="1.1" id="Layer_5" xmlns="http://www.w3.org/2000/svg" xmlns:xlink="http://www.w3.org/1999/xlink" x="0px" y="0px"
	 width="512px" height="512px" viewBox="0 0 512 512" enable-background="new 0 0 512 512" xml:space="preserve">
<g>
	<path d="M112,328c8.824,0,16,7.177,16,16h16c0-14.871-10.24-27.287-24-30.863V296h-16v16H80v32c0,17.648,14.352,32,32,32
		c8.824,0,16,7.177,16,16v16h-16c-8.824,0-16-7.176-16-16H80c0,14.872,10.24,27.288,24,30.864V440h16v-16h24v-32
		c0-17.647-14.353-32-32-32c-8.824,0-16-7.176-16-16v-16H112z"/>
	<path d="M312,183.976l-8.416,0.439c-53.04,2.769-100.336,31.496-127.584,75.456v-69.456l15.616-3.472
		c33.199-7.376,56.384-36.28,56.384-70.28V36c0-15.439-12.561-28-28-28c-15.44,0-28,12.561-28,28v71.752
		c0,12.08-9.04,22.32-21.024,23.816l-17.768,2.224C162.36,123.816,168,110.568,168,96c0-30.88-25.12-56-56-56S56,65.12,56,96
		c0,15.849,6.647,30.145,17.256,40.345C36.712,139.752,8,170.576,8,208v64c0,14.584,9.863,26.784,23.224,30.624
		C16.728,320.505,8,343.24,8,368c0,57.345,46.655,104,104,104c28.567,0,54.479-11.592,73.288-30.304
		C215.528,480.888,262.168,504,312,504c85.048,0,155.151-66.584,159.584-151.584l0.439-8.416H312V183.976z M363.192,399.872
		L402.92,360h41.407l-60.399,60.616L363.192,399.872z M351.872,388.56L323.312,360h57.017L351.872,388.56z M81.04,152h13.224
		l-3.184,44.544C85.912,182.24,82.528,167.28,81.04,152z M110.304,152h3.392L119,226.312c-1.104,1.896-2.16,3.824-3.345,5.688
		h-7.319c-1.176-1.855-2.232-3.775-3.344-5.672L110.304,152z M132.92,196.552L129.736,152H136l7.032-0.863
		C141.6,166.728,138.176,181.976,132.92,196.552L132.92,196.552z M72,96c0-22.056,17.943-40,40-40c22.056,0,40,17.944,40,40
		c0,22.057-17.944,40-40,40C89.944,136,72,118.056,72,96z M24,272v-64c0-25.744,17.479-47.424,41.184-53.943
		c3.225,32.352,14.192,63.439,32.16,90.384L99.72,248h24.56l2.376-3.56c18.889-28.328,30-61.152,32.545-95.296l13.76-1.696
		c19.976-2.496,35.04-19.56,35.04-39.688V36c0-6.615,5.384-12,12-12s12,5.385,12,12v80.664c0,26.448-18.032,48.928-43.849,54.664
		L160,177.584v98.248C145.624,268.312,129.32,264,112,264c-17.32,0-33.624,4.313-48,11.832V184H48v102.192
		c-0.776,0.616-1.601,1.176-2.36,1.808H40C31.176,288,24,280.824,24,272L24,272z M112,456c-48.521,0-88-39.479-88-88
		c0-48.52,39.479-88,88-88c48.52,0,88,39.48,88,88C200,416.52,160.52,456,112,456z M195.936,429.152
		C208.496,411.961,216,390.864,216,368c0-31.768-14.36-60.216-36.88-79.312C199.28,240.352,244.024,206.84,296,201.08v147.608
		l-91.296,91.296C201.624,436.536,198.704,432.921,195.936,429.152L195.936,429.152z M215.984,451.328L304,363.312l95.184,95.176
		C374.944,477.009,344.72,488,312,488C276.136,488,242.104,474.696,215.984,451.328z M411.32,448l-16.071-16.063l57.296-57.504
		C446.384,403.152,431.672,428.52,411.32,448z"/>
	<path d="M344,152c-2,0-3.968,0.128-5.937,0.256L328,152.8V328h175.199l0.544-10.063C503.871,315.969,504,314,504,312
		C504,223.776,432.224,152,344,152L344,152z M344,312V168c79.399,0,144,64.601,144,144H344z"/>
	<path d="M354.278,290.355l71.989-71.99l11.312,11.313l-71.989,71.989L354.278,290.355z"/>
	<path d="M408,280c0,13.232,10.768,24,24,24c13.231,0,24-10.768,24-24c0-13.231-10.769-24-24-24C418.768,256,408,266.768,408,280z
		 M440,280c0,4.416-3.593,8-8,8c-4.408,0-8-3.584-8-8s3.592-8,8-8C436.407,272,440,275.584,440,280z"/>
	<path d="M376,248c13.231,0,24-10.768,24-24c0-13.231-10.769-24-24-24c-13.232,0-24,10.769-24,24C352,237.232,362.768,248,376,248z
		 M376,216c4.408,0,8,3.592,8,8s-3.592,8-8,8s-8-3.592-8-8S371.592,216,376,216z"/>
	<path d="M323.64,455.4c-4.96,0.512-10,0.696-14.944,0.552l-0.432,16c1.24,0.032,2.488,0.048,3.736,0.048
		c4.416,0,8.88-0.224,13.279-0.68L323.64,455.4z"/>
	<path d="M243.728,452.288c4.769,3.009,9.809,5.744,14.977,8.128l6.695-14.527c-4.536-2.088-8.951-4.488-13.136-7.128
		L243.728,452.288z"/>
	<path d="M274.664,466.472c5.399,1.64,10.991,2.936,16.615,3.855l2.576-15.8c-4.928-0.8-9.815-1.936-14.527-3.376L274.664,466.472z"
		/>
	<path d="M282.128,236.024l-4.256-15.424c-33.824,9.336-62.656,32.544-79.104,63.655l14.152,7.488
		C227.312,264.504,252.536,244.192,282.128,236.024L282.128,236.024z"/>
	<path d="M264,336h16v16h-16V336z"/>
	<path d="M264,272h16v16h-16V272z"/>
	<path d="M264,304h16v16h-16V304z"/>
</g>
</svg>
