<?xml version="1.0" encoding="utf-8"?>
<!-- Generator: Adobe Illustrator 16.0.0, SVG Export Plug-In . SVG Version: 6.00 Build 0)  -->
<!DOCTYPE svg PUBLIC "-//W3C//DTD SVG 1.1//EN" "http://www.w3.org/Graphics/SVG/1.1/DTD/svg11.dtd">
<svg version="1.1" id="Capa_1" xmlns="http://www.w3.org/2000/svg" xmlns:xlink="http://www.w3.org/1999/xlink" x="0px" y="0px"
	 width="841.889px" height="595.281px" viewBox="0 0 841.889 595.281" enable-background="new 0 0 841.889 595.281"
	 xml:space="preserve">
<g>
	<g>
		<path d="M604.653,172.945c6.42,0,11.627-5.205,11.627-11.626V34.88C616.28,15.647,600.632,0,581.4,0H158.193
			c-19.232,0-34.88,15.647-34.88,34.88v525.521c0,19.232,15.647,34.88,34.88,34.88H581.4c19.232,0,34.88-15.647,34.88-34.88v-85.655
			c0-6.422-5.207-11.627-11.627-11.627s-11.627,5.205-11.627,11.627v85.655c0,6.41-5.216,11.626-11.626,11.626H158.193
			c-6.411,0-11.627-5.216-11.627-11.626V34.88c0-6.411,5.216-11.627,11.627-11.627H581.4c6.41,0,11.626,5.216,11.626,11.627v126.439
			C593.026,167.74,598.233,172.945,604.653,172.945z"/>
	</g>
</g>
<g>
	<g>
		<path d="M369.796,62.784c-58.98,0-106.965,47.983-106.965,106.964c0,30.598,12.917,58.231,33.58,77.746
			c0.388,0.414,0.799,0.806,1.249,1.162c19.033,17.416,44.364,28.055,72.135,28.055c27.77,0,53.101-10.641,72.134-28.055
			c0.45-0.356,0.862-0.75,1.249-1.162c20.665-19.515,33.582-47.148,33.582-77.746C476.76,110.767,428.777,62.784,369.796,62.784z
			 M369.796,253.459c-18.985,0-36.507-6.361-50.565-17.054c10.219-18.12,29.287-29.452,50.565-29.452
			c21.277,0,40.347,11.332,50.564,29.452C406.301,247.097,388.781,253.459,369.796,253.459z M351.194,165.097v-7.558
			c0-10.257,8.346-18.603,18.603-18.603s18.603,8.346,18.603,18.603v7.558c0,10.257-8.346,18.603-18.603,18.603
			S351.194,175.354,351.194,165.097z M437.16,219.374c-8.575-12.718-20.458-22.608-34.256-28.714
			c5.477-7.077,8.747-15.942,8.747-25.563v-7.558c0-23.08-18.775-41.855-41.855-41.855s-41.855,18.775-41.855,41.855v7.558
			c0,9.62,3.271,18.485,8.746,25.563c-13.797,6.105-25.681,15.996-34.255,28.714c-10.266-13.897-16.347-31.062-16.347-49.626
			c0-46.158,37.552-83.711,83.711-83.711c46.158,0,83.711,37.553,83.711,83.711C453.507,188.312,447.425,205.476,437.16,219.374z"/>
	</g>
</g>
<g>
	<g>
		<path d="M432.579,509.244h-62.783c-6.42,0-11.627,5.205-11.627,11.627c0,6.421,5.207,11.626,11.627,11.626h62.783
			c6.42,0,11.627-5.205,11.627-11.626C444.206,514.449,438.999,509.244,432.579,509.244z"/>
	</g>
</g>
<g>
	<g>
		<path d="M432.579,444.135H267.483c-6.421,0-11.627,5.205-11.627,11.626c0,6.422,5.206,11.627,11.627,11.627h165.097
			c6.42,0,11.627-5.205,11.627-11.627C444.206,449.341,438.999,444.135,432.579,444.135z"/>
	</g>
</g>
<g>
	<g>
		<path d="M432.579,379.026H267.483c-6.421,0-11.627,5.205-11.627,11.627c0,6.421,5.206,11.626,11.627,11.626h165.097
			c6.42,0,11.627-5.205,11.627-11.626C444.206,384.231,438.999,379.026,432.579,379.026z"/>
	</g>
</g>
<g>
	<g>
		<path d="M226.044,317.324c-2.161-2.162-5.161-3.406-8.23-3.406c-3.06,0-6.059,1.244-8.22,3.406
			c-2.163,2.163-3.407,5.162-3.407,8.22c0,3.059,1.243,6.058,3.407,8.221c2.174,2.162,5.16,3.406,8.22,3.406
			c3.069,0,6.058-1.244,8.23-3.406c2.162-2.163,3.407-5.162,3.407-8.221C229.451,322.486,228.207,319.487,226.044,317.324z"/>
	</g>
</g>
<g>
	<g>
		<path d="M226.044,382.433c-2.173-2.163-5.161-3.407-8.23-3.407c-3.06,0-6.046,1.244-8.22,3.407
			c-2.163,2.162-3.407,5.162-3.407,8.22s1.243,6.058,3.407,8.22c2.174,2.163,5.16,3.406,8.22,3.406c3.069,0,6.058-1.243,8.23-3.406
			c2.162-2.162,3.407-5.162,3.407-8.22S228.207,384.595,226.044,382.433z"/>
	</g>
</g>
<g>
	<g>
		<path d="M226.044,447.542c-2.173-2.162-5.161-3.406-8.23-3.406c-3.06,0-6.046,1.244-8.22,3.406
			c-2.163,2.162-3.407,5.162-3.407,8.22s1.243,6.058,3.407,8.221c2.161,2.162,5.16,3.406,8.22,3.406c3.069,0,6.069-1.244,8.23-3.406
			c2.162-2.163,3.407-5.163,3.407-8.221S228.207,449.704,226.044,447.542z"/>
	</g>
</g>
<g>
	<g>
		<path d="M432.579,313.918H267.483c-6.421,0-11.627,5.205-11.627,11.626c0,6.422,5.206,11.627,11.627,11.627h165.097
			c6.42,0,11.627-5.205,11.627-11.627C444.206,319.123,438.999,313.918,432.579,313.918z"/>
	</g>
</g>
<g>
	<g>
		<path d="M694.171,151.517c-11.295-6.521-24.454-8.254-37.055-4.878c-12.599,3.376-23.13,11.456-29.65,22.752L481.156,422.807
			c-0.802,1.39-1.309,2.93-1.486,4.523l-10.299,92.25c-0.512,4.591,1.741,9.049,5.741,11.359c1.806,1.042,3.812,1.558,5.813,1.558
			c2.432,0,4.854-0.761,6.896-2.265l74.74-55.045c1.292-0.951,2.373-2.159,3.174-3.548l146.31-253.417
			C725.507,194.905,717.49,164.981,694.171,151.517z M495.428,495.75l5.378-48.171l33.65,19.428L495.428,495.75z M551.409,449.944
			l-44.303-25.579l117.411-203.36l44.303,25.578L551.409,449.944z M691.906,206.596l-11.46,19.85l-44.304-25.578l11.461-19.851
			c3.415-5.917,8.931-10.148,15.53-11.917c6.602-1.77,13.494-0.86,19.409,2.556c5.917,3.416,10.149,8.932,11.918,15.53
			C696.229,193.786,695.323,200.679,691.906,206.596z"/>
	</g>
</g>
</svg>
