<?xml version="1.0" encoding="utf-8"?>
<!-- Generator: Adobe Illustrator 16.0.0, SVG Export Plug-In . SVG Version: 6.00 Build 0)  -->
<!DOCTYPE svg PUBLIC "-//W3C//DTD SVG 1.1//EN" "http://www.w3.org/Graphics/SVG/1.1/DTD/svg11.dtd">
<svg version="1.1" id="Capa_1" xmlns="http://www.w3.org/2000/svg" xmlns:xlink="http://www.w3.org/1999/xlink" x="0px" y="0px"
	 width="841.889px" height="595.281px" viewBox="0 0 841.889 595.281" enable-background="new 0 0 841.889 595.281"
	 xml:space="preserve">
<g>
	<g>
		<g>
			<path d="M267.329,451.261h-19.203V278.437h345.646v172.824h-19.202v19.202h38.404V259.235h-67.209v-0.97
				c21.882-4.465,38.405-23.85,38.405-47.037c0-15.756-7.738-29.648-19.5-38.405h0.298v-57.607
				c0-24.042-17.763-44.003-40.844-47.469C509.675,27.537,471.011,0,427.863,0h-6.913c-79.412,0-144.02,64.607-144.02,144.02v28.804
				h0.298c-11.762,8.757-19.5,22.649-19.5,38.405c0,23.178,16.523,42.572,38.405,47.037v0.97h-67.209v211.229h38.405V451.261z
				 M526.573,259.235H315.335v-76.811h37.724c42.255,0,82.206-14.997,113.775-42.495l2.938,4.906
				c12.252,20.422,33.451,33.998,56.802,36.955V259.235z M564.969,211.238c0,12.501-8.056,23.053-19.203,27.027v-54.064
				C556.913,188.176,564.969,198.737,564.969,211.238z M296.133,144.019c0-68.822,55.994-124.816,124.816-124.816h6.913
				c36.888,0,69.734,24.771,79.873,60.238l1.987,6.971h7.239c15.881,0,28.804,12.923,28.804,28.804v48.977
				c-3.101-0.634-6.317-0.97-9.601-0.97c-20.336,0-39.472-10.831-49.937-28.267l-15.372-25.616l-8.698,8.689
				c-29.141,29.14-67.891,45.193-109.1,45.193h-47.325c-3.283,0-6.5,0.336-9.601,0.97V144.019z M276.93,211.228
				c0-12.501,8.056-23.063,19.203-27.037v54.065C284.986,234.291,276.93,223.729,276.93,211.228z"/>
			<path d="M411.348,336.046h19.203c5.29,0,9.601,4.302,9.601,9.602h19.203c0-15.881-12.924-28.805-28.804-28.805v-9.601h-19.203
				v9.601c-15.88,0-28.804,12.924-28.804,28.805c0,15.88,12.924,28.804,28.804,28.804h19.203c5.29,0,9.601,4.301,9.601,9.602
				c0,5.3-4.311,9.601-9.601,9.601h-19.203c-5.29,0-9.602-4.301-9.602-9.601h-19.202c0,15.88,12.924,28.804,28.804,28.804v9.601
				h19.203v-9.601c15.88,0,28.804-12.924,28.804-28.804c0-15.881-12.924-28.805-28.804-28.805h-19.203
				c-5.29,0-9.602-4.301-9.602-9.601S406.058,336.046,411.348,336.046z"/>
			<polygon points="305.734,297.64 267.329,297.64 267.329,336.046 286.531,336.046 286.531,316.843 305.734,316.843 			"/>
			<polygon points="574.571,336.046 574.571,297.64 536.165,297.64 536.165,316.843 555.367,316.843 555.367,336.046 			"/>
			<polygon points="267.329,393.653 267.329,432.058 305.734,432.058 305.734,412.856 286.531,412.856 286.531,393.653 			"/>
			<polygon points="536.165,432.058 574.571,432.058 574.571,393.653 555.367,393.653 555.367,412.856 536.165,412.856 			"/>
			<path d="M660.751,468.294c-2.852-17.1-10.11-33.527-21.008-47.488l-15.141,11.81c8.929,11.445,14.882,24.877,17.205,38.828
				l17.437,104.635h-58.972l-45.116-112.786c-7.585-18.982-25.693-31.233-46.125-31.233c-27.393,0-49.677,22.285-49.677,49.889
				c0,6.337,1.2,12.539,3.553,18.444l30.272,75.687H348.719l30.273-75.696c2.352-5.896,3.552-12.098,3.552-18.646
				c0-27.393-22.284-49.678-49.677-49.678c-20.432,0-38.54,12.251-46.125,31.233l-45.116,112.786h-58.971l17.436-104.625
				c2.323-13.951,8.276-27.383,17.205-38.828l-15.141-11.81c-10.888,13.961-18.156,30.389-21.008,47.488l-21.171,126.978h521.936
				L660.751,468.294z M304.573,470.416c4.656-11.637,15.765-19.154,28.295-19.154c16.802,0,30.475,13.672,30.475,30.686
				c0,3.879-0.739,7.7-2.18,11.319l-9.399,23.514l-56.11-24.041L304.573,470.416z M328.038,576.078h-65.73l26.211-65.52
				l56.11,24.042L328.038,576.078z M490.146,516.78l-9.399-23.504c-1.45-3.629-2.189-7.44-2.189-11.54
				c0-16.803,13.673-30.475,30.475-30.475c12.539,0,23.639,7.518,28.295,19.154l8.93,22.313L490.146,516.78z M513.862,576.078
				L497.27,534.61l56.11-24.052l26.212,65.52H513.862z"/>
			<rect x="401.746" y="451.261" width="38.405" height="19.202"/>
		</g>
	</g>
</g>
</svg>
