<?xml version="1.0" encoding="utf-8"?>
<!-- Generator: Adobe Illustrator 16.0.0, SVG Export Plug-In . SVG Version: 6.00 Build 0)  -->
<!DOCTYPE svg PUBLIC "-//W3C//DTD SVG 1.1//EN" "http://www.w3.org/Graphics/SVG/1.1/DTD/svg11.dtd">
<svg version="1.1" id="Capa_1" xmlns="http://www.w3.org/2000/svg" xmlns:xlink="http://www.w3.org/1999/xlink" x="0px" y="0px"
	 width="512px" height="512px" viewBox="0 0 512 512" enable-background="new 0 0 512 512" xml:space="preserve">
<g>
	<path d="M510.301,241.625l-12.227-42.477c-0.976-3.179-5.144-6.855-10.252-4.938c-15.727,4.528-32.2-4.584-36.726-20.309
		c-4.526-15.724,4.585-32.199,20.313-36.727c3.351-0.739,7.361-4.22,6.055-9.632l-10.604-36.84
		c-3.178-11.043-10.465-20.187-20.52-25.747c-10.056-5.561-21.674-6.871-32.717-3.693L31.139,171.353
		c-11.043,3.179-20.187,10.466-25.747,20.521c-5.56,10.056-6.872,21.674-3.693,32.716c5.968,16.433,13.702,48.758,10.979,66.114
		c0,4.131,3.298,7.506,7.427,7.603c12.563,0.292,23.522,8.585,27.431,20.242c-2.783,2.238-6.005,4.008-9.588,5.13
		c-3.941,1.233-6.177,5.39-5.033,9.358l5.169,17.958c-5.078,4.14-11.327,6.467-17.979,6.621c-4.13,0.097-7.427,3.472-7.427,7.603
		v44.202c0,23.72,19.298,43.018,43.018,43.018h96.277c4.2,0,7.604-3.404,7.604-7.604c0-4.198-3.404-7.604-7.604-7.604H55.695
		c-15.335,0-27.811-12.476-27.811-27.81v-37.385c5.2-0.987,10.143-2.882,14.642-5.599l2.614,9.078
		c3.178,11.043,10.465,20.187,20.521,25.747c9.087,4.741,20.224,7.371,32.716,3.692l352.191-101.371
		c-4.561,7.023-7.213,15.397-7.213,24.378c0,22.464,16.59,41.126,38.162,44.38v37.079c0,15.335-12.477,27.81-27.811,27.81H188.42
		c-4.2,0-7.604,3.404-7.604,7.604c0,4.198,3.404,7.604,7.604,7.604h265.287c23.721,0,43.018-19.298,43.018-43.018v-44.202
		c-0.063-3.324-3.041-8.014-8.487-7.582c-16.363,0-29.675-13.313-29.675-29.674c0-16.362,13.312-29.675,29.675-29.675
		c3.425,0.221,8.243-2.02,8.487-7.582v-4.305c3.95-3.338,7.306-7.396,9.884-12.056C512.168,264.287,513.48,252.669,510.301,241.625
		L510.301,241.625z M27.884,283.902v-18.153c20.086-0.754,35.478,19.139,29.485,38.335
		C50.809,293.722,40.142,286.282,27.884,283.902z M273.004,292.288l27.298-7.856l12.38,43.015l-27.297,7.857L273.004,292.288z
		 M493.3,266.983c-3.737,6.76-9.569,10.815-16.646,13.266l-113.733,32.736l-0.841-2.923c-1.162-4.036-5.383-6.364-9.409-5.204
		c-4.035,1.162-6.366,5.375-5.204,9.41l0.841,2.922l-21.012,6.048l-14.483-50.321c-0.557-1.938-1.861-3.575-3.627-4.551
		s-3.845-1.211-5.783-0.653l-41.911,12.063c-1.939,0.558-3.575,1.863-4.552,3.628c-0.976,1.765-1.211,3.845-0.651,5.783
		l14.483,50.321L94.17,390.341c-7.142,2.056-14.652,1.207-21.152-2.388c-6.5-3.594-11.21-9.506-13.266-16.646L49.411,335.38
		c18.258-9.242,28.14-30.645,23.239-50.568c-5.394-21.931-25.583-35.369-47.621-34.137l-8.718-30.291
		c-2.054-7.139-1.207-14.65,2.389-21.15c3.594-6.5,9.506-11.211,16.645-13.267l254.138-73.148l0.843,2.923
		c0.959,3.333,4,5.502,7.303,5.502c0.697,0,1.405-0.097,2.107-0.299c4.035-1.162,6.365-5.375,5.203-9.41l-0.841-2.922
		l113.731-32.736c7.141-2.055,14.651-1.207,21.152,2.389c6.5,3.594,11.21,9.506,13.266,16.645l8.634,29.995
		c-19.83,9.093-30.611,31.616-24.397,53.204c6.214,21.586,27.304,34.936,48.948,32.092l10.256,35.632
		C497.741,252.972,496.895,260.483,493.3,266.983L493.3,266.983z"/>
	<path d="M320.618,166.015l-5.581-19.392c-1.162-4.036-5.384-6.365-9.41-5.204c-4.035,1.162-6.366,5.375-5.204,9.41l5.581,19.392
		c1.115,2.919,4.599,6.584,9.409,5.203C319.45,174.263,321.78,170.05,320.618,166.015L320.618,166.015z"/>
	<path d="M336.3,220.494l-5.582-19.391c-1.162-4.036-5.38-6.363-9.411-5.204c-4.035,1.162-6.365,5.375-5.203,9.411l5.582,19.391
		c1.116,2.919,4.6,6.583,9.41,5.204C335.132,228.743,337.462,224.53,336.3,220.494z"/>
	<path d="M346.399,255.583c-1.162-4.037-5.383-6.365-9.41-5.204c-4.034,1.161-6.365,5.375-5.203,9.41l5.58,19.392
		c1.115,2.919,4.6,6.584,9.41,5.203c4.035-1.16,6.366-5.375,5.204-9.409L346.399,255.583z"/>
	<path d="M427.501,135.447c0.976-1.765,1.211-3.845,0.651-5.783l-8.509-29.56c-1.161-4.035-5.379-6.365-9.41-5.204l-76.487,22.015
		c-4.035,1.162-6.366,5.375-5.204,9.41l8.508,29.561c1.548,2.909,3.168,6.389,9.41,5.203l76.488-22.016
		C424.888,138.516,426.525,137.212,427.501,135.447L427.501,135.447z M349.561,144.373l-4.302-14.945l61.875-17.81l4.302,14.946
		L349.561,144.373z"/>
	<path d="M415.531,251.265l40.864-11.763c4.035-1.162,6.366-5.375,5.204-9.411s-5.382-6.364-9.409-5.203l-40.864,11.762
		c-4.034,1.162-6.365,5.375-5.204,9.41c0.959,3.333,4,5.502,7.304,5.502C414.12,251.564,414.828,251.467,415.531,251.265
		L415.531,251.265z"/>
	<path d="M459.728,251.084l-40.864,11.762c-4.035,1.161-6.366,5.375-5.204,9.409c0.959,3.334,4,5.503,7.304,5.503
		c0.695,0,1.404-0.097,2.106-0.298l40.864-11.761c4.035-1.162,6.366-5.375,5.204-9.41
		C467.975,252.251,463.756,249.923,459.728,251.084L459.728,251.084z"/>
	<path d="M145.519,330.177l-57.628,16.587c-4.035,1.162-6.366,5.375-5.204,9.41c0.959,3.333,4,5.502,7.304,5.502
		c0.696,0,1.404-0.098,2.106-0.298l57.628-16.588c4.035-1.161,6.366-5.375,5.204-9.409
		C153.767,331.344,149.547,329.016,145.519,330.177z"/>
	<path d="M438.966,420.816c4.2,0,7.604-3.404,7.604-7.604v-29.439c0-4.199-3.403-7.604-7.604-7.604h-83.955
		c-4.2,0-7.604,3.403-7.604,7.604v29.439c0,4.198,3.404,7.604,7.604,7.604H438.966z M362.614,391.379h68.748v14.231h-68.748V391.379
		z"/>
	<path d="M317.781,404.573c4.2,0,7.604-3.403,7.604-7.604s-3.404-7.604-7.604-7.604h-80.834c-4.199,0-7.604,3.404-7.604,7.604
		s3.404,7.604,7.604,7.604H317.781z"/>
	<path d="M237.094,210.782c-3.005,0.865-10.681,3.391-20.875,6.822l-43.455-41.141c-1.955-1.85-4.741-2.53-7.33-1.785l-23.051,6.635
		c-3.649,1.131-7.413,6.092-4.096,11.711l29.262,41.188c-25.284,8.696-49.367,17.047-56.787,19.622l-25.147-6.528
		c-5.204-1.449-11.908,4.397-8.476,11.196l19.243,32.923c2.348,2.369,3.674,4.641,9.032,3.355l13.79-4.731
		c4.163-0.959,31.539-7.266,60.388-13.997l-2.888,50.441c0.606,3.666,1.639,8.871,9.693,7.742l23.051-6.635
		c2.589-0.745,4.589-2.802,5.261-5.409l14.935-57.947c10.454-2.512,18.301-4.454,21.305-5.318
		c17.177-4.944,23.785-26.48,24.482-28.92c0.799-2.795-0.066-5.802-2.229-7.744C271.315,220.565,254.257,205.842,237.094,210.782
		L237.094,210.782z M156.896,192.96l8.568-2.466l34.464,32.629c-5.553,1.892-11.414,3.895-17.383,5.94L156.896,192.96z
		 M201.068,314.188l-8.567,2.466l2.529-44.214c6.144-1.441,12.174-2.86,17.883-4.21L201.068,314.188z M246.744,244.312
		c-27.328,7.244-126.823,29.811-132.1,31.224l-8.274,2.839l-6.87-11.753l9.67,2.511c7.191,0.266,9.395-2.477,23.287-6.719
		c23.813-8.251,64.468-22.249,84.306-28.945c12.082-4.085,21.297-7.139,24.537-8.071c5.651-1.628,12.966,1.991,17.729,5.154
		C256.695,235.755,252.446,242.67,246.744,244.312L246.744,244.312z"/>
</g>
</svg>
