<?xml version="1.0" encoding="utf-8"?>
<!-- Generator: Adobe Illustrator 16.0.0, SVG Export Plug-In . SVG Version: 6.00 Build 0)  -->
<!DOCTYPE svg PUBLIC "-//W3C//DTD SVG 1.1//EN" "http://www.w3.org/Graphics/SVG/1.1/DTD/svg11.dtd">
<svg version="1.1" id="Layer_3" xmlns="http://www.w3.org/2000/svg" xmlns:xlink="http://www.w3.org/1999/xlink" x="0px" y="0px"
	 width="512px" height="512px" viewBox="0 0 512 512" enable-background="new 0 0 512 512" xml:space="preserve">
<path d="M420.831,376.248c10.408-8.312,18.425-19.455,22.969-32.248h4.2c17.647,0,32-14.352,32-32c0-11.792-6.48-22-16-27.552V248
	c0-35.288-28.713-64-64-64h-48c-35.288,0-64,28.712-64,64v36.448C278.48,290,272,300.208,272,312c0,17.648,14.352,32,32,32h4.2
	c4.544,12.793,12.56,23.929,22.968,32.248C284.896,378.776,248,417.104,248,464v32c0,4.425,3.584,8,8,8h240c4.416,0,8-3.575,8-8v-32
	C504,417.104,467.104,378.776,420.831,376.248z M340.152,392l25.128,31.408l-24.367,24.368l-11.097-55.464
	c2.048-0.176,4.097-0.313,6.185-0.313H340.152z M391.352,392L376,411.192L360.648,392H391.352z M411.848,392H416
	c2.088,0,4.136,0.137,6.176,0.313l-11.097,55.464l-24.367-24.368L411.848,392z M448,328h-0.473c0.296-2.632,0.473-5.296,0.473-8v-24
	c8.823,0,16,7.176,16,16S456.823,328,448,328z M304,248c0-26.472,21.527-48,48-48h48c26.472,0,48,21.528,48,48v32h-8h-24
	c-8.824,0-16-7.176-16-16v-24v-8h-16v8c0,22.057-17.944,40-40,40h-32h-8V248z M304,328c-8.824,0-16-7.176-16-16s7.176-16,16-16v24
	c0,2.704,0.176,5.368,0.472,8H304z M320,320v-24h24c16.992,0,32.216-7.64,42.496-19.632C391.344,287.888,402.736,296,416,296h16v24
	c0,30.872-25.12,56-56,56S320,350.872,320,320z M488,488H264v-24c0-32.071,21.096-59.296,50.128-68.575l14.032,70.151
	c0.575,2.889,2.704,5.232,5.527,6.088c0.761,0.225,1.536,0.337,2.313,0.337c2.088,0,4.136-0.824,5.656-2.345L376,435.312
	l34.344,34.344c1.52,1.521,3.567,2.345,5.656,2.345c0.775,0,1.552-0.112,2.319-0.345c2.824-0.848,4.952-3.191,5.528-6.088
	l14.032-70.152C466.904,404.704,488,431.928,488,464V488z"/>
<path d="M264,320v-32c0-46.896-36.896-85.224-83.168-87.752c10.408-8.312,18.424-19.456,22.968-32.248h4.2c17.647,0,32-14.352,32-32
	c0-11.792-6.48-22-16-27.552V72c0-35.288-28.712-64-64-64h-48C76.712,8,48,36.712,48,72v36.448C38.48,114,32,124.208,32,136
	c0,17.648,14.352,32,32,32h4.2c4.544,12.792,12.56,23.929,22.968,32.248C44.896,202.776,8,241.104,8,288v32c0,4.425,3.584,8,8,8h240
	C260.416,328,264,324.425,264,320z M100.152,216l25.128,31.408l-24.367,24.368l-11.097-55.464C91.864,216.136,93.912,216,96,216
	H100.152z M151.352,216L136,235.192L120.648,216H151.352z M171.848,216H176c2.088,0,4.136,0.137,6.176,0.313l-11.096,55.464
	l-24.368-24.368L171.848,216z M208,152h-0.473c0.297-2.632,0.473-5.296,0.473-8v-24c8.824,0,16,7.176,16,16S216.824,152,208,152z
	 M64,72c0-26.472,21.527-48,48-48h48c26.472,0,48,21.528,48,48v32h-8h-24c-8.824,0-16-7.176-16-16V64v-8h-16v8
	c0,22.057-17.944,40-40,40H72h-8V72z M64,152c-8.824,0-16-7.176-16-16s7.176-16,16-16v24c0,2.704,0.176,5.368,0.472,8H64z M80,144
	v-24h24c16.992,0,32.216-7.64,42.496-19.632C151.344,111.888,162.736,120,176,120h16v24c0,30.872-25.12,56-56,56S80,174.872,80,144z
	 M248,312H24v-24c0-32.071,21.096-59.296,50.128-68.576l14.032,70.152c0.575,2.888,2.703,5.232,5.527,6.088
	C94.448,295.888,95.224,296,96,296c2.088,0,4.136-0.823,5.655-2.344L136,259.312l34.344,34.344c1.52,1.521,3.568,2.344,5.656,2.344
	c0.775,0,1.552-0.111,2.319-0.344c2.824-0.848,4.952-3.192,5.528-6.088l14.032-70.152C226.904,228.704,248,255.928,248,288V312z"/>
<path d="M232,488c-41.408,0-75.576-31.632-79.601-72H176c3.231,0,6.151-1.943,7.392-4.936s0.552-6.432-1.736-8.72l-56-56
	c-3.128-3.128-8.184-3.128-11.312,0l-56,56c-2.288,2.288-2.976,5.728-1.736,8.72C57.848,414.056,60.768,416,64,416h24.336
	c4.072,49.2,45.424,88,95.664,88h48c4.416,0,8-3.575,8-8C240,491.576,236.416,488,232,488z M104,408c0-4.424-3.584-8-8-8H83.312
	L120,363.312L156.688,400H144c-4.416,0-8,3.576-8,8c0,33.24,16.983,62.593,42.728,79.832C137.064,485.104,104,450.344,104,408z"/>
</svg>
