<svg id="Layer_5" enable-background="new 0 0 52 62" height="512" viewBox="0 0 52 62" width="512" xmlns="http://www.w3.org/2000/svg"><g><circle cx="31" cy="17" r="1"/><circle cx="21" cy="17" r="1"/><path d="m25.447 21.895 1.106-.553c.985-.494 1.387-1.697.894-2.683l-.447-.895v-1.764h-2v2c0 .155.036.309.105.447l.553 1.105-1.105.553z"/><path d="m26 27c1.779 0 3.439-.958 4.33-2.5l-1.73-1c-.536.925-1.532 1.5-2.6 1.5s-2.064-.575-2.6-1.5l-1.73 1c.891 1.542 2.551 2.5 4.33 2.5z"/><path d="m49 38c0-2.206-1.794-4-4-4h-6c-.519 0-1.012.107-1.467.287-2.603-1.408-5.193-1.968-6.533-2.172l.001-1.498c3.37-1.685 5.557-4.927 5.923-8.617h.076c2.206 0 4-1.794 4-4 0-.98-.368-1.868-.956-2.564.615-1.397.956-2.91.956-4.436 0-6.065-4.935-11-11-11h-8c-1.662 0-3.127.824-4.037 2.076-3.942.513-6.963 3.896-6.963 7.924v.343c0 1.759.328 3.473.94 5.112-.578.694-.94 1.574-.94 2.545 0 2.206 1.794 4 4 4h.076c.366 3.691 2.553 6.933 5.924 8.618v1.497c-.726.111-1.826.328-3.091.724.055-.234.091-.472.091-.718 0-1.721-1.4-3.121-3.121-3.121-.682 0-1.351.229-1.891.638-1.152-.829-2.823-.83-3.977 0-.539-.409-1.208-.638-1.89-.638-1.721 0-3.121 1.4-3.121 3.121 0 .834.324 1.618.914 2.207l.485.485c-.247.333-.399.741-.399 1.187v4c0 .508.196.967.51 1.321l-3.51 4.679c-1.29 1.72-2 3.851-2 6 0 5.514 4.486 10 10 10 4.091 0 7.613-2.473 9.159-6h12.841v3c0 1.654 1.346 3 3 3h14c1.654 0 3-1.346 3-3v-18c0-1.654-1.346-3-3-3zm-4-2c1.103 0 2 .897 2 2v1c0 .551-.448 1-1 1h-1v-2h-2v2h-2v-2h-2v2h-1c-.552 0-1-.449-1-1v-1c0-1.103.897-2 2-2zm-8-16v-2.586-1.414c1.103 0 2 .897 2 2s-.897 2-2 2zm-24-2c0-1.103.897-2 2-2v4c-1.103 0-2-.897-2-2zm2.242-4h-.242c-.484 0-.943.1-1.373.258-.411-1.263-.627-2.574-.627-3.915v-.343c0-2.614 1.697-4.866 4.068-5.676-.03.223-.068.445-.068.676v3h2v-3c0-1.654 1.346-3 3-3h8c4.963 0 9 4.038 9 9 0 1.113-.214 2.223-.617 3.261-.433-.161-.895-.261-1.383-.261v-3c0-2.757-2.243-5-5-5v2c1.654 0 3 1.346 3 3v1.586l-.659-.659c-1.242-1.243-2.895-1.927-4.652-1.927-1.304 0-2.565.382-3.649 1.105l-1.015.676c-.214.143-.464.219-.722.219-.719 0-1.303-.584-1.303-1.303v-2.697h-2v2.276l-1.708.244c-1.942.277-3.487 1.68-4.05 3.48zm1.758 6.912v-5.442c0-1.483 1.107-2.76 2.575-2.97l1.824-.26c.556 1.041 1.642 1.76 2.904 1.76.654 0 1.288-.192 1.832-.555l1.015-.676c1.772-1.18 4.271-.935 5.777.572l2.073 2.073v5.496c0 3.375-1.875 6.409-4.896 7.919-.682.341-1.105 1.026-1.105 1.79l.001 2.384c-.002 1.101-.898 1.997-2 1.997h-2c-1.103 0-2-.897-2-2l-.001-2.382c0-.762-.424-1.448-1.105-1.789-3.019-1.509-4.894-4.543-4.894-7.917zm-10 19.088v-4h1c.552 0 1 .449 1 1v2c0 .551-.448 1-1 1zm5-2h1v2h-1c-.552 0-1-.449-1-1s.448-1 1-1zm-4.879-7c.295 0 .584.12.793.328l1.086 1.086 1-1c.535-.535 1.465-.535 2 0l1 1 1.086-1.086c.209-.208.498-.328.793-.328.618 0 1.121.503 1.121 1.121 0 .3-.116.581-.328.793l-3.086 3.086h-.586c-.395 0-.77.081-1.116.22-.345-1.275-1.501-2.22-2.884-2.22h-.586l-1.086-1.086c-.212-.212-.328-.493-.328-.793 0-.618.503-1.121 1.121-1.121zm2.879 29c-4.411 0-8-3.589-8-8 0-1.719.568-3.424 1.6-4.8l3.9-5.2h.5c.771 0 1.468-.301 2-.78.532.48 1.229.78 2 .78h.5l3.9 5.2c1.031 1.375 1.6 3.081 1.6 4.8 0 4.411-3.589 8-8 8zm9.798-6c.132-.646.202-1.315.202-2 0-2.149-.71-4.28-2-6l-3.51-4.679c.314-.354.51-.813.51-1.321v-2c0-.446-.152-.854-.399-1.187l.724-.724c2.285-1.256 4.618-1.774 5.852-1.974.487 1.661 2.006 2.885 3.823 2.885h2c1.817 0 3.337-1.225 3.823-2.887 1.072.172 2.975.586 4.967 1.524-.491.664-.79 1.476-.79 2.363-1.654 0-3 1.346-3 3v13zm30.202 5c0 .551-.448 1-1 1h-14c-.552 0-1-.449-1-1v-18c0-.551.448-1 1-1h.184c.414 1.161 1.514 2 2.816 2h8c1.302 0 2.402-.839 2.816-2h.184c.552 0 1 .449 1 1z"/><path d="m33.515 50h16.971v2h-16.971z" transform="matrix(.707 -.707 .707 .707 -23.761 44.636)"/><path d="m45 52c-1.654 0-3 1.346-3 3s1.346 3 3 3 3-1.346 3-3-1.346-3-3-3zm0 4c-.552 0-1-.449-1-1s.448-1 1-1 1 .449 1 1-.448 1-1 1z"/><path d="m39 50c1.654 0 3-1.346 3-3s-1.346-3-3-3-3 1.346-3 3 1.346 3 3 3zm0-4c.552 0 1 .449 1 1s-.448 1-1 1-1-.449-1-1 .448-1 1-1z"/><path d="m9 48h2c.552 0 1 .449 1 1h2c0-1.654-1.346-3-3-3v-2h-2v2c-1.654 0-3 1.346-3 3s1.346 3 3 3h2c.552 0 1 .449 1 1s-.448 1-1 1h-2c-.552 0-1-.449-1-1h-2c0 1.654 1.346 3 3 3v2h2v-2c1.654 0 3-1.346 3-3s-1.346-3-3-3h-2c-.552 0-1-.449-1-1s.448-1 1-1z"/><path d="m26.878 41c-.688 0-1.34.221-1.878.627-.538-.407-1.191-.627-1.878-.627-1.722 0-3.122 1.4-3.122 3.122v.17c0 .673.223 1.338.625 1.874l1.975 2.634c.563.751 1.46 1.2 2.4 1.2s1.837-.449 2.399-1.2l1.975-2.633c.403-.536.626-1.202.626-1.875v-.17c0-1.722-1.4-3.122-3.122-3.122zm1.122 3.292c0 .245-.077.478-.225.673l-1.977 2.635c-.373.5-1.224.5-1.599 0l-1.977-2.636c-.145-.194-.222-.426-.222-.672v-.17c0-.619.503-1.122 1.122-1.122.3 0 .581.116.793.329l1.085 1.082 1.086-1.083c.211-.212.492-.328.792-.328.619 0 1.122.503 1.122 1.122z"/></g></svg>