<?xml version="1.0" encoding="utf-8"?>
<!-- Generator: Adobe Illustrator 16.0.0, SVG Export Plug-In . SVG Version: 6.00 Build 0)  -->
<!DOCTYPE svg PUBLIC "-//W3C//DTD SVG 1.1//EN" "http://www.w3.org/Graphics/SVG/1.1/DTD/svg11.dtd">
<svg version="1.1" id="Layer_1" xmlns="http://www.w3.org/2000/svg" xmlns:xlink="http://www.w3.org/1999/xlink" x="0px" y="0px"
	 width="841.889px" height="595.281px" viewBox="0 0 841.889 595.281" enable-background="new 0 0 841.889 595.281"
	 xml:space="preserve">
<g id="Layer_1_1_">
	<path d="M348.309,298.723c8.084-10.167,13.108-22.847,13.108-36.8c0-32.824-26.705-59.528-59.528-59.528
		c-32.824,0-59.528,26.704-59.528,59.528c0,13.953,5.024,26.633,13.108,36.8c-27.717,5.072-48.825,29.288-48.825,58.445v83.339
		h190.489v-83.339C397.133,328.011,376.025,303.796,348.309,298.723z M301.889,226.207c19.691,0,35.717,16.024,35.717,35.717
		c0,19.691-16.025,35.717-35.717,35.717c-19.692,0-35.717-16.025-35.717-35.717C266.172,242.231,282.197,226.207,301.889,226.207z
		 M373.323,416.696H230.455v-59.527c0-19.692,16.024-35.717,35.717-35.717h71.434c19.691,0,35.717,16.024,35.717,35.717V416.696z"/>
	<rect x="432.85" y="238.112" width="83.34" height="23.812"/>
	<rect x="551.906" y="238.112" width="83.339" height="23.812"/>
	<rect x="432.85" y="297.64" width="35.717" height="23.812"/>
	<rect x="504.283" y="297.64" width="130.962" height="23.812"/>
	<rect x="432.85" y="357.169" width="95.245" height="23.811"/>
	<rect x="587.623" y="357.169" width="47.622" height="23.811"/>
	<rect x="432.85" y="416.696" width="23.812" height="23.812"/>
	<rect x="480.473" y="416.696" width="23.811" height="23.812"/>
	<rect x="528.095" y="416.696" width="23.812" height="23.812"/>
	<rect x="611.434" y="416.696" width="23.812" height="23.812"/>
	<path d="M468.567,47.623h-95.244v71.434H135.21v428.602h571.469V119.056H468.567V47.623z M397.133,71.433h47.623v47.623v47.622
		h-47.623v-47.622V71.433z M682.867,142.867v380.979H159.022V142.867h214.301v47.623h95.244v-47.623H682.867z"/>
</g>
</svg>
