<?xml version="1.0" encoding="iso-8859-1"?>
<!-- Generator: Adobe Illustrator 19.0.0, SVG Export Plug-In . SVG Version: 6.00 Build 0)  -->
<svg version="1.1" id="Capa_1" xmlns="http://www.w3.org/2000/svg" xmlns:xlink="http://www.w3.org/1999/xlink" x="0px" y="0px"
	 viewBox="0 0 512 512" style="enable-background:new 0 0 512 512;" xml:space="preserve">
<g>
	<g>
		<path d="M396.579,113.215l36.012-84.684c1.959-4.606,0.21-9.951-4.093-12.509L410.827,5.519
			c-13.854-8.236-31.549-6.918-44.031,3.275l-2.728,2.227c-6.782,5.541-16.627,5.541-23.417-0.004l-0.109-0.089
			C326.404-0.617,305.896-0.6,291.778,10.972c-6.787,5.563-16.644,5.569-23.438,0.02l-2.771-2.264
			c-12.423-10.147-30.058-11.5-43.883-3.366l-18.144,10.674c-4.339,2.553-6.104,7.932-4.121,12.559l36.237,84.548
			c-26.212,9.466-48.578,27.571-63.253,51.353c-2.901,4.699-1.442,10.861,3.258,13.761c4.7,2.899,10.861,1.44,13.762-3.26
			c12.595-20.412,31.94-35.855,54.593-43.623h143.966C429.929,145.74,458,184.934,458,229.393v26.532c0,5.522,4.477,10,10,10
			s10-4.478,10-10v-26.532C478,177.104,445.446,130.935,396.579,113.215z M375.627,111.374h-118.97l-35.388-82.565l10.557-6.209
			c6.643-3.91,15.119-3.259,21.09,1.618l2.771,2.263c14.138,11.549,34.648,11.532,48.769-0.041
			c6.785-5.562,16.641-5.569,23.442-0.016l0.109,0.089c14.113,11.525,34.599,11.525,48.711-0.002l2.727-2.227
			c5.999-4.898,14.502-5.531,21.161-1.574l10.158,6.038L375.627,111.374z"/>
	</g>
</g>
<g>
	<g>
		<path d="M475.07,286.635c-1.86-1.86-4.44-2.93-7.07-2.93s-5.21,1.069-7.07,2.93c-1.86,1.87-2.93,4.439-2.93,7.07
			c0,2.63,1.07,5.21,2.93,7.069c1.86,1.87,4.44,2.94,7.07,2.94s5.21-1.07,7.07-2.94c1.86-1.859,2.93-4.439,2.93-7.069
			C478,291.074,476.93,288.494,475.07,286.635z"/>
	</g>
</g>
<g>
	<g>
		<path d="M152.98,446.075c-1.86-1.86-4.44-2.93-7.07-2.93c-2.63,0-5.21,1.07-7.07,2.93c-1.86,1.86-2.93,4.44-2.93,7.07
			s1.07,5.21,2.93,7.07c1.86,1.859,4.44,2.93,7.07,2.93s5.21-1.07,7.07-2.93c1.86-1.86,2.93-4.44,2.93-7.07
			S154.84,447.935,152.98,446.075z"/>
	</g>
</g>
<g>
	<g>
		<path d="M512,417.925c0-11.071-4.761-21.048-12.341-28c7.579-6.952,12.341-16.929,12.341-28c0-20.953-17.047-38-38-38H366
			c-20.953,0-38,17.047-38,38c0,11.071,4.761,21.048,12.341,28c-7.579,6.952-12.341,16.929-12.341,28s4.761,21.048,12.341,28
			c-7.579,6.952-12.341,16.929-12.341,28c0,6.509,1.647,12.639,4.543,18h-40.72v-39.102c0-52.884-40.655-96.443-92.351-101.084
			c-1.402-0.417-2.876-0.51-4.315-0.299c-0.168-0.008-0.337-0.012-0.505-0.019c12.981-12.682,21.061-30.361,21.061-49.899v-99.597
			c0-5.522-4.477-10-10-10h-74.076c-30.618,0-55.527,24.909-55.527,55.526v54.07c0,19.538,8.08,37.217,21.061,49.899
			c-0.168,0.007-0.337,0.011-0.505,0.019c-1.439-0.21-2.913-0.118-4.315,0.299C40.655,356.38,0,399.94,0,452.823v49.102
			c0,5.522,4.477,10,10,10h154h117.823H366h102h6c20.953,0,38-17.047,38-38c0-11.071-4.761-21.048-12.341-28
			C507.239,438.973,512,428.996,512,417.925z M96.11,261.458v-14.007c0-19.589,15.938-35.526,35.527-35.526h64.076v26.761
			c0,13.522-11.001,24.523-24.524,24.523H96.11V261.458z M96.11,301.522v-18.313h75.079c9.057,0,17.486-2.725,24.524-7.388v25.7
			c0,27.46-22.341,49.801-49.801,49.801C118.452,351.322,96.11,328.982,96.11,301.522z M172.469,371.322l-26.558,26.558
			l-26.558-26.558H172.469z M271.823,491.926H164v-0.001H20v-28.78h81.603c5.523,0,10-4.478,10-10c0-5.522-4.477-10-10-10H20.595
			c4.42-37.167,33.938-66.726,71.087-71.21l47.159,47.159c1.953,1.952,4.512,2.929,7.071,2.929c2.559,0,5.119-0.977,7.071-2.929
			l47.159-47.159c40.323,4.867,71.681,39.274,71.681,80.889V491.926z M474,491.925h-6H366c-9.925,0-18-8.075-18-18s8.075-18,18-18
			h108c9.925,0,18,8.075,18,18S483.925,491.925,474,491.925z M474,435.925H366c-9.925,0-18-8.075-18-18s8.075-18,18-18h108
			c9.925,0,18,8.075,18,18S483.925,435.925,474,435.925z M474,379.925H366c-9.925,0-18-8.075-18-18s8.075-18,18-18h108
			c9.925,0,18,8.075,18,18S483.925,379.925,474,379.925z"/>
	</g>
</g>
<g>
	<g>
		<path d="M374,227.993c-8.005,0-14.518-5.496-14.518-12.251s6.513-12.251,14.518-12.251s14.518,5.496,14.518,12.251
			c0,5.522,4.477,10,10,10s10-4.478,10-10c0-14.535-10.346-26.85-24.518-30.866v-1.493c0-5.522-4.477-10-10-10s-10,4.478-10,10
			v1.493c-14.171,4.016-24.518,16.331-24.518,30.866c0,17.783,15.484,32.251,34.518,32.251c8.005,0,14.518,5.496,14.518,12.251
			c0,6.755-6.513,12.251-14.518,12.251s-14.518-5.496-14.518-12.251c0-5.522-4.477-10-10-10s-10,4.478-10,10
			c0,14.535,10.346,26.85,24.518,30.866v0.641c0,5.522,4.477,10,10,10s10-4.478,10-10v-0.641
			c14.171-4.016,24.518-16.331,24.518-30.866C408.518,242.461,393.034,227.993,374,227.993z"/>
	</g>
</g>
<g>
</g>
<g>
</g>
<g>
</g>
<g>
</g>
<g>
</g>
<g>
</g>
<g>
</g>
<g>
</g>
<g>
</g>
<g>
</g>
<g>
</g>
<g>
</g>
<g>
</g>
<g>
</g>
<g>
</g>
</svg>
