<?xml version="1.0" encoding="utf-8"?>
<!-- Generator: Adobe Illustrator 16.0.0, SVG Export Plug-In . SVG Version: 6.00 Build 0)  -->
<!DOCTYPE svg PUBLIC "-//W3C//DTD SVG 1.1//EN" "http://www.w3.org/Graphics/SVG/1.1/DTD/svg11.dtd">
<svg version="1.1" id="Layer_1" xmlns="http://www.w3.org/2000/svg" xmlns:xlink="http://www.w3.org/1999/xlink" x="0px" y="0px"
	 width="512px" height="512px" viewBox="0 0 512 512" enable-background="new 0 0 512 512" xml:space="preserve">
<g id="Outline">
	<circle cx="152" cy="184" r="16"/>
	<path d="M488,368h-40V88c0-4.418-3.582-8-8-8h-40V56c-0.025-22.081-17.919-39.975-40-40h-8c-4.419,0-8,3.582-8,8v56H240
		c-4.419,0-8,3.582-8,8v24H120c-4.419,0-8,3.582-8,8c0.012,4.407-3.552,7.988-7.958,8c-0.015,0-0.028,0-0.042,0
		c-4.419,0-8,3.582-8,8v96c0,4.419,3.581,8,8,8c4.405-0.013,7.987,3.549,8,7.954c0,0.016,0,0.031,0,0.046c0,4.419,3.581,8,8,8h112
		v16H80V96h136V80H72c-4.419,0-8,3.582-8,8v288c0,4.419,3.581,8,8,8h8.127c-5.252,6.166-8.134,14.002-8.127,22.101v1.739
		c-0.044,12.945,7.276,24.79,18.875,30.54l93.276,46.639C198.6,492.221,214.52,495.98,230.663,496H376v-16H230.663
		c-13.66-0.016-27.13-3.195-39.355-9.289l-93.278-46.64c-6.163-3.056-10.053-9.35-10.029-16.229V406.1
		c-0.003-10.021,8.119-18.146,18.14-18.148c2.609,0,5.188,0.562,7.561,1.648l90.967,41.667c1.045,0.481,2.182,0.731,3.333,0.732h80
		c4.418,0,8-3.581,8-8c0-4.418-3.582-8-8-8h-64c-8.837,0-16-7.163-16-16c0-8.836,7.163-16,16-16h61.333
		c1.451,0,2.875-0.395,4.119-1.142l0.738-0.443c29.655-17.793,66.346-19.202,97.278-3.735l4.531,2.265V488c0,4.419,3.581,8,8,8h88
		c4.418,0,8-3.581,8-8V376C496,371.582,492.418,368,488,368z M384,248c-0.016,13.249-10.752,23.984-24,24h-80v-16h73.37
		c10.728-0.006,21.274-2.767,30.63-8.019V248z M280,234.633V133.406c10.26,4.895,18.805,12.771,24.517,22.6
		c4.912,8.512,7.493,18.168,7.483,27.994c0,0.962-0.026,1.924-0.08,2.9C310.94,207.494,298.657,225.86,280,234.633z M432,288v16H280
		v-16H432z M280,320h152v16H280V320z M432,96v176h-40.022c5.215-6.914,8.031-15.34,8.022-24V96H432z M360,32
		c13.248,0.016,23.984,10.752,24,24v160.02c-6.915-5.214-15.341-8.029-24-8.02V32z M360,224c7.135-0.001,13.898,3.178,18.451,8.671
		c-7.492,4.783-16.193,7.325-25.081,7.329h-51.992c15.889-12.841,25.537-31.854,26.52-52.26c0.068-1.227,0.101-2.486,0.101-3.74
		c0.038-21.771-9.828-42.378-26.813-56H344v88c0,4.419,3.581,8,8,8H360z M344,112h-64V96h64V112z M264,96v176h-16V96H264z
		 M232,133.406v101.21c-27.948-13.245-39.868-46.639-26.623-74.587C210.912,148.348,220.319,138.942,232,133.406z M120.967,231.013
		c-2.529-2.531-5.593-4.464-8.967-5.655v-82.717c6.839-2.423,12.219-7.803,14.642-14.642h84.169
		c-30.948,24.939-35.82,70.246-10.881,101.195c3.202,3.974,6.818,7.596,10.787,10.805h-84.076
		C125.444,236.619,123.505,233.548,120.967,231.013z M80,320h152v16H80V320z M232,288v16H80v-16H232z M193.114,408.383L139.883,384
		h56.422C192.031,391.377,190.883,400.155,193.114,408.383z M80,368v-16h152v16H80z M248,368v-80h16v80H248z M342.233,352
		c-20.77,0.002-41.166,5.523-59.1,16H280v-16h152v16h-30.112l-7.263-3.632C378.351,356.255,360.418,352.021,342.233,352z M480,480
		h-72v-96h72V480z"/>
	<circle cx="440" cy="448" r="16"/>
</g>
</svg>
