<?xml version="1.0" encoding="utf-8"?>
<!-- Generator: Adobe Illustrator 16.0.0, SVG Export Plug-In . SVG Version: 6.00 Build 0)  -->
<!DOCTYPE svg PUBLIC "-//W3C//DTD SVG 1.1//EN" "http://www.w3.org/Graphics/SVG/1.1/DTD/svg11.dtd">
<svg version="1.1" id="Layer_1_1_" xmlns="http://www.w3.org/2000/svg" xmlns:xlink="http://www.w3.org/1999/xlink" x="0px" y="0px"
	 width="512px" height="512px" viewBox="0 0 512 512" enable-background="new 0 0 512 512" xml:space="preserve">
<path d="M32,496h48c8.824,0,16-7.176,16-16v-16h180.848c40.192,0,79.464-11.264,113.544-32.56
	c51.384-32.12,86.896-84.768,97.432-144.448l3.473-19.664c1.552-8.784-0.841-17.744-6.576-24.576
	C478.984,235.92,470.575,232,461.656,232c-4.872,0-9.512,1.208-13.655,3.32V200h8c3.231,0,6.159-1.952,7.392-4.936
	c1.24-2.992,0.552-6.433-1.736-8.72l-64-64c-3.128-3.129-8.184-3.129-11.312,0L368,140.688V32c0-4.416-3.576-8-8-8h-80
	c-4.424,0-8,3.584-8,8v88h-32.416c-6.088-13.392-10.592-21.224-14.208-25.768l20.216-49.408c2.248-5.4,0.936-11.472-3.344-15.464
	c-4.28-4-10.433-4.872-15.656-2.264l-15.128,7.56l-9.528-12.704c-2.408-3.216-6.088-5.231-10.096-5.52
	c-4.016-0.296-7.944,1.168-10.816,4.023l-12.168,12.16l-7.991-10.664c-2.416-3.224-6.097-5.231-10.112-5.52
	c-4.008-0.296-7.952,1.176-10.8,4.023L124.6,35.808l-23.072-6.593c-5.416-1.552-11.136,0.288-14.632,4.664
	c-3.504,4.376-4.04,10.385-1.359,15.288l24.191,44.664C92.744,109.176,72,152.288,72,191.464V216c0,26.473,21.527,48,48,48h88h72h64
	h83.056l-16.896,33.8l-43.991,18.856C361.232,300.152,346.088,288,328,288H212.824c-41.633,0-81.688,11.473-116.824,33.168V304
	c0-8.824-7.176-16-16-16H32c-8.824,0-16,7.176-16,16v176C16,488.824,23.176,496,32,496L32,496z M121.416,51.544
	c4.84,1.385,10.063,0.04,13.616-3.527l14.504-14.504l8,10.68c2.424,3.216,6.111,5.231,10.128,5.512
	c4.063,0.265,7.936-1.191,10.775-4.032l12.168-12.159l9.128,12.159c4.009,5.376,11.272,7.104,17.297,4.097l11.64-5.824L210.624,88
	h-21.681l10.208-20.424l-14.312-7.16L171.056,88h-14.023L145.88,64.8l-14.424,6.937L139.272,88H124.76l-22.744-42L121.416,51.544z
	 M200,128v120h-80c-17.648,0-32-14.352-32-32v-24.536c0-42.823,26.504-82.76,34.088-87.464h90.616c1.296,1.568,4.231,5.776,9.199,16
	H208C203.576,120,200,123.584,200,128L200,128z M216,136h56v112h-56V136z M392,139.312L436.688,184h-89.376L392,139.312z M288,40h64
	v116.688l-29.656,29.656c-2.288,2.287-2.976,5.728-1.736,8.72c1.232,2.983,4.16,4.936,7.393,4.936h8v48h-48V40z M352,200h80v48h-16
	v-32c0-4.416-3.576-8-8-8h-32c-4.424,0-8,3.584-8,8v32h-16V200z M400,248h-16v-24h16V248z M212.824,304H328
	c13.231,0,24,10.769,24,24c0,13.232-10.769,24-24,24H200v16h128c20.168,0,36.728-15.056,39.439-34.487l51.704-22.16
	c1.744-0.744,3.168-2.08,4.008-3.776l25.888-51.784c2.416-4.808,7.24-7.792,12.616-7.792c4.176,0,8.12,1.832,10.809,5.04
	c2.688,3.208,3.815,7.4,3.088,11.513l-3.473,19.663c-9.752,55.225-42.607,103.937-90.167,133.656
	C350.376,437.585,314.048,448,276.848,448H96V340.304C130.552,316.608,170.824,304,212.824,304L212.824,304z M32,304h48l0.008,176
	H32V304z"/>
<path d="M48,328h16v24H48V328z"/>
<path d="M304,56h8v16h-8V56z"/>
<path d="M328,56h8v16h-8V56z"/>
<path d="M304,88h8v16h-8V88z"/>
<path d="M328,88h8v16h-8V88z"/>
<path d="M304,120h8v16h-8V120z"/>
<path d="M328,120h8v16h-8V120z"/>
<path d="M232,152h8v16h-8V152z"/>
<path d="M256,152h8v16h-8V152z"/>
<path d="M232,184h8v16h-8V184z"/>
<path d="M256,184h8v16h-8V184z"/>
<path d="M232,216h8v16h-8V216z"/>
<path d="M256,216h8v16h-8V216z"/>
<path d="M304,152h8v16h-8V152z"/>
<path d="M328,152h8v16h-8V152z"/>
<path d="M176,144h-8v-8h-16v8h-8c-4.424,0-8,3.584-8,8v24c0,4.416,3.576,8,8,8h24v8h-32v8c0,4.416,3.576,8,8,8h8v8h16v-8h8
	c4.424,0,8-3.584,8-8v-24c0-4.416-3.576-8-8-8h-24v-8h32v-8C184,147.584,180.424,144,176,144z"/>
<path d="M424,32h16v16h-16V32z"/>
<path d="M440,16h16v16h-16V16z"/>
<path d="M456,32h16v16h-16V32z"/>
<path d="M440,48h16v16h-16V48z"/>
<path d="M480,72h16v16h-16V72z"/>
<path d="M424,96h16v16h-16V96z"/>
<path d="M16,88h16v16H16V88z"/>
<path d="M32,72h16v16H32V72z"/>
<path d="M48,88h16v16H48V88z"/>
<path d="M32,104h16v16H32V104z"/>
<path d="M16,152h16v16H16V152z"/>
<path d="M48,16h16v16H48V16z"/>
</svg>
