<svg id="Capa_1" enable-background="new 0 0 512 512" height="512" viewBox="0 0 512 512" width="512" xmlns="http://www.w3.org/2000/svg"><g><path d="m456.61 139.378h-235.823c-3.825-46.373-42.779-82.94-90.117-82.94-49.869 0-90.44 40.571-90.44 90.44v188.22c0 4.142 3.358 7.5 7.5 7.5s7.5-3.358 7.5-7.5v-188.22c0-41.598 33.842-75.44 75.44-75.44 41.592 0 75.43 33.842 75.43 75.44v95.78 135.349h-150.87v-12.909c0-4.142-3.358-7.5-7.5-7.5s-7.5 3.358-7.5 7.5v12.909h-.856c-21.711.001-39.374 17.664-39.374 39.375v30.68c0 4.142 3.358 7.5 7.5 7.5h246.332c4.142 0 7.5-3.358 7.5-7.5v-30.68c0-21.711-17.663-39.374-39.374-39.374h-.858v-127.849h235.51c7.523 0 14.821-1.484 21.689-4.41 3.811-1.624 5.584-6.029 3.96-9.839-1.624-3.811-6.03-5.584-9.839-3.96-5 2.13-10.319 3.21-15.811 3.21h-18.82l24.275-80.402c19.699 2.672 34.936 19.59 34.936 40.011 0 7.337-1.98 14.507-5.727 20.734-2.135 3.549-.989 8.157 2.561 10.293 3.55 2.137 8.158.989 10.293-2.561 5.15-8.561 7.873-18.405 7.873-28.466 0-30.542-24.848-55.391-55.39-55.391zm-210.278 278.004v23.18h-231.332v-23.18c0-13.44 10.934-24.374 24.374-24.374h182.583c13.44 0 24.375 10.934 24.375 24.374zm86.256-263.004h49.127l-24.389 80.78h-49.127zm-40.057 80.781h-49.127l24.388-80.78h49.128zm-71.431-80.781h31.023l-24.388 80.78h-6.635zm151.894 80.781 24.389-80.78h49.127l-24.389 80.78z"/><path d="m145.272 311.952c20.81 0 37.74-16.93 37.74-37.74v-85.022c0-20.81-16.93-37.74-37.74-37.74h-29.212c-20.81 0-37.74 16.93-37.74 37.74v85.022c0 20.81 16.93 37.74 37.74 37.74zm-51.953-37.741v-85.022c0-12.539 10.201-22.74 22.74-22.74h29.212c12.539 0 22.74 10.201 22.74 22.74v85.022c0 12.539-10.201 22.74-22.74 22.74h-29.211c-12.539.001-22.741-10.201-22.741-22.74z"/><path d="m110.734 208.306h39.864c4.142 0 7.5-3.358 7.5-7.5s-3.358-7.5-7.5-7.5h-39.864c-4.142 0-7.5 3.358-7.5 7.5s3.358 7.5 7.5 7.5z"/><path d="m158.098 231.701c0-4.142-3.358-7.5-7.5-7.5h-39.864c-4.142 0-7.5 3.358-7.5 7.5s3.358 7.5 7.5 7.5h39.864c4.142 0 7.5-3.358 7.5-7.5z"/></g></svg>