<?xml version="1.0" encoding="utf-8"?>
<!-- Generator: Adobe Illustrator 16.0.0, SVG Export Plug-In . SVG Version: 6.00 Build 0)  -->
<!DOCTYPE svg PUBLIC "-//W3C//DTD SVG 1.1//EN" "http://www.w3.org/Graphics/SVG/1.1/DTD/svg11.dtd">
<svg version="1.1" id="Layer_1" xmlns="http://www.w3.org/2000/svg" xmlns:xlink="http://www.w3.org/1999/xlink" x="0px" y="0px"
	 width="841.889px" height="595.281px" viewBox="0 0 841.889 595.281" enable-background="new 0 0 841.889 595.281"
	 xml:space="preserve">
<title>3-Financial Document</title>
<g id="_3-Financial_Document">
	<path d="M141.907,18.602h372.05v102.314c0,5.137,4.164,9.301,9.301,9.301h102.314v83.711h18.603v-93.012
		c0.014-2.473-0.957-4.849-2.698-6.604L529.863,2.697c-1.756-1.74-4.132-2.711-6.604-2.697H132.606
		c-5.137,0-9.301,4.165-9.301,9.302v576.678c0,5.137,4.164,9.302,9.301,9.302h37.205v-18.604h-27.903V18.602z M532.56,31.718
		l79.897,79.897H532.56V31.718z"/>
	<path d="M188.413,55.807c-5.137,0-9.301,4.164-9.301,9.302v55.808c0,5.137,4.164,9.301,9.301,9.301h55.808
		c5.137,0,9.302-4.164,9.302-9.301V65.109c0-5.138-4.165-9.302-9.302-9.302H188.413z M234.92,111.615h-37.205V74.41h37.205V111.615z
		"/>
	<rect x="272.124" y="65.109" width="130.218" height="18.603"/>
	<rect x="272.124" y="102.314" width="18.603" height="18.603"/>
	<rect x="309.329" y="102.314" width="18.603" height="18.603"/>
	<path d="M718.584,260.435c0-10.274-8.328-18.603-18.602-18.603h-148.82c-10.274,0-18.603,8.328-18.603,18.603v46.506
		c0.021,1.354,0.339,2.688,0.93,3.907c-0.574,1.742-0.888,3.561-0.93,5.395v37.205H383.74c-10.273,0-18.603,8.328-18.603,18.603
		v37.205H216.318c-10.274,0-18.603,8.328-18.603,18.603v46.506c0.021,1.354,0.339,2.688,0.93,3.906
		c-0.574,1.743-0.888,3.561-0.93,5.396v46.506c0.021,1.354,0.339,2.688,0.93,3.906c-0.574,1.743-0.888,3.561-0.93,5.396v46.506
		c0,5.137,4.164,9.302,9.301,9.302h502.268c5.137,0,9.301-4.165,9.301-9.302v-46.506c-0.042-1.835-0.355-3.652-0.93-5.396
		c0.591-1.219,0.908-2.552,0.93-3.906v-46.506c-0.042-1.835-0.355-3.652-0.93-5.396c0.591-1.219,0.908-2.552,0.93-3.906v-46.506
		c-0.042-1.835-0.355-3.652-0.93-5.395c0.591-1.22,0.908-2.553,0.93-3.907v-46.506c-0.042-1.834-0.355-3.652-0.93-5.395
		c0.591-1.219,0.908-2.553,0.93-3.907v-46.506c-0.042-1.834-0.355-3.652-0.93-5.395c0.591-1.219,0.908-2.553,0.93-3.907V260.435z
		 M365.137,576.677H216.318v-37.204h148.819V576.677z M365.137,520.871H216.318v-37.205h148.819V520.871z M365.137,465.063H216.318
		v-37.205h148.819V465.063z M532.56,576.677H383.74v-37.204h148.82V576.677z M532.56,520.871H383.74v-37.205h148.82V520.871z
		 M532.56,465.063H383.74v-37.205h148.82V465.063z M532.56,409.256H383.74v-37.205h148.82V409.256z M699.983,576.677h-148.82
		v-37.204h148.82V576.677z M699.983,520.871h-148.82v-37.205h148.82V520.871z M699.983,465.063h-148.82v-37.205h148.82V465.063z
		 M699.983,409.256h-148.82v-37.205h148.82V409.256z M699.983,353.448h-148.82v-37.205h148.82V353.448z M699.983,297.64h-148.82
		v-37.205h148.82V297.64z"/>
	<path d="M349.232,332.148c3.628,3.606,9.487,3.606,13.115,0l142.309-142.31v33.392h18.603v-55.808c0-5.137-4.164-9.301-9.301-9.301
		H458.15v18.602h33.392L355.836,312.429l-77.107-77.107c-3.628-3.606-9.487-3.606-13.115,0l-93.012,93.013l13.114,13.114
		l86.408-86.502L349.232,332.148z"/>
</g>
</svg>
