<?xml version="1.0" encoding="utf-8"?>
<!-- Generator: Adobe Illustrator 16.0.0, SVG Export Plug-In . SVG Version: 6.00 Build 0)  -->
<!DOCTYPE svg PUBLIC "-//W3C//DTD SVG 1.1//EN" "http://www.w3.org/Graphics/SVG/1.1/DTD/svg11.dtd">
<svg version="1.1" id="Capa_1" xmlns="http://www.w3.org/2000/svg" xmlns:xlink="http://www.w3.org/1999/xlink" x="0px" y="0px"
	 width="512px" height="512px" viewBox="0 0 512 512" enable-background="new 0 0 512 512" xml:space="preserve">
<g>
	<path d="M498.038,51.264h-87.434c-7.698,0-13.961,6.263-13.961,13.962V75h-31.037c-4.142,0-7.5,3.358-7.5,7.5v50.333H327.07
		c-4.142,0-7.5,3.358-7.5,7.5V248.5h-23.535v-5.232c0-14.391-20.141-21.919-40.034-21.919c-19.895,0-40.034,7.528-40.034,21.919
		v5.232H192.43v-18.641c0-4.143-3.357-7.5-7.5-7.5c-4.142,0-7.5,3.357-7.5,7.5v134.309h-23.536v-50.334c0-4.142-3.357-7.5-7.5-7.5
		h-31.037v-9.774c0-7.698-6.263-13.961-13.961-13.961H67.615c-4.143,0-7.5,3.357-7.5,7.5c0,4.142,3.357,7.5,7.5,7.5h32.742v32.472
		H15v-32.472h17.614c4.142,0,7.5-3.358,7.5-7.5c0-4.143-3.358-7.5-7.5-7.5H13.961C6.263,282.597,0,288.86,0,296.559v34.549
		c0,7.698,6.263,13.961,13.961,13.961h87.434c7.698,0,13.961-6.263,13.961-13.961v-9.773h23.537v100.666h-23.537v-9.775
		c0-7.698-6.263-13.961-13.961-13.961H13.961C6.263,398.264,0,404.527,0,412.225v34.549c0,7.699,6.263,13.962,13.961,13.962h87.434
		c7.698,0,13.961-6.263,13.961-13.962v-9.773h31.037c4.143,0,7.5-3.358,7.5-7.5v-50.333h31.036c4.142,0,7.5-3.358,7.5-7.5V263.5
		h23.536v5.233c0,14.39,20.14,21.919,40.034,21.919c19.894,0,40.034-7.529,40.034-21.919V263.5h23.535v108.168
		c0,4.142,3.358,7.5,7.5,7.5h31.036v50.333c0,4.142,3.358,7.5,7.5,7.5h31.037v9.773c0,7.699,6.263,13.962,13.961,13.962h87.434
		c7.698,0,13.962-6.263,13.962-13.962v-34.549c0-7.698-6.264-13.961-13.962-13.961h-87.434c-7.698,0-13.961,6.263-13.961,13.961
		v9.775h-23.537V321.334h23.537v9.773c0,7.698,6.263,13.961,13.961,13.961h87.434c7.698,0,13.962-6.263,13.962-13.961v-34.549
		c0-7.698-6.264-13.961-13.962-13.961h-87.434c-7.698,0-13.961,6.263-13.961,13.961v9.774h-31.037c-4.142,0-7.5,3.358-7.5,7.501
		v50.333H334.57V147.833h23.536v50.333c0,4.143,3.358,7.5,7.5,7.5h31.037v9.775c0,7.698,6.263,13.961,13.961,13.961h87.434
		c7.698,0,13.961-6.263,13.961-13.961v-34.549c0-7.698-6.263-13.961-13.961-13.961h-87.434c-7.698,0-13.961,6.263-13.961,13.961
		v9.773h-23.537V90h23.537v9.775c0,7.698,6.263,13.961,13.961,13.961h41.219c4.143,0,7.5-3.358,7.5-7.5s-3.357-7.5-7.5-7.5h-40.181
		V66.264H497v32.473h-10.177c-4.142,0-7.5,3.358-7.5,7.5s3.358,7.5,7.5,7.5h11.216c7.697,0,13.961-6.263,13.961-13.961v-34.55
		C512,57.527,505.737,51.264,498.038,51.264L498.038,51.264z M100.357,445.736H15v-32.473h85.356V445.736z M256,236.348
		c15.067,0,23.604,4.737,24.942,6.919c-1.337,2.181-9.874,6.919-24.942,6.919c-15.069,0-23.606-4.738-24.943-6.919
		C232.395,241.086,240.932,236.348,256,236.348z M256,275.652c-15.467,0-24.054-4.993-25.034-7.087v-7.844
		c14.435,5.949,35.625,5.952,50.068,0v7.844C280.053,270.659,271.467,275.652,256,275.652z M411.643,413.264H497v32.473h-85.357
		V413.264z M411.643,297.597H497v32.472h-85.357V297.597z M411.643,181.931H497v32.472h-85.357V181.931z"/>
	<path d="M13.961,229.403h87.434c7.698,0,13.961-6.263,13.961-13.961v-9.775h31.037c4.143,0,7.5-3.357,7.5-7.5v-50.333h23.536
		v47.025c0,4.142,3.358,7.5,7.5,7.5s7.5-3.358,7.5-7.5v-54.525c0-4.142-3.358-7.5-7.5-7.5h-31.036V82.5c0-4.142-3.357-7.5-7.5-7.5
		h-31.037v-9.773c0-7.699-6.263-13.962-13.961-13.962H13.961C6.263,51.264,0,57.527,0,65.226v34.549
		c0,7.698,6.263,13.961,13.961,13.961h87.434c7.698,0,13.961-6.263,13.961-13.961V90h23.537v100.667h-23.537v-9.773
		c0-7.698-6.263-13.961-13.961-13.961H13.961C6.263,166.931,0,173.194,0,180.892v34.549C0,223.14,6.263,229.403,13.961,229.403z
		 M100.357,98.736H15V66.264h85.356V98.736z M15,181.931h85.356v32.472H15V181.931z"/>
</g>
</svg>
