<?xml version="1.0" encoding="utf-8"?>
<!-- Generator: Adobe Illustrator 16.0.0, SVG Export Plug-In . SVG Version: 6.00 Build 0)  -->
<!DOCTYPE svg PUBLIC "-//W3C//DTD SVG 1.1//EN" "http://www.w3.org/Graphics/SVG/1.1/DTD/svg11.dtd">
<svg version="1.1" id="Layer_1" xmlns="http://www.w3.org/2000/svg" xmlns:xlink="http://www.w3.org/1999/xlink" x="0px" y="0px"
	 width="496px" height="496px" viewBox="0 0 496 496" enable-background="new 0 0 496 496" xml:space="preserve">
<path d="M160,304h48V192h-48V304z M176,208h16v80h-16V208z"/>
<path d="M96,304h48v-48H96V304z M112,272h16v16h-16V272z"/>
<path d="M96,240h48v-48H96V240z M112,208h16v16h-16V208z"/>
<path d="M32,304h48v-48H32V304z M48,272h16v16H48V272z"/>
<path d="M32,240h48v-48H32V240z M48,208h16v16H48V208z"/>
<path d="M96,176h48v-48H96V176z M112,144h16v16h-16V144z"/>
<path d="M160,176h48v-48h-48V176z M176,144h16v16h-16V144z"/>
<path d="M32,176h48v-48H32V176z M48,144h16v16H48V144z"/>
<path d="M32,112h176V32H32V112z M48,48h144v48H48V48z"/>
<path d="M464,192v-32H240V24c0-13.23-10.77-24-24-24H24C10.77,0,0,10.769,0,24v288c0,13.23,10.77,24,24,24h104v128h144.809
	c3.711,18.23,19.879,32,39.191,32s35.48-13.77,39.191-32H496V192H464z M448,176v240H320V176H448z M304,176v240H176v-80h112v-16
	h-49.473c0.898-2.512,1.473-5.184,1.473-8v-8h48v-16h-48v-16h48v-16h-48v-16h48v-16h-48v-16h48v-16h-48v-16H304z M16,312V24
	c0-4.414,3.594-8,8-8h192c4.406,0,8,3.586,8,8v288c0,4.414-3.594,8-8,8H24C19.594,320,16,316.414,16,312z M480,448H336v8
	c0,13.23-10.77,24-24,24s-24-10.77-24-24v-8H144V336h16v96h304V208h16V448z"/>
<path d="M384,304c-8.824,0-16-7.176-16-16h-16c0,14.871,10.238,27.289,24,30.863V336h16v-17.137c13.762-3.574,24-15.992,24-30.863
	c0-17.648-14.352-32-32-32c-8.824,0-16-7.176-16-16s7.176-16,16-16s16,7.176,16,16h16c0-14.871-10.238-27.289-24-30.863V192h-16
	v17.137c-13.762,3.574-24,15.992-24,30.863c0,17.648,14.352,32,32,32c8.824,0,16,7.176,16,16S392.824,304,384,304z"/>
<path d="M336,352h96v16h-96V352z"/>
<path d="M336,384h96v16h-96V384z"/>
<path d="M192,352h96v16h-96V352z"/>
<path d="M192,384h96v16h-96V384z"/>
</svg>
