<?xml version="1.0" encoding="utf-8"?>
<!-- Generator: Adobe Illustrator 16.0.0, SVG Export Plug-In . SVG Version: 6.00 Build 0)  -->
<!DOCTYPE svg PUBLIC "-//W3C//DTD SVG 1.1//EN" "http://www.w3.org/Graphics/SVG/1.1/DTD/svg11.dtd">
<svg version="1.1" id="Layer_1" xmlns="http://www.w3.org/2000/svg" xmlns:xlink="http://www.w3.org/1999/xlink" x="0px" y="0px"
	 width="480px" height="480px" viewBox="0 0 480 480" enable-background="new 0 0 480 480" xml:space="preserve">
<path d="M1.602,147.199l12.797,9.602c16.43-21.941,40.344-37.086,67.203-42.563l-3.203-15.688
	C47.707,104.82,20.383,122.129,1.602,147.199z"/>
<path d="M138.696,220.273c4.871-6.703,6.492-15.23,4.422-23.254c-2.066-8.023-7.613-14.703-15.117-18.211V168h-16v8H96v-8H80v8H64
	v16h8v64h-8v16h16v8h16v-8h16v8h16v-8.406c11.645-1.621,21.02-10.387,23.418-21.895C153.817,238.187,148.727,226.41,138.696,220.273
	z M88,192h28c6.629,0,12,5.371,12,12s-5.371,12-12,12H88V192z M124,256H88v-24h36c6.629,0,12,5.371,12,12S130.629,256,124,256z"/>
<path d="M192,448c12.023,0.02,22.199-8.879,23.777-20.797c1.582-11.922-5.922-23.164-17.539-26.273
	c2.348-5.723,2.348-12.137,0-17.859c11.617-3.109,19.121-14.352,17.539-26.273C214.199,344.879,204.024,335.98,192,336h-1.473
	c0.949-2.563,1.445-5.27,1.473-8c0-13.254-10.746-24-24-24h-11.047c35.34-23.371,51.184-67.148,38.98-107.723
	S146.371,127.926,104,127.926s-79.73,27.777-91.934,68.352S15.707,280.629,51.047,304H24c-13.254,0-24,10.746-24,24s10.746,24,24,24
	h1.473c-2.059,5.473-1.957,11.527,0.289,16.93c-10.473,2.766-17.77,12.238-17.77,23.07s7.297,20.305,17.77,23.07
	c-3.004,7.391-2.129,15.789,2.336,22.398S40.024,448.027,48,448H192z M24,224c0-44.184,35.816-80,80-80s80,35.816,80,80
	s-35.816,80-80,80C59.836,303.953,24.047,268.164,24,224z M16,328c0-4.418,3.582-8,8-8h144c4.418,0,8,3.582,8,8s-3.582,8-8,8H24
	C19.582,336,16,332.418,16,328z M168,352h24c4.418,0,8,3.582,8,8s-3.582,8-8,8H48c-4.418,0-8-3.582-8-8s3.582-8,8-8H168z M32,384
	h144c4.418,0,8,3.582,8,8s-3.582,8-8,8H32c-4.418,0-8-3.582-8-8S27.582,384,32,384z M40,424c0-4.418,3.582-8,8-8h144
	c4.418,0,8,3.582,8,8s-3.582,8-8,8H48C43.582,432,40,428.418,40,424z"/>
<path d="M456,48h-8V8c0-4.418-3.582-8-8-8H104c-4.418,0-8,3.582-8,8v104h16V16h320v32H184c-1.242,0-2.465,0.285-3.574,0.84l-32,16
	c-2.719,1.352-4.434,4.125-4.434,7.16s1.715,5.809,4.434,7.16l32,16C181.535,95.715,182.758,96,184,96h221.754l-4,16H344v16h64
	c3.672,0,6.871-2.5,7.762-6.063L422.239,96H432v336H232v16h208c4.418,0,8-3.582,8-8V96h8c13.254,0,24-10.746,24-24
	S469.254,48,456,48z M169.887,72l16-8H232v16h-46.113L169.887,72z M248,80V64h165.762l-4,16H248z M456,80h-29.762l4-16H456
	c4.418,0,8,3.582,8,8S460.418,80,456,80z"/>
<path d="M256,168h16v16h-16V168z"/>
<path d="M288,168h112v16H288V168z"/>
<path d="M240,200h160v16H240V200z"/>
<path d="M240,232h160v16H240V232z"/>
<path d="M240,264h136v16H240V264z"/>
<path d="M240,400h152c4.418,0,8-3.582,8-8v-64c0-4.418-3.582-8-8-8H240v16h144v48H240V400z"/>
<path d="M352,352h16v16h-16V352z"/>
<path d="M320,352h16v16h-16V352z"/>
<path d="M288,352h16v16h-16V352z"/>
<path d="M256,352h16v16h-16V352z"/>
<path d="M464,184h16v160h-16V184z"/>
<path d="M464,360h16v16h-16V360z"/>
</svg>
