<?xml version="1.0" encoding="utf-8"?>
<!-- Generator: Adobe Illustrator 16.0.0, SVG Export Plug-In . SVG Version: 6.00 Build 0)  -->
<!DOCTYPE svg PUBLIC "-//W3C//DTD SVG 1.1//EN" "http://www.w3.org/Graphics/SVG/1.1/DTD/svg11.dtd">
<svg version="1.1" id="Layer_1" xmlns="http://www.w3.org/2000/svg" xmlns:xlink="http://www.w3.org/1999/xlink" x="0px" y="0px"
	 width="512px" height="512px" viewBox="0 0 512 512" enable-background="new 0 0 512 512" xml:space="preserve">
<g>
	<path d="M436.544,416.06c-4.151,0-7.516,3.365-7.516,7.515v65.881c0,4.145-3.371,7.516-7.515,7.516H90.485
		c-4.144,0-7.515-3.371-7.515-7.516V230.016c0-4.15-3.364-7.516-7.515-7.516c-4.151,0-7.516,3.364-7.516,7.516v259.439
		C67.94,501.887,78.054,512,90.484,512h331.029c12.43,0,22.544-10.112,22.544-22.544v-65.881
		C444.059,419.426,440.695,416.06,436.544,416.06L436.544,416.06z"/>
	<path d="M444.046,100.383c-0.044-1.893-0.862-3.724-2.188-5.063L348.739,2.201c-1.398-1.396-3.336-2.195-5.313-2.201H90.485
		c-12.43,0-22.544,10.113-22.544,22.544v177.413c0,4.15,3.364,7.516,7.516,7.516c4.15,0,7.515-3.365,7.515-7.516V22.544
		c0-4.144,3.371-7.515,7.515-7.515H335.91v70.575c0,12.431,10.112,22.544,22.544,22.544h70.574v285.368
		c0,4.149,3.364,7.515,7.516,7.515c4.15,0,7.515-3.365,7.515-7.515V100.634C444.059,100.549,444.049,100.467,444.046,100.383
		L444.046,100.383z M358.454,93.119c-4.145,0-7.516-3.371-7.516-7.515V25.657l67.463,67.462H358.454z"/>
	<path d="M203.052,86.015c-5.906,0-10.939,3.821-12.525,9.513l-17.624,63.252c-1.114,3.998,1.225,8.142,5.223,9.256
		c3.997,1.118,8.142-1.223,9.255-5.222l4.522-16.232h22.301l4.522,16.232c0.926,3.323,3.945,5.5,7.235,5.5
		c0.667,0,1.346-0.09,2.021-0.278c3.997-1.114,6.336-5.258,5.222-9.256l-17.625-63.252
		C213.992,89.837,208.959,86.015,203.052,86.015z M196.091,131.551l6.962-24.984l6.962,24.984H196.091z"/>
	<path d="M245.563,76.938c-4.15,0-7.515,3.364-7.515,7.515v3.114h-3.113c-4.15,0-7.515,3.364-7.515,7.515s3.364,7.516,7.515,7.516
		h3.113v3.113c0,4.15,3.364,7.516,7.515,7.516c4.151,0,7.516-3.365,7.516-7.516v-3.113h3.112c4.151,0,7.516-3.364,7.516-7.516
		c0-4.149-3.364-7.515-7.516-7.515h-3.112v-3.114C253.077,80.302,249.713,76.938,245.563,76.938z"/>
	<path d="M214.369,39.327c-46.358,0-84.072,37.715-84.072,84.072c0,46.356,37.714,84.072,84.072,84.072
		c46.357,0,84.071-37.716,84.071-84.072c0-33.134-19.553-63.278-49.812-76.796c-3.791-1.691-8.234,0.006-9.927,3.796
		c-1.693,3.789,0.007,8.232,3.796,9.926c24.854,11.104,40.914,35.861,40.914,63.074c0,38.071-30.974,69.043-69.043,69.043
		c-38.07,0-69.043-30.973-69.043-69.043s30.973-69.043,69.043-69.043c4.15,0,7.515-3.365,7.515-7.516
		C221.884,42.691,218.52,39.327,214.369,39.327L214.369,39.327z"/>
	<path d="M130.646,261.006l15.347,17.828c2.682,3.251,7.991,3.484,10.946,0.473l30.409-29.715c2.969-2.9,3.023-7.657,0.123-10.627
		c-2.9-2.968-7.66-3.023-10.626-0.123l-24.684,24.119l-10.124-11.762c-2.708-3.146-7.453-3.499-10.599-0.793
		C128.294,253.116,127.938,257.861,130.646,261.006z"/>
	<path d="M382.699,233.503H224.392c-4.15,0-7.515,3.365-7.515,7.516c0,4.149,3.364,7.515,7.515,7.515h158.306
		c4.151,0,7.516-3.365,7.516-7.515C390.213,236.867,386.849,233.503,382.699,233.503z"/>
	<path d="M224.392,284.647h90.071c4.15,0,7.515-3.365,7.515-7.516c0-4.149-3.364-7.515-7.515-7.515h-90.071
		c-4.15,0-7.515,3.365-7.515,7.515C216.878,281.282,220.242,284.647,224.392,284.647L224.392,284.647z"/>
	<path d="M130.646,343.171l15.347,17.827c2.682,3.252,7.991,3.484,10.946,0.473l30.409-29.713c2.969-2.901,3.023-7.658,0.123-10.627
		s-7.66-3.024-10.626-0.123l-24.684,24.119l-10.124-11.763c-2.708-3.145-7.453-3.5-10.599-0.793
		C128.294,335.279,127.938,340.024,130.646,343.171L130.646,343.171z"/>
	<path d="M382.699,315.668H224.392c-4.15,0-7.515,3.364-7.515,7.515c0,4.149,3.364,7.515,7.515,7.515h158.306
		c4.151,0,7.516-3.365,7.516-7.515C390.213,319.031,386.849,315.668,382.699,315.668z"/>
	<path d="M224.392,366.811h90.071c4.15,0,7.515-3.365,7.515-7.515c0-4.15-3.364-7.516-7.515-7.516h-90.071
		c-4.15,0-7.515,3.365-7.515,7.516C216.878,363.446,220.242,366.811,224.392,366.811L224.392,366.811z"/>
	<path d="M130.646,425.335l15.347,17.827c2.682,3.251,7.991,3.484,10.946,0.473l30.409-29.714c2.969-2.901,3.023-7.658,0.123-10.627
		s-7.66-3.024-10.626-0.123l-24.684,24.118l-10.124-11.762c-2.708-3.145-7.453-3.501-10.599-0.793
		C128.294,417.443,127.938,422.188,130.646,425.335z"/>
	<path d="M390.213,405.345c0-4.15-3.364-7.516-7.516-7.516H224.392c-4.15,0-7.515,3.365-7.515,7.516
		c0,4.149,3.364,7.515,7.515,7.515h158.306C386.849,412.86,390.213,409.495,390.213,405.345z"/>
	<path d="M224.392,433.945c-4.15,0-7.515,3.365-7.515,7.516c0,4.149,3.364,7.515,7.515,7.515h90.071c4.15,0,7.515-3.365,7.515-7.515
		c0-4.15-3.364-7.516-7.515-7.516H224.392z"/>
</g>
</svg>
