<?xml version="1.0" encoding="utf-8"?>
<!-- Generator: Adobe Illustrator 16.0.0, SVG Export Plug-In . SVG Version: 6.00 Build 0)  -->
<!DOCTYPE svg PUBLIC "-//W3C//DTD SVG 1.1//EN" "http://www.w3.org/Graphics/SVG/1.1/DTD/svg11.dtd">
<svg version="1.1" id="Layer_1" xmlns="http://www.w3.org/2000/svg" xmlns:xlink="http://www.w3.org/1999/xlink" x="0px" y="0px"
	 width="480px" height="480px" viewBox="0 0 480 480" enable-background="new 0 0 480 480" xml:space="preserve">
<path d="M463.199,63.136c-0.914-1.914-2.551-3.387-4.551-4.098L292.703,0.457c-4.164-1.473-8.734,0.715-10.207,4.879L244.801,112
	h-16.488V84.801c0-7.445-3.457-14.469-9.355-19.012c-5.902-4.543-13.574-6.09-20.773-4.188L5.961,112.265v0.145
	C2.477,113.285,0.028,116.406,0,120v336c0,13.254,10.746,24,24,24h224c13.254,0,24-10.746,24-24v-72.59l64.16,22.648
	c4.168,1.469,8.738-0.715,10.207-4.883L463.543,69.25C464.246,67.246,464.121,65.047,463.199,63.136z M202.266,77.031
	c2.398-0.633,4.961-0.117,6.926,1.395c1.969,1.516,3.121,3.859,3.121,6.344V112H69.688L202.266,77.031z M256,456
	c0,4.418-3.582,8-8,8H24c-4.418,0-8-3.582-8-8V128h232c4.418,0,8,3.582,8,8V456z M321.762,158.457L332,153.601l4.879,10.207
	l-38.871,110.008c-0.703,2-0.586,4.199,0.328,6.113l8.328,17.422l-2.574,7.305l-15.867-16.43c-1.742-1.82-4.242-2.707-6.742-2.402
	l-9.48,1.199v-10.719l6.824-3.266c1.914-0.914,3.387-2.551,4.098-4.551l16-45.246L321.762,158.457z M336.848,211.855l16.242,26.098
	l-2.777,7.863l-19.434-17.016L336.848,211.855z M272,251.351v-21.984l7.871-0.328L272,251.351z M285.602,212.793L272,213.351
	v-10.648l19.586-6.832L285.602,212.793z M333.938,388.304L272,366.441v-63.289l7.496-0.938l22.105,22.867
	c1.516,1.547,3.594,2.41,5.758,2.398c0.57,0.004,1.141-0.059,1.695-0.184c2.711-0.59,4.918-2.539,5.84-5.152l8-22.633
	c0.707-2,0.59-4.199-0.328-6.109L314.199,276l10.945-31l23.504,20.602c1.457,1.277,3.332,1.984,5.273,1.984
	c0.684,0,1.363-0.09,2.023-0.266c2.566-0.672,4.633-2.57,5.52-5.07l8-22.633c0.809-2.293,0.531-4.824-0.754-6.887l-25.039-40.227
	l9.375-26.551c0.707-2.004,0.59-4.203-0.328-6.121l-9.758-20.406c-1.906-3.988-6.684-5.676-10.672-3.77l-20.418,9.762
	c-1.91,0.914-3.383,2.551-4.086,4.551l-9.387,26.582L272,185.761V136c-0.02-8.324-4.363-16.043-11.473-20.375l13.074-37.074
	l2.934-8.316l18.402-52l150.871,53.254L333.938,388.304z"/>
<path d="M397.055,122.136l5.324-15.09l13.719,4.84l-5.324,15.09L397.055,122.136z"/>
<path d="M287.328,83.398l5.328-15.086l13.715,4.844l-5.328,15.086L287.328,83.398z"/>
<path d="M369.621,112.453l5.328-15.09l13.715,4.844l-5.328,15.086L369.621,112.453z"/>
<path d="M314.762,93.086L320.09,78l13.711,4.844l-5.328,15.086L314.762,93.086z"/>
<path d="M342.192,102.761l5.328-15.086l13.715,4.844l-5.328,15.086L342.192,102.761z"/>
<path d="M132.313,160c-44.184,0-80,35.816-80,80s35.816,80,80,80s80-35.816,80-80C212.266,195.84,176.477,160.051,132.313,160z
	 M190.082,212.648l-10.914-2.398c-4.801-1.059-9.602-1.898-14.449-2.625c-0.734-4.848-1.598-9.672-2.629-14.449l-2.402-10.91
	C173.004,188.605,183.739,199.332,190.082,212.648z M68.313,240c0.016-3.27,0.281-6.535,0.801-9.766l19.781-4.402
	c3.035-0.672,6.09-1.23,9.152-1.758c-0.773,10.602-0.773,21.25,0,31.855c-3.063-0.527-6.117-1.09-9.152-1.762l-19.781-4.398
	C68.594,246.539,68.328,243.273,68.313,240z M114.281,221.976c11.992-1.07,24.055-1.07,36.047,0c1.074,11.992,1.074,24.055,0,36.047
	c-11.992,1.074-24.055,1.074-36.047,0C113.207,246.031,113.207,233.969,114.281,221.976z M166.543,224.074
	c3.066,0.527,6.121,1.086,9.152,1.758l19.785,4.402c1.109,6.465,1.109,13.07,0,19.535l-19.785,4.398
	c-3.031,0.672-6.086,1.234-9.152,1.77C167.321,245.328,167.321,234.679,166.543,224.074z M142.074,176.801l4.398,19.793
	c0.672,3.031,1.238,6.086,1.77,9.152c-10.609-0.777-21.258-0.777-31.867,0c0.531-3.066,1.09-6.121,1.77-9.152l4.398-19.793
	C129.008,175.703,135.61,175.703,142.074,176.801z M104.953,182.207l-2.402,10.914c-1.055,4.801-1.895,9.602-2.621,14.449
	c-4.848,0.727-9.672,1.598-14.449,2.621l-10.914,2.402c6.352-13.305,17.078-24.023,30.387-30.359V182.207z M74.551,267.328
	l10.914,2.402c4.801,1.055,9.598,1.895,14.449,2.621c0.727,4.848,1.598,9.672,2.621,14.449l2.402,10.91
	c-13.316-6.332-24.047-17.051-30.402-30.359L74.551,267.328z M122.551,303.152l-4.398-19.793c-0.68-3.023-1.238-6.086-1.77-9.145
	c5.297,0.387,10.617,0.648,15.938,0.648s10.625-0.262,15.93-0.648c-0.531,3.059-1.098,6.121-1.77,9.145l-4.398,19.793
	C135.617,304.25,129.016,304.25,122.551,303.152z M159.672,297.746l2.402-10.914c1.063-4.801,1.895-9.598,2.629-14.449
	c4.84-0.727,9.672-1.598,14.449-2.621l10.91-2.402c-6.34,13.328-17.074,24.066-30.398,30.41L159.672,297.746z"/>
<path d="M68.313,384h128v16h-128V384z"/>
<path d="M84.313,416h96v16h-96V416z"/>
<path d="M124.313,352h16v16h-16V352z"/>
<path d="M92.313,352h16v16h-16V352z"/>
<path d="M156.313,352h16v16h-16V352z"/>
</svg>
