<?xml version="1.0" encoding="utf-8"?>
<!-- Generator: Adobe Illustrator 16.0.0, SVG Export Plug-In . SVG Version: 6.00 Build 0)  -->
<!DOCTYPE svg PUBLIC "-//W3C//DTD SVG 1.1//EN" "http://www.w3.org/Graphics/SVG/1.1/DTD/svg11.dtd">
<svg version="1.1" id="Layer_5" xmlns="http://www.w3.org/2000/svg" xmlns:xlink="http://www.w3.org/1999/xlink" x="0px" y="0px"
	 width="512px" height="512px" viewBox="0 0 512 512" enable-background="new 0 0 512 512" xml:space="preserve">
<path d="M264,504h240V312H264V504z M360,328h48v16h-48V328z M280,328h64v32h80v-32h64v160H280V328z"/>
<path d="M456,456h16v16h-16V456z"/>
<path d="M424,456h16v16h-16V456z"/>
<path d="M392,456h16v16h-16V456z"/>
<path d="M488,168h-16V8H264v160h-16V8H40v160H24c-8.824,0-16,7.176-16,16v16c0,8.824,7.176,16,16,16h42.104
	C64.776,221.128,64,226.464,64,232c0,22.24,11.416,41.849,28.68,53.32C43.696,300.44,8,346.12,8,400c0,16.36,9.896,30.416,24,36.608
	V504h216V400c0-53.88-35.696-99.56-84.681-114.68C180.584,273.848,192,254.24,192,232c0-5.536-0.776-10.872-2.104-16H488
	c8.823,0,16-7.176,16-16v-16C504,175.176,496.823,168,488,168z M344,24h48v16h-48V24z M280,24h48v32h80V24h48v144h-48v-32h-80v32
	h-48V24z M392,168h-48v-16h48V168z M120,24h48v16h-48V24z M56,24h48v32h80V24h48v144h-48v-32h-80v32H56V24z M120,168v-16h48v16H120z
	 M24,200v-16h61.808c-5.2,4.576-9.647,9.977-13.152,16H24z M48,440h32v48H48V440z M124,384H96v-40h56v40h40v104H96v-48h28
	c15.439,0,28-12.56,28-28C152,396.56,139.44,384,124,384z M168,355.312L180.688,368H168V355.312z M232,400v88h-24V372.688
	L163.312,328H80v56H56v16h68c6.616,0,12,5.385,12,12c0,6.616-5.384,12-12,12H48c-13.232,0-24-10.768-24-24
	c0-57.344,46.655-104,104-104C185.344,296,232,342.656,232,400z M128,280c-26.473,0-48-21.527-48-48c0-26.472,21.527-48,48-48
	c26.472,0,48,21.528,48,48C176,258.472,154.472,280,128,280z M488,200H183.344c-3.496-6.023-7.952-11.424-13.152-16H488V200z"/>
<path d="M392,424h80v16h-80V424z"/>
</svg>
