<?xml version="1.0" encoding="utf-8"?>
<!-- Generator: Adobe Illustrator 16.0.0, SVG Export Plug-In . SVG Version: 6.00 Build 0)  -->
<!DOCTYPE svg PUBLIC "-//W3C//DTD SVG 1.1//EN" "http://www.w3.org/Graphics/SVG/1.1/DTD/svg11.dtd">
<svg version="1.1" id="Layer_1" xmlns="http://www.w3.org/2000/svg" xmlns:xlink="http://www.w3.org/1999/xlink" x="0px" y="0px"
	 width="512px" height="512px" viewBox="0 0 512 512" enable-background="new 0 0 512 512" xml:space="preserve">
<g id="Outline">
	<path d="M484.25,239.741c-3.8-12.698-17.173-19.912-29.871-16.114l-214.601,64.207c-1.189,0.357-2.279,0.985-3.185,1.835
		l-26.072,24.501c-3.22,3.024-3.378,8.088-0.353,11.308c1.186,1.262,2.748,2.104,4.453,2.403l35.242,6.155
		c1.224,0.214,2.48,0.14,3.671-0.216l174.127-52.1l0.754,16.475l-55.329,16.554l4.586,15.33l61.313-18.346
		c3.518-1.052,5.867-4.362,5.7-8.029L443.464,277l24.673-7.382c12.698-3.8,19.912-17.174,16.113-29.872V239.741z M250.76,317.951
		l-17.622-3.078l13.036-12.251l36.512-10.922l4.586,15.328L250.76,317.951z M302.6,302.44l-4.586-15.328l128.142-38.341
		l0.754,16.476L302.6,302.44z M468.3,250.417c-1.003,1.871-2.713,3.264-4.748,3.867l-20.841,6.235l-0.755-16.476l17.01-5.089
		c4.232-1.266,8.69,1.139,9.957,5.372C469.531,246.359,469.307,248.55,468.3,250.417z"/>
	<path d="M320,352H184V232c0-4.418-3.582-8-8-8H32c-4.419,0-8,3.582-8,8v256c0,4.419,3.581,8,8,8h288c4.418,0,8-3.581,8-8V360
		C328,355.582,324.418,352,320,352z M232,368h32v32h-32V368z M88,240h32v32H88V240z M40,240h32v40c0,4.419,3.581,8,8,8h48
		c4.418,0,8-3.581,8-8v-40h32v112H40V240z M88,368h32v32H88V368z M40,368h32v40c0,4.419,3.581,8,8,8h48c4.418,0,8-3.581,8-8v-40h32
		v112H40V368z M312,480H184V368h32v40c0,4.419,3.581,8,8,8h48c4.418,0,8-3.581,8-8v-40h32V480z"/>
	<path d="M280,448h16v16h-16V448z"/>
	<path d="M136,448h16v16h-16V448z"/>
	<path d="M136,320h16v16h-16V320z"/>
	<path d="M152,80c0.01-8.832,7.168-15.989,16-16h48v16h-40c-4.419,0-8,3.582-8,8v120h16V96h192v128h16V88c0-4.418-3.582-8-8-8h-40
		V64h48c8.832,0.011,15.989,7.168,16,16v136h16V80c-0.021-17.665-14.336-31.979-32-32h-77.754l5.515-22.06
		c1.071-4.286-1.535-8.63-5.821-9.701C313.305,16.08,312.654,16,312,16h-64c-4.419,0-8,3.582-8,8c0,0.654,0.08,1.306,0.238,1.94
		L245.754,48H168c-17.665,0.021-31.98,14.335-32,32v128h16V80z M232,64h24c4.418,0,8-3.582,8-8
		c-0.001-0.654-0.081-1.306-0.239-1.939L258.246,32h43.508l-5.516,22.061c-1.071,4.286,1.535,8.63,5.821,9.701
		C302.695,63.92,303.346,64,304,64h24v16h-96V64z"/>
	<path d="M408,408c-0.011,8.833-7.168,15.99-16,16h-48v16h48c17.664-0.02,31.979-14.335,32-32v-72h-16V408z"/>
	<path d="M392,400v-56h-16v48h-32v16h40C388.418,408,392,404.419,392,400z"/>
	<path d="M248,120c0-4.418-3.582-8-8-8h-32c-4.419,0-8,3.582-8,8v32c0,4.419,3.581,8,8,8h32c4.418,0,8-3.581,8-8V120z M232,144h-16
		v-16h16V144z"/>
	<path d="M240,184h-32c-4.419,0-8,3.582-8,8v32c0,4.419,3.581,8,8,8h32c4.418,0,8-3.581,8-8v-32C248,187.582,244.418,184,240,184z
		 M232,216h-16v-16h16V216z"/>
	<path d="M264,112h16v16h-16V112z"/>
	<path d="M264,144h96v16h-96V144z"/>
	<path d="M296,112h64v16h-64V112z"/>
	<path d="M264,184h16v16h-16V184z"/>
	<path d="M264,216h96v16h-96V216z"/>
	<path d="M296,184h64v16h-64V184z"/>
</g>
</svg>
