<?xml version="1.0" encoding="utf-8"?>
<!-- Generator: Adobe Illustrator 16.0.0, SVG Export Plug-In . SVG Version: 6.00 Build 0)  -->
<!DOCTYPE svg PUBLIC "-//W3C//DTD SVG 1.1//EN" "http://www.w3.org/Graphics/SVG/1.1/DTD/svg11.dtd">
<svg version="1.1" id="Capa_1" xmlns="http://www.w3.org/2000/svg" xmlns:xlink="http://www.w3.org/1999/xlink" x="0px" y="0px"
	 width="512px" height="512px" viewBox="0 0 512 512" enable-background="new 0 0 512 512" xml:space="preserve">
<g>
	<g>
		<path d="M489.013,431.538h-3.22V163.457c0-10.19-8.315-18.482-18.537-18.482h-48.555v-1.266c0-10.906-8.886-19.78-19.809-19.78
			h-8.515c-2.697-8.975-6.308-17.67-10.778-25.965l6.013-5.999c3.739-3.73,5.8-8.703,5.8-14.001c0-5.297-2.061-10.27-5.801-14.002
			l-29.125-29.06c-7.725-7.707-20.294-7.707-28.017,0l-6.029,6.016c-8.312-4.465-17.023-8.068-26.017-10.764v-8.479
			c0-10.907-8.899-19.781-19.838-19.781h-41.174c-10.938,0-19.837,8.874-19.837,19.781v8.479
			c-8.992,2.694-17.705,6.299-26.018,10.764l-6.027-6.015c-7.727-7.708-20.295-7.709-28.02-0.001l-29.125,29.061
			c-3.74,3.731-5.799,8.704-5.799,14.001c0,5.298,2.06,10.271,5.8,14.002l6.012,5.998c-4.472,8.294-8.082,16.989-10.777,25.965
			h-8.516c-10.922,0-19.809,8.874-19.809,19.78v1.266H44.744c-10.223,0-18.538,8.292-18.538,18.482v268.081h-3.221
			C10.312,431.538,0,441.848,0,454.52v3.719c0,28.602,23.312,51.869,51.967,51.869h408.064c28.655,0,51.969-23.269,51.969-51.869
			v-3.719C512,441.848,501.688,431.538,489.013,431.538L489.013,431.538z M108.298,143.709c0-2.637,2.157-4.78,4.809-4.78h14.216
			c3.43,0,6.423-2.326,7.269-5.649c2.921-11.472,7.496-22.493,13.597-32.758c1.754-2.951,1.28-6.717-1.149-9.143l-10.055-10.03
			c-0.899-0.898-1.395-2.101-1.395-3.385c0-1.283,0.495-2.484,1.395-3.383l29.125-29.061c1.885-1.877,4.947-1.877,6.829,0.001
			l10.056,10.032c2.422,2.416,6.172,2.886,9.116,1.146c10.285-6.086,21.326-10.652,32.816-13.572
			c3.325-0.845,5.653-3.838,5.653-7.269V21.675c0-2.592,2.215-4.781,4.837-4.781h41.174c2.622,0,4.838,2.189,4.838,4.781v14.185
			c0,3.431,2.328,6.424,5.652,7.269c11.49,2.921,22.531,7.486,32.814,13.571c2.941,1.742,6.694,1.272,9.116-1.145l10.057-10.033
			c1.884-1.879,4.945-1.878,6.828,0.001l29.124,29.059c0.899,0.897,1.396,2.101,1.396,3.384c0,1.284-0.495,2.486-1.395,3.384
			L364.965,91.38c-2.431,2.426-2.904,6.19-1.15,9.143c6.103,10.266,10.677,21.287,13.599,32.758
			c0.846,3.323,3.838,5.649,7.268,5.649h14.216c2.651,0,4.809,2.145,4.809,4.78v41.082c0,2.607-2.201,4.812-4.809,4.812h-14.216
			c-3.428,0-6.419,2.324-7.267,5.646c-2.925,11.458-7.5,22.473-13.6,32.734c-1.754,2.951-1.279,6.716,1.15,9.141l10.055,10.031
			c0.899,0.897,1.396,2.1,1.396,3.384s-0.495,2.485-1.396,3.382l-29.124,29.062c-1.883,1.879-4.946,1.879-6.828,0l-10.056-10.033
			c-2.423-2.416-6.175-2.887-9.117-1.145c-10.285,6.086-21.326,10.651-32.814,13.571c-3.324,0.846-5.652,3.838-5.652,7.27v14.184
			c0,2.638-2.17,4.781-4.838,4.781h-41.174c-2.667,0-4.837-2.145-4.837-4.781v-14.184c0-3.432-2.328-6.424-5.653-7.27
			c-11.488-2.92-22.529-7.485-32.816-13.572c-1.188-0.702-2.507-1.046-3.816-1.046c-1.938,0-3.855,0.749-5.3,2.191l-10.055,10.032
			c-1.883,1.879-4.945,1.879-6.829,0l-29.125-29.062c-0.898-0.896-1.394-2.098-1.394-3.382s0.495-2.484,1.395-3.383l10.056-10.032
			c2.43-2.425,2.903-6.189,1.149-9.141c-6.098-10.262-10.673-21.275-13.598-32.734c-0.848-3.32-3.839-5.646-7.267-5.646h-11.384
			c-1.103-2.77-3.803-4.729-6.965-4.729h-0.668c0-0.027-0.008-0.054-0.008-0.082v-41.082H108.298z M255.985,363.105
			c7.05,0,12.783,5.715,12.783,12.738c0,7.009-5.733,12.71-12.783,12.71c-7.032,0-12.754-5.701-12.754-12.71
			C243.231,368.82,248.953,363.105,255.985,363.105z M41.207,163.457c0-1.888,1.62-3.482,3.538-3.482h48.554v24.816
			c0,0.028,0.004,0.055,0.004,0.082h-14.81c-6.765,0-12.269,5.498-12.269,12.257v234.408H41.207V163.457z M497,458.238
			c0,20.33-16.584,36.869-36.969,36.869H51.967C31.583,495.107,15,478.568,15,458.238v-3.719c0-4.401,3.583-7.981,7.986-7.981
			h98.123c4.143,0,7.5-3.356,7.5-7.5c0-4.143-3.357-7.5-7.5-7.5H81.224V199.873h19.07c3.458,2.942,7.927,4.729,12.812,4.729h8.519
			c2.697,8.963,6.307,17.647,10.774,25.936l-6.012,5.999c-3.74,3.731-5.8,8.705-5.799,14.002c0,5.297,2.06,10.27,5.8,14
			l29.125,29.062c7.724,7.707,20.292,7.706,28.019-0.001l6.027-6.017c8.313,4.466,17.025,8.07,26.018,10.766v8.479
			c0,10.907,8.898,19.781,19.837,19.781h13.071v22.536c-9.28,2.608-16.604,9.925-19.215,19.201h-55.21
			c-3.282-11.661-14.012-20.238-26.715-20.238c-15.304,0-27.754,12.443-27.754,27.738c0,15.279,12.451,27.71,27.754,27.71
			c12.7,0,23.428-8.564,26.713-20.21h55.214c3.285,11.646,14.014,20.21,26.713,20.21c12.714,0,23.452-8.564,26.741-20.21h55.216
			c3.285,11.646,14.013,20.21,26.712,20.21c15.305,0,27.756-12.431,27.756-27.71c0-15.295-12.451-27.738-27.756-27.738
			c-12.702,0-23.432,8.577-26.715,20.238h-55.212c-2.614-9.278-9.948-16.598-19.243-19.203v-22.533h13.103
			c10.938,0,19.838-8.874,19.838-19.781v-8.479c8.991-2.694,17.704-6.3,26.016-10.766l6.03,6.018c7.723,7.705,20.291,7.706,28.018,0
			l29.124-29.062c3.74-3.73,5.801-8.703,5.801-14c0.001-5.297-2.06-10.27-5.801-14.003l-6.012-5.998
			c4.469-8.288,8.077-16.974,10.774-25.936h8.519c4.885,0,9.354-1.786,12.812-4.729h19.07v97.872c0,4.144,3.357,7.5,7.5,7.5
			c4.144,0,7.5-3.356,7.5-7.5V197.13c0-6.759-5.503-12.257-12.268-12.257h-14.811c0-0.027,0.004-0.054,0.004-0.082v-24.816h48.555
			c1.917,0,3.537,1.596,3.537,3.482v268.081h-25.019v-94.814c0-4.144-3.356-7.5-7.5-7.5c-4.143,0-7.5,3.356-7.5,7.5v94.814H156.418
			c-4.143,0-7.5,3.357-7.5,7.5c0,4.144,3.357,7.5,7.5,7.5h37.775v6.311c0,12.72,10.364,23.066,23.104,23.066h77.406
			c12.738,0,23.103-10.348,23.103-23.066v-6.311h171.207c4.404,0,7.987,3.58,7.987,7.981V458.238z M160.1,375.844
			c0,7.009-5.722,12.71-12.754,12.71c-7.033,0-12.754-5.701-12.754-12.71c0-7.023,5.722-12.738,12.754-12.738
			C154.378,363.105,160.1,368.82,160.1,375.844z M351.9,375.844c0-7.023,5.723-12.738,12.754-12.738
			c7.033,0,12.756,5.715,12.756,12.738c0,7.009-5.723,12.71-12.756,12.71C357.622,388.554,351.9,382.853,351.9,375.844z
			 M209.194,446.538h93.611v6.311c0,4.448-3.635,8.066-8.103,8.066h-77.406c-4.468,0-8.104-3.618-8.104-8.066L209.194,446.538
			L209.194,446.538z"/>
		<path d="M232.211,268.983c0.265,0.074,0.536,0.132,0.811,0.177c7.402,1.612,15.083,2.47,22.963,2.47
			c7.862,0,15.528-0.854,22.915-2.458c0.347-0.052,0.688-0.123,1.017-0.221c47.859-10.885,83.686-53.688,83.686-104.686
			c0-59.218-48.276-107.395-107.617-107.395c-59.323,0-107.587,48.177-107.587,107.395
			C148.398,215.315,184.289,258.154,232.211,268.983L232.211,268.983z M241.729,255.535v-41.366c0-3.136-1.951-5.939-4.89-7.03
			c-19.594-7.273-32.758-26.078-32.758-46.794c0-16.421,8.204-31.811,21.953-41.173c0.492-0.337,0.938-0.624,1.342-0.868
			c-0.031,0.808-0.085,1.543-0.116,1.949c-0.054,0.733-0.097,1.313-0.097,1.893v34.451c0,15.902,12.437,29.208,28.313,30.286
			c0.339,0.023,0.679,0.023,1.019,0c15.894-1.079,28.344-14.385,28.344-30.286v-34.451c0-0.58-0.043-1.158-0.098-1.893
			c-0.03-0.406-0.085-1.143-0.115-1.948c0.403,0.245,0.853,0.533,1.349,0.873c13.725,9.346,21.917,24.734,21.917,41.167
			c0,20.722-13.153,39.526-32.729,46.794c-2.939,1.091-4.891,3.896-4.891,7.03v41.362c-4.658,0.722-9.429,1.099-14.286,1.099
			C251.138,256.63,246.377,256.254,241.729,255.535z M255.985,71.871c51.069,0,92.617,41.447,92.617,92.395
			c0,40.728-26.571,75.38-63.331,87.63v-32.74c22.702-10.609,37.619-33.616,37.619-58.811c0-21.399-10.645-41.425-28.467-53.562
			c-2.747-1.876-11.111-7.587-18.453-3.352c-7.211,4.154-6.495,13.809-6.189,17.931c0.026,0.344,0.052,0.632,0.058,0.782v34.451
			c0,7.873-6.044,14.487-13.854,15.278c-7.792-0.79-13.822-7.403-13.822-15.278v-34.39c0.006-0.213,0.03-0.501,0.057-0.845
			c0.306-4.122,1.021-13.775-6.188-17.931c-7.343-4.236-15.706,1.476-18.446,3.347c-17.848,12.154-28.502,32.179-28.502,53.564
			c0,25.19,14.928,48.197,37.647,58.812V251.9c-36.759-12.245-63.331-46.901-63.331-87.636
			C163.398,113.318,204.933,71.871,255.985,71.871z"/>
		<path d="M106.027,463.309h-0.058c-4.142,0-7.471,3.356-7.471,7.5c0,4.143,3.387,7.5,7.528,7.5c4.143,0,7.5-3.357,7.5-7.5
			C113.527,466.666,110.169,463.309,106.027,463.309z"/>
		<path d="M146.016,463.309h-0.058c-4.143,0-7.472,3.356-7.472,7.5c0,4.143,3.388,7.5,7.529,7.5c4.143,0,7.5-3.357,7.5-7.5
			C153.516,466.666,150.158,463.309,146.016,463.309L146.016,463.309z"/>
		<path d="M66.01,463.309h-0.029c-4.142,0-7.485,3.356-7.485,7.5c0,4.143,3.373,7.5,7.515,7.5s7.5-3.357,7.5-7.5
			C73.51,466.666,70.152,463.309,66.01,463.309z"/>
		<path d="M446.857,463.309h-81.712c-4.143,0-7.5,3.356-7.5,7.5c0,4.143,3.357,7.5,7.5,7.5h81.712c4.144,0,7.5-3.357,7.5-7.5
			C454.357,466.666,451,463.309,446.857,463.309z"/>
	</g>
</g>
</svg>
