<?xml version="1.0" encoding="utf-8"?>
<!-- Generator: Adobe Illustrator 16.0.0, SVG Export Plug-In . SVG Version: 6.00 Build 0)  -->
<!DOCTYPE svg PUBLIC "-//W3C//DTD SVG 1.1//EN" "http://www.w3.org/Graphics/SVG/1.1/DTD/svg11.dtd">
<svg version="1.1" id="Layer_1" xmlns="http://www.w3.org/2000/svg" xmlns:xlink="http://www.w3.org/1999/xlink" x="0px" y="0px"
	 width="447px" height="447px" viewBox="0 0 447 447" enable-background="new 0 0 447 447" xml:space="preserve">
<path d="M105.852,96.358h98.731c3.312,0,5.999-2.684,5.999-5.999c0-3.313-2.688-6-5.999-6h-98.731c-3.313,0-5.999,2.688-5.999,6
	C99.853,93.675,102.539,96.358,105.852,96.358z"/>
<path d="M218.55,130.22h-61.784c-3.312,0-5.999,2.687-5.999,5.999c0,3.312,2.688,5.999,5.999,5.999h61.784
	c3.315,0,5.999-2.688,5.999-5.999C224.549,132.907,221.865,130.22,218.55,130.22z"/>
<path d="M105.852,142.219h26.871c3.315,0,5.999-2.688,5.999-5.999c0-3.313-2.684-5.999-5.999-5.999h-26.871
	c-3.313,0-5.999,2.687-5.999,5.999C99.853,139.531,102.539,142.219,105.852,142.219z"/>
<path d="M267.792,90.359c0-3.313-2.683-6-5.999-6h-33.421c-3.315,0-5.999,2.688-5.999,6c0,3.315,2.684,5.999,5.999,5.999h33.421
	C265.11,96.358,267.792,93.675,267.792,90.359z"/>
<path d="M431.002,135.395H317.02v-23.353h63.99c3.313,0,5.999-2.683,5.999-5.999v-64.99c-0.027-22.63-18.364-40.967-40.994-40.994
	c-0.671,0-1.335,0.02-1.999,0.055V0.059H104.399C79.207,0.141,58.738,20.408,58.406,45.595l-2.027,229.85H5.999
	c-3.313,0-5.999,2.683-5.999,5.999v37.17c0,34.058,26.469,61.917,59.526,63.327v0.063h191.854v-0.098
	c1.156,0.063,2.315,0.105,3.487,0.105c34.269,0,62.151-28.441,62.151-63.394v-37.912h113.982
	c8.831-0.012,15.986-7.167,15.998-15.998V151.392C446.989,142.562,439.833,135.403,431.002,135.395z M346.015,12.057
	c16.006,0.02,28.977,12.99,28.996,28.996v58.991H317.02V41.053C317.039,25.048,330.01,12.077,346.015,12.057z M62.151,370.006
	c-27.651,0-50.152-23.056-50.152-51.392v-31.171h180.685v31.171c-0.047,20.267,9.545,39.346,25.84,51.392H62.151z M305.022,318.614
	c0,28.34-22.497,51.392-50.188,51.392c-27.652,0-50.152-23.056-50.152-51.392v-37.17c0-3.316-2.688-5.999-5.999-5.999H68.38
	l2.027-229.736c0.246-18.614,15.377-33.593,33.995-33.651h212.668c-7.714,7.679-12.049,18.115-12.045,28.996v94.342h-53.992
	c-8.831,0.008-15.986,7.167-15.998,15.997v113.315c0.012,8.831,7.167,15.99,15.998,15.998h53.992L305.022,318.614z M435.002,264.712
	c0,2.211-1.793,4-4,4H251.03c-2.211,0-4-1.789-4-4v-67.072h187.973V264.712z M435.002,185.649H247.03v-8.515h187.973V185.649z
	 M435.002,165.14H247.03v-13.748c0-2.21,1.789-3.999,4-3.999h179.973c2.207,0,4,1.789,4,3.999V165.14z"/>
<path d="M382.033,260.197c3.448,0,6.854-0.73,9.998-2.145c10.261,4.601,22.337,1.613,29.266-7.241
	c6.933-8.854,6.933-21.293,0-30.147c-6.929-8.854-19.005-11.842-29.266-7.241c-9.104-4.081-19.774-2.223-26.96,4.698
	c-7.187,6.917-9.452,17.51-5.723,26.762C363.083,254.135,372.058,260.197,382.033,260.197z M403.113,223.335
	c6.437,0.555,11.377,5.945,11.377,12.405s-4.94,11.846-11.377,12.404C407.619,240.489,407.619,230.99,403.113,223.335z
	 M382.033,223.276c6.882,0,12.463,5.578,12.467,12.46c0,6.882-5.577,12.463-12.459,12.463s-12.463-5.577-12.463-12.459
	c-0.016-3.309,1.293-6.487,3.632-8.827C375.55,224.573,378.725,223.264,382.033,223.276z"/>
<path d="M207.035,195.855l-11.463-8.347v-12.955c0-3.313-2.687-5.999-5.999-5.999c-3.312,0-5.999,2.687-5.999,5.999v4.222
	l-26.535-19.317c-2.102-1.531-4.956-1.531-7.058,0L99.99,195.851c-2.105,1.53-2.984,4.237-2.18,6.71
	c0.805,2.472,3.108,4.144,5.706,4.144h8.647v53.047c0,3.312,2.683,5.999,5.999,5.999h70.696c3.316,0,5.999-2.688,5.999-5.999
	v-53.047h8.644c2.602,0,4.901-1.672,5.706-4.144C210.012,200.093,209.133,197.382,207.035,195.855z M182.86,200.706v53.047h-58.698
	v-53.047c0-2.219-1.223-4.257-3.18-5.3l32.527-23.677l32.53,23.681C184.082,196.453,182.86,198.487,182.86,200.706z"/>
</svg>
