<?xml version="1.0" encoding="utf-8"?>
<!-- Generator: Adobe Illustrator 16.0.0, SVG Export Plug-In . SVG Version: 6.00 Build 0)  -->
<!DOCTYPE svg PUBLIC "-//W3C//DTD SVG 1.1//EN" "http://www.w3.org/Graphics/SVG/1.1/DTD/svg11.dtd">
<svg version="1.1" id="Outline" xmlns="http://www.w3.org/2000/svg" xmlns:xlink="http://www.w3.org/1999/xlink" x="0px" y="0px"
	 width="512px" height="512px" viewBox="0 0 512 512" enable-background="new 0 0 512 512" xml:space="preserve">
<path d="M56,392h126.242l-14.088,70.432c-0.866,4.332,1.943,8.547,6.276,9.413c0.517,0.104,1.042,0.156,1.569,0.155h160
	c4.418,0.001,8-3.581,8-7.999c0-0.527-0.052-1.053-0.155-1.569L329.758,392H456c22.081-0.024,39.975-17.918,40-40V80
	c-0.025-22.081-17.919-39.975-40-40H56c-22.081,0.025-39.976,17.919-40,40v272C16.025,374.082,33.919,391.975,56,392z M185.758,456
	l12.8-64h114.883l12.801,64H185.758z M32,80c0.016-13.248,10.751-23.984,24-24h400c13.248,0.016,23.984,10.752,24,24v232H32V80z
	 M32,328h448v24c-0.016,13.249-10.752,23.985-24,24H56c-13.249-0.015-23.984-10.751-24-24V328z"/>
<circle cx="72" cy="80" r="8"/>
<circle cx="104" cy="80" r="8"/>
<circle cx="136" cy="80" r="8"/>
<path d="M248,360h16c4.418,0,8-3.581,8-8c0-4.418-3.582-8-8-8h-16c-4.419,0-8,3.582-8,8C240,356.419,243.581,360,248,360z"/>
<path d="M288,216h96c4.418,0,8-3.581,8-8c0-4.418-3.582-8-8-8h-96c-4.419,0-8,3.582-8,8C280,212.419,283.581,216,288,216z"/>
<path d="M424,200h-8c-4.419,0-8,3.582-8,8c0,4.419,3.581,8,8,8h8c4.418,0,8-3.581,8-8C432,203.582,428.418,200,424,200z"/>
<path d="M424,232H288c-4.419,0-8,3.582-8,8c0,4.419,3.581,8,8,8h136c4.418,0,8-3.581,8-8C432,235.582,428.418,232,424,232z"/>
<path d="M424,264H288c-4.419,0-8,3.582-8,8c0,4.419,3.581,8,8,8h136c4.418,0,8-3.581,8-8C432,267.582,428.418,264,424,264z"/>
<path d="M288,176h32c4.418,0,8-3.581,8-8v-32c0-4.418-3.582-8-8-8h-32c-4.419,0-8,3.582-8,8v32C280,172.419,283.581,176,288,176z
	 M296,144h16v16h-16V144z"/>
<path d="M424,128h-72c-4.419,0-8,3.582-8,8v32c0,4.419,3.581,8,8,8h72c4.418,0,8-3.581,8-8v-32C432,131.582,428.418,128,424,128z
	 M416,160h-56v-16h56V160z"/>
<path d="M215.919,158.869c-0.563-3.941-3.938-6.868-7.919-6.869h-16c0-17.673-14.327-32-32-32c-17.674,0-32,14.327-32,32h-16
	c-3.981,0.001-7.356,2.928-7.919,6.869l-16,112c-0.625,4.374,2.414,8.426,6.788,9.051C95.244,279.973,95.621,280,96,280h128
	c4.418,0,7.999-3.582,7.999-8c0-0.379-0.026-0.756-0.08-1.131L215.919,158.869z M160,136c8.832,0.011,15.989,7.168,16,16h-32
	C144.01,143.168,151.168,136.01,160,136z M105.224,264l13.714-96H128v8c0,4.419,3.581,8,8,8c4.418,0,8-3.581,8-8v-8h32v8
	c0,4.419,3.581,8,8,8c4.418,0,8-3.581,8-8v-8h9.062l13.714,96H105.224z"/>
<circle cx="184" cy="208" r="8"/>
<circle cx="136" cy="208" r="8"/>
</svg>
