<?xml version="1.0" encoding="utf-8"?>
<!-- Generator: Adobe Illustrator 16.0.0, SVG Export Plug-In . SVG Version: 6.00 Build 0)  -->
<!DOCTYPE svg PUBLIC "-//W3C//DTD SVG 1.1//EN" "http://www.w3.org/Graphics/SVG/1.1/DTD/svg11.dtd">
<svg version="1.1" id="_x33_0" xmlns="http://www.w3.org/2000/svg" xmlns:xlink="http://www.w3.org/1999/xlink" x="0px" y="0px"
	 width="512px" height="512px" viewBox="0 0 512 512" enable-background="new 0 0 512 512" xml:space="preserve">
<g>
	<path d="M451.056,184l9.688,19.376C464.64,211.168,472.464,216,481.168,216C493.76,216,504,205.76,504,193.168V32
		c0-13.231-10.769-24-24-24H288c-10.416,0-19.216,6.712-22.528,16H56c-8.824,0-16,7.177-16,16v352.809
		C21.768,396.528,8,412.688,8,432v32c0,22.057,17.943,40,40,40h136c8.824,0,16-7.176,16-16h217.176l73.447-22.039
		C498.504,463.608,504,456.224,504,448c0-8.224-5.505-15.607-13.36-17.96L417.176,408H408V184H451.056z M280,32c0-4.416,3.592-8,8-8
		h192c4.407,0,8,3.584,8,8v161.168c0,3.761-3.064,6.832-6.832,6.832c-2.608,0-4.952-1.447-6.112-3.784L460.944,168H288
		c-4.408,0-8-3.584-8-8V32z M264,88h-16V72h16V88z M264,56h-32v48h32v16h-48V40h48V56z M200,40v80H56V40H200z M184,392h-80v-8
		c0-4.415,3.592-8,8-8h110.111c3.049,0,5.792,1.696,7.152,4.425L243.056,408H200C200,399.177,192.824,392,184,392z M112,360
		c-13.232,0-24,10.769-24,24v8H56V136h144v224H112z M24,464v-32c0-13.231,10.768-24,24-24h8v80h-8C34.768,488,24,477.232,24,464z
		 M72,488v-80h112l0.008,80H72z M200,424h208v48H200V424z M424,426.753l32,9.6v23.288l-32,9.6V426.753z M488,448
		c0,1.225-0.784,2.28-1.969,2.633L472,454.848V441.16l14.048,4.217C487.216,445.72,488,446.776,488,448z M392,408H268.944
		l5.792-11.575c1.36-2.729,4.104-4.425,7.152-4.425H312v-16h-30.112c-9.152,0-17.368,5.089-21.464,13.265L256,398.112l-12.424-24.84
		C239.488,365.089,231.264,360,222.112,360H216V136h48v24c0,13.232,10.768,24,24,24h104V408z"/>
	<path d="M376,134.528V152h16v-16h16v-24c0-13.231-10.769-24-24-24c-4.408,0-8-3.584-8-8v-8h8c4.408,0,8,3.584,8,8v8h16v-8
		c0-10.416-6.713-19.216-16-22.527V40h-16v16h-16v24c0,13.232,10.768,24,24,24c4.408,0,8,3.584,8,8v8h-8c-4.408,0-8-3.584-8-8v-8
		h-16v8C360,122.416,366.712,131.216,376,134.528z"/>
	<path d="M184,56H72v48h112V56z M168,88H88V72h80V88z"/>
	<path d="M72,152h32v16H72V152z"/>
	<path d="M120,152h64v16h-64V152z"/>
	<path d="M72,216h32v16H72V216z"/>
	<path d="M120,216h64v16h-64V216z"/>
	<path d="M72,184h112v16H72V184z"/>
	<path d="M72,328h112v-80H72V328z M88,264h80v48H88V264z"/>
	<path d="M232,344h16v-32h112v80h16v-96H232V344z"/>
	<path d="M232,248h144v16H232V248z"/>
	<path d="M232,216h32v16h-32V216z"/>
	<path d="M280,216h96v16h-96V216z"/>
</g>
</svg>
