<?xml version="1.0" encoding="utf-8"?>
<!-- Generator: Adobe Illustrator 16.0.0, SVG Export Plug-In . SVG Version: 6.00 Build 0)  -->
<!DOCTYPE svg PUBLIC "-//W3C//DTD SVG 1.1//EN" "http://www.w3.org/Graphics/SVG/1.1/DTD/svg11.dtd">
<svg version="1.1" id="Layer_1" xmlns="http://www.w3.org/2000/svg" xmlns:xlink="http://www.w3.org/1999/xlink" x="0px" y="0px"
	 width="480px" height="480px" viewBox="0 0 480 480" enable-background="new 0 0 480 480" xml:space="preserve">
<path d="M162.342,477.657c3.124,3.121,8.187,3.121,11.312,0l40-39.999l-11.313-11.313l-34.344,34.343L19.312,312.004l90.343-90.343
	l-11.313-11.313L2.344,306.346c-3.121,3.126-3.121,8.188,0,11.313L162.342,477.657z"/>
<path d="M479.947,167.126l-16-143.998c-0.414-3.723-3.352-6.664-7.074-7.074L312.874,0.054c-2.409-0.254-4.812,0.59-6.534,2.296
	l-56,56l11.313,11.313l53.28-53.281l133.861,14.863l14.863,133.822l-31.39,31.395L417.065,94.213
	c10.914-4.336,17.117-15.898,14.691-27.386c-2.422-11.488-12.77-19.559-24.504-19.117c-11.73,0.445-21.438,9.273-22.987,20.914
	c-1.551,11.636,5.507,22.698,16.714,26.198l12.375,83.198L301.653,66.35c-3.125-3.125-8.188-3.125-11.313,0l-40,39.999
	l11.313,11.313l34.344-34.344l100.686,100.687l-18.343,18.344l11.312,11.313l24-24c0.453-0.516,0.836-1.09,1.137-1.703l3.359,22.582
	l-15.809,15.808l11.313,11.313l7.422-7.426l5.082,34.098c1.207,9.844,7.711,18.234,16.94,21.859
	c9.234,3.625,19.707,1.902,27.293-4.488c7.582-6.391,11.059-16.418,9.055-26.133l-14.723-68.983l12.93-12.926
	C479.368,171.942,480.212,169.54,479.947,167.126z M407.994,64.007c4.418,0,8,3.582,8,8c0,4.417-3.582,7.999-8,7.999
	s-8-3.582-8-7.999C399.994,67.589,403.576,64.007,407.994,64.007z M463.779,258.82c0.766,3.965-0.695,8.035-3.816,10.605
	c-3.117,2.57-7.395,3.227-11.141,1.711s-6.363-4.957-6.82-8.973l-6.808-46.007l16.089-16.09L463.779,258.82z"/>
<path d="M58.351,311.148l51.995-51.996l11.313,11.313L69.663,322.46L58.351,311.148z"/>
<path d="M83.136,335.944l51.995-51.995l11.316,11.312l-52,51.996L83.136,335.944z"/>
<path d="M107.94,360.741l30.398-30.398l11.316,11.313l-30.402,30.398L107.94,360.741z"/>
<path d="M132.74,385.545l21.605-21.601l11.312,11.313l-21.601,21.604L132.74,385.545z"/>
<path d="M157.541,410.345l15.999-15.996l11.313,11.313l-15.996,15.996L157.541,410.345z"/>
<path d="M287.996,440.002c27.253-0.012,53.784-8.777,75.679-25.008l57.694,57.694c9.754,9.75,25.562,9.75,35.312,0
	s9.75-25.562,0-35.312l-59.03-59.03l-1.023,1.023c30.629-49.543,23.902-113.522-16.351-155.616
	c-40.258-42.097-103.874-51.667-154.732-23.28c-50.863,28.386-76.112,87.558-61.413,143.92
	C178.825,400.752,229.751,440.06,287.996,440.002z M445.368,448.689c3.504,3.504,3.504,9.184,0,12.687
	c-3.503,3.504-9.183,3.504-12.687,0l-56.687-56.679c4.355-4.121,8.414-8.539,12.151-13.223L445.368,448.689z M287.996,200.005
	c61.854,0,111.998,50.144,111.998,111.999c0,61.854-50.144,111.998-111.998,111.998s-111.999-50.144-111.999-111.998
	C176.064,250.176,226.169,200.071,287.996,200.005z"/>
<path d="M287.996,408.002c53.019,0,95.999-42.979,95.999-95.998c0-53.02-42.98-95.999-95.999-95.999s-95.999,42.979-95.999,95.999
	C192.056,364.999,235.001,407.943,287.996,408.002z M287.996,232.004c44.183,0,79.999,35.816,79.999,80
	c0,44.183-35.816,79.998-79.999,79.998c-44.184,0-79.999-35.815-79.999-79.998C208.044,267.84,243.832,232.051,287.996,232.004z"/>
<path d="M295.996,344.003h-16c-4.418,0-8-3.582-8-8h-16c0,13.254,10.746,24,24,24v16h16v-16c13.254,0,23.999-10.746,23.999-24v-8
	c0-13.254-10.745-24-23.999-24h-16c-4.418,0-8-3.582-8-8v-7.999c0-4.418,3.582-8,8-8h16c4.418,0,8,3.582,8,8h15.999
	c0-13.254-10.745-24-23.999-24v-16h-16v16c-13.254,0-24,10.746-24,24v7.999c0,13.255,10.746,24,24,24h16c4.418,0,8,3.582,8,8v8
	C303.996,340.421,300.414,344.003,295.996,344.003z"/>
<path d="M39.999,192.005h53.44l53.91,38.503c1.355,0.973,2.98,1.496,4.648,1.496c1.539-0.004,3.047-0.449,4.344-1.281
	c2.77-1.789,4.156-5.09,3.496-8.32l-6.078-30.397h46.237c22.082-0.027,39.972-17.922,39.999-40V40.007
	c-0.027-22.082-17.917-39.972-39.999-39.999H39.999C17.918,0.035,0.028,17.925,0,40.007v111.998
	C0.028,174.083,17.918,191.977,39.999,192.005z M16,40.007c0-13.254,10.745-24,23.999-24h159.998c13.254,0,24,10.746,24,24v111.998
	c0,13.254-10.746,24-24,24h-55.999c-2.402,0-4.68,1.078-6.199,2.938c-1.52,1.863-2.121,4.309-1.641,6.66l4,20.168l-39.535-28.238
	c-1.344-0.98-2.961-1.516-4.625-1.527H39.999c-13.254,0-23.999-10.746-23.999-24V40.007z"/>
<path d="M39.999,160.005h167.998v-15.999H47.999V122.67l16-21.328l17.602,23.465c1.605,2.012,4.039,3.188,6.613,3.199
	c2.598-0.07,4.999-1.398,6.44-3.563l26.055-39.086l33.137,39.777c1.527,1.816,3.777,2.867,6.152,2.871c0.25,0.016,0.5,0.016,0.754,0
	c2.625-0.25,4.956-1.773,6.237-4.082l40-71.999l-13.984-7.758l-34.335,61.792l-32.52-39.042c-1.598-1.977-4.047-3.063-6.586-2.91
	c-2.516,0.137-4.824,1.453-6.223,3.551l-25.726,38.608L70.398,83.205c-1.574-1.914-3.922-3.023-6.398-3.023
	s-4.824,1.109-6.398,3.023l-9.602,12.801V40.007h-16v111.998C31.999,156.423,35.581,160.005,39.999,160.005z"/>
</svg>
