<?xml version="1.0" encoding="utf-8"?>
<!-- Generator: Adobe Illustrator 16.0.0, SVG Export Plug-In . SVG Version: 6.00 Build 0)  -->
<!DOCTYPE svg PUBLIC "-//W3C//DTD SVG 1.1//EN" "http://www.w3.org/Graphics/SVG/1.1/DTD/svg11.dtd">
<svg version="1.1"
	 id="svg4050" xmlns:cc="http://creativecommons.org/ns#" xmlns:rdf="http://www.w3.org/1999/02/22-rdf-syntax-ns#" xmlns:sodipodi="http://sodipodi.sourceforge.net/DTD/sodipodi-0.dtd" xmlns:dc="http://purl.org/dc/elements/1.1/" xmlns:inkscape="http://www.inkscape.org/namespaces/inkscape" xmlns:svg="http://www.w3.org/2000/svg"
	 xmlns="http://www.w3.org/2000/svg" xmlns:xlink="http://www.w3.org/1999/xlink" x="0px" y="0px" width="32px" height="32px"
	 viewBox="0 0 32 32" enable-background="new 0 0 32 32" xml:space="preserve">
<g id="layer1" transform="translate(0,-1020.3622)">
	<path id="path4307" fill="none" stroke="#000000" stroke-linecap="round" stroke-linejoin="round" stroke-miterlimit="4.1" d="
		M16.339,1028.862H26c0.831,0,1.5,0.669,1.5,1.5v14c0,0.831-0.669,1.5-1.5,1.5h-9.5l-0.681-2.893"/>
	<path id="rect4302" fill="none" stroke="#000000" stroke-linecap="round" stroke-linejoin="round" stroke-miterlimit="4.1" d="
		M19.5,1042.862H6c-0.831,0-1.5-0.669-1.5-1.5v-14c0-0.831,0.669-1.5,1.5-1.5h9.5L19.5,1042.862z"/>
	<path id="path4309" fill="none" stroke="#000000" stroke-linecap="round" stroke-linejoin="round" d="M16.505,1045.857l2.99-2.989"
		/>
	<path id="path4331" fill="none" stroke="#000000" stroke-linecap="round" stroke-linejoin="round" stroke-miterlimit="4.1" d="
		M10,1031.362h2.5c0,1.132-0.76,2.123-1.854,2.416c-1.093,0.292-2.247-0.185-2.813-1.165s-0.403-2.218,0.397-3.019
		s2.038-0.963,3.018-0.397"/>
	<path id="path4333" fill="none" stroke="#000000" stroke-linecap="round" stroke-linejoin="round" d="M17.492,1032.862h7"/>
	<path id="path4335" fill="none" stroke="#000000" stroke-linecap="round" stroke-linejoin="round" d="M23.988,1039.856
		c-2.594-1.389-4.285-4.02-4.471-6.956"/>
	<path id="circle4337" fill="none" stroke="#000000" stroke-linecap="round" stroke-linejoin="round" d="M22.483,1032.895
		c-0.166,2.636-1.548,5.046-3.739,6.52"/>
	<path id="path4339" fill="none" stroke="#000000" stroke-linecap="round" stroke-linejoin="round" d="M21,1030.87v2"/>
</g>
</svg>
