<?xml version="1.0" encoding="utf-8"?>
<!-- Generator: Adobe Illustrator 16.0.0, SVG Export Plug-In . SVG Version: 6.00 Build 0)  -->
<!DOCTYPE svg PUBLIC "-//W3C//DTD SVG 1.1//EN" "http://www.w3.org/Graphics/SVG/1.1/DTD/svg11.dtd">
<svg version="1.1" id="Layer_1" xmlns="http://www.w3.org/2000/svg" xmlns:xlink="http://www.w3.org/1999/xlink" x="0px" y="0px"
	 width="480px" height="480px" viewBox="0 0 480 480" enable-background="new 0 0 480 480" xml:space="preserve">
<path d="M216,400v16h16v-16h16v16h16v-16c13.344,0.059,25.313-8.203,29.984-20.703c4.676-12.496,1.066-26.586-9.039-35.297
	c10.105-8.711,13.715-22.801,9.039-35.297c-4.672-12.5-16.641-20.762-29.984-20.703v-16h-16v16h-16v-16h-16v16h-24v16h8v80h-8v16
	H216z M280,368c0,8.836-7.164,16-16,16h-48v-32h48C272.836,352,280,359.164,280,368z M216,304h48c8.836,0,16,7.164,16,16
	s-7.164,16-16,16h-48V304z"/>
<path d="M476.895,185.824l0.074-0.09L384,112V72h-0.07c0.023-2.113-0.793-4.148-2.273-5.656l-64-64
	C316.145,0.871,314.11,0.054,312,0.07V0H104c-4.418,0-8,3.582-8,8v104L3.031,185.734l0.074,0.09C1.172,187.293,0.028,189.574,0,192
	v272c0,4.418,3.582,8,8,8h464c4.418,0,8-3.582,8-8V192C479.977,189.574,478.828,187.293,476.895,185.824z M384,200h63.32
	L384,245.879V200z M449.047,184H384v-51.602L449.047,184z M320,27.312L356.688,64H320V27.312z M304,16v56c0,4.418,3.582,8,8,8h56
	v177.473l-21.535,15.598c-23.695-35.645-63.66-57.066-106.465-57.066s-82.77,21.422-106.465,57.066L112,257.472V16H304z M240,232
	c61.855,0,112,50.145,112,112s-50.145,112-112,112s-112-50.145-112-112C128.067,282.172,178.172,232.066,240,232z M96,245.879
	L32.68,200H96V245.879z M96,184H30.953L96,132.398V184z M16,456V207.672l109.543,79.367C94.781,348.347,118.031,423.004,178.168,456
	H16z M301.832,456c60.137-32.996,83.387-107.652,52.625-168.961L464,207.672V456H301.832z"/>
<path d="M128,32h64v16h-64V32z"/>
<path d="M136,88h208v16H136V88z"/>
<path d="M136,120h208v16H136V120z"/>
<path d="M136,152h208v16H136V152z"/>
<path d="M136,184h208v16H136V184z"/>
</svg>
