<?xml version="1.0" encoding="utf-8"?>
<!-- Generator: Adobe Illustrator 16.0.0, SVG Export Plug-In . SVG Version: 6.00 Build 0)  -->
<!DOCTYPE svg PUBLIC "-//W3C//DTD SVG 1.1//EN" "http://www.w3.org/Graphics/SVG/1.1/DTD/svg11.dtd">
<svg version="1.1" id="Capa_1" xmlns="http://www.w3.org/2000/svg" xmlns:xlink="http://www.w3.org/1999/xlink" x="0px" y="0px"
	 width="512px" height="512px" viewBox="0 0 512 512" enable-background="new 0 0 512 512" xml:space="preserve">
<g>
	<path d="M487.302,272.532c-4.15,0-7.516,3.365-7.516,7.515v203.082c0,7.633-6.21,13.842-13.843,13.842h-176.97
		c-7.633,0-13.842-6.21-13.842-13.842v-19.974c0-4.149-3.365-7.515-7.515-7.515c-4.15,0-7.516,3.365-7.516,7.515v19.974
		c0,5.013,1.286,9.729,3.543,13.842H34.718c-1.381,0-2.505-1.124-2.505-2.505V313.168c0-4.15-3.365-7.516-7.516-7.516
		c-4.149,0-7.515,3.364-7.515,7.516v181.299c0,9.668,7.866,17.533,17.534,17.533h431.226c15.92,0,28.872-12.951,28.872-28.871
		V280.047C494.816,275.897,491.451,272.532,487.302,272.532L487.302,272.532z"/>
	<path d="M465.944,161.382h-72.643v-60.748c0.004-1.974-0.807-3.922-2.202-5.314L297.982,2.202
		c-1.393-1.395-3.341-2.206-5.314-2.202H34.718C25.05,0,17.184,7.866,17.184,17.534v265.574c0,4.149,3.365,7.515,7.516,7.515
		c4.149,0,7.515-3.365,7.515-7.515V17.534c0-1.381,1.124-2.505,2.505-2.505h250.434v65.565c0,15.192,12.361,27.554,27.555,27.554
		h65.564v53.232h-89.297c-15.92,0-28.872,12.952-28.872,28.872v1.177h-119.08c-4.149,0-7.515,3.363-7.515,7.515
		c0,4.15,3.365,7.515,7.515,7.515h119.08v51.044h-119.08c-4.149,0-7.515,3.365-7.515,7.516c0,4.149,3.365,7.515,7.515,7.515h119.08
		v51.044h-119.08c-4.149,0-7.515,3.365-7.515,7.516c0,4.149,3.365,7.515,7.515,7.515h119.08v51.045h-119.08
		c-4.149,0-7.515,3.364-7.515,7.516c0,4.15,3.365,7.515,7.515,7.515h119.08v28.416c0,4.15,3.364,7.515,7.516,7.515
		c4.15,0,7.515-3.364,7.515-7.515V190.253c0-7.633,6.21-13.842,13.842-13.842h176.97c7.633,0,13.843,6.21,13.843,13.842v59.735
		c0,4.15,3.365,7.515,7.516,7.515c4.149,0,7.515-3.363,7.515-7.515v-59.735C494.816,174.334,481.864,161.383,465.944,161.382
		L465.944,161.382z M300.182,80.594V25.657l67.462,67.462h-54.938C305.8,93.119,300.182,87.501,300.182,80.594L300.182,80.594z"/>
	<path d="M458.033,213.563c0-9.668-7.865-17.534-17.533-17.534H315.728c-9.668,0-17.534,7.866-17.534,17.534v42.43
		c0,9.668,7.866,17.534,17.534,17.534H440.5c9.668,0,17.533-7.866,17.533-17.534V213.563z M443.005,255.992
		c0,1.381-1.124,2.505-2.505,2.505H315.728c-1.381,0-2.505-1.124-2.505-2.505v-42.43c0-1.381,1.124-2.505,2.505-2.505H440.5
		c1.381,0,2.505,1.124,2.505,2.505V255.992z"/>
	<path d="M298.194,335.241c0,9.251,7.527,16.778,16.778,16.778h14.309c9.251,0,16.778-7.527,16.778-16.778v-14.309
		c0-9.252-7.527-16.778-16.778-16.778h-14.309c-9.251,0-16.778,7.527-16.778,16.778V335.241z M313.223,320.933
		c0-0.964,0.785-1.749,1.749-1.749h14.309c0.965,0,1.749,0.785,1.749,1.749v14.309c0,0.964-0.784,1.749-1.749,1.749h-14.309
		c-0.964,0-1.749-0.785-1.749-1.749V320.933z"/>
	<path d="M402.047,320.933c0-9.252-7.527-16.778-16.778-16.778H370.96c-9.251,0-16.778,7.527-16.778,16.778v14.309
		c0,9.251,7.527,16.778,16.778,16.778h14.309c9.251,0,16.778-7.527,16.778-16.778V320.933z M387.017,335.241
		c0,0.964-0.785,1.749-1.749,1.749H370.96c-0.964,0-1.749-0.785-1.749-1.749v-14.309c0-0.964,0.785-1.749,1.749-1.749h14.309
		c0.964,0,1.749,0.785,1.749,1.749L387.017,335.241L387.017,335.241z"/>
	<path d="M458.033,320.933c0-9.252-7.526-16.778-16.777-16.778h-14.31c-9.251,0-16.777,7.527-16.777,16.778v14.309
		c0,9.251,7.526,16.778,16.777,16.778h14.31c9.251,0,16.777-7.527,16.777-16.778V320.933z M443.005,335.241
		c0,0.964-0.785,1.749-1.749,1.749h-14.31c-0.964,0-1.749-0.785-1.749-1.749v-14.309c0-0.964,0.785-1.749,1.749-1.749h14.31
		c0.964,0,1.749,0.785,1.749,1.749V335.241z"/>
	<path d="M298.194,396.512c0,9.251,7.527,16.777,16.778,16.777h14.309c9.251,0,16.778-7.526,16.778-16.777v-14.31
		c0-9.251-7.527-16.777-16.778-16.777h-14.309c-9.251,0-16.778,7.525-16.778,16.777V396.512z M313.223,382.203
		c0-0.964,0.785-1.749,1.749-1.749h14.309c0.965,0,1.749,0.784,1.749,1.749v14.31c0,0.964-0.784,1.749-1.749,1.749h-14.309
		c-0.964,0-1.749-0.785-1.749-1.749V382.203z"/>
	<path d="M402.047,382.203c0-9.251-7.527-16.777-16.778-16.777H370.96c-9.251,0-16.778,7.525-16.778,16.777v14.31
		c0,9.251,7.527,16.777,16.778,16.777h14.309c9.251,0,16.778-7.526,16.778-16.777V382.203z M387.017,396.512
		c0,0.964-0.785,1.749-1.749,1.749H370.96c-0.964,0-1.749-0.785-1.749-1.749v-14.31c0-0.964,0.785-1.749,1.749-1.749h14.309
		c0.964,0,1.749,0.784,1.749,1.749L387.017,396.512L387.017,396.512z"/>
	<path d="M298.194,457.782c0,9.251,7.527,16.778,16.778,16.778h14.309c9.251,0,16.778-7.527,16.778-16.778v-14.309
		c0-9.251-7.527-16.778-16.778-16.778h-14.309c-9.251,0-16.778,7.526-16.778,16.778V457.782z M313.223,443.474
		c0-0.964,0.785-1.749,1.749-1.749h14.309c0.965,0,1.749,0.784,1.749,1.749v14.309c0,0.964-0.784,1.749-1.749,1.749h-14.309
		c-0.964,0-1.749-0.785-1.749-1.749V443.474z"/>
	<path d="M385.268,426.696H370.96c-9.251,0-16.778,7.526-16.778,16.778v14.309c0,9.251,7.527,16.778,16.778,16.778h14.309
		c9.251,0,16.778-7.527,16.778-16.778v-14.309C402.047,434.222,394.52,426.696,385.268,426.696L385.268,426.696z M387.017,457.782
		c0,0.964-0.785,1.749-1.749,1.749H370.96c-0.964,0-1.749-0.785-1.749-1.749v-14.309c0-0.964,0.785-1.749,1.749-1.749h14.309
		c0.964,0,1.749,0.784,1.749,1.749L387.017,457.782L387.017,457.782z"/>
	<path d="M439.837,365.426h-11.472c-10.034,0-18.196,8.163-18.196,18.196v72.742c0,10.034,8.162,18.197,18.196,18.197h11.472
		c10.033,0,18.196-8.163,18.196-18.197v-72.742C458.033,373.589,449.87,365.426,439.837,365.426z M443.005,456.364
		c0,1.747-1.421,3.168-3.168,3.168h-11.472c-1.747,0-3.168-1.421-3.168-3.168v-72.742c0-1.747,1.421-3.167,3.168-3.167h11.472
		c1.747,0,3.168,1.422,3.168,3.167V456.364z"/>
	<path d="M77.208,140.385h29.997c4.149,0,7.515-3.364,7.515-7.516c0-4.149-3.364-7.515-7.515-7.515H77.208
		c-4.15,0-7.516,3.365-7.516,7.515C69.693,137.02,73.058,140.385,77.208,140.385z"/>
	<path d="M141.022,140.385h144.63c4.15,0,7.516-3.364,7.516-7.516c0-4.149-3.365-7.515-7.516-7.515h-144.63
		c-4.149,0-7.515,3.365-7.515,7.515C133.508,137.02,136.872,140.385,141.022,140.385z"/>
	<path d="M77.208,206.458h29.997c4.149,0,7.515-3.365,7.515-7.515c0-4.15-3.364-7.515-7.515-7.515H77.208
		c-4.15,0-7.516,3.363-7.516,7.515S73.058,206.458,77.208,206.458z"/>
	<path d="M77.208,272.532h29.997c4.149,0,7.515-3.365,7.515-7.515c0-4.15-3.364-7.516-7.515-7.516H77.208
		c-4.15,0-7.516,3.365-7.516,7.516C69.693,269.167,73.058,272.532,77.208,272.532z"/>
	<path d="M77.208,338.606h29.997c4.149,0,7.515-3.365,7.515-7.515c0-4.15-3.364-7.516-7.515-7.516H77.208
		c-4.15,0-7.516,3.365-7.516,7.516S73.058,338.606,77.208,338.606z"/>
	<path d="M77.208,404.68h29.997c4.149,0,7.515-3.364,7.515-7.516c0-4.15-3.364-7.515-7.515-7.515H77.208
		c-4.15,0-7.516,3.364-7.516,7.515C69.693,401.316,73.058,404.68,77.208,404.68z"/>
</g>
</svg>
