<?xml version="1.0" encoding="utf-8"?>
<!-- Generator: Adobe Illustrator 16.0.0, SVG Export Plug-In . SVG Version: 6.00 Build 0)  -->
<!DOCTYPE svg PUBLIC "-//W3C//DTD SVG 1.1//EN" "http://www.w3.org/Graphics/SVG/1.1/DTD/svg11.dtd">
<svg version="1.1" id="Layer_1" xmlns="http://www.w3.org/2000/svg" xmlns:xlink="http://www.w3.org/1999/xlink" x="0px" y="0px"
	 width="512px" height="512px" viewBox="0 0 512 512" enable-background="new 0 0 512 512" xml:space="preserve">
<path d="M168,208h16v16c0,4.419,3.581,8,8,8c4.418,0,8-3.581,8-8v-16h16v16c0,4.419,3.581,8,8,8c4.418,0,8-3.581,8-8v-16h48
	c4.418,0,8-3.581,8-8v-64c0-4.418-3.582-8-8-8h-24V72c0-4.418-3.582-8-8-8h-16V48c0-4.418-3.582-8-8-8c-4.419,0-8,3.582-8,8v16h-16
	V48c0-4.418-3.582-8-8-8c-4.419,0-8,3.582-8,8v16h-16c-4.419,0-8,3.582-8,8v128C160,204.419,163.581,208,168,208z M272,192h-96v-48
	h96V192z M176,80h64v48h-64V80z"/>
<path d="M192,240c-4.419,0-8,3.582-8,8v8c0,4.419,3.581,8,8,8c4.418,0,8-3.581,8-8v-8C200,243.582,196.418,240,192,240z"/>
<path d="M400,8H112C89.919,8.026,72.027,25.92,72,48v416c0.026,22.081,17.919,39.974,40,40h288c22.08-0.026,39.973-17.919,40-40V48
	C439.973,25.92,422.08,8.026,400,8z M400,24c13.254,0,24,10.745,24,24v352c0,13.255-10.746,24-24,24H144V24H400z M88,48
	c0-13.255,10.745-24,24-24h16v400h-16c-8.657-0.011-17.082,2.797-24,8V48z M400,488H112c-13.255,0-24-10.745-24-24
	c0-13.254,10.745-24,24-24h288c8.684-0.029,17.116-2.913,24-8.207V464C424,477.255,413.254,488,400,488L400,488z"/>
<path d="M304,360h96c4.418,0,8-3.581,8-8c0-4.418-3.582-8-8-8h-96c-4.419,0-8,3.582-8,8C296,356.419,299.581,360,304,360z"/>
<path d="M400,368h-72c-4.419,0-8,3.582-8,8c0,4.419,3.581,8,8,8h72c4.418,0,8-3.581,8-8C408,371.582,404.418,368,400,368z"/>
<path d="M400,392h-24c-4.419,0-8,3.582-8,8c0,4.419,3.581,8,8,8h24c4.418,0,8-3.581,8-8C408,395.582,404.418,392,400,392z"/>
<path d="M304,336h96c4.418,0,8-3.581,8-8v-32c0-4.418-3.582-8-8-8h-96c-4.419,0-8,3.582-8,8v32C296,332.419,299.581,336,304,336z
	 M312,304h80v16h-80V304z"/>
</svg>
