<?xml version="1.0" encoding="iso-8859-1"?>
<!-- Generator: Adobe Illustrator 19.0.0, SVG Export Plug-In . SVG Version: 6.00 Build 0)  -->
<svg version="1.1" id="Capa_1" xmlns="http://www.w3.org/2000/svg" xmlns:xlink="http://www.w3.org/1999/xlink" x="0px" y="0px"
	 viewBox="0 0 496 496" style="enable-background:new 0 0 496 496;" xml:space="preserve">
<g>
	<g>
		<path d="M464,128V48H240v-8c0-22.056-17.944-40-40-40H40C17.944,0,0,17.944,0,40v256c0,19.312,13.768,35.472,32,39.192V464
			h192.808c3.72,18.232,19.872,32,39.192,32s35.48-13.768,39.192-32H496V128H464z M272,64h176v352H272V64z M240,296V64h16v352H80
			v-80h120C222.056,336,240,318.056,240,296z M16,296V40c0-13.232,10.768-24,24-24h160c13.232,0,24,10.768,24,24v256
			c0,13.232-10.768,24-24,24H40C26.768,320,16,309.232,16,296z M480,448H288v8c0,13.232-10.768,24-24,24s-24-10.768-24-24v-8H48V336
			h16v96h400V144h16V448z"/>
	</g>
</g>
<g>
	<g>
		<path d="M160,192v112h48V192H160z M192,288h-16v-80h16V288z"/>
	</g>
</g>
<g>
	<g>
		<path d="M96,256v48h48v-48H96z M128,288h-16v-16h16V288z"/>
	</g>
</g>
<g>
	<g>
		<path d="M32,256v48h48v-48H32z M64,288H48v-16h16V288z"/>
	</g>
</g>
<g>
	<g>
		<path d="M96,192v48h48v-48H96z M128,224h-16v-16h16V224z"/>
	</g>
</g>
<g>
	<g>
		<path d="M32,192v48h48v-48H32z M64,224H48v-16h16V224z"/>
	</g>
</g>
<g>
	<g>
		<path d="M96,128v48h48v-48H96z M128,160h-16v-16h16V160z"/>
	</g>
</g>
<g>
	<g>
		<path d="M160,128v48h48v-48H160z M192,160h-16v-16h16V160z"/>
	</g>
</g>
<g>
	<g>
		<path d="M32,128v48h48v-48H32z M64,160H48v-16h16V160z"/>
	</g>
</g>
<g>
	<g>
		<path d="M32,32v80h176V32H32z M192,96H48V48h144V96z"/>
	</g>
</g>
<g>
	<g>
		<path d="M360,144c-8.824,0-16-7.176-16-16c0-8.824,7.176-16,16-16c8.824,0,16,7.176,16,16h16c0-14.864-10.232-27.288-24-30.864V80
			h-16v17.136c-13.768,3.576-24,16-24,30.864c0,17.648,14.352,32,32,32c8.824,0,16,7.176,16,16c0,8.824-7.176,16-16,16
			c-8.824,0-16-7.176-16-16h-16c0,14.864,10.232,27.288,24,30.864V224h16v-17.136c13.768-3.576,24-16,24-30.864
			C392,158.352,377.648,144,360,144z"/>
	</g>
</g>
<g>
	<g>
		<rect x="288" y="256" width="144" height="16"/>
	</g>
</g>
<g>
	<g>
		<rect x="288" y="288" width="144" height="16"/>
	</g>
</g>
<g>
	<g>
		<rect x="288" y="320" width="144" height="16"/>
	</g>
</g>
<g>
	<g>
		<rect x="336" y="352" width="96" height="16"/>
	</g>
</g>
<g>
	<g>
		<rect x="288" y="352" width="32" height="16"/>
	</g>
</g>
<g>
	<g>
		<rect x="288" y="384" width="112" height="16"/>
	</g>
</g>
<g>
	<g>
		<rect x="96" y="352" width="144" height="16"/>
	</g>
</g>
<g>
	<g>
		<rect x="96" y="384" width="112" height="16"/>
	</g>
</g>
<g>
	<g>
		<rect x="224" y="384" width="16" height="16"/>
	</g>
</g>
<g>
	<g>
		<rect x="416" y="384" width="16" height="16"/>
	</g>
</g>
<g>
	<g>
		<rect x="408" y="144" width="16" height="16"/>
	</g>
</g>
<g>
	<g>
		<rect x="296" y="144" width="16" height="16"/>
	</g>
</g>
<g>
</g>
<g>
</g>
<g>
</g>
<g>
</g>
<g>
</g>
<g>
</g>
<g>
</g>
<g>
</g>
<g>
</g>
<g>
</g>
<g>
</g>
<g>
</g>
<g>
</g>
<g>
</g>
<g>
</g>
</svg>
