<?xml version="1.0" encoding="utf-8"?>
<!-- Generator: Adobe Illustrator 21.1.0, SVG Export Plug-In . SVG Version: 6.00 Build 0)  -->
<svg version="1.1" id="Capa_1" xmlns="http://www.w3.org/2000/svg" xmlns:xlink="http://www.w3.org/1999/xlink" x="0px" y="0px"
	 viewBox="0 0 512 512" style="enable-background:new 0 0 512 512;" xml:space="preserve">
<style type="text/css">
	.st0{font-family:'Raleway-Black';}
	.st1{font-size:262.989px;}
</style>
<g>
	<path d="M391.9,0H120.1C71.9,0,32.7,39.2,32.7,87.4v271.7c0,48.2,39.2,87.4,87.4,87.4h95.7v57.9c0,4.1,3.4,7.5,7.5,7.5h65.4
		c4.1,0,7.5-3.4,7.5-7.5v-57.9h95.7c48.2,0,87.4-39.2,87.4-87.4V87.4C479.3,39.2,440.1,0,391.9,0L391.9,0z M281.2,497h-50.4v-50.4
		h50.4V497z M464.3,359.2c0,39.9-32.5,72.4-72.4,72.4H120.1c-39.9,0-72.4-32.5-72.4-72.4V87.4c0-39.9,32.5-72.4,72.4-72.4h271.7
		c39.9,0,72.4,32.5,72.4,72.4L464.3,359.2L464.3,359.2z"/>
	<path d="M391.9,30H120.1c-31.7,0-57.4,25.8-57.4,57.4v271.7c0,25.3,16.2,47.3,40.4,54.9c4,1.2,8.2-1,9.4-4.9c1.2-4-1-8.2-4.9-9.4
		c-17.8-5.6-29.8-21.8-29.8-40.5V87.4c0-23.4,19-42.4,42.4-42.4h271.7c23.4,0,42.4,19,42.4,42.4v271.7c0,23.4-19,42.4-42.4,42.4
		H135.1c-4.1,0-7.5,3.4-7.5,7.5s3.4,7.5,7.5,7.5h256.7c31.7,0,57.4-25.8,57.4-57.4V87.4C449.3,55.8,423.5,30,391.9,30z"/>
	<path d="M146.8,375.1c4.1,0,7.5-3.4,7.5-7.5c0-4.1-3.4-7.5-7.5-7.5c0,0,0,0,0,0c-6.6,0-13.6,0.1-18.7,0.1v-67.4
		c0-4.1-3.4-7.5-7.5-7.5s-7.5,3.4-7.5,7.5v74.9c0,3.7,2.6,6.8,6.2,7.4c0.5,0.1,1,0.2,9.2,0.2C132.5,375.2,138.3,375.2,146.8,375.1z"
		/>
	<path d="M375.2,285.2c-4.1,0-7.5,3.4-7.5,7.5v74.9c0,3.7,2.6,6.8,6.2,7.4c0.5,0.1,1,0.2,9.3,0.2c4,0,9.8,0,18.3-0.1
		c4.1,0,7.5-3.4,7.5-7.5c0-4.1-3.4-7.5-7.5-7.5c0,0,0,0,0,0c-6.6,0-13.6,0.1-18.7,0.1v-67.4C382.7,288.6,379.4,285.2,375.2,285.2z"
		/>
	<path d="M164.9,293.4v74.3c0,4.1,3.4,7.5,7.5,7.5h31.3c4.1,0,7.5-3.4,7.5-7.5s-3.4-7.5-7.5-7.5h-23.8v-22.1h21.5
		c4.1,0,7.5-3.4,7.5-7.5s-3.4-7.5-7.5-7.5h-21.5v-22.1h23.8c4.1,0,7.5-3.4,7.5-7.5s-3.4-7.5-7.5-7.5h-31.3
		C168.3,285.9,164.9,289.3,164.9,293.4L164.9,293.4z"/>
	<path d="M343.1,300.9c4.1,0,7.5-3.4,7.5-7.5s-3.4-7.5-7.5-7.5h-31.3c-4.1,0-7.5,3.4-7.5,7.5v74.3c0,4.1,3.4,7.5,7.5,7.5h31.3
		c4.1,0,7.5-3.4,7.5-7.5s-3.4-7.5-7.5-7.5h-23.8v-22.1h21.5c4.1,0,7.5-3.4,7.5-7.5s-3.4-7.5-7.5-7.5h-21.5v-22.1L343.1,300.9z"/>
	<path d="M275.6,290.5l-19.1,57.4l-20-57.6c-1.4-3.9-5.6-6-9.5-4.6c-3.9,1.4-6,5.6-4.6,9.5l25.6,73.9c1.3,3.7,4.8,6.1,8.7,6.1h0.1
		c3.9,0,7.4-2.5,8.7-6.3l24.5-73.7c1.3-3.9-0.8-8.2-4.8-9.5C281.1,284.5,276.9,286.6,275.6,290.5L275.6,290.5z"/>
	<text transform="matrix(1 0 0 1 176.5176 229.3516)" class="st0 st1">1</text>
</g>
</svg>
