<?xml version="1.0" encoding="utf-8"?>
<!-- Generator: Adobe Illustrator 16.0.0, SVG Export Plug-In . SVG Version: 6.00 Build 0)  -->
<!DOCTYPE svg PUBLIC "-//W3C//DTD SVG 1.1//EN" "http://www.w3.org/Graphics/SVG/1.1/DTD/svg11.dtd">
<svg version="1.1" id="Layer_1" xmlns="http://www.w3.org/2000/svg" xmlns:xlink="http://www.w3.org/1999/xlink" x="0px" y="0px"
	 width="841.889px" height="595.281px" viewBox="0 0 841.889 595.281" enable-background="new 0 0 841.889 595.281"
	 xml:space="preserve">
<g id="Layer_2">
</g>
<g id="Layer_3">
</g>
<g id="Layer_4">
</g>
<g id="Layer_5">
</g>
<g id="Layer_6">
</g>
<g id="Layer_7">
</g>
<g id="Layer_8">
</g>
<g id="Layer_9">
</g>
<g id="Layer_10">
</g>
<g id="Layer_11">
</g>
<g id="Layer_12">
</g>
<g id="Layer_13">
</g>
<g id="Layer_15">
</g>
<g id="Layer_16">
</g>
<g id="Layer_17">
	<g>
		<path d="M713.934,148.82c-2.79-1.86-6.511-2.79-9.301-0.93l-189.746,67.898l-133.008-48.366
			c7.441-18.603,11.162-35.345,11.162-49.297c0-25.113-9.302-47.437-26.974-65.108c-17.673-17.673-40.926-26.974-65.109-26.974
			c-51.156,0-92.082,40.926-92.082,92.082c0,17.673,6.511,39.065,17.673,65.109l-96.733,32.554c-3.721,1.86-6.511,5.581-6.511,9.302
			v334.845c0,3.721,1.86,6.512,4.65,8.371c1.86,0.931,3.721,1.86,5.581,1.86c0.93,0,2.79,0,3.72-0.93l189.746-66.969l184.164,67.898
			c1.86,0.931,4.651,0.931,6.512,0l193.466-68.829c3.721-1.86,6.511-5.58,6.511-9.301V157.191
			C718.584,153.47,716.725,150.68,713.934,148.82z M300.958,44.646c19.533,0,37.205,7.44,50.228,21.393l0,0
			c13.951,13.021,21.393,31.624,21.393,50.227c0,13.022-4.65,30.694-13.952,51.157c-16.742,37.205-44.646,76.271-57.668,93.942
			c-1.86-1.86-2.79-3.721-4.65-6.511c-12.092-16.742-31.624-44.646-45.576-73.479c-13.952-26.974-20.463-49.297-20.463-66.039
			C229.339,77.201,261.894,44.646,300.958,44.646z M698.122,484.595l-183.235,65.109l-184.164-67.899
			c-0.931,0-2.791-0.931-3.721-0.931c-0.931,0-2.79,0-3.721,0.931l-179.514,64.179V232.531l93.012-32.554c0,0,0,0,0,0.93
			c0.931,0.931,0.931,1.86,1.86,2.79c0.931,1.86,1.86,3.721,2.791,5.581c0.93,0.931,0.93,1.86,1.86,2.791
			c0.93,1.859,1.859,3.72,2.79,5.58c0.93,0.931,0.93,1.86,1.86,2.791c0.93,1.859,1.86,3.72,2.79,4.65
			c0.931,0.93,0.931,1.86,1.86,2.79c0.931,1.86,1.86,2.79,2.79,4.65c0.931,0.931,0.931,1.86,1.86,2.791
			c0.931,1.86,1.86,2.79,2.791,4.65c0.93,0.93,0.93,1.86,1.86,2.79c0.93,1.86,1.859,2.791,2.79,4.651
			c0.93,0.93,0.93,1.859,1.86,2.79c0.93,1.86,1.86,2.79,2.79,4.65c0.931,0.931,0.931,1.86,1.86,1.86c0.93,1.86,1.86,2.79,2.79,3.721
			c0,0.93,0.931,0.93,0.931,1.86c0.93,1.86,1.86,2.79,2.79,3.72l0.931,0.931c0.93,0.93,1.86,2.79,2.79,3.721l0.93,0.93
			c0.931,0.931,1.86,2.791,2.791,3.721l0,0c0.93,0.93,1.86,1.86,2.79,2.79l0,0c1.86,2.791,3.721,4.651,3.721,5.581
			c1.86,2.79,4.65,3.721,8.371,3.721c2.79,0,5.581-1.86,8.371-3.721c0,0,0.93-0.93,2.79-2.79l0.931-0.931
			c0.93-0.93,0.93-0.93,1.86-1.86l0.93-0.93c0.931-0.931,0.931-1.86,1.86-2.79c0-0.931,0.93-0.931,0.93-1.86
			c0.931-0.931,1.86-1.86,1.86-2.791c0.931-0.93,0.931-1.86,1.86-2.79c0.931-0.931,1.86-1.86,2.791-3.721
			c0.93-0.93,0.93-1.86,1.859-2.79c0.931-0.931,1.86-1.86,2.791-3.721c0.93-0.93,1.86-1.86,1.86-2.79
			c0.93-0.931,1.86-2.791,2.79-3.721c0.931-0.931,1.86-2.79,2.79-3.721c0.931-0.93,1.86-2.79,2.791-3.721
			c0.93-0.93,1.86-2.79,2.79-3.72c0.931-1.86,1.86-2.791,2.79-4.651c0.931-0.93,1.86-2.79,2.791-3.721
			c0.93-1.859,1.86-2.79,2.79-4.65c0.931-1.86,1.86-2.79,2.79-4.65c0.931-1.86,1.86-2.79,2.791-4.65c0.93-1.86,1.86-2.791,2.79-4.65
			c0.931-1.86,1.86-2.791,2.79-4.651c0.931-1.86,1.86-2.79,2.791-4.65c0.93-1.86,1.86-2.79,2.79-4.65
			c0.931-1.86,1.86-2.791,2.79-4.65c0.931-1.86,1.86-3.721,2.791-4.651c0.93-1.86,1.86-2.79,1.86-4.65c0,0,0,0,0-0.93
			l137.658,50.227c1.86,0.93,4.65,0.93,6.511,0l179.514-64.179L698.122,484.595L698.122,484.595z"/>
		<path d="M611.62,394.374c1.86,0.93,4.65,0.93,6.511,0.93c5.581,0,11.162-1.86,15.813-4.65c6.511-4.65,11.161-11.162,13.021-18.603
			c1.86-7.441,0-15.813-3.721-22.323c-4.65-6.511-11.161-11.161-18.603-13.021c-15.812-3.721-32.554,6.511-36.274,22.323l0,0
			c-1.86,7.44,0,15.812,3.721,22.322C597.668,387.863,604.179,392.513,611.62,394.374z M608.83,362.749
			c0.93-5.58,6.511-8.371,11.161-7.44c2.79,0.93,4.65,1.86,5.581,4.65c0.93,1.86,1.86,4.65,0.93,7.441
			c-0.93,2.79-1.86,4.65-4.65,5.58c-1.86,0.931-4.65,1.86-7.441,0.931c-2.79-0.931-4.65-1.86-5.58-4.651
			C608.83,367.4,608.83,365.54,608.83,362.749z"/>
		<path d="M225.618,363.679l-6.511,3.721l-3.721-6.512c-2.79-4.65-9.301-6.511-13.952-2.79c-4.65,2.79-6.511,9.302-2.79,13.952
			l3.721,6.511l-6.511,3.721c-4.651,2.79-6.511,9.301-2.791,13.952c0.931,3.72,4.651,4.65,7.441,4.65c1.86,0,3.721-0.931,5.581-1.86
			l6.511-3.721l3.721,6.511c1.859,2.791,5.58,4.65,8.371,4.65c1.86,0,3.72-0.93,5.58-1.859c4.651-2.791,6.511-9.302,2.791-13.952
			l-3.721-6.511l6.511-3.721c4.65-2.791,6.511-9.302,2.79-13.952C236.78,361.819,230.269,360.888,225.618,363.679z"/>
		<path d="M321.421,391.583c-12.092,0-27.903-1.86-38.135-4.65c-5.581-0.93-11.162,2.79-12.092,8.371s2.79,11.161,8.371,12.092
			c10.231,1.86,26.974,4.65,41.855,4.65l0,0c5.581,0,10.231-4.65,10.231-10.231C331.653,396.234,327.002,391.583,321.421,391.583z"
			/>
		<path d="M397.692,356.238c-6.511,9.302-13.952,16.742-23.253,22.323c-2.791,1.86-6.511,3.721-10.231,5.581
			c-5.581,1.86-7.441,8.371-5.581,13.951c1.86,3.721,5.581,6.512,9.302,6.512c0.93,0,2.79,0,3.72-0.931
			c4.651-1.86,8.371-3.721,12.092-6.511c11.162-7.441,20.463-15.813,28.834-26.974c3.721-4.65,2.79-11.161-1.86-13.952
			C407.923,350.658,401.412,351.588,397.692,356.238z"/>
		<path d="M472.102,289.269c-10.231,0-15.813,2.79-21.394,4.65c-13.021,5.581-24.183,17.673-26.974,21.394
			c-3.72,4.65-2.79,11.161,0.931,14.882c1.86,1.86,4.65,2.79,6.511,2.79c2.79,0,5.581-0.93,7.441-3.721
			c4.65-5.58,12.091-12.092,19.532-15.812c5.581-1.86,7.44-2.791,13.952-3.721c5.58,0,10.231-4.651,10.231-10.231
			C482.333,293.92,477.682,289.269,472.102,289.269z"/>
		<path d="M510.237,305.081c-1.86,5.581,0,11.162,5.581,13.952c10.231,4.651,25.113,12.092,36.274,20.463
			c1.86,0.931,3.721,1.86,5.581,1.86c3.721,0,6.511-1.86,8.371-4.65c2.79-4.65,1.86-11.162-2.79-13.952
			c-13.022-8.371-27.904-16.742-39.996-21.393C518.608,297.64,513.027,300.43,510.237,305.081z"/>
		<path d="M300.958,141.379c17.673,0,31.625-13.951,31.625-31.624c0-17.672-13.952-31.624-31.625-31.624
			c-17.672,0-31.624,13.952-31.624,31.624C269.334,127.427,284.216,141.379,300.958,141.379z M300.958,98.594
			c5.581,0,11.162,4.65,11.162,11.161c0,5.581-4.65,11.162-11.162,11.162c-5.58,0-11.161-4.651-11.161-11.162
			C290.727,104.174,295.378,98.594,300.958,98.594z"/>
	</g>
</g>
<g id="Layer_18">
</g>
<g id="Layer_19">
</g>
<g id="Layer_20">
</g>
<g id="Layer_21">
</g>
<g id="Layer_22">
</g>
<g id="Layer_23">
</g>
<g id="Layer_24">
</g>
<g id="Layer_25">
</g>
<g id="Layer_26">
</g>
<g id="Layer_27">
</g>
</svg>
