<svg id="Layer_1" enable-background="new 0 0 511.992 511.992" height="512" viewBox="0 0 511.992 511.992" width="512" xmlns="http://www.w3.org/2000/svg"><g><path d="m27.814 511.992h456.365c7.067 0 12.817-5.75 12.817-12.817v-24.022c0-7.067-5.75-12.817-12.817-12.817h-11.585v-336.345c0-11.631-6.431-22.15-16.782-27.453h.001l-185.752-95.155c-8.809-4.511-19.321-4.511-28.128 0l-185.751 95.156c-10.353 5.303-16.783 15.822-16.783 27.453v336.344h-11.585c-7.067 0-12.817 5.75-12.817 12.817v24.022c-.001 7.067 5.749 12.817 12.817 12.817zm26.585-386.001c0-5.975 3.304-11.378 8.622-14.102l185.752-95.156c4.523-2.317 9.925-2.318 14.448 0l185.752 95.156h.001c5.317 2.724 8.62 8.127 8.62 14.102v336.344h-40.136v-269.853c4.475-2.002 7.606-6.488 7.606-11.699v-24.022c0-7.067-5.75-12.817-12.817-12.817h-138.751c-4.143 0-7.5 3.358-7.5 7.5s3.357 7.5 7.5 7.5h136.568v19.656h-.106-307.924-.105v-19.657h136.567c4.143 0 7.5-3.358 7.5-7.5s-3.357-7.5-7.5-7.5h-138.75c-7.067 0-12.817 5.75-12.817 12.817v24.022c0 5.211 3.131 9.697 7.605 11.699v52.854h-9.039c-8.436 0-15.299 6.863-15.299 15.299v92.901c0 2.851.798 5.512 2.161 7.799-1.363 2.287-2.161 4.949-2.161 7.799v92.901c0 .101.013.199.015.299h-15.812zm312.579 301.595c-4.143 0-7.5 3.358-7.5 7.5v26.951c0 .165-.135.299-.3.299h-129.042c-.165 0-.299-.134-.299-.299v-92.901c0-.165.134-.299.299-.299h38.771v43.952c0 6.781 5.517 12.298 12.298 12.298h26.904c6.781 0 12.298-5.517 12.298-12.298v-43.952h38.771c.165 0 .3.134.3.299v30.951c0 4.142 3.357 7.5 7.5 7.5s7.5-3.358 7.5-7.5v-30.951c0-8.436-6.863-15.299-15.3-15.299-17.335 0-111.622 0-129.042 0-.104 0-.206.014-.31.016.002-.105.011-.209.011-.315v-29.526l28.819 20.642c8.313 5.954 19.926.027 19.926-10.237v-14.911h63.5c7.067 0 12.817-5.75 12.817-12.817v-24.022c0-7.067-5.75-12.817-12.817-12.817h-63.5v-14.911c0-10.243-11.603-16.2-19.926-10.237l-28.819 20.642v-4.707c0-8.436-6.863-15.299-15.3-15.299-11.265 0-93.721 0-105.003 0v-51.738h292.924v268.735h-27.996c.002-.101.015-.198.015-.299v-26.951c.001-4.141-3.357-7.499-7.499-7.499zm-83.071-17.5v-41.25h21.5v41.25zm-147.342 15h26.903c6.781 0 12.299-5.517 12.299-12.298v-43.952h38.771c.165 0 .3.134.3.299v92.901c0 .165-.135.299-.3.299h-129.043c-.165 0-.299-.134-.299-.299v-92.901c0-.165.134-.299.299-.299h38.771v43.952c.001 6.781 5.517 12.298 12.299 12.298zm2.702-15v-41.25h21.5v41.25zm75.27-56.25c-17.335 0-111.622 0-129.042 0-.165 0-.299-.134-.299-.299v-92.901c0-.165.134-.299.299-.299h38.771v43.952c0 6.781 5.517 12.298 12.298 12.298h26.903c6.781 0 12.299-5.517 12.299-12.298v-43.952h38.771c.165 0 .3.134.3.299v15.451l-11.662 8.353c-7.001 5.014-7.006 15.457 0 20.475l11.662 8.353v40.269c0 .164-.135.299-.3.299zm-75.27-52.25v-41.25h21.5v41.25zm75.375-6.909c8.054-5.769 44.779-32.074 48.94-35.054v14.073c0 6.149 5.003 11.152 11.152 11.152h65.166v19.657h-65.165c-6.149 0-11.152 5.003-11.152 11.152v14.073c-5.041-3.61-40.574-29.061-48.941-35.053zm-184.646 182.659h452v19.657h-452v-19.657z"/></g></svg>