<?xml version="1.0" encoding="iso-8859-1"?>
<!-- Generator: Adobe Illustrator 19.0.0, SVG Export Plug-In . SVG Version: 6.00 Build 0)  -->
<svg version="1.1" id="Layer_1" xmlns="http://www.w3.org/2000/svg" xmlns:xlink="http://www.w3.org/1999/xlink" x="0px" y="0px"
	 viewBox="0 0 512.002 512.002" style="enable-background:new 0 0 512.002 512.002;" xml:space="preserve">
<g>
	<g>
		<g>
			<path d="M490.645,395.396c-12.226-12.225-28.51-19.169-45.353-19.908l-19.377-19.377c11.07-18.125,19.174-37.674,24.154-58.266
				h50.113v-96.84h-50.113c-4.979-20.591-13.083-40.139-24.154-58.265l35.449-35.449l-68.475-68.475l-35.449,35.448
				c-18.125-11.068-37.674-19.171-58.266-24.151V0h-96.839v50.113c-20.592,4.979-40.141,13.084-58.265,24.153L108.62,38.818
				l-68.475,68.475l35.448,35.449c-11.07,18.125-19.174,37.674-24.153,58.265H1.326v96.84H51.44
				c4.979,20.593,13.084,40.142,24.153,58.266l-35.448,35.449l68.475,68.475l35.45-35.448
				c18.124,11.069,37.673,19.173,58.265,24.153v50.114h96.839v-50.114c20.592-4.979,40.141-13.084,58.265-24.153l16.712,16.712
				c-0.595,18.63,6.423,37.172,19.923,50.671c13.086,13.086,30.499,20.03,48.256,20.03c8.682,0,17.446-1.66,25.826-5.075
				l10.454-4.26l-44.545-44.544l4.849-17.884l17.882-4.849l44.546,44.545l4.26-10.454
				C515.999,443.958,510.128,414.88,490.645,395.396z M354.41,408.772c-19.706,12.846-41.331,21.811-64.279,26.644l-5.951,1.253
				v47.193h-66.855v-47.193l-5.951-1.253c-22.945-4.833-44.572-13.798-64.279-26.644l-5.094-3.32l-33.384,33.383L61.344,391.56
				l33.383-33.384l-3.321-5.094c-12.846-19.705-21.81-41.331-26.644-64.279l-1.253-5.951h-47.19v-66.856H63.51l1.253-5.951
				c4.833-22.944,13.797-44.57,26.644-64.278l3.321-5.094l-33.383-33.384l47.274-47.274L142.004,93.4l5.094-3.32
				c19.706-12.847,41.332-21.811,64.279-26.644l5.951-1.253v-47.19h66.855v47.192l5.951,1.253
				c22.946,4.833,44.573,13.798,64.279,26.644l5.094,3.32l33.384-33.383l47.274,47.274l-33.384,33.384l3.321,5.094
				c12.847,19.708,21.811,41.334,26.644,64.278l1.253,5.951h47.192v66.856h-47.192l-1.253,5.951
				c-4.832,22.945-13.797,44.573-26.644,64.279l-2.077,3.184l-62.449-62.452l-6.592-6.592c5.136-11.938,7.736-24.627,7.736-37.796
				c0-52.914-43.049-95.964-95.963-95.964c-52.914,0-95.963,43.049-95.963,95.964c0,52.914,43.049,95.963,95.963,95.963
				c13.121,0,25.768-2.582,37.671-7.683l68.04,68.044l1.018,1.018L354.41,408.772z M306.372,206.003
				c-19.482-19.484-48.562-25.356-74.082-14.957l-10.455,4.26l44.546,44.545l-4.849,17.883l-17.883,4.849l-44.545-44.545
				l-4.26,10.454c-10.397,25.52-4.526,54.599,14.956,74.083c16.259,16.259,39.694,23.177,62.077,18.582l4.949,4.949
				c-8.342,2.846-17.072,4.292-26.071,4.292c-44.647,0-80.971-36.324-80.971-80.971c0-44.648,36.324-80.972,80.971-80.972
				s80.971,36.324,80.971,80.972c0,9.048-1.46,17.821-4.337,26.204l-3.407-3.407C330.31,248.814,323.647,223.277,306.372,206.003z
				 M494.964,452.354l-33.708-33.708l-34.562,9.372l-9.372,34.562l33.708,33.709c-16.726,2.769-34.009-2.573-46.356-14.92
				c-11.42-11.42-16.89-27.466-15.299-43.212c0.063-0.612,0.133-1.222,0.217-1.831c0.041-0.303,0.08-0.607,0.127-0.908
				c0.137-0.879,0.296-1.751,0.476-2.62c0.045-0.216,0.09-0.432,0.138-0.648c0.202-0.917,0.424-1.83,0.674-2.733
				c0.041-0.149,0.086-0.297,0.128-0.446c0.248-0.868,0.518-1.727,0.809-2.58c1.018-2.137,6.744-13.695,15.129-22.079l-10.6-10.601
				c-5.645,5.645-10.185,12.255-13.34,17.507l-49.289-49.291l-42.32-42.323h-0.001l-15.089-15.09l-4.203,1.151
				c-18.464,5.066-38.324-0.183-51.831-13.689c-12.346-12.347-17.689-29.631-14.919-46.357l33.708,33.708l34.562-9.373l9.372-34.561
				l-33.709-33.709c16.727-2.765,34.011,2.574,46.357,14.92c14.368,14.368,19.329,36.06,12.64,55.264l-1.307,3.752
				c-2.157,3.769-5.577,9.066-9.807,13.297l10.601,10.599c3.949-3.949,7.25-8.456,9.774-12.399L424.009,393.46l4.202-1.151
				c1.148-0.315,2.302-0.59,3.458-0.826c0.204-0.042,0.41-0.076,0.615-0.115c0.371-0.071,0.741-0.144,1.111-0.207
				c0.314-0.053,0.629-0.097,0.943-0.145c0.266-0.04,0.532-0.085,0.798-0.121c0.304-0.041,0.609-0.073,0.912-0.109
				c0.283-0.034,0.567-0.072,0.85-0.1c0.213-0.022,0.427-0.036,0.641-0.055c0.381-0.034,0.762-0.071,1.141-0.096
				c0.055-0.004,0.111-0.005,0.167-0.009c15.154-0.984,30.257,4.534,41.194,15.473C492.391,418.344,497.734,435.628,494.964,452.354
				z"/>
			
				<rect x="310.301" y="304.686" transform="matrix(-0.7071 -0.7071 0.7071 -0.7071 322.1296 757.7935)" width="15.416" height="14.992"/>
			
				<rect x="329.121" y="341.08" transform="matrix(-0.7071 -0.7071 0.7071 -0.7071 358.5074 845.6492)" width="50.544" height="14.991"/>
			<path d="M287.578,382.296l4.02,14.443c6.284-1.749,12.509-3.928,18.506-6.475l-5.861-13.799
				C298.843,378.76,293.236,380.721,287.578,382.296z"/>
			<path d="M250.785,387.297c-75.47,0-136.87-61.4-136.87-136.87c0-7.793,0.66-15.602,1.96-23.215l-14.778-2.524
				c-1.442,8.442-2.174,17.103-2.174,25.739c0,83.737,68.125,151.861,151.861,151.861c4.922,0,9.89-0.238,14.763-0.71l-1.44-14.922
				C259.71,387.081,255.228,387.297,250.785,387.297z"/>
			<path d="M156.1,151.593l-10.373-10.824c-4.28,4.102-8.361,8.498-12.131,13.067l11.564,9.542
				C148.559,159.257,152.24,155.291,156.1,151.593z"/>
			<path d="M250.785,113.556c16.087,0,31.835,2.763,46.807,8.211l5.127-14.088c-16.621-6.049-34.094-9.115-51.934-9.115
				c-33.374,0-65.041,10.62-91.58,30.712l9.049,11.952C192.166,123.125,220.706,113.556,250.785,113.556z"/>
		</g>
	</g>
</g>
<g>
</g>
<g>
</g>
<g>
</g>
<g>
</g>
<g>
</g>
<g>
</g>
<g>
</g>
<g>
</g>
<g>
</g>
<g>
</g>
<g>
</g>
<g>
</g>
<g>
</g>
<g>
</g>
<g>
</g>
</svg>
