<svg id="Layer_3" enable-background="new 0 0 64 64" height="512" viewBox="0 0 64 64" width="512" xmlns="http://www.w3.org/2000/svg"><g><path d="m62 33h-1v-23c0-2.757-2.243-5-5-5h-18v-3c0-.552-.448-1-1-1h-10c-.552 0-1 .448-1 1v3h-18c-2.757 0-5 2.243-5 5v23h-1c-.552 0-1 .448-1 1v23c0 3.309 2.691 6 6 6h50c3.309 0 6-2.691 6-6v-23c0-.552-.448-1-1-1zm-34-30h8v2h-8zm-23 7c0-1.654 1.346-3 3-3h48c1.654 0 3 1.346 3 3v23h-2v-23c0-.552-.448-1-1-1h-48c-.552 0-1 .448-1 1v23h-2zm25.895 11.553-.895-1.789v-2.764h4v2.764l-.895 1.789c-.069.138-.105.292-.105.447v6h-2v-6c0-.155-.036-.309-.105-.447zm4.105 8.447v3h-6v-3zm-7 5h8v4h-8zm9-2v-4c0-.552-.448-1-1-1h-1v-5.764l.895-1.789c.069-.138.105-.292.105-.447v-4c0-.552-.448-1-1-1h-6c-.552 0-1 .448-1 1v4c0 .155.036.309.105.447l.895 1.789v5.764h-1c-.552 0-1 .448-1 1v4h-6v-5.333c2.419-1.149 4-3.605 4-6.319 0-2.956-1.875-5.606-4.666-6.594-.307-.107-.646-.062-.911.126s-.423.493-.423.817v5.237l-1 1-1-1v-5.237c0-.325-.158-.629-.423-.816-.265-.188-.604-.233-.911-.126-2.791.988-4.666 3.638-4.666 6.594 0 2.714 1.581 5.17 4 6.319v5.332h-6v-22h46v22h-6v-5.333c2.419-1.149 4-3.605 4-6.319 0-2.956-1.875-5.606-4.666-6.594-.306-.107-.646-.062-.911.126s-.423.493-.423.817v5.237l-1 1-1-1v-5.237c0-.325-.158-.629-.423-.816-.265-.188-.605-.233-.911-.126-2.791.988-4.666 3.638-4.666 6.594 0 2.714 1.581 5.17 4 6.319v5.332zm-26 10h6v2h-6zm6-2h-6v-6h6zm-.666-14.943c-1.994-.706-3.334-2.598-3.334-4.708 0-1.595.765-3.065 2-3.993v3.993c0 .265.105.52.293.707l2 2c.391.391 1.023.391 1.414 0l2-2c.188-.188.293-.442.293-.707v-3.993c1.235.928 2 2.398 2 3.993 0 2.11-1.34 4.002-3.334 4.708-.399.142-.666.519-.666.943v6h-2v-6c0-.424-.267-.801-.666-.943zm28 0c-1.994-.706-3.334-2.598-3.334-4.708 0-1.595.765-3.065 2-3.993v3.993c0 .265.105.52.293.707l2 2c.391.391 1.023.391 1.414 0l2-2c.188-.188.293-.442.293-.707v-3.993c1.235.928 2 2.398 2 3.993 0 2.11-1.34 4.002-3.334 4.708-.399.142-.666.519-.666.943v6h-2v-6c0-.424-.267-.801-.666-.943zm2.666 16.943h6v2h-6zm6-2h-6v-6h6zm8 16c0 2.206-1.794 4-4 4h-50c-2.206 0-4-1.794-4-4v-22h6v11c0 .552.448 1 1 1h8c.552 0 1-.448 1-1v-11h7v5c0 .552.448 1 1 1h10c.552 0 1-.448 1-1v-5h7v11c0 .552.448 1 1 1h8c.552 0 1-.448 1-1v-11h6z"/></g></svg>