<svg id="Layer_3" enable-background="new 0 0 64 64" height="512" viewBox="0 0 64 64" width="512" xmlns="http://www.w3.org/2000/svg"><path d="m62 26h-3.674c-.679-2.998-1.852-5.823-3.494-8.418l2.875-2.875c.391-.391.391-1.023 0-1.414l-7-7c-.391-.391-1.023-.391-1.414 0l-2.875 2.875c-2.595-1.643-5.42-2.815-8.418-3.494v-3.674c0-.552-.448-1-1-1h-10c-.552 0-1 .448-1 1v3.674c-2.998.679-5.823 1.852-8.418 3.494l-2.875-2.875c-.391-.391-1.023-.391-1.414 0l-7 7c-.391.391-.391 1.023 0 1.414l2.875 2.875c-1.643 2.594-2.815 5.419-3.494 8.418h-3.674c-.552 0-1 .448-1 1v10c0 .552.448 1 1 1h3.674c.403 1.777.991 3.503 1.743 5.159-3.655.736-6.417 3.972-6.417 7.841 0 4.411 3.589 8 8 8v3c0 .552.448 1 1 1h44c.552 0 1-.448 1-1v-3c4.411 0 8-3.589 8-8 0-3.869-2.762-7.105-6.417-7.841.751-1.656 1.34-3.381 1.743-5.159h3.674c.552 0 1-.448 1-1v-10c0-.552-.448-1-1-1zm-49 25c0-1.103.897-2 2-2s2 .897 2 2-.897 2-2 2-2-.897-2-2zm-1.444 2h-8.206c-.222-.627-.35-1.298-.35-2s.128-1.373.35-2h8.206c-.344.591-.556 1.268-.556 2s.212 1.409.556 2zm41.444 8h-42v-2h42zm8-10c0 3.309-2.691 6-6 6h-46c-1.771 0-3.36-.776-4.46-2h10.46c2.206 0 4-1.794 4-4s-1.794-4-4-4h-10.46c1.1-1.224 2.689-2 4.46-2h46c3.309 0 6 2.691 6 6zm-30-34v-3.949c.333-.018.662-.051 1-.051s.667.033 1 .051v3.949zm-1 2h1v2h-1c-.265 0-.52.105-.707.293l-2 2c-.188.187-.293.442-.293.707v2c0 .265.105.52.293.707l2 2 1.414-1.414-1.707-1.707v-1.172l1.414-1.414h3.172l1.414 1.414v1.172l-1.707 1.707 1.414 1.414 2-2c.188-.187.293-.442.293-.707v-2c0-.265-.105-.52-.293-.707l-2-2c-.187-.188-.442-.293-.707-.293h-1v-2h1c.552 0 1-.448 1-1v-4.739c9.053 1.445 16 9.286 16 18.739 0 3.986-1.224 7.775-3.523 11h-.477v-9c0-.552-.448-1-1-1h-12c-.552 0-1 .448-1 1v9h-2v-9c0-.552-.448-1-1-1h-12c-.552 0-1 .448-1 1v9h-.477c-2.299-3.225-3.523-7.014-3.523-11 0-9.453 6.947-17.294 16-18.739v4.739c0 .552.448 1 1 1zm9 16h2v2h-2zm-1 4h4c.552 0 1-.448 1-1v-3h2v8h-10v-8h2v3c0 .552.448 1 1 1zm-15-4h2v2h-2zm-1 4h4c.552 0 1-.448 1-1v-3h2v8h-10v-8h2v3c0 .552.448 1 1 1zm39-3h-3.485c-.479 0-.89.339-.981.809-.419 2.153-1.132 4.229-2.095 6.191h-4.554c2.038-3.301 3.115-7.065 3.115-11 0-11.58-9.42-21-21-21s-21 9.42-21 21c0 3.935 1.077 7.699 3.116 11h-4.555c-.963-1.962-1.675-4.038-2.095-6.191-.091-.47-.502-.809-.981-.809h-3.485v-8h3.485c.479 0 .89-.339.981-.809.645-3.307 1.927-6.396 3.811-9.181.269-.397.218-.929-.121-1.268l-2.742-2.742 5.586-5.586 2.743 2.743c.338.338.869.39 1.268.121 2.786-1.885 5.875-3.167 9.181-3.811.469-.092.808-.503.808-.982v-3.485h8v3.485c0 .479.339.89.809.981 3.306.644 6.395 1.926 9.181 3.811.399.269.929.218 1.268-.121l2.742-2.742 5.586 5.586-2.743 2.743c-.339.339-.39.871-.121 1.268 1.885 2.786 3.167 5.875 3.811 9.181.092.469.503.808.982.808h3.485z"/><path d="m25 47c-2.206 0-4 1.794-4 4s1.794 4 4 4 4-1.794 4-4-1.794-4-4-4zm0 6c-1.103 0-2-.897-2-2s.897-2 2-2 2 .897 2 2-.897 2-2 2z"/><path d="m35 47c-2.206 0-4 1.794-4 4s1.794 4 4 4 4-1.794 4-4-1.794-4-4-4zm0 6c-1.103 0-2-.897-2-2s.897-2 2-2 2 .897 2 2-.897 2-2 2z"/><path d="m45 47c-2.206 0-4 1.794-4 4s1.794 4 4 4 4-1.794 4-4-1.794-4-4-4zm0 6c-1.103 0-2-.897-2-2s.897-2 2-2 2 .897 2 2-.897 2-2 2z"/><path d="m51 51c0 2.206 1.794 4 4 4s4-1.794 4-4-1.794-4-4-4-4 1.794-4 4zm6 0c0 1.103-.897 2-2 2s-2-.897-2-2 .897-2 2-2 2 .897 2 2z"/></svg>