<svg id="Capa_1" enable-background="new 0 0 512 512" height="512" viewBox="0 0 512 512" width="512" xmlns="http://www.w3.org/2000/svg"><g><path d="m396.797 255.275c7.643 0 13.86-6.218 13.86-13.86v-142.859c0-7.643-6.218-13.86-13.86-13.86h-163.171c-7.643 0-13.859 6.218-13.859 13.86v142.858c0 7.643 6.217 13.86 13.859 13.86h163.171zm-162.03-155.579h160.891v140.579h-160.891z"/><path d="m202.421 129.847c0-14.961-12.172-27.133-27.134-27.133s-27.134 12.172-27.134 27.133c0 14.962 12.172 27.134 27.134 27.134s27.134-12.172 27.134-27.134zm-27.134 12.134c-6.69 0-12.134-5.443-12.134-12.134s5.443-12.133 12.134-12.133 12.134 5.442 12.134 12.133-5.443 12.134-12.134 12.134z"/><path d="m166.829 190.978c-4.143 0-7.5 3.357-7.5 7.5s3.357 7.5 7.5 7.5h16.915c4.143 0 7.5-3.357 7.5-7.5s-3.357-7.5-7.5-7.5z"/><path d="m166.829 234.975h16.915c4.143 0 7.5-3.357 7.5-7.5s-3.357-7.5-7.5-7.5h-16.915c-4.143 0-7.5 3.357-7.5 7.5s3.358 7.5 7.5 7.5z"/><path d="m428.003 129.847c0 14.962 12.172 27.134 27.134 27.134 14.961 0 27.133-12.172 27.133-27.134 0-14.961-12.172-27.133-27.133-27.133-14.962 0-27.134 12.172-27.134 27.133zm39.267 0c0 6.69-5.442 12.134-12.133 12.134s-12.134-5.443-12.134-12.134 5.443-12.133 12.134-12.133 12.133 5.443 12.133 12.133z"/><path d="m446.679 205.978h16.915c4.143 0 7.5-3.357 7.5-7.5s-3.357-7.5-7.5-7.5h-16.915c-4.143 0-7.5 3.357-7.5 7.5s3.357 7.5 7.5 7.5z"/><path d="m471.094 227.475c0-4.143-3.357-7.5-7.5-7.5h-16.915c-4.143 0-7.5 3.357-7.5 7.5s3.357 7.5 7.5 7.5h16.915c4.142 0 7.5-3.357 7.5-7.5z"/><path d="m231.631 315.26h-18.369c-4.143 0-7.5 3.357-7.5 7.5s3.357 7.5 7.5 7.5h18.369c4.143 0 7.5-3.357 7.5-7.5s-3.358-7.5-7.5-7.5z"/><path d="m293.475 315.26h-18.369c-4.143 0-7.5 3.357-7.5 7.5s3.357 7.5 7.5 7.5h18.369c4.143 0 7.5-3.357 7.5-7.5s-3.358-7.5-7.5-7.5z"/><path d="m355.318 315.26h-18.369c-4.143 0-7.5 3.357-7.5 7.5s3.357 7.5 7.5 7.5h18.369c4.143 0 7.5-3.357 7.5-7.5s-3.357-7.5-7.5-7.5z"/><path d="m398.792 330.26h18.369c4.143 0 7.5-3.357 7.5-7.5s-3.357-7.5-7.5-7.5h-18.369c-4.143 0-7.5 3.357-7.5 7.5s3.357 7.5 7.5 7.5z"/><path d="m231.631 345.833h-18.369c-4.143 0-7.5 3.357-7.5 7.5s3.357 7.5 7.5 7.5h18.369c4.143 0 7.5-3.357 7.5-7.5s-3.358-7.5-7.5-7.5z"/><path d="m293.475 345.833h-18.369c-4.143 0-7.5 3.357-7.5 7.5s3.357 7.5 7.5 7.5h18.369c4.143 0 7.5-3.357 7.5-7.5s-3.358-7.5-7.5-7.5z"/><path d="m355.318 345.833h-18.369c-4.143 0-7.5 3.357-7.5 7.5s3.357 7.5 7.5 7.5h18.369c4.143 0 7.5-3.357 7.5-7.5s-3.357-7.5-7.5-7.5z"/><path d="m398.792 360.833h18.369c4.143 0 7.5-3.357 7.5-7.5s-3.357-7.5-7.5-7.5h-18.369c-4.143 0-7.5 3.357-7.5 7.5s3.357 7.5 7.5 7.5z"/><path d="m231.631 376.405h-18.369c-4.143 0-7.5 3.357-7.5 7.5s3.357 7.5 7.5 7.5h18.369c4.143 0 7.5-3.357 7.5-7.5s-3.358-7.5-7.5-7.5z"/><path d="m293.475 376.405h-18.369c-4.143 0-7.5 3.357-7.5 7.5s3.357 7.5 7.5 7.5h18.369c4.143 0 7.5-3.357 7.5-7.5s-3.358-7.5-7.5-7.5z"/><path d="m355.318 376.405h-18.369c-4.143 0-7.5 3.357-7.5 7.5s3.357 7.5 7.5 7.5h18.369c4.143 0 7.5-3.357 7.5-7.5s-3.357-7.5-7.5-7.5z"/><path d="m398.792 391.405h18.369c4.143 0 7.5-3.357 7.5-7.5s-3.357-7.5-7.5-7.5h-18.369c-4.143 0-7.5 3.357-7.5 7.5s3.357 7.5 7.5 7.5z"/><path d="m278.506 149.346c1.919 0 3.839-.732 5.304-2.196l11.999-11.999c2.929-2.93 2.929-7.678 0-10.607-2.93-2.928-7.678-2.928-10.607 0l-11.999 11.999c-2.929 2.93-2.929 7.678 0 10.607 1.464 1.464 3.384 2.196 5.303 2.196z"/><path d="m327.723 124.543-58.565 58.565c-2.929 2.93-2.929 7.678 0 10.607 1.465 1.464 3.385 2.196 5.304 2.196s3.839-.732 5.304-2.196l58.565-58.565c2.929-2.93 2.929-7.678 0-10.607-2.931-2.927-7.679-2.927-10.608 0z"/><path d="m106.685 196.452v-26.875c0-5.861-4.769-10.63-10.63-10.63h-58.686c-5.861 0-10.63 4.769-10.63 10.63v26.875c0 5.861 4.769 10.63 10.63 10.63h58.686c5.861 0 10.63-4.769 10.63-10.63zm-15-4.37h-49.946v-18.135h49.945v18.135z"/><path d="m50.256 220.714h-10.957c-4.143 0-7.5 3.357-7.5 7.5s3.357 7.5 7.5 7.5h10.957c4.143 0 7.5-3.357 7.5-7.5s-3.358-7.5-7.5-7.5z"/><path d="m94.125 220.714h-10.957c-4.143 0-7.5 3.357-7.5 7.5s3.357 7.5 7.5 7.5h10.957c4.143 0 7.5-3.357 7.5-7.5s-3.357-7.5-7.5-7.5z"/><path d="m50.256 245.5h-10.957c-4.143 0-7.5 3.357-7.5 7.5s3.357 7.5 7.5 7.5h10.957c4.143 0 7.5-3.357 7.5-7.5s-3.358-7.5-7.5-7.5z"/><path d="m94.125 245.5h-10.957c-4.143 0-7.5 3.357-7.5 7.5s3.357 7.5 7.5 7.5h10.957c4.143 0 7.5-3.357 7.5-7.5s-3.357-7.5-7.5-7.5z"/><path d="m50.256 270.286h-10.957c-4.143 0-7.5 3.357-7.5 7.5s3.357 7.5 7.5 7.5h10.957c4.143 0 7.5-3.357 7.5-7.5s-3.358-7.5-7.5-7.5z"/><path d="m94.125 270.286h-10.957c-4.143 0-7.5 3.357-7.5 7.5s3.357 7.5 7.5 7.5h10.957c4.143 0 7.5-3.357 7.5-7.5s-3.357-7.5-7.5-7.5z"/><path d="m157.227 53.601c-2.93-2.928-7.678-2.928-10.607 0-2.929 2.93-2.929 7.678 0 10.607l.578.578c1.465 1.464 3.385 2.196 5.304 2.196s3.839-.732 5.304-2.196c2.929-2.93 2.929-7.678 0-10.607z"/><path d="m483.805 53.601c-2.93-2.928-7.678-2.928-10.607 0l-.578.578c-2.929 2.93-2.929 7.678 0 10.607 1.465 1.464 3.385 2.196 5.304 2.196s3.839-.732 5.304-2.196l.578-.578c2.927-2.929 2.927-7.677-.001-10.607z"/><path d="m146.619 458.4c1.465 1.464 3.385 2.196 5.304 2.196s3.839-.732 5.304-2.196l.578-.578c2.929-2.93 2.929-7.678 0-10.607-2.93-2.928-7.678-2.928-10.607 0l-.578.578c-2.93 2.929-2.93 7.677-.001 10.607z"/><path d="m473.197 458.4c1.465 1.464 3.385 2.196 5.304 2.196s3.839-.732 5.304-2.196c2.929-2.93 2.929-7.678 0-10.607l-.578-.578c-2.93-2.928-7.678-2.928-10.607 0-2.929 2.93-2.929 7.678 0 10.607z"/><path d="m368.62 419.804c0 4.143 3.357 7.5 7.5 7.5h69.517c9.374 0 17-7.626 17-17v-113.943c0-9.374-7.626-17-17-17h-260.85c-9.374 0-17 7.626-17 17v113.943c0 9.374 7.626 17 17 17h161.347c4.143 0 7.5-3.357 7.5-7.5s-3.357-7.5-7.5-7.5h-161.347c-1.103 0-2-.897-2-2v-113.943c0-1.103.897-2 2-2h260.85c1.103 0 2 .897 2 2v113.943c0 1.103-.897 2-2 2h-69.517c-4.142 0-7.5 3.358-7.5 7.5z"/><path d="m500.073 24.786h-45.062c-4.143 0-7.5 3.357-7.5 7.5s3.357 7.5 7.5 7.5h41.989v432.429h-363.577c0-13.828 0-411.856 0-432.429h291.602c4.143 0 7.5-3.357 7.5-7.5s-3.357-7.5-7.5-7.5h-294.674c-6.577 0-11.928 5.351-11.928 11.927v96.154h-101.692c-9.225 0-16.731 7.506-16.731 16.731v76.167c0 4.143 3.357 7.5 7.5 7.5s7.5-3.357 7.5-7.5v-76.167c0-.955.776-1.731 1.731-1.731h101.691v150.516c-19.894 0-76.204 0-101.691 0-.955 0-1.731-.776-1.731-1.731v-40.898c0-4.143-3.357-7.5-7.5-7.5s-7.5 3.357-7.5 7.5v40.898c0 9.226 7.506 16.731 16.731 16.731h14.932v9.517c0 8.595 6.992 15.587 15.586 15.587h11.963v55.513c0 21.07 17.143 38.213 38.213 38.213h20.998v43.074c0 6.576 5.351 11.927 11.928 11.927h369.723c6.576 0 11.927-5.351 11.927-11.927v-438.575c-.001-6.576-5.352-11.926-11.928-11.926zm-453.41 298.113v-9.517h40.098v9.517c0 .323-.264.587-.587.587h-38.925c-.323 0-.586-.264-.586-.587zm50.762 94.314c-12.8 0-23.213-10.413-23.213-23.213v-55.515h11.962c8.595 0 15.587-6.992 15.587-15.587v-9.517h16.662v103.831h-20.998z"/></g></svg>