<svg height="512" viewBox="0 0 60 60" width="512" xmlns="http://www.w3.org/2000/svg"><g id="Page-1" fill="none" fill-rule="evenodd"><g id="043---Open-Folder" fill="rgb(0,0,0)" fill-rule="nonzero"><path id="Shape" d="m5 60h41.14c2.1389444.0004912 4.0403089-1.3622807 4.727-3.388l8.922-26.2c.5441694-1.8141055.0048223-3.7796746-1.389-5.062l1.129-1.293c.4855383-.537257.6086017-1.310292.3138945-1.9717602-.2947071-.6614682-.951747-1.08694-1.6758945-1.0852398h-4.179c-.2612548-4.9659868-2.2703802-9.6795681-5.672-13.307-4.868-5.104-12.376-7.693-22.316-7.693-.5118821.00195802-.9396374.39015207-.991107.89944371s.289967.97522111.791107 1.07955629c3.425034.94371149 6.4008454 3.07876395 8.392 6.021h-7.972c-1.0359743.00093826-1.9996278-.53094104-2.551-1.408l-2.644-4.247c-.9158382-1.46150322-2.5202555-2.34780677-4.245-2.345h-11.78c-2.76005315.00330612-4.99669388 2.23994685-5 5v50c.00330612 2.7600532 2.23994685 4.9966939 5 5zm26.032-57.748c6.874.723 12.179 3 15.814 6.8 3.2650883 3.5085585 5.1030345 8.1094864 5.154 12.902-.0125757.2730931.0872028.5394281.2761195.7370349s.4504982.3092545.7238805.3089651h4.793l-12.146 13.921-11.278-12.621-1.157-1.3h5.788c.5522847 0 1-.4477153 1-1 .0021992-1.6699719-.1187957-3.337831-.362-4.99v-.01c0-.022-.011-.04-.012-.061-1.213-8.11-5.254-12.45-8.594-14.687zm-29.032 2.748c0-1.65685425 1.34314575-3 3-3h11.78c1.0359743-.00093826 1.9996278.53094104 2.551 1.408l2.644 4.247c.9158382 1.46150322 2.5202555 2.3478068 4.245 2.345h9.191c.9701385 1.8894986 1.6581158 3.9109795 2.042 6h-20.113c-2.2026954.0045411-4.1448005 1.4453007-4.788 3.552l-1.89 5.62c-.1756638.5232734.1058676 1.0899168.629 1.266.1027536.0347442.2105317.0523131.319.052.4294448.0001053.8110071-.2739917.948-.681l1.9-5.657c.3818805-1.2737662 1.5522278-2.1476687 2.882-2.152h20.43c.113.945.188 1.943.217 3h-5.154c-.7107393-.0022342-1.3580488.4085847-1.6586116 1.0526479-.3005629.6440632-.199634 1.40406.2586116 1.9473521h-10.093c-2.202422.0044063-4.1444411 1.4446966-4.788 3.551l-7.8 23.13c-.17566382.5232734.10586756 1.0899168.629 1.266.10270092.0350663.21047753.0529728.319.053.4294448.0001053.8110071-.2739917.948-.681l7.811-23.167c.3817731-1.2734134 1.551598-2.1472291 2.881-2.152h11.87l1.79 2h-6c-.5522847 0-1 .4477153-1 1s.4477153 1 1 1h7.783l7.517 8.416c.012.015.026.028.039.042.3415199.3422673.8054904.5341186 1.289.533.5170559-.0032276 1.0112414-.2135806 1.372-.584l10.084-11.553c.7981341.7575625 1.106772 1.8972077.8 2.954l-8.91 26.161c-.4115961 1.214531-1.5516208 2.0315353-2.834 2.031h-41.14c-1.65685425 0-3-1.3431458-3-3z"/><path id="Shape" d="m22 30h2c.5522847 0 1-.4477153 1-1s-.4477153-1-1-1h-2c-.5522847 0-1 .4477153-1 1s.4477153 1 1 1z"/><path id="Shape" d="m5 8c.55228475 0 1-.44771525 1-1v-2c0-.55228475-.44771525-1-1-1s-1 .44771525-1 1v2c0 .55228475.44771525 1 1 1z"/><path id="Shape" d="m9 8c.55228475 0 1-.44771525 1-1v-2c0-.55228475-.44771525-1-1-1s-1 .44771525-1 1v2c0 .55228475.44771525 1 1 1z"/><path id="Shape" d="m13 8c.5522847 0 1-.44771525 1-1v-2c0-.55228475-.4477153-1-1-1s-1 .44771525-1 1v2c0 .55228475.4477153 1 1 1z"/><path id="Shape" d="m17 8c.5522847 0 1-.44771525 1-1v-2c0-.55228475-.4477153-1-1-1s-1 .44771525-1 1v2c0 .55228475.4477153 1 1 1z"/></g></g></svg>