<?xml version="1.0" encoding="utf-8"?>
<!-- Generator: Adobe Illustrator 21.1.0, SVG Export Plug-In . SVG Version: 6.00 Build 0)  -->
<svg version="1.0" id="Capa_1" xmlns="http://www.w3.org/2000/svg" xmlns:xlink="http://www.w3.org/1999/xlink" x="0px" y="0px"
	 viewBox="0 0 512 512" style="enable-background:new 0 0 512 512;" xml:space="preserve">
<g>
	<g>
		<path d="M404.4,118H207.7c-16.2,0-29.3,13.1-29.3,29.3s13.1,29.3,29.3,29.3h196.7c16.2,0,29.3-13.1,29.3-29.3S420.6,118,404.4,118
			z M404.4,157.1H207.7c-5.4,0-9.8-4.4-9.8-9.8s4.4-9.8,9.8-9.8h196.7c5.4,0,9.8,4.4,9.8,9.8S409.8,157.1,404.4,157.1z"/>
	</g>
</g>
<g>
	<g>
		<path d="M404.4,215.7H207.7c-16.2,0-29.3,13.1-29.3,29.3s13.1,29.3,29.3,29.3h196.7c16.2,0,29.3-13.1,29.3-29.3
			S420.6,215.7,404.4,215.7z M404.4,254.8H207.7c-5.4,0-9.8-4.4-9.8-9.8s4.4-9.8,9.8-9.8h196.7c5.4,0,9.8,4.4,9.8,9.8
			S409.8,254.8,404.4,254.8z"/>
	</g>
</g>
<g>
	<g>
		<path d="M404.4,313.4H207.7c-16.2,0-29.3,13.1-29.3,29.3c0,16.2,13.1,29.3,29.3,29.3h196.7c16.2,0,29.3-13.1,29.3-29.3
			C433.7,326.5,420.6,313.4,404.4,313.4z M404.4,352.5H207.7c-5.4,0-9.8-4.4-9.8-9.8s4.4-9.8,9.8-9.8h196.7c5.4,0,9.8,4.4,9.8,9.8
			C414.2,348.1,409.8,352.5,404.4,352.5z"/>
	</g>
</g>
<g>
	<g>
		<path d="M123.6,118c-16.2,0-29.3,13.1-29.3,29.3s13.1,29.3,29.3,29.3s29.3-13.1,29.3-29.3S139.7,118,123.6,118z M123.6,157.1
			c-5.4,0-9.8-4.4-9.8-9.8s4.4-9.8,9.8-9.8c5.4,0,9.8,4.4,9.8,9.8S129,157.1,123.6,157.1z"/>
	</g>
</g>
<g>
	<g>
		<path d="M123.6,226.7c-16.2,0-29.3,13.1-29.3,29.3c0,16.2,13.1,29.3,29.3,29.3s29.3-13.1,29.3-29.3
			C152.9,239.8,139.7,226.7,123.6,226.7z M123.6,265.8c-5.4,0-9.8-4.4-9.8-9.8s4.4-9.8,9.8-9.8c5.4,0,9.8,4.4,9.8,9.8
			C133.3,261.4,129,265.8,123.6,265.8z"/>
	</g>
</g>
<g>
	<path d="M143.6,348.3c1.8,2.4,2.6,5.2,2.6,8.6c0,4.9-1.9,8.7-5.8,11.5c-3.9,2.8-9.1,4.2-15.8,4.2c-3.9,0-7.7-0.5-11.3-1.6
		c-3.6-1.1-6.5-2.5-8.6-4.3l4.5-10.2c4.9,3.3,9.9,5,14.8,5c3.1,0,5.4-0.5,6.7-1.4c1.3-0.9,2-2.5,2-4.7c0-2-0.7-3.5-2-4.4
		c-1.3-0.9-3.5-1.3-6.4-1.3h-8.6v-11.2h7.2c2.9,0,5-0.4,6.3-1.3c1.3-0.8,2-2.2,2-4c0-1.9-0.6-3.4-1.8-4.5c-1.2-1.1-3-1.6-5.2-1.6
		c-2.2,0-4.5,0.4-7,1.3c-2.5,0.9-4.8,2.1-7.1,3.7l-4.5-10.2c2.2-1.8,5.1-3.2,8.7-4.3c3.6-1.1,7.2-1.6,11-1.6c3.9,0,7.4,0.6,10.3,1.9
		c3,1.3,5.3,3,6.9,5.3c1.6,2.3,2.4,5,2.4,8c0,2.9-0.7,5.5-2.2,7.6c-1.5,2.1-3.6,3.7-6.3,4.7C139.4,344.4,141.9,346,143.6,348.3z"/>
</g>
</svg>
