<?xml version="1.0" encoding="utf-8"?>
<!-- Generator: Adobe Illustrator 21.1.0, SVG Export Plug-In . SVG Version: 6.00 Build 0)  -->
<svg version="1.0" id="Capa_1" xmlns="http://www.w3.org/2000/svg" xmlns:xlink="http://www.w3.org/1999/xlink" x="0px" y="0px"
	 viewBox="0 0 512 512" style="enable-background:new 0 0 512 512;" xml:space="preserve">
<g>
	<g>
		<path d="M404.4,118H207.7c-16.2,0-29.3,13.1-29.3,29.3s13.1,29.3,29.3,29.3h196.7c16.2,0,29.3-13.1,29.3-29.3S420.6,118,404.4,118
			z M404.4,157.1H207.7c-5.4,0-9.8-4.4-9.8-9.8s4.4-9.8,9.8-9.8h196.7c5.4,0,9.8,4.4,9.8,9.8S409.8,157.1,404.4,157.1z"/>
	</g>
</g>
<g>
	<g>
		<path d="M404.4,215.7H207.7c-16.2,0-29.3,13.1-29.3,29.3s13.1,29.3,29.3,29.3h196.7c16.2,0,29.3-13.1,29.3-29.3
			S420.6,215.7,404.4,215.7z M404.4,254.8H207.7c-5.4,0-9.8-4.4-9.8-9.8s4.4-9.8,9.8-9.8h196.7c5.4,0,9.8,4.4,9.8,9.8
			S409.8,254.8,404.4,254.8z"/>
	</g>
</g>
<g>
	<g>
		<path d="M123.6,226.7c-16.2,0-29.3,13.1-29.3,29.3c0,16.2,13.1,29.3,29.3,29.3s29.3-13.1,29.3-29.3
			C152.9,239.8,139.7,226.7,123.6,226.7z M123.6,265.8c-5.4,0-9.8-4.4-9.8-9.8s4.4-9.8,9.8-9.8c5.4,0,9.8,4.4,9.8,9.8
			C133.3,261.4,129,265.8,123.6,265.8z"/>
	</g>
</g>
<g>
	<path d="M140.3,156.2v11h-7.2v9.4H119v-9.4H96.7v-10.7l24.8-35.4h11.6v35.1H140.3z M109.6,156.2h9.4v-13.6L109.6,156.2z"/>
</g>
</svg>
