<?xml version="1.0" encoding="utf-8"?>
<!-- Generator: Adobe Illustrator 21.1.0, SVG Export Plug-In . SVG Version: 6.00 Build 0)  -->
<svg version="1.0" id="Capa_1" xmlns="http://www.w3.org/2000/svg" xmlns:xlink="http://www.w3.org/1999/xlink" x="0px" y="0px"
	 viewBox="0 0 512 512" style="enable-background:new 0 0 512 512;" xml:space="preserve">
<style type="text/css">
	.st0{enable-background:new    ;}
</style>
<g>
	<g>
		<path d="M404.4,118H207.7c-16.2,0-29.3,13.1-29.3,29.3s13.1,29.3,29.3,29.3h196.7c16.2,0,29.3-13.1,29.3-29.3S420.6,118,404.4,118
			z M404.4,157.1H207.7c-5.4,0-9.8-4.4-9.8-9.8s4.4-9.8,9.8-9.8h196.7c5.4,0,9.8,4.4,9.8,9.8S409.8,157.1,404.4,157.1z"/>
	</g>
</g>
<g>
	<g>
		<path d="M404.4,215.7H207.7c-16.2,0-29.3,13.1-29.3,29.3s13.1,29.3,29.3,29.3h196.7c16.2,0,29.3-13.1,29.3-29.3
			S420.6,215.7,404.4,215.7z M404.4,254.8H207.7c-5.4,0-9.8-4.4-9.8-9.8s4.4-9.8,9.8-9.8h196.7c5.4,0,9.8,4.4,9.8,9.8
			S409.8,254.8,404.4,254.8z"/>
	</g>
</g>
<g>
	<g>
		<path d="M404.4,313.4H207.7c-16.2,0-29.3,13.1-29.3,29.3c0,16.2,13.1,29.3,29.3,29.3h196.7c16.2,0,29.3-13.1,29.3-29.3
			C433.7,326.5,420.6,313.4,404.4,313.4z M404.4,352.5H207.7c-5.4,0-9.8-4.4-9.8-9.8s4.4-9.8,9.8-9.8h196.7c5.4,0,9.8,4.4,9.8,9.8
			C414.2,348.1,409.8,352.5,404.4,352.5z"/>
	</g>
</g>
<g>
	<g>
		<path d="M129.6,215.7c-16.2,0-29.3,13.1-29.3,29.3s13.1,29.3,29.3,29.3s29.3-13.1,29.3-29.3S145.7,215.7,129.6,215.7z
			 M129.6,254.8c-5.4,0-9.8-4.4-9.8-9.8s4.4-9.8,9.8-9.8c5.4,0,9.8,4.4,9.8,9.8S135,254.8,129.6,254.8z"/>
	</g>
</g>
<g>
	<g>
		<path d="M129.6,313.4c-16.2,0-29.3,13.1-29.3,29.3c0,16.2,13.1,29.3,29.3,29.3s29.3-13.1,29.3-29.3
			C158.9,326.5,145.7,313.4,129.6,313.4z M129.6,352.5c-5.4,0-9.8-4.4-9.8-9.8s4.4-9.8,9.8-9.8c5.4,0,9.8,4.4,9.8,9.8
			C139.3,348.1,135,352.5,129.6,352.5z"/>
	</g>
</g>
<g class="st0">
	<path d="M133.8,165.6h11.4v11.1h-36.8v-11.1h11.4v-27.2l-9,5.2l-5-10l18.1-10.3h9.9V165.6z"/>
</g>
</svg>
