<?xml version="1.0" encoding="utf-8"?>
<!-- Generator: Adobe Illustrator 16.0.0, SVG Export Plug-In . SVG Version: 6.00 Build 0)  -->
<!DOCTYPE svg PUBLIC "-//W3C//DTD SVG 1.1//EN" "http://www.w3.org/Graphics/SVG/1.1/DTD/svg11.dtd">
<svg version="1.1" id="Layer_1" xmlns="http://www.w3.org/2000/svg" xmlns:xlink="http://www.w3.org/1999/xlink" x="0px" y="0px"
	 width="496px" height="496px" viewBox="0 0 496 496" enable-background="new 0 0 496 496" xml:space="preserve">
<path d="M451.018,405.306c7.926-7.312,12.984-17.694,12.984-29.304v-15.999c0-22.055-17.944-39.999-39.999-39.999
	c-19.312,0-35.472,13.769-39.194,31.999h-26.276c-3.313-9.289-12.113-16-22.526-16c-10.418,0-19.219,6.711-22.531,16h-26.276
	c-3.191-15.648-15.547-28-31.19-31.19v-17.945c13.765-3.574,23.999-15.992,23.999-30.862h8c4.422,0,8-3.574,8-8v-24h15.999v-15.999
	h-15.999v-0.086c0-15.305,7.253-30.348,19.901-41.241c22.937-19.785,36.097-48.456,36.097-78.67
	c0-28.574-11.355-55.214-31.968-75.014C299.436,9.195,272.206-1.141,243.719,0.101c-53.999,2.176-98.729,47.94-99.693,102.014
	c-0.555,30.604,12.352,59.756,35.405,79.982c12.688,11.116,20.063,26.327,20.496,41.909h-15.918v15.999h16v24c0,4.426,3.574,8,8,8h8
	c0,14.87,10.229,27.288,23.999,30.862v17.945c-15.648,3.19-27.999,15.542-31.194,31.19h-26.277c-3.313-9.289-12.112-16-22.526-16
	c-10.418,0-19.219,6.711-22.531,16h-26.276c-3.723-18.23-19.874-31.999-39.19-31.999c-22.058,0-39.999,17.944-39.999,39.999v15.999
	c0,11.609,5.055,21.992,12.98,29.304C18.65,416.017,0.014,441.857,0.014,472.001V488c0,4.426,3.574,8,8,8h127.997
	c4.421,0,7.999-3.574,7.999-8v-15.999c0-30.144-18.64-55.983-44.983-66.694c7.926-7.312,12.984-17.694,12.984-29.304v-8h25.468
	c3.313,9.289,12.113,16,22.531,16c10.414,0,19.214-6.711,22.526-16h25.473v8c0,11.609,5.055,21.992,12.979,29.304
	c-26.343,10.711-44.979,36.551-44.979,66.694V488c0,4.426,3.573,8,7.999,8h127.997c4.422,0,8-3.574,8-8v-15.999
	c0-30.144-18.641-55.983-44.983-66.694c7.926-7.312,12.984-17.694,12.984-29.304v-8h25.468c3.313,9.289,12.113,16,22.531,16
	c10.413,0,19.214-6.711,22.526-16h25.472v8c0,11.609,5.055,21.992,12.98,29.304c-26.343,10.711-44.979,36.551-44.979,66.694V488
	c0,4.426,3.574,8,8,8h127.997c4.421,0,7.999-3.574,7.999-8v-15.999C496.001,441.857,477.362,416.017,451.018,405.306z
	 M128.011,472.001v8h-16v-16h-16v16H48.013v-16h-16v16h-16v-8c0-30.87,25.125-55.999,55.999-55.999
	C102.882,416.002,128.011,441.131,128.011,472.001z M48.013,376.003v-15.999c0-13.23,10.765-24,23.999-24
	c13.23,0,23.999,10.77,23.999,24v15.999c0,13.23-10.769,24-23.999,24C58.778,400.003,48.013,389.233,48.013,376.003z
	 M160.01,368.003c-4.418,0-8-3.581-8-7.999c0-4.414,3.582-8,8-8c4.414,0,8,3.586,8,8C168.01,364.422,164.424,368.003,160.01,368.003
	z M189.974,170.062c-19.503-17.109-30.421-41.772-29.948-67.67c0.824-45.749,38.655-84.467,84.334-86.311
	c24.405-0.887,47.167,7.715,64.588,24.456c17.449,16.746,27.059,39.296,27.059,63.472c0,25.558-11.137,49.814-30.547,66.541
	c-16.175,13.953-25.452,33.401-25.452,53.37v0.086h-64.08C215.493,203.823,206.134,184.222,189.974,170.062z M280.007,240.006v16
	h-63.998v-16H280.007z M232.008,272.006h31.999c0,8.823-7.179,15.999-15.999,15.999
	C239.184,288.005,232.008,280.829,232.008,272.006z M304.006,472.001v8h-15.999v-16h-16v16h-47.999v-16h-15.999v16h-16v-8
	c0-30.87,25.124-55.999,55.999-55.999C278.878,416.002,304.006,441.131,304.006,472.001z M224.008,376.003v-15.999
	c0-13.23,10.766-24,24-24c13.229,0,23.999,10.77,23.999,24v15.999c0,13.23-10.77,24-23.999,24
	C234.774,400.003,224.008,389.233,224.008,376.003z M336.006,368.003c-4.418,0-8-3.581-8-7.999c0-4.414,3.582-8,8-8
	c4.413,0,7.999,3.586,7.999,8C344.005,364.422,340.419,368.003,336.006,368.003z M400.004,376.003v-15.999
	c0-13.23,10.765-24,23.999-24c13.23,0,24,10.77,24,24v15.999c0,13.23-10.77,24-24,24
	C410.769,400.003,400.004,389.233,400.004,376.003z M480.002,480.001h-16v-16h-15.999v16h-47.999v-16h-16v16h-15.999v-8
	c0-30.87,25.124-55.999,55.998-55.999c30.87,0,55.999,25.129,55.999,55.999V480.001z"/>
<path d="M232.008,192.008h31.999v15.999h-31.999V192.008z"/>
<path d="M240.008,143.2v16.808h16V143.2c5.093-1.039,9.831-3.07,14.022-5.855l12.32,12.32l11.309-11.313l-12.316-12.32
	c2.781-4.191,4.813-8.926,5.855-14.022h16.808v-16h-16.808c-1.043-5.098-3.074-9.832-5.855-14.023l12.316-12.319l-11.309-11.313
	l-12.32,12.32c-4.191-2.785-8.93-4.816-14.022-5.855V48.01h-16v16.809c-5.098,1.039-9.832,3.07-14.027,5.855l-12.319-12.32
	l-11.309,11.313l12.32,12.319c-2.785,4.191-4.816,8.926-5.859,14.023h-16.805v16h16.805c1.043,5.097,3.074,9.831,5.859,14.022
	l-12.32,12.32l11.309,11.313l12.319-12.32C230.176,140.13,234.91,142.161,240.008,143.2z M248.008,80.01
	c13.229,0,23.999,10.77,23.999,24c0,13.229-10.77,23.999-23.999,23.999c-13.234,0-24-10.77-24-23.999
	C224.008,90.779,234.774,80.01,248.008,80.01z"/>
</svg>
