<?xml version="1.0" encoding="utf-8"?>
<!-- Generator: Adobe Illustrator 16.0.0, SVG Export Plug-In . SVG Version: 6.00 Build 0)  -->
<!DOCTYPE svg PUBLIC "-//W3C//DTD SVG 1.1//EN" "http://www.w3.org/Graphics/SVG/1.1/DTD/svg11.dtd">
<svg version="1.1" id="Layer_5" xmlns="http://www.w3.org/2000/svg" xmlns:xlink="http://www.w3.org/1999/xlink" x="0px" y="0px"
	 width="512px" height="512px" viewBox="0 0 512 512" enable-background="new 0 0 512 512" xml:space="preserve">
<g>
	<path d="M120,408c-4.408,0-8-3.584-8-8H96c0,13.232,10.768,24,24,24v16h16v-16h24v-24c0-13.231-10.769-24-24-24h-16
		c-4.408,0-8-3.584-8-8v-8h24c4.408,0,8,3.585,8,8h16c0-13.231-10.769-24-24-24v-16h-16v16H96v24c0,13.232,10.768,24,24,24h16
		c4.408,0,8,3.585,8,8v8H120z"/>
	<path d="M128,456c-39.696,0-72-32.296-72-72c0-16.592,5.792-32.791,16.304-45.615L59.928,328.24C47.08,343.921,40,363.72,40,384
		c0,48.521,39.479,88,88,88c20.288,0,40.088-7.079,55.76-19.928l-10.152-12.376C160.792,450.208,144.592,456,128,456z"/>
	<path d="M128,296c-20.288,0-40.088,7.08-55.76,19.929l10.151,12.376C95.208,317.793,111.408,312,128,312c39.695,0,72,32.297,72,72
		c0,16.593-5.792,32.793-16.305,45.616l12.376,10.145C208.92,424.08,216,404.28,216,384C216,335.48,176.52,296,128,296z"/>
	<path d="M464,8H112C89.944,8,72,25.944,72,48v229.952C33.984,298.104,8,338.056,8,384c0,66.169,53.832,120,120,120
		s120-53.831,120-120c0-20.224-5.08-39.264-13.952-56H464c22.056,0,40-17.943,40-40V48C504,25.944,486.056,8,464,8z M128,488
		c-57.345,0-104-46.655-104-104c0-57.344,46.655-104,104-104c57.344,0,104,46.656,104,104C232,441.344,185.344,488,128,488z
		 M128,264c-2.704,0-5.345,0.232-8,0.408V87.192c15.647-3.185,28.008-15.544,31.191-31.192H424.8
		c3.184,15.648,15.544,28.008,31.191,31.192V248.8c-15.647,3.185-28.008,15.545-31.191,31.192H187.608
		C170.024,269.88,149.704,264,128,264L128,264z M488,288c0,13.232-10.769,24-24,24H223.776c-4.344-5.76-9.176-11.111-14.464-16H440
		v-8c0-13.231,10.768-24,24-24h8V72h-8c-13.232,0-24-10.768-24-24v-8H136v8c0,13.232-10.769,24-24,24h-8v194.416
		c-5.496,1.12-10.8,2.736-16,4.584V48c0-13.231,10.768-24,24-24h352c13.231,0,24,10.769,24,24V288z"/>
	<path d="M424,72H152v64h272V72z M408,120H168V88h240V120z"/>
	<path d="M288,184c-22.057,0-40,17.944-40,40c0,22.057,17.943,40,40,40c22.056,0,40-17.943,40-40C328,201.944,310.056,184,288,184z
		 M288,248c-13.232,0-24-10.768-24-24c0-13.231,10.768-24,24-24c13.231,0,24,10.769,24,24C312,237.232,301.232,248,288,248z"/>
	<path d="M136,152h16v16h-16V152z"/>
	<path d="M168,152h272v16H168V152z"/>
	<path d="M344,184h96v16h-96V184z"/>
	<path d="M344,216h96v16h-96V216z"/>
	<path d="M136,184h96v16h-96V184z"/>
	<path d="M136,216h96v16h-96V216z"/>
</g>
</svg>
