<?xml version="1.0" encoding="utf-8"?>
<!-- Generator: Adobe Illustrator 16.0.0, SVG Export Plug-In . SVG Version: 6.00 Build 0)  -->
<!DOCTYPE svg PUBLIC "-//W3C//DTD SVG 1.1//EN" "http://www.w3.org/Graphics/SVG/1.1/DTD/svg11.dtd">
<svg version="1.1" id="Layer_1" xmlns="http://www.w3.org/2000/svg" xmlns:xlink="http://www.w3.org/1999/xlink" x="0px" y="0px"
	 width="512px" height="512px" viewBox="0 0 512 512" enable-background="new 0 0 512 512" xml:space="preserve">
<g id="work_time">
	<path d="M292.28,32H360V16h-72c-2.675,0-5.172,1.336-6.656,3.561l-16,24l13.312,8.88L292.28,32z"/>
	<path d="M219.72,480H152v16h72c2.674,0.001,5.172-1.335,6.655-3.56l16-24l-13.312-8.88L219.72,480z"/>
	<path d="M344,192c-27.839-0.036-55.14,7.664-78.856,22.24l-4.151-5.816c1.75-3.665,3.302-7.423,4.647-11.256l31.68-5.279
		c3.854-0.646,6.68-3.98,6.681-7.889v-48c-0.001-3.907-2.826-7.243-6.681-7.888l-31.68-5.28c-1.346-3.833-2.897-7.59-4.647-11.256
		l18.655-26.12c2.271-3.183,1.909-7.54-0.855-10.304l-33.944-33.944c-2.764-2.765-7.121-3.126-10.304-0.855l-26.12,18.655
		c-3.666-1.737-7.424-3.275-11.256-4.607l-5.28-31.68c-0.627-3.871-3.967-6.716-7.888-6.721h-48
		c-3.908,0.001-7.243,2.826-7.889,6.681l-5.279,31.68c-3.833,1.346-7.591,2.897-11.256,4.647l-26.12-18.655
		c-3.183-2.271-7.54-1.909-10.305,0.855L41.208,75.152c-2.765,2.764-3.127,7.121-0.856,10.304l18.744,26.24
		c-1.737,3.614-3.268,7.324-4.584,11.112l-31.832,5.304c-3.854,0.645-6.679,3.979-6.68,7.888v48c0.001,3.908,2.825,7.243,6.68,7.889
		l31.824,5.304c1.311,3.808,2.813,7.545,4.504,11.2l-18.656,26.151c-2.271,3.183-1.908,7.54,0.856,10.305l33.943,33.943
		c2.765,2.765,7.122,3.127,10.305,0.856l26.12-18.656c3.665,1.751,7.423,3.303,11.256,4.648l5.279,31.68
		c0.646,3.854,3.98,6.679,7.889,6.68h48c3.908-0.001,7.243-2.825,7.888-6.68l5.28-31.68c3.833-1.346,7.59-2.897,11.256-4.648
		l5.815,4.152C199.663,288.861,191.964,316.162,192,344c0,83.948,68.053,152,152,152s152-68.052,152-152
		C496,260.052,427.948,192,344,192z M205.344,244.616c-5.61,3-11.507,5.434-17.6,7.264c-2.924,0.874-5.097,3.335-5.601,6.345
		L177.224,288h-34.448l-4.96-29.775c-0.504-3.01-2.676-5.471-5.6-6.345c-6.094-1.83-11.989-4.264-17.6-7.264
		c-2.684-1.441-5.953-1.233-8.433,0.536l-24.56,17.536l-24.313-24.353l17.536-24.56c1.77-2.479,1.978-5.749,0.536-8.432
		c-2.995-5.754-5.467-11.765-7.384-17.961c-0.976-2.731-3.354-4.722-6.216-5.199L32,177.224v-34.448l29.775-4.96
		c2.862-0.479,5.24-2.468,6.217-5.2c2.06-6.286,4.592-12.407,7.575-18.312c1.245-2.625,0.97-5.718-0.72-8.08L57.312,81.664
		l24.353-24.352l24.56,17.536c2.479,1.769,5.749,1.977,8.432,0.536c5.611-3.001,11.507-5.434,17.601-7.265
		c2.924-0.873,5.096-3.334,5.6-6.344L142.776,32h34.448l4.96,29.776c0.504,3.01,2.677,5.471,5.601,6.344
		c6.093,1.831,11.989,4.264,17.6,7.265c2.684,1.44,5.952,1.232,8.432-0.536l24.561-17.536l24.352,24.352l-17.536,24.561
		c-1.769,2.479-1.977,5.748-0.535,8.432c3,5.61,5.433,11.507,7.264,17.6c0.873,2.924,3.334,5.097,6.344,5.601l29.776,4.96v34.448
		l-29.776,4.96c-3.01,0.504-5.471,2.676-6.344,5.6c-1.831,6.094-4.264,11.989-7.264,17.6c-1.441,2.684-1.233,5.953,0.535,8.433
		l17.536,24.56l-24.352,24.353l-24.561-17.536C211.343,243.421,208.053,243.181,205.344,244.616z M352,479.593V456h-16v23.593
		C267.307,475.483,212.517,420.693,208.408,352H232v-16h-23.704c1.228-21.752,7.741-42.877,18.976-61.544l7.272,5.192
		c3.183,2.271,7.54,1.908,10.304-0.856l33.944-33.943c2.765-2.765,3.126-7.122,0.855-10.305l-5.191-7.271
		c18.666-11.235,39.791-17.749,61.544-18.977V232h16v-23.592c68.692,4.109,123.482,58.898,127.592,127.592H456v16h23.592
		C475.483,420.693,420.693,475.483,352,479.593z"/>
	<path d="M352,248h-16v96c0,4.419,3.581,8,8,8h64v-16h-56V248z"/>
	<path d="M200,136h-32V88c-0.003-4.418-3.587-7.997-8.005-7.995c-3.133,0.002-5.977,1.833-7.275,4.684l-40,88
		c-1.829,4.021-0.052,8.765,3.971,10.594c1.039,0.473,2.167,0.718,3.31,0.718h32v48c-0.003,3.768,2.622,7.025,6.304,7.824
		c0.558,0.117,1.126,0.177,1.696,0.176c3.136-0.001,5.981-1.833,7.279-4.688l40-88c1.83-4.022,0.052-8.766-3.97-10.595
		C202.271,136.245,201.142,136.001,200,136z M168,195.064V176c0-4.418-3.582-8-8-8h-27.576L152,124.936V144c0,4.419,3.581,8,8,8
		h27.576L168,195.064z"/>
	<rect x="152" y="48" width="16" height="16"/>
	<rect x="78.463" y="78.463" transform="matrix(-0.7071 0.7071 -0.7071 -0.7071 208.74 86.4643)" width="16" height="16"/>
	<rect x="48" y="152" width="16" height="16"/>
	<rect x="78.458" y="225.532" transform="matrix(-0.7071 0.7071 -0.7071 -0.7071 312.73 337.519)" width="16" height="16"/>
	<rect x="152" y="256" width="16" height="16"/>
	<rect x="225.534" y="225.536" transform="matrix(-0.7071 0.7071 -0.7071 -0.7071 563.8022 233.5373)" width="16" height="16"/>
	<rect x="256" y="152" width="16" height="16"/>
	<rect x="225.538" y="78.469" transform="matrix(-0.7071 0.7071 -0.7071 -0.7071 459.8173 -17.5256)" width="16" height="16"/>
	<path d="M424,56c-17.674,0-32,14.327-32,32c0,17.674,14.326,32,32,32c17.673,0,32-14.326,32-32C456,70.327,441.673,56,424,56z
		 M424,104c-8.837,0-16-7.163-16-16c0-8.836,7.163-16,16-16c8.836,0,16,7.164,16,16C440,96.837,432.836,104,424,104z"/>
	<path d="M489.944,64.24l-5.352-1.336l2.84-4.728c1.889-3.15,1.391-7.182-1.208-9.776L463.6,25.776
		c-2.595-2.599-6.627-3.098-9.776-1.208l-4.728,2.84l-1.336-5.352C446.868,18.497,443.669,16,440,16h-32
		c-3.67,0-6.869,2.497-7.761,6.057l-1.336,5.352l-4.728-2.84c-3.149-1.89-7.181-1.391-9.776,1.208L361.776,48.4
		c-2.599,2.595-3.097,6.626-1.208,9.776l2.841,4.728l-5.353,1.336C354.496,65.132,352,68.331,352,72v32
		c0,3.67,2.496,6.868,6.056,7.761l5.353,1.336l-2.841,4.728c-1.889,3.149-1.391,7.181,1.208,9.776l22.624,22.624
		c2.596,2.599,6.627,3.097,9.776,1.208l4.728-2.841l1.336,5.353c0.892,3.56,4.091,6.056,7.761,6.056h32
		c3.669,0,6.868-2.496,7.76-6.056l1.336-5.353l4.728,2.841c3.149,1.889,7.182,1.391,9.776-1.208l22.624-22.624
		c2.599-2.596,3.097-6.627,1.208-9.776l-2.84-4.728l5.352-1.336c3.56-0.893,6.056-4.091,6.057-7.761V72
		C495.999,68.331,493.503,65.132,489.944,64.24z M480,97.752l-9.769,2.4c-4.285,1.074-6.889,5.42-5.814,9.705
		c0.192,0.766,0.496,1.498,0.902,2.175l5.176,8.632l-13.792,13.792l-8.632-5.176c-3.787-2.275-8.702-1.05-10.978,2.737
		c-0.406,0.677-0.71,1.409-0.902,2.175L433.752,144h-19.505l-2.399-9.768c-1.074-4.286-5.42-6.889-9.705-5.814
		c-0.766,0.191-1.499,0.496-2.175,0.902l-8.632,5.176l-13.792-13.792l5.176-8.632c2.275-3.787,1.05-8.702-2.737-10.978
		c-0.677-0.406-1.409-0.711-2.175-0.902L368,97.752V78.248l9.768-2.399c4.286-1.075,6.889-5.42,5.814-9.706
		c-0.191-0.765-0.496-1.498-0.902-2.174l-5.176-8.633l13.792-13.792l8.632,5.177c3.787,2.274,8.702,1.047,10.977-2.74
		c0.407-0.679,0.712-1.413,0.903-2.181l2.399-9.76h19.505l2.399,9.76c1.07,4.287,5.414,6.895,9.7,5.823
		c0.768-0.191,1.502-0.496,2.18-0.902l8.632-5.177l13.792,13.792l-5.176,8.633c-2.275,3.787-1.05,8.701,2.737,10.978
		c0.677,0.406,1.409,0.71,2.175,0.902l9.769,2.399L480,97.752z"/>
	<path d="M88,392c-17.674,0-32,14.327-32,32c0,17.674,14.326,32,32,32c17.673,0,32-14.326,32-32C120,406.327,105.673,392,88,392z
		 M88,440c-8.837,0-16-7.163-16-16c0-8.836,7.163-16,16-16c8.836,0,16,7.164,16,16C104,432.837,96.836,440,88,440z"/>
	<path d="M151.432,453.824l-2.84-4.728l5.352-1.336c3.56-0.892,6.057-4.091,6.057-7.761v-32c0-3.669-2.497-6.868-6.057-7.76
		l-5.352-1.336l2.84-4.728c1.89-3.149,1.391-7.182-1.208-9.776L127.6,361.776c-2.595-2.599-6.626-3.097-9.775-1.208l-4.729,2.84
		l-1.336-5.352c-0.892-3.56-4.091-6.056-7.76-6.057H72c-3.67,0.001-6.868,2.497-7.76,6.057l-1.337,5.352l-4.728-2.84
		c-3.149-1.889-7.181-1.391-9.776,1.208L25.776,384.4c-2.599,2.595-3.097,6.627-1.208,9.776l2.841,4.728l-5.353,1.336
		C18.496,401.132,16,404.331,16,408v32c0,3.67,2.496,6.869,6.056,7.761l5.353,1.336l-2.841,4.728
		c-1.889,3.15-1.391,7.182,1.208,9.776L48.4,486.224c2.596,2.599,6.627,3.097,9.776,1.208l4.728-2.84l1.337,5.352
		C65.132,493.504,68.33,496,72,496h32c3.669,0,6.868-2.496,7.76-6.056l1.336-5.352l4.729,2.84c3.149,1.889,7.181,1.391,9.775-1.208
		l22.624-22.624C152.823,461.006,153.322,456.974,151.432,453.824z M144,433.753l-9.769,2.399c-4.285,1.074-6.889,5.42-5.814,9.705
		c0.192,0.766,0.496,1.499,0.902,2.175l5.177,8.632l-13.792,13.792l-8.633-5.176c-3.787-2.275-8.701-1.05-10.978,2.737
		c-0.406,0.677-0.71,1.409-0.902,2.175L97.752,480H78.248l-2.4-9.768c-1.074-4.285-5.42-6.889-9.705-5.814
		c-0.766,0.192-1.498,0.496-2.175,0.902l-8.632,5.176l-13.832-13.792l5.176-8.632c2.275-3.787,1.05-8.702-2.737-10.978
		c-0.677-0.406-1.409-0.71-2.175-0.902L32,433.753v-19.505l9.768-2.399c4.286-1.074,6.889-5.42,5.814-9.705
		c-0.191-0.766-0.496-1.499-0.902-2.175l-5.176-8.632l13.792-13.792l8.632,5.176c3.788,2.274,8.702,1.048,10.977-2.74
		c0.407-0.678,0.712-1.413,0.903-2.18l2.4-9.761h19.504l2.399,9.761c1.071,4.286,5.414,6.894,9.7,5.823
		c0.768-0.192,1.502-0.496,2.181-0.903l8.632-5.176l13.792,13.792l-5.177,8.632c-2.275,3.787-1.05,8.702,2.737,10.978
		c0.677,0.406,1.41,0.71,2.175,0.902l9.769,2.399L144,433.753z"/>
</g>
</svg>
