<?xml version="1.0" encoding="utf-8"?>
<!-- Generator: Adobe Illustrator 16.0.0, SVG Export Plug-In . SVG Version: 6.00 Build 0)  -->
<!DOCTYPE svg PUBLIC "-//W3C//DTD SVG 1.1//EN" "http://www.w3.org/Graphics/SVG/1.1/DTD/svg11.dtd">
<svg version="1.1" id="Capa_1" xmlns="http://www.w3.org/2000/svg" xmlns:xlink="http://www.w3.org/1999/xlink" x="0px" y="0px"
	 width="841.889px" height="595.281px" viewBox="0 0 841.889 595.281" enable-background="new 0 0 841.889 595.281"
	 xml:space="preserve">
<g>
	<g>
		<path d="M172.911,575.438v-65.343l98.896-98.886l52.286,61.513c1.884,2.22,4.647,3.501,7.56,3.502
			c0.522,0.001,1.043-0.042,1.558-0.129c3.424-0.543,6.316-2.834,7.63-6.042l50.231-122.807h178.693c3.42,0,6.6-1.762,8.413-4.663
			l15.398-24.684l56.402,112.795l-35.519-10.179l-5.467,19.078l57.227,16.4c0.896,0.262,1.824,0.392,2.758,0.387
			c4.42-0.005,8.305-2.934,9.524-7.183l16.41-57.227l-19.068-5.467l-9.386,32.74l-60.521-121.04l57.762-92.428l5.864,33.188
			l19.524-3.453l-10.338-58.625c-0.952-5.394-6.095-8.995-11.488-8.046l-58.625,10.338l3.452,19.545l36.709-6.469l-53.238,85.125
			l-16.866-33.732c-1.675-3.399-5.139-5.547-8.929-5.536h-148.82c-4.032-0.001-7.663,2.438-9.188,6.171l-34,83.121h-46.104
			c-2.632,0-5.154,1.047-7.015,2.907l-51.65,51.66L172.911,264.235V0h-19.843v19.843h-29.764v19.843h29.764v119.056h-29.764v19.843
			h29.764V297.64h-29.764v19.843h29.764v119.056h-29.764v19.843h29.764v128.978c0,5.479,4.442,9.922,9.922,9.922h555.594v-19.843
			H172.911z M427.602,257.955h136.031l19.575,39.14l-18.95,30.31H399.187L427.602,257.955z M335.76,347.247h33.882l-40.966,100.206
			l-42.771-50.321L335.76,347.247z M172.911,294.862l85.998,101.178l-85.998,85.999V294.862z"/>
	</g>
</g>
<g>
	<g>
		<rect x="520.158" y="19.843" width="19.842" height="19.843"/>
	</g>
</g>
<g>
	<g>
		<rect x="559.843" y="19.843" width="119.057" height="19.843"/>
	</g>
</g>
<g>
	<g>
		<rect x="520.158" y="59.528" width="158.741" height="19.843"/>
	</g>
</g>
<g>
	<g>
		<rect x="520.158" y="99.214" width="158.741" height="19.843"/>
	</g>
</g>
</svg>
