<?xml version="1.0" encoding="utf-8"?>
<!-- Generator: Adobe Illustrator 16.0.0, SVG Export Plug-In . SVG Version: 6.00 Build 0)  -->
<!DOCTYPE svg PUBLIC "-//W3C//DTD SVG 1.1//EN" "http://www.w3.org/Graphics/SVG/1.1/DTD/svg11.dtd">
<svg version="1.1" id="Layer_1" xmlns="http://www.w3.org/2000/svg" xmlns:xlink="http://www.w3.org/1999/xlink" x="0px" y="0px"
	 width="512px" height="512px" viewBox="0 0 512 512" enable-background="new 0 0 512 512" xml:space="preserve">
<g id="Page-1">
	<g id="_x30_30---Cheque">
		<path id="Shape" d="M494.933,85.334H119.467V17.067C119.467,7.641,111.825,0,102.4,0H51.2C22.935,0.028,0.029,22.934,0,51.2v256
			c0.028,28.266,22.935,51.172,51.2,51.2h443.732c9.426,0,17.067-7.641,17.067-17.066V102.4
			C512,92.974,504.359,85.334,494.933,85.334z M51.2,17.067H102.4v68.267H51.2c-18.852,0-34.134-15.282-34.134-34.134
			S32.349,17.067,51.2,17.067z M494.933,341.334H51.2c-18.852,0-34.134-15.282-34.134-34.134V89.259
			c9.358,8.455,21.521,13.138,34.134,13.142h443.732V341.334z"/>
		<path id="Shape_1_" d="M51.2,136.533c0,4.713,3.82,8.534,8.533,8.534H128c4.713,0,8.533-3.821,8.533-8.534S132.713,128,128,128
			H59.734C55.021,128,51.2,131.82,51.2,136.533z"/>
		<path id="Shape_2_" d="M162.133,145.067h8.533c4.713,0,8.534-3.821,8.534-8.534S175.379,128,170.666,128h-8.533
			c-4.713,0-8.533,3.82-8.533,8.533S157.42,145.067,162.133,145.067z"/>
		<path id="Shape_3_" d="M51.2,187.733c0,4.713,3.82,8.533,8.533,8.533H281.6c4.713,0,8.533-3.82,8.533-8.533
			s-3.82-8.533-8.533-8.533H59.734C55.021,179.2,51.2,183.02,51.2,187.733z"/>
		<path id="Shape_4_" d="M59.734,230.4h34.133c4.713,0,8.533-3.82,8.533-8.533s-3.82-8.533-8.533-8.533H59.734
			c-4.713,0-8.533,3.82-8.533,8.533S55.021,230.4,59.734,230.4z"/>
		<path id="Shape_5_" d="M119.467,221.867c0,4.713,3.82,8.533,8.533,8.533h179.2c4.712,0,8.533-3.82,8.533-8.533
			s-3.821-8.533-8.533-8.533H128C123.287,213.334,119.467,217.154,119.467,221.867z"/>
		<path id="Shape_6_" d="M307.2,307.2h-68.268c-4.712,0-8.533,3.821-8.533,8.533c0,4.713,3.821,8.534,8.533,8.534H307.2
			c4.712,0,8.533-3.821,8.533-8.534C315.734,311.021,311.912,307.2,307.2,307.2z"/>
		<path id="Shape_7_" d="M204.8,307.2h-25.6c-4.713,0-8.534,3.821-8.534,8.533c0,4.713,3.821,8.534,8.534,8.534h25.6
			c4.713,0,8.533-3.821,8.533-8.534C213.333,311.021,209.513,307.2,204.8,307.2z"/>
		<path id="Shape_8_" d="M290.133,256c0-4.713-3.82-8.533-8.533-8.533H59.734c-4.713,0-8.533,3.82-8.533,8.533
			s3.82,8.533,8.533,8.533H281.6C286.313,264.533,290.133,260.713,290.133,256z"/>
		<path id="Shape_9_" d="M401.067,230.4c12.92-1.051,24.304,8.436,25.6,21.333c-1.296,12.898-12.68,22.384-25.6,21.334
			c-8.734,0.21-17.03-3.826-22.255-10.829c-2.665-3.891-7.979-4.884-11.87-2.219s-4.884,7.979-2.219,11.87
			c6.576,9.277,16.59,15.54,27.811,17.391v9.387c0,4.713,3.82,8.533,8.533,8.533s8.533-3.82,8.533-8.533v-9.31
			c18.958-2.677,33.31-18.495,34.133-37.624c-1.262-22.346-20.312-39.49-42.666-38.399c-12.92,1.051-24.304-8.436-25.6-21.334
			c1.296-12.897,12.68-22.384,25.6-21.333c8.734-0.211,17.029,3.826,22.255,10.829c2.665,3.89,7.979,4.884,11.87,2.219
			c3.89-2.666,4.884-7.979,2.219-11.87c-6.576-9.278-16.59-15.54-27.811-17.392v-9.386c0-4.713-3.82-8.534-8.533-8.534
			s-8.533,3.821-8.533,8.534v9.31c-18.958,2.676-33.31,18.495-34.134,37.623C359.662,214.345,378.712,231.49,401.067,230.4z"/>
		<path id="Shape_10_" d="M469.333,409.6v-8.533c0-14.139-11.462-25.601-25.601-25.601H307.2c-4.713,0-8.534,3.821-8.534,8.534
			c0,4.712,3.821,8.533,8.534,8.533h136.532c4.713,0,8.534,3.82,8.534,8.533v8.533H290.133c-6.069,0.019-11.67,3.271-14.694,8.533
			H93.866c-0.11,0-0.213,0.06-0.324,0.068c-1.015,0.014-2.019,0.213-2.961,0.589l-62.806,26.163
			c-3.507,1.438-6.429,4.013-8.294,7.313H8.533c-4.713,0-8.533,3.82-8.533,8.533s3.82,8.533,8.533,8.533h10.939
			c1.841,3.277,4.733,5.839,8.209,7.271l62.849,26.18c1.055,0.45,2.189,0.682,3.336,0.683h181.572
			c3.024,5.264,8.625,8.516,14.694,8.533h179.2c23.553-0.027,42.639-19.113,42.667-42.666v-17.066
			C511.972,428.715,492.886,409.629,469.333,409.6z M34.253,460.749l51.08-21.282v42.667l-51.2-21.273v-0.06L34.253,460.749z
			 M102.4,435.2h17.067c0,4.713,3.82,8.533,8.533,8.533s8.533-3.82,8.533-8.533H153.6c0,4.713,3.82,8.533,8.533,8.533
			s8.533-3.82,8.533-8.533h102.4v51.2h-102.4v-17.066c0-4.713-3.82-8.533-8.533-8.533s-8.533,3.82-8.533,8.533V486.4h-17.066
			v-17.066c0-4.713-3.82-8.533-8.533-8.533s-8.533,3.82-8.533,8.533V486.4H102.4V435.2z M494.933,469.334
			c0,14.139-11.461,25.6-25.6,25.6h-179.2v-68.267h179.2c14.139,0,25.6,11.462,25.6,25.601V469.334z"/>
	</g>
</g>
</svg>
