<?xml version="1.0" encoding="utf-8"?>
<!-- Generator: Adobe Illustrator 16.0.0, SVG Export Plug-In . SVG Version: 6.00 Build 0)  -->
<!DOCTYPE svg PUBLIC "-//W3C//DTD SVG 1.1//EN" "http://www.w3.org/Graphics/SVG/1.1/DTD/svg11.dtd">
<svg version="1.1" id="Capa_1" xmlns="http://www.w3.org/2000/svg" xmlns:xlink="http://www.w3.org/1999/xlink" x="0px" y="0px"
	 width="512px" height="512px" viewBox="0 0 512 512" enable-background="new 0 0 512 512" xml:space="preserve">
<g>
	<g>
		<g>
			<g>
				<path d="M71.962,471.991c-4.424,0-8-3.576-8-8V39.969c0-4.424,3.576-8,8-8c4.423,0,7.999,3.576,7.999,8V463.99
					C79.961,468.415,76.385,471.991,71.962,471.991z"/>
			</g>
			<g>
				<path d="M360.05,471.991c-4.424,0-8-3.576-8-8V39.969c0-4.424,3.576-8,8-8s8,3.576,8,8V463.99
					C368.05,468.415,364.474,471.991,360.05,471.991z"/>
			</g>
			<g>
				<path d="M320.089,368.188h-23.984c-4.424,0-8-3.576-8-8s3.576-8,8-8h23.984c4.423,0,7.999,3.576,7.999,8
					S324.505,368.188,320.089,368.188L320.089,368.188z"/>
			</g>
			<g>
				<path d="M151.963,368.188h-40.001c-4.424,0-8-3.576-8-8s3.576-8,8-8h40.001c4.424,0,8,3.576,8,8
					S156.387,368.188,151.963,368.188L151.963,368.188z"/>
			</g>
			<g>
				<path d="M320.089,336.162h-23.984c-4.424,0-8-3.576-8-8c0-4.423,3.576-7.999,8-7.999h23.984c4.423,0,7.999,3.576,7.999,7.999
					C328.088,332.586,324.505,336.162,320.089,336.162L320.089,336.162z"/>
			</g>
			<g>
				<path d="M192.004,336.162h-80.042c-4.424,0-8-3.576-8-8c0-4.423,3.576-7.999,8-7.999h80.042c4.424,0,8,3.576,8,7.999
					C200.004,332.586,196.43,336.162,192.004,336.162L192.004,336.162z"/>
			</g>
			<g>
				<path d="M320.089,400.188h-23.984c-4.424,0-8-3.576-8-8c0-4.423,3.576-7.999,8-7.999h23.984c4.423,0,7.999,3.576,7.999,7.999
					C328.088,396.612,324.505,400.188,320.089,400.188z"/>
			</g>
			<g>
				<path d="M200.021,400.188h-88.059c-4.424,0-8-3.576-8-8c0-4.423,3.576-7.999,8-7.999h88.059c4.424,0,8,3.576,8,7.999
					C208.021,396.612,204.446,400.188,200.021,400.188L200.021,400.188z"/>
			</g>
			<g>
				<path d="M320.048,303.928H111.962c-4.424,0-8-3.576-8-7.999c0-4.424,3.576-8,8-8h208.086c4.424,0,8,3.576,8,8
					C328.048,300.352,324.473,303.928,320.048,303.928L320.048,303.928z"/>
			</g>
			<g>
				<path d="M320.089,432.078h-23.984c-4.424,0-8-3.576-8-8s3.576-8,8-8h23.984c4.423,0,7.999,3.576,7.999,8
					S324.505,432.078,320.089,432.078z"/>
			</g>
			<g>
				<path d="M135.948,432.078h-23.985c-4.424,0-8-3.576-8-8s3.576-8,8-8h23.984c4.423,0,7.999,3.576,7.999,8
					S140.371,432.078,135.948,432.078z"/>
			</g>
			<g>
				<path d="M368.066,471.991H63.946c-4.424,0-8-3.576-8-8c0-4.423,3.576-7.999,8-7.999h304.12c4.424,0,8,3.576,8,7.999
					C376.066,468.415,372.49,471.991,368.066,471.991z"/>
			</g>
			<g>
				<path d="M423.988,47.97c-4.424,0-8-3.576-8-8c0-13.217-10.744-23.97-23.952-23.97c-13.225,0-23.984,10.753-23.984,23.97
					c0,4.424-3.576,8-8,8c-4.423,0-7.999-3.576-7.999-8C352.05,17.928,369.987,0,392.035,0c22.032,0,39.953,17.929,39.953,39.969
					C431.988,44.394,428.411,47.97,423.988,47.97z"/>
			</g>
			<g>
				<path d="M456.053,191.974c-22.041,0-39.969-17.929-39.969-39.969c0-4.424,3.576-8,7.999-8c4.424,0,8,3.576,8,8
					c0,13.217,10.753,23.97,23.97,23.97s23.969-10.753,23.969-23.97c0-4.424,3.576-8,8-8s8,3.576,8,8
					C496.022,174.046,478.093,191.974,456.053,191.974L456.053,191.974z"/>
			</g>
			<g>
				<path d="M71.993,47.97c-4.424,0-8-3.576-8-8C63.993,17.928,81.922,0,103.962,0c4.424,0,8,3.576,8,8s-3.576,8-8,8
					c-13.217,0-23.97,10.752-23.97,23.969C79.992,44.394,76.417,47.97,71.993,47.97z"/>
			</g>
			<g>
				<path d="M392.035,16.001H103.962c-4.424,0-8-3.576-8-7.999c0-4.424,3.576-8.002,8-8.002h288.073c4.424,0,7.999,3.576,7.999,8
					S396.459,16.001,392.035,16.001z"/>
			</g>
			<g>
				<path d="M423.988,160.006c-4.424,0-8-3.576-8-8V39.969c0-4.424,3.576-8,8-8s8,3.576,8,8v112.035
					C431.988,156.429,428.411,160.006,423.988,160.006z"/>
			</g>
			<g>
				<path d="M456.053,191.974h-96.051c-4.424,0-8-3.576-8-8s3.576-8,8-8h96.051c4.423,0,7.999,3.576,7.999,8
					S460.476,191.974,456.053,191.974z"/>
			</g>
			<g>
				<path d="M488.022,160.006c-4.424,0-8-3.576-8-8v-40.019c0-4.423,3.576-7.999,8-7.999s8,3.576,8,7.999v40.017
					C496.022,156.429,492.446,160.006,488.022,160.006z"/>
			</g>
			<g>
				<path d="M392.019,512H39.976c-13.231,0-24-10.769-24-24v-48.042c0-13.232,10.769-24.001,24-24.001h31.986
					c4.423,0,7.999,3.576,7.999,8s-3.576,8-7.999,8H39.976c-4.416,0-7.999,3.583-7.999,7.999v48.042c0,4.416,3.583,8,7.999,8
					h352.043c4.416,0,8-3.584,8-8v-48.042c0-4.416-3.576-7.999-7.969-7.999h-31.985c-4.424,0-8-3.576-8-8s3.576-8,8-8h31.985
					c13.217,0,23.97,10.769,23.97,24.001V488C416.02,501.231,405.25,512,392.019,512z"/>
			</g>
			<g>
				<path d="M488.022,119.987c-2.048,0-4.097-0.784-5.657-2.345l-15.999-15.999c-3.128-3.128-3.128-8.185,0-11.313
					c3.128-3.127,8.185-3.127,11.312,0l16.001,16.001c3.128,3.128,3.128,8.185,0,11.313
					C492.118,119.204,490.069,119.987,488.022,119.987L488.022,119.987z"/>
			</g>
			<g>
				<path d="M456.053,119.964c-2.048,0-4.097-0.785-5.657-2.345c-3.128-3.128-3.128-8.185,0-11.313l15.968-15.977
					c3.128-3.128,8.185-3.128,11.313,0c3.127,3.128,3.127,8.185,0,11.312l-15.969,15.978
					C460.149,119.18,458.1,119.964,456.053,119.964z"/>
			</g>
			<g>
				<path d="M455.989,119.987c-2.048,0-4.097-0.784-5.657-2.345l-15.999-15.999c-3.128-3.128-3.128-8.185,0-11.313
					c3.127-3.127,8.184-3.127,11.312,0l16.001,16.001c3.128,3.128,3.128,8.185,0,11.313
					C460.084,119.204,458.037,119.987,455.989,119.987z"/>
			</g>
			<g>
				<path d="M424.004,119.964c-2.048,0-4.097-0.785-5.656-2.345c-3.128-3.128-3.128-8.185,0-11.313l15.984-15.977
					c3.127-3.128,8.184-3.128,11.312,0s3.128,8.185,0,11.312l-15.984,15.978C428.099,119.18,426.052,119.964,424.004,119.964z"/>
			</g>
			<g>
				<g>
					<path d="M216.038,263.928c-29.93,0-58.058-11.657-79.203-32.809c-43.674-43.674-43.674-114.74,0-158.413
						c21.152-21.151,49.273-32.809,79.203-32.809c29.921,0,58.058,11.657,79.202,32.809c43.665,43.674,43.665,114.74,0,158.413
						C274.096,252.271,245.958,263.928,216.038,263.928z M216.038,55.905c-25.657,0-49.771,9.984-67.891,28.121
						c-37.441,37.441-37.441,98.348,0,135.789c18.128,18.137,42.233,28.121,67.891,28.121c25.649,0,49.761-9.991,67.891-28.121
						c37.434-37.441,37.434-98.348,0-135.789C265.799,65.898,241.686,55.905,216.038,55.905z"/>
				</g>
			</g>
		</g>
		<g>
			<g>
				<path d="M172.004,200.046c-15.439,0-28.001-12.56-28.001-28.001s12.56-28.001,28.001-28.001s28.001,12.56,28.001,28.001
					S187.445,200.046,172.004,200.046L172.004,200.046z M172.004,160.045c-6.616,0-12,5.384-12,12c0,6.617,5.384,12,12,12
					c6.617,0,12-5.383,12-12C184.004,165.428,178.621,160.045,172.004,160.045z"/>
			</g>
			<g>
				<path d="M212.006,200.046c-15.44,0-28.002-12.56-28.002-28.001s12.561-28.001,28.002-28.001s28.001,12.56,28.001,28.001
					S227.446,200.046,212.006,200.046L212.006,200.046z M212.006,160.045c-6.617,0-12.001,5.384-12.001,12
					c0,6.617,5.384,12,12.001,12c6.616,0,12-5.383,12-12C224.006,165.428,218.621,160.045,212.006,160.045z"/>
			</g>
			<g>
				<path d="M260.007,200.046c-4.424,0-7.999-3.576-7.999-7.999c0-4.424,3.575-8,7.999-8c6.617,0,12.001-5.384,12.001-12
					c0-6.617-5.384-12.001-12.001-12.001c-4.424,0-7.999-3.576-7.999-8c0-4.423,3.575-7.999,7.999-7.999
					c15.44,0,28.002,12.56,28.002,28.001S275.448,200.046,260.007,200.046L260.007,200.046z"/>
			</g>
			<g>
				<path d="M192.004,160.037c-15.439,0-28.001-12.56-28.001-28.001s12.56-28.002,28.001-28.002s28.002,12.561,28.002,28.002
					S207.446,160.037,192.004,160.037z M192.004,120.035c-6.616,0-12,5.384-12,12.001c0,6.616,5.384,12,12,12
					c6.617,0,12.001-5.384,12.001-12C204.005,125.419,198.621,120.035,192.004,120.035L192.004,120.035z"/>
			</g>
			<g>
				<path d="M240.006,160.037c-4.424,0-8-3.576-8-8s3.576-7.999,8-7.999c6.616,0,12-5.384,12-12.001c0-6.616-5.384-12-12-12
					c-4.424,0-8-3.576-8-8s3.576-8,8-8c15.439,0,28.001,12.561,28.001,28.002S255.448,160.037,240.006,160.037z"/>
			</g>
			<g>
				<path d="M260.007,200.046h-88.003c-4.424,0-8-3.576-8-7.999c0-4.424,3.576-8,8-8h88.003c4.424,0,8,3.576,8,8
					S264.431,200.046,260.007,200.046L260.007,200.046z"/>
			</g>
			<g>
				<path d="M260.007,160.045h-88.003c-4.424,0-8-3.576-8-8s3.576-8,8-8h88.003c4.424,0,8,3.576,8,8
					S264.431,160.045,260.007,160.045L260.007,160.045z"/>
			</g>
			<g>
				<path d="M240.006,120.035h-48.002c-4.424,0-8-3.576-8-7.999c0-4.424,3.576-8,8-8h48.002c4.423,0,7.999,3.576,7.999,8
					C248.007,116.459,244.431,120.035,240.006,120.035z"/>
			</g>
		</g>
	</g>
</g>
</svg>
