<?xml version="1.0" encoding="utf-8"?>
<!-- Generator: Adobe Illustrator 16.0.0, SVG Export Plug-In . SVG Version: 6.00 Build 0)  -->
<!DOCTYPE svg PUBLIC "-//W3C//DTD SVG 1.1//EN" "http://www.w3.org/Graphics/SVG/1.1/DTD/svg11.dtd">
<svg version="1.1" id="Layer_5" xmlns="http://www.w3.org/2000/svg" xmlns:xlink="http://www.w3.org/1999/xlink" x="0px" y="0px"
	 width="512px" height="512px" viewBox="0 0 512 512" enable-background="new 0 0 512 512" xml:space="preserve">
<path d="M448,72c30.88,0,56-25.12,56-56V8H8v8c0,30.88,25.12,56,56,56h16v48c-39.696,0-72,32.305-72,72c0,39.696,32.304,72,72,72h8
	v-20.943l-11.824-5.912C63.728,230.92,56,218.416,56,204.496C56,184.376,72.376,168,92.496,168h55
	C167.624,168,184,184.376,184,204.496c0,13.912-7.729,26.424-20.176,32.648L152,243.056V264h8c39.695,0,72-32.304,72-72
	c0-39.695-32.305-72-72-72V72h168v128h-8c-39.696,0-72,32.305-72,72c0,36.992,28.056,67.528,64,71.528V376h128v-32.472
	c35.943-4,64-34.536,64-71.528c0-39.695-32.305-72-72-72h-8V72H448z M24.808,24h462.392C483.48,42.232,467.32,56,448,56H64
	C44.68,56,28.52,42.232,24.808,24L24.808,24z M216,192c0,22.553-13.4,42.032-32.656,50.896c10.504-9.76,16.656-23.521,16.656-38.4
	C200,175.552,176.448,152,147.504,152h-55C63.552,152,40,175.552,40,204.496c0,14.872,6.151,28.641,16.656,38.4
	C37.4,234.032,24,214.552,24,192c0-30.88,25.12-56,56-56h80C190.88,136,216,161.12,216,192L216,192z M144,120H96V72h48V120z
	 M440,320v-40H312v40c-10.017-7.512-16-19.472-16-32c0-22.056,17.943-40,40-40h80c22.056,0,40,17.944,40,40
	C456,300.52,450.016,312.488,440,320z M360,296h32v16h-32V296z M424,360h-96v-64h16v32h64v-32h16V360z M488,272
	c0,19.521-10.049,36.713-25.232,46.744C468.696,309.704,472,299.008,472,288c0-30.88-25.12-56-56-56h-80c-30.88,0-56,25.12-56,56
	c0,11.008,3.304,21.704,9.231,30.744C274.048,308.713,264,291.52,264,272c0-30.88,25.12-56,56-56h112C462.88,216,488,241.12,488,272
	z M408,200h-64V72h64V200z"/>
<path d="M456,408H264v-80H136v80h-17.225l-16-96H8v96v16v80h448c26.472,0,48-21.527,48-48C504,429.528,482.472,408,456,408z M88,456
	c0-17.647,14.352-32,32-32c17.647,0,32,14.353,32,32c0,17.648-14.353,32-32,32C102.352,488,88,473.648,88,456z M155.68,424h40.648
	C188.688,432.505,184,443.696,184,456c0,12.305,4.688,23.496,12.319,32h-40.64c7.632-8.504,12.32-19.695,12.32-32
	C168,443.696,163.312,432.505,155.68,424L155.68,424z M200,456c0-17.647,14.352-32,32-32c17.647,0,32,14.353,32,32
	c0,17.648-14.353,32-32,32C214.352,488,200,473.648,200,456z M267.68,424h40.648C300.688,432.505,296,443.696,296,456
	c0,12.305,4.688,23.496,12.319,32h-40.64c7.632-8.504,12.32-19.695,12.32-32C280,443.696,275.312,432.505,267.68,424z M312,456
	c0-17.647,14.352-32,32-32c17.647,0,32,14.353,32,32c0,17.648-14.353,32-32,32C326.352,488,312,473.648,312,456z M379.68,424h40.647
	c-7.64,8.505-12.327,19.696-12.327,32c0,12.305,4.688,23.496,12.319,32h-40.64c7.632-8.504,12.32-19.695,12.32-32
	C392,443.696,387.312,432.505,379.68,424z M184,344h32v16h-32V344z M152,344h16v32h64v-32h16v64h-96V344z M24,328h65.224l13.336,80
	H24V328z M24,424H84.32C76.688,432.505,72,443.696,72,456c0,12.305,4.688,23.496,12.319,32H24V424z M456,488
	c-17.648,0-32-14.352-32-32c0-17.647,14.352-32,32-32c17.647,0,32,14.353,32,32C488,473.648,473.648,488,456,488z"/>
<path d="M360,120h16v16h-16V120z"/>
<path d="M360,152h16v16h-16V152z"/>
<path d="M360,88h16v16h-16V88z"/>
<path d="M448,448h16v16h-16V448z"/>
<path d="M336,448h16v16h-16V448z"/>
<path d="M224,448h16v16h-16V448z"/>
<path d="M112,448h16v16h-16V448z"/>
</svg>
