<?xml version="1.0" encoding="utf-8"?>
<!-- Generator: Adobe Illustrator 16.0.0, SVG Export Plug-In . SVG Version: 6.00 Build 0)  -->
<!DOCTYPE svg PUBLIC "-//W3C//DTD SVG 1.1//EN" "http://www.w3.org/Graphics/SVG/1.1/DTD/svg11.dtd">
<svg version="1.1" id="Layer_1" xmlns="http://www.w3.org/2000/svg" xmlns:xlink="http://www.w3.org/1999/xlink" x="0px" y="0px"
	 width="512px" height="512px" viewBox="0 0 512 512" enable-background="new 0 0 512 512" xml:space="preserve">
<g id="Outline">
	<path d="M136,208h176v168h16V200c0-4.418-3.582-8-8-8H128c-4.419,0-8,3.582-8,8v136h16V208z"/>
	<path d="M280,296h-16v-24c0-4.418-3.582-8-8-8h-24v-24c0-4.418-3.582-8-8-8h-32c-4.419,0-8,3.582-8,8v56h-16v16h112V296z M248,280
		v16h-16v-16H248z M200,248h16v48h-16V248z"/>
	<path d="M358.013,384.881c-7.174-3.04-15.275-3.026-22.438,0.038l-51.722,21.961c1.583-15.391-9.609-29.149-25-30.732
		c-0.947-0.098-1.9-0.146-2.853-0.147h-62.057c-6.275-0.008-12.465-1.469-18.082-4.269c-25.964-12.943-54.572-19.696-83.584-19.731
		H72c0-4.418-3.582-8-8-8H16v16h40v96H16v16h48c4.418,0,8-3.581,8-8v-3.05l59.728,24.8c32.561,13.294,68.96,13.696,101.807,1.125
		l123.582-47.122c7.319-2.781,13.209-8.395,16.339-15.571c3.239-7.279,3.409-15.558,0.47-22.963
		C371.064,393.835,365.318,387.936,358.013,384.881z M358.818,417.72c-1.413,3.261-4.08,5.815-7.399,7.086l-123.585,47.123
		c-29.043,11.119-61.229,10.771-90.023-0.976L72,443.624V368h20.277c26.527,0.032,52.688,6.207,76.429,18.043
		c7.84,3.907,16.478,5.946,25.237,5.957H256c6.623,0.01,11.985,5.386,11.977,12.01c-0.009,6.427-5.082,11.705-11.504,11.967
		c-0.322,0.009-0.643,0.023-0.966,0.023H160v16h95.507c0.165,0,0.328-0.011,0.493-0.012V432c0.558,0,1.11-0.021,1.661-0.053
		c5.948-0.248,11.804-1.569,17.282-3.899l66.877-28.4c3.191-1.364,6.801-1.37,9.995-0.015c3.319,1.396,5.927,4.085,7.221,7.445
		C360.398,410.51,360.32,414.346,358.818,417.72z"/>
	<path d="M485.564,196.777L432,109.736V82.667L454.4,52.8C455.439,51.415,456,49.731,456,48
		c-0.001-18.071-14.651-32.722-32.724-32.721c-5.079,0-10.089,1.183-14.632,3.454L384,31.056l-24.646-12.323
		c-16.164-8.082-35.819-1.529-43.9,14.635C313.183,37.911,312,42.921,312,48c0,1.731,0.562,3.415,1.6,4.8L336,82.667v27.069
		l-38.813,63.072l13.626,8.384L348.47,120h71.06l52.408,85.162c15.731,25.566,7.76,59.044-17.806,74.776
		c-8.566,5.271-18.427,8.062-28.484,8.062H344v16h81.647C464.502,304,496,272.503,496,233.648
		C496,220.629,492.387,207.865,485.564,196.777L485.564,196.777z M335.931,33.777c4.923-3.067,11.09-3.345,16.269-0.732
		l28.223,14.111c2.252,1.126,4.903,1.126,7.156,0L415.8,33.044c8.264-4.129,18.311-0.777,22.439,7.486
		c0.792,1.584,1.327,3.283,1.585,5.035L420,72h-72l-19.826-26.435C328.877,40.677,331.721,36.356,335.931,33.777L335.931,33.777z
		 M416,104h-64V88h64V104z"/>
	<path d="M360,224v1.167c0.013,9.975,6.487,18.79,16,21.788V256h16v-9.045c12.032-3.774,18.728-16.588,14.953-28.621
		c-1.854-5.912-6.032-10.817-11.574-13.589l-15.601-7.8c-3.375-1.688-4.744-5.792-3.057-9.167c1.157-2.315,3.523-3.777,6.111-3.778
		h2.334c3.771,0.004,6.829,3.062,6.833,6.833V192h16v-1.167c-0.014-9.974-6.487-18.79-16-21.788V160h-16v9.045
		c-12.033,3.774-18.728,16.589-14.953,28.622c1.854,5.912,6.032,10.816,11.574,13.588l15.6,7.801
		c3.376,1.687,4.744,5.791,3.057,9.167c-1.157,2.314-3.522,3.777-6.11,3.777h-2.334c-3.772-0.004-6.829-3.061-6.833-6.833V224H360z"
		/>
	<rect x="424" y="200" width="16" height="16"/>
	<rect x="160" y="336" width="16" height="16"/>
	<rect x="192" y="336" width="96" height="16"/>
	<path d="M275.047,60.739l-9.816,29.448l15.181,5.058l15.179-45.537c1.396-4.191-0.869-8.722-5.061-10.118c0,0,0-0.001-0.001-0.001
		L244.992,24.41l-5.059,15.18l24.81,8.27c-39.741,18.76-70.636,52.229-86.163,93.341l14.987,5.6
		C208.089,108.348,237.447,77.341,275.047,60.739z"/>
	<path d="M188.788,162l-15.494-3.989c-1.425,5.54-2.565,11.149-3.417,16.806l15.822,2.378C186.47,172.08,187.5,167.009,188.788,162z
		"/>
	<path d="M342.408,348.961l3.184,15.68c28.781-5.873,55.517-19.197,77.535-38.641l-10.589-12
		C392.624,331.591,368.442,343.645,342.408,348.961z"/>
</g>
</svg>
