<?xml version="1.0" encoding="utf-8"?>
<!-- Generator: Adobe Illustrator 16.0.0, SVG Export Plug-In . SVG Version: 6.00 Build 0)  -->
<!DOCTYPE svg PUBLIC "-//W3C//DTD SVG 1.1//EN" "http://www.w3.org/Graphics/SVG/1.1/DTD/svg11.dtd">
<svg version="1.1" id="Layer_5" xmlns="http://www.w3.org/2000/svg" xmlns:xlink="http://www.w3.org/1999/xlink" x="0px" y="0px"
	 width="512px" height="512px" viewBox="0 0 512 512" enable-background="new 0 0 512 512" xml:space="preserve">
<g>
	<path d="M488,8c-13.232,0-24,10.769-24,24V56.64l-192,16V104H32c-13.232,0-24,10.769-24,24v336c0,13.232,10.768,24,24,24h329.56
		l3.416,5.465C369.112,500.064,376.216,504,384,504s14.888-3.936,19.023-10.535l36.976-59.168V248c17.648,0,32-14.352,32-32
		c0-6.832-2.191-13.136-5.848-18.336c8.152-3.84,13.848-12.072,13.848-21.664V32c0-4.416,3.585-8,8.001-8h16V8H488z M456,184h-48
		v-16h56v8C464,180.416,460.415,184,456,184z M376,417.032l-15.977-10.64L344,417.064V200h32V417.032z M336,152V83.36l32-2.664V152
		H336z M384,79.36l32-2.664V152h-32V79.36z M432,152V75.36l32-2.664V152H432z M288,87.36l32-2.664V152h-24c-4.416,0-8-3.584-8-8
		V87.36z M32,120h240v24c0,13.232,10.768,24,24,24h96v16H280c-11.792,0-22,6.48-27.553,16H24v-72C24,123.584,27.584,120,32,120z
		 M296,216c0,8.824-7.176,16-16,16s-16-7.176-16-16s7.176-16,16-16S296,207.176,296,216z M32,472c-4.416,0-8-3.584-8-8V216h224
		c0,17.648,14.352,32,32,32c17.647,0,32-14.352,32-32c0-5.855-1.696-11.271-4.448-16H328v234.297L351.56,472H32z M389.464,484.976
		c-2.376,3.784-8.544,3.784-10.92,0l-31.632-50.624l13.119-8.736l24.017,16.008l23.983-16l13.08,8.729L389.464,484.976z M424,417.04
		l-15.977-10.663L392,417.072V200h20.447c-2.752,4.729-4.447,10.145-4.447,16c0,11.792,6.479,22,16,27.553V417.04z M440,232
		c-8.824,0-16-7.176-16-16s7.176-16,16-16c8.823,0,16,7.176,16,16S448.823,232,440,232z"/>
	<path d="M64,184c13.231,0,24-10.768,24-24c0-13.231-10.769-24-24-24c-13.232,0-24,10.769-24,24C40,173.232,50.768,184,64,184z
		 M64,152c4.416,0,8,3.584,8,8s-3.584,8-8,8s-8-3.584-8-8S59.584,152,64,152z"/>
	<path d="M128,184c13.231,0,24-10.768,24-24c0-13.231-10.769-24-24-24c-13.232,0-24,10.769-24,24C104,173.232,114.768,184,128,184z
		 M128,152c4.416,0,8,3.584,8,8s-3.584,8-8,8s-8-3.584-8-8S123.584,152,128,152z"/>
	<path d="M192,184c13.231,0,24-10.768,24-24c0-13.231-10.769-24-24-24c-13.232,0-24,10.769-24,24C168,173.232,178.768,184,192,184z
		 M192,152c4.416,0,8,3.584,8,8s-3.584,8-8,8s-8-3.584-8-8S187.584,152,192,152z"/>
	<path d="M146.344,346.344L132.688,360H40v96h96v-76.688l21.655-21.656L146.344,346.344z M120,440H56v-64h60.688L88,404.688
		l-10.345-10.344l-11.312,11.312L88,427.312l32-32V440z"/>
	<path d="M132.688,248H40v96h96v-76.688l21.655-21.656l-11.312-11.312L132.688,248z M120,328H56v-64h60.688L88,292.688
		l-10.345-10.344l-11.312,11.312L88,315.312l32-32V328z"/>
	<path d="M168,360h144v16H168V360z"/>
	<path d="M296,392h16v16h-16V392z"/>
	<path d="M168,392h112v16H168V392z"/>
	<path d="M168,424h16v16h-16V424z"/>
	<path d="M200,424h112v16H200V424z"/>
	<path d="M168,328h144v16H168V328z"/>
	<path d="M168,296h16v16h-16V296z"/>
	<path d="M200,296h112v16H200V296z"/>
	<path d="M168,264h144v16H168V264z"/>
</g>
</svg>
