<?xml version="1.0" encoding="utf-8"?>
<!-- Generator: Adobe Illustrator 16.0.0, SVG Export Plug-In . SVG Version: 6.00 Build 0)  -->
<!DOCTYPE svg PUBLIC "-//W3C//DTD SVG 1.1//EN" "http://www.w3.org/Graphics/SVG/1.1/DTD/svg11.dtd">
<svg version="1.1" id="Layer_1" xmlns="http://www.w3.org/2000/svg" xmlns:xlink="http://www.w3.org/1999/xlink" x="0px" y="0px"
	 width="512px" height="512px" viewBox="0 0 512 512" enable-background="new 0 0 512 512" xml:space="preserve">
<g id="Receipt">
	<path d="M479.6,285.6L448,254.08V24c0.044-4.374-3.466-7.955-7.84-8c-0.054,0-0.107,0-0.16,0l-320,0.24c-4.419,0-8,3.582-8,8V240
		H24c-4.419,0-8,3.582-8,8v96c0.035,30.914,25.086,55.965,56,56h270.96c-3.24,21.517,1.698,43.465,13.84,61.521l3.2,4.88V488
		c0,4.419,3.581,8,8,8c4.418,0,8-3.581,8-8v-24c0.004-1.57-0.471-3.104-1.36-4.399l-4.56-6.96
		c-10.332-15.465-14.208-34.356-10.801-52.641h42.24c0.795,11.788,5.146,23.058,12.48,32.32l3.76,4.641
		c1.509,1.909,3.806,3.028,6.24,3.039c1.809,0.016,3.564-0.607,4.96-1.76c3.436-2.649,4.073-7.582,1.424-11.019
		c-0.047-0.061-0.096-0.121-0.145-0.182l-3.76-4.72c-13.528-16.935-12.15-41.336,3.2-56.64c3.119-3.145,3.119-8.216,0-11.36
		l-39.84-39.84c-3.328-2.989-3.815-8.029-1.12-11.601c1.489-1.763,3.692-2.762,6-2.72c2.131-0.038,4.185,0.801,5.68,2.32
		l50.08,50.08c3.137,3.137,8.223,3.137,11.36,0c3.137-3.137,3.137-8.223,0-11.36L448,327.44v-50.8l20.239,20.319
		c7.568,7.476,11.808,17.684,11.761,28.32V488c0,4.419,3.581,8,8,8c4.418,0,8-3.581,8-8V325.28
		C496.022,310.4,490.121,296.123,479.6,285.6z M72,384c-22.092,0-40-17.908-40-40v-88h80v88C112,366.092,94.091,384,72,384z
		 M432,311.44l-20.24-20.32c-9.505-9.276-24.729-9.092-34.007,0.413c-9.276,9.505-9.092,24.73,0.413,34.007
		c0.104,0.101,0.208,0.201,0.313,0.301l34.56,34.56c-5.223,6.979-8.805,15.046-10.479,23.6H111.12
		c10.799-10.505,16.888-24.934,16.88-40V32.24L432,32V311.44z"/>
	<path d="M280,144c-9.769,0-16-4.735-16-8c0-4.418-3.582-8-8-8c-4.419,0-8,3.582-8,8c0,11.368,10.071,20.568,24,23.2v8.8
		c0,4.419,3.581,8,8,8c4.418,0,8-3.581,8-8v-8.8c13.928-2.616,24-11.816,24-23.2c0-13.456-14.057-24-32-24c-9.769,0-16-4.735-16-8
		c0-3.264,6.231-8,16-8c9.768,0,16,4.736,16,8c0,4.419,3.581,8,8,8c4.418,0,8-3.581,8-8c0-11.368-10.072-20.567-24-23.2V72
		c0-4.418-3.582-8-8-8c-4.419,0-8,3.582-8,8v8.8c-13.929,2.616-24,11.816-24,23.2c0,13.456,14.056,24,32,24c9.768,0,16,4.736,16,8
		C296,139.264,289.768,144,280,144z"/>
	<path d="M392,192H216c-4.419,0-8,3.582-8,8c0,4.419,3.581,8,8,8h176c4.418,0,8-3.581,8-8C400,195.582,396.418,192,392,192z"/>
	<path d="M392,224H216c-4.419,0-8,3.582-8,8c0,4.419,3.581,8,8,8h176c4.418,0,8-3.581,8-8C400,227.582,396.418,224,392,224z"/>
	<path d="M184,192h-16c-4.419,0-8,3.582-8,8c0,4.419,3.581,8,8,8h16c4.418,0,8-3.581,8-8C192,195.582,188.418,192,184,192z"/>
	<path d="M184,224h-16c-4.419,0-8,3.582-8,8c0,4.419,3.581,8,8,8h16c4.418,0,8-3.581,8-8C192,227.582,188.418,224,184,224z"/>
	<path d="M392,256H216c-4.419,0-8,3.582-8,8c0,4.419,3.581,8,8,8h176c4.418,0,8-3.581,8-8C400,259.582,396.418,256,392,256z"/>
	<path d="M344,288H216c-4.419,0-8,3.582-8,8c0,4.419,3.581,8,8,8h128c4.418,0,8-3.581,8-8C352,291.582,348.418,288,344,288z"/>
	<path d="M344,320H216c-4.419,0-8,3.582-8,8c0,4.419,3.581,8,8,8h128c4.418,0,8-3.581,8-8C352,323.582,348.418,320,344,320z"/>
	<path d="M184,256h-16c-4.419,0-8,3.582-8,8c0,4.419,3.581,8,8,8h16c4.418,0,8-3.581,8-8C192,259.582,188.418,256,184,256z"/>
	<path d="M184,288h-16c-4.419,0-8,3.582-8,8c0,4.419,3.581,8,8,8h16c4.418,0,8-3.581,8-8C192,291.582,188.418,288,184,288z"/>
	<path d="M184,320h-16c-4.419,0-8,3.582-8,8c0,4.419,3.581,8,8,8h16c4.418,0,8-3.581,8-8C192,323.582,188.418,320,184,320z"/>
</g>
</svg>
