<?xml version="1.0" encoding="utf-8"?>
<!-- Generator: Adobe Illustrator 16.0.0, SVG Export Plug-In . SVG Version: 6.00 Build 0)  -->
<!DOCTYPE svg PUBLIC "-//W3C//DTD SVG 1.1//EN" "http://www.w3.org/Graphics/SVG/1.1/DTD/svg11.dtd">
<svg version="1.1" id="Layer_3" xmlns="http://www.w3.org/2000/svg" xmlns:xlink="http://www.w3.org/1999/xlink" x="0px" y="0px"
	 width="512px" height="512px" viewBox="0 0 512 512" enable-background="new 0 0 512 512" xml:space="preserve">
<g>
	<path d="M496,344h-8v-72c0-4.424-3.576-8-8-8h-8v-80c0-3.231-1.944-6.151-4.937-7.392s-6.432-0.552-8.72,1.736L440,196.688
		l-18.345-18.344c-3.128-3.129-8.184-3.129-11.312,0L392,196.688l-18.345-18.344c-2.287-2.288-5.728-2.969-8.72-1.736
		c-2.992,1.24-4.936,4.16-4.936,7.392v80h-8c-4.424,0-8,3.576-8,8v72h-88v-8c0-13.231-10.769-24-24-24h-8v-48h80
		c22.056,0,40-17.943,40-40V48c0-22.056-17.944-40-40-40H48C25.944,8,8,25.944,8,48v176c0,22.057,17.943,40,40,40h80v48h-8
		c-13.232,0-24,10.769-24,24v8H16c-4.424,0-8,3.576-8,8v144c0,4.425,3.576,8,8,8h480c4.424,0,8-3.575,8-8V352
		C504,347.576,500.424,344,496,344z M376,203.312l10.344,10.344c3.128,3.128,8.184,3.128,11.312,0L416,195.312l18.344,18.344
		c3.128,3.128,8.184,3.128,11.312,0L456,203.312V264h-80V203.312z M360,280h112v64H360V280z M48,24h256c13.231,0,24,10.769,24,24
		v152H24V48C24,34.768,34.768,24,48,24z M24,224v-8h304v8c0,13.232-10.769,24-24,24H48C34.768,248,24,237.232,24,224z M144,264h64
		v48h-64V264z M112,336c0-4.415,3.584-8,8-8h112c4.416,0,8,3.585,8,8v8H112V336z M488,488H24V360h464V488z"/>
	<path d="M48,472h224c4.424,0,8-3.575,8-8v-80c0-4.424-3.576-8-8-8H48c-4.424,0-8,3.576-8,8v80C40,468.425,43.576,472,48,472z
		 M211.056,392l-8,16h-86.112l-8-16H211.056z M56,392h35.056l13.792,27.576C106.2,422.288,108.968,424,112,424h96
		c3.032,0,5.8-1.712,7.16-4.424L228.944,392H264v64H56V392z"/>
	<path d="M176,152c-8.824,0-16-7.176-16-16h-16c0,14.864,10.231,27.288,24,30.864V184h16v-17.136c13.768-3.576,24-16,24-30.864
		c0-17.647-14.353-32-32-32c-8.824,0-16-7.176-16-16c0-8.823,7.176-16,16-16s16,7.177,16,16h16c0-14.863-10.232-27.288-24-30.863V40
		h-16v17.137c-13.769,3.575-24,16-24,30.863c0,17.648,14.352,32,32,32c8.824,0,16,7.176,16,16S184.824,152,176,152z"/>
	<path d="M304,424h32c4.424,0,8-3.575,8-8v-32c0-4.424-3.576-8-8-8h-32c-4.424,0-8,3.576-8,8v32C296,420.425,299.576,424,304,424z
		 M312,392h16v16h-16V392z"/>
	<path d="M368,424h32c4.424,0,8-3.575,8-8v-32c0-4.424-3.576-8-8-8h-32c-4.424,0-8,3.576-8,8v32C360,420.425,363.576,424,368,424z
		 M376,392h16v16h-16V392z"/>
	<path d="M432,424h32c4.424,0,8-3.575,8-8v-32c0-4.424-3.576-8-8-8h-32c-4.425,0-8,3.576-8,8v32C424,420.425,427.575,424,432,424z
		 M440,392h16v16h-16V392z"/>
	<path d="M296,456h176v16H296V456z"/>
	<path d="M392,232h48v16h-48V232z"/>
	<path d="M440,296h16v16h-16V296z"/>
	<path d="M392,96h16v64h-16V96z"/>
	<path d="M424,80h16v56h-16V80z"/>
</g>
</svg>
