<?xml version="1.0" encoding="utf-8"?>
<!-- Generator: Adobe Illustrator 21.1.0, SVG Export Plug-In . SVG Version: 6.00 Build 0)  -->
<svg version="1.1" id="Capa_1" xmlns="http://www.w3.org/2000/svg" xmlns:xlink="http://www.w3.org/1999/xlink" x="0px" y="0px"
	 viewBox="0 0 512 512" style="enable-background:new 0 0 512 512;" xml:space="preserve">
<g>
	<g>
		<path d="M501.3,245.3c-5.9,0-10.7,4.8-10.7,10.7c0,129.4-105.3,234.7-234.7,234.7S21.3,385.4,21.3,256S126.6,21.3,256,21.3
			c117.8,0,186.8,89.2,224,163.9c2.6,5.3,9,7.4,14.3,4.8c5.3-2.6,7.4-9,4.8-14.3C441.9,60.8,357.9,0,256,0C114.8,0,0,114.8,0,256
			s114.8,256,256,256s256-114.8,256-256C512,250.1,507.2,245.3,501.3,245.3z"/>
	</g>
</g>
<g>
	<g>
		<path d="M501.3,86.2c-5.9,0-10.7,4.8-10.7,10.7v73.8H416c-5.9,0-10.7,4.8-10.7,10.7S410.1,192,416,192h85.3
			c5.9,0,10.7-4.8,10.7-10.7V96.9C512,91,507.2,86.2,501.3,86.2z"/>
	</g>
</g>
<g>
	<g>
		<g>
			<path d="M401.6,317.5c3.2,2.1,7.5,1.3,9.6-1.9l30.8-46c8.5-12.7,5.1-29.9-7.6-38.4l-229.8-154c-12.7-8.5-29.9-5.1-38.4,7.6
				l-30.8,46c-2.1,3.2-1.3,7.5,1.9,9.6c15.8,10.6,20.1,32.1,9.5,48c-10.6,15.8-32.1,20.1-48,9.5c-3.2-2.1-7.5-1.3-9.6,1.9l-30.8,46
				c-8.5,12.7-5.1,29.9,7.6,38.4l229.8,154c12.7,8.5,29.9,5.1,38.4-7.6l30.8-46c2.1-3.2,1.3-7.5-1.9-9.6
				c-15.8-10.6-20.1-32.1-9.5-48S385.8,306.9,401.6,317.5z M342.2,319.3c-13.6,20.2-9.8,47.1,7.8,62.9l-27.2,40.6
				c-4.2,6.3-12.9,8-19.2,3.8l-229.8-154c-6.3-4.2-8-12.9-3.8-19.2l27.2-40.6c21.3,10.2,47.6,3.5,61.1-16.7
				c13.6-20.2,9.8-47.1-7.8-62.9l27.2-40.6c4.2-6.3,12.9-8,19.2-3.8l229.8,154c6.3,4.2,8,12.9,3.8,19.2l-27.2,40.6
				C382,292.3,355.7,299.1,342.2,319.3z"/>
			<path d="M241.9,133.5c-3.2-2.1-7.5-1.3-9.6,1.9l-8.7,12.9c-2.1,3.2-1.3,7.5,1.9,9.6c3.2,2.1,7.5,1.3,9.6-1.9l8.7-12.9
				C245.9,139.9,245.1,135.6,241.9,133.5z"/>
			<path d="M210.2,180.9c-3.2-2.1-7.5-1.3-9.6,1.9l-7.7,11.5c-2.1,3.2-1.3,7.5,1.9,9.6s7.5,1.3,9.6-1.9l7.7-11.5
				C214.2,187.3,213.3,183,210.2,180.9z"/>
			<path d="M179.4,226.8c-3.2-2.1-7.5-1.3-9.6,1.9l-7.7,11.5c-2.1,3.2-1.3,7.5,1.9,9.6c3.2,2.1,7.5,1.3,9.6-1.9l7.7-11.5
				C183.4,233.3,182.5,229,179.4,226.8z"/>
			<path d="M148.6,272.8c-3.2-2.1-7.5-1.3-9.6,1.9l-7.7,11.5c-2.1,3.2-1.3,7.5,1.9,9.6c3.2,2.1,7.5,1.3,9.6-1.9l7.7-11.5
				C152.6,279.2,151.7,274.9,148.6,272.8z"/>
			<path d="M343,238c-1.5-3.5-5.5-5.2-9-3.7l-138.2,57.2c-3.5,1.5-5.2,5.5-3.7,9c0.5,1.3,1.4,2.4,2.5,3.1c1.9,1.2,4.3,1.6,6.5,0.6
				L339.3,247C342.8,245.6,344.5,241.5,343,238z"/>
			<path d="M281,236.7c10.6-15.8,8.9-35.6-3.7-44.1c-12.7-8.5-31.6-2.5-42.2,13.3s-8.9,35.6,3.7,44.1
				C251.4,258.5,270.4,252.5,281,236.7z M246.5,213.6c6.3-9.3,16.8-13.7,23-9.5c6.2,4.2,6.2,15.6-0.1,24.9
				c-6.3,9.3-16.8,13.7-23,9.5C240.2,234.3,240.3,222.9,246.5,213.6z"/>
			<path d="M296.2,288.5c-12.7-8.5-31.6-2.5-42.2,13.3s-8.9,35.6,3.7,44.1c12.7,8.5,31.6,2.5,42.2-13.3
				C310.6,316.8,308.9,297,296.2,288.5z M265.4,334.5c-6.2-4.2-6.2-15.6,0.1-24.9s16.8-13.7,23-9.5c6.2,4.2,6.2,15.6-0.1,24.9
				S271.6,338.6,265.4,334.5z"/>
		</g>
	</g>
</g>
</svg>
