<?xml version="1.0" encoding="utf-8"?>
<!-- Generator: Adobe Illustrator 16.0.0, SVG Export Plug-In . SVG Version: 6.00 Build 0)  -->
<!DOCTYPE svg PUBLIC "-//W3C//DTD SVG 1.1//EN" "http://www.w3.org/Graphics/SVG/1.1/DTD/svg11.dtd">
<svg version="1.1" id="Layer_3" xmlns="http://www.w3.org/2000/svg" xmlns:xlink="http://www.w3.org/1999/xlink" x="0px" y="0px"
	 width="512px" height="512px" viewBox="0 0 512 512" enable-background="new 0 0 512 512" xml:space="preserve">
<g>
	<path d="M465.136,107.568C469.367,102.136,472,95.4,472,88c0-17.647-14.353-32-32-32c-8.04,0-15.313,3.08-20.944,8h-38.112
		c-5.632-4.92-12.903-8-20.943-8c-17.648,0-32,14.353-32,32c0,7.4,2.632,14.137,6.863,19.568l-6.216,24.848
		c-0.432,1.736-0.647,3.521-0.647,5.632c0,12.104,9.84,21.952,21.943,21.952c9.465,0,17.832-6.031,20.824-15l10.992-33h36.472l11,33
		c2.984,8.969,11.36,15,20.824,15C462.159,160,472,150.152,472,137.72c0-1.784-0.217-3.568-0.656-5.328L465.136,107.568z M440,72
		c8.823,0,16,7.177,16,16c0,8.824-7.177,16-16,16c-3.08,0-5.937-0.92-8.385-2.432l-0.031-0.096l-0.089,0.031
		c-4.487-2.84-7.496-7.815-7.496-13.504C423.999,79.177,431.176,72,440,72L440,72z M409.136,96h-18.272
		c0.673-2.576,1.137-5.224,1.137-8c0-2.775-0.464-5.424-1.137-8h18.272c-0.672,2.576-1.136,5.225-1.136,8
		C408,90.776,408.464,93.424,409.136,96z M360,72c8.824,0,16,7.177,16,16c0,5.688-3.008,10.664-7.496,13.496l-0.088-0.032
		l-0.032,0.097C365.936,103.08,363.08,104,360,104c-8.824,0-16-7.176-16-16C344,79.177,351.176,72,360,72L360,72z M349.944,144
		c-3.279,0-5.943-2.664-5.943-6.279c0-0.488,0.063-0.984,0.168-1.44l4.607-18.416C352.28,119.184,356.04,120,360,120
		c0.792,0,1.536-0.176,2.312-0.231l-6.72,20.168C354.784,142.368,352.504,144,349.944,144z M450.056,144
		c-2.561,0-4.832-1.632-5.648-4.063l-6.72-20.168c0.776,0.056,1.52,0.231,2.313,0.231c3.96,0,7.72-0.815,11.224-2.136l4.6,18.392
		c0.112,0.48,0.177,0.977,0.177,1.792C456,141.336,453.336,144,450.056,144z"/>
	<path d="M504,112C504,54.656,457.344,8,400,8c-50.968,0-93.4,36.88-102.232,85.345C284.176,89.864,270.176,88,256,88
		c-92.632,0-168,75.36-168,168c0,14.185,1.855,28.185,5.344,41.769C44.88,306.6,8,349.032,8,400c0,57.345,46.655,104,104,104
		c50.968,0,93.399-36.88,102.231-85.344C227.824,422.136,241.823,424,256,424c92.632,0,168-75.359,168-168
		c0-14.191-1.832-28.184-5.305-41.775C467.136,205.384,504,162.96,504,112z M298.824,135.512L288,124.688v-17.24
		c2.728,0.584,5.432,1.28,8.128,2.016C296.104,110.312,296,111.144,296,112C296,119.92,297,127.776,298.824,135.512z M208,111.888
		v20.8l-13.656,13.656C192.84,147.84,192,149.88,192,152v28.688L172.688,200h-17.376l-13.656-13.655
		C140.16,184.84,138.128,184,136,184h-13.816C140.424,150.24,171.104,124.216,208,111.888z M104.304,264h20.384l13.656,13.656
		C139.84,279.16,141.872,280,144,280h16v16c0,0.784,0.231,1.528,0.448,2.272l-13.345,3.903C135.728,298.072,123.928,296,112,296
		c-0.856,0-1.681,0.104-2.528,0.128C106.608,285.664,104.872,274.92,104.304,264L104.304,264z M112,488c-48.521,0-88-39.479-88-88
		c0-48.52,39.479-88,88-88c10.84,0,21.567,2.04,31.888,6.057c1.664,0.647,3.472,0.728,5.16,0.224l63.168-18.496l-18.496,63.168
		c-0.496,1.688-0.416,3.504,0.224,5.152C197.96,378.432,200,389.169,200,400C200,448.52,160.52,488,112,488z M209.832,364.896
		l1.432-4.896h9.424L240,379.312v27.752c-8.176-0.855-16.232-2.368-24.128-4.528c0.023-0.855,0.128-1.68,0.128-2.536
		C216,388.08,213.92,376.28,209.832,364.896z M253.656,370.344l-24-24C228.16,344.841,226.128,344,224,344h-8.057l15.736-53.752
		c0.824-2.808,0.048-5.832-2.024-7.903c-2.071-2.072-5.111-2.841-7.903-2.024L176.8,293.48l-0.8-0.792V272c0-4.416-3.576-8-8-8
		h-20.688l-13.656-13.655C132.16,248.84,130.128,248,128,248h-23.592c0.888-16.872,4.455-33.016,10.415-48h17.864l13.656,13.656
		C147.84,215.16,149.872,216,152,216h24c2.128,0,4.16-0.84,5.655-2.344l24-24C207.16,188.16,208,186.12,208,184v-28.688
		l13.655-13.656C223.16,140.16,224,138.12,224,136v-28.544c10.328-2.224,21.016-3.456,32-3.456c5.368,0,10.695,0.385,16,0.937V128
		c0,2.12,0.84,4.16,2.344,5.656l24,24c0.176,0.176,0.424,0.256,0.616,0.416L280.32,221.76c-0.823,2.808-0.048,5.832,2.024,7.903
		c1.52,1.513,3.56,2.336,5.656,2.336c0.752,0,1.504-0.104,2.248-0.319l74.64-21.856c10.368,3.736,21.088,5.704,31.936,6.04
		L388.688,224H368c-4.424,0-8,3.584-8,8v28.688l-21.656,21.656C336.84,283.84,336,285.88,336,288v20.688l-13.656,13.656
		c-1.504,1.496-2.344,3.536-2.344,5.656v32c0,2.119,0.84,4.159,2.344,5.655l17.192,17.192
		c-23.992,15.855-52.688,25.152-83.536,25.152v-32C256,373.881,255.16,371.841,253.656,370.344L253.656,370.344z M352.592,373.28
		L336,356.688v-25.376l13.655-13.656C351.16,316.16,352,314.12,352,312v-20.688l21.655-21.656C375.16,268.16,376,266.12,376,264v-24
		h16c2.128,0,4.159-0.84,5.655-2.344l8-8C407.168,238.312,408,247.112,408,256C408,303.16,386.408,345.377,352.592,373.28
		L352.592,373.28z M400,200c-10.84,0-21.568-2.04-31.889-6.056c-1.655-0.648-3.472-0.729-5.159-0.224l-63.168,18.495l18.495-63.168
		c0.496-1.688,0.416-3.504-0.224-5.151C314.04,133.568,312,122.832,312,112c0-48.52,39.479-88,88-88c48.52,0,88,39.48,88,88
		C488,160.52,448.52,200,400,200z"/>
	<path d="M152,344c-8.04,0-15.313,3.08-20.944,8H92.944c-5.624-4.92-12.896-8-20.943-8c-17.648,0-32,14.353-32,32
		c0,7.4,2.632,14.137,6.863,19.568l-6.216,24.848c-0.432,1.736-0.647,3.521-0.647,5.633C40,438.152,49.84,448,61.944,448
		c9.465,0,17.832-6.031,20.824-15l10.992-33h36.472l11,33c2.984,8.969,11.36,15,20.824,15C174.16,448,184,438.152,184,425.72
		c0-1.784-0.216-3.568-0.656-5.328l-6.208-24.824C181.368,390.136,184,383.4,184,376C184,358.352,169.648,344,152,344L152,344z
		 M152,360c8.824,0,16,7.177,16,16c0,8.824-7.176,16-16,16c-3.08,0-5.937-0.92-8.384-2.432l-0.032-0.096l-0.088,0.032
		C139.008,386.664,136,381.688,136,376C136,367.177,143.176,360,152,360z M121.136,384h-18.272c0.673-2.575,1.137-5.224,1.137-8
		c0-2.775-0.464-5.424-1.137-8h18.272c-0.672,2.576-1.136,5.225-1.136,8C120,378.776,120.464,381.425,121.136,384z M72,360
		c8.824,0,16,7.177,16,16c0,5.688-3.008,10.664-7.496,13.496l-0.088-0.031l-0.032,0.096C77.936,391.08,75.08,392,72,392
		c-8.824,0-16-7.176-16-16C56,367.177,63.176,360,72,360z M61.944,432C58.664,432,56,429.337,56,425.72
		c0-0.488,0.063-0.984,0.168-1.44l4.607-18.416C64.28,407.184,68.04,408,72,408c0.792,0,1.536-0.176,2.312-0.231l-6.72,20.168
		C66.784,430.368,64.504,432,61.944,432z M162.056,432c-2.56,0-4.832-1.632-5.647-4.063l-6.721-20.168
		c0.776,0.056,1.521,0.231,2.313,0.231c3.96,0,7.72-0.815,11.224-2.136l4.601,18.393c0.111,0.479,0.176,0.976,0.176,1.792
		C168,429.337,165.336,432,162.056,432z"/>
	<path d="M288,296c4.424,0,8-3.584,8-8v-24c0-2.12-0.84-4.16-2.345-5.655L272,236.688V216c0-4.416-3.576-8-8-8h-24
		c-2.128,0-4.16,0.84-5.656,2.345l-24,24C208.84,235.84,208,237.88,208,240v24c0,4.416,3.576,8,8,8h12.688l21.656,21.656
		C251.84,295.16,253.872,296,256,296H288z M237.656,258.344C236.16,256.84,234.128,256,232,256h-8v-12.688L243.312,224H256v16
		c0,2.12,0.84,4.16,2.344,5.656L280,267.312V280h-20.688L237.656,258.344z"/>
</g>
</svg>
