<?xml version="1.0" encoding="utf-8"?>
<!-- Generator: Adobe Illustrator 16.0.0, SVG Export Plug-In . SVG Version: 6.00 Build 0)  -->
<!DOCTYPE svg PUBLIC "-//W3C//DTD SVG 1.1//EN" "http://www.w3.org/Graphics/SVG/1.1/DTD/svg11.dtd">
<svg version="1.1" id="Layer_1" xmlns="http://www.w3.org/2000/svg" xmlns:xlink="http://www.w3.org/1999/xlink" x="0px" y="0px"
	 width="512px" height="512px" viewBox="0 0 512 512" enable-background="new 0 0 512 512" xml:space="preserve">
<g id="Page-1">
	<g id="_x30_29---Namaste" transform="translate(-1)">
		<path id="Shape" d="M2.126,473.6c2.339,4.09,7.549,5.511,11.64,3.175c31.113-16.625,63.59-30.563,97.075-41.66
			c33.621-12.032,43.759-15.667,43.759-25.515v-42.078l7.262-104.602c0.939-18.743,5.775-37.085,14.2-53.854
			c0.119-0.257,0.238-0.521,0.341-0.794l39.937-105.31c3.678-6.903,11.578-10.422,19.17-8.538
			c7.592,1.883,12.932,8.686,12.958,16.508v0.854c-0.336,2.126-0.876,4.215-1.613,6.237c-1.084,3.414-2.56,7.681-4.267,12.698
			c-8.78,25.549-24.747,72.2-27.699,112.64c-10.837,5.963-17.584,17.336-17.621,29.705v102.399c0,4.713,3.82,8.534,8.533,8.534
			s8.533-3.821,8.533-8.534V273.067c0-9.426,7.641-17.067,17.066-17.067s17.067,7.642,17.067,17.067v145.066
			c0,20.522-13.048,42.667-34.134,42.667c-7.373,0-29.064,11.946-64.47,35.566c-3.921,2.616-4.979,7.915-2.363,11.836
			s7.915,4.979,11.836,2.364c17.472-12.287,35.857-23.219,54.997-32.7c18.144-0.367,34.582-10.779,42.667-27.025
			c7.863,16.118,24.031,26.531,41.958,27.025h0.068c19.44,9.317,38.053,20.271,55.638,32.742c3.921,2.616,9.22,1.558,11.835-2.363
			c2.616-3.921,1.558-9.221-2.363-11.836c-35.405-23.663-57.097-35.609-64.47-35.609c-21.086,0-34.133-22.145-34.133-42.667V273.067
			c0-9.426,7.641-17.067,17.066-17.067s17.066,7.642,17.066,17.067v102.399c0,4.713,3.821,8.533,8.534,8.533
			c4.712,0,8.533-3.82,8.533-8.533V273.067c-0.045-12.345-6.772-23.696-17.579-29.662c-2.927-40.474-18.918-87.126-27.699-112.641
			c-1.706-5.025-3.2-9.318-4.317-12.8c-0.734-2.002-1.271-4.071-1.604-6.178v-0.854c0.025-7.822,5.365-14.625,12.957-16.508
			c7.592-1.884,15.492,1.635,19.171,8.538l39.936,105.25c0.103,0.272,0.223,0.537,0.342,0.793
			c8.452,16.824,13.297,35.229,14.225,54.033l7.236,103.894V409.6c0,9.848,10.138,13.482,43.759,25.515
			c33.473,11.089,65.938,25.015,97.041,41.626c4.091,2.336,9.302,0.915,11.64-3.175c2.336-4.091,0.915-9.301-3.174-11.64
			c-31.968-17.126-65.348-31.472-99.772-42.88c-11.03-3.637-21.854-7.87-32.426-12.681v-31.249
			c61.102-50.406,83.991-133.74,57.211-208.286S336.21,42.568,257,42.568c-79.211,0-149.898,49.717-176.679,124.263
			s-3.891,157.88,57.212,208.286v31.267c-10.572,4.809-21.396,9.042-32.427,12.681c-34.447,11.398-67.851,25.739-99.84,42.862
			c-1.968,1.129-3.404,2.994-3.994,5.185C0.684,469.302,0.99,471.636,2.126,473.6L2.126,473.6z M281.644,239.027
			c-9.49,0.277-18.43,4.521-24.644,11.699c-6.215-7.179-15.154-11.422-24.645-11.699c4.708-33.398,12.97-66.199,24.645-97.843
			C268.675,172.828,276.937,205.629,281.644,239.027z M86.333,230.4c-0.034-77.628,52.324-145.5,127.418-165.172
			c75.095-19.672,154.004,13.813,192.033,81.488s25.596,152.488-30.257,206.401l-6.323-91.076
			c-1.059-20.956-6.439-41.468-15.804-60.245L313.44,96.427c-0.098-0.269-0.212-0.53-0.342-0.785
			c-5.089-10.132-14.876-17.075-26.12-18.53C275.734,75.655,264.501,79.878,257,88.38c-7.504-8.501-18.738-12.721-29.982-11.262
			c-11.245,1.459-21.03,8.406-26.116,18.541c-0.129,0.254-0.243,0.517-0.341,0.785l-39.987,105.353
			c-9.346,18.729-14.724,39.188-15.795,60.092l-6.315,91.247C105.047,321.065,86.21,276.716,86.333,230.4L86.333,230.4z"/>
		<path id="Shape_1_" d="M265.533,17.067V8.533C265.533,3.82,261.713,0,257,0s-8.533,3.82-8.533,8.533v8.534
			c0,4.712,3.82,8.533,8.533,8.533S265.533,21.779,265.533,17.067z"/>
		<path id="Shape_2_" d="M150.333,54.178c3.047-0.004,5.861-1.631,7.384-4.271s1.521-5.891-0.002-8.53l-4.268-7.39
			c-2.372-4.046-7.565-5.42-11.628-3.074s-5.47,7.53-3.151,11.607l4.267,7.391C144.461,52.554,147.281,54.181,150.333,54.178z"/>
		<path id="Shape_3_" d="M60.588,126.856l7.398,4.267c2.642,1.549,5.911,1.563,8.566,0.038c2.655-1.524,4.289-4.355,4.282-7.418
			c-0.006-3.063-1.653-5.886-4.315-7.399l-7.398-4.267c-4.077-2.318-9.262-0.911-11.607,3.151S56.541,124.484,60.588,126.856
			L60.588,126.856z"/>
		<path id="Shape_4_" d="M43.666,238.933c4.713,0,8.534-3.82,8.534-8.533s-3.821-8.533-8.534-8.533h-8.533
			c-4.713,0-8.533,3.82-8.533,8.533s3.82,8.533,8.533,8.533H43.666z"/>
		<path id="Shape_5_" d="M57.465,345.6c2.356,4.081,7.575,5.479,11.656,3.123l7.398-4.267c2.662-1.514,4.31-4.337,4.315-7.399
			c0.007-3.063-1.627-5.894-4.282-7.418c-2.655-1.525-5.925-1.511-8.566,0.038l-7.398,4.267
			C56.507,336.301,55.109,341.519,57.465,345.6z"/>
		<path id="Shape_6_" d="M453.411,333.944l-7.398-4.267c-2.642-1.549-5.91-1.563-8.565-0.038c-2.655,1.524-4.29,4.355-4.283,7.418
			s1.653,5.886,4.315,7.399l7.398,4.267c4.078,2.318,9.263,0.911,11.607-3.151C458.831,341.51,457.458,336.316,453.411,333.944
			L453.411,333.944z"/>
		<path id="Shape_7_" d="M478.866,238.933c4.713,0,8.533-3.82,8.533-8.533s-3.82-8.533-8.533-8.533h-8.533
			c-4.713,0-8.533,3.82-8.533,8.533s3.82,8.533,8.533,8.533H478.866z"/>
		<path id="Shape_8_" d="M456.534,115.2c-2.356-4.081-7.575-5.479-11.656-3.123l-7.398,4.267c-2.662,1.514-4.309,4.337-4.315,7.399
			s1.628,5.894,4.283,7.418c2.655,1.525,5.924,1.511,8.565-0.038l7.398-4.267C457.492,124.5,458.891,119.281,456.534,115.2
			L456.534,115.2z"/>
		<path id="Shape_9_" d="M363.666,54.178c3.052,0.003,5.873-1.624,7.398-4.267l4.267-7.391c2.319-4.077,0.911-9.262-3.151-11.607
			c-4.062-2.346-9.256-0.972-11.628,3.074l-4.267,7.39c-1.523,2.64-1.524,5.891-0.002,8.53
			C357.805,52.548,360.619,54.175,363.666,54.178L363.666,54.178z"/>
	</g>
</g>
</svg>
