<?xml version="1.0" encoding="utf-8"?>
<!-- Generator: Adobe Illustrator 16.0.0, SVG Export Plug-In . SVG Version: 6.00 Build 0)  -->
<!DOCTYPE svg PUBLIC "-//W3C//DTD SVG 1.1//EN" "http://www.w3.org/Graphics/SVG/1.1/DTD/svg11.dtd">
<svg version="1.1" id="Capa_1" xmlns="http://www.w3.org/2000/svg" xmlns:xlink="http://www.w3.org/1999/xlink" x="0px" y="0px"
	 width="841.889px" height="595.281px" viewBox="0 0 841.889 595.281" enable-background="new 0 0 841.889 595.281"
	 xml:space="preserve">
<g>
	<g>
		<g>
			<path d="M708.663,0H133.226c-5.479,0-9.921,4.442-9.921,9.922v575.438c0,5.479,4.442,9.922,9.921,9.922h575.438
				c5.479,0,9.921-4.442,9.921-9.922V9.922C718.584,4.442,714.143,0,708.663,0z M698.742,575.438H143.148V19.843h555.595V575.438z"
				/>
			<path d="M532.987,532.845c3.874,3.873,10.154,3.873,14.028,0l84.183-84.183c3.873-3.874,3.873-10.154,0-14.028
				c-3.874-3.873-10.154-3.873-14.028,0l-67.247,67.246V148.82c0-5.479-4.442-9.921-9.922-9.921c-5.479,0-9.921,4.441-9.921,9.921
				v353.061l-67.247-67.246c-3.941-3.808-10.222-3.698-14.028,0.243c-3.715,3.844-3.715,9.94,0,13.785L532.987,532.845z"/>
			<path d="M540,119.056c5.479,0,9.922-4.442,9.922-9.922V69.449c0-5.479-4.442-9.921-9.922-9.921c-5.479,0-9.921,4.442-9.921,9.921
				v39.686C530.079,114.614,534.522,119.056,540,119.056z"/>
			<path d="M192.754,168.663h198.427c5.479,0,9.921-4.442,9.921-9.922v-39.685c0-5.479-4.442-9.922-9.921-9.922H192.754
				c-5.479,0-9.922,4.442-9.922,9.922v39.685C182.832,164.22,187.275,168.663,192.754,168.663z M202.675,128.977h178.584v19.843
				H202.675V128.977z"/>
			<path d="M192.754,248.034h158.741c5.479,0,9.922-4.442,9.922-9.922v-39.686c0-5.479-4.442-9.921-9.922-9.921H192.754
				c-5.479,0-9.922,4.442-9.922,9.921v39.686C182.832,243.592,187.275,248.034,192.754,248.034z M202.675,208.348h138.899v19.843
				H202.675V208.348z"/>
			<path d="M192.754,327.404H311.81c5.479,0,9.922-4.442,9.922-9.921v-39.686c0-5.479-4.442-9.922-9.922-9.922H192.754
				c-5.479,0-9.922,4.442-9.922,9.922v39.686C182.832,322.962,187.275,327.404,192.754,327.404z M202.675,287.719h99.214v19.843
				h-99.214V287.719z"/>
			<path d="M192.754,406.775h79.37c5.479,0,9.922-4.442,9.922-9.922v-39.685c0-5.479-4.442-9.922-9.922-9.922h-79.37
				c-5.479,0-9.922,4.442-9.922,9.922v39.685C182.832,402.333,187.275,406.775,192.754,406.775z M202.675,367.09h59.528v19.843
				h-59.528V367.09z"/>
			<path d="M192.754,486.146h39.686c5.479,0,9.921-4.442,9.921-9.922v-39.686c0-5.479-4.442-9.921-9.921-9.921h-39.686
				c-5.479,0-9.922,4.442-9.922,9.921v39.686C182.832,481.704,187.275,486.146,192.754,486.146z M202.675,446.461h19.843v19.843
				h-19.843V446.461z"/>
		</g>
	</g>
</g>
</svg>
