<?xml version="1.0" encoding="utf-8"?>
<!-- Generator: Adobe Illustrator 16.0.0, SVG Export Plug-In . SVG Version: 6.00 Build 0)  -->
<!DOCTYPE svg PUBLIC "-//W3C//DTD SVG 1.1//EN" "http://www.w3.org/Graphics/SVG/1.1/DTD/svg11.dtd">
<svg version="1.1" id="Capa_1" xmlns="http://www.w3.org/2000/svg" xmlns:xlink="http://www.w3.org/1999/xlink" x="0px" y="0px"
	 width="841.889px" height="595.281px" viewBox="0 0 841.889 595.281" enable-background="new 0 0 841.889 595.281"
	 xml:space="preserve">
<g>
	<g>
		<path d="M706.958,242.704h-74.41c-6.421,0-11.627,5.206-11.627,11.626v58.715c0,6.42,5.206,11.626,11.627,11.626
			s11.627-5.206,11.627-11.626v-47.088h51.156v306.07h-25.578h-25.578V400.244c0-6.42-5.206-11.627-11.627-11.627
			s-11.627,5.207-11.627,11.627v171.783h-23.253v-240.67c0-6.42-5.205-11.626-11.626-11.626h-74.41
			c-6.422,0-11.627,5.206-11.627,11.626v240.67h-23.253V412.744c0-6.421-5.205-11.627-11.627-11.627h-74.409
			c-6.422,0-11.627,5.206-11.627,11.627v159.283h-23.253v-92.576c0-6.42-5.205-11.627-11.627-11.627h-74.41
			c-6.421,0-11.626,5.207-11.626,11.627v92.576h-99.988c-6.411,0-11.627-5.216-11.627-11.626V34.88
			c0-6.411,5.216-11.627,11.627-11.627H458.12v76.739c0,19.232,15.647,34.88,34.88,34.88h76.735v143.003
			c0,6.421,5.205,11.627,11.627,11.627c6.421,0,11.626-5.206,11.626-11.627v-154.63c0-3.083-1.226-6.04-3.405-8.221L477.968,3.405
			C475.787,1.225,472.83,0,469.747,0H158.185c-19.233,0-34.88,15.647-34.88,34.88v525.521c0,19.232,15.646,34.88,34.88,34.88
			h548.773c6.421,0,11.626-5.207,11.626-11.627V254.33C718.584,247.91,713.379,242.704,706.958,242.704z M481.373,39.697
			l71.921,71.922H493c-6.412,0-11.627-5.216-11.627-11.627V39.697z M332.583,572.027h-51.157v-80.949h51.157V572.027z
			 M453.499,572.027h-51.157V424.37h51.157V572.027z M574.415,572.027h-51.157V342.984h51.157V572.027z"/>
	</g>
</g>
<g>
	<g>
		<path d="M640.768,346.262c-2.162-2.173-5.162-3.406-8.22-3.406s-6.058,1.233-8.22,3.406c-2.163,2.163-3.407,5.162-3.407,8.221
			c0,3.058,1.244,6.057,3.407,8.22c2.162,2.161,5.162,3.406,8.22,3.406s6.058-1.244,8.22-3.406c2.163-2.163,3.407-5.162,3.407-8.22
			C644.175,351.425,642.931,348.426,640.768,346.262z"/>
	</g>
</g>
<g>
	<g>
		<path d="M292.561,63.631c-6.422,0-11.627,5.207-11.627,11.627v20.915c-53.518,5.81-95.309,51.27-95.309,106.308
			c0,58.964,47.972,106.936,106.936,106.936c55.038,0,100.498-41.79,106.308-95.309h20.913c6.422,0,11.627-5.207,11.627-11.627
			C431.408,125.918,369.121,63.631,292.561,63.631z M292.561,286.161c-46.143,0-83.683-37.539-83.683-83.682
			c0-42.196,31.397-77.199,72.056-82.877v82.877c0,6.42,5.205,11.626,11.627,11.626h82.876
			C369.76,254.763,334.757,286.161,292.561,286.161z M304.188,190.853L304.188,190.853V87.465
			c54.473,5.467,97.921,48.916,103.388,103.389H304.188z"/>
	</g>
</g>
<g>
	<g>
		<path d="M419.781,342.112H197.715c-6.422,0-11.627,5.206-11.627,11.627c0,6.42,5.205,11.626,11.627,11.626h222.066
			c6.422,0,11.627-5.206,11.627-11.626C431.408,347.318,426.203,342.112,419.781,342.112z"/>
	</g>
</g>
<g>
	<g>
		<path d="M272.124,398.211h-74.409c-6.422,0-11.627,5.206-11.627,11.626s5.205,11.627,11.627,11.627h74.409
			c6.422,0,11.627-5.207,11.627-11.627S278.546,398.211,272.124,398.211z"/>
	</g>
</g>
<g>
	<g>
		<path d="M338.571,401.617c-2.162-2.163-5.162-3.406-8.22-3.406c-3.069,0-6.058,1.242-8.221,3.406
			c-2.174,2.162-3.406,5.162-3.406,8.22s1.232,6.058,3.406,8.219c2.163,2.163,5.151,3.408,8.221,3.408
			c3.058,0,6.058-1.244,8.22-3.408c2.162-2.161,3.406-5.161,3.406-8.219S340.733,403.779,338.571,401.617z"/>
	</g>
</g>
</svg>
