<?xml version="1.0" encoding="utf-8"?>
<!-- Generator: Adobe Illustrator 16.0.0, SVG Export Plug-In . SVG Version: 6.00 Build 0)  -->
<!DOCTYPE svg PUBLIC "-//W3C//DTD SVG 1.1//EN" "http://www.w3.org/Graphics/SVG/1.1/DTD/svg11.dtd">
<svg version="1.1" id="Capa_1" xmlns="http://www.w3.org/2000/svg" xmlns:xlink="http://www.w3.org/1999/xlink" x="0px" y="0px"
	 width="512px" height="512px" viewBox="0 0 512 512" enable-background="new 0 0 512 512" xml:space="preserve">
<g>
	<g>
		<path d="M223.675,38.386h-96.976c-4.144,0-7.5,3.356-7.5,7.5v139.402c0,4.144,3.356,7.5,7.5,7.5h96.976c4.143,0,7.5-3.356,7.5-7.5
			V45.886C231.175,41.743,227.817,38.386,223.675,38.386z M216.175,177.789h-81.976V53.386h81.976V177.789z"/>
		<path d="M260.041,87.731h125.26c4.143,0,7.5-3.357,7.5-7.5V45.886c0-4.144-3.357-7.5-7.5-7.5h-125.26c-4.144,0-7.5,3.356-7.5,7.5
			v34.346C252.541,84.374,255.898,87.731,260.041,87.731z M267.541,53.386h110.26v19.346h-110.26V53.386z"/>
		<path d="M260.041,124.098h125.26c4.143,0,7.5-3.357,7.5-7.5c0-4.144-3.357-7.5-7.5-7.5h-125.26c-4.144,0-7.5,3.356-7.5,7.5
			C252.541,120.741,255.898,124.098,260.041,124.098z"/>
		<path d="M260.041,156.423h125.26c4.143,0,7.5-3.356,7.5-7.5c0-4.143-3.357-7.5-7.5-7.5h-125.26c-4.144,0-7.5,3.357-7.5,7.5
			C252.541,153.066,255.898,156.423,260.041,156.423z"/>
		<path d="M260.041,192.789h125.26c4.143,0,7.5-3.356,7.5-7.5c0-4.143-3.357-7.5-7.5-7.5h-125.26c-4.144,0-7.5,3.357-7.5,7.5
			C252.541,189.432,255.898,192.789,260.041,192.789z"/>
		<path d="M191.931,221.654c0,4.143,3.357,7.5,7.5,7.5h185.87c4.143,0,7.5-3.357,7.5-7.5s-3.357-7.5-7.5-7.5h-185.87
			C195.288,214.154,191.931,217.512,191.931,221.654z"/>
		<path d="M126.699,229.154h36.365c4.144,0,7.5-3.357,7.5-7.5s-3.356-7.5-7.5-7.5h-36.365c-4.144,0-7.5,3.357-7.5,7.5
			S122.557,229.154,126.699,229.154z"/>
		<path d="M228.262,301.981h-20.244c-4.143,0-7.5,3.356-7.5,7.5v69.694c0,1.995,0.795,3.906,2.209,5.314
			c1.405,1.399,3.309,2.186,5.291,2.186h0.033c0.002,0,18.616-0.083,23.746-0.083c14.479,0,26.26-11.779,26.26-26.26
			c0-8.647-4.204-16.329-10.673-21.117c2.775-3.862,4.415-8.592,4.415-13.698C251.799,312.54,241.24,301.981,228.262,301.981
			L228.262,301.981z M228.262,316.981c4.707,0,8.537,3.83,8.537,8.537s-3.83,8.536-8.537,8.536c-1.517,0-4.401,0.009-7.526,0.02
			h-5.218v-17.093H228.262z M231.797,371.594c-2.979,0-10.483,0.026-16.279,0.051v-22.549c1.699-0.007,3.516-0.015,5.257-0.021
			h11.022c6.209,0,11.26,5.052,11.26,11.261C243.057,366.543,238.006,371.594,231.797,371.594z"/>
		<path d="M85.387,337.843c-8.755-3.229-16.891-6.751-19.18-7.755c-1.764-1.353-2.611-3.47-2.283-5.758
			c0.21-1.46,1.252-5.022,6.394-6.571c10.467-3.152,20.042,4.452,20.296,4.655c3.173,2.637,7.879,2.22,10.535-0.94
			c2.665-3.171,2.256-7.902-0.915-10.567c-0.638-0.535-15.822-13.058-34.241-7.511c-9.165,2.762-15.646,9.967-16.915,18.804
			c-1.188,8.264,2.395,16.21,9.344,20.741c0.331,0.216,0.679,0.405,1.04,0.566c0.4,0.179,9.964,4.436,20.734,8.407
			c3.343,1.233,10.997,4.758,9.911,10.84c-0.782,4.386-5.997,8.923-13.366,8.923c-7.265,0-14.267-2.941-18.729-7.867
			c-2.783-3.071-7.525-3.301-10.594-0.521c-3.069,2.781-3.304,7.524-0.521,10.595c7.262,8.012,18.417,12.795,29.846,12.795
			c14.1,0,25.932-8.952,28.134-21.286C106.522,356.155,102.269,344.069,85.387,337.843L85.387,337.843z"/>
		<path d="M127.7,301.981c-4.144,0-7.5,3.356-7.5,7.5v47.957c0,10.218,4.709,18.193,14.396,24.384
			c5.027,3.213,10.705,4.847,16.875,4.854h0.048c5.325,0,10.321-1.156,14.849-3.438c14.267-7.185,17.262-18.022,17.262-25.851
			v-47.907c0-4.144-3.357-7.5-7.5-7.5c-4.144,0-7.5,3.356-7.5,7.5v47.907c0,3.687-1.023,8.433-9.009,12.454
			c-2.415,1.217-5.142,1.833-8.103,1.833c-0.009,0-0.019,0-0.026,0c-3.314-0.004-6.198-0.82-8.818-2.494
			c-5.307-3.392-7.472-6.793-7.472-11.743v-47.957C135.2,305.339,131.843,301.981,127.7,301.981L127.7,301.981z"/>
		<path d="M512,276.65c0-15.279-12.427-27.71-27.7-27.71h-53.113V7.5c0-4.143-3.357-7.5-7.5-7.5H88.313c-4.143,0-7.5,3.357-7.5,7.5
			v73.394c0,4.143,3.357,7.5,7.5,7.5c4.144,0,7.5-3.357,7.5-7.5V15h320.373v233.94h-8.832c-4.143,0-7.5,3.356-7.5,7.5
			c0,4.143,3.357,7.5,7.5,7.5H484.3c7.003,0,12.7,5.702,12.7,12.71v124.692l-50.681-17.807c0.881-1.229,1.406-2.731,1.406-4.36
			v-62.194h11.822c4.143,0,7.5-3.357,7.5-7.5c0-4.144-3.357-7.5-7.5-7.5h-38.489c-4.143,0-7.5,3.356-7.5,7.5
			c0,4.143,3.357,7.5,7.5,7.5h11.667v61.778l-36.39-12.786V309.48c0-4.144-3.357-7.5-7.5-7.5c-4.144,0-7.5,3.356-7.5,7.5v51.223
			l-17.065-5.996c-1.533-0.539-3.159-0.537-4.656-0.085l-8.673-45.379c-0.821-4.036-4.269-7.017-8.382-7.248
			c-4.112-0.229-7.87,2.344-9.142,6.262c-0.027,0.086-0.055,0.171-0.078,0.258l-13.63,47.812l-14.129-47.89
			c-0.026-0.089-0.055-0.176-0.083-0.264c-1.312-3.906-5.095-6.445-9.209-6.168c-4.111,0.275-7.526,3.294-8.32,7.426l-12.25,67.869
			c-0.735,4.075,1.973,7.977,6.049,8.713c4.072,0.732,7.979-1.973,8.713-6.049l7.807-43.246l12.836,43.507
			c0.025,0.09,0.055,0.179,0.084,0.267c1.245,3.704,4.696,6.186,8.602,6.186h0.047c3.923-0.021,7.373-2.54,8.584-6.271
			c0.028-0.086,0.056-0.173,0.08-0.261l12.395-43.477l8.289,43.372c0.776,4.069,4.714,6.741,8.773,5.958
			c1.443-0.275,2.704-0.952,3.703-1.887l14.265,40.6H110.09c-4.144,0-7.5,3.356-7.5,7.5c0,4.143,3.356,7.5,7.5,7.5h271.124
			l23.638,67.275c0.969,2.758,3.451,4.701,6.361,4.979c0.238,0.022,0.479,0.033,0.717,0.033c2.646,0,5.12-1.399,6.474-3.716
			l33.15-56.729l20.268-11.845H484.3c15.15,0,27.491-12.227,27.69-27.409c0-0.003,0-0.007,0-0.01c0.001-0.12,0.01-0.239,0.01-0.36
			V276.65z M442.286,439.596c-1.112,0.65-2.04,1.578-2.69,2.69l-25.965,44.435L374.04,374.04l112.681,39.592L442.286,439.596z"/>
		<path d="M75.081,424.711H27.7c-7.004,0-12.7-5.697-12.7-12.7V276.65c0-7.009,5.696-12.71,12.7-12.71h344.585
			c4.143,0,7.5-3.357,7.5-7.5c0-4.144-3.357-7.5-7.5-7.5H95.813V115.932c0-4.144-3.356-7.5-7.5-7.5c-4.143,0-7.5,3.356-7.5,7.5
			V248.94H27.7c-15.274,0-27.7,12.431-27.7,27.71v135.36c0,15.273,12.426,27.7,27.7,27.7h47.381c4.143,0,7.5-3.357,7.5-7.5
			C82.581,428.067,79.224,424.711,75.081,424.711L75.081,424.711z"/>
	</g>
</g>
</svg>
