<?xml version="1.0" encoding="utf-8"?>
<!-- Generator: Adobe Illustrator 16.0.0, SVG Export Plug-In . SVG Version: 6.00 Build 0)  -->
<!DOCTYPE svg PUBLIC "-//W3C//DTD SVG 1.1//EN" "http://www.w3.org/Graphics/SVG/1.1/DTD/svg11.dtd">
<svg version="1.1" id="Layer_5" xmlns="http://www.w3.org/2000/svg" xmlns:xlink="http://www.w3.org/1999/xlink" x="0px" y="0px"
	 width="512px" height="512px" viewBox="0 0 512 512" enable-background="new 0 0 512 512" xml:space="preserve">
<path d="M192,256c-30.88,0-56,25.12-56,56c0,30.881,25.12,56,56,56s56-25.119,56-56C248,281.12,222.88,256,192,256z M192,352
	c-22.057,0-40-17.943-40-40c0-22.056,17.943-40,40-40c22.056,0,40,17.944,40,40C232,334.056,214.056,352,192,352z"/>
<path d="M192,288c-13.232,0-24,10.769-24,24c0,13.232,10.768,24,24,24c13.231,0,24-10.768,24-24C216,298.768,205.232,288,192,288z
	 M192,320c-4.408,0-8-3.592-8-8c0-4.407,3.592-8,8-8s8,3.593,8,8C200,316.408,196.408,320,192,320z"/>
<path d="M296,281.752l-19.328-4.823l10.248-17.072l-42.776-42.776l-17.072,10.248L222.248,208h-60.496l-4.824,19.328l-17.072-10.248
	L97.08,259.856l10.248,17.072L88,281.752v60.496l19.328,4.824L97.08,364.144l36.8,36.808l22.567-6.231l5.305,21.28h60.496
	l5.312-21.28l22.568,6.231l36.8-36.808l-10.248-17.072l19.32-4.824V281.752z M280,329.753l-19.568,4.888l-4.023,9.76l10.367,17.28
	L245.4,383.056l-22.176-6.12l-8.592,3.504l-4.88,19.561h-35.504l-4.889-19.568l-8.592-3.504l-22.176,6.12l-21.376-21.376
	l10.368-17.28l-4-9.752L104,329.753v-35.505l19.567-4.888l4.017-9.776l-10.368-17.264l25.104-25.104l17.265,10.368l9.775-4.016
	L174.248,224h35.504l4.888,19.568l9.776,4.016l17.264-10.368l25.104,25.104l-10.368,17.264l4.016,9.776L280,294.248V329.753z"/>
<path d="M504,376V92.688L419.312,8H232v141.017c-12.849-3.16-26.192-5.017-40-5.017C99.36,144,24,219.36,24,312
	c0,46.992,19.448,89.48,50.647,120H40v16h53.768c8.496,6.152,17.568,11.505,27.145,16H8v16h184h240v24.648L492.808,456L432,407.352
	V432H309.304c16.584-16.096,29.44-35.119,38.056-56H504z M456,104v32H280V56h128v48H456z M424,88V35.312L476.688,88H424z M248,24
	h160v16H264v112h208v-48h16v256H353.072c4.553-15.336,6.929-31.455,6.929-48c0-72.976-46.856-135.063-112-158.2V24z M255.864,432
	C298.736,409.089,328,363.912,328,312c0-74.992-61.008-136-136-136S56,237.008,56,312s61.008,136,136,136h256v-7.352L467.192,456
	L448,471.352V464H192c-83.816,0-152-68.184-152-152c0-83.815,68.184-152,152-152c83.815,0,152,68.185,152,152
	c0,47.345-21.521,90.912-59.08,120H255.864z M192,432c-66.168,0-120-53.831-120-120c0-66.168,53.832-120,120-120s120,53.832,120,120
	C312,378.169,258.168,432,192,432z"/>
<path d="M376,168h96v16h-96V168z"/>
<path d="M376,200h96v16h-96V200z"/>
<path d="M376,232h96v16h-96V232z"/>
<path d="M376,264h96v16h-96V264z"/>
<path d="M456,296h16v16h-16V296z"/>
<path d="M376,296h64v16h-64V296z"/>
<path d="M376,328h96v16h-96V328z"/>
<path d="M8,432h16v16H8V432z"/>
</svg>
