<?xml version="1.0" encoding="utf-8"?>
<!-- Generator: Adobe Illustrator 16.0.0, SVG Export Plug-In . SVG Version: 6.00 Build 0)  -->
<!DOCTYPE svg PUBLIC "-//W3C//DTD SVG 1.1//EN" "http://www.w3.org/Graphics/SVG/1.1/DTD/svg11.dtd">
<svg version="1.1" id="outline" xmlns="http://www.w3.org/2000/svg" xmlns:xlink="http://www.w3.org/1999/xlink" x="0px" y="0px"
	 width="841.889px" height="595.281px" viewBox="0 0 841.889 595.281" enable-background="new 0 0 841.889 595.281"
	 xml:space="preserve">
<g>
	<path d="M463.544,269.736c5.144,0,9.302-4.167,9.302-9.301c0-5.135-4.158-9.302-9.302-9.302h-0.948
		c-3.786-9.924-13.366-17.021-24.63-17.021c-14.51,0-26.323,11.803-26.323,26.322c0,4.26-3.46,7.72-7.72,7.72
		c-4.307,0-7.813-3.469-7.813-7.72c0-2.791,1.47-5.312,3.935-6.753c4.445-2.576,5.943-8.278,3.357-12.715s-8.287-5.962-12.715-3.357
		c-5.302,3.088-9.105,7.962-11.245,13.523h-1.098c-5.144,0-9.301,4.167-9.301,9.302c0,5.134,4.157,9.301,9.301,9.301h0.949
		c3.785,9.925,13.365,17.021,24.629,17.021c14.52,0,26.323-11.813,26.323-26.322c0-4.26,3.46-7.72,7.72-7.72
		c4.307,0,7.813,3.469,7.813,7.72c0,2.79-1.47,5.311-3.934,6.753c-4.446,2.576-5.944,8.277-3.358,12.715
		c1.73,2.967,4.846,4.622,8.046,4.622c1.591,0,3.199-0.399,4.669-1.265c5.302-3.088,9.106-7.962,11.236-13.524H463.544z"/>
	<path d="M715.748,291.176l0.111-0.111l-71.434-71.434l16.863-45.297c1.721-4.716,1.497-9.813-0.623-14.353
		c-2.121-4.501-5.869-7.905-10.521-9.57l-52.542-19.151l5.516-33.104c0.818-4.911-0.326-9.841-3.229-13.868
		c-2.911-4.046-7.227-6.716-12.185-7.524l-55.146-8.957v-2.697c0-10.26-8.344-18.603-18.603-18.603h-42.042l-28.629-35.745
		C437.929,4.027,429.576,0,420.945,0s-16.984,4.027-22.323,10.743l-28.647,35.764h-42.042c-10.259,0-18.603,8.343-18.603,18.603
		v2.697l-55.072,8.957c-10.147,1.655-17.059,11.245-15.394,21.411l5.516,33.094l-52.552,19.235
		c-4.66,1.702-8.381,5.097-10.482,9.571c-2.131,4.511-2.345,9.58-0.605,14.314l16.808,45.157l-71.508,71.508l0.121,0.121
		c-1.739,1.739-2.855,3.99-2.855,6.465v279.037c0,4.8,1.888,9.441,5.711,13.479c3.525,3.302,8.092,5.125,12.892,5.125h558.075
		c4.799,0,9.366-1.823,13.281-5.516c3.433-3.646,5.32-8.288,5.32-13.088V297.64C718.584,295.166,717.469,292.915,715.748,291.176z
		 M690.615,292.125l-79.516,17.04l26.191-70.364L690.615,292.125z M635.999,188.946c-8.948-6.716-13.925-17.543-13.227-28.731
		l21.058,7.673L635.999,188.946z M581.066,117.317c-10.129-4.893-17.104-14.622-18.5-25.812l22.211,3.6L581.066,117.317z
		 M543.61,88.436c0.418,21.449,14.147,40.6,34.303,47.827l-27.085,162.456c-0.847,5.068,2.576,9.859,7.646,10.696
		c0.521,0.084,1.023,0.13,1.535,0.13c4.464,0,8.408-3.228,9.161-7.775l25.318-151.853l10.231,3.729
		c-3.572,21.059,6.26,42.396,24.573,53.315l-39.771,106.825l-31.113,6.669c-5.022,1.078-8.231,6.018-7.152,11.04
		c1.061,5.022,6.009,8.213,11.04,7.153l137.688-29.504V564.54L477.877,356.768l47.325-10.129c4.297-0.921,7.357-4.706,7.357-9.097
		V86.641L543.61,88.436z M432.692,314.689c-6.836-5.664-16.714-5.664-23.494,0c-25.337-5.339-44.061-27.857-44.061-54.254
		c0-30.778,25.03-55.808,55.808-55.808c30.778,0,55.808,25.029,55.808,55.808C476.752,286.832,458.02,309.36,432.692,314.689z
		 M420.935,329.013l264.788,247.664H156.166L420.935,329.013z M513.957,87.999c-11.646-2.241-20.882-11.319-23.337-22.89h23.337
		V87.999z M413.151,22.342c3.738-4.688,11.821-4.706,15.607,0.019l19.327,24.146h-54.291L413.151,22.342z M349.948,65.109
		c-2.362,11.124-11.004,19.886-22.017,22.556V65.109H349.948z M279.417,91.515c-1.405,11.171-8.362,20.891-18.473,25.783
		l-3.702-22.175L279.417,91.515z M275.501,318.048c0.763,4.548,4.697,7.767,9.161,7.767c0.512,0,1.023-0.037,1.545-0.131
		c5.06-0.846,8.482-5.637,7.636-10.705l-29.755-178.733c20.138-7.246,33.856-26.388,34.275-47.817l10.966-1.777v250.893
		c0,4.391,3.069,8.186,7.367,9.097l31.438,6.697c5.013,1.06,9.952-2.13,11.04-7.162c1.061-5.032-2.139-9.971-7.171-11.041
		l-24.072-5.125V106.471c21.254-3.098,37.894-19.998,40.656-41.362h103.393c2.818,21.802,20.1,38.916,41.977,41.492v223.417
		l-52.636,11.264l-12.715-11.887c27.55-10.994,46.748-38.07,46.748-68.96c0-41.028-33.382-74.41-74.41-74.41
		c-41.027,0-74.41,33.382-74.41,74.41c0,30.89,19.198,57.975,46.767,68.979L141.907,564.54V309.146l101.672,21.774
		c3.293,0.706,6.771-0.456,8.984-3.014c2.214-2.567,2.865-6.148,1.684-9.329l-41.539-111.634
		c18.333-10.93,28.192-32.257,24.639-53.297l10.139-3.711L275.501,318.048z M219.293,160.252
		c0.67,11.171-4.324,21.969-13.282,28.685l-7.804-20.965L219.293,160.252z M230.883,309.174l-79.609-17.049l53.398-53.398
		L230.883,309.174z"/>
</g>
</svg>
