<?xml version="1.0" encoding="utf-8"?>
<!-- Generator: Adobe Illustrator 16.0.0, SVG Export Plug-In . SVG Version: 6.00 Build 0)  -->
<!DOCTYPE svg PUBLIC "-//W3C//DTD SVG 1.1//EN" "http://www.w3.org/Graphics/SVG/1.1/DTD/svg11.dtd">
<svg version="1.1" id="Layer_5" xmlns="http://www.w3.org/2000/svg" xmlns:xlink="http://www.w3.org/1999/xlink" x="0px" y="0px"
	 width="512px" height="512px" viewBox="0 0 512 512" enable-background="new 0 0 512 512" xml:space="preserve">
<g>
	<path d="M504,16h-88c-10.568,0-19.465,6.912-22.656,16.424l-15.192-12.159C368.256,12.36,355.832,8,343.168,8H240
		c-8.824,0-16,7.177-16,16c0,5.856,1.695,11.272,4.447,16H192c-13.232,0-24,10.769-24,24c0,2.816,0.576,5.488,1.472,8H160
		c-10.416,0-19.216,6.712-22.528,16H80c-22.057,0-40,17.944-40,40v60.168C20.472,204.328,8,228.736,8,256
		c0,27.265,12.472,51.673,32,67.832V368c0,22.057,17.943,40,40,40h111.704c-1.345,12.761-7.977,24.328-18.368,32H168
		c-22.057,0-40,17.944-40,40c0,13.232,10.768,24,24,24h208c13.231,0,24-10.768,24-24c0-22.056-17.944-40-40-40h-5.328
		c-10.393-7.672-17.024-19.239-18.368-32H432c22.056,0,40-17.943,40-40V176h32V16z M288,136h-47.736h-15.16H208h-16
		c-4.416,0-8-3.584-8-8s3.584-8,8-8h96V136z M220.312,168H208c-4.416,0-8-3.584-8-8s3.584-8,8-8h14.712L220.312,168z M169.472,136
		c2.624,7.353,8.688,13.017,16.288,15.072C184.648,153.84,184,156.84,184,160c0,13.232,10.768,24,24,24h9.912L200.36,301.024
		C200.12,302.6,200,304.2,200,305.792V312c0,5.856,1.695,11.272,4.447,16H146.44C169.112,312.064,184,285.76,184,256
		c0-48.52-39.48-88-88-88c-2.704,0-5.36,0.168-8,0.408V136H169.472z M216,312v-6.208c0-0.792,0.056-1.576,0.176-2.376L238.888,152
		h1.376H296h57.111l22.721,151.433c0.111,0.775,0.168,1.567,0.168,2.359V312c0,8.824-7.176,16-16,16H232
		C223.176,328,216,320.824,216,312z M391.648,301.04l-18.832-125.544c1.849-1.151,3.632-2.399,5.336-3.76l15.192-12.16
		C396.535,169.088,405.432,176,416,176h8v152h-36.448c2.752-4.728,4.448-10.144,4.448-16v-6.208
		C392,304.2,391.88,302.6,391.648,301.04L391.648,301.04z M184,64c0-4.416,3.584-8,8-8h64h60.688l7.592,7.593
		C334.856,74.168,348.92,80,363.88,80H376V64h-12.12c-10.688,0-20.736-4.168-28.288-11.72L323.312,40H320h-64
		c-8.824,0-16-7.176-16-16h103.168c9.048,0,17.92,3.112,24.983,8.769L392,51.848v88.304l-21.864,17.496L366.888,136H304V83.312
		c0-5.16,2.008-10.008,5.655-13.656l-11.312-11.312C294.448,62.24,291.72,66.936,290,72h-98C187.584,72,184,68.416,184,64L184,64z
		 M160,88h32h96v16h-96h-32c-4.416,0-8-3.584-8-8S155.584,88,160,88L160,88z M56,128c0-13.231,10.768-24,24-24h57.472
		c3.313,9.288,12.112,16,22.528,16H88c-8.824,0-16,7.177-16,16v35.408c-5.584,1.584-10.929,3.704-16,6.304V128z M24,256
		c0-39.704,32.296-72,72-72s72,32.296,72,72s-32.296,72-72,72S24,295.704,24,256z M368,480c0,4.416-3.584,8-8,8H152
		c-4.416,0-8-3.584-8-8c0-13.231,10.768-24,24-24h176C357.232,456,368,466.768,368,480z M316.232,440H195.768
		c6.864-9.239,11.024-20.287,11.937-32h96.6C305.216,419.713,309.376,430.76,316.232,440L316.232,440z M456,368
		c0,13.232-10.769,24-24,24H80c-13.232,0-24-10.768-24-24v-33.712C68.016,340.448,81.592,344,96,344h328c8.823,0,16-7.176,16-16V176
		h16V368z M488,160h-72c-4.416,0-8-3.584-8-8V40c0-4.416,3.584-8,8-8h72V160z"/>
	<path d="M104,360h16v16h-16V360z"/>
	<path d="M136,360h16v16h-16V360z"/>
	<path d="M72,360h16v16H72V360z"/>
	<path d="M88,280c-4.416,0-8-3.584-8-8H64c0,13.232,10.768,24,24,24v16h16v-16h24v-24c0-13.231-10.769-24-24-24H88
		c-4.416,0-8-3.584-8-8v-8h24c4.416,0,8,3.584,8,8h16c0-13.231-10.769-24-24-24v-16H88v16H64v24c0,13.232,10.768,24,24,24h16
		c4.416,0,8,3.584,8,8v8H88z"/>
	<path d="M320,208c0,13.232-10.769,24-24,24c-13.232,0-24-10.768-24-24v-40h-16v40c0,22.057,17.943,40,40,40
		c22.056,0,40-17.943,40-40v-40h-16V208z"/>
</g>
</svg>
