<?xml version="1.0" encoding="utf-8"?>
<!-- Generator: Adobe Illustrator 16.0.0, SVG Export Plug-In . SVG Version: 6.00 Build 0)  -->
<!DOCTYPE svg PUBLIC "-//W3C//DTD SVG 1.1//EN" "http://www.w3.org/Graphics/SVG/1.1/DTD/svg11.dtd">
<svg version="1.1" id="Layer_1" xmlns="http://www.w3.org/2000/svg" xmlns:xlink="http://www.w3.org/1999/xlink" x="0px" y="0px"
	 width="512px" height="512px" viewBox="0 0 512 512" enable-background="new 0 0 512 512" xml:space="preserve">
<path d="M494.5,323h-15V213.914h2.5c6.895,0,12.5-5.605,12.5-12.5V110.5c0-6.895-5.605-12.5-12.5-12.5h-2.5V60.5
	c0-9.648-7.852-17.5-17.5-17.5h-76.121V12.5c0-6.895-5.609-12.5-12.5-12.5H138.621c-6.891,0-12.5,5.605-12.5,12.5V43H102
	c-4.145,0-7.5,3.359-7.5,7.5S97.856,58,102,58h24.121v10H65c-4.145,0-7.5,3.359-7.5,7.5v76.289h-10V60.5c0-1.355,1.145-2.5,2.5-2.5
	h16c4.141,0,7.5-3.359,7.5-7.5S70.141,43,66,43H50c-9.648,0-17.5,7.852-17.5,17.5v91.289h-1.066c-6.895,0-12.5,5.605-12.5,12.5
	V272.5c0,6.895,5.605,12.5,12.5,12.5H32.5v38h-15C7.852,323,0,330.851,0,340.5v19.258c0,9.648,7.852,17.5,17.5,17.5H125
	c4.141,0,7.5-3.359,7.5-7.5c0-4.145-3.359-7.5-7.5-7.5H17.5c-1.355,0-2.5-1.145-2.5-2.5V340.5c0-1.355,1.145-2.5,2.5-2.5h174.113
	l6.891,11.93c2.699,4.68,8.586,8.078,13.992,8.078h87.008c5.406,0,11.293-3.398,13.992-8.078l6.891-11.93H494.5
	c1.355,0,2.5,1.145,2.5,2.5v19.258c0,1.355-1.145,2.5-2.5,2.5H161c-4.145,0-7.5,3.355-7.5,7.5c0,4.141,3.355,7.5,7.5,7.5h333.5
	c9.648,0,17.5-7.852,17.5-17.5V340.5C512,330.851,504.149,323,494.5,323z M385.879,58H462c1.355,0,2.5,1.145,2.5,2.5V98h-10V75.5
	c0-4.141-3.355-7.5-7.5-7.5h-61.121V58z M385.879,83H439.5v15h-53.621V83z M479.5,113v85.914H363.297V113H479.5z M141.121,15
	h229.758v83h-10.082c-6.895,0-12.5,5.605-12.5,12.5v90.914c0,6.895,5.605,12.5,12.5,12.5h10.082v19.715c0,4.141,3.355,7.5,7.5,7.5
	c4.141,0,7.5-3.359,7.5-7.5v-19.715H439.5V298h-53.621v-29.371c0-4.145-3.359-7.5-7.5-7.5c-4.145,0-7.5,3.355-7.5,7.5V298H141.121
	v-13H148c6.895,0,12.5-5.605,12.5-12.5V164.289c0-6.895-5.605-12.5-12.5-12.5h-6.879V15z M72.5,83h53.621v68.789H72.5V83z
	 M33.934,166.789H145.5V270H33.934V166.789z M126.121,285v13H72.5v-13H126.121z M300.559,342.34c-0.23,0.25-0.824,0.594-1.156,0.668
	h-86.805c-0.332-0.074-0.926-0.418-1.156-0.668l-2.504-4.34h94.129L300.559,342.34z M464.5,323h-417v-38h10v20.5
	c0,4.141,3.355,7.5,7.5,7.5h382c4.145,0,7.5-3.359,7.5-7.5v-91.586h10V323z"/>
<path d="M33,342c-4.145,0-7.5,3.359-7.5,7.5s3.355,7.5,7.5,7.5h57c4.145,0,7.5-3.359,7.5-7.5S94.145,342,90,342H33z"/>
<path d="M432.301,354.797c1.398-1.391,2.199-3.32,2.199-5.301c0-1.969-0.801-3.906-2.199-5.297
	c-1.391-1.402-3.332-2.203-5.301-2.203s-3.91,0.801-5.309,2.203c-1.391,1.391-2.191,3.328-2.191,5.297
	c0,1.98,0.801,3.91,2.191,5.301c1.398,1.402,3.34,2.199,5.309,2.199S430.91,356.199,432.301,354.797z"/>
<path d="M458.481,354.797c1.391-1.391,2.188-3.32,2.188-5.301c0-1.969-0.801-3.906-2.188-5.297
	c-1.402-1.402-3.332-2.203-5.313-2.203c-1.969,0-3.898,0.801-5.301,2.203c-1.398,1.391-2.199,3.328-2.199,5.297
	c0,1.98,0.801,3.91,2.199,5.301c1.402,1.402,3.332,2.199,5.301,2.199C455.149,356.996,457.078,356.199,458.481,354.797z"/>
<path d="M484.649,354.808c1.391-1.402,2.199-3.332,2.199-5.313c0-1.969-0.809-3.906-2.199-5.297
	c-1.398-1.402-3.328-2.203-5.301-2.203c-1.98,0-3.91,0.801-5.309,2.203c-1.391,1.398-2.191,3.328-2.191,5.297
	c0,1.98,0.801,3.91,2.191,5.313c1.398,1.391,3.328,2.188,5.309,2.188C481.321,356.996,483.25,356.199,484.649,354.808z"/>
<path d="M256,209.324c42.25,0,76.625-34.391,76.625-76.66S298.25,56.004,256,56.004s-76.625,34.391-76.625,76.66
	S213.75,209.324,256,209.324z M317.153,125.164h-38.395l30.863-22.828C313.535,109.234,316.153,116.949,317.153,125.164z
	 M263.5,71.476c14.57,1.781,27.582,8.66,37.195,18.805L263.5,117.789V71.476z M256,140.164h32.48
	c-3.41,14.797-16.672,25.863-32.48,25.863c-18.383,0-33.34-14.969-33.34-33.363c0-15.816,11.059-29.086,25.84-32.5v32.5
	C248.5,136.804,251.86,140.164,256,140.164z M248.5,71.476v13.41c-23.105,3.617-40.84,23.664-40.84,47.777
	c0,26.668,21.684,48.363,48.34,48.363c24.105,0,44.145-17.746,47.758-40.863h13.395c-3.711,30.473-29.711,54.16-61.148,54.16
	c-33.984,0-61.625-27.66-61.625-61.66C194.375,101.207,218.047,75.191,248.5,71.476z"/>
<path d="M124.949,184.398H77.598c-4.141,0-7.5,3.359-7.5,7.5s3.359,7.5,7.5,7.5h47.352c4.145,0,7.5-3.359,7.5-7.5
	S129.094,184.398,124.949,184.398z"/>
<path d="M124.949,210.894H77.598c-4.141,0-7.5,3.359-7.5,7.5s3.359,7.5,7.5,7.5h47.352c4.145,0,7.5-3.359,7.5-7.5
	S129.094,210.894,124.949,210.894z"/>
<path d="M124.949,237.39H77.598c-4.141,0-7.5,3.355-7.5,7.5c0,4.141,3.359,7.5,7.5,7.5h47.352c4.145,0,7.5-3.359,7.5-7.5
	C132.449,240.746,129.094,237.39,124.949,237.39z"/>
<path d="M54.481,184.398c-1.973,0-3.91,0.801-5.301,2.199c-1.398,1.391-2.199,3.332-2.199,5.301c0,1.98,0.801,3.91,2.199,5.301
	c1.391,1.398,3.328,2.199,5.301,2.199c1.98,0,3.91-0.801,5.301-2.199c1.398-1.391,2.199-3.332,2.199-5.301s-0.801-3.902-2.199-5.301
	C58.391,185.199,56.449,184.398,54.481,184.398z"/>
<path d="M54.481,210.898c-1.973,0-3.91,0.801-5.301,2.191c-1.398,1.398-2.199,3.328-2.199,5.309c0,1.969,0.801,3.898,2.199,5.301
	c1.391,1.398,3.328,2.199,5.301,2.199c1.969,0,3.91-0.801,5.301-2.199c1.398-1.402,2.199-3.332,2.199-5.301
	c0-1.98-0.801-3.91-2.199-5.309C58.391,211.699,56.449,210.898,54.481,210.898z"/>
<path d="M54.481,237.386c-1.973,0-3.91,0.801-5.301,2.203c-1.398,1.387-2.199,3.328-2.199,5.297c0,1.973,0.801,3.91,2.199,5.301
	c1.391,1.402,3.328,2.199,5.301,2.199c1.969,0,3.91-0.797,5.301-2.199c1.398-1.391,2.199-3.328,2.199-5.301
	c0-1.969-0.801-3.898-2.199-5.297C58.391,238.187,56.461,237.386,54.481,237.386z"/>
<path d="M186.875,279h138.25c4.141,0,7.5-3.359,7.5-7.5s-3.359-7.5-7.5-7.5h-2.84v-30.668c0-4.145-3.359-7.5-7.5-7.5
	c-4.145,0-7.5,3.355-7.5,7.5V264h-4.598v-16.051c0-4.141-3.359-7.5-7.5-7.5c-4.145,0-7.5,3.359-7.5,7.5V264h-4.594v-33.105
	c0-4.141-3.355-7.5-7.5-7.5s-7.5,3.359-7.5,7.5V264h-4.598v-27.422c0-4.141-3.355-7.5-7.5-7.5c-4.141,0-7.5,3.359-7.5,7.5V264
	h-4.594v-38.789c0-4.141-3.355-7.5-7.5-7.5c-4.141,0-7.5,3.359-7.5,7.5V264h-4.594v-24.984c0-4.141-3.355-7.5-7.5-7.5
	s-7.5,3.359-7.5,7.5V264h-4.594v-5.492c0-4.145-3.359-7.5-7.5-7.5c-4.145,0-7.5,3.355-7.5,7.5V264h-2.84c-4.145,0-7.5,3.359-7.5,7.5
	S182.735,279,186.875,279z"/>
<path d="M211.281,43h89.438c4.141,0,7.5-3.359,7.5-7.5s-3.359-7.5-7.5-7.5h-89.438c-4.145,0-7.5,3.359-7.5,7.5
	S207.141,43,211.281,43z"/>
<path d="M385.723,140.117h71.352c4.145,0,7.5-3.355,7.5-7.5c0-4.141-3.355-7.5-7.5-7.5h-71.352c-4.145,0-7.5,3.359-7.5,7.5
	C378.223,136.761,381.578,140.117,385.723,140.117z"/>
<path d="M385.723,163.457h71.352c4.145,0,7.5-3.359,7.5-7.5c0-4.145-3.355-7.5-7.5-7.5h-71.352c-4.145,0-7.5,3.355-7.5,7.5
	C378.223,160.097,381.578,163.457,385.723,163.457z"/>
<path d="M385.723,186.797h31.879c4.145,0,7.5-3.359,7.5-7.5c0-4.145-3.355-7.5-7.5-7.5h-31.879c-4.145,0-7.5,3.355-7.5,7.5
	C378.223,183.437,381.578,186.797,385.723,186.797z"/>
</svg>
