<svg id="Outline" height="512" viewBox="0 0 512 512" width="512" xmlns="http://www.w3.org/2000/svg"><path d="m56 488a8 8 0 0 0 8 8h384a8 8 0 0 0 8-8v-432a40.045 40.045 0 0 0 -40-40h-352a8 8 0 0 0 -8 8zm384-432v24h-32v-32a31.8 31.8 0 0 0 -4.3-16h12.3a24.028 24.028 0 0 1 24 24zm-368-24h304a16.019 16.019 0 0 1 16 16v40a8 8 0 0 0 8 8h40v384h-368z"/><path d="m400 416h-64a8 8 0 0 0 0 16h64a8 8 0 0 0 0-16z"/><path d="m400 448h-128a8 8 0 0 0 0 16h128a8 8 0 0 0 0-16z"/><path d="m168 104a8.009 8.009 0 0 1 8 8 8 8 0 0 0 16 0 24.039 24.039 0 0 0 -16-22.624v-1.376a8 8 0 0 0 -16 0v1.376a24 24 0 0 0 8 46.624 8 8 0 1 1 -8 8 8 8 0 0 0 -16 0 24.039 24.039 0 0 0 16 22.624v1.376a8 8 0 0 0 16 0v-1.376a24 24 0 0 0 -8-46.624 8 8 0 0 1 0-16z"/><path d="m248 128a80 80 0 1 0 -80 80 80.091 80.091 0 0 0 80-80zm-80 64a64 64 0 1 1 64-64 64.072 64.072 0 0 1 -64 64z"/><path d="m144 240h-32a8 8 0 0 0 0 16h32a8 8 0 0 0 0-16z"/><path d="m320 240h-128a8 8 0 0 0 0 16h128a8 8 0 0 0 0-16z"/><path d="m400 240h-16a8 8 0 0 0 0 16h16a8 8 0 0 0 0-16z"/><path d="m144 272h-32a8 8 0 0 0 0 16h32a8 8 0 0 0 0-16z"/><path d="m320 272h-128a8 8 0 0 0 0 16h128a8 8 0 0 0 0-16z"/><path d="m400 272h-16a8 8 0 0 0 0 16h16a8 8 0 0 0 0-16z"/><path d="m144 304h-32a8 8 0 0 0 0 16h32a8 8 0 0 0 0-16z"/><path d="m320 304h-128a8 8 0 0 0 0 16h128a8 8 0 0 0 0-16z"/><path d="m400 304h-16a8 8 0 0 0 0 16h16a8 8 0 0 0 0-16z"/><path d="m144 336h-32a8 8 0 0 0 0 16h32a8 8 0 0 0 0-16z"/><path d="m320 336h-128a8 8 0 0 0 0 16h128a8 8 0 0 0 0-16z"/><path d="m400 336h-16a8 8 0 0 0 0 16h16a8 8 0 0 0 0-16z"/><path d="m144 368h-32a8 8 0 0 0 0 16h32a8 8 0 0 0 0-16z"/><path d="m328 376a8 8 0 0 0 -8-8h-128a8 8 0 0 0 0 16h128a8 8 0 0 0 8-8z"/><path d="m400 368h-16a8 8 0 0 0 0 16h16a8 8 0 0 0 0-16z"/><path d="m400 128h-80a8 8 0 0 0 0 16h80a8 8 0 0 0 0-16z"/><path d="m400 160h-120a8 8 0 0 0 0 16h120a8 8 0 0 0 0-16z"/><path d="m400 192h-120a8 8 0 0 0 0 16h120a8 8 0 0 0 0-16z"/></svg>