<?xml version="1.0" encoding="utf-8"?>
<!-- Generator: Adobe Illustrator 16.0.0, SVG Export Plug-In . SVG Version: 6.00 Build 0)  -->
<!DOCTYPE svg PUBLIC "-//W3C//DTD SVG 1.1//EN" "http://www.w3.org/Graphics/SVG/1.1/DTD/svg11.dtd">
<svg version="1.1" id="Layer_1" xmlns="http://www.w3.org/2000/svg" xmlns:xlink="http://www.w3.org/1999/xlink" x="0px" y="0px"
	 width="512px" height="512px" viewBox="0 0 512 512" enable-background="new 0 0 512 512" xml:space="preserve">
<g id="Page-1">
	<g id="_x30_11---Online-Shopping">
		<path id="Shape" d="M469.333,42.667H42.666C19.115,42.695,0.029,61.781,0,85.334v341.333
			c0.028,23.553,19.114,42.639,42.666,42.667h426.667c23.553-0.028,42.639-19.114,42.667-42.667V85.334
			C511.972,61.781,492.886,42.695,469.333,42.667z M42.666,59.733h426.667c14.139,0,25.6,11.462,25.6,25.601V128H17.067V85.334
			C17.067,71.195,28.529,59.733,42.666,59.733z M469.333,452.267H42.666c-14.138,0-25.6-11.462-25.6-25.601v-281.6h477.866v281.6
			C494.933,440.805,483.472,452.267,469.333,452.267z"/>
		<circle id="Oval" cx="42.666" cy="102.4" r="8.533"/>
		<circle id="Oval_1_" cx="76.8" cy="102.4" r="8.533"/>
		<circle id="Oval_2_" cx="110.933" cy="102.4" r="8.533"/>
		<path id="Shape_1_" d="M324.267,110.933h145.066c4.713,0,8.533-3.82,8.533-8.533s-3.82-8.533-8.533-8.533H324.267
			c-4.713,0-8.533,3.82-8.533,8.533S319.554,110.933,324.267,110.933z"/>
		<path id="Shape_2_" d="M273.067,110.933h17.066c4.713,0,8.533-3.82,8.533-8.533s-3.82-8.533-8.533-8.533h-17.066
			c-4.713,0-8.533,3.82-8.533,8.533S268.354,110.933,273.067,110.933z"/>
		<path id="Shape_3_" d="M290.133,162.134H68.267c-14.139,0-25.601,11.461-25.601,25.6V409.6c0,14.139,11.462,25.6,25.601,25.6
			h221.866c14.139,0,25.601-11.461,25.601-25.6V187.733C315.734,173.594,304.272,162.134,290.133,162.134z M298.666,409.6
			c0,4.713-3.82,8.533-8.533,8.533H68.267c-4.713,0-8.533-3.82-8.533-8.533V187.733c0-4.713,3.82-8.533,8.533-8.533h221.866
			c4.713,0,8.533,3.82,8.533,8.533V409.6z"/>
		<path id="Shape_4_" d="M341.333,204.8H409.6c4.713,0,8.533-3.82,8.533-8.533s-3.82-8.533-8.533-8.533h-68.267
			c-4.713,0-8.533,3.82-8.533,8.533S336.62,204.8,341.333,204.8z"/>
		<path id="Shape_5_" d="M469.333,221.867h-128c-4.713,0-8.533,3.82-8.533,8.533s3.82,8.533,8.533,8.533h128
			c4.713,0,8.533-3.82,8.533-8.533S474.046,221.867,469.333,221.867z"/>
		<path id="Shape_6_" d="M469.333,256h-128c-4.713,0-8.533,3.82-8.533,8.533s3.82,8.534,8.533,8.534h128
			c4.713,0,8.533-3.821,8.533-8.534S474.046,256,469.333,256z"/>
		<path id="Shape_7_" d="M469.333,290.134h-128c-4.713,0-8.533,3.82-8.533,8.533s3.82,8.533,8.533,8.533h128
			c4.713,0,8.533-3.82,8.533-8.533S474.046,290.134,469.333,290.134z"/>
		<path id="Shape_8_" d="M469.333,324.267h-128c-4.713,0-8.533,3.82-8.533,8.533s3.82,8.533,8.533,8.533h128
			c4.713,0,8.533-3.82,8.533-8.533S474.046,324.267,469.333,324.267z"/>
		<path id="Shape_9_" d="M452.267,384H358.4c-14.138,0-25.6,11.462-25.6,25.601s11.462,25.6,25.6,25.6h93.867
			c14.138,0,25.6-11.461,25.6-25.6S466.405,384,452.267,384z M452.267,418.134H358.4c-4.713,0-8.533-3.82-8.533-8.533
			s3.82-8.533,8.533-8.533h93.867c4.713,0,8.533,3.82,8.533,8.533S456.98,418.134,452.267,418.134z"/>
		<path id="Shape_10_" d="M244.164,238.933H121.404l-11.042-28.663c-1.268-3.295-4.432-5.469-7.962-5.471H85.333
			c-4.713,0-8.533,3.821-8.533,8.534s3.82,8.533,8.533,8.533h11.204l10.982,28.484c0,0.119,0.086,0.238,0.137,0.358l27.35,71.15
			c2.558,6.57,8.872,10.909,15.923,10.94h73.318c7.354,0.01,13.887-4.69,16.214-11.665l19.908-59.734
			c1.737-5.207,0.863-10.932-2.348-15.385C254.811,241.564,249.654,238.928,244.164,238.933L244.164,238.933z M224.247,315.733
			h-73.318L128,256h116.155L224.247,315.733z"/>
		<path id="Shape_11_" d="M170.666,298.667c4.713,0,8.534-3.82,8.534-8.533v-17.066c0-4.713-3.821-8.534-8.534-8.534
			s-8.533,3.821-8.533,8.534v17.066C162.133,294.846,165.953,298.667,170.666,298.667z"/>
		<path id="Shape_12_" d="M204.8,298.667c4.713,0,8.533-3.82,8.533-8.533v-17.066c0-4.713-3.82-8.534-8.533-8.534
			s-8.533,3.821-8.533,8.534v17.066C196.267,294.846,200.087,298.667,204.8,298.667z"/>
		<path id="Shape_13_" d="M145.067,341.334c-14.139,0-25.6,11.461-25.6,25.6s11.461,25.601,25.6,25.601s25.6-11.462,25.6-25.601
			S159.205,341.334,145.067,341.334z M145.067,375.467c-4.713,0-8.533-3.82-8.533-8.533s3.82-8.533,8.533-8.533
			s8.533,3.82,8.533,8.533S149.78,375.467,145.067,375.467z"/>
		<path id="Shape_14_" d="M230.4,341.334c-14.138,0-25.6,11.461-25.6,25.6s11.462,25.601,25.6,25.601
			c14.139,0,25.601-11.462,25.601-25.601S244.538,341.334,230.4,341.334z M230.4,375.467c-4.713,0-8.533-3.82-8.533-8.533
			s3.82-8.533,8.533-8.533s8.533,3.82,8.533,8.533S235.113,375.467,230.4,375.467z"/>
	</g>
</g>
</svg>
