<?xml version="1.0" encoding="utf-8"?>
<!-- Generator: Adobe Illustrator 16.0.0, SVG Export Plug-In . SVG Version: 6.00 Build 0)  -->
<!DOCTYPE svg PUBLIC "-//W3C//DTD SVG 1.1//EN" "http://www.w3.org/Graphics/SVG/1.1/DTD/svg11.dtd">
<svg version="1.1" id="Out_line" xmlns="http://www.w3.org/2000/svg" xmlns:xlink="http://www.w3.org/1999/xlink" x="0px" y="0px"
	 width="512px" height="512px" viewBox="0 0 512 512" enable-background="new 0 0 512 512" xml:space="preserve">
<title>buy-online-ecommerce-marketting-sale</title>
<path d="M472,104h-96v16h64c4.416,0.005,7.994,3.584,8,8v240c-0.006,4.417-3.584,7.995-8,8H40c-4.416-0.005-7.995-3.583-8-8V128
	c0.005-4.416,3.584-7.995,8-8h64v-16H40c-13.249,0.015-23.985,10.752-24,24v240c0.015,13.249,10.751,23.985,24,24h170.317
	l18.006,26.409c10.665,15.643,6.63,36.969-9.013,47.635C213.619,469.925,206.889,472,200,472c-4.419,0-8,3.582-8,8
	c0,4.419,3.581,8,8,8h136c27.769,0,50.28-22.511,50.28-50.28c0-10.104-3.045-19.976-8.737-28.324L365.683,392H472
	c13.248-0.015,23.984-10.751,24-24V128C495.985,114.752,485.248,104.015,472,104z M302.61,398.351
	c0.121,0.227,0.254,0.446,0.396,0.661c1.771,2.656,1.053,6.246-1.604,8.017c-0.95,0.634-2.065,0.972-3.207,0.971
	c-6.166,0.007-11.933-3.044-15.396-8.145L278.103,392h21.106L302.61,398.351z M364.323,418.409
	c10.665,15.643,6.63,36.969-9.013,47.635C349.618,469.925,342.889,472,336,472h-99.123c2.976-3.257,5.522-6.882,7.576-10.785
	c0.894-1.693,1.694-3.435,2.399-5.215H280v-16h-29.653c0.495-10.89-2.598-21.642-8.804-30.604L229.683,392h29.778l9.714,16.249
	c0.067,0.112,0.138,0.224,0.211,0.333c6.413,9.642,17.229,15.431,28.81,15.418c12.025,0.003,21.776-9.743,21.778-21.769
	c0.001-3.568-0.875-7.081-2.551-10.231h28.895L364.323,418.409z M480,368c-0.006,4.417-3.584,7.995-8,8h-9.377
	c0.912-2.568,1.378-5.273,1.377-8V128c0.001-2.726-0.465-5.431-1.377-8H472c4.416,0.005,7.994,3.584,8,8V368z"/>
<path d="M416,160v176c-0.006,4.417-3.584,7.995-8,8H72c-4.416-0.005-7.995-3.583-8-8V160c0.005-4.416,3.584-7.995,8-8h32v-16H72
	c-13.249,0.015-23.985,10.752-24,24v176c0.015,13.249,10.751,23.985,24,24h336c13.248-0.015,23.984-10.751,24-24V160
	c-0.016-13.248-10.752-23.985-24-24h-32v16h32C412.416,152.005,415.994,155.584,416,160z"/>
<path d="M80,296v16h320v-16h-40V80c0-4.418-3.582-8-8-8l0,0h-40c0.02-26.489-21.438-47.979-47.927-48
	c-8.453-0.006-16.759,2.222-24.073,6.458c-22.923-13.275-52.268-5.454-65.543,17.469C170.221,55.242,167.993,63.547,168,72h-40
	c-4.418,0-8,3.582-8,8l0,0v216H80z M344,88v208h-32V88H344z M296,72h-32c0.009-10.982-3.768-21.632-10.693-30.156
	c16.649-5.911,34.938,2.794,40.85,19.443C295.377,64.726,296.001,68.35,296,72z M240,50.868c5.158,5.83,8.005,13.348,8,21.132h-16
	C231.995,64.216,234.841,56.698,240,50.868z M216,40c3.644-0.001,7.26,0.622,10.692,1.844C219.768,50.368,215.991,61.017,216,72h-32
	C184.02,54.335,198.335,40.02,216,40z M136,88h32v16h16V88h64v16h16V88h32v208H136V88z"/>
<rect x="296" y="440" width="16" height="16"/>
<rect x="328" y="440" width="16" height="16"/>
</svg>
