<?xml version="1.0" encoding="iso-8859-1"?>
<!-- Generator: Adobe Illustrator 19.0.0, SVG Export Plug-In . SVG Version: 6.00 Build 0)  -->
<svg version="1.1" id="Capa_1" xmlns="http://www.w3.org/2000/svg" xmlns:xlink="http://www.w3.org/1999/xlink" x="0px" y="0px"
	 viewBox="0 0 512 512" style="enable-background:new 0 0 512 512;" xml:space="preserve">
<g>
	<g>
		<path d="M256,170.667c-47.053,0-85.333,38.281-85.333,85.333s38.281,85.333,85.333,85.333s85.333-38.281,85.333-85.333
			S303.053,170.667,256,170.667z M256,324.267c-37.641,0-68.267-30.626-68.267-68.267c0-37.641,30.626-68.267,68.267-68.267
			c37.641,0,68.267,30.626,68.267,68.267C324.267,293.641,293.641,324.267,256,324.267z"/>
	</g>
</g>
<g>
	<g>
		<path d="M128,0C99.772,0,76.8,22.963,76.8,51.2s22.972,51.2,51.2,51.2s51.2-22.963,51.2-51.2S156.228,0,128,0z M128,85.333
			c-18.825,0-34.133-15.309-34.133-34.133S109.175,17.067,128,17.067s34.133,15.309,34.133,34.133S146.825,85.333,128,85.333z"/>
	</g>
</g>
<g>
	<g>
		<path d="M366.933,0c-28.228,0-51.2,22.963-51.2,51.2s22.972,51.2,51.2,51.2s51.2-22.963,51.2-51.2S395.162,0,366.933,0z
			 M366.933,85.333c-18.825,0-34.133-15.309-34.133-34.133s15.309-34.133,34.133-34.133s34.133,15.309,34.133,34.133
			S385.758,85.333,366.933,85.333z"/>
	</g>
</g>
<g>
	<g>
		<path d="M51.2,264.533c-28.228,0-51.2,22.963-51.2,51.2c0,28.237,22.972,51.2,51.2,51.2s51.2-22.963,51.2-51.2
			C102.4,287.497,79.428,264.533,51.2,264.533z M51.2,349.867c-18.825,0-34.133-15.309-34.133-34.133
			c0-18.825,15.309-34.133,34.133-34.133s34.133,15.309,34.133,34.133C85.333,334.558,70.025,349.867,51.2,349.867z"/>
	</g>
</g>
<g>
	<g>
		<path d="M307.2,409.6c-28.228,0-51.2,22.963-51.2,51.2c0,28.237,22.972,51.2,51.2,51.2s51.2-22.963,51.2-51.2
			C358.4,432.563,335.428,409.6,307.2,409.6z M307.2,494.933c-18.825,0-34.133-15.309-34.133-34.133
			c0-18.825,15.309-34.133,34.133-34.133s34.133,15.309,34.133,34.133C341.333,479.625,326.025,494.933,307.2,494.933z"/>
	</g>
</g>
<g>
	<g>
		<path d="M435.2,281.6c-18.825,0-34.133,15.309-34.133,34.133c0,18.825,15.309,34.133,34.133,34.133
			c18.825,0,34.133-15.309,34.133-34.133C469.333,296.909,454.025,281.6,435.2,281.6z M435.2,332.8
			c-9.412,0-17.067-7.654-17.067-17.067c0-9.412,7.654-17.067,17.067-17.067s17.067,7.654,17.067,17.067
			C452.267,325.146,444.612,332.8,435.2,332.8z"/>
	</g>
</g>
<g>
	<g>
		<path d="M477.867,93.867c-18.825,0-34.133,15.309-34.133,34.133s15.309,34.133,34.133,34.133S512,146.825,512,128
			S496.691,93.867,477.867,93.867z M477.867,145.067c-9.412,0-17.067-7.654-17.067-17.067c0-9.412,7.654-17.067,17.067-17.067
			s17.067,7.654,17.067,17.067S487.279,145.067,477.867,145.067z"/>
	</g>
</g>
<g>
	<g>
		<path d="M145.067,392.533c-18.825,0-34.133,15.309-34.133,34.133s15.309,34.133,34.133,34.133s34.133-15.309,34.133-34.133
			S163.891,392.533,145.067,392.533z M145.067,443.733c-9.412,0-17.067-7.654-17.067-17.067s7.654-17.067,17.067-17.067
			c9.412,0,17.067,7.654,17.067,17.067S154.479,443.733,145.067,443.733z"/>
	</g>
</g>
<g>
	<g>
		
			<rect x="290.147" y="323.507" transform="matrix(0.9839 -0.1789 0.1789 0.9839 -61.5889 59.4203)" width="17.067" height="95.406"/>
	</g>
</g>
<g>
	<g>
		
			<rect x="209.075" y="399.353" transform="matrix(0.2631 -0.9648 0.9648 0.2631 -271.8625 540.0796)" width="17.067" height="97.3"/>
	</g>
</g>
<g>
	<g>
		
			<rect x="92.164" y="294.405" transform="matrix(0.9647 -0.2632 0.2632 0.9647 -74.7646 47.7406)" width="97.303" height="17.068"/>
	</g>
</g>
<g>
	<g>
		
			<rect x="174.925" y="77.203" transform="matrix(0.8638 -0.5039 0.5039 0.8638 -43.7767 111.0343)" width="17.067" height="118.549"/>
	</g>
</g>
<g>
	<g>
		<rect x="270.805" y="132.283" transform="matrix(0.4786 -0.878 0.878 0.4786 45.4269 358.1324)" width="106.92" height="17.066"/>
	</g>
</g>
<g>
	<g>
		
			<rect x="422.37" y="59.501" transform="matrix(0.4961 -0.8682 0.8682 0.4961 135.6014 421.4383)" width="17.066" height="68.775"/>
	</g>
</g>
<g>
	<g>
		
			<rect x="362.625" y="233.371" transform="matrix(0.4856 -0.8742 0.8742 0.4856 -51.4867 467.1068)" width="17.067" height="87.861"/>
	</g>
</g>
<g>
	<g>
		<path d="M256,204.8c-28.228,0-51.2,22.963-51.2,51.2c0,4.719,3.823,8.533,8.533,8.533c4.71,0,8.533-3.814,8.533-8.533
			c0-18.825,15.309-34.133,34.133-34.133c4.71,0,8.533-3.814,8.533-8.533C264.533,208.614,260.71,204.8,256,204.8z"/>
	</g>
</g>
<g>
</g>
<g>
</g>
<g>
</g>
<g>
</g>
<g>
</g>
<g>
</g>
<g>
</g>
<g>
</g>
<g>
</g>
<g>
</g>
<g>
</g>
<g>
</g>
<g>
</g>
<g>
</g>
<g>
</g>
</svg>
