<?xml version="1.0" encoding="utf-8"?>
<!-- Generator: Adobe Illustrator 16.0.0, SVG Export Plug-In . SVG Version: 6.00 Build 0)  -->
<!DOCTYPE svg PUBLIC "-//W3C//DTD SVG 1.1//EN" "http://www.w3.org/Graphics/SVG/1.1/DTD/svg11.dtd">
<svg version="1.1" id="Layer_1" xmlns="http://www.w3.org/2000/svg" xmlns:xlink="http://www.w3.org/1999/xlink" x="0px" y="0px"
	 width="512px" height="512px" viewBox="0 0 512 512" enable-background="new 0 0 512 512" xml:space="preserve">
<path d="M473.6,512H38.4C17.229,512,0,494.771,0,473.6V38.4C0,17.229,17.229,0,38.4,0h435.2C494.771,0,512,17.229,512,38.4v435.2
	C512,494.771,494.771,512,473.6,512z M38.4,17.067c-11.759,0-21.333,9.565-21.333,21.333v435.2c0,11.768,9.574,21.333,21.333,21.333
	h435.2c11.768,0,21.333-9.565,21.333-21.333V38.4c0-11.768-9.574-21.333-21.333-21.333H38.4z"/>
<path d="M76.8,85.334H42.666c-4.71,0-8.533-3.814-8.533-8.534V42.667c0-4.719,3.823-8.533,8.533-8.533H76.8
	c4.71,0,8.533,3.814,8.533,8.533V76.8C85.333,81.519,81.51,85.334,76.8,85.334z M51.2,68.266h17.066V51.2H51.2V68.266z"/>
<path d="M145.067,85.334h-34.134c-4.71,0-8.533-3.814-8.533-8.534V42.667c0-4.719,3.823-8.533,8.533-8.533h34.134
	c4.71,0,8.533,3.814,8.533,8.533V76.8C153.6,81.519,149.777,85.334,145.067,85.334z M119.467,68.266h17.066V51.2h-17.066V68.266z"/>
<path d="M213.333,85.334H179.2c-4.711,0-8.534-3.814-8.534-8.534V42.667c0-4.719,3.823-8.533,8.534-8.533h34.133
	c4.711,0,8.533,3.814,8.533,8.533V76.8C221.866,81.519,218.044,85.334,213.333,85.334z M187.734,68.266H204.8V51.2h-17.066V68.266z"
	/>
<path d="M503.466,119.467H8.533c-4.711,0-8.533-3.814-8.533-8.533V38.4C0,17.229,17.229,0,38.4,0h435.2
	C494.771,0,512,17.229,512,38.4v72.533C512,115.652,508.177,119.467,503.466,119.467z M17.067,102.4h477.866v-64
	c0-11.768-9.574-21.333-21.333-21.333H38.4c-11.759,0-21.333,9.565-21.333,21.333V102.4z"/>
<path d="M64,298.667H51.2c-4.711,0-8.534-3.814-8.534-8.533v-12.8c0-4.72,3.823-8.534,8.534-8.534c4.71,0,8.533,3.814,8.533,8.534
	v4.267H64c4.71,0,8.533,3.814,8.533,8.533S68.71,298.667,64,298.667z"/>
<path d="M51.2,245.521c-4.711,0-8.534-3.814-8.534-8.533v-30.26c0-4.719,3.823-8.533,8.534-8.533c4.71,0,8.533,3.814,8.533,8.533
	v30.26C59.734,241.707,55.91,245.521,51.2,245.521z"/>
<path d="M51.2,174.933c-4.711,0-8.534-3.814-8.534-8.533v-12.8c0-4.72,3.823-8.533,8.534-8.533H64c4.71,0,8.533,3.813,8.533,8.533
	c0,4.719-3.823,8.533-8.533,8.533h-4.267v4.267C59.734,171.119,55.91,174.933,51.2,174.933z"/>
<path d="M414.609,162.134h-25.045c-4.71,0-8.533-3.814-8.533-8.533c0-4.72,3.823-8.533,8.533-8.533h25.045
	c4.711,0,8.533,3.813,8.533,8.533C423.142,158.319,419.32,162.134,414.609,162.134z M356.173,162.134h-25.046
	c-4.71,0-8.533-3.814-8.533-8.533c0-4.72,3.823-8.533,8.533-8.533h25.046c4.71,0,8.533,3.813,8.533,8.533
	C364.706,158.319,360.892,162.134,356.173,162.134z M297.737,162.134h-25.045c-4.711,0-8.534-3.814-8.534-8.533
	c0-4.72,3.823-8.533,8.534-8.533h25.045c4.71,0,8.533,3.813,8.533,8.533C306.27,158.319,302.447,162.134,297.737,162.134z
	 M239.3,162.134h-25.045c-4.711,0-8.533-3.814-8.533-8.533c0-4.72,3.822-8.533,8.533-8.533H239.3c4.711,0,8.533,3.813,8.533,8.533
	C247.833,158.319,244.019,162.134,239.3,162.134z M180.872,162.134h-25.045c-4.711,0-8.533-3.814-8.533-8.533
	c0-4.72,3.822-8.533,8.533-8.533h25.045c4.711,0,8.533,3.813,8.533,8.533C189.406,158.319,185.583,162.134,180.872,162.134z
	 M122.437,162.134H97.391c-4.71,0-8.533-3.814-8.533-8.533c0-4.72,3.823-8.533,8.533-8.533h25.046c4.71,0,8.533,3.813,8.533,8.533
	C130.97,158.319,127.147,162.134,122.437,162.134z"/>
<path d="M460.8,174.933c-4.711,0-8.533-3.814-8.533-8.533v-4.267H448c-4.711,0-8.534-3.814-8.534-8.533
	c0-4.72,3.823-8.533,8.534-8.533h12.8c4.71,0,8.533,3.813,8.533,8.533v12.8C469.333,171.119,465.51,174.933,460.8,174.933z"/>
<path d="M460.8,245.53c-4.711,0-8.533-3.814-8.533-8.534v-30.259c0-4.719,3.822-8.533,8.533-8.533c4.71,0,8.533,3.814,8.533,8.533
	v30.259C469.333,241.716,465.51,245.53,460.8,245.53z"/>
<path d="M460.8,298.667H448c-4.711,0-8.534-3.814-8.534-8.533s3.823-8.533,8.534-8.533h4.267v-4.267c0-4.72,3.822-8.534,8.533-8.534
	c4.71,0,8.533,3.814,8.533,8.534v12.8C469.333,294.852,465.51,298.667,460.8,298.667z"/>
<path d="M414.609,298.667h-25.045c-4.71,0-8.533-3.814-8.533-8.533s3.823-8.533,8.533-8.533h25.045c4.711,0,8.533,3.814,8.533,8.533
	S419.32,298.667,414.609,298.667z M356.173,298.667h-25.046c-4.71,0-8.533-3.814-8.533-8.533s3.823-8.533,8.533-8.533h25.046
	c4.71,0,8.533,3.814,8.533,8.533S360.892,298.667,356.173,298.667z M297.737,298.667h-25.045c-4.711,0-8.534-3.814-8.534-8.533
	s3.823-8.533,8.534-8.533h25.045c4.71,0,8.533,3.814,8.533,8.533S302.447,298.667,297.737,298.667z M239.3,298.667h-25.045
	c-4.711,0-8.533-3.814-8.533-8.533s3.822-8.533,8.533-8.533H239.3c4.711,0,8.533,3.814,8.533,8.533S244.019,298.667,239.3,298.667z
	 M180.872,298.667h-25.045c-4.711,0-8.533-3.814-8.533-8.533s3.822-8.533,8.533-8.533h25.045c4.711,0,8.533,3.814,8.533,8.533
	S185.583,298.667,180.872,298.667z M122.437,298.667H97.391c-4.71,0-8.533-3.814-8.533-8.533s3.823-8.533,8.533-8.533h25.046
	c4.71,0,8.533,3.814,8.533,8.533S127.147,298.667,122.437,298.667z"/>
<path d="M256,256c-4.711,0-8.533-3.814-8.533-8.533v-51.2c0-4.719,3.822-8.533,8.533-8.533c4.71,0,8.533,3.814,8.533,8.533v51.2
	C264.533,252.185,260.71,256,256,256z"/>
<path d="M281.6,230.4h-51.2c-4.71,0-8.533-3.814-8.533-8.533s3.823-8.533,8.533-8.533h51.2c4.711,0,8.533,3.814,8.533,8.533
	S286.311,230.4,281.6,230.4z"/>
<path d="M460.8,469.334H51.2c-4.711,0-8.534-3.814-8.534-8.533v-128c0-4.719,3.823-8.533,8.534-8.533h409.6
	c4.71,0,8.533,3.814,8.533,8.533v128C469.333,465.519,465.51,469.334,460.8,469.334z M59.734,452.267h392.533V341.334H59.734
	V452.267z"/>
</svg>
