<?xml version="1.0" encoding="utf-8"?>
<!-- Generator: Adobe Illustrator 21.1.0, SVG Export Plug-In . SVG Version: 6.00 Build 0)  -->
<svg version="1.0" id="Layer_1" xmlns="http://www.w3.org/2000/svg" xmlns:xlink="http://www.w3.org/1999/xlink" x="0px" y="0px"
	 viewBox="0 0 512 512" style="enable-background:new 0 0 512 512;" xml:space="preserve">
<style type="text/css">
	.st0{font-family:'NunitoSans-Black';}
	.st1{font-size:98.587px;}
</style>
<g id="segment">
	<path d="M256,56C145.5,56,56,145.5,56,256s89.5,200,200,200s200-89.5,200-200C455.9,145.6,366.4,56.1,256,56z M442.7,256
		c0,30.5-7.5,60.6-21.8,87.5l-158.2-91.3V69.5C363,73.2,442.5,155.6,442.7,256z M249.3,69.5v182.7L91.2,343.5
		c-48.4-91-13.8-203.9,77.2-252.3C193.3,77.9,221,70.5,249.3,69.5z M256,442.7c-64.3,0-124-33.2-158.1-87.7L256,263.7L414.1,355
		C380,409.5,320.3,442.6,256,442.7z"/>
	<path d="M342.7,242.7H356V236c7.4,0,13.3-6,13.3-13.3v-13.3c0-7.4-6-13.3-13.3-13.3h-13.3v-13.3h26.7v-13.3H356v-6.7h-13.3v6.7
		c-7.4,0-13.3,6-13.3,13.3V196c0,7.4,6,13.3,13.3,13.3H356v13.3h-26.7V236h13.3V242.7z"/>
	<path d="M349.3,262.7c33.1,0,60-26.9,60-60s-26.9-60-60-60s-60,26.9-60,60C289.4,235.8,316.2,262.6,349.3,262.7z M349.3,156
		c25.8,0,46.7,20.9,46.7,46.7s-20.9,46.7-46.7,46.7s-46.7-20.9-46.7-46.7C302.7,176.9,323.6,156,349.3,156z"/>
	<path d="M296,302.7h-80c-11,0-20,9-20,20v80c0,11,9,20,20,20h80c11,0,20-9,20-20v-80C316,311.6,307,302.7,296,302.7z M249.3,316
		h13.3v30.6l-2-2c-2.6-2.6-6.8-2.6-9.4,0l-2,2V316z M302.7,402.7c0,3.7-3,6.7-6.7,6.7h-80c-3.7,0-6.7-3-6.7-6.7v-80
		c0-3.7,3-6.7,6.7-6.7h20v46.7c0,3.7,3,6.7,6.7,6.7c1.8,0,3.5-0.7,4.7-2l8.6-8.6l8.6,8.6c2.6,2.6,6.8,2.6,9.4,0c1.2-1.2,2-2.9,2-4.7
		V316h20c3.7,0,6.7,3,6.7,6.7V402.7z"/>
	<path d="M109.3,249.3h8.8c0.2,0.7,0.3,1.4,0.6,2.1c8.5,24.3,35.2,37.1,59.5,28.6c13.4-4.7,23.9-15.2,28.6-28.6
		c0.2-0.7,0.3-1.4,0.6-2.1h8.8c11,0,20-9,20-20V216c0-8.4-5.4-16-13.3-18.8v-27.9c0-22.1-17.9-40-40-40h-40c-22.1,0-40,17.9-40,40
		v27.9c-8,2.8-13.3,10.3-13.3,18.8v13.3C89.3,240.4,98.3,249.3,109.3,249.3z M194.1,247L194.1,247c-6.1,17.4-25.1,26.5-42.5,20.4
		c-9.5-3.4-17.1-10.9-20.4-20.4c-1.3-3.5-1.9-7.3-1.9-11v-35.2l6.7-2.2v4.1c0,3.7,3,6.7,6.7,6.7c1.8,0,3.5-0.7,4.7-2l8.6-8.6v3.9
		c0,3.7,3,6.7,6.7,6.7c1.3,0,2.6-0.4,3.7-1.1l17.3-11.5l12.4,4.1V236C196,239.8,195.4,243.5,194.1,247z M222.7,229.3
		c0,3.7-3,6.7-6.7,6.7h-6.7v-26.7h6.7c3.7,0,6.7,3,6.7,6.7V229.3z M116,169.3c0-14.7,11.9-26.7,26.7-26.7h40
		c14.7,0,26.7,11.9,26.7,26.7V196c0-2.9-1.8-5.4-4.6-6.3l-20-6.7c-2-0.6-4.1-0.3-5.8,0.8l-9.6,6.4v-7.5c0-3.7-3-6.7-6.7-6.7
		c-1.8,0-3.5,0.7-4.7,2l-9,9c-1.3-3.4-4.9-5.1-8.4-4l-20,6.7c-2.7,0.9-4.6,3.5-4.6,6.3V169.3z M102.7,216c0-3.7,3-6.7,6.7-6.7h6.7
		V236h-6.7c-3.7,0-6.7-3-6.7-6.7V216z"/>
	<path d="M162.7,242.7c-3.7,0-6.7-3-6.7-6.7h-13.3c0,11,9,20,20,20s20-9,20-20l0,0h-13.3C169.3,239.7,166.3,242.7,162.7,242.7z"/>
</g>
<text transform="matrix(1 0 0 1 430.749 134.4355)" class="st0 st1">2</text>
</svg>
