<?xml version="1.0" encoding="utf-8"?>
<!-- Generator: Adobe Illustrator 21.1.0, SVG Export Plug-In . SVG Version: 6.00 Build 0)  -->
<svg version="1.0" id="Layer_1" xmlns="http://www.w3.org/2000/svg" xmlns:xlink="http://www.w3.org/1999/xlink" x="0px" y="0px"
	 viewBox="0 0 512 512" style="enable-background:new 0 0 512 512;" xml:space="preserve">
<style type="text/css">
	.st0{font-family:'NunitoSans-Black';}
	.st1{font-size:98.59px;}
</style>
<g id="segment">
	<path d="M254.9,19c-110.5,0-200,89.5-200,200s89.5,201,200,201s200-90.5,200-201C454.7,108.6,365.3,19.1,254.9,19z M441.5,219
		c0,30.5-7.5,60.6-21.8,87.5l-158.2-91.3V32.5C361.9,36.2,441.4,118.6,441.5,219z M248.2,32.5v182.7L90,306.5
		c-48.4-91-13.8-203.9,77.2-252.3C192.2,40.9,219.9,33.5,248.2,32.5z M254.9,406.7c-64.3,0-124-34.2-158.1-88.7l158.1-91.3L413,318
		C378.9,372.5,319.1,406.6,254.9,406.7z"/>
	<path d="M341.5,205.7h13.3V199c7.4,0,13.3-6,13.3-13.3v-13.3c0-7.4-6-13.3-13.3-13.3h-13.3v-13.3h26.7v-13.3h-13.3v-6.7h-13.3v6.7
		c-7.4,0-13.3,6-13.3,13.3V159c0,7.4,6,13.3,13.3,13.3h13.3v13.3h-26.7V199h13.3V205.7z"/>
	<path d="M348.2,225.7c33.1,0,60-26.9,60-60s-26.9-60-60-60s-60,26.9-60,60C288.2,198.8,315.1,225.6,348.2,225.7z M348.2,119
		c25.8,0,46.7,20.9,46.7,46.7s-20.9,46.7-46.7,46.7s-46.7-20.9-46.7-46.7C301.6,139.9,322.4,119,348.2,119z"/>
	<path d="M294.9,265.7h-80c-11,0-20,9-20,20v80c0,11,9,21,20,21h80c11,0,20-10,20-21v-80C314.9,274.6,305.9,265.7,294.9,265.7z
		 M248.2,279h13.3v30.6l-2-2c-2.6-2.6-6.8-2.6-9.4,0l-2,2V279z M301.5,365.7c0,3.7-3,6.7-6.7,6.7h-80c-3.7,0-6.7-3-6.7-6.7v-80
		c0-3.7,3-6.7,6.7-6.7h20v46.7c0,3.7,3,6.7,6.7,6.7c1.8,0,3.5-0.7,4.7-2l8.6-8.6l8.6,8.6c2.6,2.6,6.8,2.6,9.4,0c1.2-1.2,2-2.9,2-4.7
		V279h20c3.7,0,6.7,3,6.7,6.7V365.7z"/>
	<path d="M108.2,212.3h8.8c0.2,0.7,0.3,1.4,0.6,2.1c8.5,24.3,35.2,37.1,59.5,28.6c13.4-4.7,23.9-15.2,28.6-28.6
		c0.2-0.7,0.3-1.4,0.6-2.1h8.8c11,0,20-9,20-20V179c0-8.4-5.4-16-13.3-18.8v-27.9c0-22.1-17.9-40-40-40h-40c-22.1,0-40,17.9-40,40
		v27.9c-8,2.8-13.3,10.3-13.3,18.8v13.3C88.2,203.4,97.1,212.3,108.2,212.3z M193,210L193,210c-6.1,17.4-25.1,26.5-42.5,20.4
		c-9.5-3.4-17.1-10.9-20.4-20.4c-1.3-3.5-1.9-7.3-1.9-11v-35.2l6.7-2.2v4.1c0,3.7,3,6.7,6.7,6.7c1.8,0,3.5-0.7,4.7-2l8.6-8.6v3.9
		c0,3.7,3,6.7,6.7,6.7c1.3,0,2.6-0.4,3.7-1.1l17.3-11.5l12.4,4.1V199C194.9,202.8,194.2,206.5,193,210z M221.5,192.3
		c0,3.7-3,6.7-6.7,6.7h-6.7v-26.7h6.7c3.7,0,6.7,3,6.7,6.7V192.3z M114.9,132.3c0-14.7,11.9-26.7,26.7-26.7h40
		c14.7,0,26.7,11.9,26.7,26.7V159c0-2.9-1.8-5.4-4.6-6.3l-20-6.7c-2-0.6-4.1-0.3-5.8,0.8l-9.6,6.4v-7.5c0-3.7-3-6.7-6.7-6.7
		c-1.8,0-3.5,0.7-4.7,2l-9,9c-1.3-3.4-4.9-5.1-8.4-4l-20,6.7c-2.7,0.9-4.6,3.5-4.6,6.3V132.3z M101.5,179c0-3.7,3-6.7,6.7-6.7h6.7
		V199h-6.7c-3.7,0-6.7-3-6.7-6.7V179z"/>
	<path d="M161.5,205.7c-3.7,0-6.7-3-6.7-6.7h-13.3c0,11,9,20,20,20c11,0,20-9,20-20l0,0h-13.3C168.2,202.7,165.2,205.7,161.5,205.7z
		"/>
</g>
<text transform="matrix(1 0 0 1 231 499)" class="st0 st1">3</text>
</svg>
