<svg id="outline" height="512" viewBox="0 0 512 512" width="512" xmlns="http://www.w3.org/2000/svg"><path d="m296 16a8.00008 8.00008 0 0 0 -8 8v80a8.00008 8.00008 0 0 0 8 8 104.11791 104.11791 0 0 1 104 104 8.00008 8.00008 0 0 0 8 8h80a8.00008 8.00008 0 0 0 8-8c0-110.28027-89.71973-200-200-200zm119.73633 192a120.19514 120.19514 0 0 0 -111.73633-111.73633v-64.09179c95.106 4.08984 171.73828 80.72167 175.82812 175.82812z"/><path d="m16 40h16v16h-16z"/><path d="m48 40h40v16h-40z"/><path d="m364.89679 423.67236a199.99275 199.99275 0 0 0 91.10321-167.67236 8.00008 8.00008 0 0 0 -8-8h-80a8.00008 8.00008 0 0 0 -8 8 104 104 0 1 1 -104-104 8.00008 8.00008 0 0 0 8-8v-80a8.00008 8.00008 0 0 0 -8-8 199.087 199.087 0 0 0 -127.71765 46.21143l-27.48255-20.61182a8.00222 8.00222 0 0 0 -4.7998-1.59961h-80v16h77.3335l22.85272 17.13989a199.74868 199.74868 0 0 0 27.26294 308.09693l-18.76264 18.76318h-108.68652v16h112a8.00035 8.00035 0 0 0 5.65674-2.34277l23.71857-23.71875a199.65155 199.65155 0 0 0 192.615 2.55468l29.2099 21.90723a8.00222 8.00222 0 0 0 4.79979 1.59961h104v-16h-101.3335zm10.83954-159.67236h64.09179c-4.08996 95.10645-80.72186 171.72705-175.82812 175.81738v-64.08838a120.1854 120.1854 0 0 0 111.73633-111.729zm-127.73633-191.82812v64.09179a120.185 120.185 0 0 0 -111.72888 111.73633h-64.08844c4.09009-95.1062 80.71112-171.73828 175.81732-175.82812zm-175.81555 191.82812h64.08862a120.17217 120.17217 0 0 0 111.72693 111.72705v64.08838c-95.10626-4.08984-171.72546-80.70898-175.81555-175.81543z"/><path d="m472 480h16v16h-16z"/><path d="m392 480h64v16h-64z"/><path d="m16 480h16v16h-16z"/><path d="m48 480h64v16h-64z"/><path d="m328 288v-128a8.00008 8.00008 0 0 0 -8-8h-32a8.00008 8.00008 0 0 0 -8 8v16h-24a8.00008 8.00008 0 0 0 -8 8v24h-24a8.00008 8.00008 0 0 0 -8 8v16h-24a8.00008 8.00008 0 0 0 -8 8v48a8.00008 8.00008 0 0 0 8 8h128a8.00008 8.00008 0 0 0 8-8zm-128-40h16v32h-16zm32-24h16v56h-16zm32-32h16v88h-16zm48 88h-16v-112h16z"/><path d="m232 304h16v16h-16z"/><path d="m200 304h16v16h-16z"/><path d="m264 304h16v16h-16z"/><path d="m296 304h16v16h-16z"/></svg>