<svg id="Layer_1" enable-background="new 0 0 512 512" height="512" viewBox="0 0 512 512" width="512" xmlns="http://www.w3.org/2000/svg"><g id="XMLID_1129_"><g id="XMLID_147_"><path id="XMLID_148_" d="m256 340.87c-2.63 0-5.21 1.07-7.07 2.93s-2.93 4.44-2.93 7.07 1.069 5.21 2.93 7.07 4.44 2.93 7.07 2.93 5.21-1.07 7.069-2.93c1.86-1.86 2.931-4.44 2.931-7.07s-1.07-5.21-2.931-7.07c-1.859-1.86-4.439-2.93-7.069-2.93z"/><path id="XMLID_173_" d="m256 230.017c44.112 0 80-35.888 80-80s-35.888-80-80-80-80 35.888-80 80 35.888 80 80 80zm0-140c33.084 0 60 26.916 60 60s-26.916 60-60 60-60-26.916-60-60 26.916-60 60-60z"/><path id="XMLID_176_" d="m470 54h-97.869l-28.577-28.577c-1.876-1.875-4.419-2.929-7.071-2.929s-5.196 1.054-7.071 2.929l-10.651 10.652c-8.438-4.659-17.332-8.345-26.582-11.015v-15.06c0-5.523-4.478-10-10-10h-52.357c-5.522 0-10 4.477-10 10v15.06c-9.25 2.67-18.145 6.356-26.582 11.015l-10.651-10.652c-1.875-1.875-4.419-2.929-7.071-2.929s-5.195 1.054-7.071 2.929l-28.578 28.577h-97.869c-23.159 0-42 18.841-42 42v282c0 23.159 18.841 42 42 42h167.582v31.264c0 17.277-8.733 33.078-23.362 42.268-3.774 2.371-5.523 6.953-4.29 11.236s5.152 7.232 9.609 7.232h128.922c4.457 0 8.376-2.949 9.609-7.232s-.516-8.865-4.29-11.236c-14.629-9.19-23.362-24.991-23.362-42.268v-31.264h167.582c23.159 0 42-18.841 42-42v-282c0-23.159-18.841-42-42-42zm-294.483-7.364 9.07 9.071c3.313 3.313 8.484 3.882 12.438 1.367 10.769-6.849 22.533-11.723 34.968-14.488 4.574-1.018 7.829-5.075 7.829-9.762v-12.824h32.357v12.824c0 4.687 3.255 8.744 7.829 9.762 12.435 2.765 24.199 7.64 34.968 14.488 3.952 2.514 9.123 1.947 12.438-1.367l9.07-9.071 22.88 22.881-9.066 9.066c-3.313 3.314-3.882 8.485-1.365 12.439 6.852 10.769 11.729 22.535 14.497 34.971 1.018 4.574 5.075 7.828 9.761 7.828h12.809v32.357h-12.803c-4.687 0-8.745 3.255-9.762 7.831-2.766 12.441-7.642 24.211-14.492 34.983-2.516 3.954-1.947 9.124 1.366 12.438l9.054 9.054-22.88 22.88-9.05-9.05c-3.315-3.314-8.487-3.882-12.439-1.366-10.773 6.855-22.544 11.734-34.986 14.501-4.574 1.017-7.829 5.075-7.829 9.761v12.79h-32.357v-12.789c0-4.687-3.255-8.744-7.829-9.761-12.442-2.768-24.213-7.646-34.986-14.501-3.952-2.516-9.124-1.948-12.439 1.366l-9.05 9.05-22.88-22.88 9.054-9.054c3.313-3.314 3.882-8.484 1.366-12.438-6.851-10.772-11.727-22.542-14.492-34.983-1.017-4.576-5.075-7.831-9.762-7.831h-12.804v-32.357h12.811c4.686 0 8.743-3.254 9.761-7.828 2.769-12.437 7.646-24.202 14.497-34.971 2.517-3.954 1.948-9.125-1.365-12.439l-9.066-9.066zm119.933 445.364h-78.9c8.377-11.667 13.032-25.808 13.032-40.736v-31.264h52.836v31.264c0 14.928 4.655 29.069 13.032 40.736zm174.55-92h-428c-12.131 0-22-9.869-22-22v-17.13h191.133c5.522 0 10-4.477 10-10s-4.478-10-10-10h-191.133v-244.87c0-12.131 9.869-22 22-22h87.56c.468.933 1.084 1.81 1.863 2.588l10.647 10.646c-4.662 8.438-8.351 17.334-11.022 26.587h-15.048c-5.522 0-10 4.477-10 10v52.357c0 5.523 4.478 10 10 10h15.038c2.671 9.257 6.358 18.157 11.021 26.599l-10.636 10.635c-3.905 3.905-3.905 10.237 0 14.143l37.022 37.022c3.906 3.905 10.236 3.905 14.143 0l10.63-10.63c8.443 4.665 17.345 8.354 26.604 11.027v15.026c0 5.523 4.478 10 10 10h52.357c5.522 0 10-4.477 10-10v-15.026c9.259-2.672 18.16-6.362 26.604-11.027l10.63 10.63c3.906 3.905 10.236 3.905 14.143 0l37.022-37.022c3.905-3.905 3.905-10.237 0-14.143l-10.636-10.635c4.662-8.442 8.35-17.342 11.021-26.599h15.037c5.522 0 10-4.477 10-10v-52.357c0-5.523-4.478-10-10-10h-15.048c-2.672-9.252-6.36-18.148-11.022-26.587l10.647-10.646c.778-.778 1.395-1.655 1.863-2.588h87.56c12.131 0 22 9.869 22 22v244.87h-190.869c-5.522 0-10 4.477-10 10s4.478 10 10 10h190.869v17.13c0 12.131-9.869 22-22 22z"/></g></g></svg>