<?xml version="1.0" encoding="utf-8"?>
<!-- Generator: Adobe Illustrator 16.0.0, SVG Export Plug-In . SVG Version: 6.00 Build 0)  -->
<!DOCTYPE svg PUBLIC "-//W3C//DTD SVG 1.1//EN" "http://www.w3.org/Graphics/SVG/1.1/DTD/svg11.dtd">
<svg version="1.1"
	 id="svg4050" xmlns:cc="http://creativecommons.org/ns#" xmlns:rdf="http://www.w3.org/1999/02/22-rdf-syntax-ns#" xmlns:sodipodi="http://sodipodi.sourceforge.net/DTD/sodipodi-0.dtd" xmlns:dc="http://purl.org/dc/elements/1.1/" xmlns:inkscape="http://www.inkscape.org/namespaces/inkscape" xmlns:svg="http://www.w3.org/2000/svg"
	 xmlns="http://www.w3.org/2000/svg" xmlns:xlink="http://www.w3.org/1999/xlink" x="0px" y="0px" width="32px" height="32px"
	 viewBox="0 0 32 32" enable-background="new 0 0 32 32" xml:space="preserve">
<g id="layer1" transform="translate(0,-1020.3622)">
	<path id="path4544" d="M8,1023.362c-1.099,0-2,0.901-2,2v22c0,1.1,0.901,2,2,2h16c1.1,0,2-0.9,2-2v-18.5c0-0.002,0-0.005,0-0.008
		s0-0.005,0-0.008c0-0.012-0.001-0.023-0.002-0.035c0-0.005-0.002-0.01-0.002-0.016c-0.016-0.135-0.086-0.258-0.195-0.34
		l-4.885-4.883c-0.002-0.003-0.006-0.006-0.008-0.01c-0.096-0.128-0.248-0.204-0.408-0.201H8z M8,1024.362h12v3c0,1.1,0.9,2,2,2h3
		v18c0,0.563-0.438,1-1,1H8c-0.563,0-1-0.438-1-1v-22C7,1024.8,7.438,1024.362,8,1024.362z M21,1025.069l3.293,3.293H22
		c-0.563,0-1-0.438-1-1V1025.069z M10.457,1034.362c-0.276,0.014-0.489,0.25-0.475,0.525s0.249,0.489,0.525,0.475
		c0.276,0.004,0.503-0.217,0.507-0.493c0.004-0.276-0.216-0.503-0.493-0.507c-0.005,0-0.009,0-0.014,0
		C10.491,1034.361,10.474,1034.361,10.457,1034.362z M12.457,1034.362c-0.276,0.014-0.489,0.25-0.475,0.525s0.249,0.489,0.525,0.475
		h4.625H21.5c0.276,0.004,0.503-0.217,0.507-0.493c0.004-0.276-0.216-0.503-0.493-0.507c-0.004,0-0.009,0-0.014,0h-4.367h-4.625
		C12.491,1034.361,12.474,1034.361,12.457,1034.362z M10.457,1036.362c-0.276,0.014-0.489,0.25-0.475,0.525
		c0.014,0.275,0.249,0.488,0.525,0.475c0.276,0.004,0.503-0.217,0.507-0.492c0.004-0.277-0.216-0.504-0.493-0.508
		c-0.005,0-0.009,0-0.014,0C10.491,1036.361,10.474,1036.361,10.457,1036.362z M12.457,1036.362
		c-0.276,0.014-0.489,0.25-0.475,0.525c0.014,0.275,0.249,0.488,0.525,0.475h4.625H21.5c0.276,0.004,0.503-0.217,0.507-0.492
		c0.004-0.277-0.216-0.504-0.493-0.508c-0.004,0-0.009,0-0.014,0h-4.367h-4.625C12.491,1036.361,12.474,1036.361,12.457,1036.362z
		 M10.457,1038.362c-0.276,0.014-0.489,0.25-0.475,0.525s0.249,0.488,0.525,0.475c0.276,0.004,0.503-0.217,0.507-0.492
		c0.004-0.277-0.216-0.504-0.493-0.508c-0.005,0-0.009,0-0.014,0C10.491,1038.361,10.474,1038.361,10.457,1038.362z
		 M12.457,1038.362c-0.276,0.014-0.489,0.25-0.475,0.525s0.249,0.488,0.525,0.475h4.625H21.5c0.276,0.004,0.503-0.217,0.507-0.492
		c0.004-0.277-0.216-0.504-0.493-0.508c-0.004,0-0.009,0-0.014,0h-4.367h-4.625C12.491,1038.361,12.474,1038.361,12.457,1038.362z"
		/>
</g>
</svg>
