<svg height="512pt" viewBox="0 0 512 512" width="512pt" xmlns="http://www.w3.org/2000/svg"><path d="m504.394531 233.277344c4.199219 0 7.605469-3.402344 7.605469-7.601563v-44.925781c0-4.199219-3.40625-7.605469-7.605469-7.605469h-18.257812v-98.089843c0-4.199219-3.40625-7.605469-7.605469-7.605469s-7.605469 3.40625-7.605469 7.605469v421.738281h-29.710937v-481.585938h29.710937v29.429688c0 4.199219 3.40625 7.601562 7.605469 7.601562s7.605469-3.402343 7.605469-7.601562v-37.03125c0-4.199219-3.40625-7.605469-7.605469-7.605469h-44.921875c-4.199219 0-7.605469 3.40625-7.605469 7.605469v165.539062h-15.523437v-133.941406c0-4.199219-3.402344-7.601563-7.601563-7.601563h-293.765625c-4.199219 0-7.601562 3.402344-7.601562 7.601563v133.941406h-15.523438v-165.539062c0-4.199219-3.40625-7.605469-7.605469-7.605469h-44.921874c-4.199219 0-7.601563 3.40625-7.601563 7.605469v165.539062h-18.253906c-4.199219 0-7.605469 3.40625-7.605469 7.605469v44.925781c0 4.199219 3.40625 7.601563 7.605469 7.601563h18.253906v153.90625h-18.253906c-4.199219 0-7.605469 3.402344-7.605469 7.601562v44.925782c0 4.199218 3.40625 7.605468 7.605469 7.605468h18.253906v57.078125c0 4.199219 3.402344 7.605469 7.601563 7.605469h44.921874c4.199219 0 7.605469-3.40625 7.605469-7.605469v-57.078125h27.605469c4.199219 0 7.605469-3.40625 7.605469-7.605468 0-4.199219-3.40625-7.605469-7.605469-7.605469h-27.605469v-29.714844h340.015625v29.714844h-281.992187c-4.199219 0-7.601563 3.40625-7.601563 7.605469 0 4.199218 3.402344 7.605468 7.601563 7.605468h281.992187v57.078125c0 4.199219 3.40625 7.605469 7.605469 7.605469h44.921875c4.199219 0 7.605469-3.40625 7.605469-7.605469v-57.078125h18.257812c4.199219 0 7.605469-3.40625 7.605469-7.605468v-44.925782c0-4.199218-3.40625-7.601562-7.605469-7.601562h-18.257812v-153.90625zm-240.792969-60.132813v-116.050781l60.558594 58.359375c1.472656 1.417969 3.375 2.128906 5.277344 2.128906s3.804688-.710937 5.277344-2.128906l60.558594-58.359375v116.050781zm11.242188-126.335937h109.1875l-54.59375 52.609375zm-37.695312 0-54.59375 52.609375-54.589844-52.609375zm-120.429688 10.285156 60.5625 58.359375c1.46875 1.417969 3.371094 2.128906 5.273438 2.128906 1.902343 0 3.804687-.710937 5.277343-2.128906l60.558594-58.359375v116.050781h-131.671875zm309.285156 131.261719v29.714843h-340.015625v-29.714843zm-410.796875 29.714843v-29.714843h10.652344v29.714843zm0 214.035157v-29.714844h10.652344v29.714844zm25.859375 64.6875v-481.585938h29.714844v481.585938zm121.097656-235.945313h40.785157v59.703125l-16.117188-10.960937c-1.289062-.875-2.78125-1.316406-4.273437-1.316406-1.492188 0-2.988282.441406-4.277344 1.316406l-16.113281 10.960937v-59.703125zm-11.160156 80.789063c2.488282 1.316406 5.503906 1.148437 7.832032-.433594l23.71875-16.128906 23.71875 16.128906c1.285156.875 2.78125 1.316406 4.277343 1.316406 1.21875 0 2.441407-.292969 3.558594-.882812 2.488281-1.316407 4.046875-3.902344 4.046875-6.722657v-74.066406h30.234375v126.335938h-131.671875v-126.335938h30.238281v74.066406c0 2.820313 1.554688 5.40625 4.046875 6.722657zm112.597656-80.789063h30.238282v74.066406c0 2.820313 1.558594 5.40625 4.046875 6.722657 2.488281 1.316406 5.503906 1.148437 7.832031-.433594l23.71875-16.128906 23.71875 16.128906c1.285156.875 2.777344 1.316406 4.277344 1.316406 1.21875 0 2.441406-.292969 3.558594-.882812 2.488281-1.316407 4.042968-3.902344 4.042968-6.722657v-74.066406h30.238282v126.335938h-131.671876zm45.445313 0h40.78125v59.703125l-16.117187-10.960937c-2.578126-1.753906-5.96875-1.753906-8.550782 0l-16.113281 10.960937zm101.433594 126.335938v-133.941406c0-4.199219-3.402344-7.601563-7.601563-7.601563h-293.765625c-4.199219 0-7.601562 3.402344-7.601562 7.601563v133.941406h-15.523438v-153.90625h340.015625v153.90625zm86.3125-198.828125v29.714843h-10.65625v-29.714843zm0 214.035156v29.714844h-10.65625v-29.714844zm0 0"/></svg>