<?xml version="1.0" encoding="utf-8"?>
<!-- Generator: Adobe Illustrator 16.0.0, SVG Export Plug-In . SVG Version: 6.00 Build 0)  -->
<!DOCTYPE svg PUBLIC "-//W3C//DTD SVG 1.1//EN" "http://www.w3.org/Graphics/SVG/1.1/DTD/svg11.dtd">
<svg version="1.1" id="Layer_1" xmlns="http://www.w3.org/2000/svg" xmlns:xlink="http://www.w3.org/1999/xlink" x="0px" y="0px"
	 width="512px" height="512px" viewBox="0 0 512 512" enable-background="new 0 0 512 512" xml:space="preserve">
<g id="_08-shift">
	<g id="linear_color">
		<path d="M364,256c0-59.646-48.354-108-108-108c-59.647,0-108,48.354-108,108c0,59.647,48.353,108,108,108
			C315.618,363.933,363.933,315.619,364,256z M172.871,268H184c6.627,0,12-5.372,12-12c0-6.627-5.373-12-12-12h-11.129
			c5.376-36.828,34.301-65.753,71.129-71.129V184c0,6.628,5.372,12,12,12c6.627,0,12-5.372,12-12v-11.129
			c36.828,5.376,65.753,34.301,71.129,71.129H328c-6.628,0-12,5.373-12,12c0,6.628,5.372,12,12,12h11.129
			c-5.376,36.828-34.301,65.753-71.129,71.13V328c0-6.627-5.373-12-12-12c-6.628,0-12,5.373-12,12v11.13
			C207.172,333.753,178.247,304.828,172.871,268z"/>
		<path d="M250.633,266.733c4.62,2.31,10.199,1.404,13.852-2.248l32-32c4.648-4.725,4.587-12.322-0.138-16.97
			c-4.67-4.595-12.162-4.595-16.832,0L253.63,241.4l-24.263-12.132c-5.928-2.965-13.137-0.562-16.101,5.365
			c-2.964,5.928-0.562,13.137,5.366,16.101l0,0L250.633,266.733z"/>
		<path d="M72,268c6.627,0,12-5.372,12-12c0-90.3,69.944-164.564,158.5-171.472l-10.985,10.987
			c-4.725,4.647-4.786,12.245-0.138,16.97c4.647,4.725,12.245,4.786,16.97,0.138c0.047-0.045,0.093-0.092,0.138-0.138l32-32
			c4.687-4.687,4.687-12.284,0-16.97l-32-32c-4.724-4.648-12.321-4.587-16.97,0.138c-4.595,4.67-4.595,12.162,0,16.832
			l11.928,11.929C141.2,66.911,60,152.144,60,256C60,262.628,65.372,268,72,268z"/>
		<path d="M440,244c-6.628,0-12,5.373-12,12c0,90.301-69.946,164.565-158.5,171.473l10.985-10.987
			c4.648-4.725,4.587-12.322-0.138-16.97c-4.67-4.595-12.162-4.595-16.832,0l-32,32c-4.686,4.687-4.686,12.283,0,16.97l32,32
			c4.725,4.648,12.322,4.586,16.97-0.138c4.595-4.67,4.595-12.162,0-16.832l-11.928-11.929C370.8,445.09,452,359.856,452,256
			C452,249.373,446.627,244,440,244z"/>
		<path d="M492,56c-0.246-8.807-2.384-17.458-6.268-25.367C477.146,13.458,460.9,4,440,4h-64c-6.628,0-12,5.373-12,12
			c0,20.465,12.762,33.264,24.008,39.665c0,0.112-0.008,0.225-0.008,0.335c0,28.719,23.28,52,52,52C468.719,108,492,84.719,492,56z
			 M440,28c9.875,0,17.028,3.039,21.739,9.265l-1.944-0.648C458.572,36.208,457.289,36,456,36h-53.7
			c-4.046-1.78-7.592-4.528-10.328-8H440z M440,84c-13.912-0.019-25.706-10.233-27.711-24h41.764l12.709,4.237
			C463.132,75.975,452.286,83.985,440,84z"/>
		<path d="M472,108h-64c-19.873,0.022-35.979,16.127-36,36v72c0,6.628,5.372,12,12,12h112c6.627,0,12-5.372,12-12v-72
			C507.978,124.127,491.873,108.022,472,108z M484,204h-88v-60c0.007-6.624,5.375-11.992,12-12h64c6.624,0.008,11.992,5.376,12,12
			V204z"/>
		<path d="M132,336c-0.246-8.807-2.384-17.458-6.268-25.366C117.146,293.458,100.9,284,80,284H16c-6.628,0-12,5.373-12,12
			c0,20.466,12.762,33.264,24.008,39.665c0,0.112-0.008,0.225-0.008,0.335c0,28.72,23.281,52,52,52S132,364.719,132,336z M80,308
			c9.875,0,17.028,3.039,21.74,9.265l-1.945-0.648C98.572,316.209,97.29,316.001,96,316H42.3c-4.046-1.781-7.592-4.528-10.328-8H80z
			 M80,364c-13.911-0.019-25.706-10.233-27.71-24h41.763l12.709,4.237C103.132,355.975,92.286,363.985,80,364z"/>
		<path d="M112,388H48c-19.873,0.022-35.979,16.127-36,36v72c0,6.628,5.372,12,12,12h112c6.627,0,12-5.372,12-12v-72
			C147.978,404.127,131.873,388.022,112,388z M124,484H36v-60c0.007-6.624,5.375-11.992,12-12h64c6.624,0.008,11.992,5.376,12,12
			V484z"/>
	</g>
</g>
</svg>
