<?xml version="1.0" encoding="utf-8"?>
<!-- Generator: Adobe Illustrator 16.0.0, SVG Export Plug-In . SVG Version: 6.00 Build 0)  -->
<!DOCTYPE svg PUBLIC "-//W3C//DTD SVG 1.1//EN" "http://www.w3.org/Graphics/SVG/1.1/DTD/svg11.dtd">
<svg version="1.1" id="Capa_1" xmlns="http://www.w3.org/2000/svg" xmlns:xlink="http://www.w3.org/1999/xlink" x="0px" y="0px"
	 width="512px" height="512px" viewBox="0 0 512 512" enable-background="new 0 0 512 512" xml:space="preserve">
<g>
	<path d="M504.5,440.005h-2.51v-85.272c0-4.143-3.356-7.5-7.5-7.5c-4.143,0-7.5,3.357-7.5,7.5v85.272h-86.964V224.377h86.964
		v100.367c0,4.144,3.357,7.5,7.5,7.5c4.144,0,7.5-3.356,7.5-7.5V224.19c0-8.168-6.646-14.813-14.813-14.813h-87.336
		c-8.168,0-14.813,6.646-14.813,14.813v215.813h-53.295V344.19c0-8.168-6.646-14.813-14.813-14.813h-87.336
		c-8.169,0-14.814,6.646-14.814,14.813v95.813h-53.294V294.19c0-8.168-6.646-14.813-14.813-14.813H59.324
		c-8.168,0-14.813,6.646-14.813,14.813v145.813H7.5c-4.144,0-7.5,3.356-7.5,7.5c0,4.143,3.356,7.5,7.5,7.5h497
		c4.143,0,7.5-3.357,7.5-7.5C512,443.36,508.643,440.005,504.5,440.005L504.5,440.005z M59.511,440.005V294.377h86.964v145.628
		H59.511z M229.769,440.005v-95.627h86.964v95.627H229.769z"/>
	<path d="M17.51,320.354h15.496c4.143,0,7.5-3.357,7.5-7.5s-3.357-7.5-7.5-7.5H17.51c-4.143,0-7.5,3.357-7.5,7.5
		S13.367,320.354,17.51,320.354z"/>
	<path d="M17.51,347.238h15.496c4.143,0,7.5-3.356,7.5-7.5c0-4.143-3.357-7.5-7.5-7.5H17.51c-4.143,0-7.5,3.357-7.5,7.5
		C10.01,343.882,13.367,347.238,17.51,347.238z"/>
	<path d="M17.51,374.122h15.496c4.143,0,7.5-3.356,7.5-7.5c0-4.143-3.357-7.5-7.5-7.5H17.51c-4.143,0-7.5,3.357-7.5,7.5
		C10.01,370.765,13.367,374.122,17.51,374.122z"/>
	<path d="M230.147,257.384c-1.904,4.258-2.896,8.874-2.896,13.657v31.771c0,7.529,6.125,13.654,13.653,13.654h19.354
		c4.143,0,7.5-3.357,7.5-7.5c0-4.144-3.357-7.501-7.5-7.501h-18.008v-30.425c0-2.624,0.541-5.157,1.578-7.495
		c3.725,0.299,7.306-0.312,10.603-1.728c6.131,4.092,13.347,6.307,20.821,6.307c10.391,0,19.809-4.245,26.614-11.089
		c3.986,3.475,6.387,8.555,6.387,14.005v30.425h-18.008c-4.144,0-7.5,3.357-7.5,7.501c0,4.143,3.356,7.5,7.5,7.5H309.6
		c7.529,0,13.654-6.125,13.654-13.654v-31.771c0-10.551-4.978-20.326-13.118-26.596c1.713-4.294,2.666-8.971,2.666-13.869
		c0-4.605-0.839-9.114-2.45-13.346c5.403-4.09,8.902-10.57,8.902-17.854c0-12.341-10.04-22.381-22.381-22.381h-42.12
		c-17.372,0-31.506,14.755-31.506,32.893v31.355C223.247,247.582,225.899,253.308,230.147,257.384L230.147,257.384z
		 M275.253,253.125c-3.317,0-6.544-0.742-9.491-2.112c1.439-2.954,2.248-6.269,2.248-9.769v-19.486h27.986
		c1.179,2.771,1.806,5.756,1.806,8.818C297.802,243.01,287.687,253.125,275.253,253.125L275.253,253.125z M238.247,209.888
		c0-9.865,7.403-17.893,16.506-17.893h42.12c4.068,0,7.381,3.313,7.381,7.381c0,4.07-3.313,7.381-7.381,7.381H260.51
		c-4.143,0-7.5,3.357-7.5,7.5v26.986c0,4.069-3.313,7.381-7.381,7.381c-4,0-7.382-3.252-7.382-7.381V209.888z"/>
	<path d="M187.769,370.354h15.496c4.144,0,7.5-3.357,7.5-7.5s-3.356-7.5-7.5-7.5h-15.496c-4.143,0-7.5,3.357-7.5,7.5
		S183.626,370.354,187.769,370.354z"/>
	<path d="M187.769,397.238h15.496c4.144,0,7.5-3.356,7.5-7.5c0-4.143-3.356-7.5-7.5-7.5h-15.496c-4.143,0-7.5,3.357-7.5,7.5
		C180.269,393.882,183.626,397.238,187.769,397.238z"/>
	<path d="M187.769,424.122h15.496c4.144,0,7.5-3.356,7.5-7.5c0-4.143-3.356-7.5-7.5-7.5h-15.496c-4.143,0-7.5,3.357-7.5,7.5
		C180.269,420.765,183.626,424.122,187.769,424.122z"/>
	<path d="M400.406,137.384c-1.904,4.258-2.896,8.875-2.896,13.657v31.771c0,7.528,6.125,13.653,13.653,13.653h68.694
		c7.529,0,13.654-6.125,13.654-13.653v-31.771c0-10.551-4.978-20.326-13.118-26.596c1.713-4.294,2.666-8.971,2.666-13.869
		c0-4.605-0.839-9.114-2.45-13.346c5.403-4.09,8.902-10.57,8.902-17.854c0-12.341-10.04-22.381-22.381-22.381h-42.12
		c-17.372,0-31.506,14.755-31.506,32.893v31.355C393.506,127.582,396.157,133.308,400.406,137.384L400.406,137.384z
		 M478.513,151.041v30.425H412.51v-30.425c0-2.623,0.541-5.155,1.578-7.495c3.698,0.295,7.279-0.301,10.603-1.729
		c6.131,4.092,13.347,6.307,20.82,6.307c10.392,0,19.809-4.245,26.614-11.089C476.112,140.51,478.513,145.59,478.513,151.041
		L478.513,151.041z M466.254,101.758c1.18,2.771,1.806,5.757,1.806,8.818c0,12.435-10.116,22.549-22.55,22.549
		c-3.317,0-6.543-0.742-9.491-2.112c1.438-2.954,2.248-6.269,2.248-9.769v-19.486H466.254z M408.506,89.888
		c0-9.865,7.403-17.893,16.506-17.893h42.12c4.068,0,7.381,3.313,7.381,7.381c0,4.07-3.313,7.381-7.381,7.381h-36.364
		c-4.143,0-7.5,3.357-7.5,7.5v26.986c0,4.069-3.313,7.381-7.381,7.381c-4.026,0-7.381-3.274-7.381-7.381V89.888z"/>
	<path d="M358.026,250.354h15.496c4.144,0,7.5-3.357,7.5-7.5c0-4.144-3.356-7.5-7.5-7.5h-15.496c-4.143,0-7.5,3.356-7.5,7.5
		C350.526,246.997,353.884,250.354,358.026,250.354z"/>
	<path d="M358.026,277.238h15.496c4.144,0,7.5-3.357,7.5-7.5s-3.356-7.5-7.5-7.5h-15.496c-4.143,0-7.5,3.357-7.5,7.5
		S353.884,277.238,358.026,277.238z"/>
	<path d="M358.026,304.122h15.496c4.144,0,7.5-3.356,7.5-7.5c0-4.143-3.356-7.5-7.5-7.5h-15.496c-4.143,0-7.5,3.357-7.5,7.5
		C350.526,300.765,353.884,304.122,358.026,304.122z"/>
	<path d="M59.889,207.384c-1.905,4.258-2.896,8.874-2.896,13.657v31.771c0,7.528,6.125,13.653,13.653,13.653h68.694
		c7.529,0,13.654-6.125,13.654-13.653v-31.771c0-10.55-4.978-20.325-13.118-26.596c1.714-4.294,2.666-8.971,2.666-13.869
		c0-4.605-0.839-9.114-2.45-13.346c5.404-4.09,8.903-10.57,8.903-17.854c0-12.341-10.04-22.381-22.383-22.381h-10.892
		c-4.143,0-7.5,3.357-7.5,7.5c0,4.144,3.357,7.5,7.5,7.5h10.892c4.07,0,7.383,3.313,7.383,7.381c0,4.07-3.313,7.381-7.383,7.381
		H90.251c-4.144,0-7.5,3.357-7.5,7.5v26.986c0,4.732-4.564,8.841-10.277,6.787c-2.634-1.128-4.485-3.746-4.485-6.787v-31.355
		c0-9.865,7.404-17.893,16.507-17.893h1.24c4.144,0,7.5-3.356,7.5-7.5c0-4.143-3.356-7.5-7.5-7.5h-1.24
		c-17.372,0-31.507,14.755-31.507,32.893v31.355C52.989,197.582,55.641,203.308,59.889,207.384L59.889,207.384z M137.996,221.041
		v30.425H71.993v-30.425c0-2.624,0.54-5.157,1.576-7.495c3.79,0.305,7.37-0.339,10.604-1.729c6.131,4.092,13.347,6.307,20.82,6.307
		c10.392,0,19.809-4.245,26.613-11.089C135.596,210.51,137.996,215.59,137.996,221.041L137.996,221.041z M97.751,171.758h27.986
		c1.181,2.771,1.807,5.757,1.807,8.818c0,12.435-10.116,22.549-22.55,22.549c-3.317,0-6.543-0.742-9.491-2.112
		c1.438-2.954,2.248-6.269,2.248-9.769V171.758z"/>
</g>
</svg>
