<?xml version="1.0" encoding="utf-8"?>
<!-- Generator: Adobe Illustrator 16.0.0, SVG Export Plug-In . SVG Version: 6.00 Build 0)  -->
<!DOCTYPE svg PUBLIC "-//W3C//DTD SVG 1.1//EN" "http://www.w3.org/Graphics/SVG/1.1/DTD/svg11.dtd">
<svg version="1.1" id="Layer_5" xmlns="http://www.w3.org/2000/svg" xmlns:xlink="http://www.w3.org/1999/xlink" x="0px" y="0px"
	 width="512px" height="512px" viewBox="0 0 512 512" enable-background="new 0 0 512 512" xml:space="preserve">
<g>
	<path d="M320,360v16h-24v24c0,13.232,10.768,24,24,24h16c4.416,0,8,3.593,8,8v8h-24c-4.416,0-8-3.592-8-8h-16
		c0,13.232,10.768,24,24,24v16h16v-16h24v-24c0-13.231-10.769-24-24-24h-16c-4.416,0-8-3.592-8-8v-8h24c4.416,0,8,3.593,8,8h16
		c0-13.231-10.769-24-24-24v-16H320z"/>
	<path d="M233.6,164.864l12.8-9.6l54,72l-12.8,9.6L233.6,164.864z"/>
	<path d="M299.6,252.88l12.8-9.6l12,16l-12.8,9.6L299.6,252.88z"/>
	<path d="M488,88h-16.408C467.535,43.216,429.823,8,384,8c-20.696,0-40.296,7.112-56.024,20.145C312.752,15.568,293.24,8,272,8
		c-45.824,0-83.536,35.216-87.592,80H168c-8.824,0-16,7.176-16,16v16c0,8.824,7.176,16,16,16h4l116,154.664v47.049
		c-28.448,14.6-48,44.168-48,78.287c0,29.761,14.888,56.064,37.56,72H24V120H8v384h320c48.52,0,88-39.479,88-88
		c0-34.111-19.553-63.688-48-78.287v-47.049L484,136h4c8.823,0,16-7.176,16-16v-16C504,95.176,496.823,88,488,88z M455.528,88
		H439.36C435.455,60.904,412.152,40,384,40c-13.152,0-25.576,4.544-35.48,12.696c-2.647-4.664-5.688-9.08-9.12-13.168
		C352.064,29.488,367.6,24,384,24C421,24,451.535,52.056,455.528,88z M359.592,88c-0.624-6.912-2.08-13.567-4.216-19.928
		C362.888,60.36,373.096,56,384,56c19.312,0,35.472,13.769,39.191,32H359.592z M272,24c37,0,67.536,28.057,71.527,64H327.36
		C323.456,60.904,300.152,40,272,40c-28.152,0-51.456,20.904-55.36,48h-16.168C204.464,52.056,235,24,272,24z M311.192,88h-78.384
		c3.72-18.231,19.88-32,39.192-32C291.312,56,307.472,69.768,311.192,88z M400,416c0,39.696-32.296,72-72,72s-72-32.304-72-72
		c0-39.695,32.296-72,72-72S400,376.304,400,416z M328,328c-8.328,0-16.36,1.24-24,3.408V296h48v35.408
		C344.36,329.24,336.328,328,328,328z M356,280h-56L192,136h272L356,280z M168,120v-16h320l0.008,16H168z"/>
	<path d="M56,472h16v-32h16v-64H72v-80H56v80H40v64h16V472z M56,392h16v32H56V392z"/>
	<path d="M120,216v32h-16v64h16v80h16v-80h16v-64h-16v-32H120z M136,296h-16v-32h16V296z"/>
	<path d="M184,256v40h-16v104h16v32h16v-32h16V296h-16v-40H184z M200,384h-16v-72h16V384z"/>
	<path d="M40,120h80v16H40V120z"/>
	<path d="M40,152h80v16H40V152z"/>
	<path d="M40,184h16v16H40V184z"/>
	<path d="M104,184h16v16h-16V184z"/>
	<path d="M72,184h16v16H72V184z"/>
</g>
</svg>
