<?xml version="1.0" encoding="utf-8"?>
<!-- Generator: Adobe Illustrator 16.0.0, SVG Export Plug-In . SVG Version: 6.00 Build 0)  -->
<!DOCTYPE svg PUBLIC "-//W3C//DTD SVG 1.1//EN" "http://www.w3.org/Graphics/SVG/1.1/DTD/svg11.dtd">
<svg version="1.1" id="Layer_3" xmlns="http://www.w3.org/2000/svg" xmlns:xlink="http://www.w3.org/1999/xlink" x="0px" y="0px"
	 width="512px" height="512px" viewBox="0 0 512 512" enable-background="new 0 0 512 512" xml:space="preserve">
<g>
	<path d="M136,352v-16h-16v16h-8v-16H96v16H80v16h16v48H80v16h16v16h16v-16h8v16h16v-16c13.231,0,24-10.768,24-24
		c0-6.168-2.408-11.743-6.24-16c3.84-4.256,6.24-9.831,6.24-16C160,362.768,149.232,352,136,352z M136,368c4.416,0,8,3.593,8,8
		c0,4.408-3.584,8-8,8h-24v-16H136z M136,416h-24v-16h24c4.416,0,8,3.593,8,8C144,412.408,140.416,416,136,416z"/>
	<path d="M120,304c-48.521,0-88,39.48-88,88c0,48.521,39.479,88,88,88c48.52,0,88-39.479,88-88C208,343.48,168.52,304,120,304z
		 M120,464c-39.704,0-72-32.304-72-72c0-39.695,32.296-72,72-72s72,32.305,72,72C192,431.696,159.704,464,120,464z"/>
	<path d="M392,320c48.52,0,88-39.479,88-88c0-48.52-39.48-88-88-88c-48.521,0-88,39.48-88,88C304,280.52,343.48,320,392,320z
		 M464,232c0,36.992-28.057,67.536-64,71.528v-16.664c13.768-3.576,24-16,24-30.864c0-17.647-14.353-32-32-32
		c-8.824,0-16-7.176-16-16s7.176-16,16-16c8.823,0,16,7.176,16,16h16c0-14.863-10.232-27.288-24-30.863v-16.664
		C435.944,164.464,464,195.008,464,232z M384,160.472v16.664c-13.769,3.575-24,16-24,30.863c0,17.648,14.352,32,32,32
		c8.823,0,16,7.176,16,16s-7.177,16-16,16c-8.824,0-16-7.176-16-16h-16c0,14.864,10.231,27.288,24,30.864v16.664
		c-35.944-4-64-34.536-64-71.528S348.056,164.464,384,160.472L384,160.472z"/>
	<path d="M496,8H304c-2.128,0-4.16,0.84-5.656,2.345l-80,80C216.84,91.84,216,93.88,216,96v64h16v-56h72c4.424,0,8-3.584,8-8V24h176
		v304H296v-72c0-2.12-0.84-4.16-2.345-5.655l-80-80C212.16,168.84,210.128,168,208,168H16c-4.424,0-8,3.584-8,8v320
		c0,4.416,3.576,8,8,8h272c4.424,0,8-3.584,8-8V344h200c4.424,0,8-3.584,8-8V16C504,11.584,500.424,8,496,8z M243.312,88L296,35.312
		V88H243.312z M216,195.312L268.688,248H216V195.312z M24,488V184h176v72c0,4.416,3.576,8,8,8h72v224H24z"/>
	<path d="M456,40h16v16h-16V40z"/>
	<path d="M328,40h112v16H328V40z"/>
	<path d="M456,72h16v16h-16V72z"/>
	<path d="M328,72h112v16H328V72z"/>
	<path d="M456,104h16v16h-16V104z"/>
	<path d="M328,104h112v16H328V104z"/>
	<path d="M40,200h16v16H40V200z"/>
	<path d="M72,200h112v16H72V200z"/>
	<path d="M40,232h16v16H40V232z"/>
	<path d="M72,232h112v16H72V232z"/>
	<path d="M40,264h16v16H40V264z"/>
	<path d="M72,264h112v16H72V264z"/>
</g>
</svg>
