<svg id="Capa_1" enable-background="new 0 0 512.337 512.337" height="512" viewBox="0 0 512.337 512.337" width="512" xmlns="http://www.w3.org/2000/svg"><g><path d="m256.331 324.479h-13.07c-.232 0-.421-.188-.421-.42v-19.863c0-4.142-3.358-7.5-7.5-7.5s-7.5 3.358-7.5 7.5v19.863c0 8.503 6.918 15.42 15.421 15.42h13.07c9.984 0 18.107 8.123 18.107 18.107v68.154c0 1.99-.625 3.889-1.808 5.49l-29.141 39.463c-.953 1.29-1.467 2.852-1.467 4.455v29.688c0 4.142 3.358 7.5 7.5 7.5s7.5-3.358 7.5-7.5v-27.219l27.674-37.476c3.102-4.2 4.741-9.18 4.741-14.401v-68.154c.001-18.254-14.851-33.107-33.106-33.107z"/><path d="m227.84 272.233c0 4.142 3.358 7.5 7.5 7.5s7.5-3.358 7.5-7.5v-72.362c0-17.169-13.968-31.137-31.136-31.137s-31.136 13.968-31.136 31.137v67.706c-3.719-1.893-7.921-2.968-12.372-2.968h-7.53c-8.856 0-16.739 4.231-21.745 10.775-4.816-4.213-11.111-6.775-17.997-6.775h-7.53c-9.688 0-18.211 5.064-23.076 12.68-4.62-3.558-10.398-5.68-16.666-5.68h-7.53c-15.093 0-27.372 12.279-27.372 27.371v64.621c0 4.142 3.358 7.5 7.5 7.5s7.5-3.358 7.5-7.5v-64.621c0-6.821 5.55-12.371 12.372-12.371h7.53c6.822 0 12.372 5.55 12.372 12.371v1.954c0 4.142 3.358 7.5 7.5 7.5s7.5-3.358 7.5-7.5v-8.954c0-6.821 5.55-12.371 12.371-12.371h7.53c6.822 0 12.372 5.55 12.372 12.371v8.954c0 4.142 3.358 7.5 7.5 7.5s7.5-3.358 7.5-7.5v-8.954c0-.89-.046-1.769-.13-2.638.081-.442.13-.896.13-1.362 0-6.821 5.55-12.371 12.371-12.371h7.53c6.821 0 12.371 5.55 12.371 12.371v.01 12.944c0 4.142 3.358 7.5 7.5 7.5s7.5-3.358 7.5-7.5v-105.063c0-8.898 7.239-16.137 16.136-16.137s16.136 7.239 16.136 16.137v72.362z"/><path d="m58.206 441.698c-2.875-3.665-4.458-8.247-4.458-12.903v-29.231c0-4.142-3.358-7.5-7.5-7.5s-7.5 3.358-7.5 7.5v29.231c0 7.997 2.719 15.868 7.655 22.161l11.088 14.136v39.745c0 4.142 3.358 7.5 7.5 7.5s7.5-3.358 7.5-7.5v-42.335c0-1.678-.563-3.308-1.599-4.629z"/><path d="m392.819 87.711-39.053-13.224-23.569-23.571c-2.929-2.929-7.678-2.93-10.606 0-2.93 2.929-2.93 7.677-.001 10.606l19.505 19.506-40.973 40.973c-2.929 2.929-2.929 7.678 0 10.606 1.465 1.464 3.385 2.197 5.304 2.197s3.839-.732 5.304-2.197l42.981-42.981 36.298 12.291c2.428.822 3.142 2.845 3.336 3.676s.45 2.961-1.362 4.774l-120.538 120.54c-1.294 1.294-2.767 1.514-3.789 1.474-4.113-.186-7.634 3.039-7.809 7.178-.175 4.138 3.039 7.635 7.178 7.809.294.013.587.019.879.019 5.347 0 10.342-2.066 14.148-5.872l34.898-34.899c6.445 5.718 14.649 8.849 23.338 8.849 9.408 0 18.253-3.664 24.904-10.315l1.03-1.029c13.222-13.223 13.707-34.428 1.467-48.244l34.899-34.899c4.949-4.95 6.954-11.976 5.361-18.792-1.591-6.819-6.5-12.229-13.13-14.475zm-39.202 105.8-1.03 1.029c-3.819 3.82-8.897 5.923-14.299 5.923-4.582 0-8.932-1.514-12.477-4.304l29.422-29.422c6.225 7.93 5.685 19.473-1.616 26.774z"/><path d="m176.058 55.331c-15.74 31.786-10.417 71.437 16.014 97.868l.225.226c1.465 1.468 3.387 2.203 5.309 2.203 1.917 0 3.833-.73 5.297-2.191 2.932-2.926 2.938-7.674.012-10.606l-.231-.231c-27.292-27.292-27.292-71.698 0-98.99 12.476-12.477 29.049-19.734 46.665-20.436 17.513-.698 34.517 5.116 47.867 16.37 3.167 2.67 7.898 2.268 10.568-.901 2.67-3.167 2.267-7.898-.9-10.568-16.221-13.673-36.877-20.736-58.132-19.889-12.085.481-23.763 3.505-34.37 8.773l-9.029-9.029c-10.573-10.573-27.776-10.572-38.349 0-5.122 5.122-7.942 11.932-7.942 19.175s2.82 14.053 7.942 19.174zm1.554-36.795c4.724-4.724 12.412-4.724 17.136 0l6.51 6.51c-3.223 2.416-6.293 5.069-9.18 7.956-2.909 2.909-5.548 5.987-7.947 9.188l-6.519-6.52c-2.289-2.288-3.549-5.331-3.549-8.567s1.26-6.278 3.549-8.567z"/><path d="m275.892 144.233-4.413 4.413c-2.929 2.929-2.929 7.678 0 10.606 1.465 1.464 3.385 2.197 5.304 2.197s3.839-.732 5.304-2.197l4.413-4.413c2.929-2.929 2.929-7.678 0-10.606-2.93-2.929-7.678-2.929-10.608 0z"/><path d="m113.887 158.958c1.957 0 3.913-.762 5.383-2.278 2.884-2.973 2.813-7.721-.161-10.605-8.518-8.264-13.208-19.318-13.208-31.125s4.691-22.862 13.209-31.126c2.973-2.884 3.044-7.632.16-10.605-2.884-2.974-7.632-3.044-10.605-.16-11.455 11.113-17.764 25.99-17.764 41.891s6.309 30.778 17.764 41.891c1.457 1.413 3.34 2.117 5.222 2.117z"/><path d="m131.107 136.749c1.403 1.171 3.108 1.743 4.804 1.743 2.146 0 4.277-.917 5.761-2.692 2.655-3.18 2.23-7.909-.949-10.564-3.064-2.559-4.821-6.308-4.821-10.286s1.757-7.728 4.821-10.287c3.179-2.655 3.604-7.385.949-10.564-2.656-3.18-7.386-3.604-10.564-.949-6.486 5.417-10.206 13.363-10.206 21.799-.001 8.438 3.719 16.383 10.205 21.8z"/><path d="m455.825 73.058c-2.975-2.885-7.723-2.812-10.605.16-2.885 2.973-2.813 7.721.16 10.605 8.518 8.265 13.209 19.319 13.209 31.126 0 11.808-4.691 22.861-13.209 31.125-2.973 2.884-3.045 7.632-.16 10.605 1.471 1.516 3.426 2.277 5.384 2.277 1.881 0 3.765-.704 5.222-2.117 11.455-11.114 17.764-25.991 17.764-41.891s-6.309-30.775-17.765-41.89z"/><path d="m433.383 93.15c-3.178-2.654-7.908-2.231-10.563.949-2.655 3.179-2.231 7.909.948 10.564 3.063 2.559 4.821 6.309 4.821 10.287s-1.758 7.727-4.821 10.285c-3.18 2.655-3.605 7.385-.95 10.564 1.483 1.777 3.614 2.693 5.761 2.693 1.695 0 3.4-.571 4.803-1.743 6.487-5.417 10.208-13.362 10.208-21.8-.001-8.436-3.721-16.382-10.207-21.799z"/></g></svg>