<?xml version="1.0" encoding="utf-8"?>
<!-- Generator: Adobe Illustrator 16.0.0, SVG Export Plug-In . SVG Version: 6.00 Build 0)  -->
<!DOCTYPE svg PUBLIC "-//W3C//DTD SVG 1.1//EN" "http://www.w3.org/Graphics/SVG/1.1/DTD/svg11.dtd">
<svg version="1.1" id="Layer_5" xmlns="http://www.w3.org/2000/svg" xmlns:xlink="http://www.w3.org/1999/xlink" x="0px" y="0px"
	 width="512px" height="512px" viewBox="0 0 512 512" enable-background="new 0 0 512 512" xml:space="preserve">
<g>
	<path d="M256,360c57.344,0,104-46.655,104-104c0-57.344-46.656-104-104-104c-57.345,0-104,46.656-104,104
		C152,313.344,198.656,360,256,360z M256,168c8.6,0,17.76,12.216,24.071,32h-48.144C238.24,180.216,247.4,168,256,168z M284.152,216
		c1.952,9.672,3.265,20.424,3.681,32h-63.664c0.416-11.576,1.735-22.328,3.68-32H284.152z M343.592,248h-39.768
		c-0.368-11.352-1.473-22.104-3.272-32h33.736C339.296,225.768,342.56,236.56,343.592,248L343.592,248z M256,344
		c-8.601,0-17.761-12.216-24.072-32h48.144C273.76,331.784,264.6,344,256,344z M227.848,296c-1.952-9.672-3.264-20.424-3.68-32
		h63.664c-0.416,11.576-1.736,22.328-3.681,32H227.848z M303.823,264h39.769c-1.04,11.44-4.296,22.232-9.313,32h-33.735
		C302.352,286.104,303.464,275.352,303.823,264z M208.176,248h-39.769c1.04-11.439,4.297-22.231,9.313-32h33.736
		C209.648,225.896,208.536,236.648,208.176,248z M208.176,264c0.368,11.353,1.472,22.104,3.271,32h-33.735
		c-5.008-9.768-8.272-20.56-9.313-32H208.176z M188.168,312h26.992c2.943,10.36,6.703,19.377,11.128,26.729
		C211.296,333.328,198.144,324.056,188.168,312L188.168,312z M285.712,338.728c4.424-7.352,8.184-16.368,11.128-26.729h26.992
		C313.856,324.056,300.704,333.328,285.712,338.728z M323.832,200H296.84c-2.944-10.359-6.704-19.376-11.128-26.728
		C300.704,178.672,313.856,187.944,323.832,200z M226.288,173.272c-4.425,7.352-8.185,16.368-11.128,26.728h-26.992
		C198.144,187.944,211.296,178.672,226.288,173.272L226.288,173.272z"/>
	<path d="M424,120h-16c-4.408,0-8-3.584-8-8h-16c0,13.232,10.768,24,24,24v16h16v-16c13.231,0,24-10.768,24-24
		c0-13.231-10.769-24-24-24h-16c-4.408,0-8-3.584-8-8s3.592-8,8-8h16c4.407,0,8,3.584,8,8h16c0-13.231-10.769-24-24-24V40h-16v16
		c-13.232,0-24,10.769-24,24c0,13.232,10.768,24,24,24h16c4.407,0,8,3.584,8,8S428.407,120,424,120z"/>
	<path d="M416,184c48.52,0,88-39.479,88-88c0-48.52-39.48-88-88-88c-48.521,0-88,39.48-88,88C328,144.52,367.48,184,416,184z
		 M416,24c39.695,0,72,32.296,72,72s-32.305,72-72,72c-39.696,0-72-32.296-72-72S376.304,24,416,24z"/>
	<path d="M447.256,413.841C452.64,408.112,456,400.465,456,392v-5.575l8.472-12.704c4.92-7.393,7.528-15.992,7.528-24.88
		C472,324.12,451.88,304,427.159,304h-22.312C380.12,304,360,324.12,360,348.841c0,8.88,2.607,17.487,7.527,24.872L376,386.425V392
		c0,8.465,3.359,16.112,8.744,21.841C351.624,426.488,328,458.496,328,496v8h176v-8C504,458.496,480.376,426.488,447.256,413.841z
		 M404.84,320h22.312C443.064,320,456,332.936,456,348.841c0,3.792-0.809,7.487-2.232,10.952
		c-2.232-4.832-6.048-8.872-11.032-11.368L416,335.056l-26.736,13.368c-4.984,2.496-8.8,6.536-11.032,11.368
		c-1.424-3.465-2.231-7.152-2.231-10.952C376,332.936,388.936,320,404.84,320z M408,408c-8.824,0-16-7.176-16-16v-22.111
		c0-3.048,1.695-5.792,4.424-7.16L416,352.944l19.575,9.792c2.729,1.368,4.425,4.104,4.425,7.152V392c0,8.824-7.177,16-16,16H408z
		 M344.44,488C348.432,452.049,379,424,416,424s67.567,28.049,71.56,64H344.44z"/>
	<path d="M173.616,369.169l-30.784-30.784l-18.513,9.256L117.768,328H74.232L67.68,347.64l-18.512-9.256l-30.784,30.784l9.264,18.52
		L8,394.232v43.528l19.647,6.544l-9.264,18.52l30.784,30.784l18.512-9.256L74.232,504h43.528l6.552-19.64l18.513,9.256
		l30.783-30.784l-9.264-18.52L184,437.768V394.24l-19.648-6.544L173.616,369.169z M168,405.768v20.472l-18.384,6.128l-1.345,3.561
		c-0.384,1.016-0.784,2.016-1.224,3l-1.552,3.464l8.647,17.296l-14.472,14.472l-17.296-8.647l-3.464,1.552
		c-1,0.448-2.009,0.84-3.032,1.24l-3.528,1.352L106.232,488H85.76l-6.12-18.352l-3.528-1.352c-1.023-0.4-2.04-0.801-3.031-1.24
		l-3.464-1.552l-17.297,8.647L37.848,459.68l8.648-17.296l-1.553-3.464c-0.439-0.984-0.84-1.984-1.224-3l-1.344-3.561L24,426.232
		V405.76l18.384-6.128l1.344-3.561c0.384-1.016,0.784-2.016,1.225-3l1.552-3.464l-8.656-17.288l14.472-14.472l17.297,8.647
		l3.464-1.552c1-0.448,2.008-0.84,3.031-1.24l3.528-1.352l6.128-18.352h20.473l6.119,18.352l3.528,1.352
		c1.024,0.4,2.04,0.801,3.032,1.24l3.464,1.552l17.296-8.647l14.472,14.472l-8.647,17.296l1.552,3.464
		c0.44,0.984,0.84,1.984,1.224,3l1.345,3.561L168,405.768z"/>
	<path d="M96,376c-22.057,0-40,17.944-40,40c0,22.057,17.943,40,40,40c22.056,0,40-17.943,40-40C136,393.944,118.056,376,96,376z
		 M96,440c-13.232,0-24-10.768-24-24c0-13.231,10.768-24,24-24c13.231,0,24,10.769,24,24C120,429.232,109.232,440,96,440z"/>
	<path d="M168,8H8v144h160V8z M72,24h32v16H72V24z M152,136H24V24h32v32h64V24h32V136z"/>
	<path d="M408,200h16v88h-16V200z"/>
	<path d="M184,88h128v16H184V88z"/>
	<path d="M88,168h16v144H88V168z"/>
	<path d="M200,408h144v16H200V408z"/>
</g>
</svg>
