<?xml version="1.0" encoding="UTF-8"?>
<svg xmlns="http://www.w3.org/2000/svg" id="Outline" viewBox="0 0 512 512" width="512" height="512"><path d="M24,496H432a64,64,0,0,0,16-125.975V368h8a8,8,0,0,0,8-8V328a8,8,0,0,0-8-8h-8V304h8a8,8,0,0,0,8-8V264a8,8,0,0,0-8-8H384V40a8,8,0,0,0-8-8H333.953l1.71-5.7A8,8,0,0,0,328,16H296a8,8,0,0,0-7.59,5.47L284.9,32H115.1l-3.51-10.53A8,8,0,0,0,104,16H72a8,8,0,0,0-7.663,10.3L66.048,32H24a8,8,0,0,0-8,8V488A8,8,0,0,0,24,496Zm312-48V432h32a63.921,63.921,0,0,0,2.025,16Zm0-64V368h96a63.718,63.718,0,0,0-42.264,16Zm40.61,16a63.614,63.614,0,0,0-6.585,16H352V400ZM336,320V304h96v16Zm0-32h-8a8,8,0,0,0-8,8v32a8,8,0,0,0,8,8h8v16h-8a8,8,0,0,0-8,8v32a8,8,0,0,0,8,8h8v16h-8a8,8,0,0,0-8,8v24H64V96H85.248l3.089,10.3A8,8,0,0,0,96,112H304a8,8,0,0,0,7.663-5.7l3.09-10.3H336Zm16,192V464h24.61a64.437,64.437,0,0,0,13.126,16Zm128-48a48,48,0,1,1-48-48A48.054,48.054,0,0,1,480,432Zm-32-80H352V336h96Zm0-80v16H352V272ZM329.153,48H368V256H352V88a8,8,0,0,0-8-8H319.553Zm-49.586,0-5.333,16H125.766l-5.333-16ZM98.234,32l14.177,42.53A8,8,0,0,0,120,80H280a8,8,0,0,0,7.59-5.47L301.766,32h15.482l-19.2,64h-196.1l-19.2-64ZM32,48H70.848l9.6,32H56a8,8,0,0,0-8,8V456a8,8,0,0,0,8,8H336v16H32Z"/><path d="M160,160a8,8,0,0,0-8-8H104a8,8,0,0,0,0,16h16v56a8,8,0,0,0,16,0V168h16A8,8,0,0,0,160,160Z"/><path d="M176,232a8,8,0,0,0,8-8v-8h32v8a8,8,0,0,0,16,0V208a7.994,7.994,0,0,0-.845-3.578l-24-48a8,8,0,0,0-14.31,0l-24,48A7.991,7.991,0,0,0,168,208v16A8,8,0,0,0,176,232Zm24-54.111L211.056,200H188.944Z"/><path d="M300.24,153.216a8,8,0,0,0-11.024,2.544L276,176.905,262.784,155.76a8,8,0,0,0-13.568,8.48L266.566,192l-17.35,27.76a8,8,0,1,0,13.568,8.48L276,207.1l13.216,21.145a8,8,0,1,0,13.568-8.48L285.434,192l17.35-27.76A8,8,0,0,0,300.24,153.216Z"/><path d="M253.406,266.1a8,8,0,0,0-11.3.491l-88,96A8,8,0,1,0,165.9,373.406l88-96A8,8,0,0,0,253.406,266.1Z"/><path d="M192,288a24,24,0,1,0-24,24A24.027,24.027,0,0,0,192,288Zm-32,0a8,8,0,1,1,8,8A8.009,8.009,0,0,1,160,288Z"/><path d="M232,328a24,24,0,1,0,24,24A24.027,24.027,0,0,0,232,328Zm0,32a8,8,0,1,1,8-8A8.009,8.009,0,0,1,232,360Z"/><path d="M424,408v2.165A15.986,15.986,0,0,0,432,440h-8a8,8,0,0,0,0,16,8,8,0,0,0,16,0v-2.165A15.986,15.986,0,0,0,432,424h8a8,8,0,0,0,0-16,8,8,0,0,0-16,0Z"/></svg>
