<?xml version="1.0" encoding="utf-8"?>
<!-- Generator: Adobe Illustrator 16.0.0, SVG Export Plug-In . SVG Version: 6.00 Build 0)  -->
<!DOCTYPE svg PUBLIC "-//W3C//DTD SVG 1.1//EN" "http://www.w3.org/Graphics/SVG/1.1/DTD/svg11.dtd">
<svg version="1.1" id="Layer_1" xmlns="http://www.w3.org/2000/svg" xmlns:xlink="http://www.w3.org/1999/xlink" x="0px" y="0px"
	 width="512px" height="512px" viewBox="0 0 512 512" enable-background="new 0 0 512 512" xml:space="preserve">
<g id="_x30_44---Bank-Statement">
	<path id="Shape" d="M162.816,204.8c9.426,0,17.067-7.641,17.067-17.066v-17.066c0-9.426-7.642-17.066-17.067-17.066H60.416
		c-9.426,0-17.067,7.641-17.067,17.066v17.066c0,9.426,7.642,17.066,17.067,17.066H162.816z M60.416,170.667h102.399v17.066H60.416
		V170.667z"/>
	<path id="Shape_1_" d="M77.483,221.867c-14.139,0-25.6,11.461-25.6,25.6s11.461,25.601,25.6,25.601s25.6-11.462,25.6-25.601
		S91.621,221.867,77.483,221.867z M77.483,256c-4.713,0-8.533-3.82-8.533-8.533s3.82-8.533,8.533-8.533s8.533,3.82,8.533,8.533
		S82.196,256,77.483,256z"/>
	<path id="Shape_2_" d="M77.483,281.6c-14.139,0-25.6,11.461-25.6,25.6s11.461,25.601,25.6,25.601s25.6-11.462,25.6-25.601
		S91.621,281.6,77.483,281.6z M77.483,315.733c-4.713,0-8.533-3.82-8.533-8.533s3.82-8.533,8.533-8.533s8.533,3.82,8.533,8.533
		S82.196,315.733,77.483,315.733z"/>
	<path id="Shape_3_" d="M77.483,341.334c-14.139,0-25.6,11.461-25.6,25.6s11.461,25.601,25.6,25.601s25.6-11.462,25.6-25.601
		S91.621,341.334,77.483,341.334z M77.483,375.467c-4.713,0-8.533-3.82-8.533-8.533s3.82-8.533,8.533-8.533s8.533,3.82,8.533,8.533
		S82.196,375.467,77.483,375.467z"/>
	<path id="Shape_4_" d="M145.749,221.867c-14.139,0-25.6,11.461-25.6,25.6s11.461,25.601,25.6,25.601s25.6-11.462,25.6-25.601
		S159.888,221.867,145.749,221.867z M145.749,256c-4.713,0-8.533-3.82-8.533-8.533s3.82-8.533,8.533-8.533s8.533,3.82,8.533,8.533
		S150.462,256,145.749,256z"/>
	<path id="Shape_5_" d="M145.749,281.6c-14.139,0-25.6,11.461-25.6,25.6s11.461,25.601,25.6,25.601s25.6-11.462,25.6-25.601
		S159.888,281.6,145.749,281.6z M145.749,315.733c-4.713,0-8.533-3.82-8.533-8.533s3.82-8.533,8.533-8.533s8.533,3.82,8.533,8.533
		S150.462,315.733,145.749,315.733z"/>
	<path id="Shape_6_" d="M145.749,341.334c-14.139,0-25.6,11.461-25.6,25.6s11.461,25.601,25.6,25.601s25.6-11.462,25.6-25.601
		S159.888,341.334,145.749,341.334z M145.749,375.467c-4.713,0-8.533-3.82-8.533-8.533s3.82-8.533,8.533-8.533
		s8.533,3.82,8.533,8.533S150.462,375.467,145.749,375.467z"/>
	<path id="Shape_7_" d="M409.6,341.334c0,4.713,3.82,8.533,8.533,8.533s8.533-3.82,8.533-8.533
		c0-21.095-18.491-38.622-42.666-42.027v-9.173c0-4.713-3.82-8.533-8.533-8.533s-8.534,3.82-8.534,8.533v9.173
		c-24.175,3.414-42.666,20.933-42.666,42.027s18.491,38.622,42.666,42.026v50.927c-14.677-2.858-25.6-12.8-25.6-24.687
		c0-4.713-3.82-8.533-8.533-8.533s-8.533,3.82-8.533,8.533c0,21.095,18.491,38.622,42.666,42.026v9.174
		c0,4.713,3.821,8.533,8.534,8.533s8.533-3.82,8.533-8.533v-9.174c24.175-3.413,42.666-20.932,42.666-42.026
		S408.175,370.978,384,367.574v-50.928C398.677,319.506,409.6,329.438,409.6,341.334z M341.333,341.334
		c0-11.896,10.923-21.828,25.6-24.688v49.374C352.256,363.162,341.333,353.229,341.333,341.334L341.333,341.334z M409.6,409.6
		c0,11.896-10.923,21.828-25.6,24.687v-49.373C398.677,387.772,409.6,397.705,409.6,409.6L409.6,409.6z"/>
	<path id="Shape_8_" d="M324.267,248.986V179.2l114.952,51.405c25.814,11.546,56.102-0.021,67.648-25.835
		c11.546-25.814-0.021-56.102-25.835-67.648L324.267,67.012v-7.279c0.028-23.552,19.114-42.639,42.666-42.666
		c4.713,0,8.534-3.821,8.534-8.534S371.646,0,366.933,0H162.816c-32.974,0.038-59.695,26.76-59.733,59.733v59.733H34.816
		c-14.138,0-25.6,11.462-25.6,25.601v256c0,14.139,11.462,25.6,25.6,25.6h68.267v17.066H18.603
		c-5.05-0.025-9.849,2.194-13.099,6.059c-3.25,3.865-4.613,8.975-3.721,13.944C7.306,491.755,31.859,511.966,60.416,512h204.117
		c16.19-0.033,31.669-6.657,42.871-18.346c55.311,31.877,125.329,21.144,168.551-25.837c43.222-46.981,48.093-117.65,11.725-170.116
		C451.311,245.234,383.427,224.998,324.267,248.986L324.267,248.986z M256.546,116.522l17.673-39.355l18.713-0.213l-23.987,53.606
		L256.546,116.522z M221.944,77.269h33.536l-11.324,25.225L221.944,77.269z M293.052,118.528
		c50.842,22.732,47.667,21.641,50.219,21.641c4.028,0.004,7.511-2.81,8.354-6.749c0.842-3.939-1.186-7.932-4.863-9.575
		l-46.737-20.933l10.453-23.373l116.838,52.259l-10.444,23.364l-38.955-17.417c-2.783-1.243-6.019-0.908-8.487,0.881
		c-2.469,1.788-3.796,4.758-3.481,7.791c0.314,3.032,2.223,5.666,5.006,6.91l38.946,17.417l-10.453,23.372l-116.839-52.258
		L293.052,118.528z M458.47,145.766l-27.861,62.293l-15.582-6.963l27.87-62.293L458.47,145.766z M492.049,171.648
		c4.869,12.903,1.52,27.469-8.498,36.947s-24.746,12.02-37.36,6.444l27.87-62.293c8.256,3.661,14.725,10.446,17.988,18.867V171.648z
		 M26.282,401.067v-256c0-4.713,3.82-8.534,8.533-8.534h153.601c4.713,0,8.533,3.821,8.533,8.534v256
		c0,4.713-3.82,8.533-8.533,8.533H34.816C30.103,409.6,26.282,405.78,26.282,401.067z M18.603,460.851h186.88
		c1.878,12.965,7.985,24.946,17.374,34.082H60.416c-20.271,0.044-37.76-14.217-41.797-34.082H18.603z M222.362,458.479
		c-1.134-8.452-8.352-14.757-16.879-14.746H120.15v-17.066h68.267c14.139,0,25.6-11.461,25.6-25.6v-256
		c0-14.139-11.461-25.601-25.6-25.601H120.15V59.733c0.028-23.552,19.114-42.639,42.666-42.666H325.12
		C313.594,28.339,307.128,43.8,307.2,59.921c-0.324-0.079-0.651-0.142-0.981-0.188l-0.154,0.18H203.093
		c-3.36,0.095-6.367,2.109-7.734,5.181s-0.852,6.654,1.326,9.215c79.002,89.6,67.968,77.312,71.193,79.616l39.322,17.638v85.846
		c-39.572,22.779-65.094,63.877-67.965,109.447s17.288,89.546,53.688,117.113c-11.675,10.455-28.148,13.655-42.888,8.329
		c-14.739-5.325-25.362-18.315-27.658-33.818H222.362z M375.467,494.933c-48.32,0-91.882-29.106-110.373-73.748
		c-18.491-44.643-8.271-96.026,25.896-130.194c34.168-34.167,85.553-44.389,130.194-25.897s73.748,62.054,73.748,110.373
		C494.863,441.418,441.417,494.863,375.467,494.933L375.467,494.933z"/>
	<path id="Shape_9_" d="M298.769,320.094c-4.071-2.37-9.294-0.99-11.665,3.08c-16.972,29.324-18.661,65.061-4.531,95.855
		c1.203,2.878,3.882,4.871,6.985,5.195c3.103,0.325,6.136-1.069,7.909-3.637c1.773-2.566,2.004-5.897,0.603-8.685
		c-11.795-25.751-10.383-55.621,3.788-80.145C304.226,327.685,302.843,322.463,298.769,320.094L298.769,320.094z"/>
	<path id="Shape_10_" d="M452.164,320.094c-4.074,2.368-5.457,7.591-3.089,11.665c14.171,24.523,15.583,54.394,3.788,80.145
		c-1.401,2.787-1.171,6.118,0.603,8.685c1.773,2.567,4.807,3.962,7.909,3.638c3.104-0.325,5.782-2.318,6.985-5.196
		c14.13-30.795,12.44-66.531-4.531-95.855C461.458,319.104,456.237,317.725,452.164,320.094L452.164,320.094z"/>
</g>
</svg>
