<svg id="Capa_1" enable-background="new 0 0 512 512" height="512" viewBox="0 0 512 512" width="512" xmlns="http://www.w3.org/2000/svg"><g><path d="m160.408 101.544c-.026-.069-.053-.137-.081-.205-1.378-3.35-4.608-5.513-8.229-5.513-.003 0-.007 0-.01 0-3.625.004-6.855 2.175-8.227 5.53-.023.056-.045.112-.066.169l-24.097 63.269c-1.463 3.842.465 8.143 4.307 9.607 3.742 1.455 8.146-.427 9.607-4.307l4.175-10.963h28.44l4.129 10.941c1.452 3.846 5.746 5.789 9.593 4.337s5.788-5.747 4.337-9.593zm-16.95 42.699 8.615-22.619 8.536 22.619z"/><path d="m235.221 132.057 17.98-25.523c2.368-3.361 1.563-8.006-1.799-10.373-3.361-2.368-8.006-1.563-10.373 1.799l-14.908 21.162-14.884-21.158c-2.366-3.363-7.009-4.17-10.372-1.805-3.363 2.366-4.171 7.009-1.805 10.372l17.953 25.521-21.191 30.081c-2.368 3.361-1.563 8.006 1.799 10.373 1.303.918 2.799 1.359 4.281 1.359 2.339 0 4.643-1.1 6.092-3.158l18.119-25.721 18.091 25.717c1.45 2.06 3.754 3.161 6.095 3.161 1.48 0 2.975-.44 4.277-1.356 3.363-2.366 4.171-7.009 1.805-10.372z"/><path d="m75.243 109.691h10.204v56.729c0 4.111 3.333 7.444 7.444 7.444s7.444-3.333 7.444-7.444v-56.729h10.347c4.111 0 7.444-3.333 7.444-7.444s-3.333-7.444-7.444-7.444h-35.44c-4.111 0-7.444 3.333-7.444 7.444.001 4.111 3.334 7.444 7.445 7.444z"/><path d="m142.781 193.094c-3.791-1.59-8.154.193-9.745 3.983l-39.587 94.327c-1.591 3.791.192 8.154 3.983 9.745.941.395 1.917.582 2.878.582 2.908 0 5.671-1.716 6.867-4.566l39.587-94.327c1.592-3.79-.192-8.153-3.983-9.744z"/><path d="m117.671 215.888c0-15.313-11.186-27.771-24.936-27.771s-24.936 12.458-24.936 27.771 11.187 27.771 24.936 27.771 24.936-12.458 24.936-27.771zm-24.936 12.882c-5.446 0-10.048-5.899-10.048-12.882s4.601-12.882 10.048-12.882c5.446 0 10.047 5.899 10.047 12.882s-4.6 12.882-10.047 12.882z"/><path d="m146.199 252.611c-13.75 0-24.936 12.458-24.936 27.771 0 15.312 11.186 27.77 24.936 27.77s24.936-12.458 24.936-27.77c0-15.313-11.186-27.771-24.936-27.771zm0 40.652c-5.446 0-10.047-5.899-10.047-12.881s4.601-12.882 10.047-12.882 10.048 5.899 10.048 12.882-4.602 12.881-10.048 12.881z"/><path d="m446.267 94.803h-143.504c-4.111 0-7.444 3.333-7.444 7.444s3.333 7.444 7.444 7.444h143.504c4.111 0 7.444-3.333 7.444-7.444s-3.333-7.444-7.444-7.444z"/><path d="m363.355 125.252h-60.592c-4.111 0-7.444 3.333-7.444 7.444s3.333 7.444 7.444 7.444h60.592c4.111 0 7.444-3.333 7.444-7.444s-3.333-7.444-7.444-7.444z"/><path d="m241.359 205.888h-39.453c-4.111 0-7.444 3.333-7.444 7.444s3.333 7.444 7.444 7.444h39.453c4.111 0 7.444-3.333 7.444-7.444.001-4.111-3.332-7.444-7.444-7.444z"/><path d="m201.906 251.227h17.414c4.111 0 7.444-3.333 7.444-7.444s-3.333-7.444-7.444-7.444h-17.414c-4.111 0-7.444 3.333-7.444 7.444s3.333 7.444 7.444 7.444z"/><path d="m240.764 266.787h-38.858c-4.111 0-7.444 3.333-7.444 7.444s3.333 7.444 7.444 7.444h38.858c4.111 0 7.444-3.333 7.444-7.444.001-4.111-3.332-7.444-7.444-7.444z"/><path d="m451.62 275.966v-50.3c0-9.578-7.792-17.37-17.37-17.37h-65.932c-4.111 0-7.444 3.333-7.444 7.444s3.333 7.444 7.444 7.444h65.932c1.368 0 2.481 1.113 2.481 2.481v50.3c0 1.368-1.113 2.481-2.481 2.481h-123.496c-1.368 0-2.481-1.113-2.481-2.481v-50.3c0-1.368 1.113-2.481 2.481-2.481h21.429c4.111 0 7.444-3.333 7.444-7.444s-3.333-7.444-7.444-7.444h-21.429c-9.578 0-17.37 7.792-17.37 17.37v50.3c0 9.578 7.792 17.37 17.37 17.37h123.496c9.578 0 17.37-7.792 17.37-17.37z"/><path d="m414.342 267.108c4.111 0 7.444-3.333 7.444-7.444s-3.333-7.444-7.444-7.444h-25.683c-4.111 0-7.444 3.333-7.444 7.444s3.333 7.444 7.444 7.444z"/><path d="m364.172 326.954c0-7.936-6.457-14.393-14.393-14.393h-35.194c-7.936 0-14.393 6.457-14.393 14.393v27.42c0 7.936 6.457 14.393 14.393 14.393h35.194c7.936 0 14.393-6.457 14.393-14.393zm-14.888 26.924h-34.201v-26.428h34.201z"/><path d="m442.673 326.954c0-7.936-6.457-14.393-14.393-14.393h-35.194c-7.936 0-14.393 6.457-14.393 14.393v27.42c0 7.936 6.457 14.393 14.393 14.393h35.194c7.936 0 14.393-6.457 14.393-14.393zm-14.889 26.924h-34.201v-26.428h34.201z"/><path d="m349.78 384.028h-35.194c-7.936 0-14.393 6.457-14.393 14.393v27.42c0 7.936 6.457 14.393 14.393 14.393h35.194c7.936 0 14.393-6.457 14.393-14.393v-27.42c-.001-7.937-6.457-14.393-14.393-14.393zm-.496 41.316h-34.201v-26.428h34.201z"/><circle cx="332.183" cy="340.664" r="7.506"/><circle cx="410.683" cy="340.664" r="7.506"/><circle cx="332.183" cy="412.131" r="7.506"/><path d="m428.28 384.028h-35.194c-7.936 0-14.393 6.457-14.393 14.393v27.42c0 7.936 6.457 14.393 14.393 14.393h35.194c7.936 0 14.393-6.457 14.393-14.393v-27.42c0-7.937-6.457-14.393-14.393-14.393zm-.496 41.316h-34.201v-26.428h34.201z"/><circle cx="410.683" cy="412.131" r="7.506"/><path d="m462.37 28.359h-318.719c-4.111 0-7.444 3.333-7.444 7.444s3.333 7.444 7.444 7.444h318.719c19.156 0 34.741 15.584 34.741 34.741v239.117c0 11.267-5.538 21.668-14.392 28.109v-138.306c0-7.463-1.993-14.466-5.46-20.522v-108.397c0-8.21-6.679-14.889-14.889-14.889h-412.741c-8.21 0-14.889 6.679-14.889 14.889v239.117c0 8.21 6.679 14.889 14.889 14.889h212.656v19.852h-212.656c-19.156 0-34.741-15.584-34.741-34.741v-239.117c0-19.156 15.585-34.741 34.741-34.741h58.612c4.111 0 7.444-3.333 7.444-7.444s-3.333-7.444-7.444-7.444h-58.612c-27.366-.001-49.629 22.263-49.629 49.629v239.117c0 27.366 22.263 49.63 49.629 49.63h140.301v43.499h-11.233c-4.111 0-7.444 3.333-7.444 7.444s3.333 7.444 7.444 7.444h83.587v17.07c0 22.854 18.593 41.448 41.447 41.448h137.539c22.854 0 41.448-18.594 41.448-41.448v-14.342c0-4.111-3.333-7.444-7.444-7.444s-7.444 3.333-7.444 7.444v14.342c0 14.645-11.914 26.559-26.559 26.559h-137.538c-14.645 0-26.559-11.914-26.559-26.559v-235.285c0-14.645 11.914-26.559 26.559-26.559h137.539c14.645 0 26.559 11.914 26.559 26.559v184.564c0 4.111 3.333 7.444 7.444 7.444s7.444-3.333 7.444-7.444v-29.106c17.652-7.963 29.281-25.715 29.281-45.26v-239.117c0-27.366-22.264-49.63-49.63-49.63zm-257.55 381.875v-43.499h57.466v43.499zm236.451-244.774h-137.538c-22.854 0-41.447 18.594-41.447 41.448v110.198h-212.657v-239.117h412.741v93.264c-6.185-3.675-13.398-5.793-21.099-5.793z"/></g></svg>