<?xml version="1.0"?>
<svg xmlns="http://www.w3.org/2000/svg" viewBox="0 0 512 512" width="512" height="512"><g id="Accept"><path d="M112,464H72a8,8,0,0,0,0,16h40a8,8,0,0,0,0-16Z"/><path d="M144,464h-8a8,8,0,0,0,0,16h8a8,8,0,0,0,0-16Z"/><path d="M88,152H344a8,8,0,0,0,8-8V112a8,8,0,0,0-8-8H88a8,8,0,0,0-8,8v32A8,8,0,0,0,88,152Zm8-32H336v16H96Z"/><path d="M88,216H344a8,8,0,0,0,8-8V176a8,8,0,0,0-8-8H88a8,8,0,0,0-8,8v32A8,8,0,0,0,88,216Zm8-32H336v16H96Z"/><path d="M88,280H344a8,8,0,0,0,8-8V240a8,8,0,0,0-8-8H88a8,8,0,0,0-8,8v32A8,8,0,0,0,88,280Zm8-32H336v16H96Z"/><path d="M240,296H88a8,8,0,0,0,0,16H240a8,8,0,0,0,0-16Z"/><path d="M192,320H88a8,8,0,0,0,0,16H192a8,8,0,0,0,0-16Z"/><path d="M104,360a8,8,0,0,0,0-16H88a8,8,0,0,0,0,16Z"/><path d="M136,360a8,8,0,0,0,0-16h-8a8,8,0,0,0,0,16Z"/><path d="M480,384a96.127,96.127,0,0,0-88-95.664V80a8,8,0,0,0-2.343-5.657l-64-64A8,8,0,0,0,320,8H48a8,8,0,0,0-8,8V496a8,8,0,0,0,8,8H384a8,8,0,0,0,8-8V479.664A96.127,96.127,0,0,0,480,384ZM328,35.313,364.687,72H328ZM56,488V24H312V80a8,8,0,0,0,8,8h56V288.336a96,96,0,0,0,0,191.328V488Zm328-24a80,80,0,1,1,80-80A80.091,80.091,0,0,1,384,464Z"/><path d="M445.657,354.343a8,8,0,0,0-11.314,0L382.76,405.926,348.116,385.14a8,8,0,1,0-8.232,13.72l40,24a8,8,0,0,0,9.773-1.2l56-56A8,8,0,0,0,445.657,354.343Z"/></g></svg>
