<?xml version="1.0" encoding="utf-8"?>
<!-- Generator: Adobe Illustrator 16.0.0, SVG Export Plug-In . SVG Version: 6.00 Build 0)  -->
<!DOCTYPE svg PUBLIC "-//W3C//DTD SVG 1.1//EN" "http://www.w3.org/Graphics/SVG/1.1/DTD/svg11.dtd">
<svg version="1.1" id="Layer_1" xmlns="http://www.w3.org/2000/svg" xmlns:xlink="http://www.w3.org/1999/xlink" x="0px" y="0px"
	 width="512px" height="512px" viewBox="0 0 512 512" enable-background="new 0 0 512 512" xml:space="preserve">
<g id="Document">
	<path d="M472,80h-72V24c0-4.418-3.582-8-8-8H152c-4.419,0-8,3.582-8,8v24h-24c-4.419,0-8,3.582-8,8v24H40
		c-13.255,0-24,10.745-24,24v272c0,13.255,10.745,24,24,24h160v32h-32c-13.255,0-24,10.746-24,24v32c0,4.419,3.581,8,8,8h208
		c4.418,0,8-3.581,8-8v-32c0-13.254-10.745-24-24-24h-32v-32h160c13.254,0,24-10.745,24-24V104C496,90.745,485.254,80,472,80z
		 M400,120h56v192h-56V120z M160,32h224v280h-16V104c-0.001-2.121-0.844-4.156-2.345-5.655L318.4,51.048
		c-1.524-1.935-3.856-3.059-6.319-3.048H160V32z M320,75.312L340.688,96H320V75.312z M128,64h176v40c0,4.419,3.581,8,8,8h40v200H128
		V64z M56,312V120h56v192H56z M40,96h72v8H48c-4.419,0-8,3.582-8,8v208c0,4.419,3.581,8,8,8h416c4.418,0,8-3.581,8-8V112
		c0-4.418-3.582-8-8-8h-64v-8h72c4.418,0,8,3.582,8,8v232H32V104C32,99.582,35.581,96,40,96z M344,448c4.418,0,8,3.582,8,8v24H160
		v-24c0-4.418,3.581-8,8-8H344z M296,432h-80v-32h80V432z M472,384H40c-4.419,0-8-3.581-8-8v-24h448v24
		C480,380.419,476.418,384,472,384z"/>
	<path d="M440,360h-16c-4.419,0-8,3.582-8,8c0,4.419,3.581,8,8,8h16c4.418,0,8-3.581,8-8C448,363.582,444.418,360,440,360z"/>
	<path d="M168,144h8c4.418,0,8-3.581,8-8c0-4.418-3.582-8-8-8h-8c-4.419,0-8,3.582-8,8C160,140.419,163.581,144,168,144z"/>
	<path d="M208,144h104c4.418,0,8-3.581,8-8c0-4.418-3.582-8-8-8H208c-4.419,0-8,3.582-8,8C200,140.419,203.581,144,208,144z"/>
	<path d="M168,192h8c4.418,0,8-3.581,8-8c0-4.418-3.582-8-8-8h-8c-4.419,0-8,3.582-8,8C160,188.419,163.581,192,168,192z"/>
	<path d="M208,192h104c4.418,0,8-3.581,8-8c0-4.418-3.582-8-8-8H208c-4.419,0-8,3.582-8,8C200,188.419,203.581,192,208,192z"/>
	<path d="M168,240h8c4.418,0,8-3.581,8-8c0-4.418-3.582-8-8-8h-8c-4.419,0-8,3.582-8,8C160,236.419,163.581,240,168,240z"/>
	<path d="M208,240h104c4.418,0,8-3.581,8-8c0-4.418-3.582-8-8-8H208c-4.419,0-8,3.582-8,8C200,236.419,203.581,240,208,240z"/>
	<path d="M168,288h8c4.418,0,8-3.581,8-8c0-4.418-3.582-8-8-8h-8c-4.419,0-8,3.582-8,8C160,284.419,163.581,288,168,288z"/>
	<path d="M208,288h104c4.418,0,8-3.581,8-8c0-4.418-3.582-8-8-8H208c-4.419,0-8,3.582-8,8C200,284.419,203.581,288,208,288z"/>
</g>
</svg>
