<svg id="Layer_3" enable-background="new 0 0 64 64" height="512" viewBox="0 0 64 64" width="512" xmlns="http://www.w3.org/2000/svg"><g><path d="m13 58h2v2h-2z"/><path d="m45 41c1.103 0 2 .897 2 2h2c0-1.858-1.279-3.411-3-3.858v-2.142h-2v2.142c-1.721.447-3 2-3 3.858 0 2.206 1.794 4 4 4 1.103 0 2 .897 2 2s-.897 2-2 2-2-.897-2-2h-2c0 1.858 1.279 3.411 3 3.858v2.142h2v-2.142c1.721-.447 3-2 3-3.858 0-2.206-1.794-4-4-4-1.103 0-2-.897-2-2s.897-2 2-2z"/><path d="m23 28h-18c-.553 0-1 .448-1 1v27c0 .552.447 1 1 1h18c.553 0 1-.448 1-1v-27c0-.552-.447-1-1-1zm-1 27h-16v-25h16z"/><path d="m60 1h-40c-1.654 0-3 1.346-3 3v21h-13c-1.654 0-3 1.346-3 3v32c0 1.654 1.346 3 3 3h20c1.654 0 3-1.346 3-3v-29h33c1.654 0 3-1.346 3-3v-24c0-1.654-1.346-3-3-3zm-40 2h40c.552 0 1 .449 1 1v1h-42v-1c0-.551.448-1 1-1zm41 4v4h-42v-4zm-36 53c0 .551-.448 1-1 1h-20c-.552 0-1-.449-1-1v-32c0-.551.448-1 1-1h20c.552 0 1 .449 1 1zm35-31h-33v-1c0-1.654-1.346-3-3-3h-5v-12h42v15c0 .551-.448 1-1 1z"/><path d="m32 15h-10c-.553 0-1 .448-1 1v6c0 .552.447 1 1 1h10c.553 0 1-.448 1-1v-6c0-.552-.447-1-1-1zm-7 2v1h-2v-1zm-2 3h3c.553 0 1-.448 1-1v-2h1v4h-5zm8 1h-1v-4h1z"/><path d="m59 14h-12c-.553 0-1 .448-1 1v12c0 .552.447 1 1 1h12c.553 0 1-.448 1-1v-12c0-.552-.447-1-1-1zm-11 2h4v4h-4zm0 10v-4h5c.553 0 1-.448 1-1v-5h1v2h2v-2h1v6h-1v-2h-2v3c0 .552.447 1 1 1h2v2z"/><path d="m49 17h2v2h-2z"/><path d="m49 23h5v2h-5z"/><path d="m50 45h2v2h-2z"/><path d="m54 45h2v2h-2z"/><path d="m54 41h2v2h-2z"/><path d="m54 37h2v2h-2z"/><path d="m54 33h2v2h-2z"/><path d="m37 45h2v2h-2z"/><path d="m33 45h2v2h-2z"/><path d="m29 45h2v2h-2z"/></g></svg>