<?xml version="1.0"?>
<svg xmlns="http://www.w3.org/2000/svg" viewBox="0 0 512 512" width="512" height="512"><g id="_06-Coin" data-name="06-Coin"><g id="filled"><path d="M504.485,151.515l-64-64A12,12,0,0,0,420,96v20H396V48A44.049,44.049,0,0,0,352,4H160a44.049,44.049,0,0,0-44,44V308H92V288a12,12,0,0,0-20.485-8.485l-64,64a12,12,0,0,0,0,16.97l64,64C78.641,432.073,92.335,426.36,92,416V396h24v68a44.049,44.049,0,0,0,44,44H352a44.049,44.049,0,0,0,44-44V204h24v20c-.334,10.363,13.359,16.071,20.485,8.485l64-64A12,12,0,0,0,504.485,151.515ZM160,28H352a20.023,20.023,0,0,1,20,20V68H140V48A20.023,20.023,0,0,1,160,28ZM352,484H160a20.023,20.023,0,0,1-20-20V444H372v20A20.023,20.023,0,0,1,352,484Zm92-288.971V192a12,12,0,0,0-12-12H336a12,12,0,0,0,0,24h36V420H140V396h36a12,12,0,0,0,0-24H80a12,12,0,0,0-12,12v3.029L32.971,352,68,316.971V320a12,12,0,0,0,12,12h96a12,12,0,0,0,0-24H140V92H372v24H336a12,12,0,0,0,0,24h96a12,12,0,0,0,12-12v-3.029L479.029,160Z"/><path d="M240,204h40a12.013,12.013,0,0,1,12,12,12,12,0,0,0,24,0,36.04,36.04,0,0,0-36-36H268V160a12,12,0,0,0-24,0v20h-4a44,44,0,0,0,0,88h32a20,20,0,0,1,0,40H232a12.013,12.013,0,0,1-12-12,12,12,0,0,0-24,0,36.04,36.04,0,0,0,36,36h12v20a12,12,0,0,0,24,0V332h4a44,44,0,0,0,0-88H240a20,20,0,0,1,0-40Z"/></g></g></svg>
