<?xml version="1.0" encoding="utf-8"?>
<!-- Generator: Adobe Illustrator 16.0.0, SVG Export Plug-In . SVG Version: 6.00 Build 0)  -->
<!DOCTYPE svg PUBLIC "-//W3C//DTD SVG 1.1//EN" "http://www.w3.org/Graphics/SVG/1.1/DTD/svg11.dtd">
<svg version="1.1"
	 id="svg2" xmlns:cc="http://creativecommons.org/ns#" xmlns:rdf="http://www.w3.org/1999/02/22-rdf-syntax-ns#" xmlns:sodipodi="http://sodipodi.sourceforge.net/DTD/sodipodi-0.dtd" xmlns:dc="http://purl.org/dc/elements/1.1/" xmlns:inkscape="http://www.inkscape.org/namespaces/inkscape" xmlns:svg="http://www.w3.org/2000/svg"
	 xmlns="http://www.w3.org/2000/svg" xmlns:xlink="http://www.w3.org/1999/xlink" x="0px" y="0px" width="32px" height="32px"
	 viewBox="0 0 32 32" enable-background="new 0 0 32 32" xml:space="preserve">
<g id="layer1" transform="translate(0,-1020.3622)">
	<path id="path5603-8-2-9-77" d="M17.189,1021.745c-0.154-0.01-0.31-0.006-0.465,0.014v0.002c-1.24,0.155-2.289,1.16-3.086,2.59
		l-1.594,2.719c-0.151,0.231-0.087,0.541,0.144,0.692s0.541,0.087,0.692-0.144c0.009-0.014,0.017-0.028,0.025-0.042l1.596-2.719
		c0.002-0.004,0.004-0.008,0.006-0.012c0.709-1.277,1.581-1.999,2.34-2.094c0.758-0.095,1.596,0.336,2.449,1.84h0.002l2.324,4.793
		l-4.26-1.248c-0.262-0.088-0.545,0.053-0.633,0.315c-0.088,0.262,0.053,0.545,0.314,0.633c0.013,0.004,0.025,0.008,0.037,0.011
		l5.35,1.566c0.266,0.077,0.543-0.076,0.619-0.341c0.001-0.001,0.002-0.003,0.002-0.005l1.484-5.373
		c0.078-0.265-0.074-0.543-0.339-0.621c-0.053-0.016-0.108-0.022-0.163-0.02c-0.221,0.009-0.408,0.162-0.463,0.375l-1.133,4.102
		l-2.256-4.652c-0.004-0.009-0.009-0.017-0.014-0.025C19.328,1022.617,18.273,1021.817,17.189,1021.745z M16.779,1030.343
		c-4.143,0-7.48,3.37-7.48,7.5c0,4.132,3.337,7.5,7.48,7.5c4.143,0,7.521-3.364,7.521-7.5c-0.001-0.064-0.014-0.128-0.039-0.188
		C24.155,1033.613,20.855,1030.343,16.779,1030.343z M16.779,1031.343c3.602,0,6.521,2.909,6.521,6.5c0,3.592-2.92,6.5-6.521,6.5
		c-3.603,0-6.48-2.904-6.48-6.5C10.299,1034.248,13.176,1031.343,16.779,1031.343z M17.229,1033.327
		c-0.197,0-0.393,0.025-0.584,0.074c-0.766,0.2-1.438,0.771-1.912,1.605c-0.234,0.414-0.411,0.864-0.529,1.336h-0.979l-0.424,1h1.25
		c-0.026,0.333-0.026,0.668,0.002,1h-0.928l-0.426,1h1.516c0.118,0.459,0.289,0.901,0.518,1.305
		c0.474,0.835,1.146,1.408,1.912,1.607c0.766,0.199,1.603-0.01,2.275-0.58l0.381-0.324l-0.65-0.76l-0.379,0.324
		c-0.465,0.396-0.922,0.488-1.373,0.371c-0.452-0.117-0.924-0.478-1.295-1.131c-0.14-0.246-0.245-0.524-0.332-0.813h2.004l0.424-1
		h-2.623c-0.031-0.332-0.031-0.668-0.002-1h2.301l0.426-1h-2.539c0.088-0.3,0.197-0.587,0.342-0.842
		c0.371-0.653,0.843-1.015,1.295-1.133c0.451-0.118,0.908-0.024,1.373,0.373l0.379,0.324l0.65-0.76l-0.381-0.326
		c-0.336-0.287-0.713-0.482-1.102-0.58v0.002C17.624,1033.352,17.426,1033.327,17.229,1033.327z M7.129,1036.89
		c-0.017,0-0.034,0-0.051,0.002c-0.031,0.002-0.062,0.008-0.092,0.016l-5.396,1.402c-0.27,0.058-0.442,0.323-0.385,0.594
		c0.058,0.27,0.323,0.441,0.593,0.385c0.015-0.004,0.029-0.008,0.043-0.012l4.125-1.07l-2.902,4.277
		c-0.006,0.008-0.012,0.017-0.018,0.025c-0.988,1.681-1.061,3.156-0.305,4.154s2.155,1.404,3.797,1.377l3.141,0.021
		c0.276,0.006,0.504-0.214,0.51-0.49c0.005-0.275-0.214-0.504-0.49-0.51c-0.004,0-0.008,0-0.012,0l-3.152-0.021
		c-0.004,0-0.008,0-0.012,0c-1.461,0.023-2.523-0.373-2.984-0.982c-0.46-0.607-0.505-1.545,0.365-3.031l2.992-4.414l1.047,4.311
		c0.067,0.268,0.338,0.432,0.606,0.365c0.266-0.066,0.429-0.335,0.366-0.602l-1.318-5.414
		C7.545,1037.054,7.354,1036.897,7.129,1036.89z M27.418,1039.184v0.002c-0.276,0.004-0.496,0.231-0.492,0.508
		c0.002,0.101,0.033,0.199,0.092,0.281l1.781,2.6c0.002,0.004,0.004,0.006,0.006,0.01c0.854,1.186,1.136,2.281,0.898,3.008
		s-0.984,1.303-2.711,1.434l-5.318,0.061l2.938-3.318c0.187-0.203,0.173-0.52-0.031-0.707c-0.09-0.082-0.209-0.129-0.332-0.131
		c-0.147-0.002-0.289,0.063-0.385,0.174l-3.693,4.172c-0.184,0.207-0.165,0.522,0.041,0.706c0.002,0.001,0.004,0.003,0.006,0.005
		l4.232,3.631c0.211,0.178,0.526,0.151,0.705-0.06c0.176-0.209,0.152-0.521-0.055-0.7l-3.234-2.775l5.172-0.057
		c0.01,0,0.021,0,0.031,0c1.944-0.148,3.195-0.93,3.584-2.121c0.388-1.188-0.074-2.563-1.029-3.893l-0.004-0.01l-1.777-2.596
		C27.748,1039.266,27.588,1039.182,27.418,1039.184z"/>
</g>
</svg>
