<?xml version="1.0" encoding="UTF-8"?>
<svg xmlns="http://www.w3.org/2000/svg" id="Outline" viewBox="0 0 512 512" width="512" height="512"><path d="M392,168a8,8,0,0,0-8-8,8,8,0,0,0-16,0v2.165A15.986,15.986,0,0,0,376,192h-8a8,8,0,0,0,0,16,8,8,0,0,0,16,0v-2.165A15.986,15.986,0,0,0,376,176h8A8,8,0,0,0,392,168Z"/><path d="M480,273.009V40a24.028,24.028,0,0,0-24-24H296a24.028,24.028,0,0,0-24,24V216H240V136a24.028,24.028,0,0,0-24-24V96a8,8,0,0,0,8-8V24a8,8,0,0,0-8-8H32a8,8,0,0,0-8,8V88a8,8,0,0,0,8,8v23.337L16.108,214.685a8,8,0,0,0,1.62,6.281L32,238.991V472a24.028,24.028,0,0,0,24,24H216a24.028,24.028,0,0,0,24-24V328h32v48a24.028,24.028,0,0,0,24,24v16a8,8,0,0,0-8,8v64a8,8,0,0,0,8,8H480a8,8,0,0,0,8-8V424a8,8,0,0,0-8-8V392.663l15.892-95.348a8,8,0,0,0-1.62-6.281ZM328,32h96v8a8.009,8.009,0,0,1-8,8H336a8.009,8.009,0,0,1-8-8Zm-40,8a8.009,8.009,0,0,1,8-8h16v8a24.028,24.028,0,0,0,24,24h80a24.028,24.028,0,0,0,24-24V32h16a8.009,8.009,0,0,1,8,8V252.8L435.558,216.88a25.109,25.109,0,0,0-2.906-3.083,64.019,64.019,0,1,0-38.985,31.717l19.539,59.294A72.2,72.2,0,0,0,359.523,344H288V328h24a8,8,0,0,0,8-8V288a8,8,0,0,0-8-8H288v-4.155l37-29.6a8,8,0,0,0,0-12.494l-37-29.6ZM424,184a47.772,47.772,0,0,1-6.117,23.459,25.086,25.086,0,0,0-27.031,22.2A48.01,48.01,0,1,1,424,184ZM280,232a8,8,0,0,0,7.976-7.374L307.193,240l-19.217,15.374A8,8,0,0,0,280,248H208V232Zm-44.534,32.79a7.993,7.993,0,0,0-8.464.963L190.7,294.8a63.977,63.977,0,0,0-72.362-28.312L98.794,207.192A72.2,72.2,0,0,0,152.477,168H224v48H200a8,8,0,0,0-8,8v32a8,8,0,0,0,8,8h72v16H240v-8A8,8,0,0,0,235.466,264.79ZM184,328a48,48,0,1,1-89.89-23.447c.69.057,1.381.1,2.075.1a25.139,25.139,0,0,0,24.963-22.31A48.047,48.047,0,0,1,184,328Zm40-192v16H158.2a71.944,71.944,0,0,0,1.8-16v-8h56A8.009,8.009,0,0,1,224,136ZM40,32H208V80H40ZM32.475,213.815l15.417-92.5A8.045,8.045,0,0,0,48,120V96H200v16H152a8,8,0,0,0-8,8v16a56.063,56.063,0,0,1-56,56,8,8,0,0,0-7.6,10.5l24.436,74.148a9.142,9.142,0,0,1-15.851,8.536ZM184,480H88v-8a8.009,8.009,0,0,1,8-8h80a8.009,8.009,0,0,1,8,8Zm40-8a8.009,8.009,0,0,1-8,8H200v-8a24.028,24.028,0,0,0-24-24H96a24.028,24.028,0,0,0-24,24v8H56a8.009,8.009,0,0,1-8-8V259.2L76.442,295.12a25.131,25.131,0,0,0,2.9,3.087,64.036,64.036,0,1,0,120.169,22.051L224,339.845Zm8-160a8,8,0,0,0-7.976,7.374L204.807,304l19.217-15.374A8,8,0,0,0,232,296h72v16Zm56,64V360h65.8a71.944,71.944,0,0,0-1.8,16v8H296A8.009,8.009,0,0,1,288,376ZM472,480H304V432H472Zm-7.892-89.314A8.045,8.045,0,0,0,464,392v24H312V400h48a8,8,0,0,0,8-8V376a56.063,56.063,0,0,1,56-56,8,8,0,0,0,7.6-10.5l-24.436-74.148a9.142,9.142,0,0,1,15.851-8.536l56.512,71.373Z"/><path d="M152,312a8,8,0,0,0-8-8,8,8,0,0,0-16,0v2.165A15.986,15.986,0,0,0,136,336h-8a8,8,0,0,0,0,16,8,8,0,0,0,16,0v-2.165A15.986,15.986,0,0,0,136,320h8A8,8,0,0,0,152,312Z"/></svg>
