<svg height="512" viewBox="0 0 60 51" width="512" xmlns="http://www.w3.org/2000/svg"><g id="Page-1" fill="none" fill-rule="evenodd"><g id="039---Tape-Measure" fill="rgb(0,0,0)" fill-rule="nonzero" transform="translate(0 -1)"><path id="Shape" d="m18.118 12.476c.3539356-.0796449.636976-.3447323.7396106-.6926975.1026346-.3479653.0087636-.7242251-.2452935-.9832013-.2540571-.2589763-.6284478-.3600447-.9783171-.2641012-8.01876226 1.9952407-13.64403736 9.200742-13.634 17.464 0 .5522847.44771525 1 1 1s1-.4477153 1-1c-.00885335-7.3448226 4.9907219-13.7496258 12.118-15.524z"/><path id="Shape" d="m57 34h-13v-6c.0081891-4.4510026-1.3442204-8.7981827-3.876-12.459l.543-6.765c.0787087-.97540828-.3232644-1.92790149-1.077-2.552-2.8907887-2.35295862-6.2282223-4.09600318-9.811-5.124-1.0234151-.28207876-2.1196033.00216053-2.877.746l-4.308 4.183c-.194-.005-.394-.029-.594-.029-12.14455323.01377716-21.98622284 9.8554468-22 22v18c.00330738 3.3123376 2.68766243 5.9966926 6 6h31c3.4765822-.0040745 6.4233474-2.5590733 6.92-6h9.08v3c0 1.6568542 1.3431458 3 3 3h1c1.6568542 0 3-1.3431458 3-3v-12c0-1.6568542-1.3431458-3-3-3zm-28.7-30.726c.2428734-.24526973.5984424-.34179223.932-.253 3.3207684.95453885 6.4141339 2.57095329 9.094 4.752.245675.20971996.3749187.52519386.347.847l-.373 4.642c-.248-.273-.481-.557-.743-.819-3.3331875-3.3401926-7.6594925-5.50966085-12.33-6.183zm-16.3 46.726h-6c-2.209139 0-4-1.790861-4-4v-9c0-.5522847.44771525-1 1-1h.769c.3653792.0000981.70161799.1994643.877.52 2.01628082 3.7533894 5.08584433 6.8354662 8.831 8.867.3226393.172101.5238384.5083305.523.874v2.739c0 .5522847-.4477153 1-1 1zm30-5c-.0033061 2.7600532-2.2399468 4.9966939-5 5h-21.184c.1184378-.320257.1806856-.6585603.184-1v-2.739c.0054617-1.116077-.6158642-2.1408011-1.608-2.652-3.3782065-1.8649037-6.15157266-4.6583968-7.992-8.05-.52640942-.9612207-1.53507476-1.5589057-2.631-1.559h-.769c-.34143967.0033144-.67974302.0655622-1 .184v-6.184c0-11.045695 8.954305-20 20-20s20 8.954305 20 20zm2-1v-8h3v2c0 .5522847.4477153 1 1 1s1-.4477153 1-1v-2h4v8zm14 5c0 .5522847-.4477153 1-1 1h-1c-.5522847 0-1-.4477153-1-1v-13h2c.5522847 0 1 .4477153 1 1z"/><circle id="Oval" cx="22" cy="11" r="1"/><path id="Shape" d="m32 44c0 2.209139 1.790861 4 4 4s4-1.790861 4-4-1.790861-4-4-4-4 1.790861-4 4zm6 0c0 1.1045695-.8954305 2-2 2s-2-.8954305-2-2 .8954305-2 2-2 2 .8954305 2 2z"/><path id="Shape" d="m22 18c-6.0751322 0-11 4.9248678-11 11s4.9248678 11 11 11 11-4.9248678 11-11c-.0071635-6.0721626-4.9278374-10.9928365-11-11zm0 20c-4.9705627 0-9-4.0294373-9-9s4.0294373-9 9-9 9 4.0294373 9 9c-.0055111 4.9682782-4.0317218 8.9944889-9 9z"/></g></g></svg>