<?xml version="1.0" encoding="utf-8"?>
<!-- Generator: Adobe Illustrator 16.0.0, SVG Export Plug-In . SVG Version: 6.00 Build 0)  -->
<!DOCTYPE svg PUBLIC "-//W3C//DTD SVG 1.1//EN" "http://www.w3.org/Graphics/SVG/1.1/DTD/svg11.dtd">
<svg version="1.1" id="Rulers" xmlns="http://www.w3.org/2000/svg" xmlns:xlink="http://www.w3.org/1999/xlink" x="0px" y="0px"
	 width="512px" height="512px" viewBox="0 0 512 512" enable-background="new 0 0 512 512" xml:space="preserve">
<g id="Rulers_1_">
	<g>
		<g>
			<path d="M288.878,365.541H142.237V66.1h-6h-29.435H61.877v379.8h9.041h71.318h146.642V365.541z M276.878,377.541v10.895H142.237
				v-10.895H276.878z M142.237,400.435h134.642v10.571H142.237V400.435z M106.803,78.1h23.435v56.962h-11.791v12h11.791v10.986
				h-23.435v12h0.358v0.358h23.075v12.278h-11.791v12h11.791v12.276h-23.435v12h23.435v9.52h-11.791v12h11.791V250h-23.435v12
				h23.435v10.987h-11.791v12h11.791v10.987h-23.435v12h23.435v10.988h-11.791v12h11.791v10.986h-23.435v12h23.435v15.12
				L73.877,425.9V78.1H106.803z M82.844,433.9l47.394-47.789V433.9H82.844z M142.237,433.9v-10.895h134.642V433.9H142.237z"/>
			<path d="M102.058,121.853c9.405,0,17.059-7.652,17.059-17.059c0-9.405-7.652-17.058-17.059-17.058S85,95.389,85,104.795
				S92.652,121.853,102.058,121.853z M102.058,99.737c2.789,0,5.059,2.269,5.059,5.058c0,2.788-2.27,5.059-5.059,5.059
				S97,107.583,97,104.795C97,102.006,99.269,99.737,102.058,99.737z"/>
		</g>
		<path d="M401.81,113.619L212.525,302.903l48.313,48.313l189.283-189.284L401.81,113.619z M229.496,302.903l12.583-12.583
			l8.524,8.525l8.484-8.486l-8.524-8.524l7.195-7.194l16.912,16.912l8.483-8.485l-16.911-16.912l7.395-7.394l8.437,8.435
			l8.483-8.484l-8.436-8.435l7.556-7.556l16.571,16.57l8.483-8.484l-16.569-16.57l6.729-6.73l8.337,8.338l8.486-8.485l-8.338-8.338
			l6.729-6.73l16.571,16.571l8.484-8.485l-16.57-16.57l7.77-7.771l8.339,8.338l8.483-8.484l-8.338-8.337l7.771-7.771l16.57,16.571
			l8.484-8.485l-16.57-16.57l7.771-7.771l8.338,8.338l8.483-8.485l-8.338-8.338l7.771-7.77l16.57,16.571l8.484-8.486l-16.57-16.57
			l8.195-8.195l31.343,31.344L260.839,334.246L229.496,302.903z"/>
		<g>
			<path d="M213.951,114.681v88.692l88.691-88.692H213.951z M225.951,126.681h47.722l-47.722,47.722V126.681z"/>
			<path d="M202.011,77.196h-18.203h-6v212.991L390.799,77.196H202.011z M189.808,239.957h8.888v-12h-8.888v-9.537h15.991v-12
				h-15.991v-9.537h8.888v-12h-8.888v-9.537h15.991v-12h-15.991v-9.537h8.888v-12h-8.888v-9.537h15.991v-12h-15.991v-9.537h8.888
				v-12h-8.888v-9.537h12.203h159.817l-172.021,172.02V239.957z"/>
		</g>
	</g>
</g>
</svg>
