<?xml version="1.0" encoding="utf-8"?>
<!-- Generator: Adobe Illustrator 16.0.0, SVG Export Plug-In . SVG Version: 6.00 Build 0)  -->
<!DOCTYPE svg PUBLIC "-//W3C//DTD SVG 1.1//EN" "http://www.w3.org/Graphics/SVG/1.1/DTD/svg11.dtd">
<svg version="1.1" id="Layer_1_copy" xmlns="http://www.w3.org/2000/svg" xmlns:xlink="http://www.w3.org/1999/xlink" x="0px"
	 y="0px" width="512px" height="512px" viewBox="0 0 512 512" enable-background="new 0 0 512 512" xml:space="preserve">
<path d="M280,432h-24c-4.419,0-8,3.582-8,8c0,4.419,3.581,8,8,8h24c4.418,0,8-3.581,8-8C288,435.582,284.418,432,280,432z"/>
<path d="M280,480h-24c-4.419,0-8,3.582-8,8c0,4.419,3.581,8,8,8h24c4.418,0,8-3.581,8-8C288,483.582,284.418,480,280,480z"/>
<path d="M8,416L8,416c-0.065,0.585-0.065,1.176,0,1.761l16,72c0.838,3.721,4.187,6.333,8,6.239h104c3.813,0.094,7.162-2.519,8-6.239
	l16-72c0.064-0.585,0.064-1.176,0-1.761l0,0c-0.852-36.239-28.045-66.425-64-71.039V208h11.04l13.76,27.521
	c1.844,4.015,6.594,5.774,10.608,3.931c4.016-1.845,5.775-6.594,3.932-10.609c-0.069-0.149-0.143-0.297-0.22-0.441L124.96,208
	h30.319l37.681,67.92c2.139,3.866,7.007,5.267,10.873,3.127c1.315-0.728,2.398-1.812,3.127-3.127L244.72,208H304l-84,112h-39.04
	l-33.76-67.6c-2.089-3.894-6.938-5.357-10.831-3.27c-3.726,1.998-5.254,6.549-3.489,10.39l36,72c1.333,2.722,4.09,4.456,7.12,4.479
	h15.359L184,430.56l-16,55.2c-0.105,0.743-0.105,1.497,0,2.239v16c0,4.419,3.581,8,8,8c4.418,0,8-3.581,8-8v-14.88l16-54.96
	c0.053-0.531,0.053-1.067,0-1.6L207.44,336H224c2.518,0,4.889-1.186,6.399-3.199L312,224v104c0,4.419,3.581,8,8,8
	c4.418,0,8-3.581,8-8V208h88v136.961c-35.955,4.614-63.148,34.8-64,71.039l0,0c-0.065,0.585-0.065,1.176,0,1.761l16,72
	c0.838,3.721,4.187,6.333,8,6.239h104c3.813,0.094,7.161-2.519,8-6.239l16-72c0.064-0.585,0.064-1.176,0-1.761l0,0
	c-0.97-39.355-32.645-71.03-72-72V206.4l65.76-14.4c4.418-0.949,7.229-5.302,6.279-9.72c-0.949-4.418-5.301-7.229-9.72-6.28
	l-71.12,16H336v-32c0-4.418-3.582-8-8-8c-4.419,0-8,3.582-8,8v32h-32v-72c-0.02-15.061-6.104-29.479-16.88-40H280
	c22.091,0,40,17.909,40,40v8c0,4.419,3.581,8,8,8c4.418,0,8-3.581,8-8v-8c-0.02-15.061-6.104-29.479-16.88-40H368
	c4.418-0.026,7.979-3.629,7.952-8.047c-0.018-2.985-1.695-5.712-4.353-7.073l-128-64c-2.351-1.251-5.169-1.251-7.52,0l-112,64
	c-3.936,2.01-5.496,6.828-3.487,10.764c1.413,2.768,4.302,4.466,7.407,4.356h64v24c-0.007,24.771,16.262,46.603,40,53.681V192H88.88
	l-71.12-16c-4.418-0.949-8.771,1.862-9.72,6.28c-0.95,4.418,1.861,8.771,6.279,9.72L80,206.4V344
	C40.644,344.969,8.969,376.644,8,416z M473.6,480h-91.2l-12.479-56H486L473.6,480z M487.36,408H368.72
	c6.95-32.761,39.142-53.686,71.903-46.736C464.07,366.237,482.386,384.554,487.36,408z M200,255.52L173.6,208h52.8L200,255.52z
	 M240,17.04L334.08,64h-176L240,17.04z M208,104V80h24c22.091,0,40,17.909,40,40v24h-24C225.908,144,208,126.092,208,104z M272,160
	v32h-24v-32H272z M143.28,408H112c-4.419,0-8,3.582-8,8c0,4.419,3.581,8,8,8h30l-12.4,56H38.4L26,424h54c4.418,0,8-3.581,8-8
	c0-4.418-3.582-8-8-8H24.72c5.325-28.366,30.427-48.691,59.28-48C112.854,359.308,137.955,379.634,143.28,408z"/>
<path d="M320,352c-4.419,0-8,3.582-8,8v144c0,4.419,3.581,8,8,8c4.418,0,8-3.581,8-8V360C328,355.582,324.418,352,320,352z"/>
<path d="M448,456h16c4.418,0,8-3.581,8-8c0-4.418-3.582-8-8-8h-16c-4.419,0-8,3.582-8,8C440,452.419,443.581,456,448,456z"/>
<path d="M400,456h16c4.418,0,8-3.581,8-8c0-4.418-3.582-8-8-8h-16c-4.419,0-8,3.582-8,8C392,452.419,395.581,456,400,456z"/>
</svg>
