<?xml version="1.0" encoding="utf-8"?>
<!-- Generator: Adobe Illustrator 16.0.0, SVG Export Plug-In . SVG Version: 6.00 Build 0)  -->
<!DOCTYPE svg PUBLIC "-//W3C//DTD SVG 1.1//EN" "http://www.w3.org/Graphics/SVG/1.1/DTD/svg11.dtd">
<svg version="1.1" id="Layer_1" xmlns="http://www.w3.org/2000/svg" xmlns:xlink="http://www.w3.org/1999/xlink" x="0px" y="0px"
	 width="841.889px" height="595.281px" viewBox="0 0 841.889 595.281" enable-background="new 0 0 841.889 595.281"
	 xml:space="preserve">
<g id="Layer_1_1_">
	<path d="M705.275,268.888l-50.85-16.812c-2.095-10.81-4.952-21.478-8.5-31.823l35.692-40.026l-3.477-7.18
		c-6.023-12.417-13.024-24.514-20.787-35.931l-4.477-6.584L600.6,141.415c-7.25-8.334-15.107-16.18-23.43-23.442l10.882-52.277
		l-6.584-4.477c-11.465-7.798-23.562-14.787-35.919-20.775l-7.168-3.477l-40.05,35.705c-10.37-3.56-21.025-6.405-31.824-8.5
		l-16.822-50.85l-7.93-0.583c-13.751-1-27.858-1-41.609,0l-7.941,0.571l-16.822,50.861c-10.799,2.095-21.454,4.94-31.823,8.5
		L303.52,36.967l-7.179,3.488c-12.43,6.049-24.525,13.037-35.92,20.788l-6.583,4.488l10.881,52.266
		c-8.333,7.25-16.18,15.107-23.43,23.43l-52.266-10.869l-4.477,6.583c-7.774,11.43-14.774,23.514-20.799,35.932l-3.477,7.179
		l35.692,40.003c-3.548,10.346-6.393,21.002-8.488,31.824l-50.849,16.811l-0.584,7.94c-0.5,6.894-0.833,13.799-0.833,20.812
		c0,7.012,0.333,13.918,0.833,20.811l0.572,7.941l50.849,16.811c2.096,10.811,4.952,21.478,8.5,31.824l-35.692,40.026l3.477,7.179
		c6.024,12.418,13.024,24.514,20.787,35.932l4.477,6.584l52.277-10.882c7.25,8.334,15.108,16.18,23.43,23.442l-10.881,52.277
		l6.583,4.477c11.466,7.798,23.562,14.786,35.92,20.775l7.167,3.476l40.038-35.681c10.37,3.56,21.025,6.405,31.824,8.501
		l16.822,50.849l7.941,0.571c6.881,0.488,13.81,0.821,20.811,0.821s13.93-0.333,20.811-0.833l7.941-0.571l16.811-50.85
		c10.822-2.095,21.478-4.94,31.824-8.5l40.038,35.705l7.18-3.488c12.429-6.049,24.525-13.037,35.919-20.788l6.584-4.488
		l-10.882-52.266c8.334-7.25,16.18-15.107,23.43-23.43l52.266,10.87l4.477-6.584c7.774-11.43,14.775-23.514,20.799-35.932
		l3.477-7.179l-35.704-40.015c3.548-10.347,6.405-21.014,8.5-31.824l50.849-16.811l0.572-7.941
		c0.512-6.893,0.845-13.799,0.845-20.811c0-7.013-0.333-13.918-0.833-20.812L705.275,268.888z M682.582,308.807l-49.229,16.275
		l-1.167,7.132c-2.286,14.132-5.988,28.002-11.001,41.217l-2.56,6.751l34.515,38.717c-3.441,6.571-7.155,13.001-11.144,19.251
		l-50.563-10.524l-4.571,5.584c-9.061,11.072-19.275,21.275-30.348,30.348l-5.584,4.571l10.524,50.575
		c-6.238,3.964-12.667,7.69-19.239,11.144l-38.717-34.526l-6.751,2.571c-13.227,5.013-27.085,8.703-41.205,11.001l-7.132,1.167
		l-16.274,49.229c-7.405,0.369-14.941,0.369-22.347,0l-16.287-49.229l-7.132-1.167c-14.084-2.274-27.942-5.988-41.217-11.013
		l-6.75-2.548l-38.729,34.503c-6.536-3.417-12.977-7.155-19.239-11.145l10.524-50.563l-5.584-4.572
		c-11.06-9.06-21.275-19.263-30.335-30.347l-4.572-5.596l-50.574,10.536c-3.977-6.25-7.703-12.68-11.145-19.251l34.515-38.718
		l-2.56-6.75c-5.013-13.215-8.715-27.085-11.001-41.217l-1.167-7.132l-49.229-16.275c-0.179-3.69-0.285-7.417-0.285-11.167
		c0-3.751,0.106-7.477,0.285-11.168l49.23-16.274l1.166-7.132c2.286-14.144,5.989-28.014,11.001-41.217l2.56-6.751l-34.514-38.717
		c3.44-6.572,7.155-13.001,11.144-19.251l50.563,10.524l4.572-5.584c9.06-11.072,19.274-21.275,30.347-30.348l5.584-4.571
		l-10.524-50.575c6.238-3.965,12.668-7.691,19.239-11.144l38.717,34.515l6.751-2.548c13.274-5.024,27.145-8.728,41.217-11.013
		l7.132-1.167l16.274-49.229c7.405-0.369,14.941-0.369,22.347,0l16.287,49.229l7.132,1.167c14.084,2.273,27.942,5.988,41.217,11.013
		l6.751,2.548l38.729-34.503c6.536,3.417,12.978,7.155,19.239,11.144l-10.524,50.563l5.584,4.571
		c11.061,9.061,21.275,19.264,30.336,30.348l4.571,5.596l50.575-10.536c3.977,6.25,7.703,12.679,11.144,19.251l-34.515,38.717
		l2.56,6.751c5.013,13.215,8.716,27.085,11.001,41.217l1.167,7.132l49.229,16.274c0.167,3.691,0.273,7.417,0.273,11.168
		C682.867,301.39,682.761,305.117,682.582,308.807z"/>
	<path d="M420.945,178.584c-103.412,0-184.715,107.365-188.12,111.937l-5.322,7.12l5.311,7.119
		c3.417,4.572,84.72,111.937,188.132,111.937S605.66,309.332,609.065,304.76l5.322-7.119l-5.31-7.12
		C605.66,285.949,524.357,178.584,420.945,178.584z M420.945,392.885c-77.041,0-143.771-72.018-163.285-95.245
		c19.525-23.229,86.256-95.245,163.285-95.245s143.772,72.017,163.285,95.245C564.717,320.868,497.986,392.885,420.945,392.885z"/>
	<path d="M420.945,226.207c-39.396,0-71.434,32.038-71.434,71.434s32.038,71.434,71.434,71.434s71.434-32.038,71.434-71.434
		S460.34,226.207,420.945,226.207z M420.945,345.262c-26.264,0-47.622-21.358-47.622-47.622s21.358-47.623,47.622-47.623
		s47.622,21.359,47.622,47.623S447.208,345.262,420.945,345.262z"/>
</g>
</svg>
