<svg id="Layer_1" enable-background="new 0 0 511.957 511.957" height="512" viewBox="0 0 511.957 511.957" width="512" xmlns="http://www.w3.org/2000/svg"><g><path d="m456.367 262.925c-5.275-5.278-12.374-8.111-19.826-7.94.167-7.159-2.475-14.373-7.924-19.825l-227.332-227.129c-10.323-10.329-27.794-10.567-38.196-.16l-155.126 155.206c-10.572 10.577-10.572 27.788 0 38.365l10.957 10.962c2.929 2.93 7.677 2.93 10.607.002 2.929-2.928 2.931-7.677.002-10.606l-10.957-10.962c-4.728-4.73-4.728-12.427 0-17.158l155.126-155.206c4.691-4.693 12.342-4.478 16.981.164l11.534 11.524-12.056 84.508c-3.899 3.582-6.468 9.034-8.832 14.051-4.487 9.523-5.788 10.66-16.448 8.597-22.375-4.33-31.927 5.288-27.605 27.597 2.026 10.465.561 12.121-8.602 16.432-19.763 9.304-22.076 22.607-5.872 37.79 7.704 7.218 8.255 8.81 2.964 18.377-10.748 19.436-4.381 31.475 17.022 34.175 10.759 1.357 12.442 2.79 13.836 13.827.868 6.877 1.832 14.507 6.423 19.215l-3.827 26.826-101.827-101.882c-2.929-2.93-7.677-2.931-10.606-.003-2.93 2.928-2.931 7.677-.003 10.606l188.359 188.456c5.267 5.279 12.372 8.119 19.825 7.94-.167 7.158 2.473 14.369 7.92 19.819l47.515 47.56c10.366 10.372 27.966 10.395 38.356 0l116.751-116.812c6.855-6.858-3.756-17.464-10.609-10.604l-116.752 116.814c-4.675 4.677-12.461 4.678-17.136.001l-47.515-47.56c-4.728-4.73-4.728-12.427 0-17.157 6.856-6.858-3.756-17.464-10.609-10.604-4.511 4.704-12.625 4.704-17.137 0l-19.749-19.76c.045-.359 12.046-84.285 12.073-84.605 3.954-3.58 6.546-9.081 8.931-14.14 4.487-9.524 5.789-10.66 16.448-8.598 22.164 4.289 31.899-5.428 27.605-27.597-2.027-10.466-.56-12.12 8.602-16.433 19.764-9.302 22.075-22.607 5.872-37.789-7.705-7.217-8.255-8.811-2.964-18.378 10.748-19.436 4.38-31.474-17.023-34.174-10.758-1.358-12.443-2.789-13.836-13.827-.872-6.903-1.839-14.562-6.473-19.266l3.804-26.639 148.975 148.842c4.728 4.73 4.728 12.427 0 17.158-6.856 6.858 3.754 17.462 10.609 10.604 4.511-4.704 12.626-4.703 17.136-.001l47.515 47.56c4.728 4.73 4.728 12.427 0 17.157l-11.052 11.058c-2.928 2.93-2.927 7.678.003 10.606 3.536 2.928 7.071 2.927 10.606-.003l11.052-11.058c10.572-10.577 10.572-27.787.001-38.363zm-278.69 45.452c4.505-1.081 8.969-3.547 13.129-5.845 9.396-5.19 11.436-4.459 18.397 2.963 3.956 4.217 8.266 8.813 13.341 10.945l-9.8 68.637-40.261-40.291zm105.987-136.838c3.518.263 6.948.955 10.289 2.074-1.062 3.518-2.567 6.838-4.515 9.959-8.408 15.202-7.028 24.533 5.834 36.584 2.791 2.342 5.224 5.006 7.299 7.993-2.869 2.162-5.97 3.922-9.302 5.278-15.799 7.437-20.384 15.072-16.94 32.856 2.134 11.02 1.562 12.261-10.03 10.019-17.782-3.441-25.423 1.134-32.867 16.931-1.422 3.018-3.737 7.93-5.285 9.3-1.918-.809-5.689-4.83-8.004-7.298-12.536-13.366-20.876-14.514-36.591-5.832-2.802 1.548-7.856 4.34-9.974 4.515-1.002-1.794-1.666-7.048-2.074-10.281-2.241-17.745-9.097-24.591-26.841-26.83-3.518-.263-6.948-.954-10.289-2.073 1.062-3.518 2.567-6.838 4.516-9.96 8.407-15.202 7.028-24.531-5.834-36.583-2.791-2.342-5.224-5.006-7.298-7.993 2.869-2.163 5.97-3.922 9.302-5.279 15.799-7.436 20.385-15.073 16.939-32.856-2.134-11.02-1.562-12.261 10.03-10.018 17.782 3.441 25.422-1.134 32.866-16.93 1.422-3.018 3.737-7.931 5.285-9.3 1.918.809 5.689 4.83 8.004 7.298 11.876 12.662 21.16 14.356 36.592 5.831 10.117-5.588 10.583-5.835 12.048 5.767 2.24 17.745 9.097 24.589 26.84 26.828zm-33.072-51.555c-4.485 1.088-8.928 3.542-13.069 5.83-9.396 5.19-11.435 4.46-18.397-2.963-3.975-4.239-8.309-8.86-13.417-10.978l9.767-68.461 40.301 40.265z"/><path d="m400.436 298.618c9.652 0 9.668-15 0-15-9.651 0-9.667 15 0 15z"/><path d="m378.563 320.502c9.652 0 9.668-15 0-15-9.652 0-9.668 15 0 15z"/><path d="m356.689 342.387c9.652 0 9.668-15 0-15-9.652 0-9.668 15 0 15z"/><path d="m334.816 364.272c9.652 0 9.668-15 0-15-9.652 0-9.668 15 0 15z"/><path d="m312.942 386.157c9.652 0 9.668-15 0-15-9.652 0-9.668 15 0 15z"/><path d="m291.068 408.042c9.652 0 9.668-15 0-15-9.651 0-9.667 15 0 15z"/><path d="m460.201 337.414c1.917 0 3.835-.73 5.299-2.192 2.931-2.927 2.936-7.675.009-10.607l-22.885-22.925c-2.927-2.931-7.675-2.936-10.607-.009-2.931 2.927-2.936 7.675-.009 10.607l22.885 22.925c1.466 1.467 3.386 2.201 5.308 2.201z"/><path d="m438.469 359.153c1.917 0 3.835-.73 5.299-2.192 2.931-2.927 2.936-7.675.009-10.607l-22.885-22.925c-2.927-2.931-7.675-2.936-10.607-.009-2.931 2.927-2.936 7.675-.009 10.607l22.885 22.925c1.466 1.467 3.387 2.201 5.308 2.201z"/><path d="m416.737 380.893c1.917 0 3.835-.73 5.299-2.192 2.931-2.927 2.936-7.675.009-10.607l-22.885-22.925c-2.927-2.931-7.676-2.936-10.607-.009s-2.936 7.675-.009 10.607l22.885 22.925c1.466 1.467 3.387 2.201 5.308 2.201z"/><path d="m395.006 402.632c1.917 0 3.835-.73 5.299-2.192 2.931-2.927 2.936-7.675.009-10.607l-22.885-22.925c-2.927-2.931-7.675-2.936-10.607-.009-2.931 2.927-2.936 7.675-.009 10.607l22.885 22.925c1.465 1.467 3.386 2.201 5.308 2.201z"/><path d="m373.274 424.371c1.917 0 3.835-.73 5.299-2.192 2.931-2.927 2.936-7.675.009-10.607l-22.885-22.925c-7.261-6.785-17.385 3.334-10.616 10.598l22.885 22.925c1.465 1.468 3.386 2.201 5.308 2.201z"/><path d="m351.542 446.111c1.917 0 3.835-.73 5.299-2.192 2.931-2.927 2.936-7.675.009-10.607l-22.885-22.925c-2.927-2.931-7.675-2.936-10.607-.009-2.931 2.927-2.936 7.675-.009 10.607l22.885 22.925c1.465 1.467 3.386 2.201 5.308 2.201z"/><path d="m301.616 442.724 22.885 22.925c2.927 2.931 7.675 2.935 10.607.009 2.931-2.927 2.936-7.675.009-10.607l-22.885-22.925c-2.927-2.931-7.675-2.936-10.607-.009-2.93 2.927-2.935 7.676-.009 10.607z"/><path d="m248.038 191.86-73.932 30.237c-3.834 1.568-5.671 5.947-4.103 9.781 1.478 3.613 6.205 5.564 9.781 4.103l73.932-30.237c3.834-1.568 5.671-5.947 4.103-9.781-1.567-3.833-5.943-5.669-9.781-4.103z"/><path d="m208.622 196.947c.456 0 .915-.017 1.374-.051 4.762-.357 9.329-2.498 12.856-6.028 7.587-7.59 8.116-19.41 1.18-26.35-3.463-3.464-8.381-5.224-13.49-4.848-4.763.357-9.329 2.499-12.856 6.028-7.587 7.59-8.116 19.41-1.18 26.35 3.15 3.152 7.505 4.899 12.116 4.899zm-.327-20.646c.976-.977 2.204-1.587 3.369-1.674.572-.032 1.25.008 1.759.495.935.935.629 3.332-1.179 5.141 0 0 0 0-.001 0-.976.977-2.204 1.587-3.369 1.674-.443.033-1.253.013-1.759-.495-.935-.934-.629-3.331 1.18-5.141z"/><path d="m217.827 230.946c-4.763.357-9.329 2.498-12.857 6.028-7.586 7.59-8.115 19.41-1.18 26.35 7.314 7.319 19.434 5.737 26.347-1.18 7.586-7.59 8.115-19.41 1.179-26.35-3.462-3.464-8.382-5.228-13.489-4.848zm1.701 20.594c-1.584 1.726-3.294 2.119-5.128 1.18-.935-.935-.628-3.333 1.18-5.143.719-.719 3.715-2.593 5.128-1.18.934.936.628 3.334-1.18 5.143z"/><path d="m110.304 391.002-9.494 9.488c-6.859 6.855 3.744 17.463 10.604 10.61l9.494-9.488c6.78-7.263-3.343-17.382-10.604-10.61z"/><path d="m82.538 418.759-46.071 46.065c-6.858 6.856 3.749 17.464 10.605 10.607l46.071-46.065c6.858-6.856-3.748-17.464-10.605-10.607z"/><path d="m42.588 356.22c.642 0 1.295-.083 1.944-.257l39.415-10.552c4.001-1.071 6.376-5.184 5.306-9.185-1.072-4.001-5.186-6.375-9.185-5.306l-39.415 10.552c-8.393 2.248-6.445 14.748 1.935 14.748z"/><path d="m16.912 347.828-11.43 3.06c-9.244 2.475-5.08 16.888 3.879 14.49l11.43-3.06c9.368-2.508 5.488-16.996-3.879-14.49z"/><path d="m175.697 422.671c-4-1.07-8.113 1.304-9.185 5.306l-10.552 39.415c-2.438 9.111 11.954 13.35 14.49 3.879l10.552-39.415c1.072-4.001-1.303-8.113-5.305-9.185z"/><path d="m158.79 485.827c-4.004-1.072-8.113 1.304-9.185 5.306l-3.06 11.43c-1.071 4.001 1.305 8.113 5.306 9.185 3.674.983 8.193-1.603 9.185-5.306l3.06-11.43c1.07-4.002-1.305-8.114-5.306-9.185z"/><path d="m396.237 123.197c1.918 0 3.837-.732 5.302-2.195l9.494-9.488c2.93-2.928 2.931-7.677.003-10.607-2.927-2.929-7.676-2.931-10.606-.003l-9.494 9.488c-4.454 4.452-.997 12.805 5.301 12.805z"/><path d="m424.002 95.442c1.919 0 3.838-.732 5.303-2.196l42.186-42.18c2.929-2.929 2.93-7.678.001-10.606-2.929-2.93-7.678-2.93-10.606-.001l-42.186 42.18c-2.929 2.929-2.93 7.678-.001 10.606 1.464 1.464 3.384 2.197 5.303 2.197z"/><path d="m467.311 156.042-39.415 10.552c-9.244 2.475-5.08 16.888 3.879 14.49l39.415-10.552c4.001-1.071 6.376-5.184 5.306-9.185-1.072-4.001-5.186-6.375-9.185-5.305z"/><path d="m492.987 164.433c.642 0 1.295-.083 1.944-.257l11.43-3.06c4.001-1.071 6.376-5.183 5.306-9.185-1.072-4.001-5.186-6.376-9.185-5.306l-11.43 3.06c-4.001 1.071-6.376 5.183-5.306 9.185.898 3.352 3.928 5.563 7.241 5.563z"/><path d="m336.146 89.333c3.674.983 8.193-1.603 9.185-5.306l10.552-39.415c2.235-9.681-11.593-13.377-14.49-3.879l-10.553 39.416c-1.071 4.001 1.304 8.113 5.306 9.184z"/><path d="m353.053 26.178c3.894 1.075 8.127-1.271 9.185-5.306l3.06-11.43c1.071-4.001-1.305-8.113-5.306-9.185-4.004-1.072-8.113 1.304-9.185 5.306l-3.06 11.43c-1.07 4.001 1.305 8.113 5.306 9.185z"/></g></svg>