<svg id="Capa_1" enable-background="new 0 0 512 512" height="512" viewBox="0 0 512 512" width="512" xmlns="http://www.w3.org/2000/svg"><g><path d="m257.955 139.311-119.027 41.211c-5.219 1.807-7.984 7.502-6.178 12.722 1.432 4.136 5.306 6.731 9.449 6.731 1.085 0 2.189-.178 3.272-.553l119.027-41.211c5.219-1.807 7.984-7.502 6.178-12.722-1.806-5.219-7.503-7.987-12.721-6.178z"/><path d="m187.037 211.189c-12.476 12.477-12.477 32.778 0 45.255 6.238 6.238 14.433 9.357 22.627 9.357s16.389-3.119 22.627-9.357c12.477-12.477 12.476-32.778 0-45.255-12.476-12.476-32.776-12.476-45.254 0zm22.666 34.564c-6.637 0-12.016-5.38-12.016-12.016s5.38-12.016 12.016-12.016 12.016 5.38 12.016 12.016-5.379 12.016-12.016 12.016z"/><path d="m191.732 138.311c8.194 0 16.389-3.119 22.628-9.357 12.477-12.477 12.476-32.778 0-45.255s-32.779-12.476-45.254 0c-6.044 6.044-9.373 14.08-9.373 22.627s3.329 16.583 9.373 22.628c6.237 6.238 14.431 9.357 22.626 9.357zm-.139-43.926c6.637 0 12.016 5.38 12.016 12.016s-5.38 12.016-12.016 12.016-12.016-5.38-12.016-12.016 5.38-12.016 12.016-12.016z"/><path d="m312.317 210.36-16.772 16.772c-3.905 3.905-3.905 10.237 0 14.143 1.953 1.953 4.512 2.929 7.071 2.929s5.119-.976 7.071-2.929l16.772-16.772c3.905-3.905 3.905-10.237 0-14.143-3.904-3.905-10.236-3.905-14.142 0z"/><path d="m509.069 222.93.002-.006-53.459-53.459-38.65-144.245c-2.351-8.772-7.977-16.104-15.841-20.645-7.866-4.542-17.03-5.747-25.8-3.396l-122.58 32.845-24.052-24.052c-13.257-13.257-34.827-13.257-48.083 0l-140.007 140.007c-11.039 11.039-12.876 27.838-5.531 40.806l-32.139 32.139.002.006c-1.838 1.84-2.931 4.362-2.931 7.065v272c0 5.523 4.477 10 10 10h201c5.523 0 10-4.477 10-10s-4.477-10-10-10h-191v-237.858l36.929 36.929c1.875 1.875 4.419 2.929 7.071 2.929h384c2.652 0 5.196-1.054 7.071-2.929l36.929-36.929v237.858h-191c-5.523 0-10 4.477-10 10s4.477 10 10 10h201c5.523 0 10-4.477 10-10v-272c0-2.703-1.093-5.225-2.931-7.065zm-128.572-202.433c3.612-.967 7.385-.471 10.624 1.399s5.555 4.889 6.523 8.501l54.366 202.896-111.348-111.348c1.465-.18 2.934-.456 4.399-.849 17.043-4.567 27.193-22.148 22.627-39.191-2.212-8.256-7.507-15.157-14.909-19.431-7.403-4.274-16.027-5.411-24.282-3.197-8.256 2.212-15.157 7.507-19.431 14.909-2.185 3.785-3.544 7.891-4.061 12.102l-35.935-35.935zm-43.755 81.8c-6.637 0-12.016-5.38-12.016-12.016s5.38-12.016 12.016-12.016 12.016 5.38 12.016 12.016-5.38 12.016-12.016 12.016zm-268.6 171.698-43.999-44 24.194-24.194 68.195 68.194zm375.716 0h-166.987c3.133-3.926 2.886-9.662-.75-13.297-3.905-3.905-10.237-3.905-14.142 0l-13.296 13.297h-103.867l-89.399-89.398c-.003-.003-.006-.007-.009-.01s-.007-.006-.01-.009l-.657-.657c-5.458-5.459-5.459-14.341 0-19.799l140.008-140.008c5.458-5.458 14.341-5.458 19.798 0l142.008 142.009-11.827 11.827c-3.905 3.905-3.905 10.237 0 14.143 1.953 1.953 4.512 2.929 7.071 2.929s5.119-.976 7.071-2.929l11.827-11.827 83.445 83.446zm31.36-31.36-9.253-34.531 21.892 21.892z"/><path d="m210 409.995v-44c0-5.523-4.477-10-10-10h-136c-5.523 0-10 4.477-10 10v44c0 5.523 4.477 10 10 10h136c5.523 0 10-4.477 10-10zm-20-10h-116v-24h116z"/><path d="m64 443.933c-5.523 0-10 4.477-10 10s4.477 10 10 10h68c5.523 0 10-4.477 10-10s-4.477-10-10-10z"/><path d="m256 491.994c-2.63 0-5.21 1.07-7.07 2.93s-2.93 4.44-2.93 7.07c0 2.64 1.07 5.21 2.93 7.07s4.44 2.93 7.07 2.93 5.21-1.07 7.07-2.93 2.93-4.43 2.93-7.07c0-2.63-1.07-5.21-2.93-7.07s-4.44-2.93-7.07-2.93z"/></g></svg>