<?xml version="1.0" encoding="utf-8"?>
<!-- Generator: Adobe Illustrator 16.0.0, SVG Export Plug-In . SVG Version: 6.00 Build 0)  -->
<!DOCTYPE svg PUBLIC "-//W3C//DTD SVG 1.1//EN" "http://www.w3.org/Graphics/SVG/1.1/DTD/svg11.dtd">
<svg version="1.1" id="Layer_1" xmlns="http://www.w3.org/2000/svg" xmlns:xlink="http://www.w3.org/1999/xlink" x="0px" y="0px"
	 width="512px" height="512px" viewBox="0 0 512 512" enable-background="new 0 0 512 512" xml:space="preserve">
<g>
	<path d="M341.332,114.332c3.863,0.003,6.997-3.128,7-6.992c0-0.002,0-0.005,0-0.008v-41c0-3.866-3.135-7-7-7c-3.866,0-7,3.134-7,7
		v41c-0.003,3.864,3.128,6.998,6.992,7C341.326,114.332,341.329,114.332,341.332,114.332z"/>
	<path d="M462,169.4H422.24V72c-0.002-3.865-3.135-6.997-7-7h-42.92V26c0-3.865-3.134-7-7-7H146.68c-3.866,0-7,3.135-7,7v39H96.76
		c-3.865,0.003-6.998,3.135-7,7v97.4H50c-17.113,0.02-30.98,13.888-31,31v190.84c0.02,17.113,13.887,30.98,31,31h89.668V486
		c0,3.866,3.134,7,7,7h218.664c3.865,0,7-3.134,7-7v-63.76H462c17.112-0.02,30.979-13.887,31-31V200.4
		C492.98,183.288,479.113,169.42,462,169.4z M408.24,79v90.4h-35.92V79H408.24z M153.68,33h204.64v136.4H153.68V33z M103.76,79
		h35.92v90.4h-35.92V79z M103.76,408.24V337h35.908v71.24H103.76z M153.668,479V337h204.664c0,0,0,78.2,0,78.24s0,63.76,0,63.76
		H153.668z M372.332,408.24V337h35.907v71.24H372.332z M479,391.24c-0.012,9.385-7.616,16.989-17,17H422.24V330
		c-0.002-3.864-3.135-6.997-7-7H96.76c-3.865,0.003-6.998,3.136-7,7v78.24H50c-9.385-0.011-16.989-7.615-17-17V200.4
		c0.011-9.385,7.615-16.989,17-17h412c9.384,0.011,16.988,7.615,17,17V391.24z"/>
	<path d="M161.332,217.384H62c-3.866,0-7,3.135-7,7c0,3.866,3.134,7,7,7h99.332c3.865,0,7-3.134,7-7
		C168.332,220.518,165.198,217.384,161.332,217.384z"/>
	<path d="M316,357H196c-3.866,0-7,3.135-7,7c0,3.866,3.134,7,7,7h120c3.866,0,7-3.134,7-7C323,360.135,319.866,357,316,357z"/>
	<path d="M316,393H196c-3.866,0-7,3.135-7,7c0,3.866,3.134,7,7,7h120c3.866,0,7-3.134,7-7C323,396.135,319.866,393,316,393z"/>
	<path d="M316,429H196c-3.866,0-7,3.135-7,7c0,3.866,3.134,7,7,7h120c3.866,0,7-3.134,7-7C323,432.135,319.866,429,316,429z"/>
	<path d="M438,205.384c-10.494,0-19,8.507-19,19c0,10.494,8.506,19,19,19c10.493,0,19-8.506,19-19l0,0
		C456.987,213.896,448.488,205.397,438,205.384z M438,229.384c-2.762,0-5-2.238-5-5c0-2.761,2.238-5,5-5c2.761,0,5,2.239,5,5
		C442.997,227.144,440.76,229.382,438,229.384z"/>
	<path d="M390.5,205.384c-10.494,0-19,8.507-19,19c0,10.494,8.506,19,19,19c10.493,0,19-8.506,19-19l0,0
		C409.487,213.896,400.988,205.397,390.5,205.384z M390.5,229.384c-2.762,0-5-2.238-5-5c0-2.761,2.238-5,5-5c2.761,0,5,2.239,5,5
		C395.497,227.144,393.26,229.382,390.5,229.384z"/>
	<path d="M343,205.384c-10.494,0-19,8.507-19,19c0,10.494,8.506,19,19,19c10.487,0,18.991-8.496,19-18.983
		C361.995,213.906,353.494,205.397,343,205.384z M343,229.384c-2.762,0-5-2.238-5-5c0-2.761,2.238-5,5-5
		c2.761,0.001,5,2.239,5,5.001c0,0.005,0,0.01,0,0.016C347.989,227.154,345.754,229.382,343,229.384z"/>
</g>
</svg>
