<svg id="Layer_5" enable-background="new 0 0 64 64" height="512" viewBox="0 0 64 64" width="512" xmlns="http://www.w3.org/2000/svg"><g><path d="m63 10c0-4.962-4.038-9-9-9-2.826 0-5.349 1.312-7.001 3.357-.739-.84-1.815-1.357-2.999-1.357-1.2 0-2.266.542-3 1.382-.734-.84-1.8-1.382-3-1.382s-2.266.542-3 1.382c-.734-.84-1.8-1.382-3-1.382s-2.266.542-3 1.382c-.734-.84-1.8-1.382-3-1.382-2.206 0-4 1.794-4 4v2h-21v30h15v2.301c0 2.624.94 5.166 2.648 7.158l2.642 3.082c-.778.543-1.29 1.441-1.29 2.459v9h26v-9c0-1.11-.613-2.07-1.512-2.589l2.062-3.609c.949-1.659 1.45-3.546 1.45-5.457v-3.345h15zm-9-7c3.86 0 7 3.14 7 7s-3.14 7-7 7-7-3.14-7-7 3.14-7 7-7zm-10 2c.818 0 1.535.49 1.842 1.223-.401.862-.674 1.794-.783 2.777h-3.059v-2c0-1.103.897-2 2-2zm-6 0c1.103 0 2 .897 2 2v2h-4v-2c0-1.103.897-2 2-2zm-6 0c1.103 0 2 .897 2 2v2h-4v-2c0-1.103.897-2 2-2zm-8 2c0-1.103.897-2 2-2s2 .897 2 2v2h-4zm20 54h-22v-7c0-.552.449-1 1-1h20c.551 0 1 .448 1 1zm2-18.655c0 1.563-.41 3.107-1.186 4.465l-2.394 4.19h-18.96l-3.293-3.842c-1.397-1.631-2.167-3.711-2.167-5.857v-13.301c0-.551.449-1 1-1 1.654 0 3 1.346 3 3v8.566l1.602.961c2.096 1.258 3.398 3.558 3.398 6.002v1.471h2v-1.471c0-2.488-1.061-4.847-2.834-6.529h19.834zm-22-5.345v-7c0-2.757-2.243-5-5-5-1.654 0-3 1.346-3 3v9h-13v-26h42.059c.077.694.24 1.362.466 2h-6.525v8h8v-5.356c1.651 2.044 4.174 3.356 7 3.356s5.349-1.312 7-3.356v21.356zm21-22v4h-4v-4z"/><path d="m59.707 7.707-1.414-1.414-5.293 5.293-2.293-2.293-1.414 1.414 3.707 3.707z"/><path d="m5 23h12v-10h-12zm2-8h8v6h-8z"/><path d="m27 13h-8v8h8zm-2 6h-4v-4h4z"/><path d="m37 13h-8v8h8zm-2 6h-4v-4h4z"/><path d="m26 33h23v2h-23z"/><path d="m47 29h2v2h-2z"/><path d="m26 29h19v2h-19z"/><path d="m26 25h23v2h-23z"/><path d="m51 35h8v-10h-8zm2-8h4v6h-4z"/><path d="m5 25h9v2h-9z"/><path d="m5 29h9v2h-9z"/><path d="m5 33h9v2h-9z"/></g></svg>