<?xml version="1.0" encoding="utf-8"?>
<!-- Generator: Adobe Illustrator 16.0.0, SVG Export Plug-In . SVG Version: 6.00 Build 0)  -->
<!DOCTYPE svg PUBLIC "-//W3C//DTD SVG 1.1//EN" "http://www.w3.org/Graphics/SVG/1.1/DTD/svg11.dtd">
<svg version="1.1" id="outline_expand" xmlns="http://www.w3.org/2000/svg" xmlns:xlink="http://www.w3.org/1999/xlink" x="0px"
	 y="0px" width="512px" height="512px" viewBox="0 0 512 512" enable-background="new 0 0 512 512" xml:space="preserve">
<g>
	<path d="M384,469c0,6.617-5.383,12-12,12H140c-6.617,0-12-5.383-12-12V344h-16v125c0,15.439,12.561,28,28,28h232
		c15.438,0,28-12.561,28-28V344h-16V469z"/>
	<path d="M128,45c0-6.617,5.383-12,12-12h232c6.617,0,12,5.383,12,12v59h16V45c0-15.438-12.562-28-28-28H140
		c-15.439,0-28,12.562-28,28v59h16V45z"/>
	<path d="M368,104V67c0-9.925-8.075-18-18-18h-30c-4.418,0-8,3.582-8,8c0,4.411-3.589,8-8,8h-96c-4.411,0-8-3.589-8-8
		c0-4.418-3.582-8-8-8h-30c-9.925,0-18,8.075-18,18v37h16V67c0-1.103,0.896-2,2-2h23.371c3.302,9.313,12.198,16,22.629,16h96
		c10.43,0,19.327-6.688,22.629-16H350c1.103,0,2,0.897,2,2v37H368z"/>
	<path d="M144,344v103c0,9.926,8.075,18,18,18h188c9.925,0,18-8.074,18-18V344h-16v103c0,1.104-0.897,2-2,2H162
		c-1.104,0-2-0.896-2-2V344H144z"/>
	<path d="M216,41h80v16h-80V41z"/>
	<path d="M448,120H336v16h104v76.348l-29.239,25.341l10.479,12.091L440,233.52V312h-90.555l55.793-48.354l-10.479-12.091
		L325.016,312H72V136h248v-16H64c-4.418,0-8,3.582-8,8v192c0,4.419,3.582,8,8,8h384c4.418,0,8-3.581,8-8V128
		C456,123.582,452.418,120,448,120z"/>
	<path d="M112,256v32c0,4.418,3.582,8,8,8h96c4.418,0,8-3.582,8-8v-72h8c4.418,0,8-3.582,8-8v-32c0-4.418-3.582-8-8-8h-36.688
		l10.343-10.343l-11.313-11.313L172.686,168h-9.372l-21.656-21.656l-11.313,11.313L140.687,168H104c-4.418,0-8,3.582-8,8v32
		c0,4.418,3.582,8,8,8h8v24h16v-24h32v64h-32v-24H112z M112,200v-16h112v16H112z M176,216h32v64h-32V216z"/>
	<path d="M264,168h88v16h-88V168z"/>
	<path d="M368,168h48v16h-48V168z"/>
	<path d="M264,208h56v16h-56V208z"/>
	<path d="M336,208h72v16h-72V208z"/>
	<path d="M264,248h96v16h-96V248z"/>
	<path d="M292,408h-12v16h12c15.438,0,28-12.561,28-28v-8c0-15.438-12.562-28-28-28h-72c-15.439,0-28,12.562-28,28v8
		c0,15.439,12.561,28,28,28h44v-16h-44c-6.617,0-12-5.383-12-12v-8c0-6.616,5.383-12,12-12h72c6.617,0,12,5.384,12,12v8
		C304,402.617,298.617,408,292,408z"/>
	<path d="M48,360h16v16H48V360z"/>
	<path d="M32,376h16v16H32V376z"/>
	<path d="M64,376h16v16H64V376z"/>
	<path d="M48,392h16v16H48V392z"/>
	<path d="M448,40h16v16h-16V40z"/>
	<path d="M432,56h16v16h-16V56z"/>
	<path d="M464,56h16v16h-16V56z"/>
	<path d="M448,72h16v16h-16V72z"/>
</g>
</svg>
