<svg height="512" viewBox="0 0 74 74" width="512" xmlns="http://www.w3.org/2000/svg"><g id="Numbers"><text fill="rgb(0,0,0)" font-family="ArialMT, Arial" font-size="18" transform="translate(31.994 -141.877)">7<tspan x="-5.005" y="124">17</tspan><tspan x="-5.005" y="248">27</tspan><tspan x="-5.005" y="372">37</tspan><tspan x="-5.005" y="496">47</tspan><tspan x="-5.005" y="620">57</tspan><tspan x="-5.005" y="744">67</tspan><tspan x="-5.005" y="868">77</tspan><tspan x="-5.005" y="992">87</tspan><tspan x="-5.005" y="1116">97</tspan><tspan x="-10.011" y="1240">107</tspan><tspan letter-spacing="-.074em" x="-9.343" y="1364">1</tspan><tspan x="-.668" y="1364">17</tspan><tspan x="-10.011" y="1488">127</tspan><tspan x="-10.011" y="1612">137</tspan><tspan x="-10.011" y="1736">147</tspan><tspan x="-10.011" y="1860">157</tspan><tspan x="-10.011" y="1984">167</tspan><tspan x="-10.011" y="2108">177</tspan><tspan x="-10.011" y="2232">187</tspan><tspan x="-10.011" y="2356">197</tspan><tspan x="-10.011" y="2480">207</tspan><tspan x="-10.011" y="2604">217</tspan><tspan x="-10.011" y="2728">227</tspan><tspan x="-10.011" y="2852">237</tspan><tspan x="-10.011" y="2976">247</tspan><tspan x="-10.011" y="3100">257</tspan><tspan x="-10.011" y="3224">267</tspan><tspan x="-10.011" y="3348">277</tspan><tspan x="-10.011" y="3472">287</tspan><tspan x="-10.011" y="3596">297</tspan></text></g><g id="Icons"><path d="m34.44 15.92h-2.97a1 1 0 0 1 0-2h2.97a1 1 0 0 1 0 2z"/><path d="m69.27 60.08h-65.27a2.007 2.007 0 0 1 -2-2.01v-42.14a2.007 2.007 0 0 1 2-2.01h10.56a1 1 0 0 1 0 2h-10.56v42.15l65.27.01-2.427-3.341a2.015 2.015 0 0 1 -.006-2.35l3.163-4.356-3.158-4.345a2.015 2.015 0 0 1 0-2.349l3.158-4.347-3.159-4.344a2.015 2.015 0 0 1 0-2.349l3.159-4.339-3.16-4.342a2.015 2.015 0 0 1 0-2.349l2.435-3.338-27.835-.011a1 1 0 0 1 0-2h27.83a2.008 2.008 0 0 1 1.624 3.18l-2.436 3.337 3.16 4.343a2.015 2.015 0 0 1 .005 2.349l-3.165 4.338 3.16 4.343a2.015 2.015 0 0 1 .005 2.349l-3.164 4.347 3.159 4.344a2.015 2.015 0 0 1 .005 2.349l-3.163 4.359 2.428 3.333a2.007 2.007 0 0 1 -1.618 3.189z"/><path d="m24.47 15.92h-2.91a1 1 0 0 1 0-2h2.91a1 1 0 0 1 0 2z"/><path d="m54.178 18.934a1 1 0 0 1 -1-1v-3.011a1 1 0 0 1 2 0v3.011a1 1 0 0 1 -1 1z"/><path d="m54.178 27.656a1 1 0 0 1 -1-1v-2.7a1 1 0 0 1 2 0v2.7a1 1 0 0 1 -1 1z"/><path d="m54.178 35.761a1 1 0 0 1 -1-1v-2.7a1 1 0 1 1 2 0v2.7a1 1 0 0 1 -1 1z"/><path d="m54.178 43.867a1 1 0 0 1 -1-1v-2.7a1 1 0 1 1 2 0v2.7a1 1 0 0 1 -1 1z"/><path d="m54.178 51.972a1 1 0 0 1 -1-1v-2.7a1 1 0 0 1 2 0v2.7a1 1 0 0 1 -1 1z"/><path d="m54.178 60.077a1 1 0 0 1 -1-1v-2.7a1 1 0 0 1 2 0v2.7a1 1 0 0 1 -1 1z"/><path d="m16.681 39.588a1 1 0 0 1 -.722-1.692l15.579-16.259a1 1 0 1 1 1.443 1.384l-15.581 16.259a1 1 0 0 1 -.719.308z"/><path d="m29.921 40.007a3.987 3.987 0 1 1 3.986-3.987 3.992 3.992 0 0 1 -3.986 3.987zm0-5.974a1.987 1.987 0 1 0 1.986 1.987 1.989 1.989 0 0 0 -1.986-1.987z"/><path d="m18.964 28.781a3.987 3.987 0 1 1 3.986-3.987 3.992 3.992 0 0 1 -3.986 3.987zm0-5.974a1.987 1.987 0 1 0 1.986 1.987 1.989 1.989 0 0 0 -1.986-1.987z"/><path d="m20.181 47.61h-9.943a1 1 0 0 1 0-2h9.943a1 1 0 0 1 0 2z"/><path d="m44.85 47.61h-9.943a1 1 0 0 1 0-2h9.943a1 1 0 1 1 0 2z"/><path d="m29.258 47.61h-3.922a1 1 0 0 1 0-2h3.922a1 1 0 0 1 0 2z"/><path d="m12.57 53.631h-2.332a1 1 0 0 1 0-2h2.332a1 1 0 0 1 0 2z"/><path d="m44.85 53.631h-8.707a1 1 0 0 1 0-2h8.707a1 1 0 0 1 0 2z"/><path d="m30.493 53.631h-12.766a1 1 0 0 1 0-2h12.766a1 1 0 0 1 0 2z"/></g></svg>