<?xml version="1.0" encoding="utf-8"?>
<!-- Generator: Adobe Illustrator 16.0.0, SVG Export Plug-In . SVG Version: 6.00 Build 0)  -->
<!DOCTYPE svg PUBLIC "-//W3C//DTD SVG 1.1//EN" "http://www.w3.org/Graphics/SVG/1.1/DTD/svg11.dtd">
<svg version="1.1" id="Layer_5" xmlns="http://www.w3.org/2000/svg" xmlns:xlink="http://www.w3.org/1999/xlink" x="0px" y="0px"
	 width="512px" height="512px" viewBox="0 0 512 512" enable-background="new 0 0 512 512" xml:space="preserve">
<g>
	<path d="M504,80c0-39.695-32.305-72-72-72c-22.608,0-42.792,10.496-56.008,26.856C370.08,28.136,361.472,24,352,24
		c-9.601,0-18.128,4.336-24,11.057C322.128,28.336,313.6,24,304,24c-9.601,0-18.128,4.336-24,11.057C274.128,28.336,265.6,24,256,24
		c-9.601,0-18.128,4.336-24,11.057C226.128,28.336,217.6,24,208,24c-17.648,0-32,14.353-32,32v16H8v240h120v18.408
		c0,20.992,7.52,41.328,21.184,57.265l21.136,24.655C164.096,416.673,160,423.856,160,432v72h208v-72
		c0-8.88-4.904-16.56-12.097-20.712l16.496-28.872C379.992,369.144,384,354.049,384,338.76V312h120V80z M432,24
		c30.88,0,56,25.12,56,56s-25.12,56-56,56c-30.881,0-56-25.12-56-56S401.119,24,432,24z M352,40c6.544,0,12.279,3.92,14.735,9.784
		c-3.208,6.896-5.392,14.353-6.264,22.216H336V56C336,47.177,343.176,40,352,40z M304,40c8.824,0,16,7.177,16,16v16h-32V56
		C288,47.177,295.176,40,304,40z M256,40c8.824,0,16,7.177,16,16v16h-32V56C240,47.177,247.176,40,256,40z M192,56
		c0-8.823,7.176-16,16-16s16,7.177,16,16v16h-32V56z M352,488H176v-56c0-4.415,3.592-8,8-8h160c4.408,0,8,3.585,8,8V488z
		 M368,338.76c0,12.504-3.28,24.855-9.488,35.72L339.36,408H187.68l-26.344-30.735C150.16,364.217,144,347.576,144,330.408V224
		c0-4.407,3.592-8,8-8c13.231,0,24,10.769,24,24v68.528l12.815,7.688C205.584,326.28,216,344.68,216,364.232V376h16v-11.768
		c0-19.904-8.488-38.776-22.672-52.232H368V338.76z M192,296v-56c0-22.056-17.944-40-40-40c-13.232,0-24,10.769-24,24v72H24V88
		h336.472c0.616,5.553,1.92,10.896,3.729,16H312v64h64v-42.848C389.208,141.504,409.392,152,431.999,152
		c22.608,0,42.792-10.496,56.001-26.848V296H192z M360,120v32h-32v-32H360z"/>
	<path d="M477.656,61.656l-11.312-11.312L424,92.688l-18.345-18.344l-11.312,11.312L424,115.312L477.656,61.656z"/>
	<path d="M40,184h96v-80H40V184z M56,120h64v48H56V120z"/>
	<path d="M216,104h-64v64h64V104z M200,152h-32v-32h32V152z"/>
	<path d="M296,104h-64v64h64V104z M280,152h-32v-32h32V152z"/>
	<path d="M208,264h184v16H208V264z"/>
	<path d="M376,232h16v16h-16V232z"/>
	<path d="M208,232h152v16H208V232z"/>
	<path d="M208,200h184v16H208V200z"/>
	<path d="M408,280h64v-80h-64V280z M424,216h32v48h-32V216z"/>
	<path d="M40,200h72v16H40V200z"/>
	<path d="M40,232h72v16H40V232z"/>
	<path d="M40,264h72v16H40V264z"/>
</g>
</svg>
