<?xml version="1.0" encoding="utf-8"?>
<!-- Generator: Adobe Illustrator 16.0.0, SVG Export Plug-In . SVG Version: 6.00 Build 0)  -->
<!DOCTYPE svg PUBLIC "-//W3C//DTD SVG 1.1//EN" "http://www.w3.org/Graphics/SVG/1.1/DTD/svg11.dtd">
<svg version="1.1" id="Capa_1" xmlns="http://www.w3.org/2000/svg" xmlns:xlink="http://www.w3.org/1999/xlink" x="0px" y="0px"
	 width="841.889px" height="595.281px" viewBox="0 0 841.889 595.281" enable-background="new 0 0 841.889 595.281"
	 xml:space="preserve">
<g>
	<g>
		<path d="M276.57,127.122c-11.164-11.538-26.548-18.033-42.603-17.987h-3.056c-16.039-0.032-31.399,6.461-42.553,17.987
			c-10.491,10.787-16.063,25.427-15.397,40.459l1.16,26.708c1.759,30.563,27.332,54.285,57.94,53.744h0.755
			c30.608,0.541,56.182-23.182,57.94-53.744l1.21-26.708C292.632,152.549,287.061,137.909,276.57,127.122z M270.934,193.466
			c-1.345,19.921-18.158,35.238-38.117,34.725h-0.755c-19.959,0.514-36.773-14.804-38.117-34.725l-0.348-8.105
			c18.913-0.842,37.072-7.657,51.869-19.466c6.102,9.023,15.313,15.483,25.875,18.146L270.934,193.466z M258.492,146.568
			c-0.552-4.231-3.749-7.636-7.937-8.453c-4.174-0.863-8.428,1.059-10.537,4.762c-0.129,0.209-12.441,19.684-47.186,22.66
			c-0.086-9.191,3.45-18.048,9.842-24.654c7.407-7.633,17.6-11.931,28.236-11.905h3.056c10.637-0.025,20.828,4.272,28.236,11.905
			c5.787,6.031,9.223,13.938,9.683,22.283C265.021,160.097,260.04,153.927,258.492,146.568z"/>
	</g>
</g>
<g>
	<g>
		<path d="M663.5,365.234c-11.164-11.539-26.547-18.033-42.602-17.988h-3.057c-16.039-0.031-31.399,6.462-42.552,17.988
			c-10.492,10.786-16.064,25.427-15.398,40.459l1.161,26.708c1.759,30.563,27.332,54.284,57.94,53.743h0.754
			c30.608,0.541,56.182-23.181,57.94-53.743l1.211-26.708C679.563,390.661,673.992,376.02,663.5,365.234z M659.056,404.889
			l-1.19,26.688c-1.345,19.92-18.159,35.237-38.118,34.725h-0.754c-19.959,0.513-36.773-14.805-38.118-34.725l-1.19-26.738
			c-0.383-9.612,3.205-18.958,9.922-25.845c7.407-7.634,17.599-11.931,28.235-11.906h3.057c10.637-0.024,20.828,4.272,28.235,11.906
			C655.864,385.893,659.452,395.26,659.056,404.889z"/>
	</g>
</g>
<g>
	<g>
		<path d="M429.791,144.286c-10.646-10.297-27.539-10.297-38.185,0L280.845,255.048c-1.862,1.862-4.39,2.909-7.024,2.906H172.911
			c-27.383,0.032-49.574,22.225-49.606,49.607V446.46c0,16.438,13.325,29.764,29.764,29.764c3.38,0,6.734-0.574,9.921-1.696v11.617
			c0,5.479,4.442,9.922,9.922,9.922h119.056c5.479,0,9.921-4.442,9.921-9.922V325.281c-0.001-2.511,0.949-4.929,2.659-6.767
			l125.892-135.396C440.984,172.217,440.694,154.831,429.791,144.286z M416.27,169.244c-0.036,0.035-0.072,0.069-0.107,0.104
			l-126.18,135.664c-5.109,5.513-7.945,12.752-7.937,20.27v150.942h-99.214V327.404c0-5.479-4.442-9.922-9.921-9.922
			c-5.479,0-9.922,4.442-9.922,9.922V446.46c0,5.479-4.441,9.921-9.921,9.921s-9.921-4.442-9.921-9.921V307.561
			c0-16.438,13.325-29.765,29.764-29.765h100.909c7.901,0.025,15.483-3.115,21.054-8.721l110.761-110.762
			c3.021-2.864,7.755-2.864,10.775,0C419.389,161.372,419.326,166.265,416.27,169.244z"/>
	</g>
</g>
<g>
	<g>
		<path d="M232.439,287.719c-5.479,0-9.921,4.442-9.921,9.921v119.056c0,5.479,4.442,9.922,9.921,9.922
			c5.479,0,9.922-4.442,9.922-9.922V297.639C242.361,292.161,237.918,287.719,232.439,287.719z"/>
	</g>
</g>
<g>
	<g>
		<path d="M445.182,365.234c-11.153-11.526-26.514-18.02-42.553-17.988h-3.056c-16.039-0.031-31.399,6.462-42.553,17.988
			c-10.491,10.786-16.063,25.427-15.397,40.459l1.161,26.708c1.758,30.563,27.332,54.284,57.939,53.743h0.755
			c30.608,0.541,56.182-23.181,57.94-53.743l1.16-26.708C461.245,390.661,455.673,376.02,445.182,365.234z M440.786,404.889
			l-1.19,26.688c-1.345,19.92-18.158,35.237-38.117,34.725h-0.755c-19.959,0.513-36.772-14.805-38.117-34.725l-1.19-26.738
			c-0.383-9.612,3.205-18.958,9.921-25.845c7.408-7.634,17.6-11.931,28.236-11.906h3.056c10.637-0.024,20.829,4.272,28.236,11.906
			C437.594,385.893,441.184,395.26,440.786,404.889z"/>
	</g>
</g>
<g>
	<g>
		<path d="M452.365,496.066H349.838c-26.47,0.027-47.923,21.479-47.95,47.949v41.343c0,5.479,4.442,9.921,9.922,9.921
			c5.479,0,9.921-4.442,9.921-9.921v-41.343c0.017-15.517,12.592-28.091,28.107-28.106h102.526
			c15.518,0.016,28.091,12.59,28.107,28.106v41.343c0,5.479,4.442,9.921,9.921,9.921c5.479,0,9.922-4.442,9.922-9.921v-41.343
			C500.287,517.546,478.835,496.094,452.365,496.066z"/>
	</g>
</g>
<g>
	<g>
		<path d="M670.634,496.066H568.107c-26.47,0.027-47.922,21.479-47.949,47.949v41.343c0,5.479,4.442,9.921,9.921,9.921
			c5.479,0,9.922-4.442,9.922-9.921v-41.343c0.016-15.517,12.591-28.091,28.106-28.106h102.527
			c15.517,0.016,28.091,12.59,28.106,28.106v41.343c0,5.479,4.442,9.921,9.922,9.921c5.479,0,9.921-4.442,9.921-9.921v-41.343
			C718.556,517.546,697.104,496.094,670.634,496.066z"/>
	</g>
</g>
<g>
	<g>
		<path d="M689.316,0H341.077c-16.292,0.159-29.383,13.473-29.268,29.765v148.819c0,5.479,4.442,9.921,9.921,9.921
			c5.479,0,9.922-4.441,9.922-9.921V59.528H698.74v238.111c0.128,5.339-4.086,9.775-9.425,9.922H350.751
			c-5.479,0-9.922,4.442-9.922,9.921c0,5.479,4.442,9.922,9.922,9.922h338.564c16.292-0.159,29.383-13.473,29.268-29.765V29.764
			C718.698,13.472,705.608,0.159,689.316,0z M698.74,39.685H331.653v-9.921c-0.128-5.339,4.086-9.775,9.425-9.922h348.238
			c5.339,0.146,9.553,4.583,9.425,9.922V39.685z"/>
	</g>
</g>
<g>
	<g>
		<path d="M668.977,126.497c-5.479,0-9.921,4.442-9.921,9.921v141.379c0,5.479,4.442,9.922,9.921,9.922
			c5.479,0,9.922-4.442,9.922-9.922V136.418C678.899,130.939,674.456,126.497,668.977,126.497z"/>
	</g>
</g>
<g>
	<g>
		<path d="M629.291,188.505c-5.479,0-9.921,4.442-9.921,9.922v79.37c0,5.479,4.442,9.922,9.921,9.922
			c5.479,0,9.922-4.442,9.922-9.922v-79.37C639.213,192.947,634.771,188.505,629.291,188.505z"/>
	</g>
</g>
<g>
	<g>
		<path d="M589.607,168.663c-5.479,0-9.922,4.441-9.922,9.921v99.213c0,5.479,4.442,9.922,9.922,9.922
			c5.479,0,9.921-4.442,9.921-9.922v-99.213C599.528,173.104,595.085,168.663,589.607,168.663z"/>
	</g>
</g>
<g>
	<g>
		<path d="M549.921,228.19c-5.479,0-9.921,4.442-9.921,9.922v39.685c0,5.479,4.441,9.922,9.921,9.922s9.921-4.442,9.921-9.922
			v-39.685C559.842,232.633,555.401,228.19,549.921,228.19z"/>
	</g>
</g>
<g>
	<g>
		<path d="M674.484,81.038c-4.56-3.041-10.721-1.812-13.762,2.748l-33.871,50.797l-31.292-23.464
			c-4.366-3.311-10.59-2.452-13.899,1.915c-0.377,0.497-0.706,1.027-0.982,1.587l-38.634,77.277l-37.76,28.355
			c-4.385,3.287-5.272,9.506-1.984,13.89c3.287,4.384,9.506,5.271,13.89,1.984l39.686-29.765c1.25-0.92,2.27-2.119,2.976-3.502
			l34.358-68.734l30.131,22.63c4.383,3.288,10.602,2.401,13.89-1.982c0.11-0.146,0.216-0.297,0.317-0.448l39.686-59.527
			C680.273,90.239,679.042,84.078,674.484,81.038z"/>
	</g>
</g>
<g>
	<g>
		<path d="M480.472,79.371H361.416c-5.479,0-9.921,4.442-9.921,9.921c0,5.479,4.441,9.922,9.921,9.922h119.056
			c5.479,0,9.921-4.442,9.921-9.922C490.393,83.813,485.95,79.371,480.472,79.371z"/>
	</g>
</g>
<g>
	<g>
		<path d="M540,79.371h-19.843c-5.479,0-9.922,4.442-9.922,9.921c0,5.479,4.442,9.922,9.922,9.922H540
			c5.479,0,9.921-4.442,9.921-9.922C549.921,83.813,545.479,79.371,540,79.371z"/>
	</g>
</g>
</svg>
